<svg width="375" height="332" viewBox="0 0 375 332" fill="none" xmlns="http://www.w3.org/2000/svg">
<g opacity="0.6">
<path d="M-65.7049 1.41876C-59.4261 12.231 -53.1482 23.0428 -44.6924 29.7202C-36.2374 36.3971 -25.604 38.9387 -12.1325 36.0898C1.33818 33.2404 17.6479 25.0011 22.2034 39.0841C26.7598 53.1676 19.5624 89.5749 28.1148 96.0669C36.6685 102.558 60.9719 79.1347 72.2226 80.5038C83.4728 81.8717 81.6704 108.032 93.2351 108.805C104.799 109.578 129.73 84.9632 140.007 88.1804C150.284 91.398 145.908 122.447 147.695 141.788C149.483 161.131 157.433 168.766 168.707 170.091C179.982 171.415 194.578 166.428 208.374 162.963C222.169 159.498 235.163 157.556 248.04 155.835C260.917 154.114 273.677 152.615 281.488 160.517C289.298 168.42 292.158 185.725 293.617 205.69C295.076 225.656 295.134 248.282 306.635 249.176C318.135 250.068 341.079 229.229 354.296 226.864C367.511 224.499 371.001 240.608 377.084 251.791C383.167 262.974 391.844 269.231 401.649 273.345C411.455 277.459 422.388 279.429 433.321 281.401" stroke="#AEEA00" stroke-width="2"/>
<path d="M-65.7049 1.41876C-59.4261 12.231 -53.1482 23.0428 -44.6924 29.7202C-36.2374 36.3971 -25.604 38.9387 -12.1325 36.0898C1.33818 33.2404 17.6479 25.0011 22.2034 39.0841C26.7598 53.1676 19.5624 89.5749 28.1148 96.0669C36.6685 102.558 60.9719 79.1347 72.2226 80.5038C83.4728 81.8717 81.6704 108.032 93.2351 108.805C104.799 109.578 129.73 84.9632 140.007 88.1804C150.284 91.398 145.908 122.447 147.695 141.788C149.483 161.131 157.433 168.766 168.707 170.091C179.982 171.415 194.578 166.428 208.374 162.963C222.169 159.498 235.163 157.556 248.04 155.835C260.917 154.114 273.677 152.615 281.488 160.517C289.298 168.42 292.158 185.725 293.617 205.69C295.076 225.656 295.134 248.282 306.635 249.176C318.135 250.068 341.079 229.229 354.296 226.864C367.511 224.499 371.001 240.608 377.084 251.791C383.167 262.974 391.844 269.231 401.649 273.345C411.455 277.459 422.388 279.429 433.321 281.401" stroke="#0D0D0D" stroke-opacity="0.82" stroke-width="2"/>
<path d="M-75.4759 19.9767C-70.9973 34.208 -66.52 48.4397 -56.2402 51.6529C-45.9613 54.8656 -29.8799 47.0598 -18.3502 47.899C-6.82176 48.7386 0.156306 58.2227 8.87915 64.3908C17.6029 70.5594 28.0723 73.4124 39.6626 74.1343C51.2539 74.8567 63.9656 73.4487 67.7813 88.9392C71.5961 104.429 66.5152 136.817 76.3575 140.861C86.1994 144.903 110.966 120.602 125.794 115.174C140.624 109.746 145.516 123.192 148.583 140.102C151.651 157.012 152.894 177.387 156.271 193.71C159.649 210.033 165.159 222.303 179.949 216.95C194.738 211.597 218.807 188.62 231.163 187.89C243.517 187.16 244.159 208.679 246.844 226.314C249.53 243.95 254.261 257.703 266.08 257.99C277.9 258.278 296.808 245.102 310.188 242.427C323.567 239.752 331.417 247.579 342.748 248.797C354.077 250.014 368.887 244.623 377.972 250.104C387.057 255.586 390.418 271.94 397.208 281.78C403.998 291.621 414.218 294.946 424.438 298.272" stroke="#AEEA00" stroke-width="2"/>
<path d="M-75.4759 19.9767C-70.9973 34.208 -66.52 48.4397 -56.2402 51.6529C-45.9613 54.8656 -29.8799 47.0598 -18.3502 47.899C-6.82176 48.7386 0.156306 58.2227 8.87915 64.3908C17.6029 70.5594 28.0723 73.4124 39.6626 74.1343C51.2539 74.8567 63.9656 73.4487 67.7813 88.9392C71.5961 104.429 66.5152 136.817 76.3575 140.861C86.1994 144.903 110.966 120.602 125.794 115.174C140.624 109.746 145.516 123.192 148.583 140.102C151.651 157.012 152.894 177.387 156.271 193.71C159.649 210.033 165.159 222.303 179.949 216.95C194.738 211.597 218.807 188.62 231.163 187.89C243.517 187.16 244.159 208.679 246.844 226.314C249.53 243.95 254.261 257.703 266.08 257.99C277.9 258.278 296.808 245.102 310.188 242.427C323.567 239.752 331.417 247.579 342.748 248.797C354.077 250.014 368.887 244.623 377.972 250.104C387.057 255.586 390.418 271.94 397.208 281.78C403.998 291.621 414.218 294.946 424.438 298.272" stroke="#0D0D0D" stroke-opacity="0.82" stroke-width="2"/>
<path d="M-114.56 94.2091C-101.644 92.4149 -88.7292 90.6212 -72.2294 82.0208C-55.7305 73.42 -35.6471 58.0133 -30.7865 71.5191C-25.9263 85.0234 -36.2879 127.441 -30.2052 138.623C-24.1216 149.806 -1.59285 129.755 9.46081 131.496C20.5154 133.238 20.0948 156.772 28.6969 163.172C37.2977 169.571 54.9207 158.838 65.6981 161.106C76.4746 163.374 80.4057 178.645 93.8158 175.91C107.227 173.176 130.118 152.438 138.812 158.66C147.507 164.882 142.007 198.065 143.835 217.329C145.664 236.593 154.82 241.939 170.177 235.509C185.534 229.078 207.091 210.872 219.615 209.823C232.138 208.773 235.629 224.88 245.068 229.689C254.507 234.497 269.896 228.008 281.181 229.31C292.467 230.611 299.651 239.701 305.747 250.862C311.84 262.024 316.846 275.254 324.094 284.226C331.341 293.196 340.832 297.908 352.212 299.03C363.592 300.154 376.861 297.689 385.66 303.713C394.46 309.737 398.789 324.249 403.119 338.763" stroke="#AEEA00" stroke-width="2"/>
<path d="M-114.56 94.2091C-101.644 92.4149 -88.7292 90.6212 -72.2294 82.0208C-55.7305 73.42 -35.6471 58.0133 -30.7865 71.5191C-25.9263 85.0234 -36.2879 127.441 -30.2052 138.623C-24.1216 149.806 -1.59285 129.755 9.46081 131.496C20.5154 133.238 20.0948 156.772 28.6969 163.172C37.2977 169.571 54.9207 158.838 65.6981 161.106C76.4746 163.374 80.4057 178.645 93.8158 175.91C107.227 173.176 130.118 152.438 138.812 158.66C147.507 164.882 142.007 198.065 143.835 217.329C145.664 236.593 154.82 241.939 170.177 235.509C185.534 229.078 207.091 210.872 219.615 209.823C232.138 208.773 235.629 224.88 245.068 229.689C254.507 234.497 269.896 228.008 281.181 229.31C292.467 230.611 299.651 239.701 305.747 250.862C311.84 262.024 316.846 275.254 324.094 284.226C331.341 293.196 340.832 297.908 352.212 299.03C363.592 300.154 376.861 297.689 385.66 303.713C394.46 309.737 398.789 324.249 403.119 338.763" stroke="#0D0D0D" stroke-opacity="0.82" stroke-width="2"/>
</g>
</svg>
