<svg width="18" height="18" viewBox="0 0 18 18" fill="none" xmlns="http://www.w3.org/2000/svg">
<path fill-rule="evenodd" clip-rule="evenodd" d="M6.54566 3.72439L6.51171 3.70773L5.3317 3.16482C5.02501 3.04896 4.61305 2.92703 4.19381 3.05426C3.66505 3.21471 3.26563 3.62624 3.0846 4.12961C2.94646 4.51374 3.00271 4.92005 3.07645 5.26189C3.15264 5.61503 3.28774 6.05889 3.44947 6.59025L3.45927 6.62246L4.10038 8.72903C4.16632 8.94567 4.17027 8.96804 4.17217 8.9842C4.17354 8.99592 4.17435 9.00774 4.17458 9.01954C4.17491 9.03635 4.17407 9.05318 4.17208 9.06984C4.17114 9.07761 4.16973 9.08682 4.16116 9.11824C4.15189 9.15226 4.13422 9.21233 4.09969 9.32484L3.47194 11.3699L3.46204 11.4022C3.29855 11.9347 3.16203 12.3794 3.0848 12.7332C3.01009 13.0755 2.95267 13.4825 3.09037 13.8675C3.27077 14.3718 3.67033 14.7844 4.19941 14.9455C4.61925 15.0732 5.03212 14.9509 5.33927 14.8348C5.66067 14.7134 6.05764 14.5186 6.52237 14.2905L6.55658 14.2737L12.8884 11.1663L12.9218 11.1498L14.0534 10.5589C14.3407 10.3825 14.6645 10.1426 14.836 9.76433C15.0547 9.28203 15.0547 8.7213 14.836 8.23902C14.6645 7.86071 14.3407 7.62091 14.0534 7.44457C13.7633 7.2665 13.3751 7.076 12.9211 6.85322L12.8883 6.83715L6.54566 3.72439ZM5.53773 9.75173L5.53366 9.765L4.9059 11.8101C4.72996 12.3833 4.61258 12.7678 4.55029 13.0531C4.50107 13.2786 4.50661 13.3618 4.50689 13.3733C4.53232 13.4374 4.57031 13.4754 4.60343 13.4955C4.63496 13.4891 4.69941 13.4731 4.80908 13.4317C5.05539 13.3386 5.38757 13.1765 5.89575 12.9271L12.2275 9.81972C12.7234 9.57629 13.0466 9.41682 13.2687 9.28045C13.4107 9.1933 13.4627 9.14348 13.4764 9.12936C13.5078 9.04901 13.5079 8.95444 13.4765 8.87408C13.4627 8.85996 13.4107 8.81013 13.2687 8.72297C13.0466 8.5866 12.7234 8.42712 12.2275 8.18372L5.88481 5.07097C5.37812 4.82231 5.04708 4.66077 4.8016 4.56803C4.69238 4.52677 4.6282 4.51083 4.59681 4.50449C4.56376 4.52443 4.52576 4.56226 4.50024 4.62631C4.49992 4.63783 4.49422 4.72073 4.54272 4.94556C4.60412 5.23018 4.72021 5.61375 4.89428 6.18573L5.52305 8.25173H8.72402C9.13823 8.25173 9.47402 8.58752 9.47402 9.00173C9.47402 9.41595 9.13823 9.75173 8.72402 9.75173H5.53773Z" fill="white"/>
</svg>
