<svg width="18" height="18" viewBox="0 0 18 18" fill="none" xmlns="http://www.w3.org/2000/svg">
<path fill-rule="evenodd" clip-rule="evenodd" d="M6.54564 3.72426L6.51169 3.7076L5.33168 3.16469C5.025 3.04883 4.61304 2.9269 4.1938 3.05412C3.66503 3.21458 3.26561 3.6261 3.08459 4.12948C2.94644 4.5136 3.00269 4.91992 3.07644 5.26176C3.15263 5.6149 3.28772 6.05875 3.44945 6.59011L3.45926 6.62233L4.10037 8.7289C4.1663 8.94554 4.17025 8.9679 4.17215 8.98407C4.17353 8.99579 4.17433 9.00761 4.17456 9.0194C4.17489 9.03621 4.17406 9.05304 4.17206 9.06971C4.17113 9.07748 4.16972 9.08668 4.16115 9.1181C4.15187 9.15213 4.13421 9.2122 4.09967 9.32471L3.47192 11.3698L3.46202 11.402C3.29854 11.9346 3.16201 12.3793 3.08479 12.7331C3.01008 13.0753 2.95265 13.4824 3.09036 13.8674C3.27075 14.3717 3.67032 14.7842 4.19939 14.9454C4.61923 15.0731 5.0321 14.9508 5.33926 14.8347C5.66066 14.7133 6.05763 14.5184 6.52235 14.2904L6.55657 14.2736L12.8883 11.1661L12.9218 11.1497L14.0534 10.5587C14.3407 10.3824 14.6645 10.1425 14.836 9.76419C15.0547 9.2819 15.0546 8.72117 14.836 8.23889C14.6645 7.86057 14.3407 7.62078 14.0534 7.44443C13.7633 7.26636 13.3751 7.07587 12.9211 6.85308L12.8883 6.83701L6.54564 3.72426ZM5.53772 9.7516L5.53364 9.76486L4.90589 11.81C4.72994 12.3831 4.61256 12.7677 4.55028 13.053C4.50105 13.2785 4.50659 13.3617 4.50687 13.3732C4.53231 13.4373 4.57029 13.4753 4.60342 13.4953C4.63495 13.489 4.69939 13.473 4.80907 13.4315C5.05538 13.3385 5.38755 13.1764 5.89573 12.927L12.2274 9.81958C12.7234 9.57616 13.0465 9.41669 13.2687 9.28032C13.4107 9.19317 13.4627 9.14334 13.4764 9.12923C13.5078 9.04888 13.5078 8.9543 13.4764 8.87395C13.4627 8.85983 13.4107 8.81 13.2687 8.72284C13.0465 8.58647 12.7234 8.42699 12.2275 8.18359L5.88479 5.07084C5.3781 4.82217 5.04707 4.66064 4.80158 4.5679C4.69237 4.52664 4.62819 4.5107 4.59679 4.50435C4.56375 4.5243 4.52575 4.56213 4.50022 4.62617C4.49991 4.63769 4.4942 4.7206 4.54271 4.94543C4.60411 5.23005 4.72019 5.61361 4.89427 6.18559L5.52304 8.2516H8.724C9.13821 8.2516 9.474 8.58739 9.474 9.0016C9.474 9.41581 9.13821 9.7516 8.724 9.7516H5.53772Z" fill="black" fill-opacity="0.87"/>
</svg>
