<svg width="24" height="24" viewBox="0 0 24 24" fill="none" xmlns="http://www.w3.org/2000/svg">
<path fill-rule="evenodd" clip-rule="evenodd" d="M9.33334 4.88889C9.33334 4.39797 8.93537 4 8.44445 4C7.98567 4 7.60807 4.34756 7.56059 4.79375C7.55727 4.825 7.55556 4.85675 7.55556 4.88889V6.66667H6.46914C6.03557 6.66667 5.62448 6.77796 5.26658 6.97458C5.08896 7.05805 4.91878 7.16653 4.76043 7.30843L4.7571 7.31142C4.51874 7.52594 4.35831 7.77021 4.24938 8.02924C4.08999 8.34968 4.00001 8.71116 4.00001 9.0963V10.2218L4 10.34L4.00001 10.4V17.5704C4.00001 18.9333 5.12683 20 6.46914 20H17.5309C18.8732 20 20 18.9333 20 17.5704L20 10.34L20 10.2244V9.0963C20 8.71115 19.91 8.34966 19.7506 8.0292C19.6417 7.77017 19.4812 7.52592 19.2429 7.31141C19.0836 7.16807 18.9123 7.05867 18.7335 6.97462C18.3756 6.77798 17.9645 6.66667 17.5309 6.66667H16.4444V4.88889C16.4444 4.39797 16.0465 4 15.5556 4C15.0646 4 14.6667 4.39797 14.6667 4.88889V6.66667H9.33334V4.88889ZM6.06828 8.56464C5.98478 8.62116 5.91623 8.69449 5.86673 8.77784C5.85253 8.82457 5.83841 8.88691 5.82589 8.97077C5.78413 9.2503 5.77853 9.62806 5.77787 10.2222H18.2221C18.2215 9.62806 18.2159 9.2503 18.1741 8.97077C18.1616 8.8869 18.1475 8.82456 18.1333 8.77784C18.0838 8.69449 18.0152 8.62116 17.9317 8.56465C17.8608 8.53841 17.7511 8.51105 17.5778 8.49008C17.2982 8.45625 16.9418 8.44747 16.4444 8.44521C16.444 8.93578 16.0462 9.33333 15.5556 9.33333C15.0646 9.33333 14.6667 8.93536 14.6667 8.44444H9.33334C9.33334 8.93536 8.93537 9.33333 8.44445 9.33333C7.95379 9.33333 7.55598 8.93578 7.55556 8.44521C7.05822 8.44747 6.70176 8.45625 6.42221 8.49008C6.2489 8.51105 6.13922 8.5384 6.06828 8.56464ZM5.77778 12V17.5704C5.77778 17.9093 6.06597 18.2222 6.46914 18.2222H17.5309C17.934 18.2222 18.2222 17.9093 18.2222 17.5704V12H5.77778Z" fill="black" fill-opacity="0.87"/>
</svg>
