<svg width="375" height="287" viewBox="0 0 375 287" fill="none" xmlns="http://www.w3.org/2000/svg">
<g opacity="0.16">
<path d="M467.124 1.29321C459.706 11.3581 452.289 21.4227 443.157 27.1404C434.026 32.8577 423.179 34.2273 410.097 29.9296C397.017 25.6315 381.7 15.6665 375.639 29.1703C369.578 42.6744 372.771 79.6487 363.563 85.1716C354.354 90.694 332.743 64.7649 321.411 64.9019C310.078 65.0375 309.024 91.2391 297.444 90.749C285.864 90.2586 263.759 63.0778 253.194 65.1577C242.627 67.238 243.599 98.5785 239.718 117.611C235.837 136.644 227.103 143.369 215.752 143.459C204.4 143.549 190.433 137.003 177.096 132.058C163.76 127.112 151.054 123.768 138.441 120.656C125.828 117.544 113.306 114.666 104.682 121.671C96.0582 128.677 91.3322 145.569 87.7099 165.256C84.087 184.945 81.5681 207.43 70.0382 207.068C58.5089 206.704 37.9687 183.492 25.0877 179.703C12.2077 175.913 6.98609 191.548 -0.27718 202.002C-7.54138 212.457 -16.8478 217.733 -27.0418 220.755C-37.2367 223.778 -48.3192 224.547 -59.4022 225.317" stroke="#AEEA00" stroke-width="2"/>
<path d="M474.818 20.8042C468.817 34.4638 462.818 48.1239 452.25 50.1995C441.682 52.2748 426.546 42.7656 414.993 42.3453C403.442 41.9256 395.473 50.5941 386.131 55.7766C376.788 60.9594 366.07 62.6564 354.47 62.1129C342.869 61.5698 330.386 58.7872 324.908 73.7705C319.43 88.7534 320.957 121.501 310.733 124.451C300.51 127.398 278.535 100.547 264.385 93.5381C250.234 86.5286 243.908 99.362 239.019 115.838C234.129 132.314 230.677 152.433 225.544 168.291C220.411 184.15 213.598 195.748 199.478 188.817C185.359 181.886 163.933 156.428 151.73 154.358C139.528 152.288 136.549 173.609 131.961 190.847C127.372 208.086 121.173 221.243 109.393 220.242C97.6118 219.243 80.2496 204.087 67.2403 199.973C54.2319 195.858 45.5763 202.784 34.1807 202.762C22.786 202.739 8.65045 195.769 -0.976756 200.229C-10.6045 204.689 -15.7249 220.581 -23.5446 229.624C-31.3653 238.667 -41.8862 240.861 -52.4076 243.055" stroke="#AEEA00" stroke-width="2"/>
<path d="M505.593 98.8482C492.949 95.6593 480.306 92.4711 464.84 82.1265C449.375 71.7816 431.087 54.2813 424.786 67.178C418.485 80.0734 424.17 123.366 416.907 133.82C409.643 144.275 389.429 121.892 378.252 122.42C367.073 122.949 364.931 146.389 355.683 151.814C346.437 157.241 330.087 144.653 319.127 145.735C308.167 146.817 302.598 161.57 289.565 157.392C276.531 153.216 256.033 130.109 246.713 135.349C237.392 140.588 239.25 174.172 235.336 193.123C231.422 212.074 221.739 216.391 207.173 208.329C192.607 200.265 173.159 179.822 160.823 177.417C148.488 175.01 143.266 190.641 133.36 194.395C123.453 198.148 108.862 190.023 97.5025 190.089C86.1414 190.154 78.0109 198.409 70.7375 208.841C63.4654 219.273 57.0501 231.88 48.8692 240.01C40.6888 248.139 30.7415 251.789 19.3076 251.667C7.87272 251.546 -5.04967 247.652 -14.4516 252.682C-23.8545 257.714 -29.7374 271.669 -35.6208 285.625" stroke="#AEEA00" stroke-width="2"/>
</g>
</svg>
