<svg width="24" height="24" viewBox="0 0 24 24" fill="none" xmlns="http://www.w3.org/2000/svg">
<path fill-rule="evenodd" clip-rule="evenodd" d="M4.5 4.5C5.01573 3.98427 6.02065 4 6.75 4H17.25C17.9793 4 18.9843 3.98428 19.5 4.5C20.0157 5.01572 20 6.02065 20 6.75V17.25C20 17.9793 20.0157 18.9843 19.5 19.5C18.9843 20.0157 17.9793 20 17.25 20H6.75C6.02065 20 5.01572 20.0157 4.5 19.5C3.98428 18.9843 4 17.9793 4 17.25V6.75C4 6.02065 3.98427 5.01573 4.5 4.5ZM6.75 6C6.55109 6 6 6 6 6C6 6 6 6.55109 6 6.75V17.25C6 17.4489 6 18 6 18C6 18 6.55109 18 6.75 18H17.25C17.4489 18 18 18 18 18C18 18 18 17.4489 18 17.25V6.75C18 6.55109 18 6 18 6C18 6 17.4489 6 17.25 6H6.75ZM7.5 8.5C7.5 7.94772 7.94772 7.5 8.5 7.5C9.05228 7.5 9.50088 7.94772 9.50088 8.5C9.50088 9.05228 9.05316 9.5 8.50088 9.5C7.94859 9.5 7.5 9.05228 7.5 8.5ZM10.125 8.5C10.125 7.94772 10.5727 7.5 11.125 7.5H15.5C16.0523 7.5 16.5 7.94772 16.5 8.5C16.5 9.05228 16.0523 9.5 15.5 9.5H11.125C10.5727 9.5 10.125 9.05228 10.125 8.5ZM7.5 12C7.5 11.4477 7.94772 11 8.5 11C9.05228 11 9.50088 11.4477 9.50088 12C9.50088 12.5523 9.05316 13 8.50088 13C7.94859 13 7.5 12.5523 7.5 12ZM10.125 12C10.125 11.4477 10.5727 11 11.125 11H15.5C16.0523 11 16.5 11.4477 16.5 12C16.5 12.5523 16.0523 13 15.5 13H11.125C10.5727 13 10.125 12.5523 10.125 12ZM7.5 15.5C7.5 14.9477 7.94772 14.5 8.5 14.5C9.05228 14.5 9.50088 14.9477 9.50088 15.5C9.50088 16.0523 9.05316 16.5 8.50088 16.5C7.94859 16.5 7.5 16.0523 7.5 15.5ZM10.125 15.5C10.125 14.9477 10.5727 14.5 11.125 14.5H15.5C16.0523 14.5 16.5 14.9477 16.5 15.5C16.5 16.0523 16.0523 16.5 15.5 16.5H11.125C10.5727 16.5 10.125 16.0523 10.125 15.5Z" fill="black" fill-opacity="0.87"/>
</svg>
