<svg width="18" height="18" viewBox="0 0 18 18" fill="none" xmlns="http://www.w3.org/2000/svg">
<path fill-rule="evenodd" clip-rule="evenodd" d="M13.7203 4.50102C13.6456 4.50674 13.5715 4.53661 13.5075 4.59208L9.82837 7.78063C9.33701 8.20646 8.66298 8.20646 8.17162 7.78063L4.49252 4.59211C4.42843 4.53657 4.35422 4.5067 4.27943 4.50103C4.29731 4.50035 4.31528 4.5 4.33333 4.5H13.6667C13.6846 4.5 13.7025 4.50034 13.7203 4.50102ZM13.8265 4.50914C13.7915 4.50511 13.7561 4.50238 13.7203 4.50102C13.7559 4.49829 13.7916 4.50105 13.8265 4.50914ZM4.27943 4.50103C4.24401 4.49835 4.20846 4.50109 4.1738 4.50911C4.20861 4.50511 4.24384 4.5024 4.27943 4.50103Z" fill="black" fill-opacity="0.87"/>
<path d="M15 12.2143V5.78571C15 5.41237 14.835 5.07619 14.5714 4.8413L10.3079 8.49652C9.53327 9.16782 8.46673 9.16783 7.69212 8.49652L3.42857 4.8413C3.16502 5.07619 3 5.41237 3 5.78571V12.2143C3 12.9244 3.59695 13.5 4.33333 13.5H13.6667C14.403 13.5 15 12.9244 15 12.2143Z" fill="black" fill-opacity="0.87"/>
</svg>
