<svg width="24" height="24" viewBox="0 0 24 24" fill="none" xmlns="http://www.w3.org/2000/svg">
<path fill-rule="evenodd" clip-rule="evenodd" d="M18.2937 6.00136C18.1941 6.00899 18.0953 6.04881 18.01 6.12277L13.1045 10.3742C12.4494 10.9419 11.5506 10.9419 10.8955 10.3742L5.99002 6.12282C5.90457 6.04876 5.80562 6.00893 5.7059 6.00138C5.72974 6.00046 5.7537 6 5.77778 6H18.2222C18.2462 6 18.27 6.00046 18.2937 6.00136ZM18.4353 6.01219C18.3887 6.00681 18.3414 6.00318 18.2937 6.00136C18.3412 5.99772 18.3889 6.0014 18.4353 6.01219ZM5.7059 6.00138C5.65868 5.9978 5.61128 6.00146 5.56506 6.01214C5.61148 6.00681 5.65845 6.00319 5.7059 6.00138Z" fill="black" fill-opacity="0.87"/>
<path d="M20 16.2857V7.71429C20 7.21649 19.78 6.76825 19.4286 6.45507L13.7438 11.3287C12.711 12.2238 11.289 12.2238 10.2562 11.3287L4.57143 6.45507C4.22003 6.76825 4 7.21649 4 7.71429V16.2857C4 17.2325 4.79594 18 5.77778 18H18.2222C19.2041 18 20 17.2325 20 16.2857Z" fill="black" fill-opacity="0.87"/>
</svg>
