<svg width="140" height="141" viewBox="0 0 140 141" fill="none" xmlns="http://www.w3.org/2000/svg">
<g opacity="0.8">
<path d="M70.0009 137.908C107.317 137.908 137.408 107.653 137.408 70.5002C137.408 49.1193 127.445 30.0557 111.92 17.7118C100.418 8.55909 85.8522 3.09277 70.0009 3.09277C54.1602 3.09277 39.5939 8.55909 28.0925 17.7118C23.1107 21.6614 18.6871 26.3273 14.9902 31.5303C7.18568 42.5366 2.59351 55.9865 2.59351 70.5002C2.59351 107.843 32.8774 137.908 70.0009 137.908ZM10.6333 123.718C12.2546 122.984 14.1742 123.725 14.9084 125.346C15.6426 126.967 14.9236 128.877 13.3023 129.611C11.6812 130.346 9.74953 129.636 9.01532 128.015C8.2811 126.394 9.01219 124.453 10.6333 123.718ZM4.29138 118.955C5.32327 118.487 6.54506 118.959 7.01237 119.991C7.47968 121.022 7.02203 122.238 5.99014 122.705C4.95834 123.173 3.72888 122.721 3.26156 121.689C2.79425 120.658 3.25957 119.422 4.29138 118.955ZM128.812 10.8928C130.162 9.73337 132.212 9.90637 133.372 11.2566C134.531 12.6068 134.376 14.6416 133.026 15.801C131.676 16.9604 129.623 16.8212 128.464 15.471C127.304 14.1208 127.462 12.0522 128.812 10.8928ZM121.388 8.09853C122.248 7.36057 123.553 7.47068 124.291 8.33005C125.029 9.18941 124.93 10.4845 124.071 11.2225C123.211 11.9604 121.905 11.8718 121.167 11.0124C120.429 10.1531 120.529 8.83643 121.388 8.09853Z" fill="#E1E1E1" fill-opacity="0.4"/>
<path d="M129.881 32.4879L105.2 127.082C103.918 131.997 98.8947 134.941 93.9803 133.659L40.5977 119.733C35.6833 118.451 32.7388 113.428 34.021 108.513L58.7013 13.9188C59.9835 9.0044 65.0069 6.05991 69.9213 7.34211L123.304 21.2679C128.218 22.5501 131.163 27.5735 129.881 32.4879Z" fill="#B7BDC4" fill-opacity="0.8"/>
<path d="M102.579 107.824L121.996 33.965C122.74 31.1145 121.016 28.1739 118.165 27.4302L108.83 24.9957C107.767 24.7183 106.639 25.0726 105.926 25.908L103.771 28.4307C103.365 28.9064 102.72 29.1134 102.106 28.953L84.9295 24.4716C84.3148 24.3112 83.8532 23.8156 83.7318 23.2025L83.0839 19.9484C82.8694 18.8709 82.0582 18.0107 80.9951 17.7333L72.2748 15.4591C69.4244 14.7155 66.4838 16.4391 65.7401 19.2895L46.3232 93.1487C45.3521 96.8709 47.5822 100.676 51.3044 101.647L94.081 112.805C97.8031 113.776 101.608 111.546 102.579 107.824Z" fill="white" fill-opacity="0.8"/>
<path d="M97.7748 21.79C97.6118 22.4149 96.9731 22.7893 96.3482 22.6262L89.4461 20.8254C88.3497 20.5394 88.5898 19.279 88.6099 19.3988C88.7729 18.7739 89.4116 18.3995 90.0365 18.5626L96.9386 20.3634C97.5635 20.5264 97.9379 21.1651 97.7748 21.79ZM99.3833 22.2097C99.2203 22.8345 99.5947 23.4733 100.22 23.6363L100.561 23.7253C101.656 24.0111 102.071 22.7853 101.987 22.8891C102.15 22.2642 101.776 21.6255 101.151 21.4624L100.81 21.3734C100.185 21.2104 99.5464 21.5848 99.3833 22.2097ZM73.9174 116.837C73.8046 118.879 72.0555 120.437 70.0144 120.324C67.9816 120.211 66.4148 118.47 66.5276 116.429C66.6404 114.388 68.3895 112.83 70.4224 112.942C72.4635 113.055 74.0303 114.796 73.9174 116.837Z" fill="white" fill-opacity="0.8"/>
<path d="M79.7896 68.2917C79.9193 67.7331 80.4763 67.3858 81.0343 67.5154C81.5923 67.6445 81.9397 68.2015 81.811 68.7596C81.6919 69.2728 82.0095 69.784 82.525 69.9034C83.0476 70.0234 83.557 69.7014 83.6745 69.1895C83.8041 68.6314 84.3621 68.2856 84.9191 68.4132C85.4771 68.5423 85.8245 69.0993 85.6959 69.6573C85.5126 70.4463 85.0335 71.1162 84.3449 71.5446C82.0402 72.9772 79.1886 70.8926 79.7896 68.2917ZM85.2523 81.2425C83.481 80.7788 83.5288 78.937 83.0273 78.8053C82.5183 78.679 81.6635 80.3083 79.896 79.8414C78.7333 79.5375 78.3475 78.6271 78.0933 78.025C77.7633 77.2452 77.6752 77.2236 77.0076 77.7415C76.4912 78.1415 75.7114 78.7471 74.5467 78.4428C72.7753 77.9799 72.825 76.1395 72.3248 76.0072C71.7708 75.8623 71.4386 75.2957 71.5835 74.7418C71.7293 74.1873 72.2974 73.8561 72.8494 74.0009C74.6208 74.4638 74.5711 76.3043 75.0713 76.4366C75.5764 76.5628 76.4239 74.9373 78.1996 75.399C79.97 75.8624 79.9205 77.7029 80.4206 77.8351C80.9248 77.964 81.7799 76.336 83.5519 76.7991C85.3236 77.2617 85.2773 79.1046 85.7769 79.2358C86.2783 79.3656 87.1462 77.7368 88.9103 78.2002C89.4642 78.3451 89.7964 78.9117 89.6516 79.4656C89.5058 80.0201 88.9386 80.3533 88.3857 80.2065C88.2469 80.1705 88.1598 80.1978 87.7153 80.5417C86.9414 81.1384 86.2431 81.5005 85.2523 81.2425Z" fill="#C5CAD0" fill-opacity="0.8"/>
<path d="M76.4154 62.5111C75.7356 65.4529 72.7887 67.3004 69.8388 66.6188C66.905 65.9408 65.0674 62.9877 65.7472 60.046C66.427 57.104 69.3702 55.2727 72.304 55.9506C75.2539 56.6323 77.0952 59.5692 76.4154 62.5111Z" fill="#DEE1E4" fill-opacity="0.8"/>
<path d="M69.6046 67.6285C63.9531 66.3226 62.7494 58.8048 67.6318 55.7608C69.1053 54.8403 70.8492 54.5486 72.5375 54.94C76.0395 55.7492 78.2331 59.2502 77.4259 62.7441C76.616 66.2433 73.1213 68.4406 69.6046 67.6285ZM68.7296 57.5205C65.4092 59.5903 66.2151 64.7168 70.0725 65.6081C72.4618 66.1613 74.8533 64.6653 75.4045 62.2773C75.9544 59.8973 74.4586 57.5124 72.0696 56.9604C70.8842 56.6876 69.7057 56.9112 68.7296 57.5205Z" fill="#B5BFC8" fill-opacity="0.8"/>
<path d="M75.5042 60.3575C75.1086 62.0694 73.4013 63.1285 71.6978 62.7348C69.9942 62.3412 68.9334 60.6424 69.3289 58.9306C69.7226 57.227 71.4212 56.1659 73.1247 56.5596C74.8282 56.9532 75.8979 58.654 75.5042 60.3575Z" fill="#C5CAD0" fill-opacity="0.8"/>
<path d="M74.8397 59.0918C74.6742 59.8083 73.9595 60.2516 73.2465 60.0868C72.5335 59.922 72.0895 59.211 72.255 58.4945C72.4198 57.7815 73.1308 57.3373 73.8438 57.5021C74.5568 57.6669 75.0045 58.3787 74.8397 59.0918Z" fill="white" fill-opacity="0.8"/>
<path d="M102.013 69.2045C101.333 72.1463 98.3866 73.9938 95.4366 73.3121C92.5029 72.6342 90.6653 69.6811 91.3451 66.7393C92.0249 63.7974 94.9681 61.966 97.9018 62.644C100.852 63.3256 102.693 66.2626 102.013 69.2045Z" fill="#E5E7E9" fill-opacity="0.8"/>
<path d="M90.3342 66.5058C90.7251 64.814 91.753 63.3749 93.2296 62.4543C94.7041 61.5343 96.446 61.2416 98.1353 61.6335C101.637 62.4427 103.831 65.9437 103.024 69.4376C102.632 71.1309 101.603 72.5725 100.126 73.4961C95.2348 76.5545 89.0251 72.1721 90.3342 66.5058ZM96.6658 63.539C95.8465 63.539 95.0414 63.7684 94.3274 64.214C91.007 66.2837 91.8129 71.4103 95.6703 72.3016C98.0511 72.8518 100.449 71.3684 101.002 68.9708C101.552 66.5908 100.056 64.2059 97.6674 63.6539C97.3352 63.5775 96.999 63.539 96.6658 63.539Z" fill="#B5BFC8" fill-opacity="0.8"/>
<path d="M101.102 67.0509C100.706 68.7627 98.9991 69.8218 97.2956 69.4282C95.5921 69.0345 94.5312 67.3358 94.9268 65.6239C95.3204 63.9204 97.019 62.8593 98.7226 63.2529C100.426 63.6466 101.496 65.3474 101.102 67.0509Z" fill="#C5CAD0" fill-opacity="0.8"/>
<path d="M100.438 65.7851C100.272 66.5016 99.5574 66.9449 98.8443 66.7802C98.1313 66.6154 97.6873 65.9044 97.8529 65.1879C98.0176 64.4748 98.7286 64.0307 99.4416 64.1955C100.155 64.3602 100.602 65.0721 100.438 65.7851Z" fill="white" fill-opacity="0.8"/>
<path d="M106.534 61.3272C106.326 61.3272 106.117 61.2649 105.934 61.1358L99.6655 56.6828C99.1986 56.3511 99.0892 55.7035 99.4204 55.2366C99.7516 54.7703 100.398 54.6604 100.867 54.9915L107.135 59.4445C107.602 59.7762 107.712 60.4238 107.38 60.8907C107.178 61.1753 106.859 61.3272 106.534 61.3272ZM64.9491 50.8829C64.8883 50.3132 65.3005 49.8023 65.8706 49.742L73.5178 48.9273C74.0758 48.8696 74.5984 49.2792 74.6581 49.8484C74.7189 50.418 74.3067 50.929 73.7365 50.9892L66.0894 51.804C65.5279 51.8663 65.0103 51.4571 64.9491 50.8829Z" fill="#C5CAD0" fill-opacity="0.8"/>
<path d="M9.90158 62.6143C10.8636 74.6054 20.633 84.345 32.6141 85.2674C36.7203 85.5848 40.8264 84.8905 44.5259 83.2639L53.0059 85.9617C54.3828 86.3965 55.7764 85.2201 55.4954 83.75L54.0176 75.9443C66.2025 60.5894 56.3677 37.5517 36.7302 35.9047C29.4305 35.2798 22.2695 37.8883 17.112 43.0358C11.9447 48.1734 9.31638 55.3145 9.90158 62.6143Z" fill="#D6DADD" fill-opacity="0.8"/>
<path d="M52.6412 60.1327C52.6412 70.1044 44.5672 78.1784 34.5955 78.1784C24.6238 78.1784 16.538 70.1044 16.538 60.1327C16.538 50.161 24.6238 42.0752 34.5955 42.0752C44.5672 42.0752 52.6412 50.161 52.6412 60.1327Z" fill="white" fill-opacity="0.8"/>
<path d="M23.4425 58.7856C22.7922 58.1353 22.7922 57.0807 23.4425 56.4303C29.5908 50.282 39.5916 50.2796 45.7367 56.424C46.387 57.0743 46.387 58.1287 45.7367 58.7793C45.0861 59.4295 44.0319 59.4295 43.3814 58.7793C38.5354 53.9331 30.6471 53.9358 25.7978 58.7856C25.1471 59.436 24.0931 59.4358 23.4425 58.7856Z" fill="#E5E7E9" fill-opacity="0.8"/>
<path d="M27.4901 63.218C26.8398 62.5676 26.8398 61.513 27.4901 60.8627C31.4069 56.9468 37.7762 56.9437 41.689 60.8564C42.3394 61.5067 42.3394 62.5613 41.689 63.2117C41.0385 63.8619 39.9843 63.8619 39.3337 63.2117C36.7198 60.5974 32.4633 60.6005 29.8454 63.218C29.1947 63.8684 28.1407 63.8682 27.4901 63.218Z" fill="#E5E7E9" fill-opacity="0.8"/>
<path d="M36.935 67.2651C36.935 68.5604 35.8802 69.6151 34.5849 69.6151C33.2933 69.6151 32.246 68.5604 32.246 67.2651C32.246 65.9698 33.2933 64.915 34.5849 64.915C35.8802 64.915 36.935 65.9698 36.935 67.2651Z" fill="#B7BDC4" fill-opacity="0.8"/>
<path d="M36.6703 51.3999L36.1227 61.949C36.0803 62.7648 35.4065 63.4046 34.5896 63.4046C33.7727 63.4046 33.0988 62.7648 33.0565 61.949L32.5089 51.3999C32.4633 50.522 33.1629 49.7852 34.042 49.7852H35.1372C36.0163 49.7852 36.7158 50.522 36.6703 51.3999Z" fill="#B7BDC4" fill-opacity="0.8"/>
<path d="M32.5062 31.098C31.933 31.098 31.4692 30.6336 31.4692 30.0609L31.4702 21.3251C31.4702 20.7524 31.935 20.2881 32.5072 20.2881C33.0804 20.2881 33.5443 20.7524 33.5443 21.3251L33.5432 30.0609C33.5432 30.6336 33.0784 31.098 32.5062 31.098ZM25.9569 33.2019L19.7812 27.0238C19.3761 26.6187 19.3761 25.9619 19.7812 25.5573C20.1863 25.1522 20.8426 25.1522 21.2477 25.5573L27.4233 31.7355C27.8284 32.1406 27.8284 32.7973 27.4233 33.2019C27.0182 33.607 26.362 33.607 25.9569 33.2019ZM38.3213 33.5078C37.4059 33.5078 36.9327 32.3921 37.5881 31.7375L43.7668 25.5614C44.1719 25.1563 44.8281 25.1563 45.2332 25.5614C45.6383 25.9665 45.6383 26.6232 45.2332 27.0278C39.0385 33.0673 39.1155 33.5078 38.3213 33.5078Z" fill="#C5CAD0" fill-opacity="0.8"/>
</g>
</svg>
