<svg width="215" height="85" viewBox="0 0 215 85" fill="none" xmlns="http://www.w3.org/2000/svg">
<path d="M170.553 41.763C170.553 42.8077 170.592 43.8245 170.672 44.8127L179.991 46.285C179.798 44.8724 179.702 43.3651 179.702 41.763C179.702 36.5755 180.729 32.5073 182.784 29.5586C184.839 26.6099 188.144 25.1355 192.698 25.1355C195.752 25.1355 198.224 25.8181 200.112 27.1833C202.056 28.4938 203.5 30.3777 204.444 32.835C205.388 35.2922 205.86 38.2682 205.86 41.763C205.86 44.9419 205.457 47.7479 204.651 50.1807L206.753 50.5129C208.926 46.864 211.723 43.6201 215 40.9238C214.903 36.2443 213.982 32.1742 212.17 28.7708C210.323 25.1451 207.706 22.3499 204.318 20.4428C200.991 18.4839 197.156 17.5288 192.864 17.5288C188.365 17.5288 184.389 18.4778 180.999 20.4398C177.601 22.3512 175.005 25.1566 173.212 28.7978C171.413 32.3956 170.553 36.7385 170.553 41.763Z" fill="#1A1A1B"/>
<path d="M38.0305 57.9708L38.0352 57.9641L38.0399 57.9574C39.9717 55.2003 40.9001 51.9048 40.9001 48.1512C40.9001 44.8915 40.2202 42.0534 38.7551 39.7294C37.3787 37.4589 35.3462 35.5745 32.7325 34.0527C30.2325 32.5115 27.1924 31.1073 23.6336 29.8292C20.4518 28.6423 17.9793 27.5546 16.187 26.5699C14.5654 25.6789 13.4769 24.7378 12.8102 23.7865L5.1207 22.5717C8.01172 26.4305 10.1501 30.8704 11.3223 35.681C13.1052 36.5728 15.0983 37.417 17.297 38.2159L17.3072 38.2196L17.3175 38.2232C20.8864 39.4649 23.587 40.6287 25.4646 41.7056L25.4866 41.7182L25.509 41.7302C27.433 42.7527 28.621 43.7949 29.2563 44.7944C29.8999 45.8068 30.2667 47.1171 30.2667 48.8065C30.2667 50.4376 29.8453 51.788 29.047 52.9218C28.262 54.0366 27.043 54.9603 25.2696 55.6384C23.5048 56.3132 21.2394 56.6805 18.4225 56.6805C15.6897 56.6805 13.0263 56.4057 10.4303 55.8574C9.32759 59.0976 7.7763 62.135 5.84918 64.8978C7.57727 65.293 9.46265 65.6005 11.5021 65.8233L11.5067 65.8238C13.6213 66.0485 15.8158 66.1603 18.0893 66.1603C22.5751 66.1603 26.5382 65.4825 29.9382 64.0758C33.3849 62.6727 36.1112 60.6492 38.0305 57.9708Z" fill="#1A1A1B"/>
<path d="M59.2133 65.4346C59.2133 64.4368 59.1645 63.2865 59.0692 61.9881C59.3128 62.202 59.5629 62.412 59.8194 62.6184L59.8493 62.6424L59.8804 62.665C61.3074 63.702 62.9828 64.5338 64.8841 65.1764C66.8554 65.8427 69.0594 66.161 71.474 66.161C75.4439 66.161 78.9653 65.255 81.9742 63.3833L81.9777 63.3811L81.9812 63.379C85.0537 61.4455 87.3804 58.6247 88.9866 55.0005C90.6532 51.311 91.4524 46.8804 91.4524 41.763C91.4524 39.7851 91.3405 37.9147 91.1121 36.1568L81.4855 34.6359C82.0309 36.7087 82.3037 39.0571 82.3037 41.6811C82.3037 44.9575 81.8594 47.8789 80.9708 50.4453C80.1377 52.9572 78.8326 54.9503 77.0554 56.4247C75.3338 57.899 73.1123 58.6362 70.391 58.6362C67.1699 58.6362 64.6152 57.9809 62.7269 56.6704C60.8942 55.3599 59.5891 53.4487 58.8116 50.9368C58.0341 48.4249 57.6453 45.367 57.6453 41.763V40.3706C57.7008 36.9304 58.1451 34.0909 58.9782 31.8521C59.0708 31.6033 59.1695 31.3616 59.2744 31.127L48.7464 29.4638V85H59.2133V65.4346Z" fill="#1A1A1B"/>
<path d="M99.9977 65.3415H110.465V39.2141L99.9977 37.5605V65.3415Z" fill="#1A1A1B"/>
<path d="M121.476 65.3414H131.943V42.6072L121.476 40.9537V65.3414Z" fill="#1A1A1B"/>
<path d="M165.22 56.3393C164.582 56.5324 163.711 56.7363 162.591 56.947C161.506 57.0978 160.454 57.1723 159.432 57.1723C157.745 57.1723 156.462 56.6736 155.459 55.7399C154.583 54.8256 154.003 53.2968 154.003 50.8545V46.0923L143.536 44.4387V51.0183C143.536 54.711 144.166 57.792 145.599 60.0984C146.972 62.307 148.794 63.931 151.069 64.8894L151.093 64.8998L151.118 64.9092C153.313 65.7487 155.673 66.1606 158.183 66.1606C159.615 66.1606 161.093 66.0148 162.615 65.7288C164.113 65.5004 165.398 65.1705 166.38 64.6876L167.248 64.2608V55.7257L165.22 56.3393Z" fill="#1A1A1B"/>
<path d="M201.765 64.5808L201.773 64.5777L201.781 64.5745C201.839 64.5515 201.897 64.5282 201.954 64.5048C202.406 60.852 203.405 57.3657 204.867 54.128L202.92 53.8204C202.171 54.916 201.263 55.8387 200.195 56.5885C198.251 57.9536 195.78 58.6362 192.781 58.6362C189.782 58.6362 187.311 57.9536 185.367 56.5885C183.423 55.2233 181.979 53.2848 181.035 50.773C180.985 50.63 180.937 50.4857 180.891 50.3401L171.246 48.8163C171.482 49.9271 171.779 50.9942 172.139 52.0168L172.145 52.0339L172.152 52.0508C173.27 55.0013 174.814 57.5535 176.798 59.6819C178.783 61.8112 181.135 63.4419 183.842 64.5654L183.855 64.5711L183.869 64.5766C186.57 65.6387 189.491 66.161 192.614 66.161C195.945 66.161 199.003 65.6436 201.765 64.5808Z" fill="#1A1A1B"/>
<path d="M170.35 41.763C170.35 42.8077 170.39 43.8245 170.469 44.8127L179.83 46.285C179.636 44.8724 179.539 43.3651 179.539 41.763C179.539 36.5755 180.571 32.5073 182.635 29.5586C184.699 26.6099 188.018 25.1355 192.592 25.1355C195.659 25.1355 198.142 25.8181 200.038 27.1833C201.99 28.4938 203.441 30.3777 204.389 32.835C205.337 35.2922 205.811 38.2682 205.811 41.763C205.811 44.9419 205.406 47.7479 204.597 50.1807L206.708 50.5129C208.89 46.864 211.7 43.6201 214.991 40.9238C214.893 36.2443 213.969 32.1742 212.149 28.7708C210.294 25.1451 207.665 22.3499 204.263 20.4428C200.922 18.4839 197.069 17.5288 192.759 17.5288C188.24 17.5288 184.247 18.4778 180.842 20.4398C177.429 22.3512 174.821 25.1566 173.021 28.7978C171.214 32.3956 170.35 36.7385 170.35 41.763Z" fill="#AEEA00"/>
<path d="M143.215 27.0082V40.5258L153.728 42.1793V27.0082H166.696V18.3475H153.728V8.27277H146.639L143.577 18.0358L136.856 21.0265V27.0082H143.215Z" fill="#AEEA00"/>
<path d="M131.571 38.6943V18.3474H121.059V37.0407L131.571 38.6943Z" fill="#AEEA00"/>
<path d="M130.362 3.41001C129.249 2.40916 127.906 1.88375 126.399 1.88375C124.815 1.88375 123.398 2.38734 122.251 3.42608C120.95 4.5437 120.473 6.20478 120.473 8.01609C120.473 9.8127 120.97 11.4362 122.23 12.5873C123.381 13.6388 124.805 14.1484 126.399 14.1484C127.915 14.1484 129.266 13.6166 130.382 12.6038C131.703 11.461 132.241 9.83318 132.241 8.01609C132.241 6.18358 131.723 4.5188 130.362 3.41001Z" fill="#AEEA00"/>
<path d="M99.4869 0V33.6476L109.999 35.3011V0H99.4869Z" fill="#AEEA00"/>
<path d="M89.7755 32.12C88.88 28.7758 87.4392 25.956 85.4087 23.7058C81.736 19.5737 76.8542 17.5288 70.9223 17.5288C68.3949 17.5288 66.1234 17.8447 64.1363 18.5134L64.129 18.5159L64.1217 18.5184C62.2372 19.173 60.5661 20.0765 59.1275 21.2399L59.1142 21.2507L59.1011 21.2617C58.5957 21.6891 58.1156 22.1344 57.6611 22.5979L56.9475 18.3479H48.0119V25.5508L61.2035 27.6258C61.548 27.3434 61.915 27.0867 62.3044 26.8556C64.1451 25.7089 66.5715 25.1355 69.5836 25.1355C73.7113 25.1355 76.7513 26.6372 78.7036 29.6405C78.8806 29.9053 79.0498 30.1779 79.2112 30.4583L89.7755 32.12Z" fill="#AEEA00"/>
<path d="M2.72187 10.5549C1.15261 12.6768 0.279104 15.1564 0.0570115 17.9418C0.0848745 17.9681 0.112701 17.9945 0.14048 18.0209L10.7653 19.6921C10.7642 19.6232 10.7636 19.5535 10.7636 19.4832C10.7636 18.051 11.1136 16.879 11.7619 15.9057L11.7702 15.8932L11.7783 15.8806C12.4202 14.8752 13.4059 14.0538 14.8337 13.448C16.2504 12.8471 18.113 12.5101 20.484 12.5101C22.982 12.5101 25.3608 12.7961 27.6248 13.3631L27.629 13.3641L27.6331 13.3652C30.0146 13.948 32.1914 14.6596 34.1676 15.4962L35.6996 16.1448L39.1154 6.94898L37.7791 6.3603C35.4385 5.32921 32.8537 4.50693 30.0318 3.88675C27.168 3.25739 24.0386 2.9484 20.6514 2.9484C16.7425 2.9484 13.2094 3.57687 10.0824 4.87201L10.0773 4.87412L10.0722 4.87626C6.99418 6.17611 4.52394 8.06372 2.72187 10.5549Z" fill="#AEEA00"/>
</svg>
