<svg width="215" height="85" viewBox="0 0 215 85" fill="none" xmlns="http://www.w3.org/2000/svg">
<path d="M170.346 41.763C170.346 42.8077 170.385 43.8245 170.465 44.8127L179.827 46.285C179.634 44.8724 179.537 43.3651 179.537 41.763C179.537 36.5755 180.569 32.5073 182.634 29.5586C184.698 26.6099 188.018 25.1355 192.593 25.1355C195.662 25.1355 198.145 25.8181 200.042 27.1833C201.995 28.4938 203.446 30.3777 204.394 32.835C205.343 35.2922 205.817 38.2682 205.817 41.763C205.817 44.9419 205.412 47.7479 204.602 50.1807L206.715 50.5129C208.897 46.864 211.708 43.6201 215 40.9238C214.902 36.2443 213.978 32.1742 212.157 28.7708C210.301 25.1451 207.672 22.3499 204.268 20.4428C200.926 18.4839 197.072 17.5288 192.761 17.5288C188.24 17.5288 184.246 18.4778 180.84 20.4398C177.426 22.3512 174.818 25.1566 173.017 28.7978C171.21 32.3956 170.346 36.7385 170.346 41.763Z" fill="#F6F7FB"/>
<path d="M37.2035 57.9708L37.2083 57.9641L37.213 57.9574C39.1538 55.2003 40.0866 51.9048 40.0866 48.1512C40.0866 44.8915 39.4035 42.0534 37.9316 39.7294C36.5487 37.4589 34.5067 35.5745 31.8808 34.0527C29.3691 32.5115 26.3148 31.1073 22.7394 29.8292C19.5427 28.6423 17.0586 27.5546 15.258 26.5699C13.6288 25.6789 12.5352 24.7378 11.8654 23.7865L4.13995 22.5717C7.04449 26.4305 9.1929 30.8704 10.3706 35.681C12.1618 36.5728 14.1642 37.417 16.3732 38.2159L16.3834 38.2196L16.3937 38.2232C19.9794 39.4649 22.6926 40.6287 24.5789 41.7056L24.601 41.7182L24.6235 41.7302C26.5565 42.7527 27.7501 43.7949 28.3884 44.7944C29.035 45.8068 29.4034 47.1171 29.4034 48.8065C29.4034 50.4376 28.9801 51.788 28.1781 52.9218C27.3894 54.0366 26.1647 54.9603 24.383 55.6384C22.61 56.3132 20.334 56.6805 17.5039 56.6805C14.7584 56.6805 12.0825 56.4057 9.47439 55.8574C8.3665 59.0976 6.80797 62.135 4.87184 64.8978C6.60801 65.293 8.5022 65.6005 10.5511 65.8233L10.5558 65.8238C12.6803 66.0485 14.885 66.1603 17.1692 66.1603C21.676 66.1603 25.6575 65.4825 29.0734 64.0758C32.5362 62.6727 35.2753 60.6492 37.2035 57.9708Z" fill="#F6F7FB"/>
<path d="M58.4853 65.4346C58.4853 64.4368 58.4363 63.2865 58.3406 61.9881C58.5853 62.202 58.8366 62.412 59.0943 62.6184L59.1243 62.6424L59.1555 62.665C60.5892 63.702 62.2724 64.5338 64.1826 65.1764C66.1632 65.8427 68.3774 66.161 70.8033 66.161C74.7918 66.161 78.3296 65.255 81.3526 63.3833L81.3561 63.3811L81.3596 63.379C84.4465 61.4455 86.784 58.6247 88.3977 55.0005C90.0721 51.311 90.8751 46.8804 90.8751 41.763C90.8751 39.7851 90.7627 37.9147 90.5332 36.1568L80.8616 34.6359C81.4096 36.7087 81.6836 39.0571 81.6836 41.6811C81.6836 44.9575 81.2372 47.8789 80.3445 50.4453C79.5075 52.9572 78.1963 54.9503 76.4108 56.4247C74.6811 57.899 72.4493 58.6362 69.7153 58.6362C66.4791 58.6362 63.9124 57.9809 62.0154 56.6704C60.1741 55.3599 58.8629 53.4487 58.0817 50.9368C57.3006 48.4249 56.91 45.367 56.91 41.763V40.3706C56.9658 36.9304 57.4122 34.0909 58.2491 31.8521C58.3421 31.6033 58.4413 31.3616 58.5467 31.127L47.9696 29.4638V85H58.4853V65.4346Z" fill="#F6F7FB"/>
<path d="M99.4603 65.3415H109.976V39.2141L99.4603 37.5605V65.3415Z" fill="#F6F7FB"/>
<path d="M121.039 65.3414H131.555V42.6072L121.039 40.9537V65.3414Z" fill="#F6F7FB"/>
<path d="M164.988 56.3393C164.346 56.5324 163.472 56.7363 162.346 56.947C161.256 57.0978 160.199 57.1723 159.173 57.1723C157.477 57.1723 156.189 56.6736 155.181 55.7399C154.301 54.8256 153.718 53.2968 153.718 50.8545V46.0923L143.202 44.4387V51.0183C143.202 54.711 143.835 57.792 145.275 60.0984C146.654 62.307 148.485 63.931 150.77 64.8894L150.794 64.8998L150.819 64.9092C153.025 65.7487 155.396 66.1606 157.917 66.1606C159.357 66.1606 160.841 66.0148 162.37 65.7288C163.876 65.5004 165.166 65.1705 166.153 64.6876L167.025 64.2608V55.7257L164.988 56.3393Z" fill="#F6F7FB"/>
<path d="M201.703 64.5808L201.711 64.5777L201.719 64.5745C201.778 64.5515 201.836 64.5282 201.893 64.5048C202.347 60.852 203.35 57.3657 204.82 54.128L202.864 53.8204C202.111 54.916 201.198 55.8387 200.126 56.5885C198.173 57.9536 195.69 58.6362 192.677 58.6362C189.664 58.6362 187.181 57.9536 185.228 56.5885C183.275 55.2233 181.825 53.2848 180.876 50.773C180.826 50.63 180.778 50.4857 180.731 50.3401L171.041 48.8163C171.278 49.9271 171.577 50.9942 171.939 52.0168L171.945 52.0339L171.952 52.0508C173.075 55.0013 174.626 57.5535 176.62 59.6819C178.614 61.8112 180.977 63.4419 183.696 64.5654L183.71 64.5711L183.724 64.5766C186.437 65.6387 189.371 66.161 192.51 66.161C195.856 66.161 198.928 65.6436 201.703 64.5808Z" fill="#F6F7FB"/>
<path d="M170.35 41.763C170.35 42.8077 170.39 43.8245 170.469 44.8127L179.83 46.285C179.636 44.8724 179.539 43.3651 179.539 41.763C179.539 36.5755 180.571 32.5073 182.635 29.5586C184.699 26.6099 188.018 25.1355 192.592 25.1355C195.659 25.1355 198.142 25.8181 200.038 27.1833C201.99 28.4938 203.441 30.3777 204.389 32.835C205.337 35.2922 205.811 38.2682 205.811 41.763C205.811 44.9419 205.406 47.7479 204.597 50.1807L206.708 50.5129C208.89 46.864 211.7 43.6201 214.991 40.9238C214.893 36.2443 213.969 32.1742 212.149 28.7708C210.294 25.1451 207.665 22.3499 204.263 20.4428C200.922 18.4839 197.069 17.5288 192.759 17.5288C188.24 17.5288 184.247 18.4778 180.842 20.4398C177.429 22.3512 174.821 25.1566 173.021 28.7978C171.214 32.3956 170.35 36.7385 170.35 41.763Z" fill="#AEEA00"/>
<path d="M143.215 27.0082V40.5258L153.728 42.1793V27.0082H166.696V18.3475H153.728V8.27277H146.639L143.577 18.0358L136.856 21.0265V27.0082H143.215Z" fill="#AEEA00"/>
<path d="M131.571 38.6943V18.3474H121.059V37.0407L131.571 38.6943Z" fill="#AEEA00"/>
<path d="M130.362 3.41001C129.249 2.40916 127.906 1.88375 126.399 1.88375C124.815 1.88375 123.398 2.38734 122.251 3.42608C120.95 4.5437 120.473 6.20478 120.473 8.01609C120.473 9.8127 120.97 11.4362 122.23 12.5873C123.381 13.6388 124.805 14.1484 126.399 14.1484C127.915 14.1484 129.266 13.6166 130.382 12.6038C131.703 11.461 132.241 9.83318 132.241 8.01609C132.241 6.18358 131.723 4.5188 130.362 3.41001Z" fill="#AEEA00"/>
<path d="M99.4869 0V33.6476L109.999 35.3011V0H99.4869Z" fill="#AEEA00"/>
<path d="M89.7755 32.12C88.88 28.7758 87.4392 25.956 85.4087 23.7058C81.736 19.5737 76.8542 17.5288 70.9223 17.5288C68.3949 17.5288 66.1234 17.8447 64.1363 18.5134L64.129 18.5159L64.1217 18.5184C62.2372 19.173 60.5661 20.0765 59.1275 21.2399L59.1142 21.2507L59.1011 21.2617C58.5957 21.6891 58.1156 22.1344 57.6611 22.5979L56.9475 18.3479H48.0119V25.5508L61.2035 27.6258C61.548 27.3434 61.915 27.0867 62.3044 26.8556C64.1451 25.7089 66.5715 25.1355 69.5836 25.1355C73.7113 25.1355 76.7513 26.6372 78.7036 29.6405C78.8806 29.9053 79.0498 30.1779 79.2112 30.4583L89.7755 32.12Z" fill="#AEEA00"/>
<path d="M2.72187 10.5549C1.15261 12.6768 0.279104 15.1564 0.0570115 17.9418C0.0848745 17.9681 0.112701 17.9945 0.14048 18.0209L10.7653 19.6921C10.7642 19.6232 10.7636 19.5535 10.7636 19.4832C10.7636 18.051 11.1136 16.879 11.7619 15.9057L11.7702 15.8932L11.7783 15.8806C12.4202 14.8752 13.4059 14.0538 14.8337 13.448C16.2504 12.8471 18.113 12.5101 20.484 12.5101C22.982 12.5101 25.3608 12.7961 27.6248 13.3631L27.629 13.3641L27.6331 13.3652C30.0146 13.948 32.1914 14.6596 34.1676 15.4962L35.6996 16.1448L39.1154 6.94898L37.7791 6.3603C35.4385 5.32921 32.8537 4.50693 30.0318 3.88675C27.168 3.25739 24.0386 2.9484 20.6514 2.9484C16.7425 2.9484 13.2094 3.57687 10.0824 4.87201L10.0773 4.87412L10.0722 4.87626C6.99418 6.17611 4.52394 8.06372 2.72187 10.5549Z" fill="#AEEA00"/>
</svg>
