<svg width="48" height="70" viewBox="0 0 48 70" fill="none" xmlns="http://www.w3.org/2000/svg">
<path fill-rule="evenodd" clip-rule="evenodd" d="M13.8231 49.4879L0 53.9687C0.0725624 56.624 1.45125 59.5116 4.13605 62.6316C8.4898 67.5439 13.8322 70 20 70V57L18.3946 56.3585C17.3787 55.9602 16.3628 55.1304 15.3469 53.8691C14.3311 52.6079 13.8231 51.1475 13.8231 49.4879ZM11.102 2.68848C4.28118 6.3395 0.870748 11.816 0.870748 19.1181C0.870748 22.0389 1.3424 24.661 2.28571 26.9844C4.02721 31.2992 8.01814 34.8175 14.2585 37.5391C15.2744 38.0038 17.0522 38.6344 19.5918 39.431C19.7302 39.4774 19.8663 39.5232 20 39.5683V24.5573C16.9705 22.8509 15.4558 20.8718 15.4558 18.6202C15.4558 17.9564 15.6009 17.3257 15.8912 16.7283C16.7619 14.8032 18.1859 13.4647 20 13V0C17.2426 0.0663822 14.2222 0.962541 11.102 2.68848ZM26 27.1295V41.8209C30.4354 43.8961 32.6531 46.4517 32.6531 49.4879C32.6531 50.7492 32.3991 51.9109 31.8912 52.973C30.7302 55.3627 28.8299 56.6681 26 57V70C31.4422 70 36.2086 68.1413 40.4898 64.4239C45.4966 60.1091 48 54.9313 48 48.8905C48 45.7041 47.2744 42.8165 45.8231 40.2276C43.8639 36.9085 39.9456 33.6558 34.068 30.4694C32.6168 29.6728 30.1497 28.6439 26.6667 27.3826C26.4376 27.2959 26.2153 27.2116 26 27.1295ZM26 0V13C26 13 26.0499 13.1769 26.3401 13.2432C29.3152 14.239 30.8027 16.1309 30.8027 18.9189L44.9524 14.6373C44.8798 12.3803 43.6463 9.85775 41.2517 7.0697C37.1156 2.35657 32.0952 0 26 0Z" fill="#B39DDB"/>
</svg>
