<svg width="25" height="24" viewBox="0 0 25 24" fill="none" xmlns="http://www.w3.org/2000/svg">
<path fill-rule="evenodd" clip-rule="evenodd" d="M12.25 4C10.04 4 8.25 5.79 8.25 8C8.25 10.21 10.04 12 12.25 12C14.46 12 16.25 10.21 16.25 8C16.25 5.79 14.46 4 12.25 4ZM14.25 8C14.25 6.9 13.35 6 12.25 6C11.15 6 10.25 6.9 10.25 8C10.25 9.1 11.15 10 12.25 10C13.35 10 14.25 9.1 14.25 8ZM18.25 17C18.05 16.29 14.95 15 12.25 15C9.55 15 6.45 16.29 6.25 17.01V18H18.25V17ZM4.25 17C4.25 14.34 9.58 13 12.25 13C14.92 13 20.25 14.34 20.25 17V20H4.25V17Z" fill="white" fill-opacity="0.6"/>
</svg>
