<svg width="157" height="156" viewBox="0 0 157 156" fill="none" xmlns="http://www.w3.org/2000/svg">
<path d="M71.0754 63.1328C70.8254 63.3928 70.5654 63.6328 70.2754 63.8429L62.8854 66.4928C65.1013 64.4524 68.1005 63.4165 71.0754 63.1328Z" fill="#DDDDDB"/>
<path d="M71.0754 63.1328C70.8254 63.3928 70.5654 63.6328 70.2754 63.8429L62.8854 66.4928C65.1013 64.4524 68.1005 63.4165 71.0754 63.1328Z" fill="#0D0D0D" fill-opacity="0.82"/>
<path d="M57.9154 68.2822L55.6454 69.0923C56.3754 68.7322 57.1354 68.4622 57.9154 68.2822Z" fill="#DDDDDB"/>
<path d="M57.9154 68.2822L55.6454 69.0923C56.3754 68.7322 57.1354 68.4622 57.9154 68.2822Z" fill="#0D0D0D" fill-opacity="0.82"/>
<path d="M71.5455 62.6027C68.3126 62.772 64.8255 63.9574 62.3954 66.2626C62.2799 66.3667 62.2947 66.577 62.4454 66.6526L59.2855 67.7926C59.2754 67.6626 59.1655 67.5626 59.0154 67.5727C57.2454 67.7726 55.5654 68.4026 54.1155 69.4126C46.6686 68.4533 47.4116 61.3139 50.9354 62.0927C50.0654 60.6426 48.7255 59.1526 48.6354 57.4325C48.4219 52.979 52.9169 50.9482 56.9654 54.6725C56.1655 53.4826 56.0455 51.8026 56.7454 50.5326C58.7708 46.8958 64.7015 48.1245 64.9954 52.8026C67.6854 51.3327 71.4255 52.8527 72.6554 55.6626C73.6655 57.9494 73.067 60.6918 71.5455 62.6027Z" fill="#DDDDDB"/>
<path d="M71.5455 62.6027C68.3126 62.772 64.8255 63.9574 62.3954 66.2626C62.2799 66.3667 62.2947 66.577 62.4454 66.6526L59.2855 67.7926C59.2754 67.6626 59.1655 67.5626 59.0154 67.5727C57.2454 67.7726 55.5654 68.4026 54.1155 69.4126C46.6686 68.4533 47.4116 61.3139 50.9354 62.0927C50.0654 60.6426 48.7255 59.1526 48.6354 57.4325C48.4219 52.979 52.9169 50.9482 56.9654 54.6725C56.1655 53.4826 56.0455 51.8026 56.7454 50.5326C58.7708 46.8958 64.7015 48.1245 64.9954 52.8026C67.6854 51.3327 71.4255 52.8527 72.6554 55.6626C73.6655 57.9494 73.067 60.6918 71.5455 62.6027Z" fill="#0D0D0D" fill-opacity="0.82"/>
<path d="M90.8504 79.46L90.2303 73.8535C90.1927 73.5238 90.6913 73.4714 90.7264 73.7989L91.3465 79.4053C91.3838 79.7328 90.886 79.7932 90.8504 79.46Z" fill="#DDDDDB"/>
<path d="M45.7859 97.5188C39.7403 97.5188 36.0451 91.7773 36.9148 86.8455C37.6033 82.9593 41.0838 79.7347 45.0115 79.345C47.1414 79.1321 49.8865 79.9192 50.8699 82.137C51.0037 82.441 50.5455 82.6413 50.4129 82.3401C49.5291 80.3479 47.0164 79.6468 45.0604 79.8426C41.3484 80.2107 38.0574 83.2591 37.407 86.9324C36.7586 90.6067 38.8025 94.5975 42.1609 96.2151C45.5193 97.8352 49.9148 96.949 52.3846 94.1521C52.6082 93.905 52.9759 94.2367 52.7596 94.4832C51.0262 96.4451 48.3973 97.5188 45.7859 97.5188Z" fill="#DDDDDB"/>
<path d="M94.2626 97.7102C92.3612 97.4553 90.6464 96.5569 89.3026 95.113C89.0765 94.8717 89.4427 94.5305 89.6679 94.7722C90.9325 96.1306 92.5438 96.9753 94.329 97.2151C94.6656 97.2596 94.5798 97.7631 94.2626 97.7102Z" fill="#DDDDDB"/>
<path d="M101.7 94.486C103.567 92.4084 104.399 89.4987 103.87 86.8928C103.124 83.2463 99.7558 80.2839 96.037 80.0026C94.08 79.8654 91.581 80.6364 90.746 82.6393C90.6212 82.9422 90.1561 82.753 90.2851 82.447C91.2128 80.218 93.9364 79.3547 96.0722 79.5036C100.009 79.8019 103.57 82.9352 104.36 86.7927C104.92 89.5515 104.043 92.6271 102.071 94.82C101.853 95.0666 101.477 94.7322 101.7 94.486Z" fill="#DDDDDB"/>
<path d="M52.4403 95.0608C48.7039 87.0623 49.9676 74.9924 57.2508 70.8113C57.5364 70.6461 57.7865 71.08 57.4989 71.2449C50.4442 75.2952 49.2489 87.0476 52.8934 94.8489C55.6678 100.791 62.0848 104.456 68.5116 103.769C68.8342 103.728 68.8991 104.231 68.5643 104.266C61.9643 104.978 55.3153 101.217 52.4403 95.0608Z" fill="#DDDDDB"/>
<path d="M77.911 103.796C86.2573 102.298 92.642 93.3746 90.2313 81.6078C90.1658 81.2839 90.6534 81.1828 90.7215 81.5072C93.1888 93.5637 86.6136 102.742 77.9989 104.288C77.6711 104.343 77.5869 103.854 77.911 103.796Z" fill="#DDDDDB"/>
<path d="M68.5516 117.616C68.4508 112.562 68.3871 108.562 68.2957 103.949C68.2928 103.811 68.4031 103.697 68.5408 103.694H68.5457C68.6815 103.694 68.7928 103.803 68.7957 103.939C68.8855 108.474 68.9417 112.094 69.0516 117.606C69.0586 117.937 68.5587 117.95 68.5516 117.616Z" fill="#DDDDDB"/>
<path d="M79.532 116.573C79.5399 114.007 78.7645 106.358 78.7723 103.768C78.7723 103.63 78.8846 103.519 79.0223 103.519C79.16 103.519 79.2723 103.631 79.2723 103.77C79.2644 106.336 80.0398 113.984 80.032 116.575C80.032 116.905 79.532 116.908 79.532 116.573Z" fill="#DDDDDB"/>
<path d="M46.6219 87.9951C45.1453 86.4737 42.616 86.0689 40.7361 87.0571C40.4436 87.2115 40.2106 86.7683 40.5037 86.6148C42.5711 85.5274 45.3553 85.9712 46.9813 87.6475C47.2119 87.8864 46.8504 88.2328 46.6219 87.9951Z" fill="#DDDDDB"/>
<path d="M43.5467 90.2066C43.2538 89.0611 43.4764 87.7979 44.1415 86.8277C44.3297 86.5548 44.74 86.8383 44.5536 87.1109C43.9686 87.9639 43.7733 89.0748 44.0311 90.0826C44.1127 90.4018 43.6302 90.5278 43.5467 90.2066Z" fill="#DDDDDB"/>
<path d="M94.3163 87.858C95.8964 86.1417 98.6679 85.6251 100.766 86.6583C101.063 86.8049 100.84 87.2541 100.545 87.1065C98.6376 86.1671 96.12 86.6378 94.6835 88.1969C94.46 88.4404 94.0921 88.1009 94.3163 87.858Z" fill="#DDDDDB"/>
<path d="M97.328 90.2157C97.5595 89.2054 97.3358 88.1 96.7294 87.2582C96.5379 86.9908 96.9396 86.6966 97.1356 86.9662C97.8241 87.9227 98.079 89.1791 97.8163 90.327C97.7397 90.6509 97.2556 90.5367 97.328 90.2157Z" fill="#DDDDDB"/>
<path d="M76.7479 75.0525C75.1307 73.8294 72.7346 74.0256 72.3456 74.8865C72.2093 75.1895 71.7548 74.982 71.8905 74.6814C72.4935 73.3435 75.3862 73.3963 77.0487 74.654C77.3126 74.8526 77.0112 75.2528 76.7479 75.0525Z" fill="#DDDDDB"/>
<path d="M71.2782 86.8459C72.3993 86.4712 73.3005 86.4306 74.2587 85.7937C75.6422 84.8795 75.1809 83.6495 74.9559 82.0202C74.3897 77.8272 73.9167 75.1418 73.3407 70.8811C73.3221 70.7439 73.4188 70.6179 73.5555 70.5998C73.6923 70.5774 73.8173 70.6775 73.8368 70.8137C74.0284 72.2337 75.5467 82.5719 75.5555 82.6257C75.7782 83.9748 75.9891 85.2493 74.535 86.2102C73.491 86.9043 72.5537 86.9471 71.4364 87.3205C71.1204 87.4259 70.9665 86.9506 71.2782 86.8459Z" fill="#DDDDDB"/>
<path d="M68.0435 76.6265C68.0444 77.5895 66.8714 78.3715 65.4269 78.3728C63.9799 78.3741 62.8055 77.5941 62.8047 76.6311C62.8038 75.6681 63.9768 74.886 65.4238 74.8848C66.8683 74.8835 68.0427 75.6635 68.0435 76.6265Z" fill="#DDDDDB"/>
<path d="M86.2113 76.6185C86.2121 77.577 85.0391 78.3555 83.5946 78.3568C82.1476 78.3581 80.9733 77.5817 80.9724 76.6231C80.9716 75.6645 82.1446 74.886 83.5915 74.8848C85.0361 74.8835 86.2104 75.6599 86.2113 76.6185Z" fill="#DDDDDB"/>
<path d="M79.4795 121.2C81.1385 120.964 82.5623 119.563 82.8292 117.91C83.0962 116.256 82.182 114.48 80.6832 113.735C81.622 113.056 81.4889 111.504 80.6878 110.665C79.8842 109.829 78.6688 109.552 77.517 109.424C74.3202 109.073 71.029 109.595 68.1094 110.942C67.0996 111.409 65.714 111.803 65.4442 113.043C65.3245 113.588 65.5379 114.342 65.7196 114.861C66.0069 115.682 66.5034 115.856 67.2507 115.982C67.454 116.016 66.9646 116.459 66.9169 116.485C66.6823 116.613 66.4485 116.602 66.2146 116.81C65.0185 117.873 65.4628 119.697 66.8048 120.223C70.2246 121.569 73.6094 122.076 77.2422 121.517" fill="#B39DDB"/>
<path d="M79.4795 121.2C81.1385 120.964 82.5623 119.563 82.8292 117.91C83.0962 116.256 82.182 114.48 80.6832 113.735C81.622 113.056 81.4889 111.504 80.6878 110.665C79.8842 109.829 78.6688 109.552 77.517 109.424C74.3202 109.073 71.029 109.595 68.1094 110.942C67.0996 111.409 65.714 111.803 65.4442 113.043C65.3245 113.588 65.5379 114.342 65.7196 114.861C66.0069 115.682 66.5034 115.856 67.2507 115.982C67.454 116.016 66.9646 116.459 66.9169 116.485C66.6823 116.613 66.4485 116.602 66.2146 116.81C65.0185 117.873 65.4628 119.697 66.8048 120.223C70.2246 121.569 73.6094 122.076 77.2422 121.517" fill="white" fill-opacity="0.32"/>
<path d="M66.5878 116.114C65.4569 115.533 65.2665 114.074 65.2274 112.868C65.2183 112.545 65.7129 112.508 65.7274 112.851C65.7616 113.921 65.9169 115.208 66.8163 115.669C67.6016 116.073 67.8104 115.857 77.1962 114.403C77.5358 114.361 77.5919 114.847 77.2743 114.897C68.1087 116.322 67.5649 116.615 66.5878 116.114Z" fill="#DDDDDB"/>
<path d="M50.5946 81.6941C52.6747 79.6277 54.9286 77.7219 57.2938 76.0305C57.5602 75.8366 57.8546 76.2444 57.5848 76.4368C55.2411 78.1131 53.0077 80.0012 50.9462 82.0486C50.7101 82.2823 50.3596 81.9256 50.5946 81.6941Z" fill="#DDDDDB"/>
<path d="M59.6064 83.3477C54.8716 78.1807 58.1721 69.1968 64.9804 69.1904H64.9863C71.766 69.1904 75.1186 78.147 70.3818 83.3384C67.418 86.5832 62.5901 86.604 59.6064 83.3477ZM64.9863 69.6904H64.9804C58.6257 69.6968 55.5228 78.1497 59.9755 83.0103C62.7501 86.0395 67.238 86.0393 70.0126 83.001C74.4468 78.1436 71.3451 69.6904 64.9863 69.6904Z" fill="#DDDDDB"/>
<path d="M84.1961 85.7638C77.4148 85.7638 74.0677 76.8068 78.8026 71.6158C83.6115 66.3508 91.7971 70.1414 91.8036 77.462C91.8075 82.0353 88.3973 85.7599 84.202 85.7638H84.1961ZM79.1727 71.9532C74.7389 76.8082 77.8357 85.2638 84.1961 85.2638H84.202C90.5615 85.2574 93.6599 76.8028 89.2088 71.944C86.4342 68.9147 81.9453 68.9149 79.1727 71.9532Z" fill="#DDDDDB"/>
<path d="M97.8173 128.897C96.8335 129.879 95.6037 130.009 94.1878 130.1C78.4708 131.111 62.6866 131.074 46.9746 129.988C42.4462 129.676 48.0134 125.537 49.1758 124.626C51.0236 123.177 53.2137 122.202 55.4626 121.565C58.4396 120.719 61.5448 120.436 64.6254 120.155C70.116 119.656 75.5439 120.398 81.0563 120.387C84.9311 120.379 88.923 120.774 92.5344 122.264C94.4047 123.036 100.559 126.16 97.8173 128.897Z" fill="#B39DDB"/>
<path d="M97.8173 128.897C96.8335 129.879 95.6037 130.009 94.1878 130.1C78.4708 131.111 62.6866 131.074 46.9746 129.988C42.4462 129.676 48.0134 125.537 49.1758 124.626C51.0236 123.177 53.2137 122.202 55.4626 121.565C58.4396 120.719 61.5448 120.436 64.6254 120.155C70.116 119.656 75.5439 120.398 81.0563 120.387C84.9311 120.379 88.923 120.774 92.5344 122.264C94.4047 123.036 100.559 126.16 97.8173 128.897Z" fill="white" fill-opacity="0.32"/>
<path d="M69.5077 92.4585C68.7065 91.0672 66.8955 90.6118 65.5312 91.4619C65.2505 91.6362 64.9868 91.2125 65.2675 91.0371C66.8457 90.0527 68.9806 90.5418 69.9413 92.2085C70.1048 92.4946 69.6755 92.7451 69.5077 92.4585Z" fill="#DDDDDB"/>
<path d="M96.3455 128.833C96.217 125.694 96.8921 120.293 94.8397 117.719C94.1471 116.843 88.8647 113.477 89.4295 111.426C89.5809 110.878 90.0926 110.501 90.9891 110.282C89.4158 109.123 89.5145 108.017 89.7371 107.43C90.2645 106.04 92.4119 104.968 94.4403 104.945C92.994 103.844 91.8494 102.085 92.157 100.67C92.3133 99.9505 92.9022 99.0775 94.7713 98.8314C94.2335 98.0214 93.6915 97.0989 93.869 96.1468C94.1331 94.688 96.0456 93.9768 97.5106 93.7069C97.8543 93.6419 98.2606 93.6473 98.782 93.7254C99.8267 93.827 100.876 93.9531 101.703 94.3021C106.39 96.2215 110.907 98.924 111.136 104.012C111.459 111.055 111.794 118.34 113.301 125.833C113.366 126.155 112.875 126.26 112.81 125.932C111.297 118.401 110.961 111.097 110.636 104.034C110.417 99.1688 105.974 96.5894 101.511 94.764C100.718 94.4288 99.8476 94.3541 99.0535 94.2611C98.5746 94.1985 98.0523 94.1142 97.6014 94.1981C96.4093 94.4188 94.5793 95.0267 94.3611 96.2371C94.2986 96.5726 94.3494 96.9393 94.5174 97.3602C94.6296 97.6603 95.2012 98.6299 95.3709 98.7977C95.6237 98.8908 95.57 99.2644 95.3016 99.2821C94.2225 99.3519 92.8865 99.6678 92.6453 100.777C92.3621 102.079 93.7069 104.077 95.5233 105.053C95.7687 105.184 95.6471 105.566 95.3602 105.519C92.3077 104.959 87.6066 107.676 91.7654 110.199C91.965 110.32 91.9027 110.627 91.6717 110.66C90.6258 110.812 90.034 111.114 89.9119 111.558C89.4625 113.192 94.5385 116.53 95.2313 117.408C97.4133 120.146 96.7167 125.62 96.8455 128.812C96.8596 129.144 96.3601 129.166 96.3455 128.833Z" fill="#DDDDDB"/>
<path d="M103.527 102.731C101.516 100.47 98.4051 99.1629 95.3661 99.3226C95.0642 99.3791 94.985 98.8424 95.3407 98.8236C98.5545 98.6566 101.76 99.9901 103.9 102.399C104.124 102.65 103.742 102.975 103.527 102.731Z" fill="#DDDDDB"/>
<path d="M97.08 113.271C95.5028 111.958 93.6005 111.07 91.58 110.703C91.2599 110.645 91.3367 110.158 91.6698 110.211C93.7743 110.593 95.7557 111.519 97.4003 112.886C97.6532 113.098 97.3361 113.482 97.08 113.271Z" fill="#DDDDDB"/>
<path d="M100.673 109.217C99.3192 107.399 97.3748 106.055 95.1981 105.432C94.8752 105.339 95.0238 104.855 95.3348 104.951C97.617 105.604 99.6551 107.014 101.073 108.918C101.272 109.183 100.869 109.483 100.673 109.217Z" fill="#DDDDDB"/>
<path d="M135.12 34.9378C137.376 35.5065 139.318 35.5459 140.134 38.2028C140.597 39.7094 140.435 41.3287 140.244 42.8931C139.716 47.2107 138.995 51.5045 138.083 55.7577C137.373 59.0742 137.102 63.253 133.879 65.1807C132.071 66.2606 129.799 66.0074 127.713 65.7193C88.4963 60.3035 87.9946 60.4964 83.9413 58.8852C82.029 58.1251 78.5746 56.8423 77.5255 54.9753C76.886 53.8372 77.0092 52.4394 77.1841 51.1457C78.1274 44.1685 80.0419 37.3232 82.8551 30.869C84.2642 27.6359 85.3978 27.5866 89.0846 27.8071C104.004 28.6994 119.574 31.0179 135.12 34.9378Z" fill="#B39DDB"/>
<path d="M135.12 34.9378C137.376 35.5065 139.318 35.5459 140.134 38.2028C140.597 39.7094 140.435 41.3287 140.244 42.8931C139.716 47.2107 138.995 51.5045 138.083 55.7577C137.373 59.0742 137.102 63.253 133.879 65.1807C132.071 66.2606 129.799 66.0074 127.713 65.7193C88.4963 60.3035 87.9946 60.4964 83.9413 58.8852C82.029 58.1251 78.5746 56.8423 77.5255 54.9753C76.886 53.8372 77.0092 52.4394 77.1841 51.1457C78.1274 44.1685 80.0419 37.3232 82.8551 30.869C84.2642 27.6359 85.3978 27.5866 89.0846 27.8071C104.004 28.6994 119.574 31.0179 135.12 34.9378Z" fill="white" fill-opacity="0.32"/>
<path d="M25.5497 86.5886C22.413 84.2912 20.413 80.2614 20.1991 75.8088C19.7843 67.1743 26.2744 54.6376 35.6512 51.3859C34.6329 44.7392 39.252 39.6046 44.702 35.5896C53.66 28.9919 67.1122 24.1149 78.0067 30.215C78.2957 30.3772 78.048 30.8134 77.7626 30.6516C67.076 24.6652 53.8309 29.486 44.9989 35.9919C39.7642 39.848 35.1944 44.8155 36.1288 51.2287C38.8958 50.3691 42.5727 50.112 44.8495 51.9445C49.0155 55.2915 44.9442 60.9399 39.7421 57.906C37.5233 56.6125 36.2284 54.3444 35.7391 51.8845C26.6387 55.0932 20.2946 67.371 20.6991 75.7844C20.9051 80.0881 22.829 83.9763 25.8446 86.1852C26.1136 86.3823 25.8129 86.7846 25.5497 86.5886ZM36.2128 51.7263C36.6649 54.0778 37.8876 56.2458 39.994 57.4743C44.5947 60.1597 48.2641 55.3306 44.537 52.3342C42.3898 50.6091 38.8136 50.9051 36.2128 51.7263Z" fill="#DDDDDB"/>
<path d="M134.454 30.7927C133.893 28.883 133.79 26.8396 134.154 24.883C134.216 24.5551 134.707 24.6515 134.646 24.9748C134.296 26.8542 134.395 28.8176 134.934 30.6521C135.027 30.9723 134.548 31.1099 134.454 30.7927Z" fill="#DDDDDB"/>
<path d="M136.372 31.2317C137.737 28.7029 139.378 26.3162 141.247 24.138C141.46 23.888 141.843 24.2111 141.626 24.4632C139.78 26.6145 138.16 28.9715 136.811 31.469C136.657 31.757 136.215 31.524 136.372 31.2317Z" fill="#DDDDDB"/>
<path d="M138.305 33.1724C137.98 33.1724 137.971 32.6817 138.299 32.6724C139.661 32.6368 141.033 32.315 142.268 31.7418C142.565 31.6005 142.781 32.0547 142.479 32.1949C140.43 33.146 138.806 33.1072 138.305 33.1724Z" fill="#DDDDDB"/>
<path d="M71.0754 63.1328C70.8254 63.3928 70.5654 63.6328 70.2754 63.8429L62.8854 66.4928C65.1013 64.4524 68.1005 63.4165 71.0754 63.1328Z" fill="#DDDDDB"/>
<path d="M71.0754 63.1328C70.8254 63.3928 70.5654 63.6328 70.2754 63.8429L62.8854 66.4928C65.1013 64.4524 68.1005 63.4165 71.0754 63.1328Z" fill="#0D0D0D" fill-opacity="0.82"/>
<path d="M57.9154 68.2822L55.6454 69.0923C56.3754 68.7322 57.1354 68.4622 57.9154 68.2822Z" fill="#DDDDDB"/>
<path d="M57.9154 68.2822L55.6454 69.0923C56.3754 68.7322 57.1354 68.4622 57.9154 68.2822Z" fill="#0D0D0D" fill-opacity="0.82"/>
<path d="M71.5455 62.6027C68.3126 62.772 64.8255 63.9574 62.3954 66.2626C62.2799 66.3667 62.2947 66.577 62.4454 66.6526L59.2855 67.7926C59.2754 67.6626 59.1655 67.5626 59.0154 67.5727C57.2454 67.7726 55.5654 68.4026 54.1155 69.4126C46.6686 68.4533 47.4116 61.3139 50.9354 62.0927C50.0654 60.6426 48.7255 59.1526 48.6354 57.4325C48.4219 52.979 52.9169 50.9482 56.9654 54.6725C56.1655 53.4826 56.0455 51.8026 56.7454 50.5326C58.7708 46.8958 64.7015 48.1245 64.9954 52.8026C67.6854 51.3327 71.4255 52.8527 72.6554 55.6626C73.6655 57.9494 73.067 60.6918 71.5455 62.6027Z" fill="#DDDDDB"/>
<path d="M71.5455 62.6027C68.3126 62.772 64.8255 63.9574 62.3954 66.2626C62.2799 66.3667 62.2947 66.577 62.4454 66.6526L59.2855 67.7926C59.2754 67.6626 59.1655 67.5626 59.0154 67.5727C57.2454 67.7726 55.5654 68.4026 54.1155 69.4126C46.6686 68.4533 47.4116 61.3139 50.9354 62.0927C50.0654 60.6426 48.7255 59.1526 48.6354 57.4325C48.4219 52.979 52.9169 50.9482 56.9654 54.6725C56.1655 53.4826 56.0455 51.8026 56.7454 50.5326C58.7708 46.8958 64.7015 48.1245 64.9954 52.8026C67.6854 51.3327 71.4255 52.8527 72.6554 55.6626C73.6655 57.9494 73.067 60.6918 71.5455 62.6027Z" fill="#0D0D0D" fill-opacity="0.82"/>
<path d="M132.205 115.573C132.205 124.622 105.825 131.952 73.2854 131.952C40.7554 131.952 14.3754 124.622 14.3754 115.573C14.3754 109.442 26.4654 104.103 44.3754 101.292C48.0254 100.712 51.9154 100.242 56.0054 99.9025C59.5423 102.939 64.1311 103.928 68.7554 103.942C68.2054 109.942 68.2654 116.002 68.9354 121.992L79.8454 122.232C79.7054 116.062 79.3054 109.962 79.1654 103.792C81.7454 102.932 84.0554 101.502 85.9054 99.5625C87.4089 99.6467 92.5139 100.036 92.8454 100.103C92.6654 100.292 92.5154 100.502 92.3954 100.732C92.3954 100.742 92.3954 100.742 92.3954 100.742C91.3458 102.614 93.3048 104.102 95.1054 105.103C95.2054 105.162 95.3054 105.222 95.4054 105.272C94.1744 105.067 92.8149 104.974 91.6654 105.462C90.5236 105.948 89.7514 107.107 89.9054 108.182C90.0454 109.122 90.8254 109.872 91.6354 110.412C91.4254 110.442 91.2154 110.522 91.0454 110.603C90.3086 110.694 89.6046 111.739 89.7354 112.262C89.7554 112.642 89.9254 113.002 90.1254 113.343C91.9492 116.457 94.4762 115.972 95.6354 118.522C95.9454 119.272 96.0654 120.182 96.1654 121.442C96.3951 124.472 96.5867 128.66 96.6154 129.492C101.642 128.432 106.104 127.094 113.135 126.442C112.915 124.853 112.685 123.262 112.465 121.682C111.905 117.772 111.755 114.083 111.195 110.172C110.845 107.682 111.125 105.282 110.655 102.902C123.815 105.902 132.205 110.472 132.205 115.573Z" fill="#DDDDDB"/>
<path d="M132.205 115.573C132.205 124.622 105.825 131.952 73.2854 131.952C40.7554 131.952 14.3754 124.622 14.3754 115.573C14.3754 109.442 26.4654 104.103 44.3754 101.292C48.0254 100.712 51.9154 100.242 56.0054 99.9025C59.5423 102.939 64.1311 103.928 68.7554 103.942C68.2054 109.942 68.2654 116.002 68.9354 121.992L79.8454 122.232C79.7054 116.062 79.3054 109.962 79.1654 103.792C81.7454 102.932 84.0554 101.502 85.9054 99.5625C87.4089 99.6467 92.5139 100.036 92.8454 100.103C92.6654 100.292 92.5154 100.502 92.3954 100.732C92.3954 100.742 92.3954 100.742 92.3954 100.742C91.3458 102.614 93.3048 104.102 95.1054 105.103C95.2054 105.162 95.3054 105.222 95.4054 105.272C94.1744 105.067 92.8149 104.974 91.6654 105.462C90.5236 105.948 89.7514 107.107 89.9054 108.182C90.0454 109.122 90.8254 109.872 91.6354 110.412C91.4254 110.442 91.2154 110.522 91.0454 110.603C90.3086 110.694 89.6046 111.739 89.7354 112.262C89.7554 112.642 89.9254 113.002 90.1254 113.343C91.9492 116.457 94.4762 115.972 95.6354 118.522C95.9454 119.272 96.0654 120.182 96.1654 121.442C96.3951 124.472 96.5867 128.66 96.6154 129.492C101.642 128.432 106.104 127.094 113.135 126.442C112.915 124.853 112.685 123.262 112.465 121.682C111.905 117.772 111.755 114.083 111.195 110.172C110.845 107.682 111.125 105.282 110.655 102.902C123.815 105.902 132.205 110.472 132.205 115.573Z" fill="#0D0D0D" fill-opacity="0.64"/>
<path d="M95.7553 79.7429C95.6754 79.7329 95.5953 79.7329 95.5153 79.7329C93.4553 79.7529 91.2953 80.6729 90.5153 82.543L90.4653 83.1129C90.4653 82.9316 90.086 79.3474 89.2354 77.083L94.9153 77.3629C95.0799 77.8386 95.2152 78.2362 95.7553 79.7429Z" fill="#DDDDDB"/>
<path d="M95.7553 79.7429C95.6754 79.7329 95.5953 79.7329 95.5153 79.7329C93.4553 79.7529 91.2953 80.6729 90.5153 82.543L90.4653 83.1129C90.4653 82.9316 90.086 79.3474 89.2354 77.083L94.9153 77.3629C95.0799 77.8386 95.2152 78.2362 95.7553 79.7429Z" fill="#0D0D0D" fill-opacity="0.82"/>
<path d="M46.0354 79.5728C46.2954 78.0527 46.5954 76.5327 46.9154 75.0127L53.2554 75.3228C53.0654 75.5928 52.8854 75.8827 52.6954 76.1726C51.5854 77.9027 51.0254 80.9226 50.8454 83.4727L50.6454 82.2427C49.8754 80.5327 47.9554 79.6527 46.0354 79.5728Z" fill="#DDDDDB"/>
<path d="M46.0354 79.5728C46.2954 78.0527 46.5954 76.5327 46.9154 75.0127L53.2554 75.3228C53.0654 75.5928 52.8854 75.8827 52.6954 76.1726C51.5854 77.9027 51.0254 80.9226 50.8454 83.4727L50.6454 82.2427C49.8754 80.5327 47.9554 79.6527 46.0354 79.5728Z" fill="#0D0D0D" fill-opacity="0.82"/>
<path d="M96.5754 127.732C96.2449 128.063 95.4694 128.198 95.0054 128.242C88.3455 128.902 81.6854 127.362 75.0255 126.692C69.7541 126.153 69.7909 127.622 67.7355 128.062C66.7554 128.262 65.8354 127.632 64.8555 127.542C63.5654 127.432 62.1254 127.682 60.8354 127.832C56.9855 128.272 52.3254 130.802 48.5054 130.282C44.7454 129.772 44.5654 125.192 44.5355 122.152C44.4855 115.202 44.4255 108.242 44.3754 101.292C44.3655 100.182 44.3523 98.1947 44.3455 97.1622C47.1454 97.6122 50.1755 96.7122 52.1954 94.7222C52.2955 94.9421 52.3854 95.1721 52.4954 95.3922C54.7501 100.143 59.9553 103.914 68.7554 103.942C68.2054 109.942 68.2654 116.002 68.9354 121.992L79.8455 122.232C79.7054 116.062 79.3054 109.962 79.1655 103.792C84.3539 102.063 88.071 98.1535 89.6155 93.3223L89.4855 94.9421C90.8254 96.3822 92.5054 97.2222 94.2955 97.4622C94.3854 97.7322 94.5255 97.9722 94.6854 98.2122C94.7554 98.3323 95.1555 99.0322 95.2855 99.0322C92.4852 99.2161 92.4893 100.642 92.3954 100.742C92.0596 102.387 93.8984 104.518 95.4055 105.272C92.0302 104.661 87.2207 107.739 91.6354 110.412C85.934 111.231 94.1584 116.466 95.0355 117.562C96.9493 119.899 96.5754 124.704 96.5754 127.732Z" fill="#DDDDDB"/>
<path d="M96.5754 127.732C96.2449 128.063 95.4694 128.198 95.0054 128.242C88.3455 128.902 81.6854 127.362 75.0255 126.692C69.7541 126.153 69.7909 127.622 67.7355 128.062C66.7554 128.262 65.8354 127.632 64.8555 127.542C63.5654 127.432 62.1254 127.682 60.8354 127.832C56.9855 128.272 52.3254 130.802 48.5054 130.282C44.7454 129.772 44.5654 125.192 44.5355 122.152C44.4855 115.202 44.4255 108.242 44.3754 101.292C44.3655 100.182 44.3523 98.1947 44.3455 97.1622C47.1454 97.6122 50.1755 96.7122 52.1954 94.7222C52.2955 94.9421 52.3854 95.1721 52.4954 95.3922C54.7501 100.143 59.9553 103.914 68.7554 103.942C68.2054 109.942 68.2654 116.002 68.9354 121.992L79.8455 122.232C79.7054 116.062 79.3054 109.962 79.1655 103.792C84.3539 102.063 88.071 98.1535 89.6155 93.3223L89.4855 94.9421C90.8254 96.3822 92.5054 97.2222 94.2955 97.4622C94.3854 97.7322 94.5255 97.9722 94.6854 98.2122C94.7554 98.3323 95.1555 99.0322 95.2855 99.0322C92.4852 99.2161 92.4893 100.642 92.3954 100.742C92.0596 102.387 93.8984 104.518 95.4055 105.272C92.0302 104.661 87.2207 107.739 91.6354 110.412C85.934 111.231 94.1584 116.466 95.0355 117.562C96.9493 119.899 96.5754 124.704 96.5754 127.732Z" fill="#0D0D0D" fill-opacity="0.82"/>
<path d="M90.8504 79.46L90.2303 73.8535C90.1927 73.5238 90.6913 73.4714 90.7264 73.7989L91.3465 79.4053C91.3838 79.7328 90.886 79.7932 90.8504 79.46Z" fill="#DDDDDB"/>
<path d="M95.1854 78.1425C94.0086 73.3734 92.2455 68.3599 88.6254 65.0426C84.5154 61.2825 78.9655 60.4625 73.4655 60.7525C71.0368 60.9202 68.6955 61.1574 66.3455 62.1525C64.4354 62.9525 62.6854 64.2425 61.6155 65.9525C61.3555 66.3625 60.7554 66.4625 60.3555 66.1724C57.0961 63.7941 52.0767 64.5391 49.7955 67.5826C49.2355 68.2425 48.7855 68.9925 48.3954 69.7625C46.8075 72.8547 46.0379 76.0246 45.5854 79.5726C45.7355 79.5526 45.8854 79.5626 46.0355 79.5726C47.9554 79.6525 49.8754 80.5325 50.6454 82.2425L50.8455 83.4725C51.0255 80.9224 51.5854 77.9025 52.6954 76.1724C54.7605 73.0215 56.7536 70.6432 60.4454 69.1525C65.6488 67.0324 74.277 67.5274 79.7855 68.6925C84.1927 69.629 87.8207 73.1923 89.2355 77.0826C90.0744 79.3158 90.4655 83.0078 90.4655 83.1125L90.5154 82.5426C91.2955 80.6724 93.4554 79.7525 95.5154 79.7325C95.4354 79.2125 95.3254 78.6824 95.1854 78.1425ZM59.0654 68.0726C58.9834 68.0843 57.9741 68.2239 57.9155 68.2825C57.1354 68.4625 56.3754 68.7325 55.6454 69.0926C55.6354 69.0926 55.6354 69.1026 55.6254 69.1026C53.4468 70.1816 52.8677 71.2725 52.5754 71.2725C52.3464 71.2725 52.2366 71.0113 52.3954 70.8526C53.9686 69.1887 56.3398 67.8748 59.0154 67.5726C59.35 67.5503 59.3848 68.0234 59.0654 68.0726ZM79.0955 63.6125C73.4649 62.6783 67.3598 62.5072 63.0255 66.3725C62.7411 66.6002 62.734 66.6925 62.5654 66.6925C62.5355 66.6925 62.5154 66.6925 62.4855 66.6724C62.4755 66.6724 62.4554 66.6625 62.4454 66.6525C62.2869 66.573 62.2865 66.3594 62.3954 66.2625C66.8079 62.0768 73.1811 62.1047 79.1755 63.1225C79.4961 63.1684 79.4339 63.6609 79.0955 63.6125Z" fill="#DDDDDB"/>
<path d="M95.1854 78.1425C94.0086 73.3734 92.2455 68.3599 88.6254 65.0426C84.5154 61.2825 78.9655 60.4625 73.4655 60.7525C71.0368 60.9202 68.6955 61.1574 66.3455 62.1525C64.4354 62.9525 62.6854 64.2425 61.6155 65.9525C61.3555 66.3625 60.7554 66.4625 60.3555 66.1724C57.0961 63.7941 52.0767 64.5391 49.7955 67.5826C49.2355 68.2425 48.7855 68.9925 48.3954 69.7625C46.8075 72.8547 46.0379 76.0246 45.5854 79.5726C45.7355 79.5526 45.8854 79.5626 46.0355 79.5726C47.9554 79.6525 49.8754 80.5325 50.6454 82.2425L50.8455 83.4725C51.0255 80.9224 51.5854 77.9025 52.6954 76.1724C54.7605 73.0215 56.7536 70.6432 60.4454 69.1525C65.6488 67.0324 74.277 67.5274 79.7855 68.6925C84.1927 69.629 87.8207 73.1923 89.2355 77.0826C90.0744 79.3158 90.4655 83.0078 90.4655 83.1125L90.5154 82.5426C91.2955 80.6724 93.4554 79.7525 95.5154 79.7325C95.4354 79.2125 95.3254 78.6824 95.1854 78.1425ZM59.0654 68.0726C58.9834 68.0843 57.9741 68.2239 57.9155 68.2825C57.1354 68.4625 56.3754 68.7325 55.6454 69.0926C55.6354 69.0926 55.6354 69.1026 55.6254 69.1026C53.4468 70.1816 52.8677 71.2725 52.5754 71.2725C52.3464 71.2725 52.2366 71.0113 52.3954 70.8526C53.9686 69.1887 56.3398 67.8748 59.0154 67.5726C59.35 67.5503 59.3848 68.0234 59.0654 68.0726ZM79.0955 63.6125C73.4649 62.6783 67.3598 62.5072 63.0255 66.3725C62.7411 66.6002 62.734 66.6925 62.5654 66.6925C62.5355 66.6925 62.5154 66.6925 62.4855 66.6724C62.4755 66.6724 62.4554 66.6625 62.4454 66.6525C62.2869 66.573 62.2865 66.3594 62.3954 66.2625C66.8079 62.0768 73.1811 62.1047 79.1755 63.1225C79.4961 63.1684 79.4339 63.6609 79.0955 63.6125Z" fill="#0D0D0D" fill-opacity="0.82"/>
<path d="M45.7859 97.5188C39.7403 97.5188 36.0451 91.7773 36.9148 86.8455C37.6033 82.9593 41.0838 79.7347 45.0115 79.345C47.1414 79.1321 49.8865 79.9192 50.8699 82.137C51.0037 82.441 50.5455 82.6413 50.4129 82.3401C49.5291 80.3479 47.0164 79.6468 45.0604 79.8426C41.3484 80.2107 38.0574 83.2591 37.407 86.9324C36.7586 90.6067 38.8025 94.5975 42.1609 96.2151C45.5193 97.8352 49.9148 96.949 52.3846 94.1521C52.6082 93.905 52.9759 94.2367 52.7596 94.4832C51.0262 96.4451 48.3973 97.5188 45.7859 97.5188Z" fill="#DDDDDB"/>
<path d="M94.2626 97.7102C92.3612 97.4553 90.6464 96.5569 89.3026 95.113C89.0765 94.8717 89.4427 94.5305 89.6679 94.7722C90.9325 96.1306 92.5438 96.9753 94.329 97.2151C94.6656 97.2596 94.5798 97.7631 94.2626 97.7102Z" fill="#DDDDDB"/>
<path d="M101.7 94.486C103.567 92.4084 104.399 89.4987 103.87 86.8928C103.124 83.2463 99.7558 80.2839 96.037 80.0026C94.08 79.8654 91.581 80.6364 90.746 82.6393C90.6212 82.9422 90.1561 82.753 90.2851 82.447C91.2128 80.218 93.9364 79.3547 96.0722 79.5036C100.009 79.8019 103.57 82.9352 104.36 86.7927C104.92 89.5515 104.043 92.6271 102.071 94.82C101.853 95.0666 101.477 94.7322 101.7 94.486Z" fill="#DDDDDB"/>
<path d="M52.4403 95.0608C48.7039 87.0623 49.9676 74.9924 57.2508 70.8113C57.5364 70.6461 57.7865 71.08 57.4989 71.2449C50.4442 75.2952 49.2489 87.0476 52.8934 94.8489C55.6678 100.791 62.0848 104.456 68.5116 103.769C68.8342 103.728 68.8991 104.231 68.5643 104.266C61.9643 104.978 55.3153 101.217 52.4403 95.0608Z" fill="#DDDDDB"/>
<path d="M77.911 103.796C86.2573 102.298 92.642 93.3746 90.2313 81.6078C90.1658 81.2839 90.6534 81.1828 90.7215 81.5072C93.1888 93.5637 86.6136 102.742 77.9989 104.288C77.6711 104.343 77.5869 103.854 77.911 103.796Z" fill="#DDDDDB"/>
<path d="M68.5516 117.616C68.4508 112.562 68.3871 108.562 68.2957 103.949C68.2928 103.811 68.4031 103.697 68.5408 103.694H68.5457C68.6815 103.694 68.7928 103.803 68.7957 103.939C68.8855 108.474 68.9417 112.094 69.0516 117.606C69.0586 117.937 68.5587 117.95 68.5516 117.616Z" fill="#DDDDDB"/>
<path d="M79.532 116.573C79.5399 114.007 78.7645 106.358 78.7723 103.768C78.7723 103.63 78.8846 103.519 79.0223 103.519C79.16 103.519 79.2723 103.631 79.2723 103.77C79.2644 106.336 80.0398 113.984 80.032 116.575C80.032 116.905 79.532 116.908 79.532 116.573Z" fill="#DDDDDB"/>
<path d="M46.6219 87.9951C45.1453 86.4737 42.616 86.0689 40.7361 87.0571C40.4436 87.2115 40.2106 86.7683 40.5037 86.6148C42.5711 85.5274 45.3553 85.9712 46.9813 87.6475C47.2119 87.8864 46.8504 88.2328 46.6219 87.9951Z" fill="#DDDDDB"/>
<path d="M43.5467 90.2066C43.2538 89.0611 43.4764 87.7979 44.1415 86.8277C44.3297 86.5548 44.74 86.8383 44.5536 87.1109C43.9686 87.9639 43.7733 89.0748 44.0311 90.0826C44.1127 90.4018 43.6302 90.5278 43.5467 90.2066Z" fill="#DDDDDB"/>
<path d="M94.3163 87.858C95.8964 86.1417 98.6679 85.6251 100.766 86.6583C101.063 86.8049 100.84 87.2541 100.545 87.1065C98.6376 86.1671 96.12 86.6378 94.6835 88.1969C94.46 88.4404 94.0921 88.1009 94.3163 87.858Z" fill="#DDDDDB"/>
<path d="M97.328 90.2157C97.5595 89.2054 97.3358 88.1 96.7294 87.2582C96.5379 86.9908 96.9396 86.6966 97.1356 86.9662C97.8241 87.9227 98.079 89.1791 97.8163 90.327C97.7397 90.6509 97.2556 90.5367 97.328 90.2157Z" fill="#DDDDDB"/>
<path d="M76.7479 75.0525C75.1307 73.8294 72.7346 74.0256 72.3456 74.8865C72.2093 75.1895 71.7548 74.982 71.8905 74.6814C72.4935 73.3435 75.3862 73.3963 77.0487 74.654C77.3126 74.8526 77.0112 75.2528 76.7479 75.0525Z" fill="#DDDDDB"/>
<path d="M71.2782 86.8459C72.3993 86.4712 73.3005 86.4306 74.2587 85.7937C75.6422 84.8795 75.1809 83.6495 74.9559 82.0202C74.3897 77.8272 73.9167 75.1418 73.3407 70.8811C73.3221 70.7439 73.4188 70.6179 73.5555 70.5998C73.6923 70.5774 73.8173 70.6775 73.8368 70.8137C74.0284 72.2337 75.5467 82.5719 75.5555 82.6257C75.7782 83.9748 75.9891 85.2493 74.535 86.2102C73.491 86.9043 72.5537 86.9471 71.4364 87.3205C71.1204 87.4259 70.9665 86.9506 71.2782 86.8459Z" fill="#DDDDDB"/>
<path d="M68.0435 76.6265C68.0444 77.5895 66.8714 78.3715 65.4269 78.3728C63.9799 78.3741 62.8055 77.5941 62.8047 76.6311C62.8038 75.6681 63.9768 74.886 65.4238 74.8848C66.8683 74.8835 68.0427 75.6635 68.0435 76.6265Z" fill="#DDDDDB"/>
<path d="M86.2113 76.6185C86.2121 77.577 85.0391 78.3555 83.5946 78.3568C82.1476 78.3581 80.9733 77.5817 80.9724 76.6231C80.9716 75.6645 82.1446 74.886 83.5915 74.8848C85.0361 74.8835 86.2104 75.6599 86.2113 76.6185Z" fill="#DDDDDB"/>
<path d="M79.4795 121.2C81.1385 120.964 82.5623 119.563 82.8292 117.91C83.0962 116.256 82.182 114.48 80.6832 113.735C81.622 113.056 81.4889 111.504 80.6878 110.665C79.8842 109.829 78.6688 109.552 77.517 109.424C74.3202 109.073 71.029 109.595 68.1094 110.942C67.0996 111.409 65.714 111.803 65.4442 113.043C65.3245 113.588 65.5379 114.342 65.7196 114.861C66.0069 115.682 66.5034 115.856 67.2507 115.982C67.454 116.016 66.9646 116.459 66.9169 116.485C66.6823 116.613 66.4485 116.602 66.2146 116.81C65.0185 117.873 65.4628 119.697 66.8048 120.223C70.2246 121.569 73.6094 122.076 77.2422 121.517" fill="#B39DDB"/>
<path d="M79.4795 121.2C81.1385 120.964 82.5623 119.563 82.8292 117.91C83.0962 116.256 82.182 114.48 80.6832 113.735C81.622 113.056 81.4889 111.504 80.6878 110.665C79.8842 109.829 78.6688 109.552 77.517 109.424C74.3202 109.073 71.029 109.595 68.1094 110.942C67.0996 111.409 65.714 111.803 65.4442 113.043C65.3245 113.588 65.5379 114.342 65.7196 114.861C66.0069 115.682 66.5034 115.856 67.2507 115.982C67.454 116.016 66.9646 116.459 66.9169 116.485C66.6823 116.613 66.4485 116.602 66.2146 116.81C65.0185 117.873 65.4628 119.697 66.8048 120.223C70.2246 121.569 73.6094 122.076 77.2422 121.517" fill="white" fill-opacity="0.32"/>
<path d="M66.5878 116.114C65.4569 115.533 65.2665 114.074 65.2274 112.868C65.2183 112.545 65.7129 112.508 65.7274 112.851C65.7616 113.921 65.9169 115.208 66.8163 115.669C67.6016 116.073 67.8104 115.857 77.1962 114.403C77.5358 114.361 77.5919 114.847 77.2743 114.897C68.1087 116.322 67.5649 116.615 66.5878 116.114Z" fill="#DDDDDB"/>
<path d="M50.5946 81.6941C52.6747 79.6277 54.9286 77.7219 57.2938 76.0305C57.5602 75.8366 57.8546 76.2444 57.5848 76.4368C55.2411 78.1131 53.0077 80.0012 50.9462 82.0486C50.7101 82.2823 50.3596 81.9256 50.5946 81.6941Z" fill="#DDDDDB"/>
<path d="M88.5653 70.7326C88.3853 71.2526 87.8654 71.5727 87.3753 71.8127C80.5765 75.1243 73.0277 73.2006 66.3553 69.6526C65.3305 69.1157 62.598 67.8219 62.4854 66.6725C62.7066 66.8203 62.9012 66.3289 64.1853 65.4726C65.1053 65.3527 66.2153 65.4126 66.8753 65.3726C73.4392 64.981 80.2193 65.9475 86.5753 68.3327C87.1154 68.5326 87.6653 68.7626 88.0853 69.1626C88.5053 69.5627 88.7553 70.1825 88.5653 70.7326Z" fill="#DDDDDB"/>
<path d="M88.5653 70.7326C88.3853 71.2526 87.8654 71.5727 87.3753 71.8127C80.5765 75.1243 73.0277 73.2006 66.3553 69.6526C65.3305 69.1157 62.598 67.8219 62.4854 66.6725C62.7066 66.8203 62.9012 66.3289 64.1853 65.4726C65.1053 65.3527 66.2153 65.4126 66.8753 65.3726C73.4392 64.981 80.2193 65.9475 86.5753 68.3327C87.1154 68.5326 87.6653 68.7626 88.0853 69.1626C88.5053 69.5627 88.7553 70.1825 88.5653 70.7326Z" fill="#0D0D0D" fill-opacity="0.82"/>
<path d="M64.8054 68.3024C62.0155 72.0037 59.2381 74.8763 54.5754 75.9323C53.2229 76.243 51.7359 76.3383 50.5154 75.6823C52.4854 72.5124 55.3254 69.8824 58.6354 68.1324C58.7754 68.1124 58.9254 68.0925 59.0654 68.0724C59.1954 68.0524 59.2954 67.9423 59.2854 67.8124C60.4646 67.2229 61.3305 66.9263 62.3654 66.5825C62.3754 66.5925 62.3754 66.6025 62.3854 66.6124C62.4054 66.6324 62.4254 66.6424 62.4454 66.6524C62.4554 66.6624 62.4754 66.6723 62.4854 66.6723C62.5154 66.6923 62.5354 66.6923 62.5654 66.6923C62.734 66.6923 62.7427 66.5988 63.0254 66.3724C64.0854 66.0624 65.6054 65.7123 66.0754 66.2223C66.5288 66.7126 65.1146 67.8901 64.8054 68.3024Z" fill="#DDDDDB"/>
<path d="M64.8054 68.3024C62.0155 72.0037 59.2381 74.8763 54.5754 75.9323C53.2229 76.243 51.7359 76.3383 50.5154 75.6823C52.4854 72.5124 55.3254 69.8824 58.6354 68.1324C58.7754 68.1124 58.9254 68.0925 59.0654 68.0724C59.1954 68.0524 59.2954 67.9423 59.2854 67.8124C60.4646 67.2229 61.3305 66.9263 62.3654 66.5825C62.3754 66.5925 62.3754 66.6025 62.3854 66.6124C62.4054 66.6324 62.4254 66.6424 62.4454 66.6524C62.4554 66.6624 62.4754 66.6723 62.4854 66.6723C62.5154 66.6923 62.5354 66.6923 62.5654 66.6923C62.734 66.6923 62.7427 66.5988 63.0254 66.3724C64.0854 66.0624 65.6054 65.7123 66.0754 66.2223C66.5288 66.7126 65.1146 67.8901 64.8054 68.3024Z" fill="#0D0D0D" fill-opacity="0.82"/>
<path d="M59.6064 83.3477C54.8716 78.1807 58.1721 69.1968 64.9804 69.1904H64.9863C71.766 69.1904 75.1186 78.147 70.3818 83.3384C67.418 86.5832 62.5901 86.604 59.6064 83.3477ZM64.9863 69.6904H64.9804C58.6257 69.6968 55.5228 78.1497 59.9755 83.0103C62.7501 86.0395 67.238 86.0393 70.0126 83.001C74.4468 78.1436 71.3451 69.6904 64.9863 69.6904Z" fill="#DDDDDB"/>
<path d="M84.1961 85.7638C77.4148 85.7638 74.0677 76.8068 78.8026 71.6158C83.6115 66.3508 91.7971 70.1414 91.8036 77.462C91.8075 82.0353 88.3973 85.7599 84.202 85.7638H84.1961ZM79.1727 71.9532C74.7389 76.8082 77.8357 85.2638 84.1961 85.2638H84.202C90.5615 85.2574 93.6599 76.8028 89.2088 71.944C86.4342 68.9147 81.9453 68.9149 79.1727 71.9532Z" fill="#DDDDDB"/>
<path d="M97.8173 128.897C96.8335 129.879 95.6037 130.009 94.1878 130.1C78.4708 131.111 62.6866 131.074 46.9746 129.988C42.4462 129.676 48.0134 125.537 49.1758 124.626C51.0236 123.177 53.2137 122.202 55.4626 121.565C58.4396 120.719 61.5448 120.436 64.6254 120.155C70.116 119.656 75.5439 120.398 81.0563 120.387C84.9311 120.379 88.923 120.774 92.5344 122.264C94.4047 123.036 100.559 126.16 97.8173 128.897Z" fill="#B39DDB"/>
<path d="M97.8173 128.897C96.8335 129.879 95.6037 130.009 94.1878 130.1C78.4708 131.111 62.6866 131.074 46.9746 129.988C42.4462 129.676 48.0134 125.537 49.1758 124.626C51.0236 123.177 53.2137 122.202 55.4626 121.565C58.4396 120.719 61.5448 120.436 64.6254 120.155C70.116 119.656 75.5439 120.398 81.0563 120.387C84.9311 120.379 88.923 120.774 92.5344 122.264C94.4047 123.036 100.559 126.16 97.8173 128.897Z" fill="white" fill-opacity="0.32"/>
<path d="M69.5077 92.4585C68.7065 91.0672 66.8955 90.6118 65.5312 91.4619C65.2505 91.6362 64.9868 91.2125 65.2675 91.0371C66.8457 90.0527 68.9806 90.5418 69.9413 92.2085C70.1048 92.4946 69.6755 92.7451 69.5077 92.4585Z" fill="#DDDDDB"/>
<path d="M115.595 38.2126C115.255 41.7727 114.915 45.3428 114.285 48.8627C112.775 57.3461 108.249 70.426 104.725 95.9827C103.702 95.4171 102.694 94.978 101.605 94.5327C100.799 94.1921 99.7871 94.0769 98.7454 93.9727C98.5554 89.7627 100.415 84.5327 101.055 80.5527C102.815 69.6327 104.395 58.6826 105.815 47.7026C108.466 27.1927 107.866 26.8548 109.355 25.4426C110.875 23.9727 113.365 24.6028 115.345 25.3127C115.755 25.4626 116.195 25.6327 116.445 25.9927C116.866 26.5932 116.746 26.4071 115.595 38.2126Z" fill="#DDDDDB"/>
<path d="M96.3455 128.83C96.2464 125.45 96.8387 120.223 94.8397 117.719C94.1471 116.843 88.8647 113.477 89.4295 111.426C89.5809 110.878 90.0926 110.501 90.9891 110.282C89.4158 109.123 89.5145 108.017 89.7371 107.43C90.2645 106.04 92.4119 104.968 94.4403 104.945C92.994 103.844 91.8494 102.085 92.157 100.67C92.3133 99.9505 92.9022 99.0774 94.7713 98.8314C94.2335 98.0214 93.6915 97.0989 93.869 96.1468C94.1331 94.688 96.0456 93.9768 97.5106 93.7068C98.0095 93.6056 98.6386 93.7035 99.118 93.7654C99.9804 93.8668 100.852 93.9429 101.703 94.3021C106.39 96.2215 110.907 98.924 111.136 104.012C111.459 111.055 111.794 118.34 113.301 125.833C113.366 126.155 112.875 126.26 112.81 125.932C111.297 118.401 110.961 111.097 110.636 104.034C110.417 99.1688 105.974 96.5894 101.511 94.764C100.71 94.4252 99.7234 94.3256 98.7205 94.221C98.4086 94.1774 97.9414 94.1313 97.6102 94.1966C96.4075 94.4189 94.5794 95.0264 94.3611 96.2371C94.2986 96.5726 94.3494 96.9393 94.5174 97.3602C94.6296 97.6603 95.2012 98.6299 95.3709 98.7977C95.6237 98.8908 95.57 99.2644 95.3016 99.282C94.2225 99.3519 92.8865 99.6678 92.6453 100.777C92.3621 102.079 93.7069 104.077 95.5233 105.053C95.7687 105.184 95.6471 105.566 95.3602 105.519C92.3077 104.959 87.6066 107.676 91.7654 110.199C91.965 110.32 91.9027 110.627 91.6717 110.66C90.6258 110.812 90.034 111.114 89.9119 111.558C89.4625 113.192 94.5385 116.53 95.2313 117.408C97.3615 120.076 96.7401 125.276 96.8445 128.782L96.5955 128.823L96.3455 128.83Z" fill="#DDDDDB"/>
<path d="M103.527 102.731C101.516 100.47 98.4051 99.1629 95.3661 99.3226C95.0642 99.3791 94.985 98.8424 95.3407 98.8236C98.5545 98.6566 101.76 99.9901 103.9 102.399C104.124 102.65 103.742 102.975 103.527 102.731Z" fill="#DDDDDB"/>
<path d="M97.08 113.271C95.5028 111.958 93.6005 111.07 91.58 110.703C91.2599 110.645 91.3367 110.158 91.6698 110.211C93.7743 110.593 95.7557 111.519 97.4003 112.886C97.6532 113.098 97.3361 113.482 97.08 113.271Z" fill="#DDDDDB"/>
<path d="M100.673 109.217C99.3192 107.399 97.3748 106.055 95.1981 105.432C94.8752 105.339 95.0238 104.855 95.3348 104.951C97.617 105.604 99.6551 107.014 101.073 108.918C101.272 109.183 100.869 109.483 100.673 109.217Z" fill="#DDDDDB"/>
<path d="M135.12 34.9378C137.376 35.5065 139.318 35.5459 140.134 38.2028C140.597 39.7094 140.435 41.3287 140.244 42.8931C139.716 47.2107 138.995 51.5045 138.083 55.7577C137.373 59.0742 137.102 63.253 133.879 65.1807C132.071 66.2606 129.799 66.0074 127.713 65.7193C88.4963 60.3035 87.9946 60.4964 83.9413 58.8852C82.029 58.1251 78.5746 56.8423 77.5255 54.9753C76.886 53.8372 77.0092 52.4394 77.1841 51.1457C78.1274 44.1685 80.0419 37.3232 82.8551 30.869C84.2642 27.6359 85.3978 27.5866 89.0846 27.8071C104.004 28.6994 119.574 31.0179 135.12 34.9378Z" fill="#B39DDB"/>
<path d="M135.12 34.9378C137.376 35.5065 139.318 35.5459 140.134 38.2028C140.597 39.7094 140.435 41.3287 140.244 42.8931C139.716 47.2107 138.995 51.5045 138.083 55.7577C137.373 59.0742 137.102 63.253 133.879 65.1807C132.071 66.2606 129.799 66.0074 127.713 65.7193C88.4963 60.3035 87.9946 60.4964 83.9413 58.8852C82.029 58.1251 78.5746 56.8423 77.5255 54.9753C76.886 53.8372 77.0092 52.4394 77.1841 51.1457C78.1274 44.1685 80.0419 37.3232 82.8551 30.869C84.2642 27.6359 85.3978 27.5866 89.0846 27.8071C104.004 28.6994 119.574 31.0179 135.12 34.9378Z" fill="white" fill-opacity="0.32"/>
<path d="M25.5497 86.5886C22.413 84.2912 20.413 80.2614 20.1991 75.8088C19.7843 67.1743 26.2744 54.6376 35.6512 51.3859C34.6329 44.7392 39.252 39.6046 44.702 35.5896C53.66 28.9919 67.1122 24.1149 78.0067 30.215C78.2957 30.3772 78.048 30.8134 77.7626 30.6516C67.076 24.6652 53.8309 29.486 44.9989 35.9919C39.7642 39.848 35.1944 44.8155 36.1288 51.2287C38.8958 50.3691 42.5727 50.112 44.8495 51.9445C49.0155 55.2915 44.9442 60.9399 39.7421 57.906C37.5233 56.6125 36.2284 54.3444 35.7391 51.8845C26.6387 55.0932 20.2946 67.371 20.6991 75.7844C20.9051 80.0881 22.829 83.9763 25.8446 86.1852C26.1136 86.3823 25.8129 86.7846 25.5497 86.5886ZM36.2128 51.7263C36.6649 54.0778 37.8876 56.2458 39.994 57.4743C44.5947 60.1597 48.2641 55.3306 44.537 52.3342C42.3898 50.6091 38.8136 50.9051 36.2128 51.7263Z" fill="#DDDDDB"/>
<path d="M134.454 30.7927C133.893 28.883 133.79 26.8396 134.154 24.883C134.216 24.5551 134.707 24.6515 134.646 24.9748C134.296 26.8542 134.395 28.8176 134.934 30.6521C135.027 30.9723 134.548 31.1099 134.454 30.7927Z" fill="#DDDDDB"/>
<path d="M136.372 31.2317C137.737 28.7029 139.378 26.3162 141.247 24.138C141.46 23.888 141.843 24.2111 141.626 24.4632C139.78 26.6145 138.16 28.9715 136.811 31.469C136.657 31.757 136.215 31.524 136.372 31.2317Z" fill="#DDDDDB"/>
<path d="M138.305 33.1724C137.98 33.1724 137.971 32.6817 138.299 32.6724C139.661 32.6368 141.033 32.315 142.268 31.7418C142.565 31.6005 142.781 32.0547 142.479 32.1949C140.43 33.146 138.806 33.1072 138.305 33.1724Z" fill="#DDDDDB"/>
<path d="M133.746 48.0098C133.712 48.0508 133.678 48.0795 133.644 48.0959C133.61 48.1088 133.57 48.1119 133.521 48.1051C133.466 48.0974 133.407 48.0698 133.343 48.0222C133.283 47.9751 133.207 47.9224 133.117 47.864C133.03 47.8061 132.925 47.7493 132.803 47.6935C132.681 47.6378 132.531 47.5976 132.355 47.573C132.211 47.5528 132.075 47.5532 131.949 47.5743C131.827 47.5924 131.72 47.6285 131.628 47.6825C131.536 47.7331 131.462 47.8001 131.405 47.8835C131.348 47.9635 131.312 48.0536 131.298 48.1536C131.28 48.2848 131.303 48.3988 131.367 48.4956C131.434 48.593 131.525 48.6814 131.641 48.7608C131.76 48.8408 131.895 48.9177 132.047 48.9916C132.202 49.0626 132.359 49.1372 132.517 49.2155C132.678 49.2944 132.833 49.3811 132.982 49.4757C133.134 49.5674 133.265 49.6753 133.374 49.7996C133.488 49.921 133.572 50.0612 133.627 50.2201C133.686 50.3796 133.7 50.5663 133.67 50.7802C133.636 51.0252 133.559 51.2467 133.44 51.4447C133.325 51.6397 133.171 51.8011 132.977 51.9288C132.787 52.057 132.56 52.1467 132.296 52.1978C132.032 52.2489 131.738 52.2518 131.413 52.2065C131.051 52.156 130.725 52.0488 130.434 51.8852C130.144 51.7216 129.908 51.5321 129.727 51.3169L130.02 50.9619C130.054 50.9174 130.094 50.886 130.138 50.8677C130.184 50.8458 130.241 50.8397 130.31 50.8494C130.375 50.8585 130.439 50.8921 130.502 50.95C130.564 51.008 130.639 51.073 130.728 51.1452C130.816 51.2139 130.927 51.282 131.058 51.3496C131.19 51.4137 131.359 51.4602 131.566 51.4891C131.739 51.5132 131.892 51.5135 132.025 51.4899C132.159 51.4628 132.272 51.4189 132.365 51.358C132.462 51.2941 132.538 51.2167 132.593 51.1259C132.648 51.0351 132.683 50.9361 132.698 50.8292C132.717 50.6911 132.693 50.5717 132.626 50.4709C132.563 50.3672 132.473 50.2736 132.354 50.1902C132.239 50.1073 132.104 50.0304 131.948 49.9594C131.793 49.8885 131.635 49.8136 131.473 49.7348C131.312 49.656 131.155 49.569 131.003 49.4739C130.851 49.3788 130.719 49.2671 130.607 49.1389C130.498 49.0111 130.415 48.8623 130.358 48.6925C130.304 48.5232 130.293 48.3246 130.325 48.0969C130.353 47.8933 130.422 47.7041 130.531 47.5293C130.643 47.355 130.788 47.2082 130.967 47.0889C131.149 46.9701 131.363 46.8856 131.609 46.8356C131.859 46.7825 132.136 46.7772 132.44 46.8196C132.788 46.8682 133.094 46.9673 133.358 47.1167C133.626 47.2667 133.846 47.4522 134.02 47.6734L133.746 48.0098Z" fill="black" fill-opacity="0.87"/>
<path d="M125.404 49.9649C125.54 50.2054 125.696 50.382 125.874 50.4948C126.055 50.608 126.265 50.6813 126.503 50.7145C126.965 50.779 127.346 50.6633 127.644 50.3672C127.946 50.0681 128.141 49.5994 128.231 48.961C128.277 48.6263 128.288 48.3375 128.262 48.0947C128.24 47.8488 128.184 47.644 128.094 47.4802C128.008 47.3135 127.891 47.1845 127.742 47.0933C127.593 46.9987 127.419 46.9374 127.219 46.9095C126.925 46.8686 126.661 46.8985 126.425 46.9992C126.193 47.1005 125.969 47.2591 125.752 47.4752L125.404 49.9649ZM125.796 46.7795C125.925 46.6638 126.059 46.5611 126.198 46.4715C126.341 46.3789 126.491 46.3048 126.646 46.2491C126.802 46.19 126.964 46.151 127.132 46.1322C127.304 46.1105 127.483 46.1126 127.669 46.1386C127.97 46.1806 128.232 46.277 128.457 46.4281C128.686 46.5796 128.871 46.7813 129.011 47.0331C129.152 47.2849 129.246 47.5847 129.292 47.9324C129.342 48.2807 129.337 48.6722 129.276 49.1069C129.222 49.4969 129.118 49.8517 128.964 50.1715C128.814 50.4883 128.624 50.7555 128.393 50.9731C128.165 51.1911 127.9 51.3511 127.598 51.4531C127.299 51.5521 126.974 51.577 126.622 51.5279C126.308 51.484 126.046 51.3947 125.836 51.2599C125.626 51.125 125.446 50.9522 125.296 50.7413L124.977 53.0239L123.968 52.883L124.949 45.8591L125.554 45.9436C125.696 45.9634 125.774 46.043 125.79 46.1823L125.796 46.7795Z" fill="black" fill-opacity="0.87"/>
<path d="M123.54 45.6625L122.806 50.9214L122.2 50.8368C122.062 50.8175 121.982 50.7377 121.959 50.5974L121.96 50.0593C121.83 50.1642 121.695 50.258 121.557 50.3407C121.419 50.4234 121.274 50.4912 121.122 50.5439C120.971 50.5931 120.814 50.6257 120.65 50.6415C120.485 50.6607 120.311 50.6576 120.128 50.632C119.839 50.5916 119.59 50.5076 119.383 50.3802C119.179 50.2532 119.015 50.0931 118.89 49.8999C118.767 49.7032 118.684 49.477 118.642 49.2214C118.6 48.9658 118.6 48.6896 118.642 48.3929L119.109 45.0439L120.124 45.1856L119.656 48.5345C119.604 48.9106 119.649 49.216 119.792 49.4505C119.936 49.6817 120.185 49.822 120.541 49.8717C120.799 49.9078 121.049 49.8811 121.291 49.7917C121.532 49.6987 121.766 49.559 121.993 49.3726L122.531 45.5216L123.54 45.6625Z" fill="black" fill-opacity="0.87"/>
<path d="M115.525 44.4593C115.911 44.5132 116.251 44.6257 116.544 44.7967C116.84 44.9648 117.081 45.1831 117.265 45.4515C117.453 45.717 117.582 46.0253 117.653 46.3764C117.724 46.724 117.731 47.1049 117.673 47.519C117.615 47.9331 117.504 48.2993 117.34 48.6176C117.176 48.936 116.967 49.197 116.714 49.4009C116.464 49.6052 116.173 49.7492 115.841 49.8331C115.513 49.9139 115.156 49.9274 114.769 49.8734C114.379 49.819 114.036 49.7078 113.739 49.5397C113.447 49.3687 113.206 49.1504 113.018 48.8849C112.83 48.6195 112.699 48.3109 112.625 47.9594C112.554 47.6083 112.548 47.2257 112.606 46.8116C112.663 46.3975 112.774 46.033 112.938 45.7181C113.105 45.4003 113.316 45.1394 113.569 44.9356C113.823 44.7283 114.114 44.5843 114.442 44.5034C114.774 44.4195 115.135 44.4048 115.525 44.4593ZM114.879 49.0867C115.376 49.156 115.77 49.0405 116.062 48.74C116.354 48.4394 116.542 47.9855 116.627 47.3782C116.711 46.7709 116.655 46.2827 116.456 45.9138C116.259 45.5414 115.911 45.3206 115.414 45.2512C114.911 45.1809 114.511 45.2975 114.215 45.6009C113.923 45.9015 113.735 46.3554 113.65 46.9627C113.566 47.57 113.622 48.0582 113.821 48.4271C114.022 48.7965 114.375 49.0164 114.879 49.0867Z" fill="black" fill-opacity="0.87"/>
<path d="M110.485 44.8686C110.702 44.5471 110.943 44.3046 111.209 44.1412C111.474 43.9777 111.775 43.9194 112.109 43.9661C112.223 43.982 112.328 44.0107 112.424 44.0523C112.525 44.0909 112.609 44.1414 112.678 44.2037L112.504 44.9552C112.467 45.045 112.404 45.0837 112.314 45.0711C112.266 45.0644 112.194 45.0457 112.1 45.0149C112.006 44.9807 111.904 44.9559 111.794 44.9405C111.632 44.9179 111.485 44.922 111.354 44.953C111.224 44.9805 111.102 45.0339 110.989 45.1131C110.88 45.1893 110.778 45.2894 110.683 45.4134C110.589 45.5339 110.497 45.6742 110.408 45.8341L109.948 49.1261L108.939 48.9852L109.673 43.7263L110.253 43.8072C110.363 43.8226 110.435 43.8537 110.467 43.9004C110.503 43.9441 110.523 44.0172 110.526 44.1197L110.485 44.8686Z" fill="black" fill-opacity="0.87"/>
<path d="M108.247 45.2006L107.842 48.0992C107.428 48.3158 107 48.4618 106.557 48.5372C106.114 48.609 105.642 48.61 105.142 48.5402C104.541 48.4564 104.011 48.2873 103.55 48.0331C103.093 47.7793 102.717 47.4612 102.422 47.0788C102.128 46.6964 101.919 46.2593 101.798 45.7674C101.68 45.276 101.66 44.7508 101.738 44.1918C101.817 43.6293 101.977 43.1275 102.218 42.6862C102.463 42.2419 102.774 41.8773 103.151 41.5923C103.529 41.3038 103.966 41.1009 104.461 40.9835C104.959 40.8632 105.502 40.8439 106.089 40.9258C106.386 40.9673 106.657 41.028 106.902 41.108C107.151 41.1885 107.379 41.2853 107.585 41.3985C107.791 41.5117 107.977 41.6397 108.143 41.7825C108.314 41.9224 108.468 42.0759 108.607 42.243L108.222 42.6958C108.162 42.7685 108.091 42.8096 108.009 42.8192C107.927 42.8288 107.843 42.7978 107.758 42.7261C107.676 42.6619 107.584 42.5875 107.483 42.5031C107.386 42.4191 107.265 42.3372 107.122 42.2574C106.982 42.178 106.814 42.1036 106.62 42.0343C106.426 41.9649 106.192 41.9112 105.92 41.8732C105.512 41.8163 105.135 41.8323 104.789 41.9211C104.443 42.0065 104.137 42.1573 103.871 42.3734C103.605 42.5896 103.385 42.865 103.212 43.1997C103.039 43.5308 102.922 43.9138 102.862 44.3486C102.798 44.8041 102.807 45.2222 102.887 45.6028C102.968 45.98 103.11 46.3111 103.313 46.5963C103.52 46.8784 103.785 47.1089 104.108 47.2878C104.435 47.4671 104.811 47.5863 105.235 47.6456C105.401 47.6687 105.556 47.6815 105.699 47.684C105.847 47.6835 105.989 47.6752 106.125 47.659C106.261 47.6428 106.393 47.6172 106.521 47.5823C106.652 47.5479 106.783 47.5081 106.912 47.4628L107.13 45.9048L106.032 45.7517C105.963 45.742 105.909 45.7134 105.87 45.6657C105.835 45.6185 105.821 45.5639 105.83 45.5017L105.917 44.8754L108.247 45.2006Z" fill="black" fill-opacity="0.87"/>
<path d="M95.9429 41.7249C96.3294 41.7788 96.669 41.8913 96.9618 42.0624C97.2584 42.2304 97.4989 42.4487 97.683 42.7171C97.8711 42.9826 98.0005 43.2909 98.071 43.642C98.1421 43.9896 98.1488 44.3705 98.091 44.7846C98.0332 45.1987 97.9222 45.5649 97.7582 45.8832C97.5941 46.2016 97.3853 46.4627 97.1317 46.6665C96.8815 46.8708 96.5906 47.0148 96.2587 47.0987C95.9308 47.1796 95.5736 47.193 95.1871 47.1391C94.7972 47.0846 94.4539 46.9734 94.1572 46.8053C93.8645 46.6343 93.6241 46.416 93.436 46.1506C93.2479 45.8851 93.1168 45.5766 93.0428 45.225C92.9722 44.8739 92.9658 44.4913 93.0236 44.0772C93.0814 43.6631 93.1921 43.2986 93.3556 42.9837C93.5231 42.6659 93.7337 42.405 93.9873 42.2012C94.2414 41.994 94.5324 41.8499 94.8603 41.769C95.1921 41.6852 95.553 41.6705 95.9429 41.7249ZM95.297 46.3523C95.7939 46.4217 96.1882 46.3061 96.4799 46.0056C96.7716 45.7051 96.9599 45.2511 97.0447 44.6438C97.1295 44.0365 97.0727 43.5484 96.8744 43.1794C96.6766 42.8071 96.3293 42.5862 95.8324 42.5168C95.3286 42.4465 94.9289 42.5631 94.6332 42.8666C94.3415 43.1671 94.1532 43.621 94.0684 44.2283C93.9837 44.8357 94.0404 45.3238 94.2387 45.6927C94.4404 46.0621 94.7932 46.282 95.297 46.3523Z" fill="black" fill-opacity="0.87"/>
<path d="M92.5236 39.1163L91.486 46.5492L90.927 46.4711C90.8407 46.4591 90.7704 46.4335 90.7161 46.3942C90.6652 46.3554 90.6152 46.2975 90.5662 46.2203L87.1264 40.2046C87.1203 40.2987 87.1127 40.3909 87.1036 40.4811C87.098 40.5717 87.0897 40.6568 87.0786 40.7361L86.3668 45.8346L85.3989 45.6994L86.4365 38.2666L87.0059 38.3461C87.1025 38.3596 87.1733 38.3818 87.2182 38.4127C87.2636 38.4401 87.3101 38.4976 87.3577 38.5852L90.8072 44.6075C90.8108 44.506 90.8157 44.4082 90.8218 44.314C90.8318 44.2169 90.8426 44.127 90.8542 44.0441L91.5608 38.9819L92.5236 39.1163Z" fill="black" fill-opacity="0.87"/>
</svg>
