<svg width="165" height="164" viewBox="0 0 165 164" fill="none" xmlns="http://www.w3.org/2000/svg">
<path d="M74.6945 66.3696C74.4317 66.643 74.1583 66.8953 73.8535 67.1161L66.0845 69.9019C68.414 67.7568 71.5671 66.6678 74.6945 66.3696Z" fill="#242422"/>
<path d="M60.8598 71.7842L58.4734 72.6358C59.2408 72.2572 60.0398 71.9733 60.8598 71.7842Z" fill="#242422"/>
<path d="M75.1887 65.8128C71.7901 65.9907 68.1242 67.2369 65.5694 69.6604C65.448 69.7698 65.4635 69.9909 65.622 70.0704L62.3 71.2689C62.2894 71.1322 62.1738 71.0271 62.0161 71.0376C60.1553 71.2478 58.3892 71.9101 56.8649 72.9719C49.0361 71.9634 49.8172 64.4579 53.5217 65.2766C52.6071 63.7522 51.1984 62.1858 51.1038 60.3775C50.8793 55.6956 55.6048 53.5606 59.861 57.4759C59.02 56.225 58.8938 54.4589 59.6297 53.1237C61.7589 49.3004 67.9938 50.5921 68.3027 55.5102C71.1307 53.9648 75.0625 55.5628 76.3556 58.5168C77.4175 60.9209 76.7882 63.8039 75.1887 65.8128Z" fill="#242422"/>
<path d="M95.4839 83.5341L94.832 77.6401C94.7925 77.2935 95.3166 77.2384 95.3535 77.5826L96.0054 83.4766C96.0446 83.8209 95.5213 83.8843 95.4839 83.5341Z" fill="#242422"/>
<path d="M48.1084 102.519C41.7528 102.519 37.868 96.4835 38.7824 91.2988C39.5062 87.2132 43.1651 83.8233 47.2943 83.4136C49.5334 83.1898 52.4193 84.0173 53.4531 86.3488C53.5938 86.6684 53.112 86.879 52.9727 86.5623C52.0435 84.468 49.402 83.7309 47.3456 83.9367C43.4434 84.3237 39.9836 87.5284 39.2998 91.3901C38.6181 95.2529 40.7669 99.4482 44.2975 101.149C47.8282 102.852 52.4491 101.92 55.0455 98.9801C55.2805 98.7203 55.6671 99.069 55.4397 99.3281C53.6174 101.391 50.8537 102.519 48.1084 102.519Z" fill="#242422"/>
<path d="M99.071 102.721C97.0721 102.453 95.2693 101.508 93.8567 99.9902C93.6189 99.7365 94.0039 99.3778 94.2407 99.6319C95.5702 101.06 97.2641 101.948 99.1408 102.2C99.4947 102.247 99.4044 102.776 99.071 102.721Z" fill="#242422"/>
<path d="M106.89 99.3309C108.853 97.1467 109.727 94.0878 109.171 91.3482C108.387 87.5147 104.846 84.4004 100.936 84.1047C98.8788 83.9605 96.2516 84.771 95.3738 86.8767C95.2426 87.195 94.7537 86.9962 94.8893 86.6744C95.8646 84.3311 98.7279 83.4236 100.973 83.5801C105.112 83.8938 108.856 87.1877 109.686 91.243C110.275 94.1432 109.353 97.3767 107.28 99.682C107.05 99.9412 106.656 99.5896 106.89 99.3309Z" fill="#242422"/>
<path d="M55.1038 99.9352C51.1759 91.5264 52.5043 78.8376 60.161 74.4421C60.4612 74.2684 60.7242 74.7246 60.4218 74.8979C53.0053 79.1559 51.7487 91.511 55.5802 99.7124C58.4968 105.959 65.2429 109.812 71.9993 109.09C72.3384 109.046 72.4067 109.575 72.0547 109.613C65.1162 110.361 58.1263 106.407 55.1038 99.9352Z" fill="#242422"/>
<path d="M81.8807 109.119C90.655 107.544 97.3671 98.1633 94.8328 85.793C94.764 85.4526 95.2765 85.3463 95.3482 85.6873C97.942 98.3621 91.0296 108.011 81.9731 109.636C81.6286 109.694 81.54 109.18 81.8807 109.119Z" fill="#242422"/>
<path d="M72.0415 123.647C71.9356 118.334 71.8686 114.129 71.7725 109.279C71.7694 109.134 71.8855 109.014 72.0302 109.011H72.0353C72.178 109.011 72.2951 109.126 72.2982 109.269C72.3926 114.036 72.4516 117.842 72.5671 123.636C72.5745 123.984 72.049 123.998 72.0415 123.647Z" fill="#242422"/>
<path d="M83.5849 122.55C83.5932 119.853 82.778 111.812 82.7862 109.088C82.7862 108.944 82.9043 108.827 83.049 108.827C83.1938 108.827 83.3118 108.945 83.3118 109.091C83.3036 111.788 84.1187 119.829 84.1106 122.552C84.1106 122.9 83.5849 122.903 83.5849 122.55Z" fill="#242422"/>
<path d="M48.9872 92.507C47.435 90.9075 44.776 90.4819 42.7997 91.5209C42.4922 91.6832 42.2472 91.2173 42.5553 91.0558C44.7287 89.9127 47.6557 90.3793 49.365 92.1415C49.6075 92.3926 49.2274 92.7568 48.9872 92.507Z" fill="#242422"/>
<path d="M45.7542 94.8323C45.4462 93.6281 45.6802 92.3001 46.3794 91.2802C46.5773 90.9932 47.0086 91.2913 46.8126 91.5779C46.1977 92.4747 45.9923 93.6425 46.2634 94.702C46.3491 95.0375 45.8419 95.17 45.7542 94.8323Z" fill="#242422"/>
<path d="M99.1274 92.3632C100.788 90.5589 103.702 90.0158 105.907 91.102C106.221 91.2561 105.986 91.7284 105.675 91.5732C103.67 90.5856 101.024 91.0804 99.5134 92.7195C99.2785 92.9755 98.8917 92.6185 99.1274 92.3632Z" fill="#242422"/>
<path d="M102.293 94.8424C102.537 93.7803 102.302 92.6182 101.664 91.7332C101.463 91.4521 101.885 91.1429 102.091 91.4262C102.815 92.4318 103.083 93.7526 102.807 94.9594C102.726 95.3 102.217 95.1798 102.293 94.8424Z" fill="#242422"/>
<path d="M80.6579 78.9009C78.9578 77.6151 76.4389 77.8214 76.0298 78.7264C75.8866 79.045 75.4088 78.8268 75.5514 78.5108C76.1854 77.1043 79.2264 77.1598 80.9742 78.4821C81.2517 78.6908 80.9347 79.1115 80.6579 78.9009Z" fill="#242422"/>
<path d="M74.9078 91.2989C76.0864 90.9049 77.0337 90.8622 78.0411 90.1926C79.4956 89.2316 79.0106 87.9385 78.7741 86.2257C78.1788 81.8176 77.6815 78.9945 77.0761 74.5153C77.0565 74.3711 77.1582 74.2386 77.3019 74.2196C77.4456 74.196 77.5771 74.3012 77.5976 74.4445C77.799 75.9372 79.3952 86.8057 79.4045 86.8622C79.6386 88.2805 79.8603 89.6203 78.3316 90.6305C77.234 91.3603 76.2487 91.4052 75.0741 91.7978C74.7419 91.9086 74.5801 91.4089 74.9078 91.2989Z" fill="#242422"/>
<path d="M71.5073 80.5561C71.5082 81.5685 70.275 82.3907 68.7564 82.392C67.2353 82.3933 66.0007 81.5734 65.9998 80.561C65.9989 79.5486 67.232 78.7264 68.7532 78.7251C70.2718 78.7238 71.5064 79.5438 71.5073 80.5561Z" fill="#242422"/>
<path d="M90.6069 80.5477C90.6078 81.5554 89.3746 82.3738 87.856 82.3752C86.3349 82.3765 85.1003 81.5603 85.0994 80.5526C85.0985 79.5448 86.3316 78.7264 87.8528 78.7251C89.3714 78.7238 90.606 79.54 90.6069 80.5477Z" fill="#242422"/>
<path d="M83.5296 127.415C85.2737 127.167 86.7705 125.693 87.0512 123.957C87.3318 122.217 86.3708 120.35 84.795 119.567C85.782 118.853 85.6421 117.221 84.7999 116.34C83.9552 115.461 82.6774 115.169 81.4665 115.034C78.1058 114.665 74.6458 115.215 71.5765 116.631C70.5149 117.122 69.0582 117.536 68.7746 118.84C68.6487 119.412 68.8731 120.205 69.0641 120.751C69.3661 121.614 69.8881 121.797 70.6737 121.929C70.8874 121.965 70.373 122.431 70.3228 122.458C70.0762 122.592 69.8304 122.581 69.5845 122.799C68.327 123.918 68.7942 125.834 70.205 126.388C73.8001 127.803 77.3585 128.336 81.1776 127.748" fill="#AEEA00"/>
<path d="M83.5296 127.415C85.2737 127.167 86.7705 125.693 87.0512 123.957C87.3318 122.217 86.3708 120.35 84.795 119.567C85.782 118.853 85.6421 117.221 84.7999 116.34C83.9552 115.461 82.6774 115.169 81.4665 115.034C78.1058 114.665 74.6458 115.215 71.5765 116.631C70.5149 117.122 69.0582 117.536 68.7746 118.84C68.6487 119.412 68.8731 120.205 69.0641 120.751C69.3661 121.614 69.8881 121.797 70.6737 121.929C70.8874 121.965 70.373 122.431 70.3228 122.458C70.0762 122.592 69.8304 122.581 69.5845 122.799C68.327 123.918 68.7942 125.834 70.205 126.388C73.8001 127.803 77.3585 128.336 81.1776 127.748" fill="white" fill-opacity="0.32"/>
<path d="M69.9769 122.069C68.788 121.458 68.5878 119.924 68.5468 118.656C68.5372 118.316 69.0571 118.278 69.0724 118.639C69.1083 119.763 69.2716 121.116 70.2171 121.601C71.0427 122.026 71.2622 121.798 81.1293 120.269C81.4864 120.225 81.5453 120.737 81.2114 120.789C71.5758 122.287 71.0041 122.595 69.9769 122.069Z" fill="#242422"/>
<path d="M53.1635 85.8827C55.3503 83.7103 57.7198 81.7068 60.2063 79.9287C60.4864 79.7247 60.7958 80.1535 60.5122 80.3557C58.0483 82.118 55.7004 84.103 53.5331 86.2553C53.285 86.501 52.9165 86.126 53.1635 85.8827Z" fill="#242422"/>
<path d="M62.6374 87.6215C57.6598 82.1896 61.1296 72.7449 68.287 72.7383H68.2931C75.4206 72.7383 78.9451 82.1541 73.9653 87.6118C70.8496 91.023 65.7741 91.0449 62.6374 87.6215ZM68.2931 73.2639H68.287C61.6064 73.2706 58.3444 82.157 63.0254 87.2668C65.9423 90.4514 70.6604 90.4512 73.5773 87.2571C78.2389 82.1506 74.9781 73.2639 68.2931 73.2639Z" fill="#242422"/>
<path d="M88.4882 90.161C81.359 90.161 77.8403 80.7447 82.818 75.2876C87.8736 69.7526 96.4789 73.7375 96.4857 81.4336C96.4898 86.2413 92.9048 90.1569 88.4944 90.161H88.4882ZM83.2071 75.6423C78.546 80.7462 81.8015 89.6354 88.4882 89.6354H88.4944C95.18 89.6287 98.4373 80.7405 93.758 75.6325C90.841 72.4479 86.122 72.4481 83.2071 75.6423Z" fill="#242422"/>
<path d="M102.808 135.507C101.774 136.539 100.481 136.676 98.9924 136.771C82.4695 137.834 65.8758 137.795 49.3581 136.654C44.5975 136.325 50.4501 131.974 51.6721 131.016C53.6147 129.494 55.9171 128.469 58.2813 127.798C61.411 126.91 64.6754 126.612 67.914 126.316C73.6862 125.792 79.3924 126.571 85.1875 126.56C89.2611 126.552 93.4576 126.967 97.2542 128.534C99.2205 129.345 105.69 132.629 102.808 135.507Z" fill="#AEEA00"/>
<path d="M102.808 135.507C101.774 136.539 100.481 136.676 98.9924 136.771C82.4695 137.834 65.8758 137.795 49.3581 136.654C44.5975 136.325 50.4501 131.974 51.6721 131.016C53.6147 129.494 55.9171 128.469 58.2813 127.798C61.411 126.91 64.6754 126.612 67.914 126.316C73.6862 125.792 79.3924 126.571 85.1875 126.56C89.2611 126.552 93.4576 126.967 97.2542 128.534C99.2205 129.345 105.69 132.629 102.808 135.507Z" fill="white" fill-opacity="0.32"/>
<path d="M73.0466 97.1998C72.2043 95.7372 70.3004 95.2584 68.8661 96.1521C68.571 96.3353 68.2938 95.89 68.589 95.7055C70.2481 94.6707 72.4925 95.1849 73.5025 96.937C73.6744 97.2378 73.223 97.5012 73.0466 97.1998Z" fill="#242422"/>
<path d="M101.261 135.439C101.126 132.139 101.835 126.462 99.6777 123.755C98.9496 122.834 93.3964 119.295 93.9901 117.139C94.1493 116.563 94.6872 116.167 95.6297 115.937C93.9758 114.719 94.0795 113.556 94.3135 112.939C94.8679 111.478 97.1255 110.351 99.2578 110.326C97.7374 109.169 96.5342 107.32 96.8576 105.832C97.0218 105.076 97.6409 104.158 99.6059 103.899C99.0405 103.048 98.4707 102.078 98.6573 101.077C98.935 99.5433 100.946 98.7957 102.486 98.5119C102.847 98.4436 103.274 98.4493 103.822 98.5314C104.921 98.6382 106.024 98.7708 106.893 99.1376C111.821 101.155 116.569 103.997 116.809 109.345C117.149 116.75 117.501 124.408 119.085 132.286C119.154 132.624 118.638 132.735 118.57 132.39C116.979 124.472 116.626 116.794 116.284 109.369C116.054 104.254 111.383 101.542 106.691 99.6232C105.857 99.2708 104.942 99.1923 104.108 99.0945C103.604 99.0287 103.055 98.9401 102.581 99.0283C101.328 99.2603 99.4041 99.8994 99.1747 101.172C99.109 101.525 99.1624 101.91 99.339 102.353C99.4569 102.668 100.058 103.687 100.236 103.864C100.502 103.962 100.446 104.354 100.163 104.373C99.0289 104.446 97.6245 104.779 97.3709 105.944C97.0732 107.313 98.4868 109.414 100.396 110.439C100.654 110.578 100.527 110.979 100.225 110.93C97.0159 110.341 92.0737 113.198 96.4459 115.85C96.6556 115.978 96.5902 116.3 96.3473 116.335C95.2478 116.495 94.6256 116.812 94.4973 117.279C94.0248 118.997 99.3612 122.506 100.089 123.429C102.383 126.306 101.651 132.062 101.786 135.418C101.801 135.766 101.276 135.79 101.261 135.439Z" fill="#242422"/>
<path d="M108.811 107.999C106.697 105.622 103.426 104.248 100.231 104.416C99.9136 104.475 99.8304 103.911 100.204 103.891C103.583 103.716 106.952 105.118 109.203 107.65C109.438 107.914 109.036 108.256 108.811 107.999Z" fill="#242422"/>
<path d="M102.033 119.079C100.375 117.698 98.3747 116.765 96.2506 116.38C95.9141 116.318 95.9948 115.806 96.345 115.862C98.5575 116.264 100.641 117.237 102.369 118.675C102.635 118.897 102.302 119.301 102.033 119.079Z" fill="#242422"/>
<path d="M105.81 114.818C104.387 112.907 102.343 111.494 100.055 110.838C99.715 110.741 99.8714 110.232 100.198 110.333C102.598 111.02 104.74 112.501 106.231 114.504C106.44 114.783 106.017 115.097 105.81 114.818Z" fill="#242422"/>
<path d="M142.024 36.7288C144.395 37.3266 146.437 37.3681 147.295 40.1612C147.781 41.7451 147.611 43.4474 147.41 45.0921C146.855 49.631 146.097 54.1451 145.139 58.6164C144.392 62.103 144.107 66.4961 140.719 68.5226C138.819 69.6579 136.429 69.3917 134.236 69.0888C93.0089 63.3953 92.4815 63.5981 88.2203 61.9043C86.2099 61.1052 82.5784 59.7566 81.4755 57.7938C80.8032 56.5974 80.9328 55.1279 81.1166 53.7678C82.1083 46.4328 84.121 39.2365 87.0784 32.4513C88.5598 29.0525 89.7515 29.0006 93.6273 29.2324C109.312 30.1704 125.681 32.6079 142.024 36.7288Z" fill="#AEEA00"/>
<path d="M142.024 36.7288C144.395 37.3266 146.437 37.3681 147.295 40.1612C147.781 41.7451 147.611 43.4474 147.41 45.0921C146.855 49.631 146.097 54.1451 145.139 58.6164C144.392 62.103 144.107 66.4961 140.719 68.5226C138.819 69.6579 136.429 69.3917 134.236 69.0888C93.0089 63.3953 92.4815 63.5981 88.2203 61.9043C86.2099 61.1052 82.5784 59.7566 81.4755 57.7938C80.8032 56.5974 80.9328 55.1279 81.1166 53.7678C82.1083 46.4328 84.121 39.2365 87.0784 32.4513C88.5598 29.0525 89.7515 29.0006 93.6273 29.2324C109.312 30.1704 125.681 32.6079 142.024 36.7288Z" fill="white" fill-opacity="0.32"/>
<path d="M26.8342 91.0282C23.5366 88.613 21.434 84.3766 21.2092 79.6956C20.7732 70.6184 27.596 57.4387 37.4538 54.0203C36.3832 47.0327 41.2392 41.6348 46.9687 37.4139C56.3861 30.4779 70.5281 25.3508 81.9813 31.7637C82.2852 31.9342 82.0247 32.3928 81.7247 32.2226C70.4901 25.9293 56.5658 30.9973 47.2808 37.8368C41.7776 41.8907 36.9735 47.1129 37.9558 53.855C40.8647 52.9514 44.7302 52.6811 47.1237 54.6076C51.5033 58.1262 47.2233 64.0642 41.7544 60.8747C39.4219 59.5149 38.0605 57.1305 37.5462 54.5444C27.9791 57.9177 21.3096 70.8252 21.7349 79.67C21.9515 84.1944 23.974 88.282 27.1442 90.6042C27.427 90.8113 27.1109 91.2343 26.8342 91.0282ZM38.0441 54.3781C38.5194 56.8503 39.8048 59.1294 42.0193 60.4209C46.8559 63.244 50.7134 58.1673 46.7952 55.0172C44.5379 53.2036 40.7783 53.5149 38.0441 54.3781Z" fill="#242422"/>
<path d="M141.323 32.3709C140.734 30.3633 140.625 28.215 141.008 26.1581C141.073 25.8134 141.589 25.9147 141.525 26.2546C141.157 28.2304 141.262 30.2945 141.828 32.223C141.925 32.5597 141.422 32.7043 141.323 32.3709Z" fill="#242422"/>
<path d="M143.34 32.833C144.775 30.1745 146.5 27.6654 148.465 25.3755C148.688 25.1127 149.091 25.4524 148.863 25.7174C146.923 27.9791 145.219 30.4569 143.802 33.0825C143.64 33.3853 143.174 33.1403 143.34 32.833Z" fill="#242422"/>
<path d="M145.372 34.8736C145.031 34.8736 145.021 34.3578 145.365 34.348C146.797 34.3105 148.24 33.9722 149.538 33.3696C149.85 33.2211 150.077 33.6986 149.76 33.846C147.606 34.8459 145.898 34.805 145.372 34.8736Z" fill="#242422"/>
<path d="M74.6945 66.3696C74.4317 66.643 74.1583 66.8953 73.8535 67.1161L66.0845 69.9019C68.414 67.7568 71.5671 66.6678 74.6945 66.3696Z" fill="#242422"/>
<path d="M60.8598 71.7842L58.4734 72.6358C59.2408 72.2572 60.0398 71.9733 60.8598 71.7842Z" fill="#242422"/>
<path d="M75.1887 65.8128C71.7901 65.9907 68.1242 67.2369 65.5694 69.6604C65.448 69.7698 65.4635 69.9909 65.622 70.0704L62.3 71.2689C62.2894 71.1322 62.1738 71.0271 62.0161 71.0376C60.1553 71.2478 58.3892 71.9101 56.8649 72.9719C49.0361 71.9634 49.8172 64.4579 53.5217 65.2766C52.6071 63.7522 51.1984 62.1858 51.1038 60.3775C50.8793 55.6956 55.6048 53.5606 59.861 57.4759C59.02 56.225 58.8938 54.4589 59.6297 53.1237C61.7589 49.3004 67.9938 50.5921 68.3027 55.5102C71.1307 53.9648 75.0625 55.5628 76.3556 58.5168C77.4175 60.9209 76.7882 63.8039 75.1887 65.8128Z" fill="#242422"/>
<path d="M138.959 121.499C138.959 131.013 111.227 138.719 77.018 138.719C42.8197 138.719 15.0869 131.013 15.0869 121.499C15.0869 115.055 27.7969 109.441 46.6254 106.487C50.4626 105.877 54.5521 105.383 58.8518 105.025C62.5701 108.218 67.3942 109.257 72.2556 109.272C71.6774 115.58 71.7405 121.951 72.4449 128.248L83.9144 128.5C83.7672 122.014 83.3466 115.601 83.1995 109.115C85.9118 108.211 88.3402 106.707 90.2851 104.668C91.8657 104.756 97.2325 105.166 97.581 105.236C97.3918 105.435 97.2341 105.656 97.108 105.898C97.108 105.908 97.108 105.908 97.108 105.908C96.0046 107.876 98.064 109.44 99.957 110.492C100.062 110.555 100.167 110.618 100.272 110.671C98.9782 110.455 97.549 110.357 96.3405 110.87C95.1402 111.381 94.3284 112.599 94.4903 113.73C94.6375 114.718 95.4574 115.507 96.309 116.074C96.0882 116.106 95.8675 116.19 95.6888 116.274C94.9141 116.371 94.1741 117.469 94.3116 118.019C94.3326 118.419 94.5113 118.797 94.7215 119.155C96.6389 122.428 99.2955 121.919 100.514 124.6C100.84 125.389 100.966 126.345 101.071 127.67C101.313 130.855 101.514 135.258 101.544 136.133C106.829 135.018 111.519 133.611 118.912 132.926C118.68 131.255 118.438 129.583 118.207 127.922C117.618 123.812 117.461 119.933 116.872 115.822C116.504 113.204 116.798 110.681 116.304 108.179C130.139 111.333 138.959 116.137 138.959 121.499Z" fill="#242422"/>
<path d="M138.959 121.499C138.959 131.013 111.227 138.719 77.018 138.719C42.8197 138.719 15.0869 131.013 15.0869 121.499C15.0869 115.055 27.7969 109.441 46.6254 106.487C50.4626 105.877 54.5521 105.383 58.8518 105.025C62.5701 108.218 67.3942 109.257 72.2556 109.272C71.6774 115.58 71.7405 121.951 72.4449 128.248L83.9144 128.5C83.7672 122.014 83.3466 115.601 83.1995 109.115C85.9118 108.211 88.3402 106.707 90.2851 104.668C91.8657 104.756 97.2325 105.166 97.581 105.236C97.3918 105.435 97.2341 105.656 97.108 105.898C97.108 105.908 97.108 105.908 97.108 105.908C96.0046 107.876 98.064 109.44 99.957 110.492C100.062 110.555 100.167 110.618 100.272 110.671C98.9782 110.455 97.549 110.357 96.3405 110.87C95.1402 111.381 94.3284 112.599 94.4903 113.73C94.6375 114.718 95.4574 115.507 96.309 116.074C96.0882 116.106 95.8675 116.19 95.6888 116.274C94.9141 116.371 94.1741 117.469 94.3116 118.019C94.3326 118.419 94.5113 118.797 94.7215 119.155C96.6389 122.428 99.2955 121.919 100.514 124.6C100.84 125.389 100.966 126.345 101.071 127.67C101.313 130.855 101.514 135.258 101.544 136.133C106.829 135.018 111.519 133.611 118.912 132.926C118.68 131.255 118.438 129.583 118.207 127.922C117.618 123.812 117.461 119.933 116.872 115.822C116.504 113.204 116.798 110.681 116.304 108.179C130.139 111.333 138.959 116.137 138.959 121.499Z" fill="white" fill-opacity="0.64"/>
<path d="M100.64 83.8315C100.556 83.821 100.472 83.821 100.388 83.821C98.2223 83.842 95.9515 84.8091 95.1315 86.7751L95.0789 87.3743C95.0789 87.1837 94.6801 83.4156 93.7859 81.0352L99.7572 81.3294C99.9302 81.8295 100.072 82.2475 100.64 83.8315Z" fill="#242422"/>
<path d="M48.3706 83.6528C48.6439 82.0548 48.9593 80.4569 49.2957 78.8589L55.9608 79.1848C55.7611 79.4687 55.5719 79.7735 55.3721 80.0783C54.2052 81.8971 53.6165 85.0719 53.4273 87.7527L53.217 86.4596C52.4075 84.662 50.389 83.7369 48.3706 83.6528Z" fill="#242422"/>
<path d="M101.502 134.283C101.155 134.63 100.339 134.773 99.8517 134.819C92.8502 135.513 85.8486 133.894 78.8471 133.19C73.3054 132.622 73.344 134.167 71.1833 134.63C70.153 134.84 69.1858 134.178 68.1556 134.083C66.7994 133.967 65.2855 134.23 63.9294 134.388C59.882 134.851 54.983 137.51 50.9671 136.964C47.0142 136.428 46.825 131.613 46.7935 128.417C46.7409 121.11 46.6779 113.793 46.6253 106.487C46.6148 105.32 46.6009 103.231 46.5938 102.145C49.5373 102.618 52.7227 101.672 54.8463 99.5801C54.9515 99.8113 55.046 100.053 55.1617 100.284C57.532 105.279 63.0041 109.243 72.2555 109.273C71.6773 115.581 71.7404 121.951 72.4447 128.249L83.9143 128.501C83.7671 122.015 83.3465 115.602 83.1994 109.115C88.6539 107.297 92.5616 103.187 94.1853 98.1084L94.0486 99.8113C95.4573 101.325 97.2235 102.208 99.1053 102.461C99.1999 102.744 99.3471 102.997 99.5153 103.249C99.5888 103.375 100.009 104.111 100.146 104.111C97.2022 104.304 97.2065 105.804 97.1078 105.909C96.7548 107.638 98.6879 109.879 100.272 110.671C96.7239 110.029 91.6678 113.265 96.3089 116.075C90.3151 116.935 98.9612 122.439 99.8832 123.591C101.895 126.048 101.502 131.099 101.502 134.283Z" fill="#242422"/>
<path d="M95.4839 83.5341L94.832 77.6401C94.7925 77.2935 95.3166 77.2384 95.3535 77.5826L96.0054 83.4766C96.0446 83.8209 95.5213 83.8843 95.4839 83.5341Z" fill="#242422"/>
<path d="M100.041 82.1499C98.8039 77.1362 96.9503 71.8655 93.1446 68.3781C88.8239 64.4253 82.9893 63.5631 77.2072 63.868C74.654 64.0443 72.1926 64.2937 69.7221 65.3399C67.7141 66.1808 65.8744 67.537 64.7495 69.3347C64.4762 69.7657 63.8454 69.8708 63.4249 69.5659C59.9984 67.0656 54.7216 67.8488 52.3234 71.0484C51.7347 71.7421 51.2616 72.5306 50.8516 73.3401C49.1822 76.5909 48.3731 79.9233 47.8975 83.6532C48.0552 83.6322 48.2128 83.6427 48.3706 83.6532C50.389 83.7373 52.4074 84.6624 53.2169 86.4601L53.4272 87.7531C53.6164 85.0723 54.2052 81.8976 55.3721 80.0787C57.543 76.7662 59.6383 74.2659 63.5195 72.6988C68.9897 70.4699 78.0604 70.9903 83.8513 72.2152C88.4846 73.1998 92.2986 76.9458 93.7859 81.0356C94.6679 83.3833 95.079 87.2646 95.079 87.3747L95.1316 86.7755C95.9516 84.8095 98.2223 83.8424 100.388 83.8214C100.304 83.2747 100.188 82.7175 100.041 82.1499ZM62.0687 71.5635C61.9825 71.5758 60.9214 71.7226 60.8598 71.7842C60.0398 71.9734 59.2408 72.2573 58.4734 72.6358C58.4628 72.6358 58.4628 72.6463 58.4523 72.6463C56.1619 73.7806 55.5531 74.9275 55.2459 74.9275C55.0052 74.9275 54.8897 74.6529 55.0567 74.4861C56.7105 72.7368 59.2033 71.3556 62.0162 71.0379C62.3679 71.0144 62.4045 71.5118 62.0687 71.5635ZM83.1259 66.8747C77.2067 65.8926 70.7884 65.7127 66.2318 69.7762C65.9329 70.0157 65.9254 70.1126 65.7482 70.1126C65.7167 70.1126 65.6957 70.1126 65.6642 70.0915C65.6536 70.0915 65.6326 70.0812 65.6221 70.0706C65.4554 69.987 65.455 69.7625 65.5695 69.6606C70.2083 65.2602 76.9082 65.2895 83.2101 66.3596C83.5471 66.4078 83.4817 66.9256 83.1259 66.8747Z" fill="#242422"/>
<path d="M48.1084 102.519C41.7528 102.519 37.868 96.4835 38.7824 91.2988C39.5062 87.2132 43.1651 83.8233 47.2943 83.4136C49.5334 83.1898 52.4193 84.0173 53.4531 86.3488C53.5938 86.6684 53.112 86.879 52.9727 86.5623C52.0435 84.468 49.402 83.7309 47.3456 83.9367C43.4434 84.3237 39.9836 87.5284 39.2998 91.3901C38.6181 95.2529 40.7669 99.4482 44.2975 101.149C47.8282 102.852 52.4491 101.92 55.0455 98.9801C55.2805 98.7203 55.6671 99.069 55.4397 99.3281C53.6174 101.391 50.8537 102.519 48.1084 102.519Z" fill="#242422"/>
<path d="M99.071 102.721C97.0721 102.453 95.2693 101.508 93.8567 99.9902C93.6189 99.7365 94.0039 99.3778 94.2407 99.6319C95.5702 101.06 97.2641 101.948 99.1408 102.2C99.4947 102.247 99.4044 102.776 99.071 102.721Z" fill="#242422"/>
<path d="M106.89 99.3309C108.853 97.1467 109.727 94.0878 109.171 91.3482C108.387 87.5147 104.846 84.4004 100.936 84.1047C98.8788 83.9605 96.2516 84.771 95.3738 86.8767C95.2426 87.195 94.7537 86.9962 94.8893 86.6744C95.8646 84.3311 98.7279 83.4236 100.973 83.5801C105.112 83.8938 108.856 87.1877 109.686 91.243C110.275 94.1432 109.353 97.3767 107.28 99.682C107.05 99.9412 106.656 99.5896 106.89 99.3309Z" fill="#242422"/>
<path d="M55.1038 99.9352C51.1759 91.5264 52.5043 78.8376 60.161 74.4421C60.4612 74.2684 60.7242 74.7246 60.4218 74.8979C53.0053 79.1559 51.7487 91.511 55.5802 99.7124C58.4968 105.959 65.2429 109.812 71.9993 109.09C72.3384 109.046 72.4067 109.575 72.0547 109.613C65.1162 110.361 58.1263 106.407 55.1038 99.9352Z" fill="#242422"/>
<path d="M81.8807 109.119C90.655 107.544 97.3671 98.1633 94.8328 85.793C94.764 85.4526 95.2765 85.3463 95.3482 85.6873C97.942 98.3621 91.0296 108.011 81.9731 109.636C81.6286 109.694 81.54 109.18 81.8807 109.119Z" fill="#242422"/>
<path d="M72.0415 123.647C71.9356 118.334 71.8686 114.129 71.7725 109.279C71.7694 109.134 71.8855 109.014 72.0302 109.011H72.0353C72.178 109.011 72.2951 109.126 72.2982 109.269C72.3926 114.036 72.4516 117.842 72.5671 123.636C72.5745 123.984 72.049 123.998 72.0415 123.647Z" fill="#242422"/>
<path d="M83.5849 122.55C83.5932 119.853 82.778 111.812 82.7862 109.088C82.7862 108.944 82.9043 108.827 83.049 108.827C83.1938 108.827 83.3118 108.945 83.3118 109.091C83.3036 111.788 84.1187 119.829 84.1106 122.552C84.1106 122.9 83.5849 122.903 83.5849 122.55Z" fill="#242422"/>
<path d="M48.9872 92.507C47.435 90.9075 44.776 90.4819 42.7997 91.5209C42.4922 91.6832 42.2472 91.2173 42.5553 91.0558C44.7287 89.9127 47.6557 90.3793 49.365 92.1415C49.6075 92.3926 49.2274 92.7568 48.9872 92.507Z" fill="#242422"/>
<path d="M45.7542 94.8323C45.4462 93.6281 45.6802 92.3001 46.3794 91.2802C46.5773 90.9932 47.0086 91.2913 46.8126 91.5779C46.1977 92.4747 45.9923 93.6425 46.2634 94.702C46.3491 95.0375 45.8419 95.17 45.7542 94.8323Z" fill="#242422"/>
<path d="M99.1274 92.3632C100.788 90.5589 103.702 90.0158 105.907 91.102C106.221 91.2561 105.986 91.7284 105.675 91.5732C103.67 90.5856 101.024 91.0804 99.5134 92.7195C99.2785 92.9755 98.8917 92.6185 99.1274 92.3632Z" fill="#242422"/>
<path d="M102.293 94.8424C102.537 93.7803 102.302 92.6182 101.664 91.7332C101.463 91.4521 101.885 91.1429 102.091 91.4262C102.815 92.4318 103.083 93.7526 102.807 94.9594C102.726 95.3 102.217 95.1798 102.293 94.8424Z" fill="#242422"/>
<path d="M80.6579 78.9009C78.9578 77.6151 76.4389 77.8214 76.0298 78.7264C75.8866 79.045 75.4088 78.8268 75.5514 78.5108C76.1854 77.1043 79.2264 77.1598 80.9742 78.4821C81.2517 78.6908 80.9347 79.1115 80.6579 78.9009Z" fill="#242422"/>
<path d="M74.9078 91.2989C76.0864 90.9049 77.0337 90.8622 78.0411 90.1926C79.4956 89.2316 79.0106 87.9385 78.7741 86.2257C78.1788 81.8176 77.6815 78.9945 77.0761 74.5153C77.0565 74.3711 77.1582 74.2386 77.3019 74.2196C77.4456 74.196 77.5771 74.3012 77.5976 74.4445C77.799 75.9372 79.3952 86.8057 79.4045 86.8622C79.6386 88.2805 79.8603 89.6203 78.3316 90.6305C77.234 91.3603 76.2487 91.4052 75.0741 91.7978C74.7419 91.9086 74.5801 91.4089 74.9078 91.2989Z" fill="#242422"/>
<path d="M71.5073 80.5561C71.5082 81.5685 70.275 82.3907 68.7564 82.392C67.2353 82.3933 66.0007 81.5734 65.9998 80.561C65.9989 79.5486 67.232 78.7264 68.7532 78.7251C70.2718 78.7238 71.5064 79.5438 71.5073 80.5561Z" fill="#242422"/>
<path d="M90.6069 80.5477C90.6078 81.5554 89.3746 82.3738 87.856 82.3752C86.3349 82.3765 85.1003 81.5603 85.0994 80.5526C85.0985 79.5448 86.3316 78.7264 87.8528 78.7251C89.3714 78.7238 90.606 79.54 90.6069 80.5477Z" fill="#242422"/>
<path d="M83.5296 127.415C85.2737 127.167 86.7705 125.693 87.0512 123.957C87.3318 122.217 86.3708 120.35 84.795 119.567C85.782 118.853 85.6421 117.221 84.7999 116.34C83.9552 115.461 82.6774 115.169 81.4665 115.034C78.1058 114.665 74.6458 115.215 71.5765 116.631C70.5149 117.122 69.0582 117.536 68.7746 118.84C68.6487 119.412 68.8731 120.205 69.0641 120.751C69.3661 121.614 69.8881 121.797 70.6737 121.929C70.8874 121.965 70.373 122.431 70.3228 122.458C70.0762 122.592 69.8304 122.581 69.5845 122.799C68.327 123.918 68.7942 125.834 70.205 126.388C73.8001 127.803 77.3585 128.336 81.1776 127.748" fill="#AEEA00"/>
<path d="M83.5296 127.415C85.2737 127.167 86.7705 125.693 87.0512 123.957C87.3318 122.217 86.3708 120.35 84.795 119.567C85.782 118.853 85.6421 117.221 84.7999 116.34C83.9552 115.461 82.6774 115.169 81.4665 115.034C78.1058 114.665 74.6458 115.215 71.5765 116.631C70.5149 117.122 69.0582 117.536 68.7746 118.84C68.6487 119.412 68.8731 120.205 69.0641 120.751C69.3661 121.614 69.8881 121.797 70.6737 121.929C70.8874 121.965 70.373 122.431 70.3228 122.458C70.0762 122.592 69.8304 122.581 69.5845 122.799C68.327 123.918 68.7942 125.834 70.205 126.388C73.8001 127.803 77.3585 128.336 81.1776 127.748" fill="white" fill-opacity="0.32"/>
<path d="M69.9769 122.069C68.788 121.458 68.5878 119.924 68.5468 118.656C68.5372 118.316 69.0571 118.278 69.0724 118.639C69.1083 119.763 69.2716 121.116 70.2171 121.601C71.0427 122.026 71.2622 121.798 81.1293 120.269C81.4864 120.225 81.5453 120.737 81.2114 120.789C71.5758 122.287 71.0041 122.595 69.9769 122.069Z" fill="#242422"/>
<path d="M53.1635 85.8827C55.3503 83.7103 57.7198 81.7068 60.2063 79.9287C60.4864 79.7247 60.7958 80.1535 60.5122 80.3557C58.0483 82.118 55.7004 84.103 53.5331 86.2553C53.285 86.501 52.9165 86.126 53.1635 85.8827Z" fill="#242422"/>
<path d="M93.0815 74.3595C92.8922 74.9061 92.3456 75.2426 91.8304 75.4949C84.683 78.9763 76.7471 76.954 69.7325 73.2241C68.6551 72.6596 65.7825 71.2995 65.6641 70.0912C65.8967 70.2466 66.1013 69.7299 67.4512 68.8297C68.4184 68.7037 69.5853 68.7667 70.2791 68.7246C77.1797 68.3129 84.3075 69.3289 90.9894 71.8365C91.5571 72.0467 92.1353 72.2885 92.5769 72.709C93.0184 73.1295 93.2812 73.7812 93.0815 74.3595Z" fill="#242422"/>
<path d="M68.1031 71.8052C65.1702 75.6962 62.2504 78.7162 57.3485 79.8263C55.9267 80.153 54.3635 80.2532 53.0803 79.5635C55.1514 76.231 58.137 73.4661 61.6167 71.6264C61.7639 71.6054 61.9216 71.5844 62.0688 71.5634C62.2054 71.5423 62.3106 71.4266 62.3001 71.29C63.5397 70.6703 64.4501 70.3584 65.5381 69.997C65.5485 70.0075 65.5485 70.018 65.559 70.0284C65.5801 70.0495 65.6011 70.06 65.6221 70.0705C65.6326 70.081 65.6537 70.0914 65.6642 70.0914C65.6957 70.1125 65.7168 70.1125 65.7483 70.1125C65.9255 70.1125 65.9347 70.0142 66.2319 69.7761C67.3462 69.4503 68.9442 69.0823 69.4383 69.6184C69.915 70.1338 68.4282 71.3717 68.1031 71.8052Z" fill="#242422"/>
<path d="M62.6374 87.6215C57.6598 82.1896 61.1296 72.7449 68.287 72.7383H68.2931C75.4206 72.7383 78.9451 82.1541 73.9653 87.6118C70.8496 91.023 65.7741 91.0449 62.6374 87.6215ZM68.2931 73.2639H68.287C61.6064 73.2706 58.3444 82.157 63.0254 87.2668C65.9423 90.4514 70.6604 90.4512 73.5773 87.2571C78.2389 82.1506 74.9781 73.2639 68.2931 73.2639Z" fill="#242422"/>
<path d="M88.4882 90.161C81.359 90.161 77.8403 80.7447 82.818 75.2876C87.8736 69.7526 96.4789 73.7375 96.4857 81.4336C96.4898 86.2413 92.9048 90.1569 88.4944 90.161H88.4882ZM83.2071 75.6423C78.546 80.7462 81.8015 89.6354 88.4882 89.6354H88.4944C95.18 89.6287 98.4373 80.7405 93.758 75.6325C90.841 72.4479 86.122 72.4481 83.2071 75.6423Z" fill="#242422"/>
<path d="M102.808 135.507C101.774 136.539 100.481 136.676 98.9924 136.771C82.4695 137.834 65.8758 137.795 49.3581 136.654C44.5975 136.325 50.4501 131.974 51.6721 131.016C53.6147 129.494 55.9171 128.469 58.2813 127.798C61.411 126.91 64.6754 126.612 67.914 126.316C73.6862 125.792 79.3924 126.571 85.1875 126.56C89.2611 126.552 93.4576 126.967 97.2542 128.534C99.2205 129.345 105.69 132.629 102.808 135.507Z" fill="#AEEA00"/>
<path d="M102.808 135.507C101.774 136.539 100.481 136.676 98.9924 136.771C82.4695 137.834 65.8758 137.795 49.3581 136.654C44.5975 136.325 50.4501 131.974 51.6721 131.016C53.6147 129.494 55.9171 128.469 58.2813 127.798C61.411 126.91 64.6754 126.612 67.914 126.316C73.6862 125.792 79.3924 126.571 85.1875 126.56C89.2611 126.552 93.4576 126.967 97.2542 128.534C99.2205 129.345 105.69 132.629 102.808 135.507Z" fill="white" fill-opacity="0.32"/>
<path d="M73.0466 97.1998C72.2043 95.7372 70.3004 95.2584 68.8661 96.1521C68.571 96.3353 68.2938 95.89 68.589 95.7055C70.2481 94.6707 72.4925 95.1849 73.5025 96.937C73.6744 97.2378 73.223 97.5012 73.0466 97.1998Z" fill="#242422"/>
<path d="M121.498 40.1721C121.14 43.9147 120.783 47.6679 120.12 51.3683C118.533 60.2867 113.774 74.0375 110.07 100.905C108.994 100.31 107.934 99.8485 106.79 99.3804C105.943 99.0223 104.879 98.9012 103.784 98.7916C103.584 94.3657 105.539 88.8675 106.212 84.6835C108.062 73.2034 109.723 61.6918 111.216 50.1488C114.003 28.5871 113.372 28.2318 114.938 26.7472C116.536 25.2018 119.153 25.8643 121.235 26.6107C121.666 26.7682 122.128 26.947 122.391 27.3255C122.833 27.9568 122.708 27.7612 121.498 40.1721Z" fill="#242422"/>
<path d="M101.261 135.436C101.157 131.882 101.779 126.388 99.6777 123.755C98.9496 122.834 93.3964 119.295 93.9901 117.139C94.1493 116.563 94.6872 116.167 95.6297 115.937C93.9758 114.719 94.0795 113.556 94.3135 112.939C94.8679 111.478 97.1255 110.351 99.2578 110.326C97.7374 109.169 96.5342 107.32 96.8576 105.832C97.0218 105.076 97.6409 104.158 99.6059 103.899C99.0405 103.048 98.4707 102.078 98.6573 101.077C98.935 99.5433 100.946 98.7956 102.486 98.5118C103.01 98.4054 103.672 98.5083 104.175 98.5734C105.082 98.6799 105.998 98.76 106.893 99.1376C111.821 101.155 116.569 103.996 116.809 109.345C117.149 116.75 117.501 124.408 119.085 132.286C119.154 132.624 118.638 132.735 118.57 132.389C116.979 124.472 116.626 116.794 116.284 109.369C116.054 104.254 111.383 101.542 106.691 99.6232C105.849 99.2671 104.812 99.1624 103.758 99.0523C103.43 99.0066 102.939 98.9581 102.59 99.0267C101.326 99.2604 99.4041 99.899 99.1747 101.172C99.109 101.524 99.1624 101.91 99.339 102.352C99.4569 102.668 100.058 103.687 100.236 103.864C100.502 103.962 100.446 104.354 100.163 104.373C99.0289 104.446 97.6245 104.778 97.3709 105.944C97.0732 107.313 98.4868 109.414 100.396 110.439C100.654 110.578 100.527 110.979 100.225 110.93C97.0159 110.341 92.0737 113.198 96.4459 115.85C96.6556 115.977 96.5902 116.3 96.3473 116.335C95.2478 116.494 94.6256 116.812 94.4973 117.279C94.0248 118.997 99.3612 122.506 100.089 123.428C102.329 126.233 101.676 131.7 101.785 135.385L101.524 135.428L101.261 135.436Z" fill="#242422"/>
<path d="M108.811 107.999C106.697 105.622 103.426 104.248 100.231 104.416C99.9136 104.475 99.8304 103.911 100.204 103.891C103.583 103.716 106.952 105.118 109.203 107.65C109.438 107.914 109.036 108.256 108.811 107.999Z" fill="#242422"/>
<path d="M102.033 119.079C100.375 117.698 98.3747 116.765 96.2506 116.38C95.9141 116.318 95.9948 115.806 96.345 115.862C98.5575 116.264 100.641 117.237 102.369 118.675C102.635 118.897 102.302 119.301 102.033 119.079Z" fill="#242422"/>
<path d="M105.81 114.818C104.387 112.907 102.343 111.494 100.055 110.838C99.715 110.741 99.8714 110.232 100.198 110.333C102.598 111.02 104.74 112.501 106.231 114.504C106.44 114.783 106.017 115.097 105.81 114.818Z" fill="#242422"/>
<path d="M142.024 36.7288C144.395 37.3266 146.437 37.3681 147.295 40.1612C147.781 41.7451 147.611 43.4474 147.41 45.0921C146.855 49.631 146.097 54.1451 145.139 58.6164C144.392 62.103 144.107 66.4961 140.719 68.5226C138.819 69.6579 136.429 69.3917 134.236 69.0888C93.0089 63.3953 92.4815 63.5981 88.2203 61.9043C86.2099 61.1052 82.5784 59.7566 81.4755 57.7938C80.8032 56.5974 80.9328 55.1279 81.1166 53.7678C82.1083 46.4328 84.121 39.2365 87.0784 32.4513C88.5598 29.0525 89.7515 29.0006 93.6273 29.2324C109.312 30.1704 125.681 32.6079 142.024 36.7288Z" fill="#AEEA00"/>
<path d="M142.024 36.7288C144.395 37.3266 146.437 37.3681 147.295 40.1612C147.781 41.7451 147.611 43.4474 147.41 45.0921C146.855 49.631 146.097 54.1451 145.139 58.6164C144.392 62.103 144.107 66.4961 140.719 68.5226C138.819 69.6579 136.429 69.3917 134.236 69.0888C93.0089 63.3953 92.4815 63.5981 88.2203 61.9043C86.2099 61.1052 82.5784 59.7566 81.4755 57.7938C80.8032 56.5974 80.9328 55.1279 81.1166 53.7678C82.1083 46.4328 84.121 39.2365 87.0784 32.4513C88.5598 29.0525 89.7515 29.0006 93.6273 29.2324C109.312 30.1704 125.681 32.6079 142.024 36.7288Z" fill="white" fill-opacity="0.32"/>
<path d="M26.8342 91.0282C23.5366 88.613 21.434 84.3766 21.2092 79.6956C20.7732 70.6184 27.596 57.4387 37.4538 54.0203C36.3832 47.0327 41.2392 41.6348 46.9687 37.4139C56.3861 30.4779 70.5281 25.3508 81.9813 31.7637C82.2852 31.9342 82.0247 32.3928 81.7247 32.2226C70.4901 25.9293 56.5658 30.9973 47.2808 37.8368C41.7776 41.8907 36.9735 47.1129 37.9558 53.855C40.8647 52.9514 44.7302 52.6811 47.1237 54.6076C51.5033 58.1262 47.2233 64.0642 41.7544 60.8747C39.4219 59.5149 38.0605 57.1305 37.5462 54.5444C27.9791 57.9177 21.3096 70.8252 21.7349 79.67C21.9515 84.1944 23.974 88.282 27.1442 90.6042C27.427 90.8113 27.1109 91.2343 26.8342 91.0282ZM38.0441 54.3781C38.5194 56.8503 39.8048 59.1294 42.0193 60.4209C46.8559 63.244 50.7134 58.1673 46.7952 55.0172C44.5379 53.2036 40.7783 53.5149 38.0441 54.3781Z" fill="#242422"/>
<path d="M141.323 32.3709C140.734 30.3633 140.625 28.215 141.008 26.1581C141.073 25.8134 141.589 25.9147 141.525 26.2546C141.157 28.2304 141.262 30.2945 141.828 32.223C141.925 32.5597 141.422 32.7043 141.323 32.3709Z" fill="#242422"/>
<path d="M143.34 32.833C144.775 30.1745 146.5 27.6654 148.465 25.3755C148.688 25.1127 149.091 25.4524 148.863 25.7174C146.923 27.9791 145.219 30.4569 143.802 33.0825C143.64 33.3853 143.174 33.1403 143.34 32.833Z" fill="#242422"/>
<path d="M145.372 34.8736C145.031 34.8736 145.021 34.3578 145.365 34.348C146.797 34.3105 148.24 33.9722 149.538 33.3696C149.85 33.2211 150.077 33.6986 149.76 33.846C147.606 34.8459 145.898 34.805 145.372 34.8736Z" fill="#242422"/>
<path d="M138.593 50.8267C138.559 50.8677 138.526 50.8964 138.492 50.9128C138.458 50.9257 138.417 50.9288 138.369 50.922C138.314 50.9143 138.254 50.8867 138.191 50.8391C138.13 50.792 138.055 50.7392 137.965 50.6809C137.878 50.623 137.773 50.5662 137.651 50.5104C137.528 50.4546 137.379 50.4145 137.203 50.3899C137.058 50.3697 136.923 50.3701 136.797 50.3912C136.675 50.4093 136.567 50.4454 136.475 50.4994C136.384 50.55 136.31 50.617 136.252 50.7004C136.195 50.7804 136.16 50.8705 136.146 50.9705C136.128 51.1017 136.15 51.2157 136.214 51.3125C136.282 51.4099 136.373 51.4983 136.489 51.5777C136.608 51.6577 136.743 51.7346 136.894 51.8085C137.05 51.8795 137.206 51.9541 137.364 52.0324C137.526 52.1112 137.681 52.198 137.829 52.2926C137.982 52.3842 138.113 52.4922 138.222 52.6165C138.335 52.7379 138.42 52.878 138.475 53.037C138.533 53.1965 138.548 53.3832 138.518 53.5971C138.484 53.8421 138.407 54.0636 138.288 54.2616C138.173 54.4566 138.018 54.618 137.825 54.7457C137.634 54.8739 137.407 54.9636 137.143 55.0147C136.879 55.0658 136.585 55.0687 136.261 55.0234C135.898 54.9729 135.572 54.8657 135.282 54.7021C134.992 54.5384 134.756 54.349 134.575 54.1338L134.867 53.7788C134.902 53.7343 134.941 53.7029 134.986 53.6846C135.031 53.6627 135.088 53.6566 135.157 53.6663C135.223 53.6754 135.287 53.709 135.349 53.7669C135.411 53.8249 135.487 53.8899 135.575 53.9621C135.664 54.0307 135.774 54.0989 135.906 54.1665C136.037 54.2306 136.207 54.2771 136.414 54.306C136.586 54.3301 136.739 54.3303 136.873 54.3068C137.007 54.2797 137.12 54.2358 137.213 54.1749C137.31 54.111 137.386 54.0336 137.441 53.9428C137.496 53.8519 137.53 53.753 137.545 53.6461C137.565 53.508 137.541 53.3886 137.474 53.2878C137.411 53.1841 137.32 53.0905 137.202 53.0071C137.087 52.9242 136.952 52.8473 136.796 52.7763C136.641 52.7054 136.482 52.6305 136.321 52.5517C136.16 52.4728 136.003 52.3859 135.851 52.2908C135.699 52.1957 135.567 52.084 135.454 51.9558C135.345 51.828 135.262 51.6792 135.205 51.5094C135.151 51.3401 135.14 51.1415 135.172 50.9138C135.201 50.7102 135.269 50.521 135.378 50.3462C135.49 50.1719 135.636 50.0251 135.814 49.9058C135.996 49.787 136.21 49.7025 136.457 49.6524C136.707 49.5994 136.984 49.5941 137.287 49.6365C137.636 49.6851 137.942 49.7842 138.206 49.9336C138.474 50.0836 138.694 50.2691 138.867 50.4903L138.593 50.8267Z" fill="black" fill-opacity="0.87"/>
<path d="M130.252 52.7808C130.387 53.0213 130.544 53.1979 130.722 53.3107C130.903 53.4239 131.113 53.4972 131.351 53.5304C131.813 53.595 132.193 53.4792 132.491 53.1831C132.794 52.884 132.989 52.4153 133.078 51.7769C133.125 51.4422 133.135 51.1534 133.11 50.9106C133.088 50.6648 133.032 50.46 132.942 50.2962C132.856 50.1294 132.739 50.0004 132.59 49.9093C132.441 49.8146 132.267 49.7534 132.067 49.7254C131.773 49.6845 131.509 49.7144 131.273 49.8152C131.041 49.9164 130.816 50.0751 130.6 50.2911L130.252 52.7808ZM130.644 49.5954C130.773 49.4797 130.907 49.3771 131.046 49.2874C131.189 49.1948 131.338 49.1207 131.494 49.065C131.65 49.0059 131.812 48.9669 131.98 48.9481C132.152 48.9264 132.331 48.9285 132.517 48.9546C132.817 48.9965 133.08 49.0929 133.305 49.244C133.534 49.3955 133.719 49.5972 133.859 49.849C134 50.1009 134.094 50.4006 134.14 50.7484C134.19 51.0966 134.185 51.4881 134.124 51.9229C134.069 52.3128 133.965 52.6677 133.812 52.9874C133.662 53.3043 133.472 53.5714 133.241 53.789C133.013 54.007 132.748 54.167 132.445 54.269C132.147 54.368 131.821 54.3929 131.469 54.3438C131.155 54.3 130.893 54.2106 130.684 54.0758C130.474 53.941 130.294 53.7681 130.144 53.5572L129.825 55.8398L128.816 55.6989L129.796 48.675L130.402 48.7595C130.543 48.7793 130.622 48.8589 130.638 48.9983L130.644 49.5954Z" fill="black" fill-opacity="0.87"/>
<path d="M128.388 48.4789L127.654 53.7378L127.048 53.6532C126.91 53.6339 126.83 53.5541 126.807 53.4138L126.808 52.8757C126.678 52.9806 126.543 53.0744 126.405 53.1571C126.267 53.2398 126.122 53.3076 125.97 53.3603C125.819 53.4095 125.662 53.4421 125.497 53.4579C125.333 53.4771 125.159 53.474 124.976 53.4485C124.687 53.408 124.438 53.324 124.231 53.1966C124.027 53.0696 123.863 52.9095 123.738 52.7163C123.614 52.5196 123.532 52.2934 123.49 52.0378C123.448 51.7822 123.448 51.506 123.49 51.2093L123.957 47.8604L124.972 48.002L124.504 51.3509C124.452 51.727 124.497 52.0324 124.64 52.267C124.784 52.4981 125.033 52.6385 125.389 52.6881C125.647 52.7242 125.897 52.6975 126.139 52.6081C126.38 52.5152 126.614 52.3755 126.841 52.189L127.378 48.338L128.388 48.4789Z" fill="black" fill-opacity="0.87"/>
<path d="M120.373 47.2757C120.759 47.3296 121.099 47.4421 121.392 47.6132C121.688 47.7812 121.929 47.9995 122.113 48.2679C122.301 48.5334 122.43 48.8417 122.501 49.1928C122.572 49.5404 122.579 49.9213 122.521 50.3354C122.463 50.7495 122.352 51.1157 122.188 51.434C122.024 51.7524 121.815 52.0134 121.562 52.2173C121.311 52.4216 121.02 52.5656 120.689 52.6495C120.361 52.7303 120.003 52.7438 119.617 52.6898C119.227 52.6354 118.884 52.5242 118.587 52.3561C118.294 52.1851 118.054 51.9668 117.866 51.7013C117.678 51.4359 117.547 51.1273 117.473 50.7758C117.402 50.4247 117.396 50.0421 117.453 49.628C117.511 49.2139 117.622 48.8494 117.785 48.5345C117.953 48.2167 118.164 47.9558 118.417 47.752C118.671 47.5447 118.962 47.4007 119.29 47.3198C119.622 47.2359 119.983 47.2212 120.373 47.2757ZM119.727 51.9031C120.224 51.9725 120.618 51.8569 120.91 51.5564C121.201 51.2558 121.39 50.8019 121.474 50.1946C121.559 49.5873 121.503 49.0991 121.304 48.7302C121.106 48.3579 120.759 48.137 120.262 48.0676C119.758 47.9973 119.359 48.1139 119.063 48.4174C118.771 48.7179 118.583 49.1718 118.498 49.7791C118.413 50.3864 118.47 50.8746 118.668 51.2435C118.87 51.6129 119.223 51.8328 119.727 51.9031Z" fill="black" fill-opacity="0.87"/>
<path d="M115.332 47.685C115.55 47.3635 115.791 47.121 116.057 46.9576C116.322 46.7941 116.622 46.7358 116.957 46.7825C117.071 46.7984 117.176 46.8271 117.272 46.8687C117.372 46.9073 117.457 46.9578 117.525 47.0202L117.352 47.7716C117.315 47.8614 117.251 47.9001 117.162 47.8876C117.113 47.8808 117.042 47.8621 116.948 47.8313C116.854 47.7971 116.752 47.7723 116.642 47.7569C116.479 47.7343 116.333 47.7384 116.202 47.7694C116.071 47.7969 115.95 47.8503 115.837 47.9295C115.727 48.0057 115.625 48.1058 115.531 48.2298C115.437 48.3503 115.345 48.4906 115.256 48.6505L114.796 51.9425L113.787 51.8016L114.521 46.5427L115.101 46.6236C115.211 46.639 115.282 46.6701 115.315 46.7168C115.351 46.7605 115.37 46.8336 115.374 46.9361L115.332 47.685Z" fill="black" fill-opacity="0.87"/>
<path d="M113.094 48.0165L112.69 50.9151C112.276 51.1318 111.848 51.2777 111.404 51.3531C110.962 51.425 110.49 51.426 109.99 51.3561C109.389 51.2723 108.859 51.1033 108.398 50.849C107.941 50.5952 107.565 50.2771 107.27 49.8947C106.975 49.5123 106.767 49.0752 106.646 48.5833C106.528 48.0919 106.508 47.5667 106.586 47.0077C106.665 46.4453 106.825 45.9434 107.066 45.5021C107.311 45.0579 107.622 44.6932 107.999 44.4082C108.377 44.1197 108.814 43.9168 109.309 43.7994C109.807 43.6791 110.35 43.6599 110.937 43.7417C111.233 43.7832 111.505 43.8439 111.75 43.9239C111.999 44.0044 112.227 44.1013 112.433 44.2144C112.638 44.3276 112.825 44.4556 112.991 44.5985C113.162 44.7383 113.316 44.8918 113.455 45.0589L113.069 45.5118C113.01 45.5844 112.939 45.6255 112.857 45.6351C112.775 45.6447 112.691 45.6137 112.606 45.5421C112.524 45.4778 112.432 45.4034 112.331 45.319C112.234 45.235 112.113 45.1531 111.97 45.0733C111.83 44.9939 111.662 44.9195 111.468 44.8502C111.274 44.7808 111.04 44.7271 110.767 44.6891C110.36 44.6322 109.983 44.6482 109.637 44.737C109.291 44.8224 108.985 44.9732 108.719 45.1894C108.453 45.4055 108.233 45.6809 108.06 46.0156C107.887 46.3468 107.77 46.7297 107.71 47.1645C107.646 47.62 107.654 48.0381 107.735 48.4187C107.816 48.7959 107.958 49.1271 108.161 49.4122C108.368 49.6944 108.633 49.9249 108.956 50.1037C109.283 50.283 109.659 50.4022 110.083 50.4615C110.249 50.4846 110.403 50.4974 110.547 50.4999C110.695 50.4995 110.837 50.4911 110.973 50.4749C111.109 50.4587 111.241 50.4332 111.369 50.3983C111.5 50.3638 111.631 50.324 111.76 50.2788L111.978 48.7208L110.88 48.5676C110.811 48.5579 110.757 48.5293 110.718 48.4816C110.683 48.4344 110.669 48.3798 110.678 48.3177L110.765 47.6914L113.094 48.0165Z" fill="black" fill-opacity="0.87"/>
<path d="M100.791 44.5413C101.177 44.5953 101.517 44.7077 101.81 44.8788C102.106 45.0468 102.347 45.2651 102.531 45.5335C102.719 45.799 102.848 46.1073 102.919 46.4584C102.99 46.806 102.997 47.1869 102.939 47.601C102.881 48.0151 102.77 48.3813 102.606 48.6996C102.442 49.018 102.233 49.2791 101.979 49.4829C101.729 49.6872 101.438 49.8313 101.106 49.9151C100.779 49.996 100.421 50.0094 100.035 49.9555C99.645 49.901 99.3017 49.7898 99.005 49.6217C98.7123 49.4507 98.4719 49.2324 98.2838 48.967C98.0957 48.7015 97.9646 48.393 97.8906 48.0414C97.82 47.6903 97.8136 47.3077 97.8714 46.8936C97.9292 46.4795 98.0399 46.115 98.2034 45.8001C98.3709 45.4823 98.5815 45.2214 98.8351 45.0176C99.0892 44.8104 99.3802 44.6663 99.7081 44.5854C100.04 44.5016 100.401 44.4869 100.791 44.5413ZM100.145 49.1687C100.642 49.2381 101.036 49.1225 101.328 48.822C101.619 48.5215 101.808 48.0675 101.892 47.4602C101.977 46.8529 101.92 46.3648 101.722 45.9958C101.524 45.6235 101.177 45.4026 100.68 45.3332C100.176 45.2629 99.7766 45.3795 99.481 45.683C99.1892 45.9835 99.001 46.4374 98.9162 47.0447C98.8314 47.6521 98.8882 48.1402 99.0865 48.5091C99.2882 48.8785 99.6409 49.0984 100.145 49.1687Z" fill="black" fill-opacity="0.87"/>
<path d="M97.3712 41.9327L96.3336 49.3656L95.7746 49.2875C95.6884 49.2755 95.6181 49.2499 95.5637 49.2106C95.5129 49.1718 95.4629 49.1139 95.4139 49.0367L91.974 43.021C91.9679 43.1151 91.9604 43.2073 91.9513 43.2975C91.9457 43.3881 91.9373 43.4732 91.9262 43.5525L91.2145 48.651L90.2466 48.5158L91.2842 41.083L91.8535 41.1625C91.9502 41.176 92.0209 41.1982 92.0659 41.2291C92.1113 41.2565 92.1578 41.314 92.2054 41.4016L95.6548 47.4239C95.6585 47.3224 95.6633 47.2246 95.6694 47.1304C95.6795 47.0333 95.6903 46.9434 95.7018 46.8605L96.4085 41.7983L97.3712 41.9327Z" fill="black" fill-opacity="0.87"/>
</svg>
