<svg width="157" height="156" viewBox="0 0 157 156" fill="none" xmlns="http://www.w3.org/2000/svg">
<path d="M71.0757 63.1328C70.8257 63.3928 70.5657 63.6328 70.2758 63.8429L62.8857 66.4928C65.1017 64.4524 68.1009 63.4165 71.0757 63.1328Z" fill="#242422"/>
<path d="M57.9155 68.2827L55.6455 69.0928C56.3755 68.7327 57.1355 68.4626 57.9155 68.2827Z" fill="#242422"/>
<path d="M71.5456 62.6027C68.3128 62.772 64.8257 63.9574 62.3956 66.2626C62.28 66.3667 62.2948 66.577 62.4455 66.6526L59.2856 67.7926C59.2756 67.6626 59.1656 67.5626 59.0156 67.5727C57.2455 67.7726 55.5655 68.4026 54.1156 69.4126C46.6687 68.4533 47.4118 61.3139 50.9355 62.0927C50.0655 60.6426 48.7256 59.1526 48.6356 57.4325C48.422 52.979 52.917 50.9482 56.9656 54.6725C56.1656 53.4826 56.0456 51.8026 56.7455 50.5326C58.7709 46.8958 64.7016 48.1245 64.9955 52.8026C67.6855 51.3327 71.4256 52.8527 72.6556 55.6626C73.6656 57.9494 73.0671 60.6918 71.5456 62.6027Z" fill="#242422"/>
<path d="M90.8507 79.46L90.2305 73.8535C90.193 73.5238 90.6915 73.4714 90.7266 73.7989L91.3467 79.4053C91.384 79.7328 90.8863 79.7932 90.8507 79.46Z" fill="#242422"/>
<path d="M45.7859 97.5188C39.7403 97.5188 36.0451 91.7773 36.9148 86.8455C37.6033 82.9593 41.0838 79.7347 45.0115 79.345C47.1414 79.1321 49.8865 79.9192 50.8699 82.137C51.0037 82.441 50.5455 82.6413 50.4129 82.3401C49.5291 80.3479 47.0164 79.6468 45.0604 79.8426C41.3484 80.2107 38.0574 83.2591 37.407 86.9324C36.7586 90.6067 38.8025 94.5975 42.1609 96.2151C45.5193 97.8352 49.9148 96.949 52.3846 94.1521C52.6082 93.905 52.9759 94.2367 52.7596 94.4832C51.0262 96.4451 48.3973 97.5188 45.7859 97.5188Z" fill="#242422"/>
<path d="M94.2625 97.7102C92.3611 97.4553 90.6463 96.5569 89.3025 95.113C89.0763 94.8717 89.4426 94.5305 89.6677 94.7722C90.9324 96.1306 92.5437 96.9753 94.3289 97.2151C94.6655 97.2596 94.5796 97.7631 94.2625 97.7102Z" fill="#242422"/>
<path d="M101.7 94.4855C103.567 92.4079 104.399 89.4982 103.87 86.8923C103.124 83.2458 99.7558 80.2834 96.037 80.0021C94.08 79.8649 91.581 80.6359 90.746 82.6389C90.6212 82.9417 90.1561 82.7525 90.2851 82.4465C91.2128 80.2175 93.9364 79.3542 96.0722 79.5031C100.009 79.8015 103.57 82.9348 104.36 86.7922C104.92 89.551 104.043 92.6266 102.071 94.8195C101.853 95.0661 101.477 94.7317 101.7 94.4855Z" fill="#242422"/>
<path d="M52.4406 95.0603C48.7043 87.0618 49.968 74.9919 57.2512 70.8108C57.5367 70.6456 57.7869 71.0795 57.4992 71.2444C50.4445 75.2947 49.2492 87.0471 52.8938 94.8484C55.6682 100.791 62.0852 104.455 68.5119 103.769C68.8346 103.727 68.8995 104.23 68.5647 104.266C61.9646 104.978 55.3157 101.216 52.4406 95.0603Z" fill="#242422"/>
<path d="M77.9112 103.796C86.2575 102.298 92.6422 93.3751 90.2315 81.6083C90.1661 81.2844 90.6536 81.1833 90.7218 81.5077C93.189 93.5642 86.6138 102.742 77.9991 104.288C77.6714 104.343 77.5872 103.855 77.9112 103.796Z" fill="#242422"/>
<path d="M68.5518 117.616C68.4511 112.562 68.3873 108.562 68.296 103.949C68.293 103.811 68.4034 103.697 68.5411 103.694H68.546C68.6817 103.694 68.793 103.803 68.796 103.939C68.8858 108.474 68.9419 112.094 69.0518 117.606C69.0589 117.937 68.559 117.95 68.5518 117.616Z" fill="#242422"/>
<path d="M79.5323 116.573C79.5401 114.007 78.7647 106.358 78.7725 103.768C78.7725 103.63 78.8848 103.519 79.0225 103.519C79.1602 103.519 79.2725 103.631 79.2725 103.77C79.2647 106.336 80.0401 113.984 80.0323 116.575C80.0323 116.905 79.5323 116.908 79.5323 116.573Z" fill="#242422"/>
<path d="M46.6219 87.9951C45.1453 86.4737 42.616 86.0689 40.7361 87.0571C40.4436 87.2115 40.2106 86.7683 40.5037 86.6148C42.5711 85.5274 45.3553 85.9712 46.9813 87.6475C47.2119 87.8864 46.8504 88.2328 46.6219 87.9951Z" fill="#242422"/>
<path d="M43.547 90.2066C43.254 89.0611 43.4767 87.7979 44.1417 86.8277C44.3299 86.5548 44.7402 86.8383 44.5538 87.1109C43.9689 87.9639 43.7735 89.0748 44.0314 90.0826C44.1129 90.4018 43.6304 90.5278 43.547 90.2066Z" fill="#242422"/>
<path d="M94.3164 87.858C95.8965 86.1417 98.668 85.6251 100.766 86.6583C101.064 86.8049 100.84 87.2541 100.545 87.1065C98.6377 86.1671 96.1201 86.6378 94.6836 88.1969C94.4602 88.4404 94.0922 88.1009 94.3164 87.858Z" fill="#242422"/>
<path d="M97.3283 90.2162C97.5597 89.2059 97.3361 88.1004 96.7296 87.2587C96.5381 86.9913 96.9398 86.6971 97.1359 86.9667C97.8243 87.9232 98.0792 89.1795 97.8165 90.3275C97.74 90.6514 97.2559 90.5371 97.3283 90.2162Z" fill="#242422"/>
<path d="M76.7481 75.0525C75.1309 73.8294 72.7349 74.0256 72.3458 74.8865C72.2096 75.1895 71.755 74.982 71.8907 74.6814C72.4937 73.3435 75.3864 73.3963 77.0489 74.654C77.3129 74.8526 77.0114 75.2528 76.7481 75.0525Z" fill="#242422"/>
<path d="M71.2782 86.8454C72.3993 86.4707 73.3005 86.4301 74.2587 85.7932C75.6422 84.879 75.1809 83.6491 74.9559 82.0198C74.3897 77.8267 73.9167 75.1413 73.3407 70.8806C73.3221 70.7434 73.4188 70.6174 73.5555 70.5993C73.6923 70.5769 73.8173 70.677 73.8368 70.8132C74.0284 72.2332 75.5467 82.5714 75.5555 82.6252C75.7782 83.9743 75.9891 85.2488 74.535 86.2097C73.491 86.9038 72.5537 86.9466 71.4364 87.3201C71.1204 87.4254 70.9665 86.9501 71.2782 86.8454Z" fill="#242422"/>
<path d="M68.0435 76.627C68.0444 77.59 66.8714 78.372 65.4269 78.3733C63.9799 78.3746 62.8055 77.5946 62.8047 76.6316C62.8038 75.6686 63.9768 74.8865 65.4238 74.8853C66.8683 74.884 68.0427 75.664 68.0435 76.627Z" fill="#242422"/>
<path d="M86.2115 76.6189C86.2124 77.5775 85.0394 78.356 83.5948 78.3573C82.1479 78.3586 80.9735 77.5821 80.9727 76.6236C80.9718 75.665 82.1448 74.8865 83.5918 74.8853C85.0363 74.884 86.2107 75.6604 86.2115 76.6189Z" fill="#242422"/>
<path d="M79.4797 121.2C81.1388 120.964 82.5625 119.563 82.8295 117.91C83.0964 116.256 82.1823 114.48 80.6834 113.735C81.6222 113.056 81.4891 111.504 80.688 110.665C79.8845 109.829 78.6691 109.552 77.5172 109.424C74.3204 109.073 71.0292 109.595 68.1096 110.942C67.0998 111.409 65.7142 111.803 65.4444 113.043C65.3247 113.588 65.5382 114.342 65.7199 114.861C66.0071 115.682 66.5037 115.856 67.2509 115.982C67.4542 116.016 66.9649 116.459 66.9172 116.485C66.6826 116.613 66.4488 116.602 66.2149 116.81C65.0187 117.873 65.4631 119.697 66.8051 120.223C70.2248 121.569 73.6097 122.076 77.2424 121.517" fill="#B39DDB"/>
<path d="M79.4797 121.2C81.1388 120.964 82.5625 119.563 82.8295 117.91C83.0964 116.256 82.1823 114.48 80.6834 113.735C81.6222 113.056 81.4891 111.504 80.688 110.665C79.8845 109.829 78.6691 109.552 77.5172 109.424C74.3204 109.073 71.0292 109.595 68.1096 110.942C67.0998 111.409 65.7142 111.803 65.4444 113.043C65.3247 113.588 65.5382 114.342 65.7199 114.861C66.0071 115.682 66.5037 115.856 67.2509 115.982C67.4542 116.016 66.9649 116.459 66.9172 116.485C66.6826 116.613 66.4488 116.602 66.2149 116.81C65.0187 117.873 65.4631 119.697 66.8051 120.223C70.2248 121.569 73.6097 122.076 77.2424 121.517" fill="white" fill-opacity="0.32"/>
<path d="M66.588 116.115C65.4572 115.534 65.2667 114.075 65.2277 112.868C65.2185 112.545 65.7131 112.509 65.7277 112.852C65.7618 113.922 65.9171 115.208 66.8165 115.669C67.6019 116.074 67.8106 115.858 77.1964 114.403C77.5361 114.361 77.5922 114.847 77.2745 114.897C68.1089 116.323 67.5652 116.615 66.588 116.115Z" fill="#242422"/>
<path d="M50.5948 81.6936C52.6749 79.6272 54.9288 77.7214 57.2941 76.03C57.5605 75.8361 57.8548 76.2439 57.5851 76.4363C55.2413 78.1126 53.0079 80.0007 50.9464 82.0481C50.7104 82.2818 50.3599 81.9251 50.5948 81.6936Z" fill="#242422"/>
<path d="M59.6065 83.3477C54.8718 78.1807 58.1722 69.1968 64.9805 69.1904H64.9864C71.7662 69.1904 75.1187 78.147 70.3819 83.3384C67.4182 86.5832 62.5902 86.604 59.6065 83.3477ZM64.9864 69.6904H64.9805C58.6258 69.6968 55.5229 78.1497 59.9756 83.0103C62.7502 86.0395 67.2381 86.0393 70.0127 83.001C74.447 78.1436 71.3453 69.6904 64.9864 69.6904Z" fill="#242422"/>
<path d="M84.1961 85.7633C77.4148 85.7633 74.0677 76.8063 78.8026 71.6153C83.6115 66.3504 91.7971 70.1409 91.8036 77.4615C91.8075 82.0348 88.3973 85.7594 84.202 85.7633H84.1961ZM79.1727 71.9527C74.7389 76.8077 77.8357 85.2633 84.1961 85.2633H84.202C90.5615 85.257 93.6599 76.8023 89.2088 71.9435C86.4342 68.9142 81.9453 68.9144 79.1727 71.9527Z" fill="#242422"/>
<path d="M97.8174 128.897C96.8336 129.879 95.6038 130.009 94.1879 130.1C78.471 131.111 62.6867 131.073 46.9748 129.988C42.4464 129.675 48.0135 125.536 49.1759 124.625C51.0237 123.177 53.2138 122.202 55.4627 121.564C58.4398 120.719 61.5449 120.435 64.6255 120.155C70.1161 119.656 75.544 120.397 81.0564 120.386C84.9313 120.379 88.9231 120.773 92.5345 122.264C94.4049 123.036 100.559 126.16 97.8174 128.897Z" fill="#B39DDB"/>
<path d="M97.8174 128.897C96.8336 129.879 95.6038 130.009 94.1879 130.1C78.471 131.111 62.6867 131.073 46.9748 129.988C42.4464 129.675 48.0135 125.536 49.1759 124.625C51.0237 123.177 53.2138 122.202 55.4627 121.564C58.4398 120.719 61.5449 120.435 64.6255 120.155C70.1161 119.656 75.544 120.397 81.0564 120.386C84.9313 120.379 88.9231 120.773 92.5345 122.264C94.4049 123.036 100.559 126.16 97.8174 128.897Z" fill="white" fill-opacity="0.32"/>
<path d="M69.5076 92.4589C68.7064 91.0677 66.8954 90.6123 65.531 91.4624C65.2503 91.6366 64.9866 91.213 65.2674 91.0376C66.8456 90.0532 68.9805 90.5423 69.9412 92.2089C70.1047 92.4951 69.6754 92.7456 69.5076 92.4589Z" fill="#242422"/>
<path d="M96.3459 128.833C96.2174 125.694 96.8925 120.293 94.84 117.719C94.1474 116.843 88.8651 113.477 89.4299 111.426C89.5812 110.878 90.093 110.501 90.9894 110.282C89.4162 109.123 89.5148 108.017 89.7375 107.43C90.2648 106.04 92.4123 104.968 94.4406 104.945C92.9943 103.844 91.8498 102.085 92.1574 100.67C92.3137 99.9505 92.9025 99.0775 94.7717 98.8314C94.2338 98.0214 93.6919 97.0989 93.8693 96.1468C94.1335 94.688 96.046 93.9768 97.5109 93.7069C97.8547 93.6419 98.2609 93.6473 98.7824 93.7254C99.8271 93.827 100.877 93.9531 101.703 94.3021C106.391 96.2215 110.908 98.924 111.136 104.012C111.459 111.055 111.794 118.34 113.301 125.833C113.366 126.155 112.875 126.26 112.811 125.932C111.297 118.401 110.961 111.097 110.636 104.034C110.418 99.1688 105.974 96.5894 101.511 94.764C100.718 94.4288 99.8479 94.3541 99.0539 94.2611C98.5749 94.1985 98.0527 94.1142 97.6017 94.1981C96.4097 94.4188 94.5797 95.0267 94.3615 96.2371C94.299 96.5726 94.3498 96.9393 94.5178 97.3602C94.6299 97.6603 95.2015 98.6299 95.3713 98.7977C95.6241 98.8908 95.5703 99.2644 95.3019 99.2821C94.2228 99.3519 92.8869 99.6678 92.6457 100.777C92.3625 102.079 93.7072 104.077 95.5236 105.053C95.769 105.184 95.6475 105.566 95.3605 105.519C92.3081 104.959 87.607 107.676 91.7658 110.199C91.9653 110.32 91.9031 110.627 91.6721 110.66C90.6262 110.812 90.0344 111.114 89.9123 111.558C89.4629 113.192 94.5389 116.53 95.2316 117.408C97.4137 120.146 96.7171 125.62 96.8459 128.812C96.8599 129.144 96.3604 129.166 96.3459 128.833Z" fill="#242422"/>
<path d="M103.527 102.731C101.517 100.47 98.4054 99.1629 95.3663 99.3226C95.0644 99.3791 94.9852 98.8424 95.3409 98.8236C98.5548 98.6566 101.76 99.9901 103.9 102.399C104.124 102.65 103.742 102.975 103.527 102.731Z" fill="#242422"/>
<path d="M97.08 113.271C95.5028 111.957 93.6005 111.069 91.58 110.703C91.2599 110.644 91.3367 110.157 91.6698 110.211C93.7743 110.593 95.7557 111.518 97.4003 112.886C97.6532 113.098 97.3361 113.481 97.08 113.271Z" fill="#242422"/>
<path d="M100.673 109.218C99.3192 107.4 97.3748 106.056 95.1981 105.432C94.8752 105.339 95.0238 104.855 95.3348 104.952C97.617 105.605 99.6551 107.014 101.073 108.919C101.272 109.184 100.869 109.483 100.673 109.218Z" fill="#242422"/>
<path d="M135.12 34.9378C137.376 35.5065 139.318 35.5459 140.134 38.2028C140.597 39.7094 140.435 41.3287 140.244 42.8931C139.716 47.2107 138.995 51.5045 138.083 55.7577C137.373 59.0742 137.102 63.253 133.879 65.1807C132.072 66.2606 129.799 66.0074 127.713 65.7193C88.4965 60.3035 87.9948 60.4964 83.9416 58.8852C82.0292 58.1251 78.5748 56.8423 77.5257 54.9753C76.8862 53.8372 77.0095 52.4394 77.1844 51.1457C78.1277 44.1685 80.0421 37.3232 82.8553 30.869C84.2645 27.6359 85.398 27.5866 89.0848 27.8071C104.005 28.6994 119.575 31.0179 135.12 34.9378Z" fill="#B39DDB"/>
<path d="M135.12 34.9378C137.376 35.5065 139.318 35.5459 140.134 38.2028C140.597 39.7094 140.435 41.3287 140.244 42.8931C139.716 47.2107 138.995 51.5045 138.083 55.7577C137.373 59.0742 137.102 63.253 133.879 65.1807C132.072 66.2606 129.799 66.0074 127.713 65.7193C88.4965 60.3035 87.9948 60.4964 83.9416 58.8852C82.0292 58.1251 78.5748 56.8423 77.5257 54.9753C76.8862 53.8372 77.0095 52.4394 77.1844 51.1457C78.1277 44.1685 80.0421 37.3232 82.8553 30.869C84.2645 27.6359 85.398 27.5866 89.0848 27.8071C104.005 28.6994 119.575 31.0179 135.12 34.9378Z" fill="white" fill-opacity="0.32"/>
<path d="M25.5498 86.5881C22.4131 84.2907 20.4131 80.2609 20.1992 75.8083C19.7845 67.1738 26.2745 54.6371 35.6514 51.3855C34.633 44.7387 39.2521 39.6041 44.7021 35.5891C53.6602 28.9914 67.1123 24.1145 78.0068 30.2145C78.2959 30.3767 78.0481 30.813 77.7627 30.6511C67.0762 24.6647 53.8311 29.4855 44.999 35.9914C39.7643 39.8475 35.1945 44.815 36.1289 51.2282C38.8959 50.3686 42.5728 50.1116 44.8496 51.944C49.0156 55.2911 44.9443 60.9394 39.7422 57.9055C37.5234 56.612 36.2285 54.3439 35.7393 51.884C26.6388 55.0927 20.2947 67.3706 20.6992 75.7839C20.9053 80.0876 22.8291 83.9758 25.8447 86.1848C26.1137 86.3818 25.8131 86.7841 25.5498 86.5881ZM36.2129 51.7258C36.665 54.0773 37.8877 56.2453 39.9941 57.4738C44.5949 60.1592 48.2642 55.3301 44.5371 52.3337C42.3899 50.6086 38.8137 50.9046 36.2129 51.7258Z" fill="#242422"/>
<path d="M134.454 30.7922C133.894 28.8826 133.79 26.8391 134.154 24.8826C134.216 24.5546 134.707 24.651 134.646 24.9744C134.296 26.8537 134.396 28.8171 134.935 30.6516C135.027 30.9719 134.548 31.1094 134.454 30.7922Z" fill="#242422"/>
<path d="M136.372 31.2317C137.737 28.7029 139.378 26.3162 141.247 24.138C141.46 23.888 141.843 24.2111 141.626 24.4632C139.78 26.6145 138.16 28.9715 136.812 31.469C136.658 31.757 136.215 31.524 136.372 31.2317Z" fill="#242422"/>
<path d="M138.306 33.1724C137.981 33.1724 137.971 32.6817 138.299 32.6724C139.661 32.6368 141.033 32.315 142.269 31.7418C142.565 31.6005 142.781 32.0547 142.48 32.1949C140.431 33.146 138.806 33.1072 138.306 33.1724Z" fill="#242422"/>
<path d="M71.0757 63.1328C70.8257 63.3928 70.5657 63.6328 70.2758 63.8429L62.8857 66.4928C65.1017 64.4524 68.1009 63.4165 71.0757 63.1328Z" fill="#242422"/>
<path d="M57.9155 68.2827L55.6455 69.0928C56.3755 68.7327 57.1355 68.4626 57.9155 68.2827Z" fill="#242422"/>
<path d="M71.5456 62.6027C68.3128 62.772 64.8257 63.9574 62.3956 66.2626C62.28 66.3667 62.2948 66.577 62.4455 66.6526L59.2856 67.7926C59.2756 67.6626 59.1656 67.5626 59.0156 67.5727C57.2455 67.7726 55.5655 68.4026 54.1156 69.4126C46.6687 68.4533 47.4118 61.3139 50.9355 62.0927C50.0655 60.6426 48.7256 59.1526 48.6356 57.4325C48.422 52.979 52.917 50.9482 56.9656 54.6725C56.1656 53.4826 56.0456 51.8026 56.7455 50.5326C58.7709 46.8958 64.7016 48.1245 64.9955 52.8026C67.6855 51.3327 71.4256 52.8527 72.6556 55.6626C73.6656 57.9494 73.0671 60.6918 71.5456 62.6027Z" fill="#242422"/>
<path d="M132.205 115.573C132.205 124.622 105.826 131.952 73.2855 131.952C40.7555 131.952 14.3755 124.622 14.3755 115.573C14.3755 109.442 26.4655 104.103 44.3755 101.292C48.0255 100.712 51.9155 100.242 56.0055 99.9025C59.5424 102.939 64.1312 103.928 68.7555 103.942C68.2055 109.942 68.2655 116.002 68.9355 121.992L79.8455 122.232C79.7055 116.062 79.3055 109.962 79.1655 103.792C81.7455 102.932 84.0555 101.502 85.9055 99.5625C87.409 99.6467 92.514 100.036 92.8455 100.103C92.6655 100.292 92.5155 100.502 92.3955 100.732C92.3955 100.742 92.3955 100.742 92.3955 100.742C91.3459 102.614 93.3049 104.102 95.1055 105.103C95.2055 105.162 95.3055 105.222 95.4055 105.272C94.1746 105.067 92.815 104.974 91.6655 105.462C90.5237 105.948 89.7516 107.107 89.9055 108.182C90.0455 109.122 90.8255 109.872 91.6355 110.412C91.4255 110.442 91.2155 110.522 91.0455 110.603C90.3087 110.694 89.6048 111.739 89.7355 112.262C89.7555 112.642 89.9255 113.002 90.1255 113.343C91.9493 116.457 94.4763 115.972 95.6355 118.522C95.9455 119.272 96.0655 120.182 96.1655 121.442C96.3952 124.472 96.5868 128.66 96.6155 129.492C101.642 128.432 106.104 127.094 113.135 126.442C112.916 124.853 112.685 123.262 112.466 121.682C111.906 117.772 111.755 114.083 111.195 110.172C110.846 107.682 111.125 105.282 110.656 102.902C123.815 105.902 132.205 110.472 132.205 115.573Z" fill="#242422"/>
<path d="M132.205 115.573C132.205 124.622 105.826 131.952 73.2855 131.952C40.7555 131.952 14.3755 124.622 14.3755 115.573C14.3755 109.442 26.4655 104.103 44.3755 101.292C48.0255 100.712 51.9155 100.242 56.0055 99.9025C59.5424 102.939 64.1312 103.928 68.7555 103.942C68.2055 109.942 68.2655 116.002 68.9355 121.992L79.8455 122.232C79.7055 116.062 79.3055 109.962 79.1655 103.792C81.7455 102.932 84.0555 101.502 85.9055 99.5625C87.409 99.6467 92.514 100.036 92.8455 100.103C92.6655 100.292 92.5155 100.502 92.3955 100.732C92.3955 100.742 92.3955 100.742 92.3955 100.742C91.3459 102.614 93.3049 104.102 95.1055 105.103C95.2055 105.162 95.3055 105.222 95.4055 105.272C94.1746 105.067 92.815 104.974 91.6655 105.462C90.5237 105.948 89.7516 107.107 89.9055 108.182C90.0455 109.122 90.8255 109.872 91.6355 110.412C91.4255 110.442 91.2155 110.522 91.0455 110.603C90.3087 110.694 89.6048 111.739 89.7355 112.262C89.7555 112.642 89.9255 113.002 90.1255 113.343C91.9493 116.457 94.4763 115.972 95.6355 118.522C95.9455 119.272 96.0655 120.182 96.1655 121.442C96.3952 124.472 96.5868 128.66 96.6155 129.492C101.642 128.432 106.104 127.094 113.135 126.442C112.916 124.853 112.685 123.262 112.466 121.682C111.906 117.772 111.755 114.083 111.195 110.172C110.846 107.682 111.125 105.282 110.656 102.902C123.815 105.902 132.205 110.472 132.205 115.573Z" fill="white" fill-opacity="0.64"/>
<path d="M95.7553 79.7424C95.6754 79.7324 95.5953 79.7324 95.5153 79.7324C93.4553 79.7524 91.2953 80.6724 90.5153 82.5425L90.4653 83.1124C90.4653 82.9312 90.086 79.3469 89.2354 77.0825L94.9153 77.3624C95.0799 77.8381 95.2152 78.2357 95.7553 79.7424Z" fill="#242422"/>
<path d="M46.0356 79.5728C46.2957 78.0527 46.5956 76.5327 46.9156 75.0127L53.2556 75.3228C53.0656 75.5928 52.8856 75.8827 52.6956 76.1726C51.5856 77.9027 51.0256 80.9226 50.8456 83.4727L50.6456 82.2427C49.8756 80.5327 47.9556 79.6527 46.0356 79.5728Z" fill="#242422"/>
<path d="M96.5757 127.733C96.2451 128.063 95.4696 128.199 95.0057 128.243C88.3457 128.903 81.6857 127.363 75.0257 126.693C69.7543 126.153 69.7911 127.622 67.7357 128.063C66.7557 128.263 65.8357 127.633 64.8557 127.543C63.5657 127.433 62.1257 127.683 60.8357 127.833C56.9857 128.273 52.3257 130.803 48.5057 130.283C44.7457 129.773 44.5657 125.193 44.5357 122.153C44.4857 115.203 44.4257 108.243 44.3757 101.293C44.3657 100.183 44.3525 98.1952 44.3457 97.1627C47.1457 97.6127 50.1757 96.7126 52.1957 94.7227C52.2957 94.9426 52.3857 95.1726 52.4957 95.3927C54.7504 100.144 59.9555 103.915 68.7557 103.943C68.2057 109.943 68.2657 116.003 68.9357 121.993L79.8457 122.233C79.7057 116.063 79.3057 109.963 79.1657 103.793C84.3541 102.063 88.0712 98.154 89.6157 93.3228L89.4857 94.9426C90.8257 96.3827 92.5057 97.2227 94.2957 97.4626C94.3857 97.7327 94.5257 97.9727 94.6857 98.2126C94.7557 98.3328 95.1557 99.0327 95.2857 99.0327C92.4855 99.2166 92.4895 100.643 92.3957 100.743C92.0599 102.387 93.8986 104.519 95.4057 105.273C92.0304 104.662 87.221 107.74 91.6357 110.413C85.9343 111.231 94.1587 116.466 95.0357 117.563C96.9495 119.9 96.5757 124.704 96.5757 127.733Z" fill="#242422"/>
<path d="M90.8507 79.46L90.2305 73.8535C90.193 73.5238 90.6915 73.4714 90.7266 73.7989L91.3467 79.4053C91.384 79.7328 90.8863 79.7932 90.8507 79.46Z" fill="#242422"/>
<path d="M95.1854 78.1425C94.0086 73.3734 92.2455 68.3599 88.6254 65.0426C84.5154 61.2825 78.9655 60.4625 73.4655 60.7525C71.0368 60.9202 68.6955 61.1574 66.3455 62.1525C64.4354 62.9525 62.6854 64.2425 61.6155 65.9525C61.3555 66.3625 60.7554 66.4625 60.3555 66.1724C57.0961 63.7941 52.0767 64.5391 49.7955 67.5826C49.2355 68.2425 48.7855 68.9925 48.3954 69.7625C46.8075 72.8547 46.0379 76.0246 45.5854 79.5726C45.7355 79.5526 45.8854 79.5626 46.0355 79.5726C47.9554 79.6525 49.8754 80.5325 50.6454 82.2425L50.8455 83.4725C51.0255 80.9224 51.5854 77.9025 52.6954 76.1724C54.7605 73.0215 56.7536 70.6432 60.4454 69.1525C65.6488 67.0324 74.277 67.5274 79.7855 68.6925C84.1927 69.629 87.8207 73.1923 89.2355 77.0826C90.0744 79.3158 90.4655 83.0078 90.4655 83.1125L90.5154 82.5426C91.2955 80.6724 93.4554 79.7525 95.5154 79.7325C95.4354 79.2125 95.3254 78.6824 95.1854 78.1425ZM59.0654 68.0726C58.9834 68.0843 57.9741 68.2239 57.9155 68.2825C57.1354 68.4625 56.3754 68.7325 55.6454 69.0926C55.6354 69.0926 55.6354 69.1026 55.6254 69.1026C53.4468 70.1816 52.8677 71.2725 52.5754 71.2725C52.3464 71.2725 52.2366 71.0113 52.3954 70.8526C53.9686 69.1887 56.3398 67.8748 59.0154 67.5726C59.35 67.5503 59.3848 68.0234 59.0654 68.0726ZM79.0955 63.6125C73.4649 62.6783 67.3598 62.5072 63.0255 66.3725C62.7411 66.6002 62.734 66.6925 62.5654 66.6925C62.5355 66.6925 62.5154 66.6925 62.4855 66.6724C62.4755 66.6724 62.4554 66.6625 62.4454 66.6525C62.2869 66.573 62.2865 66.3594 62.3954 66.2625C66.8079 62.0768 73.1811 62.1047 79.1755 63.1225C79.4961 63.1684 79.4339 63.6609 79.0955 63.6125Z" fill="#242422"/>
<path d="M45.7859 97.5188C39.7403 97.5188 36.0451 91.7773 36.9148 86.8455C37.6033 82.9593 41.0838 79.7347 45.0115 79.345C47.1414 79.1321 49.8865 79.9192 50.8699 82.137C51.0037 82.441 50.5455 82.6413 50.4129 82.3401C49.5291 80.3479 47.0164 79.6468 45.0604 79.8426C41.3484 80.2107 38.0574 83.2591 37.407 86.9324C36.7586 90.6067 38.8025 94.5975 42.1609 96.2151C45.5193 97.8352 49.9148 96.949 52.3846 94.1521C52.6082 93.905 52.9759 94.2367 52.7596 94.4832C51.0262 96.4451 48.3973 97.5188 45.7859 97.5188Z" fill="#242422"/>
<path d="M94.2625 97.7102C92.3611 97.4553 90.6463 96.5569 89.3025 95.113C89.0763 94.8717 89.4426 94.5305 89.6677 94.7722C90.9324 96.1306 92.5437 96.9753 94.3289 97.2151C94.6655 97.2596 94.5796 97.7631 94.2625 97.7102Z" fill="#242422"/>
<path d="M101.7 94.4855C103.567 92.4079 104.399 89.4982 103.87 86.8923C103.124 83.2458 99.7558 80.2834 96.037 80.0021C94.08 79.8649 91.581 80.6359 90.746 82.6389C90.6212 82.9417 90.1561 82.7525 90.2851 82.4465C91.2128 80.2175 93.9364 79.3542 96.0722 79.5031C100.009 79.8015 103.57 82.9348 104.36 86.7922C104.92 89.551 104.043 92.6266 102.071 94.8195C101.853 95.0661 101.477 94.7317 101.7 94.4855Z" fill="#242422"/>
<path d="M52.4406 95.0603C48.7043 87.0618 49.968 74.9919 57.2512 70.8108C57.5367 70.6456 57.7869 71.0795 57.4992 71.2444C50.4445 75.2947 49.2492 87.0471 52.8938 94.8484C55.6682 100.791 62.0852 104.455 68.5119 103.769C68.8346 103.727 68.8995 104.23 68.5647 104.266C61.9646 104.978 55.3157 101.216 52.4406 95.0603Z" fill="#242422"/>
<path d="M77.9112 103.796C86.2575 102.298 92.6422 93.3751 90.2315 81.6083C90.1661 81.2844 90.6536 81.1833 90.7218 81.5077C93.189 93.5642 86.6138 102.742 77.9991 104.288C77.6714 104.343 77.5872 103.855 77.9112 103.796Z" fill="#242422"/>
<path d="M68.5518 117.616C68.4511 112.562 68.3873 108.562 68.296 103.949C68.293 103.811 68.4034 103.697 68.5411 103.694H68.546C68.6817 103.694 68.793 103.803 68.796 103.939C68.8858 108.474 68.9419 112.094 69.0518 117.606C69.0589 117.937 68.559 117.95 68.5518 117.616Z" fill="#242422"/>
<path d="M79.5323 116.573C79.5401 114.007 78.7647 106.358 78.7725 103.768C78.7725 103.63 78.8848 103.519 79.0225 103.519C79.1602 103.519 79.2725 103.631 79.2725 103.77C79.2647 106.336 80.0401 113.984 80.0323 116.575C80.0323 116.905 79.5323 116.908 79.5323 116.573Z" fill="#242422"/>
<path d="M46.6219 87.9951C45.1453 86.4737 42.616 86.0689 40.7361 87.0571C40.4436 87.2115 40.2106 86.7683 40.5037 86.6148C42.5711 85.5274 45.3553 85.9712 46.9813 87.6475C47.2119 87.8864 46.8504 88.2328 46.6219 87.9951Z" fill="#242422"/>
<path d="M43.547 90.2066C43.254 89.0611 43.4767 87.7979 44.1417 86.8277C44.3299 86.5548 44.7402 86.8383 44.5538 87.1109C43.9689 87.9639 43.7735 89.0748 44.0314 90.0826C44.1129 90.4018 43.6304 90.5278 43.547 90.2066Z" fill="#242422"/>
<path d="M94.3164 87.858C95.8965 86.1417 98.668 85.6251 100.766 86.6583C101.064 86.8049 100.84 87.2541 100.545 87.1065C98.6377 86.1671 96.1201 86.6378 94.6836 88.1969C94.4602 88.4404 94.0922 88.1009 94.3164 87.858Z" fill="#242422"/>
<path d="M97.3283 90.2162C97.5597 89.2059 97.3361 88.1004 96.7296 87.2587C96.5381 86.9913 96.9398 86.6971 97.1359 86.9667C97.8243 87.9232 98.0792 89.1795 97.8165 90.3275C97.74 90.6514 97.2559 90.5371 97.3283 90.2162Z" fill="#242422"/>
<path d="M76.7481 75.0525C75.1309 73.8294 72.7349 74.0256 72.3458 74.8865C72.2096 75.1895 71.755 74.982 71.8907 74.6814C72.4937 73.3435 75.3864 73.3963 77.0489 74.654C77.3129 74.8526 77.0114 75.2528 76.7481 75.0525Z" fill="#242422"/>
<path d="M71.2782 86.8454C72.3993 86.4707 73.3005 86.4301 74.2587 85.7932C75.6422 84.879 75.1809 83.6491 74.9559 82.0198C74.3897 77.8267 73.9167 75.1413 73.3407 70.8806C73.3221 70.7434 73.4188 70.6174 73.5555 70.5993C73.6923 70.5769 73.8173 70.677 73.8368 70.8132C74.0284 72.2332 75.5467 82.5714 75.5555 82.6252C75.7782 83.9743 75.9891 85.2488 74.535 86.2097C73.491 86.9038 72.5537 86.9466 71.4364 87.3201C71.1204 87.4254 70.9665 86.9501 71.2782 86.8454Z" fill="#242422"/>
<path d="M68.0435 76.627C68.0444 77.59 66.8714 78.372 65.4269 78.3733C63.9799 78.3746 62.8055 77.5946 62.8047 76.6316C62.8038 75.6686 63.9768 74.8865 65.4238 74.8853C66.8683 74.884 68.0427 75.664 68.0435 76.627Z" fill="#242422"/>
<path d="M86.2115 76.6189C86.2124 77.5775 85.0394 78.356 83.5948 78.3573C82.1479 78.3586 80.9735 77.5821 80.9727 76.6236C80.9718 75.665 82.1448 74.8865 83.5918 74.8853C85.0363 74.884 86.2107 75.6604 86.2115 76.6189Z" fill="#242422"/>
<path d="M79.4797 121.2C81.1388 120.964 82.5625 119.563 82.8295 117.91C83.0964 116.256 82.1823 114.48 80.6834 113.735C81.6222 113.056 81.4891 111.504 80.688 110.665C79.8845 109.829 78.6691 109.552 77.5172 109.424C74.3204 109.073 71.0292 109.595 68.1096 110.942C67.0998 111.409 65.7142 111.803 65.4444 113.043C65.3247 113.588 65.5382 114.342 65.7199 114.861C66.0071 115.682 66.5037 115.856 67.2509 115.982C67.4542 116.016 66.9649 116.459 66.9172 116.485C66.6826 116.613 66.4488 116.602 66.2149 116.81C65.0187 117.873 65.4631 119.697 66.8051 120.223C70.2248 121.569 73.6097 122.076 77.2424 121.517" fill="#B39DDB"/>
<path d="M79.4797 121.2C81.1388 120.964 82.5625 119.563 82.8295 117.91C83.0964 116.256 82.1823 114.48 80.6834 113.735C81.6222 113.056 81.4891 111.504 80.688 110.665C79.8845 109.829 78.6691 109.552 77.5172 109.424C74.3204 109.073 71.0292 109.595 68.1096 110.942C67.0998 111.409 65.7142 111.803 65.4444 113.043C65.3247 113.588 65.5382 114.342 65.7199 114.861C66.0071 115.682 66.5037 115.856 67.2509 115.982C67.4542 116.016 66.9649 116.459 66.9172 116.485C66.6826 116.613 66.4488 116.602 66.2149 116.81C65.0187 117.873 65.4631 119.697 66.8051 120.223C70.2248 121.569 73.6097 122.076 77.2424 121.517" fill="white" fill-opacity="0.32"/>
<path d="M66.588 116.115C65.4572 115.534 65.2667 114.075 65.2277 112.868C65.2185 112.545 65.7131 112.509 65.7277 112.852C65.7618 113.922 65.9171 115.208 66.8165 115.669C67.6019 116.074 67.8106 115.858 77.1964 114.403C77.5361 114.361 77.5922 114.847 77.2745 114.897C68.1089 116.323 67.5652 116.615 66.588 116.115Z" fill="#242422"/>
<path d="M50.5948 81.6936C52.6749 79.6272 54.9288 77.7214 57.2941 76.03C57.5605 75.8361 57.8548 76.2439 57.5851 76.4363C55.2413 78.1126 53.0079 80.0007 50.9464 82.0481C50.7104 82.2818 50.3599 81.9251 50.5948 81.6936Z" fill="#242422"/>
<path d="M88.5653 70.7326C88.3853 71.2526 87.8654 71.5727 87.3753 71.8127C80.5765 75.1243 73.0277 73.2006 66.3553 69.6526C65.3305 69.1157 62.598 67.8219 62.4854 66.6725C62.7066 66.8203 62.9012 66.3289 64.1853 65.4726C65.1053 65.3527 66.2153 65.4126 66.8753 65.3726C73.4392 64.981 80.2193 65.9475 86.5753 68.3327C87.1154 68.5326 87.6653 68.7626 88.0853 69.1626C88.5053 69.5627 88.7553 70.1825 88.5653 70.7326Z" fill="#242422"/>
<path d="M64.8056 68.3029C62.0157 72.0041 59.2383 74.8768 54.5756 75.9328C53.2232 76.2435 51.7362 76.3388 50.5156 75.6828C52.4857 72.5129 55.3256 69.8829 58.6356 68.1329C58.7756 68.1129 58.9257 68.093 59.0656 68.0729C59.1956 68.0529 59.2957 67.9428 59.2856 67.8129C60.4648 67.2234 61.3308 66.9267 62.3657 66.5829C62.3756 66.593 62.3756 66.603 62.3856 66.6129C62.4056 66.6329 62.4257 66.6429 62.4456 66.6529C62.4556 66.6629 62.4756 66.6728 62.4857 66.6728C62.5156 66.6928 62.5356 66.6928 62.5656 66.6928C62.7342 66.6928 62.743 66.5993 63.0256 66.3729C64.0856 66.0629 65.6057 65.7128 66.0756 66.2228C66.5291 66.7131 65.1148 67.8906 64.8056 68.3029Z" fill="#242422"/>
<path d="M59.6065 83.3477C54.8718 78.1807 58.1722 69.1968 64.9805 69.1904H64.9864C71.7662 69.1904 75.1187 78.147 70.3819 83.3384C67.4182 86.5832 62.5902 86.604 59.6065 83.3477ZM64.9864 69.6904H64.9805C58.6258 69.6968 55.5229 78.1497 59.9756 83.0103C62.7502 86.0395 67.2381 86.0393 70.0127 83.001C74.447 78.1436 71.3453 69.6904 64.9864 69.6904Z" fill="#242422"/>
<path d="M84.1961 85.7633C77.4148 85.7633 74.0677 76.8063 78.8026 71.6153C83.6115 66.3504 91.7971 70.1409 91.8036 77.4615C91.8075 82.0348 88.3973 85.7594 84.202 85.7633H84.1961ZM79.1727 71.9527C74.7389 76.8077 77.8357 85.2633 84.1961 85.2633H84.202C90.5615 85.257 93.6599 76.8023 89.2088 71.9435C86.4342 68.9142 81.9453 68.9144 79.1727 71.9527Z" fill="#242422"/>
<path d="M97.8174 128.897C96.8336 129.879 95.6038 130.009 94.1879 130.1C78.471 131.111 62.6867 131.073 46.9748 129.988C42.4464 129.675 48.0135 125.536 49.1759 124.625C51.0237 123.177 53.2138 122.202 55.4627 121.564C58.4398 120.719 61.5449 120.435 64.6255 120.155C70.1161 119.656 75.544 120.397 81.0564 120.386C84.9313 120.379 88.9231 120.773 92.5345 122.264C94.4049 123.036 100.559 126.16 97.8174 128.897Z" fill="#B39DDB"/>
<path d="M97.8174 128.897C96.8336 129.879 95.6038 130.009 94.1879 130.1C78.471 131.111 62.6867 131.073 46.9748 129.988C42.4464 129.675 48.0135 125.536 49.1759 124.625C51.0237 123.177 53.2138 122.202 55.4627 121.564C58.4398 120.719 61.5449 120.435 64.6255 120.155C70.1161 119.656 75.544 120.397 81.0564 120.386C84.9313 120.379 88.9231 120.773 92.5345 122.264C94.4049 123.036 100.559 126.16 97.8174 128.897Z" fill="white" fill-opacity="0.32"/>
<path d="M69.5076 92.4589C68.7064 91.0677 66.8954 90.6123 65.531 91.4624C65.2503 91.6366 64.9866 91.213 65.2674 91.0376C66.8456 90.0532 68.9805 90.5423 69.9412 92.2089C70.1047 92.4951 69.6754 92.7456 69.5076 92.4589Z" fill="#242422"/>
<path d="M115.596 38.2126C115.255 41.7727 114.916 45.3428 114.286 48.8627C112.775 57.3461 108.249 70.426 104.726 95.9827C103.702 95.4171 102.694 94.978 101.606 94.5327C100.8 94.1921 99.7872 94.0769 98.7455 93.9727C98.5555 89.7627 100.416 84.5327 101.055 80.5527C102.815 69.6327 104.396 58.6826 105.815 47.7026C108.466 27.1927 107.866 26.8548 109.356 25.4426C110.875 23.9727 113.366 24.6028 115.346 25.3127C115.755 25.4626 116.195 25.6327 116.445 25.9927C116.866 26.5932 116.746 26.4071 115.596 38.2126Z" fill="#242422"/>
<path d="M96.3459 128.83C96.2467 125.45 96.8391 120.223 94.84 117.719C94.1474 116.843 88.8651 113.477 89.4299 111.426C89.5812 110.878 90.093 110.501 90.9894 110.282C89.4162 109.123 89.5148 108.017 89.7375 107.43C90.2648 106.04 92.4123 104.968 94.4406 104.945C92.9943 103.844 91.8498 102.085 92.1574 100.67C92.3137 99.9505 92.9025 99.0774 94.7717 98.8314C94.2338 98.0214 93.6919 97.0989 93.8693 96.1468C94.1335 94.688 96.046 93.9768 97.5109 93.7068C98.0099 93.6056 98.639 93.7035 99.1184 93.7654C99.9807 93.8668 100.852 93.9429 101.703 94.3021C106.391 96.2215 110.908 98.924 111.136 104.012C111.459 111.055 111.794 118.34 113.301 125.833C113.366 126.155 112.875 126.26 112.811 125.932C111.297 118.401 110.961 111.097 110.636 104.034C110.418 99.1688 105.974 96.5894 101.511 94.764C100.71 94.4252 99.7238 94.3256 98.7209 94.221C98.409 94.1774 97.9418 94.1313 97.6105 94.1966C96.4079 94.4189 94.5798 95.0264 94.3615 96.2371C94.299 96.5726 94.3498 96.9393 94.5178 97.3602C94.6299 97.6603 95.2015 98.6299 95.3713 98.7977C95.6241 98.8908 95.5703 99.2644 95.3019 99.282C94.2228 99.3519 92.8869 99.6678 92.6457 100.777C92.3625 102.079 93.7072 104.077 95.5236 105.053C95.769 105.184 95.6475 105.566 95.3605 105.519C92.3081 104.959 87.607 107.676 91.7658 110.199C91.9653 110.32 91.9031 110.627 91.6721 110.66C90.6262 110.812 90.0344 111.114 89.9123 111.558C89.4629 113.192 94.5389 116.53 95.2316 117.408C97.3618 120.076 96.7404 125.276 96.8449 128.782L96.5959 128.823L96.3459 128.83Z" fill="#242422"/>
<path d="M103.527 102.731C101.517 100.47 98.4054 99.1629 95.3663 99.3226C95.0644 99.3791 94.9852 98.8424 95.3409 98.8236C98.5548 98.6566 101.76 99.9901 103.9 102.399C104.124 102.65 103.742 102.975 103.527 102.731Z" fill="#242422"/>
<path d="M97.08 113.271C95.5028 111.957 93.6005 111.069 91.58 110.703C91.2599 110.644 91.3367 110.157 91.6698 110.211C93.7743 110.593 95.7557 111.518 97.4003 112.886C97.6532 113.098 97.3361 113.481 97.08 113.271Z" fill="#242422"/>
<path d="M100.673 109.218C99.3192 107.4 97.3748 106.056 95.1981 105.432C94.8752 105.339 95.0238 104.855 95.3348 104.952C97.617 105.605 99.6551 107.014 101.073 108.919C101.272 109.184 100.869 109.483 100.673 109.218Z" fill="#242422"/>
<path d="M135.12 34.9378C137.376 35.5065 139.318 35.5459 140.134 38.2028C140.597 39.7094 140.435 41.3287 140.244 42.8931C139.716 47.2107 138.995 51.5045 138.083 55.7577C137.373 59.0742 137.102 63.253 133.879 65.1807C132.072 66.2606 129.799 66.0074 127.713 65.7193C88.4965 60.3035 87.9948 60.4964 83.9416 58.8852C82.0292 58.1251 78.5748 56.8423 77.5257 54.9753C76.8862 53.8372 77.0095 52.4394 77.1844 51.1457C78.1277 44.1685 80.0421 37.3232 82.8553 30.869C84.2645 27.6359 85.398 27.5866 89.0848 27.8071C104.005 28.6994 119.575 31.0179 135.12 34.9378Z" fill="#B39DDB"/>
<path d="M135.12 34.9378C137.376 35.5065 139.318 35.5459 140.134 38.2028C140.597 39.7094 140.435 41.3287 140.244 42.8931C139.716 47.2107 138.995 51.5045 138.083 55.7577C137.373 59.0742 137.102 63.253 133.879 65.1807C132.072 66.2606 129.799 66.0074 127.713 65.7193C88.4965 60.3035 87.9948 60.4964 83.9416 58.8852C82.0292 58.1251 78.5748 56.8423 77.5257 54.9753C76.8862 53.8372 77.0095 52.4394 77.1844 51.1457C78.1277 44.1685 80.0421 37.3232 82.8553 30.869C84.2645 27.6359 85.398 27.5866 89.0848 27.8071C104.005 28.6994 119.575 31.0179 135.12 34.9378Z" fill="white" fill-opacity="0.32"/>
<path d="M25.5498 86.5881C22.4131 84.2907 20.4131 80.2609 20.1992 75.8083C19.7845 67.1738 26.2745 54.6371 35.6514 51.3855C34.633 44.7387 39.2521 39.6041 44.7021 35.5891C53.6602 28.9914 67.1123 24.1145 78.0068 30.2145C78.2959 30.3767 78.0481 30.813 77.7627 30.6511C67.0762 24.6647 53.8311 29.4855 44.999 35.9914C39.7643 39.8475 35.1945 44.815 36.1289 51.2282C38.8959 50.3686 42.5728 50.1116 44.8496 51.944C49.0156 55.2911 44.9443 60.9394 39.7422 57.9055C37.5234 56.612 36.2285 54.3439 35.7393 51.884C26.6388 55.0927 20.2947 67.3706 20.6992 75.7839C20.9053 80.0876 22.8291 83.9758 25.8447 86.1848C26.1137 86.3818 25.8131 86.7841 25.5498 86.5881ZM36.2129 51.7258C36.665 54.0773 37.8877 56.2453 39.9941 57.4738C44.5949 60.1592 48.2642 55.3301 44.5371 52.3337C42.3899 50.6086 38.8137 50.9046 36.2129 51.7258Z" fill="#242422"/>
<path d="M134.454 30.7922C133.894 28.8826 133.79 26.8391 134.154 24.8826C134.216 24.5546 134.707 24.651 134.646 24.9744C134.296 26.8537 134.396 28.8171 134.935 30.6516C135.027 30.9719 134.548 31.1094 134.454 30.7922Z" fill="#242422"/>
<path d="M136.372 31.2317C137.737 28.7029 139.378 26.3162 141.247 24.138C141.46 23.888 141.843 24.2111 141.626 24.4632C139.78 26.6145 138.16 28.9715 136.812 31.469C136.658 31.757 136.215 31.524 136.372 31.2317Z" fill="#242422"/>
<path d="M138.306 33.1724C137.981 33.1724 137.971 32.6817 138.299 32.6724C139.661 32.6368 141.033 32.315 142.269 31.7418C142.565 31.6005 142.781 32.0547 142.48 32.1949C140.431 33.146 138.806 33.1072 138.306 33.1724Z" fill="#242422"/>
<path d="M133.746 48.0103C133.712 48.0513 133.678 48.08 133.644 48.0964C133.61 48.1093 133.57 48.1124 133.521 48.1056C133.466 48.0979 133.407 48.0703 133.343 48.0227C133.283 47.9756 133.207 47.9228 133.117 47.8645C133.03 47.8066 132.925 47.7498 132.803 47.694C132.681 47.6382 132.531 47.5981 132.355 47.5735C132.211 47.5533 132.075 47.5537 131.949 47.5748C131.827 47.5929 131.72 47.629 131.628 47.683C131.536 47.7336 131.462 47.8006 131.405 47.884C131.348 47.964 131.312 48.0541 131.298 48.1541C131.28 48.2853 131.303 48.3992 131.367 48.4961C131.434 48.5935 131.525 48.6819 131.641 48.7613C131.76 48.8413 131.895 48.9182 132.047 48.9921C132.202 49.0631 132.359 49.1377 132.517 49.216C132.678 49.2948 132.833 49.3816 132.982 49.4762C133.134 49.5678 133.265 49.6758 133.374 49.8001C133.488 49.9215 133.572 50.0616 133.627 50.2206C133.686 50.3801 133.7 50.5668 133.67 50.7807C133.636 51.0257 133.559 51.2472 133.44 51.4452C133.325 51.6402 133.171 51.8016 132.977 51.9293C132.787 52.0575 132.56 52.1472 132.296 52.1983C132.032 52.2494 131.738 52.2523 131.413 52.207C131.051 52.1565 130.725 52.0493 130.434 51.8857C130.144 51.722 129.908 51.5326 129.727 51.3174L130.02 50.9624C130.054 50.9179 130.094 50.8865 130.138 50.8681C130.184 50.8463 130.241 50.8402 130.31 50.8499C130.375 50.859 130.439 50.8926 130.502 50.9505C130.564 51.0084 130.639 51.0735 130.728 51.1456C130.816 51.2143 130.927 51.2825 131.058 51.3501C131.19 51.4142 131.359 51.4607 131.566 51.4896C131.739 51.5137 131.892 51.5139 132.025 51.4904C132.159 51.4633 132.272 51.4193 132.365 51.3584C132.462 51.2946 132.538 51.2172 132.593 51.1264C132.648 51.0355 132.683 50.9366 132.698 50.8297C132.717 50.6916 132.693 50.5722 132.626 50.4714C132.563 50.3677 132.473 50.2741 132.354 50.1907C132.239 50.1078 132.104 50.0309 131.948 49.9599C131.793 49.889 131.635 49.8141 131.473 49.7353C131.312 49.6564 131.155 49.5695 131.003 49.4744C130.851 49.3793 130.719 49.2676 130.607 49.1394C130.498 49.0116 130.415 48.8628 130.358 48.693C130.304 48.5237 130.293 48.3251 130.325 48.0974C130.353 47.8938 130.422 47.7046 130.531 47.5298C130.643 47.3555 130.788 47.2087 130.967 47.0894C131.149 46.9706 131.363 46.8861 131.609 46.836C131.859 46.783 132.136 46.7777 132.44 46.8201C132.788 46.8687 133.094 46.9678 133.358 47.1172C133.626 47.2671 133.846 47.4527 134.02 47.6739L133.746 48.0103Z" fill="black" fill-opacity="0.87"/>
<path d="M125.405 49.9644C125.54 50.2049 125.696 50.3815 125.874 50.4943C126.055 50.6075 126.265 50.6808 126.503 50.714C126.965 50.7786 127.346 50.6628 127.644 50.3667C127.946 50.0676 128.142 49.5989 128.231 48.9605C128.277 48.6258 128.288 48.337 128.262 48.0942C128.24 47.8484 128.184 47.6436 128.094 47.4798C128.009 47.313 127.891 47.184 127.742 47.0929C127.593 46.9982 127.419 46.9369 127.219 46.909C126.926 46.8681 126.661 46.898 126.425 46.9988C126.193 47.1 125.969 47.2587 125.752 47.4747L125.405 49.9644ZM125.796 46.779C125.925 46.6633 126.059 46.5607 126.198 46.471C126.341 46.3784 126.491 46.3043 126.646 46.2486C126.802 46.1895 126.964 46.1505 127.132 46.1317C127.304 46.11 127.483 46.1121 127.669 46.1382C127.97 46.1801 128.232 46.2765 128.458 46.4276C128.686 46.5791 128.871 46.7808 129.012 47.0326C129.152 47.2845 129.246 47.5842 129.292 47.932C129.342 48.2802 129.337 48.6717 129.276 49.1065C129.222 49.4964 129.118 49.8512 128.964 50.171C128.814 50.4878 128.624 50.755 128.393 50.9726C128.166 51.1906 127.9 51.3506 127.598 51.4526C127.299 51.5516 126.974 51.5765 126.622 51.5274C126.308 51.4836 126.046 51.3942 125.836 51.2594C125.626 51.1246 125.446 50.9517 125.296 50.7408L124.977 53.0234L123.968 52.8825L124.949 45.8586L125.554 45.9431C125.696 45.9629 125.774 46.0425 125.79 46.1819L125.796 46.779Z" fill="black" fill-opacity="0.87"/>
<path d="M123.54 45.6625L122.805 50.9214L122.2 50.8368C122.062 50.8175 121.982 50.7377 121.959 50.5974L121.96 50.0593C121.829 50.1642 121.695 50.258 121.557 50.3407C121.419 50.4234 121.274 50.4912 121.122 50.5439C120.971 50.5931 120.813 50.6257 120.649 50.6415C120.485 50.6607 120.311 50.6576 120.128 50.632C119.838 50.5916 119.59 50.5076 119.382 50.3802C119.179 50.2532 119.014 50.0931 118.89 49.8999C118.766 49.7032 118.684 49.477 118.642 49.2214C118.6 48.9658 118.6 48.6896 118.641 48.3929L119.109 45.0439L120.123 45.1856L119.656 48.5345C119.603 48.9106 119.649 49.216 119.792 49.4505C119.935 49.6817 120.185 49.822 120.54 49.8717C120.799 49.9078 121.049 49.8811 121.29 49.7917C121.532 49.6987 121.766 49.559 121.993 49.3726L122.53 45.5216L123.54 45.6625Z" fill="black" fill-opacity="0.87"/>
<path d="M115.525 44.4593C115.911 44.5132 116.251 44.6257 116.544 44.7967C116.84 44.9648 117.081 45.1831 117.265 45.4515C117.453 45.717 117.582 46.0253 117.653 46.3764C117.724 46.724 117.731 47.1049 117.673 47.519C117.615 47.9331 117.504 48.2993 117.34 48.6176C117.176 48.936 116.967 49.197 116.714 49.4009C116.463 49.6052 116.172 49.7492 115.841 49.8331C115.513 49.9139 115.156 49.9274 114.769 49.8734C114.379 49.819 114.036 49.7078 113.739 49.5397C113.446 49.3687 113.206 49.1504 113.018 48.8849C112.83 48.6195 112.699 48.3109 112.625 47.9594C112.554 47.6083 112.548 47.2257 112.605 46.8116C112.663 46.3975 112.774 46.033 112.938 45.7181C113.105 45.4003 113.316 45.1394 113.569 44.9356C113.823 44.7283 114.114 44.5843 114.442 44.5034C114.774 44.4195 115.135 44.4048 115.525 44.4593ZM114.879 49.0867C115.376 49.156 115.77 49.0405 116.062 48.74C116.354 48.4394 116.542 47.9855 116.627 47.3782C116.711 46.7709 116.655 46.2827 116.456 45.9138C116.259 45.5414 115.911 45.3206 115.414 45.2512C114.91 45.1809 114.511 45.2975 114.215 45.6009C113.923 45.9015 113.735 46.3554 113.65 46.9627C113.566 47.57 113.622 48.0582 113.821 48.4271C114.022 48.7965 114.375 49.0164 114.879 49.0867Z" fill="black" fill-opacity="0.87"/>
<path d="M110.485 44.8686C110.702 44.5471 110.943 44.3046 111.209 44.1412C111.475 43.9777 111.775 43.9194 112.109 43.9661C112.223 43.982 112.328 44.0107 112.425 44.0523C112.525 44.0909 112.609 44.1414 112.678 44.2037L112.504 44.9552C112.467 45.045 112.404 45.0837 112.314 45.0711C112.266 45.0644 112.194 45.0457 112.1 45.0149C112.006 44.9807 111.904 44.9559 111.794 44.9405C111.632 44.9179 111.485 44.922 111.354 44.953C111.224 44.9805 111.102 45.0339 110.989 45.1131C110.88 45.1893 110.778 45.2894 110.683 45.4134C110.589 45.5339 110.497 45.6742 110.408 45.8341L109.948 49.1261L108.939 48.9852L109.673 43.7263L110.253 43.8072C110.363 43.8226 110.435 43.8537 110.467 43.9004C110.503 43.9441 110.523 44.0172 110.526 44.1197L110.485 44.8686Z" fill="black" fill-opacity="0.87"/>
<path d="M108.246 45.2001L107.842 48.0987C107.428 48.3154 107 48.4613 106.556 48.5367C106.114 48.6085 105.642 48.6096 105.142 48.5397C104.541 48.4559 104.011 48.2869 103.55 48.0326C103.093 47.7788 102.717 47.4607 102.422 47.0783C102.127 46.6959 101.919 46.2588 101.798 45.7669C101.68 45.2755 101.66 44.7503 101.738 44.1913C101.817 43.6289 101.976 43.127 102.217 42.6857C102.462 42.2415 102.774 41.8768 103.151 41.5918C103.529 41.3033 103.966 41.1004 104.46 40.983C104.959 40.8627 105.502 40.8435 106.088 40.9253C106.385 40.9668 106.656 41.0275 106.902 41.1075C107.151 41.188 107.379 41.2849 107.584 41.398C107.79 41.5112 107.976 41.6392 108.143 41.7821C108.313 41.9219 108.468 42.0754 108.606 42.2425L108.221 42.6953C108.162 42.768 108.091 42.8091 108.009 42.8187C107.927 42.8283 107.843 42.7973 107.758 42.7257C107.675 42.6614 107.584 42.587 107.483 42.5026C107.386 42.4186 107.265 42.3367 107.122 42.2569C106.981 42.1775 106.814 42.1031 106.62 42.0338C106.425 41.9644 106.192 41.9107 105.919 41.8727C105.512 41.8158 105.135 41.8318 104.789 41.9206C104.443 42.006 104.137 42.1568 103.871 42.373C103.605 42.5891 103.385 42.8645 103.212 43.1992C103.039 43.5303 102.922 43.9133 102.861 44.3481C102.798 44.8036 102.806 45.2217 102.887 45.6023C102.968 45.9795 103.11 46.3106 103.313 46.5958C103.52 46.878 103.785 47.1085 104.108 47.2873C104.435 47.4666 104.81 47.5858 105.235 47.6451C105.401 47.6682 105.555 47.681 105.699 47.6835C105.847 47.683 105.989 47.6747 106.125 47.6585C106.261 47.6423 106.393 47.6168 106.521 47.5819C106.652 47.5474 106.783 47.5076 106.912 47.4623L107.13 45.9043L106.032 45.7512C105.963 45.7415 105.909 45.7129 105.87 45.6652C105.834 45.618 105.821 45.5634 105.83 45.5013L105.917 44.8749L108.246 45.2001Z" fill="black" fill-opacity="0.87"/>
<path d="M95.9428 41.7249C96.3293 41.7788 96.6689 41.8913 96.9616 42.0624C97.2583 42.2304 97.4987 42.4487 97.6829 42.7171C97.871 42.9826 98.0003 43.2909 98.0709 43.642C98.142 43.9896 98.1486 44.3705 98.0908 44.7846C98.033 45.1987 97.9221 45.5649 97.7581 45.8832C97.594 46.2016 97.3852 46.4627 97.1316 46.6665C96.8814 46.8708 96.5904 47.0148 96.2586 47.0987C95.9307 47.1796 95.5735 47.193 95.187 47.1391C94.7971 47.0846 94.4538 46.9734 94.1571 46.8053C93.8644 46.6343 93.624 46.416 93.4359 46.1506C93.2478 45.8851 93.1167 45.5766 93.0427 45.225C92.9721 44.8739 92.9657 44.4913 93.0235 44.0772C93.0813 43.6631 93.192 43.2986 93.3555 42.9837C93.523 42.6659 93.7336 42.405 93.9872 42.2012C94.2413 41.994 94.5323 41.8499 94.8602 41.769C95.192 41.6852 95.5529 41.6705 95.9428 41.7249ZM95.2968 46.3523C95.7937 46.4217 96.1881 46.3061 96.4798 46.0056C96.7715 45.7051 96.9598 45.2511 97.0446 44.6438C97.1293 44.0365 97.0726 43.5484 96.8743 43.1794C96.6765 42.8071 96.3292 42.5862 95.8323 42.5168C95.3285 42.4465 94.9287 42.5631 94.6331 42.8666C94.3413 43.1671 94.1531 43.621 94.0683 44.2283C93.9835 44.8357 94.0403 45.3238 94.2386 45.6927C94.4403 46.0621 94.793 46.282 95.2968 46.3523Z" fill="black" fill-opacity="0.87"/>
<path d="M92.5236 39.1163L91.486 46.5492L90.927 46.4711C90.8407 46.4591 90.7704 46.4335 90.7161 46.3942C90.6652 46.3554 90.6152 46.2975 90.5662 46.2203L87.1264 40.2046C87.1203 40.2987 87.1127 40.3909 87.1036 40.4811C87.098 40.5717 87.0897 40.6568 87.0786 40.7361L86.3668 45.8346L85.3989 45.6994L86.4365 38.2666L87.0059 38.3461C87.1025 38.3596 87.1733 38.3818 87.2182 38.4127C87.2636 38.4401 87.3101 38.4976 87.3577 38.5852L90.8072 44.6075C90.8108 44.506 90.8157 44.4082 90.8218 44.314C90.8318 44.2169 90.8426 44.127 90.8542 44.0441L91.5608 38.9819L92.5236 39.1163Z" fill="black" fill-opacity="0.87"/>
</svg>
