<svg width="165" height="164" viewBox="0 0 165 164" fill="none" xmlns="http://www.w3.org/2000/svg">
<path d="M74.6945 66.3696C74.4317 66.643 74.1583 66.8953 73.8535 67.1161L66.0845 69.9019C68.414 67.7568 71.5671 66.6678 74.6945 66.3696Z" fill="#DDDDDB"/>
<path d="M74.6945 66.3696C74.4317 66.643 74.1583 66.8953 73.8535 67.1161L66.0845 69.9019C68.414 67.7568 71.5671 66.6678 74.6945 66.3696Z" fill="#0D0D0D" fill-opacity="0.82"/>
<path d="M60.8598 71.7842L58.4734 72.6358C59.2408 72.2572 60.0398 71.9733 60.8598 71.7842Z" fill="#DDDDDB"/>
<path d="M60.8598 71.7842L58.4734 72.6358C59.2408 72.2572 60.0398 71.9733 60.8598 71.7842Z" fill="#0D0D0D" fill-opacity="0.82"/>
<path d="M75.1887 65.8128C71.7901 65.9907 68.1242 67.2369 65.5694 69.6604C65.448 69.7698 65.4635 69.9909 65.622 70.0704L62.3 71.2689C62.2894 71.1322 62.1738 71.0271 62.0161 71.0376C60.1553 71.2478 58.3892 71.9101 56.8649 72.9719C49.0361 71.9634 49.8172 64.4579 53.5217 65.2766C52.6071 63.7522 51.1984 62.1858 51.1038 60.3775C50.8793 55.6956 55.6048 53.5606 59.861 57.4759C59.02 56.225 58.8938 54.4589 59.6297 53.1237C61.7589 49.3004 67.9938 50.5921 68.3027 55.5102C71.1307 53.9648 75.0625 55.5628 76.3556 58.5168C77.4175 60.9209 76.7882 63.8039 75.1887 65.8128Z" fill="#DDDDDB"/>
<path d="M75.1887 65.8128C71.7901 65.9907 68.1242 67.2369 65.5694 69.6604C65.448 69.7698 65.4635 69.9909 65.622 70.0704L62.3 71.2689C62.2894 71.1322 62.1738 71.0271 62.0161 71.0376C60.1553 71.2478 58.3892 71.9101 56.8649 72.9719C49.0361 71.9634 49.8172 64.4579 53.5217 65.2766C52.6071 63.7522 51.1984 62.1858 51.1038 60.3775C50.8793 55.6956 55.6048 53.5606 59.861 57.4759C59.02 56.225 58.8938 54.4589 59.6297 53.1237C61.7589 49.3004 67.9938 50.5921 68.3027 55.5102C71.1307 53.9648 75.0625 55.5628 76.3556 58.5168C77.4175 60.9209 76.7882 63.8039 75.1887 65.8128Z" fill="#0D0D0D" fill-opacity="0.82"/>
<path d="M95.4839 83.5341L94.832 77.6401C94.7925 77.2935 95.3166 77.2384 95.3535 77.5826L96.0054 83.4766C96.0446 83.8209 95.5213 83.8843 95.4839 83.5341Z" fill="#DDDDDB"/>
<path d="M48.1084 102.519C41.7528 102.519 37.868 96.4835 38.7824 91.2988C39.5062 87.2132 43.1651 83.8233 47.2943 83.4136C49.5334 83.1898 52.4193 84.0173 53.4531 86.3488C53.5938 86.6684 53.112 86.879 52.9727 86.5623C52.0435 84.468 49.402 83.7309 47.3456 83.9367C43.4434 84.3237 39.9836 87.5284 39.2998 91.3901C38.6181 95.2529 40.7669 99.4482 44.2975 101.149C47.8282 102.852 52.4491 101.92 55.0455 98.9801C55.2805 98.7203 55.6671 99.069 55.4397 99.3281C53.6174 101.391 50.8537 102.519 48.1084 102.519Z" fill="#DDDDDB"/>
<path d="M99.071 102.721C97.0721 102.453 95.2693 101.508 93.8567 99.9902C93.6189 99.7365 94.0039 99.3778 94.2407 99.6319C95.5702 101.06 97.2641 101.948 99.1408 102.2C99.4947 102.247 99.4044 102.776 99.071 102.721Z" fill="#DDDDDB"/>
<path d="M106.89 99.3309C108.853 97.1467 109.727 94.0878 109.171 91.3482C108.387 87.5147 104.846 84.4004 100.936 84.1047C98.8788 83.9605 96.2516 84.771 95.3738 86.8767C95.2426 87.195 94.7537 86.9962 94.8893 86.6744C95.8646 84.3311 98.7279 83.4236 100.973 83.5801C105.112 83.8938 108.856 87.1877 109.686 91.243C110.275 94.1432 109.353 97.3767 107.28 99.682C107.05 99.9412 106.656 99.5896 106.89 99.3309Z" fill="#DDDDDB"/>
<path d="M55.1038 99.9352C51.1759 91.5264 52.5043 78.8376 60.161 74.4421C60.4612 74.2684 60.7242 74.7246 60.4218 74.8979C53.0053 79.1559 51.7487 91.511 55.5802 99.7124C58.4968 105.959 65.2429 109.812 71.9993 109.09C72.3384 109.046 72.4067 109.575 72.0547 109.613C65.1162 110.361 58.1263 106.407 55.1038 99.9352Z" fill="#DDDDDB"/>
<path d="M81.8807 109.119C90.655 107.544 97.3671 98.1633 94.8328 85.793C94.764 85.4526 95.2765 85.3463 95.3482 85.6873C97.942 98.3621 91.0296 108.011 81.9731 109.636C81.6286 109.694 81.54 109.18 81.8807 109.119Z" fill="#DDDDDB"/>
<path d="M72.0415 123.647C71.9356 118.334 71.8686 114.129 71.7725 109.279C71.7694 109.134 71.8855 109.014 72.0302 109.011H72.0353C72.178 109.011 72.2951 109.126 72.2982 109.269C72.3926 114.036 72.4516 117.842 72.5671 123.636C72.5745 123.984 72.049 123.998 72.0415 123.647Z" fill="#DDDDDB"/>
<path d="M83.5849 122.55C83.5932 119.853 82.778 111.812 82.7862 109.088C82.7862 108.944 82.9043 108.827 83.049 108.827C83.1938 108.827 83.3118 108.945 83.3118 109.091C83.3036 111.788 84.1187 119.829 84.1106 122.552C84.1106 122.9 83.5849 122.903 83.5849 122.55Z" fill="#DDDDDB"/>
<path d="M48.9872 92.507C47.435 90.9075 44.776 90.4819 42.7997 91.5209C42.4922 91.6832 42.2472 91.2173 42.5553 91.0558C44.7287 89.9127 47.6557 90.3793 49.365 92.1415C49.6075 92.3926 49.2274 92.7568 48.9872 92.507Z" fill="#DDDDDB"/>
<path d="M45.7542 94.8323C45.4462 93.6281 45.6802 92.3001 46.3794 91.2802C46.5773 90.9932 47.0086 91.2913 46.8126 91.5779C46.1977 92.4747 45.9923 93.6425 46.2634 94.702C46.3491 95.0375 45.8419 95.17 45.7542 94.8323Z" fill="#DDDDDB"/>
<path d="M99.1274 92.3632C100.788 90.5589 103.702 90.0158 105.907 91.102C106.221 91.2561 105.986 91.7284 105.675 91.5732C103.67 90.5856 101.024 91.0804 99.5134 92.7195C99.2785 92.9755 98.8917 92.6185 99.1274 92.3632Z" fill="#DDDDDB"/>
<path d="M102.293 94.8424C102.537 93.7803 102.302 92.6182 101.664 91.7332C101.463 91.4521 101.885 91.1429 102.091 91.4262C102.815 92.4318 103.083 93.7526 102.807 94.9594C102.726 95.3 102.217 95.1798 102.293 94.8424Z" fill="#DDDDDB"/>
<path d="M80.6579 78.9009C78.9578 77.6151 76.4389 77.8214 76.0298 78.7264C75.8866 79.045 75.4088 78.8268 75.5514 78.5108C76.1854 77.1043 79.2264 77.1598 80.9742 78.4821C81.2517 78.6908 80.9347 79.1115 80.6579 78.9009Z" fill="#DDDDDB"/>
<path d="M74.9078 91.2989C76.0864 90.9049 77.0337 90.8622 78.0411 90.1926C79.4956 89.2316 79.0106 87.9385 78.7741 86.2257C78.1788 81.8176 77.6815 78.9945 77.0761 74.5153C77.0565 74.3711 77.1582 74.2386 77.3019 74.2196C77.4456 74.196 77.5771 74.3012 77.5976 74.4445C77.799 75.9372 79.3952 86.8057 79.4045 86.8622C79.6386 88.2805 79.8603 89.6203 78.3316 90.6305C77.234 91.3603 76.2487 91.4052 75.0741 91.7978C74.7419 91.9086 74.5801 91.4089 74.9078 91.2989Z" fill="#DDDDDB"/>
<path d="M71.5073 80.5561C71.5082 81.5685 70.275 82.3907 68.7564 82.392C67.2353 82.3933 66.0007 81.5734 65.9998 80.561C65.9989 79.5486 67.232 78.7264 68.7532 78.7251C70.2718 78.7238 71.5064 79.5438 71.5073 80.5561Z" fill="#DDDDDB"/>
<path d="M90.6069 80.5477C90.6078 81.5554 89.3746 82.3738 87.856 82.3752C86.3349 82.3765 85.1003 81.5603 85.0994 80.5526C85.0985 79.5448 86.3316 78.7264 87.8528 78.7251C89.3714 78.7238 90.606 79.54 90.6069 80.5477Z" fill="#DDDDDB"/>
<path d="M83.5296 127.415C85.2737 127.167 86.7705 125.693 87.0512 123.957C87.3318 122.217 86.3708 120.35 84.795 119.567C85.782 118.853 85.6421 117.221 84.7999 116.34C83.9552 115.461 82.6774 115.169 81.4665 115.034C78.1058 114.665 74.6458 115.215 71.5765 116.631C70.5149 117.122 69.0582 117.536 68.7746 118.84C68.6487 119.412 68.8731 120.205 69.0641 120.751C69.3661 121.614 69.8881 121.797 70.6737 121.929C70.8874 121.965 70.373 122.431 70.3228 122.458C70.0762 122.592 69.8304 122.581 69.5845 122.799C68.327 123.918 68.7942 125.834 70.205 126.388C73.8001 127.803 77.3585 128.336 81.1776 127.748" fill="#AEEA00"/>
<path d="M83.5296 127.415C85.2737 127.167 86.7705 125.693 87.0512 123.957C87.3318 122.217 86.3708 120.35 84.795 119.567C85.782 118.853 85.6421 117.221 84.7999 116.34C83.9552 115.461 82.6774 115.169 81.4665 115.034C78.1058 114.665 74.6458 115.215 71.5765 116.631C70.5149 117.122 69.0582 117.536 68.7746 118.84C68.6487 119.412 68.8731 120.205 69.0641 120.751C69.3661 121.614 69.8881 121.797 70.6737 121.929C70.8874 121.965 70.373 122.431 70.3228 122.458C70.0762 122.592 69.8304 122.581 69.5845 122.799C68.327 123.918 68.7942 125.834 70.205 126.388C73.8001 127.803 77.3585 128.336 81.1776 127.748" fill="#0D0D0D" fill-opacity="0.32"/>
<path d="M69.9769 122.069C68.788 121.458 68.5878 119.924 68.5468 118.656C68.5372 118.316 69.0571 118.278 69.0724 118.639C69.1083 119.763 69.2716 121.116 70.2171 121.601C71.0427 122.026 71.2622 121.798 81.1293 120.269C81.4864 120.225 81.5453 120.737 81.2114 120.789C71.5758 122.287 71.0041 122.595 69.9769 122.069Z" fill="#DDDDDB"/>
<path d="M53.1635 85.8827C55.3503 83.7103 57.7198 81.7068 60.2063 79.9287C60.4864 79.7247 60.7958 80.1535 60.5122 80.3557C58.0483 82.118 55.7004 84.103 53.5331 86.2553C53.285 86.501 52.9165 86.126 53.1635 85.8827Z" fill="#DDDDDB"/>
<path d="M62.6374 87.6215C57.6598 82.1896 61.1296 72.7449 68.287 72.7383H68.2931C75.4206 72.7383 78.9451 82.1541 73.9653 87.6118C70.8496 91.023 65.7741 91.0449 62.6374 87.6215ZM68.2931 73.2639H68.287C61.6064 73.2706 58.3444 82.157 63.0254 87.2668C65.9423 90.4514 70.6604 90.4512 73.5773 87.2571C78.2389 82.1506 74.9781 73.2639 68.2931 73.2639Z" fill="#DDDDDB"/>
<path d="M88.4882 90.161C81.359 90.161 77.8403 80.7447 82.818 75.2876C87.8736 69.7526 96.4789 73.7375 96.4857 81.4336C96.4898 86.2413 92.9048 90.1569 88.4944 90.161H88.4882ZM83.2071 75.6423C78.546 80.7462 81.8015 89.6354 88.4882 89.6354H88.4944C95.18 89.6287 98.4373 80.7405 93.758 75.6325C90.841 72.4479 86.122 72.4481 83.2071 75.6423Z" fill="#DDDDDB"/>
<path d="M102.808 135.507C101.774 136.539 100.481 136.676 98.9924 136.771C82.4695 137.834 65.8758 137.795 49.3581 136.654C44.5975 136.325 50.4501 131.974 51.6721 131.016C53.6147 129.494 55.9171 128.469 58.2813 127.798C61.411 126.91 64.6754 126.612 67.914 126.316C73.6862 125.792 79.3924 126.571 85.1875 126.56C89.2611 126.552 93.4576 126.967 97.2542 128.534C99.2205 129.345 105.69 132.629 102.808 135.507Z" fill="#AEEA00"/>
<path d="M102.808 135.507C101.774 136.539 100.481 136.676 98.9924 136.771C82.4695 137.834 65.8758 137.795 49.3581 136.654C44.5975 136.325 50.4501 131.974 51.6721 131.016C53.6147 129.494 55.9171 128.469 58.2813 127.798C61.411 126.91 64.6754 126.612 67.914 126.316C73.6862 125.792 79.3924 126.571 85.1875 126.56C89.2611 126.552 93.4576 126.967 97.2542 128.534C99.2205 129.345 105.69 132.629 102.808 135.507Z" fill="#0D0D0D" fill-opacity="0.32"/>
<path d="M73.0466 97.1998C72.2043 95.7372 70.3004 95.2584 68.8661 96.1521C68.571 96.3353 68.2938 95.89 68.589 95.7055C70.2481 94.6707 72.4925 95.1849 73.5025 96.937C73.6744 97.2378 73.223 97.5012 73.0466 97.1998Z" fill="#DDDDDB"/>
<path d="M101.261 135.439C101.126 132.139 101.835 126.462 99.6777 123.755C98.9496 122.834 93.3964 119.295 93.9901 117.139C94.1493 116.563 94.6872 116.167 95.6297 115.937C93.9758 114.719 94.0795 113.556 94.3135 112.939C94.8679 111.478 97.1255 110.351 99.2578 110.326C97.7374 109.169 96.5342 107.32 96.8576 105.832C97.0218 105.076 97.6409 104.158 99.6059 103.899C99.0405 103.048 98.4707 102.078 98.6573 101.077C98.935 99.5433 100.946 98.7957 102.486 98.5119C102.847 98.4436 103.274 98.4493 103.822 98.5314C104.921 98.6382 106.024 98.7708 106.893 99.1376C111.821 101.155 116.569 103.997 116.809 109.345C117.149 116.75 117.501 124.408 119.085 132.286C119.154 132.624 118.638 132.735 118.57 132.39C116.979 124.472 116.626 116.794 116.284 109.369C116.054 104.254 111.383 101.542 106.691 99.6232C105.857 99.2708 104.942 99.1923 104.108 99.0945C103.604 99.0287 103.055 98.9401 102.581 99.0283C101.328 99.2603 99.4041 99.8994 99.1747 101.172C99.109 101.525 99.1624 101.91 99.339 102.353C99.4569 102.668 100.058 103.687 100.236 103.864C100.502 103.962 100.446 104.354 100.163 104.373C99.0289 104.446 97.6245 104.779 97.3709 105.944C97.0732 107.313 98.4868 109.414 100.396 110.439C100.654 110.578 100.527 110.979 100.225 110.93C97.0159 110.341 92.0737 113.198 96.4459 115.85C96.6556 115.978 96.5902 116.3 96.3473 116.335C95.2478 116.495 94.6256 116.812 94.4973 117.279C94.0248 118.997 99.3612 122.506 100.089 123.429C102.383 126.306 101.651 132.062 101.786 135.418C101.801 135.766 101.276 135.79 101.261 135.439Z" fill="#DDDDDB"/>
<path d="M108.811 107.999C106.697 105.622 103.426 104.248 100.231 104.416C99.9136 104.475 99.8304 103.911 100.204 103.891C103.583 103.716 106.952 105.118 109.203 107.65C109.438 107.914 109.036 108.256 108.811 107.999Z" fill="#DDDDDB"/>
<path d="M102.033 119.079C100.375 117.698 98.3747 116.765 96.2506 116.38C95.9141 116.318 95.9948 115.806 96.345 115.862C98.5575 116.264 100.641 117.237 102.369 118.675C102.635 118.897 102.302 119.301 102.033 119.079Z" fill="#DDDDDB"/>
<path d="M105.81 114.818C104.387 112.907 102.343 111.494 100.055 110.838C99.715 110.741 99.8714 110.232 100.198 110.333C102.598 111.02 104.74 112.501 106.231 114.504C106.44 114.783 106.017 115.097 105.81 114.818Z" fill="#DDDDDB"/>
<path d="M142.024 36.7288C144.395 37.3266 146.437 37.3681 147.295 40.1612C147.781 41.7451 147.611 43.4474 147.41 45.0921C146.855 49.631 146.097 54.1451 145.139 58.6164C144.392 62.103 144.107 66.4961 140.719 68.5226C138.819 69.6579 136.429 69.3917 134.236 69.0888C93.0089 63.3953 92.4815 63.5981 88.2203 61.9043C86.2099 61.1052 82.5784 59.7566 81.4755 57.7938C80.8032 56.5974 80.9328 55.1279 81.1166 53.7678C82.1083 46.4328 84.121 39.2365 87.0784 32.4513C88.5598 29.0525 89.7515 29.0006 93.6273 29.2324C109.312 30.1704 125.681 32.6079 142.024 36.7288Z" fill="#AEEA00"/>
<path d="M142.024 36.7288C144.395 37.3266 146.437 37.3681 147.295 40.1612C147.781 41.7451 147.611 43.4474 147.41 45.0921C146.855 49.631 146.097 54.1451 145.139 58.6164C144.392 62.103 144.107 66.4961 140.719 68.5226C138.819 69.6579 136.429 69.3917 134.236 69.0888C93.0089 63.3953 92.4815 63.5981 88.2203 61.9043C86.2099 61.1052 82.5784 59.7566 81.4755 57.7938C80.8032 56.5974 80.9328 55.1279 81.1166 53.7678C82.1083 46.4328 84.121 39.2365 87.0784 32.4513C88.5598 29.0525 89.7515 29.0006 93.6273 29.2324C109.312 30.1704 125.681 32.6079 142.024 36.7288Z" fill="#0D0D0D" fill-opacity="0.32"/>
<path d="M26.8342 91.0282C23.5366 88.613 21.434 84.3766 21.2092 79.6956C20.7732 70.6184 27.596 57.4387 37.4538 54.0203C36.3832 47.0327 41.2392 41.6348 46.9687 37.4139C56.3861 30.4779 70.5281 25.3508 81.9813 31.7637C82.2852 31.9342 82.0247 32.3928 81.7247 32.2226C70.4901 25.9293 56.5658 30.9973 47.2808 37.8368C41.7776 41.8907 36.9735 47.1129 37.9558 53.855C40.8647 52.9514 44.7302 52.6811 47.1237 54.6076C51.5033 58.1262 47.2233 64.0642 41.7544 60.8747C39.4219 59.5149 38.0605 57.1305 37.5462 54.5444C27.9791 57.9177 21.3096 70.8252 21.7349 79.67C21.9515 84.1944 23.974 88.282 27.1442 90.6042C27.427 90.8113 27.1109 91.2343 26.8342 91.0282ZM38.0441 54.3781C38.5194 56.8503 39.8048 59.1294 42.0193 60.4209C46.8559 63.244 50.7134 58.1673 46.7952 55.0172C44.5379 53.2036 40.7783 53.5149 38.0441 54.3781Z" fill="#DDDDDB"/>
<path d="M141.323 32.3709C140.734 30.3633 140.625 28.215 141.008 26.1581C141.073 25.8134 141.589 25.9147 141.526 26.2546C141.157 28.2304 141.262 30.2945 141.829 32.223C141.925 32.5597 141.422 32.7043 141.323 32.3709Z" fill="#DDDDDB"/>
<path d="M143.34 32.833C144.775 30.1745 146.5 27.6654 148.465 25.3755C148.688 25.1127 149.091 25.4524 148.863 25.7174C146.923 27.9791 145.219 30.4569 143.802 33.0825C143.64 33.3853 143.174 33.1403 143.34 32.833Z" fill="#DDDDDB"/>
<path d="M145.373 34.8736C145.031 34.8736 145.021 34.3578 145.365 34.348C146.798 34.3105 148.24 33.9722 149.539 33.3696C149.85 33.2211 150.077 33.6986 149.76 33.846C147.606 34.8459 145.898 34.805 145.373 34.8736Z" fill="#DDDDDB"/>
<path d="M74.6945 66.3696C74.4317 66.643 74.1583 66.8953 73.8535 67.1161L66.0845 69.9019C68.414 67.7568 71.5671 66.6678 74.6945 66.3696Z" fill="#DDDDDB"/>
<path d="M74.6945 66.3696C74.4317 66.643 74.1583 66.8953 73.8535 67.1161L66.0845 69.9019C68.414 67.7568 71.5671 66.6678 74.6945 66.3696Z" fill="#0D0D0D" fill-opacity="0.82"/>
<path d="M60.8598 71.7842L58.4734 72.6358C59.2408 72.2572 60.0398 71.9733 60.8598 71.7842Z" fill="#DDDDDB"/>
<path d="M60.8598 71.7842L58.4734 72.6358C59.2408 72.2572 60.0398 71.9733 60.8598 71.7842Z" fill="#0D0D0D" fill-opacity="0.82"/>
<path d="M75.1887 65.8128C71.7901 65.9907 68.1242 67.2369 65.5694 69.6604C65.448 69.7698 65.4635 69.9909 65.622 70.0704L62.3 71.2689C62.2894 71.1322 62.1738 71.0271 62.0161 71.0376C60.1553 71.2478 58.3892 71.9101 56.8649 72.9719C49.0361 71.9634 49.8172 64.4579 53.5217 65.2766C52.6071 63.7522 51.1984 62.1858 51.1038 60.3775C50.8793 55.6956 55.6048 53.5606 59.861 57.4759C59.02 56.225 58.8938 54.4589 59.6297 53.1237C61.7589 49.3004 67.9938 50.5921 68.3027 55.5102C71.1307 53.9648 75.0625 55.5628 76.3556 58.5168C77.4175 60.9209 76.7882 63.8039 75.1887 65.8128Z" fill="#DDDDDB"/>
<path d="M75.1887 65.8128C71.7901 65.9907 68.1242 67.2369 65.5694 69.6604C65.448 69.7698 65.4635 69.9909 65.622 70.0704L62.3 71.2689C62.2894 71.1322 62.1738 71.0271 62.0161 71.0376C60.1553 71.2478 58.3892 71.9101 56.8649 72.9719C49.0361 71.9634 49.8172 64.4579 53.5217 65.2766C52.6071 63.7522 51.1984 62.1858 51.1038 60.3775C50.8793 55.6956 55.6048 53.5606 59.861 57.4759C59.02 56.225 58.8938 54.4589 59.6297 53.1237C61.7589 49.3004 67.9938 50.5921 68.3027 55.5102C71.1307 53.9648 75.0625 55.5628 76.3556 58.5168C77.4175 60.9209 76.7882 63.8039 75.1887 65.8128Z" fill="#0D0D0D" fill-opacity="0.82"/>
<path d="M138.959 121.499C138.959 131.013 111.227 138.719 77.018 138.719C42.8197 138.719 15.0869 131.013 15.0869 121.499C15.0869 115.055 27.7969 109.441 46.6254 106.487C50.4626 105.877 54.5521 105.383 58.8518 105.025C62.5701 108.218 67.3942 109.257 72.2556 109.272C71.6774 115.58 71.7405 121.951 72.4449 128.248L83.9144 128.5C83.7672 122.014 83.3466 115.601 83.1995 109.115C85.9118 108.211 88.3402 106.707 90.2851 104.668C91.8657 104.756 97.2325 105.166 97.581 105.236C97.3918 105.435 97.2341 105.656 97.108 105.898C97.108 105.908 97.108 105.908 97.108 105.908C96.0046 107.876 98.064 109.44 99.957 110.492C100.062 110.555 100.167 110.618 100.272 110.671C98.9782 110.455 97.549 110.357 96.3405 110.87C95.1402 111.381 94.3284 112.599 94.4903 113.73C94.6375 114.718 95.4574 115.507 96.309 116.074C96.0882 116.106 95.8675 116.19 95.6888 116.274C94.9141 116.371 94.1741 117.469 94.3116 118.019C94.3326 118.419 94.5113 118.797 94.7215 119.155C96.6389 122.428 99.2955 121.919 100.514 124.6C100.84 125.389 100.966 126.345 101.071 127.67C101.313 130.855 101.514 135.258 101.544 136.133C106.829 135.018 111.519 133.611 118.912 132.926C118.68 131.255 118.438 129.583 118.207 127.922C117.618 123.812 117.461 119.933 116.872 115.822C116.504 113.204 116.798 110.681 116.304 108.179C130.139 111.333 138.959 116.137 138.959 121.499Z" fill="#DDDDDB"/>
<path d="M138.959 121.499C138.959 131.013 111.227 138.719 77.018 138.719C42.8197 138.719 15.0869 131.013 15.0869 121.499C15.0869 115.055 27.7969 109.441 46.6254 106.487C50.4626 105.877 54.5521 105.383 58.8518 105.025C62.5701 108.218 67.3942 109.257 72.2556 109.272C71.6774 115.58 71.7405 121.951 72.4449 128.248L83.9144 128.5C83.7672 122.014 83.3466 115.601 83.1995 109.115C85.9118 108.211 88.3402 106.707 90.2851 104.668C91.8657 104.756 97.2325 105.166 97.581 105.236C97.3918 105.435 97.2341 105.656 97.108 105.898C97.108 105.908 97.108 105.908 97.108 105.908C96.0046 107.876 98.064 109.44 99.957 110.492C100.062 110.555 100.167 110.618 100.272 110.671C98.9782 110.455 97.549 110.357 96.3405 110.87C95.1402 111.381 94.3284 112.599 94.4903 113.73C94.6375 114.718 95.4574 115.507 96.309 116.074C96.0882 116.106 95.8675 116.19 95.6888 116.274C94.9141 116.371 94.1741 117.469 94.3116 118.019C94.3326 118.419 94.5113 118.797 94.7215 119.155C96.6389 122.428 99.2955 121.919 100.514 124.6C100.84 125.389 100.966 126.345 101.071 127.67C101.313 130.855 101.514 135.258 101.544 136.133C106.829 135.018 111.519 133.611 118.912 132.926C118.68 131.255 118.438 129.583 118.207 127.922C117.618 123.812 117.461 119.933 116.872 115.822C116.504 113.204 116.798 110.681 116.304 108.179C130.139 111.333 138.959 116.137 138.959 121.499Z" fill="#0D0D0D" fill-opacity="0.64"/>
<path d="M100.64 83.8315C100.556 83.821 100.472 83.821 100.388 83.821C98.2223 83.842 95.9515 84.8091 95.1315 86.7751L95.0789 87.3743C95.0789 87.1837 94.6801 83.4156 93.7859 81.0352L99.7572 81.3294C99.9302 81.8295 100.072 82.2475 100.64 83.8315Z" fill="#DDDDDB"/>
<path d="M100.64 83.8315C100.556 83.821 100.472 83.821 100.388 83.821C98.2223 83.842 95.9515 84.8091 95.1315 86.7751L95.0789 87.3743C95.0789 87.1837 94.6801 83.4156 93.7859 81.0352L99.7572 81.3294C99.9302 81.8295 100.072 82.2475 100.64 83.8315Z" fill="#0D0D0D" fill-opacity="0.82"/>
<path d="M48.3706 83.6528C48.6439 82.0548 48.9593 80.4569 49.2957 78.8589L55.9608 79.1848C55.7611 79.4687 55.5719 79.7735 55.3721 80.0783C54.2052 81.8971 53.6165 85.0719 53.4273 87.7527L53.217 86.4596C52.4075 84.662 50.389 83.7369 48.3706 83.6528Z" fill="#DDDDDB"/>
<path d="M48.3706 83.6528C48.6439 82.0548 48.9593 80.4569 49.2957 78.8589L55.9608 79.1848C55.7611 79.4687 55.5719 79.7735 55.3721 80.0783C54.2052 81.8971 53.6165 85.0719 53.4273 87.7527L53.217 86.4596C52.4075 84.662 50.389 83.7369 48.3706 83.6528Z" fill="#0D0D0D" fill-opacity="0.82"/>
<path d="M101.502 134.283C101.155 134.63 100.339 134.773 99.8517 134.819C92.8502 135.513 85.8486 133.894 78.8471 133.19C73.3054 132.622 73.344 134.167 71.1833 134.63C70.153 134.84 69.1858 134.178 68.1556 134.083C66.7994 133.967 65.2855 134.23 63.9294 134.388C59.882 134.851 54.983 137.51 50.9671 136.964C47.0142 136.428 46.825 131.613 46.7935 128.417C46.7409 121.11 46.6779 113.793 46.6253 106.487C46.6148 105.32 46.6009 103.231 46.5938 102.145C49.5373 102.618 52.7227 101.672 54.8463 99.5801C54.9515 99.8113 55.046 100.053 55.1617 100.284C57.532 105.279 63.0041 109.243 72.2555 109.273C71.6773 115.581 71.7404 121.951 72.4447 128.249L83.9143 128.501C83.7671 122.015 83.3465 115.602 83.1994 109.115C88.6539 107.297 92.5616 103.187 94.1853 98.1084L94.0486 99.8113C95.4573 101.325 97.2235 102.208 99.1053 102.461C99.1999 102.744 99.3471 102.997 99.5153 103.249C99.5888 103.375 100.009 104.111 100.146 104.111C97.2022 104.304 97.2065 105.804 97.1078 105.909C96.7548 107.638 98.6879 109.879 100.272 110.671C96.7239 110.029 91.6678 113.265 96.3089 116.075C90.3151 116.935 98.9612 122.439 99.8832 123.591C101.895 126.048 101.502 131.099 101.502 134.283Z" fill="#DDDDDB"/>
<path d="M101.502 134.283C101.155 134.63 100.339 134.773 99.8517 134.819C92.8502 135.513 85.8486 133.894 78.8471 133.19C73.3054 132.622 73.344 134.167 71.1833 134.63C70.153 134.84 69.1858 134.178 68.1556 134.083C66.7994 133.967 65.2855 134.23 63.9294 134.388C59.882 134.851 54.983 137.51 50.9671 136.964C47.0142 136.428 46.825 131.613 46.7935 128.417C46.7409 121.11 46.6779 113.793 46.6253 106.487C46.6148 105.32 46.6009 103.231 46.5938 102.145C49.5373 102.618 52.7227 101.672 54.8463 99.5801C54.9515 99.8113 55.046 100.053 55.1617 100.284C57.532 105.279 63.0041 109.243 72.2555 109.273C71.6773 115.581 71.7404 121.951 72.4447 128.249L83.9143 128.501C83.7671 122.015 83.3465 115.602 83.1994 109.115C88.6539 107.297 92.5616 103.187 94.1853 98.1084L94.0486 99.8113C95.4573 101.325 97.2235 102.208 99.1053 102.461C99.1999 102.744 99.3471 102.997 99.5153 103.249C99.5888 103.375 100.009 104.111 100.146 104.111C97.2022 104.304 97.2065 105.804 97.1078 105.909C96.7548 107.638 98.6879 109.879 100.272 110.671C96.7239 110.029 91.6678 113.265 96.3089 116.075C90.3151 116.935 98.9612 122.439 99.8832 123.591C101.895 126.048 101.502 131.099 101.502 134.283Z" fill="#0D0D0D" fill-opacity="0.82"/>
<path d="M95.4839 83.5341L94.832 77.6401C94.7925 77.2935 95.3166 77.2384 95.3535 77.5826L96.0054 83.4766C96.0446 83.8209 95.5213 83.8843 95.4839 83.5341Z" fill="#DDDDDB"/>
<path d="M100.041 82.1499C98.8039 77.1362 96.9503 71.8655 93.1446 68.3781C88.8239 64.4253 82.9893 63.5631 77.2072 63.868C74.654 64.0443 72.1926 64.2937 69.7221 65.3399C67.7141 66.1808 65.8744 67.537 64.7495 69.3347C64.4762 69.7657 63.8454 69.8708 63.4249 69.5659C59.9984 67.0656 54.7216 67.8488 52.3234 71.0484C51.7347 71.7421 51.2616 72.5306 50.8516 73.3401C49.1822 76.5909 48.3731 79.9233 47.8975 83.6532C48.0552 83.6322 48.2128 83.6427 48.3706 83.6532C50.389 83.7373 52.4074 84.6624 53.2169 86.4601L53.4272 87.7531C53.6164 85.0723 54.2052 81.8976 55.3721 80.0787C57.543 76.7662 59.6383 74.2659 63.5195 72.6988C68.9897 70.4699 78.0604 70.9903 83.8513 72.2152C88.4846 73.1998 92.2986 76.9458 93.7859 81.0356C94.6679 83.3833 95.079 87.2646 95.079 87.3747L95.1316 86.7755C95.9516 84.8095 98.2223 83.8424 100.388 83.8214C100.304 83.2747 100.188 82.7175 100.041 82.1499ZM62.0687 71.5635C61.9825 71.5758 60.9214 71.7226 60.8598 71.7842C60.0398 71.9734 59.2408 72.2573 58.4734 72.6358C58.4628 72.6358 58.4628 72.6463 58.4523 72.6463C56.1619 73.7806 55.5531 74.9275 55.2459 74.9275C55.0052 74.9275 54.8897 74.6529 55.0567 74.4861C56.7105 72.7368 59.2033 71.3556 62.0162 71.0379C62.3679 71.0144 62.4045 71.5118 62.0687 71.5635ZM83.1259 66.8747C77.2067 65.8926 70.7884 65.7127 66.2318 69.7762C65.9329 70.0157 65.9254 70.1126 65.7482 70.1126C65.7167 70.1126 65.6957 70.1126 65.6642 70.0915C65.6536 70.0915 65.6326 70.0812 65.6221 70.0706C65.4554 69.987 65.455 69.7625 65.5695 69.6606C70.2083 65.2602 76.9082 65.2895 83.2101 66.3596C83.5471 66.4078 83.4817 66.9256 83.1259 66.8747Z" fill="#DDDDDB"/>
<path d="M100.041 82.1499C98.8039 77.1362 96.9503 71.8655 93.1446 68.3781C88.8239 64.4253 82.9893 63.5631 77.2072 63.868C74.654 64.0443 72.1926 64.2937 69.7221 65.3399C67.7141 66.1808 65.8744 67.537 64.7495 69.3347C64.4762 69.7657 63.8454 69.8708 63.4249 69.5659C59.9984 67.0656 54.7216 67.8488 52.3234 71.0484C51.7347 71.7421 51.2616 72.5306 50.8516 73.3401C49.1822 76.5909 48.3731 79.9233 47.8975 83.6532C48.0552 83.6322 48.2128 83.6427 48.3706 83.6532C50.389 83.7373 52.4074 84.6624 53.2169 86.4601L53.4272 87.7531C53.6164 85.0723 54.2052 81.8976 55.3721 80.0787C57.543 76.7662 59.6383 74.2659 63.5195 72.6988C68.9897 70.4699 78.0604 70.9903 83.8513 72.2152C88.4846 73.1998 92.2986 76.9458 93.7859 81.0356C94.6679 83.3833 95.079 87.2646 95.079 87.3747L95.1316 86.7755C95.9516 84.8095 98.2223 83.8424 100.388 83.8214C100.304 83.2747 100.188 82.7175 100.041 82.1499ZM62.0687 71.5635C61.9825 71.5758 60.9214 71.7226 60.8598 71.7842C60.0398 71.9734 59.2408 72.2573 58.4734 72.6358C58.4628 72.6358 58.4628 72.6463 58.4523 72.6463C56.1619 73.7806 55.5531 74.9275 55.2459 74.9275C55.0052 74.9275 54.8897 74.6529 55.0567 74.4861C56.7105 72.7368 59.2033 71.3556 62.0162 71.0379C62.3679 71.0144 62.4045 71.5118 62.0687 71.5635ZM83.1259 66.8747C77.2067 65.8926 70.7884 65.7127 66.2318 69.7762C65.9329 70.0157 65.9254 70.1126 65.7482 70.1126C65.7167 70.1126 65.6957 70.1126 65.6642 70.0915C65.6536 70.0915 65.6326 70.0812 65.6221 70.0706C65.4554 69.987 65.455 69.7625 65.5695 69.6606C70.2083 65.2602 76.9082 65.2895 83.2101 66.3596C83.5471 66.4078 83.4817 66.9256 83.1259 66.8747Z" fill="#0D0D0D" fill-opacity="0.82"/>
<path d="M48.1084 102.519C41.7528 102.519 37.868 96.4835 38.7824 91.2988C39.5062 87.2132 43.1651 83.8233 47.2943 83.4136C49.5334 83.1898 52.4193 84.0173 53.4531 86.3488C53.5938 86.6684 53.112 86.879 52.9727 86.5623C52.0435 84.468 49.402 83.7309 47.3456 83.9367C43.4434 84.3237 39.9836 87.5284 39.2998 91.3901C38.6181 95.2529 40.7669 99.4482 44.2975 101.149C47.8282 102.852 52.4491 101.92 55.0455 98.9801C55.2805 98.7203 55.6671 99.069 55.4397 99.3281C53.6174 101.391 50.8537 102.519 48.1084 102.519Z" fill="#DDDDDB"/>
<path d="M99.071 102.721C97.0721 102.453 95.2693 101.508 93.8567 99.9902C93.6189 99.7365 94.0039 99.3778 94.2407 99.6319C95.5702 101.06 97.2641 101.948 99.1408 102.2C99.4947 102.247 99.4044 102.776 99.071 102.721Z" fill="#DDDDDB"/>
<path d="M106.89 99.3309C108.853 97.1467 109.727 94.0878 109.171 91.3482C108.387 87.5147 104.846 84.4004 100.936 84.1047C98.8788 83.9605 96.2516 84.771 95.3738 86.8767C95.2426 87.195 94.7537 86.9962 94.8893 86.6744C95.8646 84.3311 98.7279 83.4236 100.973 83.5801C105.112 83.8938 108.856 87.1877 109.686 91.243C110.275 94.1432 109.353 97.3767 107.28 99.682C107.05 99.9412 106.656 99.5896 106.89 99.3309Z" fill="#DDDDDB"/>
<path d="M55.1038 99.9352C51.1759 91.5264 52.5043 78.8376 60.161 74.4421C60.4612 74.2684 60.7242 74.7246 60.4218 74.8979C53.0053 79.1559 51.7487 91.511 55.5802 99.7124C58.4968 105.959 65.2429 109.812 71.9993 109.09C72.3384 109.046 72.4067 109.575 72.0547 109.613C65.1162 110.361 58.1263 106.407 55.1038 99.9352Z" fill="#DDDDDB"/>
<path d="M81.8807 109.119C90.655 107.544 97.3671 98.1633 94.8328 85.793C94.764 85.4526 95.2765 85.3463 95.3482 85.6873C97.942 98.3621 91.0296 108.011 81.9731 109.636C81.6286 109.694 81.54 109.18 81.8807 109.119Z" fill="#DDDDDB"/>
<path d="M72.0415 123.647C71.9356 118.334 71.8686 114.129 71.7725 109.279C71.7694 109.134 71.8855 109.014 72.0302 109.011H72.0353C72.178 109.011 72.2951 109.126 72.2982 109.269C72.3926 114.036 72.4516 117.842 72.5671 123.636C72.5745 123.984 72.049 123.998 72.0415 123.647Z" fill="#DDDDDB"/>
<path d="M83.5849 122.55C83.5932 119.853 82.778 111.812 82.7862 109.088C82.7862 108.944 82.9043 108.827 83.049 108.827C83.1938 108.827 83.3118 108.945 83.3118 109.091C83.3036 111.788 84.1187 119.829 84.1106 122.552C84.1106 122.9 83.5849 122.903 83.5849 122.55Z" fill="#DDDDDB"/>
<path d="M48.9872 92.507C47.435 90.9075 44.776 90.4819 42.7997 91.5209C42.4922 91.6832 42.2472 91.2173 42.5553 91.0558C44.7287 89.9127 47.6557 90.3793 49.365 92.1415C49.6075 92.3926 49.2274 92.7568 48.9872 92.507Z" fill="#DDDDDB"/>
<path d="M45.7542 94.8323C45.4462 93.6281 45.6802 92.3001 46.3794 91.2802C46.5773 90.9932 47.0086 91.2913 46.8126 91.5779C46.1977 92.4747 45.9923 93.6425 46.2634 94.702C46.3491 95.0375 45.8419 95.17 45.7542 94.8323Z" fill="#DDDDDB"/>
<path d="M99.1274 92.3632C100.788 90.5589 103.702 90.0158 105.907 91.102C106.221 91.2561 105.986 91.7284 105.675 91.5732C103.67 90.5856 101.024 91.0804 99.5134 92.7195C99.2785 92.9755 98.8917 92.6185 99.1274 92.3632Z" fill="#DDDDDB"/>
<path d="M102.293 94.8424C102.537 93.7803 102.302 92.6182 101.664 91.7332C101.463 91.4521 101.885 91.1429 102.091 91.4262C102.815 92.4318 103.083 93.7526 102.807 94.9594C102.726 95.3 102.217 95.1798 102.293 94.8424Z" fill="#DDDDDB"/>
<path d="M80.6579 78.9009C78.9578 77.6151 76.4389 77.8214 76.0298 78.7264C75.8866 79.045 75.4088 78.8268 75.5514 78.5108C76.1854 77.1043 79.2264 77.1598 80.9742 78.4821C81.2517 78.6908 80.9347 79.1115 80.6579 78.9009Z" fill="#DDDDDB"/>
<path d="M74.9078 91.2989C76.0864 90.9049 77.0337 90.8622 78.0411 90.1926C79.4956 89.2316 79.0106 87.9385 78.7741 86.2257C78.1788 81.8176 77.6815 78.9945 77.0761 74.5153C77.0565 74.3711 77.1582 74.2386 77.3019 74.2196C77.4456 74.196 77.5771 74.3012 77.5976 74.4445C77.799 75.9372 79.3952 86.8057 79.4045 86.8622C79.6386 88.2805 79.8603 89.6203 78.3316 90.6305C77.234 91.3603 76.2487 91.4052 75.0741 91.7978C74.7419 91.9086 74.5801 91.4089 74.9078 91.2989Z" fill="#DDDDDB"/>
<path d="M71.5073 80.5561C71.5082 81.5685 70.275 82.3907 68.7564 82.392C67.2353 82.3933 66.0007 81.5734 65.9998 80.561C65.9989 79.5486 67.232 78.7264 68.7532 78.7251C70.2718 78.7238 71.5064 79.5438 71.5073 80.5561Z" fill="#DDDDDB"/>
<path d="M90.6069 80.5477C90.6078 81.5554 89.3746 82.3738 87.856 82.3752C86.3349 82.3765 85.1003 81.5603 85.0994 80.5526C85.0985 79.5448 86.3316 78.7264 87.8528 78.7251C89.3714 78.7238 90.606 79.54 90.6069 80.5477Z" fill="#DDDDDB"/>
<path d="M83.5296 127.415C85.2737 127.167 86.7705 125.693 87.0512 123.957C87.3318 122.217 86.3708 120.35 84.795 119.567C85.782 118.853 85.6421 117.221 84.7999 116.34C83.9552 115.461 82.6774 115.169 81.4665 115.034C78.1058 114.665 74.6458 115.215 71.5765 116.631C70.5149 117.122 69.0582 117.536 68.7746 118.84C68.6487 119.412 68.8731 120.205 69.0641 120.751C69.3661 121.614 69.8881 121.797 70.6737 121.929C70.8874 121.965 70.373 122.431 70.3228 122.458C70.0762 122.592 69.8304 122.581 69.5845 122.799C68.327 123.918 68.7942 125.834 70.205 126.388C73.8001 127.803 77.3585 128.336 81.1776 127.748" fill="#AEEA00"/>
<path d="M83.5296 127.415C85.2737 127.167 86.7705 125.693 87.0512 123.957C87.3318 122.217 86.3708 120.35 84.795 119.567C85.782 118.853 85.6421 117.221 84.7999 116.34C83.9552 115.461 82.6774 115.169 81.4665 115.034C78.1058 114.665 74.6458 115.215 71.5765 116.631C70.5149 117.122 69.0582 117.536 68.7746 118.84C68.6487 119.412 68.8731 120.205 69.0641 120.751C69.3661 121.614 69.8881 121.797 70.6737 121.929C70.8874 121.965 70.373 122.431 70.3228 122.458C70.0762 122.592 69.8304 122.581 69.5845 122.799C68.327 123.918 68.7942 125.834 70.205 126.388C73.8001 127.803 77.3585 128.336 81.1776 127.748" fill="#0D0D0D" fill-opacity="0.32"/>
<path d="M69.9769 122.069C68.788 121.458 68.5878 119.924 68.5468 118.656C68.5372 118.316 69.0571 118.278 69.0724 118.639C69.1083 119.763 69.2716 121.116 70.2171 121.601C71.0427 122.026 71.2622 121.798 81.1293 120.269C81.4864 120.225 81.5453 120.737 81.2114 120.789C71.5758 122.287 71.0041 122.595 69.9769 122.069Z" fill="#DDDDDB"/>
<path d="M53.1635 85.8827C55.3503 83.7103 57.7198 81.7068 60.2063 79.9287C60.4864 79.7247 60.7958 80.1535 60.5122 80.3557C58.0483 82.118 55.7004 84.103 53.5331 86.2553C53.285 86.501 52.9165 86.126 53.1635 85.8827Z" fill="#DDDDDB"/>
<path d="M93.0815 74.3595C92.8922 74.9061 92.3456 75.2426 91.8304 75.4949C84.683 78.9763 76.7471 76.954 69.7325 73.2241C68.6551 72.6596 65.7825 71.2995 65.6641 70.0912C65.8967 70.2466 66.1013 69.7299 67.4512 68.8297C68.4184 68.7037 69.5853 68.7667 70.2791 68.7246C77.1797 68.3129 84.3075 69.3289 90.9894 71.8365C91.5571 72.0467 92.1353 72.2885 92.5769 72.709C93.0184 73.1295 93.2812 73.7812 93.0815 74.3595Z" fill="#DDDDDB"/>
<path d="M93.0815 74.3595C92.8922 74.9061 92.3456 75.2426 91.8304 75.4949C84.683 78.9763 76.7471 76.954 69.7325 73.2241C68.6551 72.6596 65.7825 71.2995 65.6641 70.0912C65.8967 70.2466 66.1013 69.7299 67.4512 68.8297C68.4184 68.7037 69.5853 68.7667 70.2791 68.7246C77.1797 68.3129 84.3075 69.3289 90.9894 71.8365C91.5571 72.0467 92.1353 72.2885 92.5769 72.709C93.0184 73.1295 93.2812 73.7812 93.0815 74.3595Z" fill="#0D0D0D" fill-opacity="0.82"/>
<path d="M68.1031 71.8052C65.1702 75.6962 62.2504 78.7162 57.3485 79.8263C55.9267 80.153 54.3635 80.2532 53.0803 79.5635C55.1514 76.231 58.137 73.4661 61.6167 71.6264C61.7639 71.6054 61.9216 71.5844 62.0688 71.5634C62.2054 71.5423 62.3106 71.4266 62.3001 71.29C63.5397 70.6703 64.4501 70.3584 65.5381 69.997C65.5485 70.0075 65.5485 70.018 65.559 70.0284C65.5801 70.0495 65.6011 70.06 65.6221 70.0705C65.6326 70.081 65.6537 70.0914 65.6642 70.0914C65.6957 70.1125 65.7168 70.1125 65.7483 70.1125C65.9255 70.1125 65.9347 70.0142 66.2319 69.7761C67.3462 69.4503 68.9442 69.0823 69.4383 69.6184C69.915 70.1338 68.4282 71.3717 68.1031 71.8052Z" fill="#DDDDDB"/>
<path d="M68.1031 71.8052C65.1702 75.6962 62.2504 78.7162 57.3485 79.8263C55.9267 80.153 54.3635 80.2532 53.0803 79.5635C55.1514 76.231 58.137 73.4661 61.6167 71.6264C61.7639 71.6054 61.9216 71.5844 62.0688 71.5634C62.2054 71.5423 62.3106 71.4266 62.3001 71.29C63.5397 70.6703 64.4501 70.3584 65.5381 69.997C65.5485 70.0075 65.5485 70.018 65.559 70.0284C65.5801 70.0495 65.6011 70.06 65.6221 70.0705C65.6326 70.081 65.6537 70.0914 65.6642 70.0914C65.6957 70.1125 65.7168 70.1125 65.7483 70.1125C65.9255 70.1125 65.9347 70.0142 66.2319 69.7761C67.3462 69.4503 68.9442 69.0823 69.4383 69.6184C69.915 70.1338 68.4282 71.3717 68.1031 71.8052Z" fill="#0D0D0D" fill-opacity="0.82"/>
<path d="M62.6374 87.6215C57.6598 82.1896 61.1296 72.7449 68.287 72.7383H68.2931C75.4206 72.7383 78.9451 82.1541 73.9653 87.6118C70.8496 91.023 65.7741 91.0449 62.6374 87.6215ZM68.2931 73.2639H68.287C61.6064 73.2706 58.3444 82.157 63.0254 87.2668C65.9423 90.4514 70.6604 90.4512 73.5773 87.2571C78.2389 82.1506 74.9781 73.2639 68.2931 73.2639Z" fill="#DDDDDB"/>
<path d="M88.4882 90.161C81.359 90.161 77.8403 80.7447 82.818 75.2876C87.8736 69.7526 96.4789 73.7375 96.4857 81.4336C96.4898 86.2413 92.9048 90.1569 88.4944 90.161H88.4882ZM83.2071 75.6423C78.546 80.7462 81.8015 89.6354 88.4882 89.6354H88.4944C95.18 89.6287 98.4373 80.7405 93.758 75.6325C90.841 72.4479 86.122 72.4481 83.2071 75.6423Z" fill="#DDDDDB"/>
<path d="M102.808 135.507C101.774 136.539 100.481 136.676 98.9924 136.771C82.4695 137.834 65.8758 137.795 49.3581 136.654C44.5975 136.325 50.4501 131.974 51.6721 131.016C53.6147 129.494 55.9171 128.469 58.2813 127.798C61.411 126.91 64.6754 126.612 67.914 126.316C73.6862 125.792 79.3924 126.571 85.1875 126.56C89.2611 126.552 93.4576 126.967 97.2542 128.534C99.2205 129.345 105.69 132.629 102.808 135.507Z" fill="#AEEA00"/>
<path d="M102.808 135.507C101.774 136.539 100.481 136.676 98.9924 136.771C82.4695 137.834 65.8758 137.795 49.3581 136.654C44.5975 136.325 50.4501 131.974 51.6721 131.016C53.6147 129.494 55.9171 128.469 58.2813 127.798C61.411 126.91 64.6754 126.612 67.914 126.316C73.6862 125.792 79.3924 126.571 85.1875 126.56C89.2611 126.552 93.4576 126.967 97.2542 128.534C99.2205 129.345 105.69 132.629 102.808 135.507Z" fill="#0D0D0D" fill-opacity="0.32"/>
<path d="M73.0466 97.1998C72.2043 95.7372 70.3004 95.2584 68.8661 96.1521C68.571 96.3353 68.2938 95.89 68.589 95.7055C70.2481 94.6707 72.4925 95.1849 73.5025 96.937C73.6744 97.2378 73.223 97.5012 73.0466 97.1998Z" fill="#DDDDDB"/>
<path d="M121.498 40.1721C121.14 43.9147 120.783 47.6679 120.12 51.3683C118.533 60.2867 113.774 74.0375 110.07 100.905C108.994 100.31 107.934 99.8485 106.79 99.3804C105.943 99.0223 104.879 98.9012 103.784 98.7916C103.584 94.3657 105.539 88.8675 106.212 84.6835C108.062 73.2034 109.723 61.6918 111.216 50.1488C114.003 28.5871 113.372 28.2318 114.938 26.7472C116.536 25.2018 119.153 25.8643 121.235 26.6107C121.666 26.7682 122.128 26.947 122.391 27.3255C122.833 27.9568 122.708 27.7612 121.498 40.1721Z" fill="#DDDDDB"/>
<path d="M101.261 135.436C101.157 131.882 101.779 126.388 99.6777 123.755C98.9496 122.834 93.3964 119.295 93.9901 117.139C94.1493 116.563 94.6872 116.167 95.6297 115.937C93.9758 114.719 94.0795 113.556 94.3135 112.939C94.8679 111.478 97.1255 110.351 99.2578 110.326C97.7374 109.169 96.5342 107.32 96.8576 105.832C97.0218 105.076 97.6409 104.158 99.6059 103.899C99.0405 103.048 98.4707 102.078 98.6573 101.077C98.935 99.5433 100.946 98.7956 102.486 98.5118C103.01 98.4054 103.672 98.5083 104.175 98.5734C105.082 98.6799 105.998 98.76 106.893 99.1376C111.821 101.155 116.569 103.996 116.809 109.345C117.149 116.75 117.501 124.408 119.085 132.286C119.154 132.624 118.638 132.735 118.57 132.389C116.979 124.472 116.626 116.794 116.284 109.369C116.054 104.254 111.383 101.542 106.691 99.6232C105.849 99.2671 104.812 99.1624 103.758 99.0523C103.43 99.0066 102.939 98.9581 102.59 99.0267C101.326 99.2604 99.4041 99.899 99.1747 101.172C99.109 101.524 99.1624 101.91 99.339 102.352C99.4569 102.668 100.058 103.687 100.236 103.864C100.502 103.962 100.446 104.354 100.163 104.373C99.0289 104.446 97.6245 104.778 97.3709 105.944C97.0732 107.313 98.4868 109.414 100.396 110.439C100.654 110.578 100.527 110.979 100.225 110.93C97.0159 110.341 92.0737 113.198 96.4459 115.85C96.6556 115.977 96.5902 116.3 96.3473 116.335C95.2478 116.494 94.6256 116.812 94.4973 117.279C94.0248 118.997 99.3612 122.506 100.089 123.428C102.329 126.233 101.676 131.7 101.785 135.385L101.524 135.428L101.261 135.436Z" fill="#DDDDDB"/>
<path d="M108.811 107.999C106.697 105.622 103.426 104.248 100.231 104.416C99.9136 104.475 99.8304 103.911 100.204 103.891C103.583 103.716 106.952 105.118 109.203 107.65C109.438 107.914 109.036 108.256 108.811 107.999Z" fill="#DDDDDB"/>
<path d="M102.033 119.079C100.375 117.698 98.3747 116.765 96.2506 116.38C95.9141 116.318 95.9948 115.806 96.345 115.862C98.5575 116.264 100.641 117.237 102.369 118.675C102.635 118.897 102.302 119.301 102.033 119.079Z" fill="#DDDDDB"/>
<path d="M105.81 114.818C104.387 112.907 102.343 111.494 100.055 110.838C99.715 110.741 99.8714 110.232 100.198 110.333C102.598 111.02 104.74 112.501 106.231 114.504C106.44 114.783 106.017 115.097 105.81 114.818Z" fill="#DDDDDB"/>
<path d="M142.024 36.7288C144.395 37.3266 146.437 37.3681 147.295 40.1612C147.781 41.7451 147.611 43.4474 147.41 45.0921C146.855 49.631 146.097 54.1451 145.139 58.6164C144.392 62.103 144.107 66.4961 140.719 68.5226C138.819 69.6579 136.429 69.3917 134.236 69.0888C93.0089 63.3953 92.4815 63.5981 88.2203 61.9043C86.2099 61.1052 82.5784 59.7566 81.4755 57.7938C80.8032 56.5974 80.9328 55.1279 81.1166 53.7678C82.1083 46.4328 84.121 39.2365 87.0784 32.4513C88.5598 29.0525 89.7515 29.0006 93.6273 29.2324C109.312 30.1704 125.681 32.6079 142.024 36.7288Z" fill="#AEEA00"/>
<path d="M142.024 36.7288C144.395 37.3266 146.437 37.3681 147.295 40.1612C147.781 41.7451 147.611 43.4474 147.41 45.0921C146.855 49.631 146.097 54.1451 145.139 58.6164C144.392 62.103 144.107 66.4961 140.719 68.5226C138.819 69.6579 136.429 69.3917 134.236 69.0888C93.0089 63.3953 92.4815 63.5981 88.2203 61.9043C86.2099 61.1052 82.5784 59.7566 81.4755 57.7938C80.8032 56.5974 80.9328 55.1279 81.1166 53.7678C82.1083 46.4328 84.121 39.2365 87.0784 32.4513C88.5598 29.0525 89.7515 29.0006 93.6273 29.2324C109.312 30.1704 125.681 32.6079 142.024 36.7288Z" fill="#0D0D0D" fill-opacity="0.32"/>
<path d="M26.8342 91.0282C23.5366 88.613 21.434 84.3766 21.2092 79.6956C20.7732 70.6184 27.596 57.4387 37.4538 54.0203C36.3832 47.0327 41.2392 41.6348 46.9687 37.4139C56.3861 30.4779 70.5281 25.3508 81.9813 31.7637C82.2852 31.9342 82.0247 32.3928 81.7247 32.2226C70.4901 25.9293 56.5658 30.9973 47.2808 37.8368C41.7776 41.8907 36.9735 47.1129 37.9558 53.855C40.8647 52.9514 44.7302 52.6811 47.1237 54.6076C51.5033 58.1262 47.2233 64.0642 41.7544 60.8747C39.4219 59.5149 38.0605 57.1305 37.5462 54.5444C27.9791 57.9177 21.3096 70.8252 21.7349 79.67C21.9515 84.1944 23.974 88.282 27.1442 90.6042C27.427 90.8113 27.1109 91.2343 26.8342 91.0282ZM38.0441 54.3781C38.5194 56.8503 39.8048 59.1294 42.0193 60.4209C46.8559 63.244 50.7134 58.1673 46.7952 55.0172C44.5379 53.2036 40.7783 53.5149 38.0441 54.3781Z" fill="#DDDDDB"/>
<path d="M141.323 32.3709C140.734 30.3633 140.625 28.215 141.008 26.1581C141.073 25.8134 141.589 25.9147 141.526 26.2546C141.157 28.2304 141.262 30.2945 141.829 32.223C141.925 32.5597 141.422 32.7043 141.323 32.3709Z" fill="#DDDDDB"/>
<path d="M143.34 32.833C144.775 30.1745 146.5 27.6654 148.465 25.3755C148.688 25.1127 149.091 25.4524 148.863 25.7174C146.923 27.9791 145.219 30.4569 143.802 33.0825C143.64 33.3853 143.174 33.1403 143.34 32.833Z" fill="#DDDDDB"/>
<path d="M145.373 34.8736C145.031 34.8736 145.021 34.3578 145.365 34.348C146.798 34.3105 148.24 33.9722 149.539 33.3696C149.85 33.2211 150.077 33.6986 149.76 33.846C147.606 34.8459 145.898 34.805 145.373 34.8736Z" fill="#DDDDDB"/>
<path d="M133.746 48.0103C133.712 48.0513 133.678 48.08 133.644 48.0964C133.61 48.1093 133.57 48.1124 133.521 48.1056C133.466 48.0979 133.407 48.0703 133.343 48.0227C133.283 47.9756 133.207 47.9228 133.117 47.8645C133.03 47.8066 132.925 47.7498 132.803 47.694C132.681 47.6382 132.531 47.5981 132.355 47.5735C132.211 47.5533 132.075 47.5537 131.949 47.5748C131.827 47.5929 131.72 47.629 131.628 47.683C131.536 47.7336 131.462 47.8006 131.405 47.884C131.348 47.964 131.312 48.0541 131.298 48.1541C131.28 48.2853 131.303 48.3992 131.367 48.4961C131.434 48.5935 131.525 48.6819 131.641 48.7613C131.76 48.8413 131.895 48.9182 132.047 48.9921C132.202 49.0631 132.359 49.1377 132.517 49.216C132.678 49.2948 132.833 49.3816 132.982 49.4762C133.134 49.5678 133.265 49.6758 133.374 49.8001C133.488 49.9215 133.572 50.0616 133.627 50.2206C133.686 50.3801 133.7 50.5668 133.67 50.7807C133.636 51.0257 133.559 51.2472 133.44 51.4452C133.325 51.6402 133.171 51.8016 132.977 51.9293C132.787 52.0575 132.56 52.1472 132.296 52.1983C132.032 52.2494 131.738 52.2523 131.413 52.207C131.051 52.1565 130.725 52.0493 130.434 51.8857C130.144 51.722 129.908 51.5326 129.727 51.3174L130.02 50.9624C130.054 50.9179 130.094 50.8865 130.138 50.8681C130.184 50.8463 130.241 50.8402 130.31 50.8499C130.375 50.859 130.439 50.8926 130.502 50.9505C130.564 51.0084 130.639 51.0735 130.728 51.1456C130.816 51.2143 130.927 51.2825 131.058 51.3501C131.19 51.4142 131.359 51.4607 131.566 51.4896C131.739 51.5137 131.892 51.5139 132.025 51.4904C132.159 51.4633 132.272 51.4193 132.365 51.3584C132.462 51.2946 132.538 51.2172 132.593 51.1264C132.648 51.0355 132.683 50.9366 132.698 50.8297C132.717 50.6916 132.693 50.5722 132.626 50.4714C132.563 50.3677 132.473 50.2741 132.354 50.1907C132.239 50.1078 132.104 50.0309 131.948 49.9599C131.793 49.889 131.635 49.8141 131.473 49.7353C131.312 49.6564 131.155 49.5695 131.003 49.4744C130.851 49.3793 130.719 49.2676 130.607 49.1394C130.498 49.0116 130.415 48.8628 130.358 48.693C130.304 48.5237 130.293 48.3251 130.325 48.0974C130.353 47.8938 130.422 47.7046 130.531 47.5298C130.643 47.3555 130.788 47.2087 130.967 47.0894C131.149 46.9706 131.363 46.8861 131.609 46.836C131.859 46.783 132.136 46.7777 132.44 46.8201C132.788 46.8687 133.094 46.9678 133.358 47.1172C133.626 47.2671 133.846 47.4527 134.02 47.6739L133.746 48.0103Z" fill="black" fill-opacity="0.87"/>
<path d="M125.404 49.9644C125.54 50.2049 125.696 50.3815 125.874 50.4943C126.055 50.6075 126.265 50.6808 126.503 50.714C126.965 50.7786 127.345 50.6628 127.644 50.3667C127.946 50.0676 128.141 49.5989 128.23 48.9605C128.277 48.6258 128.288 48.337 128.262 48.0942C128.24 47.8484 128.184 47.6436 128.094 47.4798C128.008 47.313 127.891 47.184 127.742 47.0929C127.593 46.9982 127.419 46.9369 127.219 46.909C126.925 46.8681 126.661 46.898 126.425 46.9988C126.193 47.1 125.968 47.2587 125.752 47.4747L125.404 49.9644ZM125.796 46.779C125.925 46.6633 126.059 46.5607 126.198 46.471C126.341 46.3784 126.49 46.3043 126.646 46.2486C126.802 46.1895 126.964 46.1505 127.132 46.1317C127.304 46.11 127.483 46.1121 127.669 46.1382C127.969 46.1801 128.232 46.2765 128.457 46.4276C128.686 46.5791 128.871 46.7808 129.011 47.0326C129.152 47.2845 129.246 47.5842 129.292 47.932C129.342 48.2802 129.337 48.6717 129.276 49.1065C129.222 49.4964 129.117 49.8512 128.964 50.171C128.814 50.4878 128.624 50.755 128.393 50.9726C128.165 51.1906 127.9 51.3506 127.598 51.4526C127.299 51.5516 126.973 51.5765 126.621 51.5274C126.307 51.4836 126.045 51.3942 125.836 51.2594C125.626 51.1246 125.446 50.9517 125.296 50.7408L124.977 53.0234L123.968 52.8825L124.948 45.8586L125.554 45.9431C125.696 45.9629 125.774 46.0425 125.79 46.1819L125.796 46.779Z" fill="black" fill-opacity="0.87"/>
<path d="M123.54 45.6625L122.806 50.9214L122.2 50.8368C122.062 50.8175 121.982 50.7377 121.959 50.5974L121.96 50.0593C121.83 50.1642 121.695 50.258 121.557 50.3407C121.419 50.4234 121.274 50.4912 121.122 50.5439C120.971 50.5931 120.814 50.6257 120.65 50.6415C120.485 50.6607 120.311 50.6576 120.128 50.632C119.839 50.5916 119.59 50.5076 119.383 50.3802C119.179 50.2532 119.015 50.0931 118.89 49.8999C118.767 49.7032 118.684 49.477 118.642 49.2214C118.6 48.9658 118.6 48.6896 118.642 48.3929L119.109 45.0439L120.124 45.1856L119.656 48.5345C119.604 48.9106 119.649 49.216 119.792 49.4505C119.936 49.6817 120.185 49.822 120.541 49.8717C120.799 49.9078 121.049 49.8811 121.291 49.7917C121.532 49.6987 121.766 49.559 121.993 49.3726L122.531 45.5216L123.54 45.6625Z" fill="black" fill-opacity="0.87"/>
<path d="M115.525 44.4593C115.911 44.5132 116.251 44.6257 116.544 44.7967C116.84 44.9648 117.081 45.1831 117.265 45.4515C117.453 45.717 117.582 46.0253 117.653 46.3764C117.724 46.724 117.731 47.1049 117.673 47.519C117.615 47.9331 117.504 48.2993 117.34 48.6176C117.176 48.936 116.967 49.197 116.714 49.4009C116.463 49.6052 116.172 49.7492 115.841 49.8331C115.513 49.9139 115.156 49.9274 114.769 49.8734C114.379 49.819 114.036 49.7078 113.739 49.5397C113.446 49.3687 113.206 49.1504 113.018 48.8849C112.83 48.6195 112.699 48.3109 112.625 47.9594C112.554 47.6083 112.548 47.2257 112.605 46.8116C112.663 46.3975 112.774 46.033 112.938 45.7181C113.105 45.4003 113.316 45.1394 113.569 44.9356C113.823 44.7283 114.114 44.5843 114.442 44.5034C114.774 44.4195 115.135 44.4048 115.525 44.4593ZM114.879 49.0867C115.376 49.156 115.77 49.0405 116.062 48.74C116.354 48.4394 116.542 47.9855 116.627 47.3782C116.711 46.7709 116.655 46.2827 116.456 45.9138C116.259 45.5414 115.911 45.3206 115.414 45.2512C114.91 45.1809 114.511 45.2975 114.215 45.6009C113.923 45.9015 113.735 46.3554 113.65 46.9627C113.566 47.57 113.622 48.0582 113.821 48.4271C114.022 48.7965 114.375 49.0164 114.879 49.0867Z" fill="black" fill-opacity="0.87"/>
<path d="M110.485 44.8686C110.702 44.5471 110.943 44.3046 111.209 44.1412C111.474 43.9777 111.774 43.9194 112.109 43.9661C112.223 43.982 112.328 44.0107 112.424 44.0523C112.524 44.0909 112.609 44.1414 112.678 44.2037L112.504 44.9552C112.467 45.045 112.403 45.0837 112.314 45.0711C112.265 45.0644 112.194 45.0457 112.1 45.0149C112.006 44.9807 111.904 44.9559 111.794 44.9405C111.632 44.9179 111.485 44.922 111.354 44.953C111.224 44.9805 111.102 45.0339 110.989 45.1131C110.88 45.1893 110.778 45.2894 110.683 45.4134C110.589 45.5339 110.497 45.6742 110.408 45.8341L109.948 49.1261L108.939 48.9852L109.673 43.7263L110.253 43.8072C110.363 43.8226 110.434 43.8537 110.467 43.9004C110.503 43.9441 110.522 44.0172 110.526 44.1197L110.485 44.8686Z" fill="black" fill-opacity="0.87"/>
<path d="M108.247 45.2001L107.842 48.0987C107.428 48.3154 107 48.4613 106.557 48.5367C106.114 48.6085 105.642 48.6096 105.142 48.5397C104.541 48.4559 104.011 48.2869 103.55 48.0326C103.093 47.7788 102.717 47.4607 102.422 47.0783C102.128 46.6959 101.919 46.2588 101.798 45.7669C101.68 45.2755 101.66 44.7503 101.738 44.1913C101.817 43.6289 101.977 43.127 102.218 42.6857C102.463 42.2415 102.774 41.8768 103.151 41.5918C103.529 41.3033 103.966 41.1004 104.461 40.983C104.959 40.8627 105.502 40.8435 106.089 40.9253C106.386 40.9668 106.657 41.0275 106.902 41.1075C107.151 41.188 107.379 41.2849 107.585 41.398C107.791 41.5112 107.977 41.6392 108.143 41.7821C108.314 41.9219 108.468 42.0754 108.607 42.2425L108.222 42.6953C108.162 42.768 108.091 42.8091 108.009 42.8187C107.927 42.8283 107.843 42.7973 107.758 42.7257C107.676 42.6614 107.584 42.587 107.483 42.5026C107.386 42.4186 107.265 42.3367 107.122 42.2569C106.982 42.1775 106.814 42.1031 106.62 42.0338C106.426 41.9644 106.192 41.9107 105.92 41.8727C105.512 41.8158 105.135 41.8318 104.789 41.9206C104.443 42.006 104.137 42.1568 103.871 42.373C103.605 42.5891 103.385 42.8645 103.212 43.1992C103.039 43.5303 102.922 43.9133 102.862 44.3481C102.798 44.8036 102.807 45.2217 102.887 45.6023C102.968 45.9795 103.11 46.3106 103.313 46.5958C103.52 46.878 103.785 47.1085 104.108 47.2873C104.435 47.4666 104.811 47.5858 105.235 47.6451C105.401 47.6682 105.556 47.681 105.699 47.6835C105.847 47.683 105.989 47.6747 106.125 47.6585C106.261 47.6423 106.393 47.6168 106.521 47.5819C106.652 47.5474 106.783 47.5076 106.912 47.4623L107.13 45.9043L106.032 45.7512C105.963 45.7415 105.909 45.7129 105.87 45.6652C105.835 45.618 105.821 45.5634 105.83 45.5013L105.917 44.8749L108.247 45.2001Z" fill="black" fill-opacity="0.87"/>
<path d="M95.9428 41.7249C96.3293 41.7788 96.6689 41.8913 96.9616 42.0624C97.2583 42.2304 97.4987 42.4487 97.6829 42.7171C97.871 42.9826 98.0003 43.2909 98.0709 43.642C98.142 43.9896 98.1486 44.3705 98.0908 44.7846C98.033 45.1987 97.9221 45.5649 97.7581 45.8832C97.594 46.2016 97.3852 46.4627 97.1316 46.6665C96.8814 46.8708 96.5904 47.0148 96.2586 47.0987C95.9307 47.1796 95.5735 47.193 95.187 47.1391C94.7971 47.0846 94.4538 46.9734 94.1571 46.8053C93.8644 46.6343 93.624 46.416 93.4359 46.1506C93.2478 45.8851 93.1167 45.5766 93.0427 45.225C92.9721 44.8739 92.9657 44.4913 93.0235 44.0772C93.0813 43.6631 93.192 43.2986 93.3555 42.9837C93.523 42.6659 93.7336 42.405 93.9872 42.2012C94.2413 41.994 94.5323 41.8499 94.8602 41.769C95.192 41.6852 95.5529 41.6705 95.9428 41.7249ZM95.2968 46.3523C95.7937 46.4217 96.1881 46.3061 96.4798 46.0056C96.7715 45.7051 96.9598 45.2511 97.0446 44.6438C97.1293 44.0365 97.0726 43.5484 96.8743 43.1794C96.6765 42.8071 96.3292 42.5862 95.8323 42.5168C95.3285 42.4465 94.9287 42.5631 94.6331 42.8666C94.3413 43.1671 94.1531 43.621 94.0683 44.2283C93.9835 44.8357 94.0403 45.3238 94.2386 45.6927C94.4403 46.0621 94.793 46.282 95.2968 46.3523Z" fill="black" fill-opacity="0.87"/>
<path d="M92.5233 39.1163L91.4857 46.5492L90.9267 46.4711C90.8405 46.4591 90.7702 46.4335 90.7158 46.3942C90.665 46.3554 90.615 46.2975 90.566 46.2203L87.1261 40.2046C87.12 40.2987 87.1125 40.3909 87.1034 40.4811C87.0978 40.5717 87.0894 40.6568 87.0783 40.7361L86.3666 45.8346L85.3987 45.6994L86.4363 38.2666L87.0056 38.3461C87.1023 38.3596 87.173 38.3818 87.218 38.4127C87.2634 38.4401 87.3099 38.4976 87.3575 38.5852L90.8069 44.6075C90.8106 44.506 90.8154 44.4082 90.8215 44.314C90.8316 44.2169 90.8424 44.127 90.8539 44.0441L91.5606 38.9819L92.5233 39.1163Z" fill="black" fill-opacity="0.87"/>
</svg>
