<svg width="24" height="24" viewBox="0 0 24 24" fill="none" xmlns="http://www.w3.org/2000/svg">
<path fill-rule="evenodd" clip-rule="evenodd" d="M13.3808 4.27136C13.7368 3.90955 14.3138 3.90955 14.6698 4.27136L19.733 9.41842C19.9937 9.68338 20.0717 10.0819 19.9306 10.4281C19.7895 10.7743 19.4572 11 19.0886 11H4.91139C4.40804 11 4 10.5852 4 10.0735C4 9.56185 4.40804 9.14706 4.91139 9.14706H16.8883L13.3808 5.58158C13.0249 5.21978 13.0249 4.63317 13.3808 4.27136Z" fill="white"/>
<path fill-rule="evenodd" clip-rule="evenodd" d="M10.6192 19.7286C10.2632 20.0905 9.68617 20.0905 9.33025 19.7286L4.26697 14.5816C4.00631 14.3166 3.92834 13.9181 4.0694 13.5719C4.21047 13.2257 4.54279 13 4.91142 13H19.0886C19.592 13 20 13.4148 20 13.9265C20 14.4381 19.592 14.8529 19.0886 14.8529H7.11171L10.6192 18.4184C10.9751 18.7802 10.9751 19.3668 10.6192 19.7286Z" fill="white"/>
</svg>
