<svg width="165" height="165" viewBox="0 0 165 165" fill="none" xmlns="http://www.w3.org/2000/svg">
<path d="M89.1905 130.912C88.4248 131.63 87.4951 131.895 86.5763 132.072C83.8528 132.591 81.0637 132.492 78.3512 131.774C77.6949 131.597 77.0277 131.365 76.5246 130.758C75.8464 129.929 75.5402 128.04 75.7698 126.593C83.7251 127.804 83.5785 127.952 84.5419 127.83L90.2077 127.068C90.2623 127.256 90.3061 127.444 90.3389 127.654C90.503 128.913 89.9452 130.194 89.1905 130.912Z" fill="#242422"/>
<path d="M19.4834 57.5107L20.2599 57.5991C20.1615 57.6212 20.074 57.6433 19.9865 57.6765L19.4834 57.5107Z" fill="#242422"/>
<path d="M140.225 57.0137L138.016 57.8532C137.546 57.7648 137.042 57.7869 136.539 57.9084C82.3185 71.3075 85.049 71.0962 83.47 70.7773L23.8271 58.03L82.3325 65.0222L140.225 57.0137Z" fill="#242422"/>
<path d="M113.911 63.5536C108.608 74.8501 95.292 79.3241 84.5323 73.8045C84.5652 72.5452 84.587 71.7831 84.5979 71.6505C84.675 71.3137 84.1684 71.1693 84.073 71.5069C84.0511 71.5622 84.0292 72.2801 83.9964 73.5173C82.2026 72.5232 80.5619 71.286 79.1181 69.8499C67.1629 57.8982 72.4714 37.3544 88.3715 32.7344C88.443 33.6727 88.7603 34.7897 89.1043 35.6727C89.334 36.2471 89.6512 36.711 90.2527 36.9209C91.557 37.3819 93.0044 36.4427 93.8184 35.993C93.8002 37.0765 93.9658 37.5949 94.0044 37.8267C94.9574 41.4176 99.4219 39.4462 101.311 36.4791C100.263 40.439 103.385 46.7447 107.108 41.5604C107.351 45.2256 109.778 44.3267 112.5 41.8917C116.802 48.5914 117.043 56.8769 113.911 63.5536Z" fill="#242422"/>
<path d="M109.677 64.6129C109.566 64.6405 99.558 67.1353 100.194 66.9768C96.9273 69.4305 92.9427 70.5746 88.2715 69.9593C85.3567 70.595 84.8077 71.0469 83.4699 70.7768L74.8728 68.943C62.6766 55.625 70.7307 33.8311 88.2934 31.8164C88.3397 33.123 88.5865 34.3463 89.1028 35.6716C89.3325 36.246 89.6497 36.7099 90.2513 36.9198C91.5555 37.3808 93.0029 36.4416 93.817 35.9919C93.7988 37.0754 93.9643 37.5938 94.003 37.8256C94.9559 41.4165 99.4205 39.4451 101.309 36.478C100.261 40.4379 103.383 46.7436 107.106 41.5593C107.281 44.1993 108.583 44.3761 110.049 43.647C113.402 50.2693 113.217 58.2118 109.677 64.6129Z" fill="#AEEA00"/>
<path d="M109.677 64.6129C109.566 64.6405 99.558 67.1353 100.194 66.9768C96.9273 69.4305 92.9427 70.5746 88.2715 69.9593C85.3567 70.595 84.8077 71.0469 83.4699 70.7768L74.8728 68.943C62.6766 55.625 70.7307 33.8311 88.2934 31.8164C88.3397 33.123 88.5865 34.3463 89.1028 35.6716C89.3325 36.246 89.6497 36.7099 90.2513 36.9198C91.5555 37.3808 93.0029 36.4416 93.817 35.9919C93.7988 37.0754 93.9643 37.5938 94.003 37.8256C94.9559 41.4165 99.4205 39.4451 101.309 36.478C100.261 40.4379 103.383 46.7436 107.106 41.5593C107.281 44.1993 108.583 44.3761 110.049 43.647C113.402 50.2693 113.217 58.2118 109.677 64.6129Z" fill="white" fill-opacity="0.32"/>
<path d="M103.375 66.1828L100.193 66.9782C97.5456 68.9665 94.2971 70.1263 90.808 70.1374C82.6111 69.1381 76.3396 61.6886 76.8405 52.9935C77.3572 43.9026 85.0905 37.0737 93.7612 37.6392C93.8268 37.6392 93.9034 37.6502 93.969 37.6613L94.0018 37.8269C94.5705 39.9699 96.3644 40.1357 98.1035 39.3072C98.3878 39.1856 98.6612 39.031 98.9347 38.8432C109.612 43.2672 112.476 58.0599 103.375 66.1828Z" fill="#242422"/>
<path d="M100.194 66.9773C96.8989 69.4526 92.9063 70.5703 88.2719 69.9599C80.2108 68.6895 74.2716 61.3438 74.7639 52.8712C75.3491 42.8346 84.5468 35.8151 94.0033 37.8261C94.5721 39.9691 96.3659 40.1348 98.105 39.3064C108.67 44.8767 109.768 59.8395 100.194 66.9773Z" fill="#AEEA00"/>
<path d="M100.194 66.9773C96.8989 69.4526 92.9063 70.5703 88.2719 69.9599C80.2108 68.6895 74.2716 61.3438 74.7639 52.8712C75.3491 42.8346 84.5468 35.8151 94.0033 37.8261C94.5721 39.9691 96.3659 40.1348 98.105 39.3064C108.67 44.8767 109.768 59.8395 100.194 66.9773Z" fill="white" fill-opacity="0.32"/>
<path d="M88.2357 70.234C79.8973 68.9201 73.991 61.4493 74.4904 52.855C75.0228 43.7191 82.738 36.7143 91.6997 37.2413C93.1561 37.3311 94.1136 37.5747 94.2231 37.5913L94.2669 37.7547C94.4726 38.5298 94.8544 39.053 95.4018 39.3092C96.5403 39.8405 97.9995 39.032 98.1106 38.998L98.2308 39.0616C103.933 42.0681 107.373 48.2363 106.996 54.7762C106.484 63.8959 98.6093 71.6044 88.2357 70.234ZM75.0362 52.8873C74.2298 66.7638 89.5886 74.6011 100.03 66.7556C109.527 59.6764 108.228 45.0677 98.0957 39.614C96.1769 40.4781 94.4045 40.0832 93.7857 38.0638C84.4395 36.2006 75.601 43.1995 75.0362 52.8873Z" fill="#242422"/>
<path d="M87.5194 65.3332C87.2497 64.9429 87.4966 64.7445 87.9736 62.215L88.2618 62.6648C85.779 62.1298 83.9832 60.9099 83.0115 59.674C82.3812 58.9157 83.2699 57.8632 83.9912 58.671C84.4877 59.2258 85.0902 59.7388 85.8011 60.2104C87.1022 61.0758 89.6425 61.7171 91.2087 61.4273C91.9175 61.2956 92.4838 61.0175 92.9065 60.5921C93.7261 59.767 93.997 58.4515 93.6886 57.5582C92.5445 54.2704 84.0177 54.7888 85.2832 48.7989C85.9238 45.7665 88.7189 44.4462 91.8356 45.0195L91.5485 45.2937L92.0914 42.7242C92.2116 42.1553 92.9758 42.0181 93.3123 42.51C93.581 42.8968 93.3355 43.0973 92.8687 45.5782L92.6873 45.2292C94.2178 45.5917 95.9928 46.6683 96.9711 48.1922C97.4439 48.933 96.5321 49.7929 95.8818 48.9911C93.5139 45.753 87.6128 45.0344 86.7507 49.1151C85.8487 53.3846 92.3891 52.9657 94.7498 56.2243C95.3633 57.0711 95.5479 58.0792 95.3008 59.2486C94.7927 61.6534 92.5783 63.3578 88.8488 62.7913L89.2989 62.4751C88.7114 65.0001 88.8433 65.2854 88.4606 65.536C88.18 65.7187 87.7416 65.6563 87.5194 65.3332Z" fill="#242422"/>
<path d="M143.779 91.5774L142.98 116.398C142.926 118.21 141.58 119.712 139.797 119.955C139.097 120.044 138.397 120.143 137.697 120.243C138.638 119.591 139.261 118.508 139.294 117.293L140.147 90.8594C140.511 90.918 143.088 91.3391 143.779 91.5774Z" fill="#242422"/>
<path d="M144.773 60.7366L144.27 76.345C143.066 76.0468 141.863 75.7707 140.638 75.5497L141.087 61.6313C141.152 59.6982 139.763 58.1407 138.013 57.8535C137.696 57.7983 137.357 57.7872 137.007 57.8204C138.079 57.5443 139.151 57.2791 140.223 57.014C142.585 56.4286 144.849 58.2843 144.773 60.7366Z" fill="#242422"/>
<path d="M129.025 74.897C130.578 74.1459 133.64 74.6871 135.314 74.8197C137.108 74.9522 138.879 75.2063 140.64 75.5488L141.089 61.6305C141.155 59.6974 139.765 58.1399 138.015 57.8527C137.698 57.7975 137.359 57.7864 137.009 57.8196H136.976C136.834 57.8416 136.692 57.8637 136.539 57.9079C136.414 57.939 103.261 66.2102 103.376 66.1815C102.783 66.3295 84.2404 70.9587 85.1101 70.7436C83.8193 71.0895 83.0705 70.6012 79.1163 69.8489L74.8725 68.9431L23.8266 58.0295L20.2609 57.5986C20.1625 57.6207 20.075 57.6428 19.9875 57.676C18.6203 58.0957 17.5594 59.3218 17.4062 60.8683L12.5172 113.062C12.3312 115.017 13.6765 116.773 15.6015 117.072C18.7089 117.563 -1.22992 114.407 83.2179 127.775C83.3 121.139 83.9138 71.9028 84.0711 71.5058C84.1666 71.168 84.673 71.313 84.596 71.6494C84.3618 74.4855 83.863 127.742 83.7539 127.853C84.3531 127.903 81.2953 128.27 136.112 120.849C136.692 120.772 137.239 120.551 137.698 120.242C138.639 119.59 139.262 118.508 139.295 117.292L140.148 90.8588C136.703 90.2513 133.236 89.7653 129.758 89.9752C128.074 90.0866 127.317 89.7772 127.154 87.8101C126.947 85.2363 127.023 82.6404 127.384 80.0888C127.57 78.719 127.647 75.5598 129.025 74.897ZM68.0474 95.9733C66.5271 101.883 62.8411 106.655 58.0833 109.637C56.7707 110.466 55.3708 111.162 53.9051 111.703C36.9418 118.01 19.5031 102.454 24.1439 84.4189C27.3048 72.1797 39.6971 64.845 51.816 68.0263C63.9349 71.2297 71.1975 83.734 68.0474 95.9733Z" fill="#242422"/>
<path d="M129.025 74.897C130.578 74.1459 133.64 74.6871 135.314 74.8197C137.108 74.9522 138.879 75.2063 140.64 75.5488L141.089 61.6305C141.155 59.6974 139.765 58.1399 138.015 57.8527C137.698 57.7975 137.359 57.7864 137.009 57.8196H136.976C136.834 57.8416 136.692 57.8637 136.539 57.9079C136.414 57.939 103.261 66.2102 103.376 66.1815C102.783 66.3295 84.2404 70.9587 85.1101 70.7436C83.8193 71.0895 83.0705 70.6012 79.1163 69.8489L74.8725 68.9431L23.8266 58.0295L20.2609 57.5986C20.1625 57.6207 20.075 57.6428 19.9875 57.676C18.6203 58.0957 17.5594 59.3218 17.4062 60.8683L12.5172 113.062C12.3312 115.017 13.6765 116.773 15.6015 117.072C18.7089 117.563 -1.22992 114.407 83.2179 127.775C83.3 121.139 83.9138 71.9028 84.0711 71.5058C84.1666 71.168 84.673 71.313 84.596 71.6494C84.3618 74.4855 83.863 127.742 83.7539 127.853C84.3531 127.903 81.2953 128.27 136.112 120.849C136.692 120.772 137.239 120.551 137.698 120.242C138.639 119.59 139.262 118.508 139.295 117.292L140.148 90.8588C136.703 90.2513 133.236 89.7653 129.758 89.9752C128.074 90.0866 127.317 89.7772 127.154 87.8101C126.947 85.2363 127.023 82.6404 127.384 80.0888C127.57 78.719 127.647 75.5598 129.025 74.897ZM68.0474 95.9733C66.5271 101.883 62.8411 106.655 58.0833 109.637C56.7707 110.466 55.3708 111.162 53.9051 111.703C36.9418 118.01 19.5031 102.454 24.1439 84.4189C27.3048 72.1797 39.6971 64.845 51.816 68.0263C63.9349 71.2297 71.1975 83.734 68.0474 95.9733Z" fill="white" fill-opacity="0.82"/>
<path d="M23.8274 58.0303L20.2617 57.5995C20.7539 57.489 21.2789 57.489 21.8149 57.5995L23.8274 58.0303Z" fill="#242422"/>
<path d="M23.8274 58.0303L20.2617 57.5995C20.7539 57.489 21.2789 57.489 21.8149 57.5995L23.8274 58.0303Z" fill="white" fill-opacity="0.82"/>
<path d="M83.7554 127.853C83.7334 127.996 83.6238 128.096 83.4923 128.096H83.4814C83.339 128.096 83.2075 127.963 83.2184 127.809V127.775L83.4923 127.82L83.7554 127.853Z" fill="white"/>
<path d="M61.2759 86.2976C61.0134 86.0436 60.7181 85.8226 60.4009 85.6459L57.9728 81.846C57.7667 81.5337 58.2276 81.2379 58.4321 81.5477C61.2932 86.1489 61.4559 86.007 61.2759 86.2976Z" fill="#242422"/>
<path d="M23.8812 84.3508C27.0744 71.9879 39.6383 64.5446 51.8878 67.7603C64.127 70.996 71.4961 83.6836 68.3152 96.0444C66.8299 101.816 63.2485 106.728 58.2304 109.874C56.8909 110.719 55.4676 111.423 54.0016 111.964C36.5801 118.44 19.2436 102.378 23.8812 84.3508ZM46.1129 67.5645C36.1546 67.5645 27.037 74.3218 24.4104 84.49C19.8176 102.339 37.0928 117.657 53.8131 111.446C55.2444 110.917 56.633 110.23 57.9414 109.405C62.8404 106.333 66.3359 101.54 67.7854 95.9052C70.891 83.839 63.6971 71.4534 51.7494 68.2949C49.8668 67.8008 47.9741 67.5645 46.1129 67.5645Z" fill="#242422"/>
<path d="M57.3332 84.8663C57.33 84.8663 57.3268 84.8663 57.3236 84.8657C57.0646 84.8491 57.2629 84.5432 57.3744 82.1323C57.3798 82.0562 57.4477 81.9975 57.5205 82.0045C57.7795 82.0211 57.5812 82.327 57.4697 84.7379C57.4649 84.8107 57.4049 84.8663 57.3332 84.8663Z" fill="#242422"/>
<path d="M55.5254 90.9478L55.372 91.511C55.3063 91.522 55.2405 91.522 55.1748 91.522C55.2953 91.3343 55.4158 91.1465 55.5254 90.9478Z" fill="#242422"/>
<path d="M59.5175 85.2823C58.544 85.0282 57.3628 85.2381 56.8159 86.0886L56.7611 86.2875C56.8159 85.1276 56.8815 84.0119 56.5424 82.8962C56.0064 81.0847 54.7377 79.6045 53.1408 78.9417C51.347 78.2126 49.4548 77.7266 47.5406 77.5056C44.4068 77.169 42.5642 77.7352 40.3983 80.1016C39.7639 80.7975 39.2717 82.112 38.9765 83.2387L38.9873 82.6864C38.7467 81.7143 37.7295 81.1289 36.7451 81.0405C36.8751 79.3859 36.88 77.5994 38.2326 74.8435C39.002 73.2652 39.7272 72.717 40.8468 72.3691C43.3884 71.5651 45.2027 72.8853 45.2765 74.49C45.7964 72.0403 52.4796 69.4008 57.7893 74.247C58.9925 75.3517 59.7362 77.5609 59.9222 79.1736C60.0667 80.5084 59.7669 83.9197 59.5175 85.2823Z" fill="#242422"/>
<path d="M33.9101 88.5185C32.4462 87.4414 31.8192 85.3406 32.451 83.6308C33.0721 81.921 34.8922 80.7376 36.7033 80.8908C37.6801 80.9657 38.8545 81.5488 39.1221 82.6523C39.165 82.8324 38.8975 82.8919 38.8561 82.7182C38.6211 81.7484 37.5642 81.2338 36.6819 81.1658C34.9926 81.0353 33.2884 82.1275 32.7074 83.7268C32.1167 85.3249 32.7031 87.2888 34.0708 88.2952C35.4108 89.2769 37.4146 89.2526 38.7311 88.2418C38.8747 88.1321 39.0407 88.3503 38.8967 88.4619C38.1789 89.0131 35.3473 89.5718 33.9101 88.5185Z" fill="#242422"/>
<path d="M55.2351 91.6859C55.1356 91.5305 55.3692 91.3848 55.4648 91.536C56.3594 92.9383 58.0032 93.5176 59.6524 93.0139C62.8558 92.0211 63.5037 87.5308 60.3366 85.7663C59.099 85.0179 57.5848 85.2744 56.9912 86.0819C56.8831 86.2287 56.6637 86.0641 56.7711 85.9168C57.5607 84.8422 59.297 84.8168 60.4733 85.5268C61.7715 86.2511 62.6644 87.6577 62.6945 89.1449C62.7393 90.9632 61.4661 92.7404 59.732 93.2781C57.9512 93.8216 56.1917 93.1855 55.2351 91.6859Z" fill="#242422"/>
<path d="M45.2338 94.137C45.2306 94.137 45.2274 94.137 45.2242 94.1364C42.1875 93.9153 39.5171 91.6526 38.7288 88.6348C37.7024 84.7017 39.2528 79.3329 42.8647 78.034C43.0366 77.9732 43.1262 78.2335 42.9565 78.294C39.4803 79.5443 37.9972 84.7476 38.9937 88.5647C39.7521 91.4698 42.322 93.6483 45.2434 93.8613C45.3187 93.8667 45.3759 93.9325 45.37 94.0086C45.3652 94.0814 45.3048 94.137 45.2338 94.137Z" fill="#242422"/>
<path d="M49.4594 94.9194C49.4551 94.9194 49.4519 94.9194 49.4482 94.9194C49.2676 94.9194 49.2669 94.6432 49.4482 94.6432C49.4518 94.6432 49.4558 94.6432 49.4594 94.6432C53.3135 94.6432 56.865 91.136 56.743 85.6411C56.7391 85.4554 57.0127 85.4566 57.0164 85.6347C57.048 87.0392 56.8728 88.2048 56.4322 89.5311C55.5221 92.215 53.0141 94.9194 49.4594 94.9194Z" fill="#242422"/>
<path d="M44.2479 100.307C44.2409 100.307 44.2334 100.306 44.226 100.305C44.0237 100.271 44.054 100.569 45.1066 93.945C45.1184 93.8706 45.1851 93.8215 45.2637 93.8307C45.3379 93.8431 45.3886 93.9138 45.3769 93.9893C44.3002 100.743 44.4089 100.307 44.2479 100.307Z" fill="#242422"/>
<path d="M49.252 100.737C49.244 100.737 49.2355 100.737 49.2274 100.735C49.1532 100.721 49.1041 100.649 49.1174 100.574C49.2232 99.9949 49.3465 98.8045 49.4656 97.6529C49.7737 94.6851 49.787 94.5694 49.9746 94.6098C50.0488 94.6238 50.098 94.6956 50.0846 94.7705C49.8741 95.9256 49.5995 99.4556 49.3866 100.624C49.3743 100.691 49.3166 100.737 49.252 100.737Z" fill="#242422"/>
<path d="M36.7006 84.9695C36.1681 84.1685 35.077 83.7834 34.167 84.072C33.9985 84.1308 33.9094 83.8639 34.0847 83.8088C35.1059 83.4851 36.3305 83.9161 36.9281 84.8152C36.9698 84.8789 36.9532 84.9646 36.8907 85.0072C36.8274 85.0494 36.7433 85.0324 36.7006 84.9695Z" fill="#242422"/>
<path d="M35.2776 85.8346C35.2066 85.8346 35.1462 85.779 35.1414 85.7062C35.1024 85.1576 35.307 84.5978 35.6883 84.2094C35.8142 84.0797 36.0105 84.2732 35.8827 84.4036C35.5559 84.7364 35.3807 85.2159 35.4138 85.6868C35.4192 85.7628 35.3625 85.8286 35.2872 85.834C35.284 85.8346 35.2808 85.8346 35.2776 85.8346Z" fill="#242422"/>
<path d="M58.0754 88.7829C58.9294 88.1292 60.2255 88.1233 61.0881 88.7684C61.2335 88.8766 61.0712 89.1014 60.9257 88.9906C60.1577 88.4156 59.0025 88.4221 58.2399 89.003C58.0963 89.1133 57.9308 88.8928 58.0754 88.7829Z" fill="#242422"/>
<path d="M59.224 90.1059C59.4075 89.6745 59.3974 89.1633 59.1957 88.7384C59.1179 88.5751 59.3638 88.454 59.4429 88.6198C59.6777 89.1148 59.69 89.7112 59.4755 90.2149C59.4054 90.3821 59.152 90.2745 59.224 90.1059Z" fill="#242422"/>
<path d="M47.8709 86.7097C47.8036 86.7097 47.7454 86.6601 47.7358 86.5911C47.7251 86.5156 47.7769 86.446 47.8517 86.4352C48.0242 86.4098 48.1844 86.3985 48.3387 86.3877C48.664 86.3645 48.9444 86.3446 49.2659 86.2049C49.9516 85.9077 49.8362 85.3362 49.8699 84.5755C50.1022 79.3379 49.922 79.3165 50.1936 79.2734C50.2689 79.2772 50.3271 79.3414 50.3239 79.418C50.0414 85.6905 50.3885 86.0193 49.3738 86.4584C49.0101 86.617 48.6934 86.6396 48.358 86.6634C48.2095 86.6736 48.0557 86.6844 47.8901 86.7081C47.8837 86.7092 47.8773 86.7097 47.8709 86.7097Z" fill="#242422"/>
<path d="M47.6048 83.4613C47.4391 84.3899 46.8602 85.0621 46.3131 84.9625C45.7652 84.8628 45.4551 84.0288 45.6208 83.1002C45.7865 82.1716 46.3654 81.4994 46.9133 81.5992C47.4604 81.6987 47.7705 82.5327 47.6048 83.4613Z" fill="#242422"/>
<path d="M45.1568 89.3895C44.7317 89.3895 44.2537 88.9742 44.0694 88.6695C43.7661 88.17 43.6374 87.3691 44.0721 86.7898C44.117 86.7299 44.2024 86.717 44.2638 86.7633C44.3236 86.8092 44.3354 86.896 44.29 86.957C43.9327 87.4322 44.0459 88.1031 44.3023 88.5249C44.4491 88.7671 44.8524 89.1134 45.1563 89.1134C45.1595 89.1134 45.1627 89.1134 45.1659 89.1134C45.2924 89.1101 45.3891 89.0433 45.4617 88.909C45.4986 88.8415 45.583 88.8189 45.6476 88.8539C45.7138 88.8906 45.7379 88.9748 45.7021 89.0416C45.5499 89.3221 45.3298 89.3858 45.1723 89.3895C45.1669 89.3895 45.1616 89.3895 45.1568 89.3895Z" fill="#242422"/>
<path d="M48.7398 102.666C49.5019 102.695 50.2533 102.178 50.5068 101.453C50.7606 100.726 50.4952 99.8481 49.8844 99.3882C50.36 99.1579 50.4262 98.4452 50.1355 98.0002C49.8435 97.5562 49.3217 97.3313 48.8163 97.1789C47.4131 96.7583 45.8968 96.725 44.48 97.0951C43.9899 97.2236 43.3374 97.2883 43.1161 97.8269C42.9275 98.2826 43.1342 98.6736 43.5469 98.9094C43.6513 98.9694 43.7809 99.0272 43.806 99.1457C43.8585 99.4068 43.4653 99.4676 43.3542 99.5022C42.6036 99.7375 42.4725 100.768 43.143 101.186C44.5652 102.075 46.0399 102.581 47.7122 102.626" fill="#AEEA00"/>
<path d="M48.7398 102.666C49.5019 102.695 50.2533 102.178 50.5068 101.453C50.7606 100.726 50.4952 99.8481 49.8844 99.3882C50.36 99.1579 50.4262 98.4452 50.1355 98.0002C49.8435 97.5562 49.3217 97.3313 48.8163 97.1789C47.4131 96.7583 45.8968 96.725 44.48 97.0951C43.9899 97.2236 43.3374 97.2883 43.1161 97.8269C42.9275 98.2826 43.1342 98.6736 43.5469 98.9094C43.6513 98.9694 43.7809 99.0272 43.806 99.1457C43.8585 99.4068 43.4653 99.4676 43.3542 99.5022C42.6036 99.7375 42.4725 100.768 43.143 101.186C44.5652 102.075 46.0399 102.581 47.7122 102.626" fill="white" fill-opacity="0.32"/>
<path d="M58.0871 109.636C56.7669 110.472 55.3754 111.159 53.9115 111.703C46.0134 114.64 37.5009 112.81 31.5977 107.819C31.9084 106.342 32.6333 104.944 33.7206 103.728C34.3239 103.059 35.0772 102.505 35.793 101.954C39.2814 99.2272 45.7276 101.36 49.6462 102.059C51.8634 102.463 54.1308 103.229 55.6076 104.946C56.5848 106.076 57.6796 107.943 58.0871 109.636Z" fill="#AEEA00"/>
<path d="M58.0871 109.636C56.7669 110.472 55.3754 111.159 53.9115 111.703C46.0134 114.64 37.5009 112.81 31.5977 107.819C31.9084 106.342 32.6333 104.944 33.7206 103.728C34.3239 103.059 35.0772 102.505 35.793 101.954C39.2814 99.2272 45.7276 101.36 49.6462 102.059C51.8634 102.463 54.1308 103.229 55.6076 104.946C56.5848 106.076 57.6796 107.943 58.0871 109.636Z" fill="white" fill-opacity="0.32"/>
<path d="M48.267 99.6585C46.6884 99.6224 44.1696 99.5647 44.3319 99.5684C43.323 99.5455 42.7989 99.1811 43.0117 97.7275C43.0396 97.5387 43.3081 97.5926 43.282 97.7675C43.0929 99.0644 43.5056 99.2741 44.3384 99.2923C48.2174 99.4399 48.4092 99.2595 48.4037 99.5236C48.4021 99.5986 48.3412 99.6585 48.267 99.6585Z" fill="#242422"/>
<path d="M44.6859 101.709C44.5142 101.645 44.6148 101.384 44.7809 101.45C45.9439 101.885 48.7797 102.577 49.7542 102.071C50.2669 101.806 50.5478 101.158 50.394 100.598C50.3466 100.422 50.6079 100.349 50.6578 100.525C50.8448 101.206 50.5024 101.994 49.8792 102.317C48.7862 102.882 45.8988 102.162 44.6859 101.709Z" fill="#242422"/>
<path d="M41.5342 76.6405C41.5267 76.6405 41.5187 76.64 41.5102 76.6384C41.4359 76.6249 41.3863 76.5537 41.3996 76.4782C41.5064 75.8671 41.6426 75.25 41.8034 74.6443C41.8482 74.4719 42.1153 74.5369 42.0672 74.7155C41.9086 75.3137 41.7745 75.9226 41.6688 76.5267C41.6571 76.5936 41.5994 76.6405 41.5342 76.6405Z" fill="#242422"/>
<path d="M47.8975 75.7354C48.0514 75.3579 48.2228 74.9819 48.4076 74.6184C48.4901 74.4556 48.7332 74.5813 48.6511 74.7446C48.4695 75.1017 48.3013 75.4701 48.1507 75.8401C48.0811 76.0098 47.8286 75.903 47.8975 75.7354Z" fill="#242422"/>
<path d="M54.4165 76.9916C54.6531 76.5121 54.9127 76.0353 55.1867 75.5741C55.2785 75.4181 55.5144 75.5594 55.4206 75.7165C55.1503 76.1712 54.895 76.6415 54.6611 77.1145C54.5801 77.2782 54.3358 77.1546 54.4165 76.9916Z" fill="#242422"/>
<path d="M57.9863 80.9199C58.0735 80.6675 58.1875 80.4227 58.3244 80.1919C58.4158 80.0367 58.6531 80.1749 58.5598 80.3343C58.432 80.5483 58.326 80.7759 58.2452 81.0105C58.1856 81.1826 57.9271 81.0925 57.9863 80.9199Z" fill="#242422"/>
<path d="M46.3406 81.1898C45.6716 81.3992 45.0289 81.2425 44.9055 80.8405C44.7819 80.4379 45.2242 79.9415 45.8931 79.732C46.5621 79.5226 47.2049 79.6793 47.3285 80.082C47.4518 80.4839 47.0095 80.9804 46.3406 81.1898Z" fill="#242422"/>
<path d="M51.0282 83.9033C51.1923 84.8322 51.7701 85.5054 52.3173 85.4067C52.8654 85.3079 53.1769 84.4744 53.0127 83.5456C52.8486 82.6167 52.2708 81.9435 51.7227 82.0423C51.1755 82.141 50.864 82.9745 51.0282 83.9033Z" fill="#242422"/>
<path d="M52.293 81.6329C52.9616 81.8435 53.6047 81.6878 53.7287 81.2861C53.853 80.8837 53.4115 80.3865 52.7429 80.1759C52.0743 79.9653 51.4313 80.121 51.307 80.5234C51.183 80.9251 51.6244 81.4223 52.293 81.6329Z" fill="#242422"/>
<path d="M41.0134 81.7909C42.0886 80.706 43.0931 79.5483 43.8884 78.2355C44.5581 77.1301 44.5656 78.5466 46.0707 78.8379C46.7079 78.9612 47.3921 78.8132 47.9234 78.4372C48.1987 78.2423 48.758 77.6892 49.2191 78.0133C49.6578 78.3218 49.3844 79.1032 51.1272 79.5323C51.8994 79.7225 51.7456 79.9509 53.1587 79.5509C53.4358 79.4725 53.7248 79.3402 53.857 79.0821C53.5896 79.6044 53.993 80.416 54.3671 80.7862C54.9389 81.3519 55.7804 81.6095 56.5647 81.4218C56.046 82.9312 55.7692 84.6926 56.9751 85.9497C56.7491 85.7141 58.0699 85.3205 58.1104 85.2931C58.4552 85.0598 58.693 84.3134 58.7371 83.9171C58.9144 82.3225 57.7135 80.9225 57.0407 79.7003C55.921 77.6663 55.9102 77.0764 53.2315 76.4055C49.5518 75.4838 49.6694 75.9492 47.663 75.7531C45.9022 75.5811 42.9749 74.3522 41.3177 76.0867C40.9991 76.4201 40.7794 76.8349 40.5638 77.2438C39.1406 79.9433 38.953 80.1968 38.9371 80.732C38.9271 81.0734 39.0434 81.4165 38.9818 81.7524C38.9379 81.9918 38.8046 82.2289 38.8651 82.4646C39.0663 83.2498 40.7798 82.0265 41.0134 81.7909Z" fill="#242422"/>
<path d="M94.8647 91.6377L94.7473 94.2743C94.5394 99.4312 94.3879 104.549 94.0614 109.712C93.9904 110.73 93.9605 111.873 94.6101 112.613C95.5707 113.734 97.2537 113.454 98.5966 113.124C100.385 112.692 102.251 112.534 104.053 112.248C115.373 110.539 119.164 110.516 126.971 109.094C128.857 108.748 131.645 108.963 132.796 107.028C133.493 105.839 133.492 104.428 133.445 103.107C133.032 85.0514 133.071 83.7846 132.651 83.7233C132.348 83.4178 134.021 83.1674 111.348 87.4L101.642 89.2094C100.416 89.4366 99.1683 89.6608 97.9429 89.8883C97.2317 90.0234 95.3643 90.0853 95.0065 90.8218C94.8969 91.0926 94.8834 91.3539 94.8647 91.6377Z" fill="#242422"/>
<path d="M94.8647 91.6377L94.7473 94.2743C94.5394 99.4312 94.3879 104.549 94.0614 109.712C93.9904 110.73 93.9605 111.873 94.6101 112.613C95.5707 113.734 97.2537 113.454 98.5966 113.124C100.385 112.692 102.251 112.534 104.053 112.248C115.373 110.539 119.164 110.516 126.971 109.094C128.857 108.748 131.645 108.963 132.796 107.028C133.493 105.839 133.492 104.428 133.445 103.107C133.032 85.0514 133.071 83.7846 132.651 83.7233C132.348 83.4178 134.021 83.1674 111.348 87.4L101.642 89.2094C100.416 89.4366 99.1683 89.6608 97.9429 89.8883C97.2317 90.0234 95.3643 90.0853 95.0065 90.8218C94.8969 91.0926 94.8834 91.3539 94.8647 91.6377Z" fill="white" fill-opacity="0.64"/>
<path d="M94.8684 91.6382L94.751 94.2748C95.1498 94.8828 95.622 95.4776 96.0996 96.0493C98.3333 98.7315 99.816 99.7549 104.872 100.104C111.598 100.536 118.704 99.8294 125.001 96.6377C127.845 95.2068 128.573 94.1853 129.846 91.6085C132.289 86.8122 132.151 85.6966 132.929 84.2657C132.898 84.0937 132.817 83.9383 132.713 83.7798C132.695 83.7533 132.678 83.7271 132.655 83.7238C132.352 83.4183 134.025 83.1679 111.352 87.4005L101.645 89.2099C100.42 89.4371 99.172 89.6613 97.9466 89.8888C97.2354 90.0239 95.368 90.0858 95.0101 90.8223C94.9005 91.0931 94.8871 91.3544 94.8684 91.6382Z" fill="#242422"/>
<path d="M94.8684 91.6382L94.751 94.2748C95.1498 94.8828 95.622 95.4776 96.0996 96.0493C98.3333 98.7315 99.816 99.7549 104.872 100.104C111.598 100.536 118.704 99.8294 125.001 96.6377C127.845 95.2068 128.573 94.1853 129.846 91.6085C132.289 86.8122 132.151 85.6966 132.929 84.2657C132.898 84.0937 132.817 83.9383 132.713 83.7798C132.695 83.7533 132.678 83.7271 132.655 83.7238C132.352 83.4183 134.025 83.1679 111.352 87.4005L101.645 89.2099C100.42 89.4371 99.172 89.6613 97.9466 89.8888C97.2354 90.0239 95.368 90.0858 95.0101 90.8223C94.9005 91.0931 94.8871 91.3544 94.8684 91.6382Z" fill="white" fill-opacity="0.64"/>
<path d="M114.153 94.2732C113.253 93.9777 112.102 94.4407 111.592 95.316C111.199 95.9895 111.23 96.7568 111.467 97.1779C111.888 97.9279 113.347 98.1758 114.19 97.8823C116.021 97.2444 115.672 94.7721 114.153 94.2732Z" fill="#242422"/>
<path d="M88.3963 121.786C88.3416 121.676 88.3672 121.654 88.3509 119.145C88.3483 118.769 88.8953 118.783 88.8978 119.142C88.8985 119.255 88.9113 121.163 88.9106 121.34L89.3881 121.267C89.7553 121.22 89.8217 121.758 89.4714 121.812L88.682 121.935C88.5634 121.953 88.4489 121.892 88.3963 121.786ZM92.631 120.763L95.8744 120.261C96.0308 120.241 96.1633 120.341 96.1862 120.491C96.2092 120.642 96.1067 120.783 95.9577 120.806L92.7143 121.309C92.3515 121.363 92.2778 120.818 92.631 120.763ZM99.1178 119.757L102.361 119.254C102.73 119.209 102.794 119.746 102.444 119.8L99.2011 120.303C98.8416 120.357 98.7615 119.813 99.1178 119.757ZM105.605 118.751L108.847 118.248C109.216 118.202 109.28 118.74 108.931 118.794L105.688 119.297C105.328 119.351 105.248 118.807 105.605 118.751ZM112.091 117.746L115.334 117.242C115.701 117.196 115.768 117.734 115.418 117.788L112.174 118.291C111.815 118.345 111.735 117.801 112.091 117.746ZM118.578 116.739L121.821 116.236C121.977 116.217 122.11 116.317 122.133 116.467C122.156 116.618 122.053 116.759 121.904 116.782L118.661 117.285C118.301 117.339 118.221 116.795 118.578 116.739ZM125.064 115.733L128.307 115.23C128.674 115.183 128.741 115.721 128.391 115.776L125.147 116.279C124.788 116.333 124.708 115.789 125.064 115.733ZM88.3312 115.825L88.3119 112.506C88.3109 112.353 88.4326 112.229 88.5838 112.228C88.5843 112.228 88.5848 112.228 88.5854 112.228C88.736 112.228 88.8578 112.351 88.8588 112.503L88.8781 115.822C88.8807 116.2 88.3337 116.183 88.3312 115.825ZM131.551 114.727L134.453 114.277C134.818 114.227 134.889 114.768 134.537 114.823L131.634 115.273C131.275 115.327 131.194 114.783 131.551 114.727ZM88.5683 109.463C88.4177 109.463 88.2959 109.341 88.2948 109.188L88.2783 105.87C88.2778 105.718 88.3995 105.594 88.5507 105.593C88.7013 105.593 88.8246 105.716 88.8252 105.868L88.8417 109.185C88.8428 109.338 88.721 109.462 88.5699 109.463C88.5694 109.463 88.5688 109.463 88.5683 109.463ZM88.5373 102.828C88.3867 102.828 88.2644 102.705 88.2639 102.553L88.2505 99.2349C88.25 99.0822 88.3718 98.9582 88.5229 98.9576C88.5224 98.9576 88.5234 98.9576 88.5229 98.9576C88.6735 98.9576 88.7969 99.0806 88.7974 99.2327L88.8108 102.55C88.8113 102.703 88.6885 102.827 88.5373 102.828C88.5378 102.828 88.5368 102.828 88.5373 102.828ZM88.5127 96.1934C88.3621 96.1934 88.2398 96.0704 88.2393 95.9177L88.2302 92.6001C88.2297 92.4474 88.352 92.3239 88.5031 92.3234C88.6537 92.3234 88.7766 92.4463 88.7771 92.599L88.7862 95.9167C88.7867 96.0688 88.6639 96.1928 88.5127 96.1934ZM88.4978 89.558C88.3472 89.558 88.2244 89.4345 88.2244 89.2824L88.2217 85.9642C88.2217 85.5986 88.7686 85.5989 88.7686 85.9642L88.7712 89.2813C88.7712 89.434 88.6489 89.558 88.4978 89.558ZM88.4978 82.9248C88.3467 82.9243 88.2238 82.8008 88.2244 82.6481C88.2265 81.4658 88.2297 80.3537 88.2345 79.3326C88.235 79.1805 88.3573 79.0575 88.5079 79.0575C88.6591 79.0581 88.7819 79.1827 88.7814 79.3348C88.7766 80.3558 88.7734 81.4669 88.7712 82.6492C88.7707 82.8013 88.6484 82.9248 88.4978 82.9248ZM88.5336 76.2944C88.5325 76.2944 88.5314 76.2944 88.5304 76.2944C88.3792 76.2927 88.2585 76.1676 88.2601 76.015C88.2964 72.8316 88.3504 72.6941 88.3862 72.6034C88.5163 72.2756 89.0115 72.4549 88.8999 72.7928C88.8813 72.8839 88.8369 73.3861 88.807 76.0214C88.8054 76.173 88.6831 76.2944 88.5336 76.2944Z" fill="#242422"/>
<path d="M76.0553 121.822C75.9063 121.798 75.8048 121.656 75.8283 121.506C75.8902 121.117 76.3816 121.343 76.5333 121.34L76.6267 119.049C76.6421 118.684 77.1877 118.707 77.1736 119.072C76.9931 122.469 77.3409 121.962 76.0553 121.822ZM72.8151 121.299L69.5749 120.777C69.2202 120.719 69.3003 120.175 69.6614 120.231L72.9016 120.753C73.0506 120.778 73.1521 120.919 73.1286 121.07C73.1054 121.214 72.9737 121.322 72.8151 121.299ZM66.3347 120.253L63.0945 119.73C62.7419 119.673 62.8172 119.132 63.181 119.184L66.4212 119.708C66.5702 119.732 66.6717 119.874 66.6482 120.024C66.625 120.168 66.4933 120.276 66.3347 120.253ZM59.8543 119.208L56.6141 118.684C56.2632 118.627 56.3344 118.087 56.7006 118.138L59.9408 118.662C60.0898 118.686 60.1913 118.828 60.1678 118.978C60.1446 119.122 60.0129 119.23 59.8543 119.208ZM53.3739 118.162L50.1337 117.638C49.9847 117.614 49.8833 117.472 49.9067 117.322C49.9308 117.171 50.0691 117.071 50.2202 117.093L53.4604 117.616C53.6094 117.64 53.7109 117.782 53.6874 117.932C53.6642 118.077 53.5325 118.185 53.3739 118.162ZM46.8935 117.115L43.6533 116.593C43.3025 116.536 43.3737 115.996 43.7399 116.047L46.9801 116.569C47.1291 116.594 47.2305 116.736 47.207 116.886C47.1838 117.03 47.0521 117.138 46.8935 117.115ZM40.4131 116.069L37.1729 115.546C36.8165 115.488 36.9003 114.941 37.2595 115L40.4997 115.524C40.6487 115.548 40.7501 115.69 40.7266 115.84C40.7034 115.984 40.5717 116.092 40.4131 116.069ZM77.0353 116.026C77.0316 116.026 77.0278 116.026 77.0241 116.026C76.873 116.019 76.756 115.891 76.7619 115.738L76.8965 112.428C76.9121 112.055 77.4572 112.089 77.4433 112.45L77.3088 115.761C77.3023 115.909 77.1811 116.026 77.0353 116.026ZM33.9328 115.024L30.6926 114.5C30.3343 114.442 30.4227 113.895 30.7791 113.955L34.0193 114.478C34.1683 114.502 34.2697 114.644 34.2463 114.794C34.223 114.939 34.0913 115.047 33.9328 115.024ZM27.4524 113.977L24.2122 113.455C23.8547 113.396 23.9414 112.851 24.2987 112.909L27.5389 113.431C27.6879 113.456 27.7894 113.598 27.7659 113.748C27.7426 113.892 27.6109 114 27.4524 113.977ZM20.972 112.931L17.7318 112.408C17.3776 112.351 17.4563 111.807 17.8183 111.862L21.0585 112.386C21.2075 112.41 21.309 112.552 21.2855 112.702C21.2622 112.846 21.1305 112.954 20.972 112.931ZM77.305 109.404C77.3013 109.404 77.2975 109.404 77.2938 109.404C77.1427 109.397 77.0257 109.269 77.0316 109.116L77.1667 105.805C77.1823 105.434 77.7275 105.466 77.7136 105.828L77.5785 109.139C77.572 109.287 77.4508 109.404 77.305 109.404ZM77.5752 102.782C77.5715 102.782 77.5678 102.782 77.564 102.782C77.4129 102.775 77.2959 102.646 77.3018 102.494L77.4369 99.1828C77.4511 98.8141 77.9979 98.8419 77.9838 99.2055L77.8487 102.517C77.8423 102.665 77.7211 102.782 77.5752 102.782ZM77.8455 96.1597C77.8418 96.1597 77.838 96.1597 77.8343 96.1597C77.6831 96.1532 77.5662 96.0243 77.572 95.8722L77.7072 92.561C77.7231 92.1813 78.2678 92.2272 78.2541 92.5836L78.1189 95.8948C78.1125 96.0432 77.9913 96.1597 77.8455 96.1597ZM78.1157 89.5373C78.112 89.5373 78.1082 89.5373 78.1045 89.5373C77.9534 89.5308 77.8364 89.4024 77.8423 89.2498L77.9769 85.9386C77.9927 85.5619 78.5376 85.6025 78.5238 85.9613L78.3892 89.2724C78.3828 89.4208 78.2615 89.5373 78.1157 89.5373ZM78.3854 82.9149C78.3817 82.9149 78.378 82.9149 78.3742 82.9149C78.2231 82.9084 78.1061 82.7795 78.112 82.6274L78.2471 79.3167C78.2632 78.9346 78.8077 78.9851 78.794 79.3394L78.6589 82.6501C78.6525 82.7984 78.5312 82.9149 78.3854 82.9149ZM78.6557 76.293C78.6519 76.293 78.6482 76.293 78.6445 76.293C78.4933 76.2866 78.3764 76.1577 78.3822 76.0055L78.5173 72.6944C78.5336 72.3088 79.0778 72.3661 79.0642 72.717L78.9291 76.0282C78.9227 76.1765 78.8015 76.293 78.6557 76.293Z" fill="#242422"/>
<path d="M100.497 99.2154C97.0761 97.4576 94.8047 94.3131 94.5681 91.0083C94.5574 90.8562 94.6706 90.7241 94.8212 90.7128C94.975 90.6998 95.1027 90.8163 95.1139 90.9684C95.3361 94.0811 97.4937 97.0525 100.745 98.7235C103.31 100.042 106.437 100.613 110.584 100.522C116.431 100.392 121.284 99.0579 125.008 96.5563C129.467 93.5612 132.236 88.593 132.06 83.8994C132.047 83.5274 132.593 83.5258 132.607 83.8789C132.789 88.7602 129.926 93.9172 125.311 97.0158C121.499 99.5768 116.548 100.942 110.595 101.074C107.13 101.152 103.585 100.803 100.497 99.2154Z" fill="#242422"/>
<path d="M152.343 81.6587C152.174 79.4773 151.679 78.3974 148.383 77.45C144.246 76.237 139.588 75.1369 135.312 74.821C133.639 74.6884 130.576 74.1472 129.023 74.8983C127.645 75.5611 127.569 78.7204 127.383 80.0901C127.022 82.6418 126.945 85.2377 127.153 87.8115C127.315 89.7739 128.078 90.0876 129.756 89.9766C133.234 89.7667 136.702 90.2527 140.147 90.8603C140.511 90.9188 143.087 91.34 143.778 91.5783C145.242 92.0533 145.8 93.2038 145.572 94.0527C145.419 94.6491 144.905 95.0689 144.5 95.5328C144.095 95.9968 143.767 96.6485 144.03 97.2119C146.863 97.4141 150.176 96.5735 151.074 95.7316C151.653 95.1904 151.818 94.3399 151.927 93.5556C152.507 89.6231 152.649 85.6243 152.343 81.6587ZM141.58 85.2708C141.35 85.6133 141.055 85.9336 140.705 86.1545C138.636 87.3951 134.326 85.735 133.453 82.929C133.016 81.5482 133.475 79.8471 134.7 79.0959C136.271 78.1223 139.414 78.3365 141.109 80.2889C142.269 81.6366 142.553 83.7685 141.58 85.2708Z" fill="#AEEA00"/>
<path d="M152.343 81.6587C152.174 79.4773 151.679 78.3974 148.383 77.45C144.246 76.237 139.588 75.1369 135.312 74.821C133.639 74.6884 130.576 74.1472 129.023 74.8983C127.645 75.5611 127.569 78.7204 127.383 80.0901C127.022 82.6418 126.945 85.2377 127.153 87.8115C127.315 89.7739 128.078 90.0876 129.756 89.9766C133.234 89.7667 136.702 90.2527 140.147 90.8603C140.511 90.9188 143.087 91.34 143.778 91.5783C145.242 92.0533 145.8 93.2038 145.572 94.0527C145.419 94.6491 144.905 95.0689 144.5 95.5328C144.095 95.9968 143.767 96.6485 144.03 97.2119C146.863 97.4141 150.176 96.5735 151.074 95.7316C151.653 95.1904 151.818 94.3399 151.927 93.5556C152.507 89.6231 152.649 85.6243 152.343 81.6587ZM141.58 85.2708C141.35 85.6133 141.055 85.9336 140.705 86.1545C138.636 87.3951 134.326 85.735 133.453 82.929C133.016 81.5482 133.475 79.8471 134.7 79.0959C136.271 78.1223 139.414 78.3365 141.109 80.2889C142.269 81.6366 142.553 83.7685 141.58 85.2708Z" fill="white" fill-opacity="0.32"/>
<path d="M149.092 95.1196C149.251 95.5856 149.227 96.1312 148.95 96.5368C148.24 97.5773 146.173 97.4976 144.162 97.5917C143.594 97.6183 142.914 97.5891 142.615 97.101C142.509 96.9284 142.471 96.723 142.441 96.5223C142.246 95.2186 142.305 93.8768 142.613 92.5956C142.698 92.2398 142.824 91.8591 143.127 91.6582C143.871 91.1656 145.871 92.2689 146.593 92.6412C147.624 93.1734 148.702 93.9679 149.092 95.1196Z" fill="#242422"/>
<path d="M96.9786 74.4535C137.009 65.5747 135.164 65.5822 135.28 66.1143C135.396 66.6439 137.08 65.8596 97.0971 74.9928C96.7383 75.0712 96.6294 74.5327 96.9786 74.4535Z" fill="#242422"/>
<path d="M99.3472 79.3959L125.732 73.8921C126.084 73.8156 126.198 74.3584 125.843 74.4326L99.4583 79.9363C99.1108 80.0166 98.9886 79.4707 99.3472 79.3959Z" fill="#242422"/>
<path d="M121.744 33.3708C123.516 25.3776 121.273 21.1069 120.777 16.0587C120.743 15.697 121.285 15.6358 121.321 16.0036C121.814 21.0092 124.076 25.3784 122.278 33.4917C122.198 33.847 121.666 33.7287 121.744 33.3708Z" fill="#242422"/>
<path d="M106.91 42.2598C105.914 43.4444 104.614 44.2481 103.255 43.5295C101.467 42.5802 100.697 39.5918 100.858 37.5349C100.018 38.4989 98.9427 39.2483 98.2098 39.5619C95.7492 40.7326 93.6592 39.8426 93.5463 36.4605C92.4915 37.0521 91.3012 37.587 90.1598 37.1816C89.3875 36.9125 89.0532 36.289 88.8481 35.7766C85.9833 28.4191 90.9575 20.4956 97.9865 18.2114C105.549 16.9812 114.642 17.9057 122.667 17.1715C123.027 17.1428 123.076 17.6882 122.716 17.7217C114.767 18.4486 105.613 17.5325 98.1137 18.747C91.4796 20.921 86.5859 28.466 89.356 35.5716C89.7191 36.4803 90.3202 36.9398 91.5665 36.7053C92.2713 36.5745 92.9697 36.153 93.6846 35.7512C93.8684 35.6515 94.0929 35.7848 94.0894 35.9982C94.0328 39.2103 95.6411 40.1737 97.9871 39.0575C98.2568 38.9421 98.5131 38.7986 98.7807 38.6153C100.993 37.1782 100.911 36.0008 101.419 36.2269C101.542 36.2819 101.608 36.4195 101.573 36.5505C100.621 40.1387 103.346 46.3218 106.884 41.3984C107.033 41.1929 107.36 41.2829 107.378 41.5424C107.451 42.6411 107.724 43.3353 108.189 43.6066C109.658 44.4605 113.003 41.1534 114.16 39.7798C117.082 36.2831 120.594 36.8766 124.841 36.9653C125.199 36.973 125.194 37.5176 124.835 37.5176C120.898 37.5176 117.452 36.6984 114.577 40.1368C111.847 43.385 107.616 46.4371 106.91 42.2598Z" fill="#242422"/>
<path d="M93.8195 36.274C93.8168 36.274 93.8141 36.274 93.8114 36.274C93.6603 36.2692 93.5417 36.1419 93.546 35.9898C93.6656 31.9321 95.5461 28.0411 98.4541 25.8345C98.7453 25.6149 99.0712 26.0568 98.7831 26.2757C96.0043 28.3841 94.2072 32.1128 94.0929 36.0059C94.0886 36.1559 93.9669 36.274 93.8195 36.274Z" fill="#242422"/>
<path d="M101.039 36.446C101.396 33.8312 102.705 31.4984 104.724 29.8765C105.013 29.6505 105.346 30.0831 105.065 30.3091C103.128 31.8641 101.923 34.0124 101.581 36.5215C101.532 36.8826 100.989 36.8084 101.039 36.446Z" fill="#242422"/>
<path d="M106.839 41.4912C107.5 39.0025 109.141 36.1002 110.921 34.2695C111.027 34.1606 111.2 34.1595 111.308 34.2663C111.416 34.3731 111.417 34.5479 111.311 34.6568C109.591 36.4254 108.007 39.2296 107.368 41.6346C107.273 41.9862 106.746 41.8449 106.839 41.4912Z" fill="#242422"/>
<path d="M121.476 37.3707C121.435 38.3146 121.384 39.3168 121.838 40.1423C122.521 41.3803 123.411 40.933 124.44 40.8503C126.122 40.7152 127.706 41.0659 129.419 40.6958C132.186 40.0978 132.723 38.7346 132.861 35.8796C133.13 30.2818 133.235 24.495 131.188 19.2856C129.359 14.6295 126.962 15.4103 124.374 15.4006C123.251 15.3963 121.784 15.3081 120.806 15.9513C119.984 16.4912 119.584 17.5191 119.538 18.5079C119.44 20.5921 121.938 26.7877 121.476 37.3707Z" fill="#242422"/>
<path d="M122.722 32.4951C122.717 32.4951 122.712 32.4951 122.707 32.4946C122.557 32.4865 122.441 32.3565 122.449 32.2044C122.805 25.4155 118.611 17.9402 120.214 15.8857C120.951 14.9411 121.966 15.0385 126.761 14.286C127.126 14.2402 127.194 14.7793 126.841 14.8329L122.462 15.485C119.545 15.9196 120.074 17.1156 121.436 22.2708C122.29 25.5006 123.173 28.8403 122.995 32.2335C122.987 32.3808 122.867 32.4951 122.722 32.4951Z" fill="#242422"/>
<path d="M48.1852 37.2534C49.9797 35.4663 51.862 33.7418 54.0152 32.4191C56.2186 31.0654 58.8965 29.9183 61.399 29.2938C62.5646 29.003 62.92 29.1989 63.5644 29.8656C64.7164 31.0575 66.0587 32.359 66.6791 33.9394C67.175 35.2029 66.7961 37.0084 66.3864 38.2675C65.4339 41.1939 63.3244 43.7022 61.0591 45.7012C57.7599 48.6125 53.4128 51.1678 48.9021 51.1167C45.7779 51.0813 43.6867 49.1507 42.1441 46.5362C41.835 46.0124 41.5611 45.3464 41.864 44.8189C42.1218 44.37 42.6819 44.2275 43.1291 43.972C44.919 42.9493 44.8456 40.5794 48.1852 37.2534Z" fill="#242422"/>
<path d="M45.502 34.4652C47.2965 32.678 49.1788 30.9535 51.3321 29.6309C58.264 25.3728 63.3693 27.8983 64.0319 31.3236C64.8872 35.7449 61.4686 40.1838 58.3759 42.9129C55.0768 45.8243 50.7296 48.3796 46.2189 48.3285C44.1609 48.3052 42.5193 47.7468 41.4418 45.8586C39.5426 42.5307 42.8327 37.1236 45.502 34.4652Z" fill="#AEEA00"/>
<path d="M45.502 34.4652C47.2965 32.678 49.1788 30.9535 51.3321 29.6309C58.264 25.3728 63.3693 27.8983 64.0319 31.3236C64.8872 35.7449 61.4686 40.1838 58.3759 42.9129C55.0768 45.8243 50.7296 48.3796 46.2189 48.3285C44.1609 48.3052 42.5193 47.7468 41.4418 45.8586C39.5426 42.5307 42.8327 37.1236 45.502 34.4652Z" fill="white" fill-opacity="0.32"/>
<path d="M46.2152 48.6043C43.7633 48.5768 42.2177 47.7721 41.2041 45.9965C39.8406 43.6071 41.1469 40.4852 41.7718 39.2538C42.8105 37.2085 43.9016 35.6708 45.31 34.2684C46.9442 32.6406 48.9214 30.7884 51.1895 29.3952C58.3305 25.0081 63.6058 27.6824 64.2999 31.2706C65.3114 36.4987 60.6196 41.2996 58.5554 43.1211C55.1219 46.1505 50.7758 48.6567 46.2152 48.6043ZM42.2588 39.5062C41.6746 40.6567 40.4489 43.5661 41.6783 45.7203C42.7118 47.5315 44.2642 48.0526 46.3552 48.0526C51.1276 48.0531 55.4226 45.1518 58.1955 42.7047C60.1881 40.9464 64.7202 36.3223 63.7631 31.3763C63.3284 29.1298 61.0538 27.9065 58.9918 27.6902C56.19 27.4006 53.3541 28.7113 51.4737 29.8666C49.253 31.2307 47.3058 33.0559 45.694 34.6621C44.3284 36.0214 43.2693 37.5149 42.2588 39.5062Z" fill="#242422"/>
<path d="M64.5676 41.3897C64.4821 41.3897 64.3977 41.3493 64.3443 41.2727C63.7499 40.4232 62.9766 39.6777 62.1082 39.1179C61.9805 39.0354 61.9432 38.8649 62.0243 38.7365C62.1066 38.6071 62.277 38.571 62.4019 38.6519C63.3301 39.2506 64.1563 40.0461 64.7908 40.9544C64.8779 41.079 64.8485 41.2511 64.7251 41.339C64.6776 41.3735 64.6226 41.3897 64.5676 41.3897Z" fill="#242422"/>
<path d="M60.0865 31.2278C60.0412 31.5197 59.8428 31.5383 58.4251 32.7685L58.4888 32.437C59.7963 33.833 59.899 35.58 59.6161 35.983C59.4948 36.1534 59.3055 36.2763 59.0962 36.2796C58.3171 36.2919 59.4314 34.9341 57.6678 33.0508C56.8094 32.1343 55.9585 31.9413 55.225 32.1198C54.5093 32.2939 53.7238 32.8776 53.4394 33.5137C52.6864 35.2081 55.2554 36.8542 54.8177 38.9923C54.5058 40.5295 52.2675 42.3067 50.128 41.7442C49.5553 41.5937 49.0418 41.2941 48.5883 40.8455L48.8573 40.7864C47.3935 41.9702 47.3771 42.1305 47.0684 42.1371C46.6751 42.1481 46.5572 41.7124 46.8789 41.4428L48.3318 40.2253L48.2613 40.4694C47.3084 39.3978 47.2857 37.6598 47.6292 37.2789C47.831 37.0551 48.1416 36.9608 48.3317 37.1637C48.3898 37.2258 48.4143 37.3227 48.4048 37.4547C48.0887 39.9537 50.7102 42.1291 53.0023 40.2082C55.4231 38.1796 51.9711 36.3926 52.2976 33.905C52.5472 32.003 55.7365 29.8843 58.2552 32.1875L57.8858 32.2189C59.3931 30.9964 59.4092 30.8444 59.7118 30.8277C59.9336 30.816 60.125 30.9831 60.0865 31.2278Z" fill="#242422"/>
<path d="M25.1547 16.3362C27.3694 16.6536 29.5875 17.0672 31.6706 17.8903C33.8023 18.7323 36.0451 20.0238 37.8282 21.4716C38.6587 22.1458 38.7131 22.5045 38.5939 23.3227C38.0488 27.0665 37.781 28.6155 34.2409 29.8556C29.0271 31.6819 19.6058 29.3969 15.8522 24.3077C14.1957 22.0617 14.4195 19.5323 15.4165 17.0257C15.6163 16.5235 15.9342 15.9698 16.4659 15.9019C16.9183 15.844 17.3193 16.1666 17.7386 16.3479C19.3392 17.0399 21.1743 15.7659 25.1547 16.3362Z" fill="#242422"/>
<path d="M25.6598 12.9238C27.8744 13.2412 30.0925 13.6548 32.1756 14.4779C38.8818 17.1275 39.8642 22.1255 37.827 24.4411C35.1975 27.4301 30.2557 27.3821 26.6841 26.6463C22.8741 25.8615 18.7489 24.138 16.3572 20.8953C15.266 19.4158 14.7728 17.9452 15.5125 16.161C16.8162 13.0164 22.3654 12.4518 25.6598 12.9238Z" fill="#AEEA00"/>
<path d="M25.6598 12.9238C27.8744 13.2412 30.0925 13.6548 32.1756 14.4779C38.8818 17.1275 39.8642 22.1255 37.827 24.4411C35.1975 27.4301 30.2557 27.3821 26.6841 26.6463C22.8741 25.8615 18.7489 24.138 16.3572 20.8953C15.266 19.4158 14.7728 17.9452 15.5125 16.161C16.8162 13.0164 22.3654 12.4518 25.6598 12.9238Z" fill="white" fill-opacity="0.32"/>
<path d="M26.6289 26.9168C23.3091 26.2329 18.7935 24.6617 16.1371 21.0598C14.8297 19.2869 14.5594 17.7432 15.2596 16.0539C16.6205 12.7714 22.2651 12.1584 25.6974 12.65C27.7184 12.9401 30.08 13.3533 32.275 14.2201C43.3997 18.6183 40.3216 29.7331 26.6289 26.9168ZM23.5499 13.0475C11.0386 13.0475 13.8172 23.7141 26.7378 26.3753C29.0338 26.85 34.6906 27.59 37.6216 24.2572C38.9477 22.7502 38.5797 20.4859 37.6269 18.9099C36.3254 16.7578 33.8901 15.4514 32.0753 14.7346C29.9331 13.8884 27.6105 13.4822 25.6205 13.1969C24.9273 13.0976 24.2464 13.0475 23.5499 13.0475Z" fill="#242422"/>
<path d="M31.0159 30.0079C31.6709 27.9001 31.012 27.0149 31.5665 26.9691C31.7155 26.9513 31.849 27.0683 31.8618 27.221C31.9435 28.2086 31.8314 29.2296 31.5371 30.174C31.4301 30.5207 30.9067 30.3582 31.0159 30.0079Z" fill="#242422"/>
<path d="M35.4671 21.6105L33.8029 21.2228L34.0689 21.0898C33.8704 22.3182 33.2274 23.2298 32.4728 23.7097C32.3029 23.825 32.0955 23.8257 31.9204 23.7502C31.7711 23.6845 31.6243 23.5413 31.6387 23.3784C31.6449 23.3067 31.6975 23.234 31.7958 23.1614C32.1166 22.924 32.4058 22.6299 32.6635 22.2777C33.1344 21.6361 33.4066 20.338 33.1436 19.5085C32.8969 18.7322 32.2741 18.2786 31.4905 18.096C28.349 17.3641 29.8408 23.1096 25.5639 22.1132C23.7952 21.7011 22.6495 20.3086 22.8647 18.5578L23.0508 18.7178C21.4489 18.3147 21.3158 18.3872 21.1442 18.1695C21.0106 18.0024 21.0376 17.7927 21.2211 17.6935C21.4491 17.5682 21.5892 17.7043 23.1602 18.0412L22.9516 18.1224C23.1877 16.8665 24.3901 15.915 24.8411 15.9548C25.003 15.9691 25.1764 16.0399 25.2603 16.1829C25.5941 16.7502 24.092 16.6073 23.768 18.6122C23.5446 19.9944 24.3268 21.0446 25.6855 21.3612C28.4029 21.9943 27.8127 18.5637 29.7112 17.4668C31.1748 16.6212 34.3717 17.7543 34.1175 20.789L33.8968 20.5427L35.5764 20.934C36.1299 21.0629 36.0013 21.735 35.4671 21.6105Z" fill="#242422"/>
<path d="M98.3053 152.404C97.3146 152.103 96.4799 151.207 96.0729 150.009C95.7156 148.959 95.7012 147.814 95.6884 146.805C95.6611 144.589 95.6414 139.424 94.0669 137.822C93.644 137.393 92.8989 137.064 92.265 137.354C91.896 137.523 91.5825 137.894 91.3336 138.455C90.5726 140.176 90.8431 142.155 90.7579 144.143C90.6441 146.718 89.6117 148.633 87.9957 149.266C85.9352 150.078 83.6814 148.569 82.773 146.712C81.6494 144.413 81.9126 142.745 82.3174 131.263C82.3233 131.11 82.4627 131.016 82.6005 130.997C82.7516 131.002 82.8697 131.13 82.8643 131.282C82.4703 142.454 82.1915 144.274 83.2633 146.467C84.0686 148.114 86.0821 149.427 87.7981 148.752C89.8841 147.934 90.1725 144.999 90.2115 144.118C90.2962 142.176 90.0172 140.076 90.8348 138.23C91.1397 137.541 91.5451 137.077 92.0396 136.851C92.7889 136.509 93.7823 136.748 94.4547 137.433C96.1889 139.196 96.2055 144.387 96.2347 146.735C96.2481 147.813 96.2614 148.863 96.5899 149.83C96.9402 150.86 97.6404 151.625 98.4634 151.875C99.6603 152.24 100.963 151.47 101.63 150.52C102.375 149.464 102.628 148.119 102.789 146.825C103.723 139.384 102.207 135.475 103.479 132.185C104.551 129.414 107.147 129.133 108.633 131.23C109.826 132.917 109.798 134.63 109.638 136.694C109.468 138.89 109.635 141.409 110.133 144.183C110.473 146.071 111.283 148.42 113.212 148.879C114.881 149.272 116.52 147.932 117.223 146.467C117.869 145.124 118.017 143.57 118.16 142.067C118.362 139.985 118.634 138.115 119.268 135.779C119.657 134.349 120.26 133.572 121.111 133.403C122.604 133.108 123.521 134.77 123.887 136.424C125.456 143.543 125.676 145.405 127.028 146.992C128.027 148.166 129.917 148.856 131.23 147.923C132.414 147.081 132.574 145.426 132.729 143.826C132.958 141.426 133.687 137.608 135.971 136.778C136.482 136.593 136.994 136.629 137.452 136.884C139.702 138.142 137.252 142.246 145.703 142.105C146.079 142.117 146.061 142.651 145.712 142.657C143.233 142.702 139.793 142.461 138.549 139.911C138.406 139.619 138.296 139.302 138.19 138.997C137.953 138.314 137.729 137.67 137.187 137.368C136.036 136.723 134.743 138.233 134.262 139.471C133.791 140.683 133.48 141.951 133.338 143.241C133.132 145.121 133.094 147.273 131.545 148.375C129.983 149.484 127.769 148.708 126.613 147.352C125.429 145.962 125.021 144.115 124.662 142.484L123.353 136.544C123.058 135.208 122.319 133.726 121.216 133.945C120.589 134.069 120.124 134.717 119.796 135.925C119.171 138.223 118.9 140.084 118.705 142.12C118.557 143.672 118.403 145.276 117.716 146.709C116.919 148.365 115.024 149.879 113.087 149.416C110.869 148.889 109.964 146.333 109.595 144.281C108.16 136.288 110.246 134.462 108.188 131.552C106.953 129.804 104.9 130.032 103.989 132.385C103.346 134.047 103.47 135.943 103.557 137.747C103.709 140.946 103.911 148.235 102.076 150.841C101.454 151.725 99.7226 152.836 98.3053 152.404Z" fill="#242422"/>
<path d="M91.0748 146.682C89.2071 147.445 88.3766 143.239 90.5323 142.712C90.9713 142.605 91.4755 142.744 91.7557 143.102C91.9098 143.299 91.9897 143.545 92.0391 143.79C92.1876 144.531 92.0769 145.321 91.731 145.991C91.5817 146.28 91.374 146.56 91.0748 146.682Z" fill="#242422"/>
<path d="M104.892 146.562C105.001 147.253 104.726 147.961 104.296 148.509C103.009 150.151 101.091 148.376 101.522 146.697C101.943 145.057 104.578 144.591 104.892 146.562Z" fill="#242422"/>
<path d="M108.716 132.844C109.682 132.474 110.967 133.242 111.08 135.139C111.099 135.449 111.086 135.771 110.956 136.053C110.752 136.499 110.284 136.773 109.808 136.88C109.28 136.999 108.993 136.87 108.632 136.456C107.795 135.498 107.053 133.482 108.716 132.844Z" fill="#242422"/>
<path d="M119.893 143.664C119.817 144.296 119.39 144.854 118.844 145.156C118.021 145.612 117.77 145.133 117.378 144.451C117.042 143.866 116.8 143.487 117.146 142.838C118.171 140.913 120.077 142.149 119.893 143.664Z" fill="#242422"/>
<path d="M133.022 141.856C133.338 141.784 133.69 141.841 133.945 142.044C134.112 142.177 134.23 142.364 134.321 142.559C134.666 143.302 134.633 144.212 134.235 144.926C133.937 145.46 133.352 145.906 132.76 145.774C132.399 145.694 132.105 145.411 131.936 145.079C131.231 143.704 131.917 142.108 133.022 141.856Z" fill="#242422"/>
<path d="M143.068 143.042C141.806 143.54 139.538 142.107 141.252 141.12C141.805 140.801 142.568 140.764 143.135 141.063C144.064 141.554 144.063 142.65 143.068 143.042Z" fill="#242422"/>
</svg>
