<svg width="24" height="24" viewBox="0 0 24 24" fill="none" xmlns="http://www.w3.org/2000/svg">
<path fill-rule="evenodd" clip-rule="evenodd" d="M9.52015 6.07129C9.48199 6.10626 9.48002 6.13147 9.48002 6.14047V7H14.52V6.14047C14.52 6.13148 14.518 6.10627 14.4799 6.07129C14.4403 6.03498 14.3706 6 14.2755 6H9.72453C9.6294 6 9.55976 6.03499 9.52015 6.07129ZM16.52 7V6.14047C16.52 4.87793 15.4311 4 14.2755 4H9.72453C8.56889 4 7.48002 4.87794 7.48002 6.14047L7.48865 7H4C3.44772 7 3 7.44772 3 8C3 8.55228 3.44772 9 4 9H5.48865V17.8914C5.48865 19.1363 6.56198 20 7.69842 20H16.3026C17.439 20 18.5123 19.1363 18.5123 17.8914V9H20C20.5523 9 21 8.55228 21 8C21 7.44772 20.5523 7 20 7H16.52ZM16.52 9H7.49729L7.48865 17.8914C7.48865 17.8914 7.48734 17.9094 7.5186 17.938C7.55193 17.9686 7.61289 18 7.69842 18H16.3026C16.3881 18 16.449 17.9686 16.4824 17.938C16.5137 17.9094 16.5123 17.8914 16.5123 17.8914L16.52 9Z" fill="black" fill-opacity="0.87"/>
</svg>
