<svg width="25" height="24" viewBox="0 0 25 24" fill="none" xmlns="http://www.w3.org/2000/svg">
<path fill-rule="evenodd" clip-rule="evenodd" d="M4.5 7C4.5 5.34315 5.84315 4 7.5 4H17.5C19.1569 4 20.5 5.34315 20.5 7V17C20.5 18.6569 19.1569 20 17.5 20H7.5C5.84315 20 4.5 18.6569 4.5 17V7ZM7.5 6C6.94772 6 6.5 6.44772 6.5 7V13.4245V16V17C6.5 17.5523 6.94772 18 7.5 18H17.5C18.0523 18 18.5 17.5523 18.5 17V10.5695V7.99997V7C18.5 6.44772 18.0523 6 17.5 6H7.5Z" fill="black" fill-opacity="0.4"/>
<path d="M13.1338 13.6049C14.1126 14.3142 15.5138 14.1635 16.2967 13.235L18.5 10.5695V7.99997C18.2123 8.00013 17.9269 8.12381 17.7292 8.36287L14.7657 11.9479C14.7255 11.9944 14.6558 12.0362 14.5604 12.0472C14.4652 12.0581 14.3761 12.0343 14.3096 11.9871L11.9632 10.2556L11.9562 10.2505C10.9755 9.53988 9.56843 9.69178 8.78608 10.6411L6.5 13.4245V16C6.78876 15.9999 7.07517 15.8753 7.27276 15.6347L10.3298 11.9127C10.3718 11.862 10.4414 11.8203 10.5341 11.8092C10.6261 11.7982 10.7138 11.8211 10.7803 11.8683L13.1268 13.5999L13.1338 13.6049Z" fill="black" fill-opacity="0.4"/>
</svg>
