<svg width="165" height="165" viewBox="0 0 165 165" fill="none" xmlns="http://www.w3.org/2000/svg">
<path d="M45.8386 98.518C47.6783 96.6475 50.528 96.3135 53.1417 96.0858C88.102 93.0404 89.4021 92.5758 93.8676 93.8656C97.3528 94.8723 100.614 97.4994 101.282 101.065C101.705 103.318 101.066 105.619 100.433 107.822C95.2837 125.746 95.395 126.044 94.3663 127.148C93.329 128.261 91.7016 128.55 90.1922 128.74C77.7648 130.303 61.6369 130.256 50.0764 124.699C45.6463 122.57 45.5476 119.779 44.974 115.34C44.3469 110.486 41.843 102.581 45.8386 98.518Z" fill="#DDDDDB"/>
<path d="M45.8386 98.518C47.6783 96.6475 50.528 96.3135 53.1417 96.0858C88.102 93.0404 89.4021 92.5758 93.8676 93.8656C97.3528 94.8723 100.614 97.4994 101.282 101.065C101.705 103.318 101.066 105.619 100.433 107.822C95.2837 125.746 95.395 126.044 94.3663 127.148C93.329 128.261 91.7016 128.55 90.1922 128.74C77.7648 130.303 61.6369 130.256 50.0764 124.699C45.6463 122.57 45.5476 119.779 44.974 115.34C44.3469 110.486 41.843 102.581 45.8386 98.518Z" fill="#0D0D0D" fill-opacity="0.82"/>
<path d="M96.5913 36.9082C83.4404 30.6491 65.5018 27.8407 50.7764 30.2116C53.2784 25.1444 57.7464 20.8341 62.8766 18.9734C65.5784 17.9957 67.681 18.7736 70.4144 18.8367C73.4315 18.8998 76.312 17.859 79.3818 18.1113C82.3674 18.3636 85.4372 19.5936 87.9182 21.2336C93.0695 24.6398 95.561 31.0105 96.5913 36.9082Z" fill="#DDDDDB"/>
<path d="M96.5913 36.9082C83.4404 30.6491 65.5018 27.8407 50.7764 30.2116C53.2784 25.1444 57.7464 20.8341 62.8766 18.9734C65.5784 17.9957 67.681 18.7736 70.4144 18.8367C73.4315 18.8998 76.312 17.859 79.3818 18.1113C82.3674 18.3636 85.4372 19.5936 87.9182 21.2336C93.0695 24.6398 95.561 31.0105 96.5913 36.9082Z" fill="#0D0D0D" fill-opacity="0.64"/>
<path d="M48.9684 51.0586C48.9684 51.0586 48.9789 51.0586 48.9789 51.069C47.4651 52.4357 46.2351 54.0547 45.415 55.947C45.5937 55.4319 46.7502 52.2465 47.402 50.0493C47.896 50.4278 48.4217 50.7642 48.9684 51.0586Z" fill="#DDDDDB"/>
<path d="M48.9684 51.0586C48.9684 51.0586 48.9789 51.0586 48.9789 51.069C47.4651 52.4357 46.2351 54.0547 45.415 55.947C45.5937 55.4319 46.7502 52.2465 47.402 50.0493C47.896 50.4278 48.4217 50.7642 48.9684 51.0586Z" fill="#0D0D0D" fill-opacity="0.64"/>
<path d="M96.5916 36.9081C83.4407 30.649 65.5021 27.8406 50.7767 30.2115C38.9393 32.1143 30.5606 37.1815 29.4462 44.2566C28.9206 47.5682 30.0455 50.9533 32.495 54.1807C33.6132 52.6424 35.0331 52.7657 35.365 54.1597C35.497 54.7609 35.4677 55.5878 35.4701 55.8733L35.5647 56.0099C37.1706 51.9952 38.5342 49.5357 39.6962 47.3579C41.0377 44.9562 44.134 43.0603 46.3509 44.551C47.5073 45.3079 47.9698 46.8112 47.8542 48.1884C47.8331 48.4617 47.7175 48.9348 47.5598 49.5235C48.931 50.5657 49.3008 50.5383 49.3365 50.7535C50.339 49.8903 51.6058 48.899 52.8898 48.6825C53.6362 48.5458 54.4562 48.693 55.0345 49.1451L55.0449 49.1555C55.6602 48.5408 57.3837 47.3411 59.3027 46.5694C64.9638 44.2895 74.3444 44.8116 80.3914 46.0963C84.4388 46.9479 88.0447 49.8705 90.0736 53.8548C91.3133 56.3159 91.6588 58.9353 92.008 61.6974C92.008 61.7394 92.0186 61.7709 92.0186 61.813L92.0711 61.2033C92.9857 58.9746 95.7086 57.9863 98.1055 58.165C102.426 58.4736 106.569 62.1134 107.031 66.8907C111.026 64.4623 113.58 61.3189 114.169 57.6289C115.336 50.2068 108.219 42.4274 96.5916 36.9081ZM67.5132 41.6809C67.2398 40.3143 67.1768 38.9266 67.324 37.5494C67.3797 37.1586 67.8954 37.2808 67.8496 37.602C67.7024 38.9266 67.7655 40.2617 68.0283 41.5758C68.1015 41.8935 67.6102 42.0372 67.5132 41.6809ZM91.5455 43.5523C90.6309 44.9294 89.548 46.191 88.3285 47.3158C88.0896 47.5551 87.7212 47.1769 87.9711 46.9268C90.29 44.7926 91.0218 43.2071 91.2406 43.1633V43.2158C91.3247 43.2053 91.4088 43.1948 91.4929 43.2053C91.598 43.2894 91.6191 43.4471 91.5455 43.5523Z" fill="#DDDDDB"/>
<path d="M96.5916 36.9081C83.4407 30.649 65.5021 27.8406 50.7767 30.2115C38.9393 32.1143 30.5606 37.1815 29.4462 44.2566C28.9206 47.5682 30.0455 50.9533 32.495 54.1807C33.6132 52.6424 35.0331 52.7657 35.365 54.1597C35.497 54.7609 35.4677 55.5878 35.4701 55.8733L35.5647 56.0099C37.1706 51.9952 38.5342 49.5357 39.6962 47.3579C41.0377 44.9562 44.134 43.0603 46.3509 44.551C47.5073 45.3079 47.9698 46.8112 47.8542 48.1884C47.8331 48.4617 47.7175 48.9348 47.5598 49.5235C48.931 50.5657 49.3008 50.5383 49.3365 50.7535C50.339 49.8903 51.6058 48.899 52.8898 48.6825C53.6362 48.5458 54.4562 48.693 55.0345 49.1451L55.0449 49.1555C55.6602 48.5408 57.3837 47.3411 59.3027 46.5694C64.9638 44.2895 74.3444 44.8116 80.3914 46.0963C84.4388 46.9479 88.0447 49.8705 90.0736 53.8548C91.3133 56.3159 91.6588 58.9353 92.008 61.6974C92.008 61.7394 92.0186 61.7709 92.0186 61.813L92.0711 61.2033C92.9857 58.9746 95.7086 57.9863 98.1055 58.165C102.426 58.4736 106.569 62.1134 107.031 66.8907C111.026 64.4623 113.58 61.3189 114.169 57.6289C115.336 50.2068 108.219 42.4274 96.5916 36.9081ZM67.5132 41.6809C67.2398 40.3143 67.1768 38.9266 67.324 37.5494C67.3797 37.1586 67.8954 37.2808 67.8496 37.602C67.7024 38.9266 67.7655 40.2617 68.0283 41.5758C68.1015 41.8935 67.6102 42.0372 67.5132 41.6809ZM91.5455 43.5523C90.6309 44.9294 89.548 46.191 88.3285 47.3158C88.0896 47.5551 87.7212 47.1769 87.9711 46.9268C90.29 44.7926 91.0218 43.2071 91.2406 43.1633V43.2158C91.3247 43.2053 91.4088 43.1948 91.4929 43.2053C91.598 43.2894 91.6191 43.4471 91.5455 43.5523Z" fill="#0D0D0D" fill-opacity="0.64"/>
<path d="M107.168 67.1159L106.894 66.6663C110.928 64.2136 113.354 61.0741 113.909 57.5877C115.024 50.4977 108.508 42.8553 96.4786 37.1452C83.31 30.8789 65.4199 28.1196 50.8182 30.471C38.654 32.4267 30.7612 37.5959 29.7058 44.2978C29.2048 47.4547 30.2135 50.7266 32.7046 54.0232L32.2858 54.3394C29.7048 50.9248 28.6622 47.5184 29.1863 44.2156C30.2792 37.2776 38.3347 31.9452 50.735 29.9515C65.4889 27.5781 83.4795 30.3776 96.7045 36.6709C108.956 42.4858 115.582 50.3365 114.429 57.6698C113.847 61.3144 111.337 64.5801 107.168 67.1159Z" fill="#DDDDDB"/>
<path d="M107.168 67.1159L106.894 66.6663C110.928 64.2136 113.354 61.0741 113.909 57.5877C115.024 50.4977 108.508 42.8553 96.4786 37.1452C83.31 30.8789 65.4199 28.1196 50.8182 30.471C38.654 32.4267 30.7612 37.5959 29.7058 44.2978C29.2048 47.4547 30.2135 50.7266 32.7046 54.0232L32.2858 54.3394C29.7048 50.9248 28.6622 47.5184 29.1863 44.2156C30.2792 37.2776 38.3347 31.9452 50.735 29.9515C65.4889 27.5781 83.4795 30.3776 96.7045 36.6709C108.956 42.4858 115.582 50.3365 114.429 57.6698C113.847 61.3144 111.337 64.5801 107.168 67.1159Z" fill="#0D0D0D" fill-opacity="0.82"/>
<path d="M39.4329 47.8311C38.7811 49.0085 38.1398 50.2595 37.5195 51.5631C37.6783 50.1344 38.3056 48.7133 39.4329 47.8311Z" fill="#DDDDDB"/>
<path d="M39.4329 47.8311C38.7811 49.0085 38.1398 50.2595 37.5195 51.5631C37.6783 50.1344 38.3056 48.7133 39.4329 47.8311Z" fill="#0D0D0D" fill-opacity="0.82"/>
<path d="M48.9684 51.0586C48.9684 51.0586 48.9789 51.0586 48.9789 51.069C47.4651 52.4357 46.2351 54.0547 45.415 55.947C45.5937 55.4319 46.7502 52.2465 47.402 50.0493C47.896 50.4278 48.4217 50.7642 48.9684 51.0586Z" fill="#DDDDDB"/>
<path d="M48.9684 51.0586C48.9684 51.0586 48.9789 51.0586 48.9789 51.069C47.4651 52.4357 46.2351 54.0547 45.415 55.947C45.5937 55.4319 46.7502 52.2465 47.402 50.0493C47.896 50.4278 48.4217 50.7642 48.9684 51.0586Z" fill="#0D0D0D" fill-opacity="0.82"/>
<path d="M97.5059 53.6868C96.3916 53.098 96.339 53.5922 96.4862 52.4883C96.6229 51.4791 97.548 50.5645 97.6321 49.387C97.9367 45.6945 94.7766 42.9763 91.4926 43.2055C91.5977 43.2896 91.6188 43.4473 91.5452 43.5524C90.6306 44.9296 89.5477 46.1912 88.3283 47.316C88.0893 47.5553 87.7209 47.1771 87.9708 46.927C90.2897 44.7928 91.0215 43.2072 91.2403 43.1635C91.2824 41.4708 91.0301 39.7047 90.1364 38.2435C89.2429 36.7716 87.6239 35.6678 85.8998 35.7204C84.1757 35.7729 82.5042 37.2132 82.4937 38.9268C81.7577 35.7098 78.7406 33.1552 75.4395 32.9555C72.1595 32.7663 69.8152 34.7427 68.007 37.1817C66.105 28.713 55.1803 34.4868 54.6031 39.505C54.0669 37.9701 52.2693 37.1291 50.6503 37.3183C47.8395 37.649 44.8092 40.812 44.29 44.057C46.6164 43.8547 48.0524 45.8247 47.8539 48.1886C47.8329 48.4619 47.7172 48.935 47.5595 49.5237C48.9307 50.5659 49.3005 50.5385 49.3362 50.7537C50.3387 49.8905 51.6055 48.8992 52.8895 48.6827C53.636 48.546 54.4559 48.6932 55.0342 49.1453C56.1376 48.1792 57.6615 47.2295 59.3024 46.5696C64.9635 44.2897 74.3441 44.8117 80.3911 46.0965C84.4385 46.9481 88.0444 49.8706 90.0734 53.855C91.313 56.3161 91.6586 58.9354 92.0077 61.6976C92.0077 61.7396 92.0183 61.7711 92.0183 61.8132L92.0708 61.2034C93.0858 58.7301 96.8531 57.2368 100.67 58.7539C100.41 56.5302 99.4834 54.7176 97.5059 53.6868ZM67.5129 41.6811C67.2395 40.3145 67.1765 38.9268 67.3237 37.5496C67.3794 37.1587 67.8951 37.281 67.8493 37.6021C67.7021 38.9268 67.7652 40.2619 68.028 41.576C68.1012 41.8937 67.61 42.0374 67.5129 41.6811Z" fill="#DDDDDB"/>
<path d="M97.5059 53.6868C96.3916 53.098 96.339 53.5922 96.4862 52.4883C96.6229 51.4791 97.548 50.5645 97.6321 49.387C97.9367 45.6945 94.7766 42.9763 91.4926 43.2055C91.5977 43.2896 91.6188 43.4473 91.5452 43.5524C90.6306 44.9296 89.5477 46.1912 88.3283 47.316C88.0893 47.5553 87.7209 47.1771 87.9708 46.927C90.2897 44.7928 91.0215 43.2072 91.2403 43.1635C91.2824 41.4708 91.0301 39.7047 90.1364 38.2435C89.2429 36.7716 87.6239 35.6678 85.8998 35.7204C84.1757 35.7729 82.5042 37.2132 82.4937 38.9268C81.7577 35.7098 78.7406 33.1552 75.4395 32.9555C72.1595 32.7663 69.8152 34.7427 68.007 37.1817C66.105 28.713 55.1803 34.4868 54.6031 39.505C54.0669 37.9701 52.2693 37.1291 50.6503 37.3183C47.8395 37.649 44.8092 40.812 44.29 44.057C46.6164 43.8547 48.0524 45.8247 47.8539 48.1886C47.8329 48.4619 47.7172 48.935 47.5595 49.5237C48.9307 50.5659 49.3005 50.5385 49.3362 50.7537C50.3387 49.8905 51.6055 48.8992 52.8895 48.6827C53.636 48.546 54.4559 48.6932 55.0342 49.1453C56.1376 48.1792 57.6615 47.2295 59.3024 46.5696C64.9635 44.2897 74.3441 44.8117 80.3911 46.0965C84.4385 46.9481 88.0444 49.8706 90.0734 53.855C91.313 56.3161 91.6586 58.9354 92.0077 61.6976C92.0077 61.7396 92.0183 61.7711 92.0183 61.8132L92.0708 61.2034C93.0858 58.7301 96.8531 57.2368 100.67 58.7539C100.41 56.5302 99.4834 54.7176 97.5059 53.6868ZM67.5129 41.6811C67.2395 40.3145 67.1765 38.9268 67.3237 37.5496C67.3794 37.1587 67.8951 37.281 67.8493 37.6021C67.7021 38.9268 67.7652 40.2619 68.028 41.576C68.1012 41.8937 67.61 42.0374 67.5129 41.6811Z" fill="#0D0D0D" fill-opacity="0.82"/>
<path d="M90.7433 74.8907C90.5062 74.6376 90.8913 74.2781 91.1283 74.5334C93.8433 77.4583 97.9924 78.1185 101.697 76.213C105.314 74.3528 107.434 69.9423 106.626 65.9548C105.821 61.9704 102.149 58.7344 98.0853 58.4275C96.0546 58.2817 93.4008 59.0476 92.4131 61.0875C92.2618 61.4 91.7889 61.1718 91.9399 60.8575C93.0409 58.5856 95.838 57.7335 98.1244 57.9039C102.415 58.2273 106.291 61.6439 107.141 65.8501C107.994 70.0604 105.756 74.7162 101.937 76.6812C97.9933 78.7081 93.6056 77.9757 90.7433 74.8907Z" fill="#DDDDDB"/>
<path d="M90.7433 74.8907C90.5062 74.6376 90.8913 74.2781 91.1283 74.5334C93.8433 77.4583 97.9924 78.1185 101.697 76.213C105.314 74.3528 107.434 69.9423 106.626 65.9548C105.821 61.9704 102.149 58.7344 98.0853 58.4275C96.0546 58.2817 93.4008 59.0476 92.4131 61.0875C92.2618 61.4 91.7889 61.1718 91.9399 60.8575C93.0409 58.5856 95.838 57.7335 98.1244 57.9039C102.415 58.2273 106.291 61.6439 107.141 65.8501C107.994 70.0604 105.756 74.7162 101.937 76.6812C97.9933 78.7081 93.6056 77.9757 90.7433 74.8907Z" fill="#0D0D0D" fill-opacity="0.82"/>
<path d="M51.819 77.0445C51.6276 76.755 52.0634 76.4631 52.2574 76.7529C55.7459 82.0073 61.9545 84.9866 68.063 84.3224C68.4108 84.2895 68.4633 84.8068 68.1195 84.8459C61.6804 85.5297 55.3451 82.3538 51.819 77.0445Z" fill="#DDDDDB"/>
<path d="M51.819 77.0445C51.6276 76.755 52.0634 76.4631 52.2574 76.7529C55.7459 82.0073 61.9545 84.9866 68.063 84.3224C68.4108 84.2895 68.4633 84.8068 68.1195 84.8459C61.6804 85.5297 55.3451 82.3538 51.819 77.0445Z" fill="#0D0D0D" fill-opacity="0.82"/>
<path d="M54.9095 48.9649C55.2128 48.7411 55.5234 48.5543 55.8155 48.3818C56.1146 48.2055 56.3825 48.6585 56.0824 48.8356C55.8021 48.9998 55.5044 49.1795 55.2216 49.3879C54.944 49.5953 54.6285 49.1719 54.9095 48.9649Z" fill="#DDDDDB"/>
<path d="M54.9095 48.9649C55.2128 48.7411 55.5234 48.5543 55.8155 48.3818C56.1146 48.2055 56.3825 48.6585 56.0824 48.8356C55.8021 48.9998 55.5044 49.1795 55.2216 49.3879C54.944 49.5953 54.6285 49.1719 54.9095 48.9649Z" fill="#0D0D0D" fill-opacity="0.82"/>
<path d="M78.3069 84.3613C87.412 82.7357 94.3811 73.0124 91.7667 60.1757C91.6972 59.8331 92.2125 59.7339 92.2821 60.071C94.9624 73.2338 87.7663 83.2058 78.3993 84.8788C78.0642 84.9458 77.9592 84.4239 78.3069 84.3613Z" fill="#DDDDDB"/>
<path d="M78.3069 84.3613C87.412 82.7357 94.3811 73.0124 91.7667 60.1757C91.6972 59.8331 92.2125 59.7339 92.2821 60.071C94.9624 73.2338 87.7663 83.2058 78.3993 84.8788C78.0642 84.9458 77.9592 84.4239 78.3069 84.3613Z" fill="#0D0D0D" fill-opacity="0.82"/>
<path d="M68.0999 99.4068C67.9962 94.0085 67.9326 89.7279 67.834 84.5092C67.8283 84.1854 68.3529 84.1125 68.3597 84.4989C68.4567 89.694 68.5241 94.1195 68.6256 99.3965C68.6318 99.7463 68.1062 99.7563 68.0999 99.4068Z" fill="#DDDDDB"/>
<path d="M68.0999 99.4068C67.9962 94.0085 67.9326 89.7279 67.834 84.5092C67.8283 84.1854 68.3529 84.1125 68.3597 84.4989C68.4567 89.694 68.5241 94.1195 68.6256 99.3965C68.6318 99.7463 68.1062 99.7563 68.0999 99.4068Z" fill="#0D0D0D" fill-opacity="0.82"/>
<path d="M80.0702 98.2806C80.0805 95.486 79.2428 87.1354 79.254 84.3214C79.2545 84.1766 79.3721 84.0596 79.5168 84.0596C79.5163 84.0596 79.5174 84.0596 79.5168 84.0596C79.6621 84.0606 79.7802 84.1787 79.7797 84.3234C79.7694 87.1181 80.6071 95.4686 80.5958 98.2827C80.5946 98.6329 80.069 98.6298 80.0702 98.2806Z" fill="#DDDDDB"/>
<path d="M80.0702 98.2806C80.0805 95.486 79.2428 87.1354 79.254 84.3214C79.2545 84.1766 79.3721 84.0596 79.5168 84.0596C79.5163 84.0596 79.5174 84.0596 79.5168 84.0596C79.6621 84.0606 79.7802 84.1787 79.7797 84.3234C79.7694 87.1181 80.6071 95.4686 80.5958 98.2827C80.5946 98.6329 80.069 98.6298 80.0702 98.2806Z" fill="#0D0D0D" fill-opacity="0.82"/>
<path d="M96.2093 67.0008C97.932 65.1334 100.951 64.5749 103.229 65.7011C103.539 65.8555 103.311 66.3255 102.996 66.1734C100.92 65.1467 98.1666 65.6549 96.5953 67.3581C96.357 67.613 95.9743 67.2554 96.2093 67.0008Z" fill="#DDDDDB"/>
<path d="M96.2093 67.0008C97.932 65.1334 100.951 64.5749 103.229 65.7011C103.539 65.8555 103.311 66.3255 102.996 66.1734C100.92 65.1467 98.1666 65.6549 96.5953 67.3581C96.357 67.613 95.9743 67.2554 96.2093 67.0008Z" fill="#0D0D0D" fill-opacity="0.82"/>
<path d="M99.4929 69.5697C99.748 68.4661 99.5047 67.2587 98.842 66.3389C98.638 66.0563 99.0641 65.7507 99.268 66.0309C100.018 67.0719 100.294 68.4394 100.005 69.6888C99.9261 70.0283 99.4145 69.9077 99.4929 69.5697Z" fill="#DDDDDB"/>
<path d="M99.4929 69.5697C99.748 68.4661 99.5047 67.2587 98.842 66.3389C98.638 66.0563 99.0641 65.7507 99.268 66.0309C100.018 67.0719 100.294 68.4394 100.005 69.6888C99.9261 70.0283 99.4145 69.9077 99.4929 69.5697Z" fill="#0D0D0D" fill-opacity="0.82"/>
<path d="M70.9284 66.2102C70.7156 65.5696 72.7666 65.7786 74.3466 64.7329C75.8693 63.7278 75.3498 62.3755 75.115 60.6109C74.4879 55.9452 74.4882 56.6671 73.862 52.0036C73.8147 51.6551 74.3371 51.597 74.3825 51.9338C74.5014 52.8181 75.7356 61.1943 75.7485 61.2731C75.9897 62.7412 76.2176 64.1272 74.6366 65.1713C73.4977 65.9256 72.4635 65.9756 71.2605 66.3766C71.1283 66.4215 70.9752 66.3513 70.9284 66.2102Z" fill="#DDDDDB"/>
<path d="M70.9284 66.2102C70.7156 65.5696 72.7666 65.7786 74.3466 64.7329C75.8693 63.7278 75.3498 62.3755 75.115 60.6109C74.4879 55.9452 74.4882 56.6671 73.862 52.0036C73.8147 51.6551 74.3371 51.597 74.3825 51.9338C74.5014 52.8181 75.7356 61.1943 75.7485 61.2731C75.9897 62.7412 76.2176 64.1272 74.6366 65.1713C73.4977 65.9256 72.4635 65.9756 71.2605 66.3766C71.1283 66.4215 70.9752 66.3513 70.9284 66.2102Z" fill="#0D0D0D" fill-opacity="0.82"/>
<path d="M79.9988 103.324C81.8074 103.069 83.3607 101.542 83.6533 99.7414C83.9459 97.938 82.9511 96.0017 81.318 95.1878C82.342 94.4484 82.1984 92.7567 81.326 91.8418C80.4509 90.9295 79.1264 90.6263 77.8709 90.4853C74.3866 90.0996 70.7986 90.6662 67.6148 92.1317C66.5137 92.6397 65.0029 93.068 64.7077 94.4191C64.455 95.5628 65.1066 96.3874 66.1785 96.7624C66.4498 96.8581 66.7796 96.9379 66.8887 97.2039C66.9818 97.438 66.8435 97.7119 66.6467 97.8715C66.4472 98.0311 66.1998 98.1109 65.9737 98.2279C64.3033 99.0958 64.4279 101.556 66.1839 102.247C69.9102 103.718 73.5993 104.274 77.5597 103.667" fill="#AEEA00"/>
<path d="M79.9988 103.324C81.8074 103.069 83.3607 101.542 83.6533 99.7414C83.9459 97.938 82.9511 96.0017 81.318 95.1878C82.342 94.4484 82.1984 92.7567 81.326 91.8418C80.4509 90.9295 79.1264 90.6263 77.8709 90.4853C74.3866 90.0996 70.7986 90.6662 67.6148 92.1317C66.5137 92.6397 65.0029 93.068 64.7077 94.4191C64.455 95.5628 65.1066 96.3874 66.1785 96.7624C66.4498 96.8581 66.7796 96.9379 66.8887 97.2039C66.9818 97.438 66.8435 97.7119 66.6467 97.8715C66.4472 98.0311 66.1998 98.1109 65.9737 98.2279C64.3033 99.0958 64.4279 101.556 66.1839 102.247C69.9102 103.718 73.5993 104.274 77.5597 103.667" fill="white" fill-opacity="0.32"/>
<path d="M108.999 143.5C108.999 143.5 89.1134 143.852 75.4989 143.5C61.3904 143.135 41 146.5 41 146.5C40.9265 135.483 41.2721 122.903 41.7978 111.907C42.7965 110.656 43.9003 109.478 44.9516 108.311C49.6506 103.138 57.0153 102.318 63.7696 101.709C69.8145 101.163 75.7857 101.983 81.8516 101.962C96.1742 101.962 103.111 107.073 107.009 120.149C109.437 128.338 108.589 135.006 108.999 143.5Z" fill="#AEEA00"/>
<path d="M108.999 143.5C108.999 143.5 89.1134 143.852 75.4989 143.5C61.3904 143.135 41 146.5 41 146.5C40.9265 135.483 41.2721 122.903 41.7978 111.907C42.7965 110.656 43.9003 109.478 44.9516 108.311C49.6506 103.138 57.0153 102.318 63.7696 101.709C69.8145 101.163 75.7857 101.983 81.8516 101.962C96.1742 101.962 103.111 107.073 107.009 120.149C109.437 128.338 108.589 135.006 108.999 143.5Z" fill="white" fill-opacity="0.32"/>
<path d="M67.1586 98.0157C65.077 98.0157 64.5465 96.3079 64.4806 94.2274C64.4693 93.8731 64.9956 93.8754 65.0063 94.211C65.1061 97.3675 66.2089 97.6973 68.211 97.3833L77.517 95.9224C77.8565 95.8664 77.9452 96.3873 77.5991 96.4419C67.5245 98.022 67.7548 98.0157 67.1586 98.0157Z" fill="#DDDDDB"/>
<path d="M67.1586 98.0157C65.077 98.0157 64.5465 96.3079 64.4806 94.2274C64.4693 93.8731 64.9956 93.8754 65.0063 94.211C65.1061 97.3675 66.2089 97.6973 68.211 97.3833L77.517 95.9224C77.8565 95.8664 77.9452 96.3873 77.5991 96.4419C67.5245 98.022 67.7548 98.0157 67.1586 98.0157Z" fill="#0D0D0D" fill-opacity="0.82"/>
<path d="M70.0444 102.75C69.7024 102.688 69.7936 102.172 70.1368 102.232C73.1515 102.767 76.2268 102.855 79.2754 102.486C80.3093 102.362 81.3759 102.164 82.1711 101.557C83.2906 100.7 83.689 99.0355 83.0781 97.7676C82.9264 97.4543 83.4012 97.2269 83.5514 97.5397C84.267 99.0232 83.8009 100.972 82.4904 101.974C81.5946 102.659 80.4458 102.875 79.3381 103.008C76.2409 103.381 73.1179 103.296 70.0444 102.75Z" fill="#DDDDDB"/>
<path d="M70.0444 102.75C69.7024 102.688 69.7936 102.172 70.1368 102.232C73.1515 102.767 76.2268 102.855 79.2754 102.486C80.3093 102.362 81.3759 102.164 82.1711 101.557C83.2906 100.7 83.689 99.0355 83.0781 97.7676C82.9264 97.4543 83.4012 97.2269 83.5514 97.5397C84.267 99.0232 83.8009 100.972 82.4904 101.974C81.5946 102.659 80.4458 102.875 79.3381 103.008C76.2409 103.381 73.1179 103.296 70.0444 102.75Z" fill="#0D0D0D" fill-opacity="0.82"/>
<path d="M66.3158 55.065C66.6385 55.245 66.9109 55.5731 66.8989 55.9424C66.8702 56.8224 65.2477 57.5986 64.4145 57.9245C61.2307 59.1703 59.7985 57.5325 63.3516 55.7189C64.2982 55.2357 65.315 54.5071 66.3158 55.065Z" fill="#DDDDDB"/>
<path d="M66.3158 55.065C66.6385 55.245 66.9109 55.5731 66.8989 55.9424C66.8702 56.8224 65.2477 57.5986 64.4145 57.9245C61.2307 59.1703 59.7985 57.5325 63.3516 55.7189C64.2982 55.2357 65.315 54.5071 66.3158 55.065Z" fill="#0D0D0D" fill-opacity="0.82"/>
<path d="M84.0921 54.0554C84.3048 54.3575 84.408 54.7713 84.237 55.0989C83.6773 56.1709 80.3752 55.9249 79.1253 55.3478C78.287 54.9607 78.0046 54.0744 79.0683 53.6919C79.7308 53.4537 80.4437 53.3752 81.1375 53.359C82.2001 53.3342 83.4323 53.1186 84.0921 54.0554Z" fill="#DDDDDB"/>
<path d="M84.0921 54.0554C84.3048 54.3575 84.408 54.7713 84.237 55.0989C83.6773 56.1709 80.3752 55.9249 79.1253 55.3478C78.287 54.9607 78.0046 54.0744 79.0683 53.6919C79.7308 53.4537 80.4437 53.3752 81.1375 53.359C82.2001 53.3342 83.4323 53.1186 84.0921 54.0554Z" fill="#0D0D0D" fill-opacity="0.82"/>
<path d="M66.9359 60.9346C66.0931 60.5188 65.0449 60.5126 64.1989 60.9171C63.8815 61.0634 63.6609 60.5916 63.973 60.4428C64.9766 59.9644 66.1716 59.9737 67.168 60.4623C67.48 60.6172 67.2473 61.0881 66.9359 60.9346Z" fill="#DDDDDB"/>
<path d="M66.9359 60.9346C66.0931 60.5188 65.0449 60.5126 64.1989 60.9171C63.8815 61.0634 63.6609 60.5916 63.973 60.4428C64.9766 59.9644 66.1716 59.9737 67.168 60.4623C67.48 60.6172 67.2473 61.0881 66.9359 60.9346Z" fill="#0D0D0D" fill-opacity="0.82"/>
<path d="M83.2985 58.9911C83.1309 58.9911 81.9369 58.2366 80.4465 58.947C80.1283 59.0937 79.9083 58.6216 80.2196 58.4727C81.2073 57.9994 82.4315 58.0086 83.4151 58.4922C83.663 58.6156 83.5753 58.9911 83.2985 58.9911Z" fill="#DDDDDB"/>
<path d="M83.2985 58.9911C83.1309 58.9911 81.9369 58.2366 80.4465 58.947C80.1283 59.0937 79.9083 58.6216 80.2196 58.4727C81.2073 57.9994 82.4315 58.0086 83.4151 58.4922C83.663 58.6156 83.5753 58.9911 83.2985 58.9911Z" fill="#0D0D0D" fill-opacity="0.82"/>
<path d="M72.7199 73.0992C71.7738 72.1434 70.0983 71.9771 68.9839 72.7306C68.6967 72.9261 68.4008 72.4901 68.6893 72.2953C70.026 71.3929 71.9612 71.5839 73.0936 72.7296C73.3387 72.9784 72.9619 73.3461 72.7199 73.0992Z" fill="#DDDDDB"/>
<path d="M72.7199 73.0992C71.7738 72.1434 70.0983 71.9771 68.9839 72.7306C68.6967 72.9261 68.4008 72.4901 68.6893 72.2953C70.026 71.3929 71.9612 71.5839 73.0936 72.7296C73.3387 72.9784 72.9619 73.3461 72.7199 73.0992Z" fill="#0D0D0D" fill-opacity="0.82"/>
<path d="M23.9096 32.8834C21.9605 31.4564 20.093 29.8774 18.359 28.1896C18.1076 27.9469 18.4802 27.571 18.7255 27.8139C20.4421 29.4832 22.2905 31.0468 24.2196 32.4584C24.4995 32.6638 24.1916 33.088 23.9096 32.8834Z" fill="#DDDDDB"/>
<path d="M23.9096 32.8834C21.9605 31.4564 20.093 29.8774 18.359 28.1896C18.1076 27.9469 18.4802 27.571 18.7255 27.8139C20.4421 29.4832 22.2905 31.0468 24.2196 32.4584C24.4995 32.6638 24.1916 33.088 23.9096 32.8834Z" fill="#0D0D0D" fill-opacity="0.82"/>
<path d="M25.4544 29.4887L24.2045 26.2147C24.0806 25.891 24.5702 25.701 24.6952 26.0279L25.9451 29.3018C26.0701 29.6283 25.5784 29.8129 25.4544 29.4887Z" fill="#DDDDDB"/>
<path d="M25.4544 29.4887L24.2045 26.2147C24.0806 25.891 24.5702 25.701 24.6952 26.0279L25.9451 29.3018C26.0701 29.6283 25.5784 29.8129 25.4544 29.4887Z" fill="#0D0D0D" fill-opacity="0.82"/>
<path d="M21.1057 35.8084C17.947 34.9088 17.3237 35.2618 17.3949 34.7633C17.4165 34.6196 17.5525 34.5138 17.6931 34.5415C18.8953 34.7171 20.0919 34.9727 21.2494 35.3033C21.587 35.4001 21.4351 35.9065 21.1057 35.8084Z" fill="#DDDDDB"/>
<path d="M21.1057 35.8084C17.947 34.9088 17.3237 35.2618 17.3949 34.7633C17.4165 34.6196 17.5525 34.5138 17.6931 34.5415C18.8953 34.7171 20.0919 34.9727 21.2494 35.3033C21.587 35.4001 21.4351 35.9065 21.1057 35.8084Z" fill="#0D0D0D" fill-opacity="0.82"/>
<path d="M31.6638 72.3436C27.578 62.6387 31.421 51.7255 34.6549 52.8826C35.6924 53.2715 35.7576 54.5813 35.7329 55.6904V55.8732C35.7329 56.2209 35.2073 56.2209 35.2073 55.8732V55.6843C35.2258 54.877 35.2258 53.6574 34.4737 53.3764C32.0675 52.4996 28.1094 62.5463 32.1484 72.1403C32.2832 72.459 31.8002 72.6657 31.6638 72.3436Z" fill="#DDDDDB"/>
<path d="M31.6638 72.3436C27.578 62.6387 31.421 51.7255 34.6549 52.8826C35.6924 53.2715 35.7576 54.5813 35.7329 55.6904V55.8732C35.7329 56.2209 35.2073 56.2209 35.2073 55.8732V55.6843C35.2258 54.877 35.2258 53.6574 34.4737 53.3764C32.0675 52.4996 28.1094 62.5463 32.1484 72.1403C32.2832 72.459 31.8002 72.6657 31.6638 72.3436Z" fill="#0D0D0D" fill-opacity="0.82"/>
<path d="M40.8629 147.024C40.6291 131.952 41.4334 114.905 41.541 111.76C41.904 102.397 41.4775 97.1142 42.8263 91.8664C43.9239 87.5431 48.0867 85.0904 50.212 81.3844C51.3658 79.3845 52.0872 77.0417 51.7771 74.7471C51.3223 70.9229 52.7263 67.1438 55.5321 64.6347C56.2025 64.0362 56.8667 63.4038 57.5063 62.7539C59.248 60.9829 59.7701 59.5508 59.1495 58.2469C58.4353 56.7661 56.0933 55.9474 53.5373 57.6084C52.3829 58.3537 51.6057 58.9872 50.8532 59.7951C50.623 60.0447 50.2404 59.7066 50.4594 59.4471C51.9739 57.6704 55.2963 53.7607 55.5932 51.4454C55.8728 49.3108 53.8249 47.7118 50.6689 50.0297C48.3425 51.7154 46.6562 53.741 45.6563 56.052C45.5237 56.3585 45.0547 56.1776 45.1671 55.86C45.2043 55.748 47.4912 49.3943 47.592 48.1674C47.7121 46.7331 47.168 45.4006 46.2066 44.7712C44.1288 43.3727 41.189 45.2222 39.9251 47.4867C38.4442 50.2965 37.0855 52.7145 35.3791 57.2182C33.1333 63.1245 32.0158 68.6407 32.1477 73.1702C32.3135 79.1104 30.2859 84.7097 28.3245 90.1242C25.6834 97.4156 26.8323 93.295 15.6034 138.967C15.5198 139.309 15.0099 139.177 15.0931 138.841C26.3853 92.8742 25.203 97.1998 27.8302 89.9456C29.7746 84.5772 31.7853 79.0252 31.6221 73.1846C31.4886 68.5873 32.6174 63.0013 34.8873 57.0314C36.5435 52.6639 38.0551 49.8739 39.4636 47.2352C40.894 44.6717 44.1595 42.7565 46.4971 44.3339C47.8548 45.2219 48.2239 46.919 48.1156 48.2105C48.0638 48.845 47.5628 50.5492 46.6239 53.2924C47.9136 51.4983 50.7211 48.7805 52.8459 48.424C54.8001 48.0657 56.3907 49.3967 56.1147 51.5132C55.8778 53.3548 53.901 56.0434 52.7463 57.5026C52.907 57.3928 53.0748 57.2809 53.2514 57.1669C56.0945 55.3195 58.7794 56.2667 59.6232 58.0201C60.8621 60.6226 58.0781 63.0668 55.8822 65.0269C53.2042 67.4221 51.8644 71.0307 52.2987 74.6814C52.624 77.0984 51.8763 79.5509 50.6673 81.6462C48.5327 85.3712 44.3852 87.8621 43.3356 91.9968C42.0019 97.186 42.436 102.318 42.0661 111.78C42.0325 112.762 41.1289 130.323 41.3885 147.016C41.3935 147.366 40.8679 147.373 40.8629 147.024Z" fill="#DDDDDB"/>
<path d="M40.8629 147.024C40.6291 131.952 41.4334 114.905 41.541 111.76C41.904 102.397 41.4775 97.1142 42.8263 91.8664C43.9239 87.5431 48.0867 85.0904 50.212 81.3844C51.3658 79.3845 52.0872 77.0417 51.7771 74.7471C51.3223 70.9229 52.7263 67.1438 55.5321 64.6347C56.2025 64.0362 56.8667 63.4038 57.5063 62.7539C59.248 60.9829 59.7701 59.5508 59.1495 58.2469C58.4353 56.7661 56.0933 55.9474 53.5373 57.6084C52.3829 58.3537 51.6057 58.9872 50.8532 59.7951C50.623 60.0447 50.2404 59.7066 50.4594 59.4471C51.9739 57.6704 55.2963 53.7607 55.5932 51.4454C55.8728 49.3108 53.8249 47.7118 50.6689 50.0297C48.3425 51.7154 46.6562 53.741 45.6563 56.052C45.5237 56.3585 45.0547 56.1776 45.1671 55.86C45.2043 55.748 47.4912 49.3943 47.592 48.1674C47.7121 46.7331 47.168 45.4006 46.2066 44.7712C44.1288 43.3727 41.189 45.2222 39.9251 47.4867C38.4442 50.2965 37.0855 52.7145 35.3791 57.2182C33.1333 63.1245 32.0158 68.6407 32.1477 73.1702C32.3135 79.1104 30.2859 84.7097 28.3245 90.1242C25.6834 97.4156 26.8323 93.295 15.6034 138.967C15.5198 139.309 15.0099 139.177 15.0931 138.841C26.3853 92.8742 25.203 97.1998 27.8302 89.9456C29.7746 84.5772 31.7853 79.0252 31.6221 73.1846C31.4886 68.5873 32.6174 63.0013 34.8873 57.0314C36.5435 52.6639 38.0551 49.8739 39.4636 47.2352C40.894 44.6717 44.1595 42.7565 46.4971 44.3339C47.8548 45.2219 48.2239 46.919 48.1156 48.2105C48.0638 48.845 47.5628 50.5492 46.6239 53.2924C47.9136 51.4983 50.7211 48.7805 52.8459 48.424C54.8001 48.0657 56.3907 49.3967 56.1147 51.5132C55.8778 53.3548 53.901 56.0434 52.7463 57.5026C52.907 57.3928 53.0748 57.2809 53.2514 57.1669C56.0945 55.3195 58.7794 56.2667 59.6232 58.0201C60.8621 60.6226 58.0781 63.0668 55.8822 65.0269C53.2042 67.4221 51.8644 71.0307 52.2987 74.6814C52.624 77.0984 51.8763 79.5509 50.6673 81.6462C48.5327 85.3712 44.3852 87.8621 43.3356 91.9968C42.0019 97.186 42.436 102.318 42.0661 111.78C42.0325 112.762 41.1289 130.323 41.3885 147.016C41.3935 147.366 40.8679 147.373 40.8629 147.024Z" fill="#0D0D0D" fill-opacity="0.82"/>
<path d="M44.0109 59.6964C44.1726 58.294 44.5827 56.946 45.23 55.6904C45.3901 55.38 45.857 55.6232 45.6971 55.9306C45.0791 57.1308 44.6874 58.4172 44.5334 59.7559C44.4931 60.1082 43.9718 60.0383 44.0109 59.6964Z" fill="#DDDDDB"/>
<path d="M44.0109 59.6964C44.1726 58.294 44.5827 56.946 45.23 55.6904C45.3901 55.38 45.857 55.6232 45.6971 55.9306C45.0791 57.1308 44.6874 58.4172 44.5334 59.7559C44.4931 60.1082 43.9718 60.0383 44.0109 59.6964Z" fill="#0D0D0D" fill-opacity="0.82"/>
<path d="M49.1334 61.6951C49.7407 60.42 50.5646 59.2774 51.5825 58.299C51.8373 58.0592 52.1959 58.4396 51.9469 58.6789C50.9747 59.6131 50.1878 60.7034 49.6077 61.921C49.4577 62.2347 48.9835 62.0097 49.1334 61.6951Z" fill="#DDDDDB"/>
<path d="M49.1334 61.6951C49.7407 60.42 50.5646 59.2774 51.5825 58.299C51.8373 58.0592 52.1959 58.4396 51.9469 58.6789C50.9747 59.6131 50.1878 60.7034 49.6077 61.921C49.4577 62.2347 48.9835 62.0097 49.1334 61.6951Z" fill="#0D0D0D" fill-opacity="0.82"/>
<path d="M44.0109 59.6964C44.1726 58.294 44.5827 56.946 45.23 55.6904C45.3901 55.38 45.857 55.6232 45.6971 55.9306C45.0791 57.1308 44.6874 58.4172 44.5334 59.7559C44.4931 60.1082 43.9718 60.0383 44.0109 59.6964Z" fill="#DDDDDB"/>
<path d="M44.0109 59.6964C44.1726 58.294 44.5827 56.946 45.23 55.6904C45.3901 55.38 45.857 55.6232 45.6971 55.9306C45.0791 57.1308 44.6874 58.4172 44.5334 59.7559C44.4931 60.1082 43.9718 60.0383 44.0109 59.6964Z" fill="#0D0D0D" fill-opacity="0.82"/>
<path d="M49.1334 61.6951C49.7407 60.42 50.5646 59.2774 51.5825 58.299C51.8373 58.0592 52.1959 58.4396 51.9469 58.6789C50.9747 59.6131 50.1878 60.7034 49.6077 61.921C49.4577 62.2347 48.9835 62.0097 49.1334 61.6951Z" fill="#DDDDDB"/>
<path d="M49.1334 61.6951C49.7407 60.42 50.5646 59.2774 51.5825 58.299C51.8373 58.0592 52.1959 58.4396 51.9469 58.6789C50.9747 59.6131 50.1878 60.7034 49.6077 61.921C49.4577 62.2347 48.9835 62.0097 49.1334 61.6951Z" fill="#0D0D0D" fill-opacity="0.82"/>
<path d="M90.3809 101.906C89.5359 102.858 89.9435 106.99 89.8255 108.942C89.2431 118.571 88.7591 111.305 89.6323 143.241C89.6964 145.584 90.4172 146.04 92.1449 146.095C96.6718 146.238 96.6896 146.299 96.9104 146.107C97.0951 145.946 97.0882 145.663 97.0666 145.419C94.6083 117.711 96.4086 103.898 95.8771 102.653C95.265 101.219 91.3498 100.814 90.3809 101.906Z" fill="#DDDDDB"/>
<path d="M90.3809 101.906C89.5359 102.858 89.9435 106.99 89.8255 108.942C89.2431 118.571 88.7591 111.305 89.6323 143.241C89.6964 145.584 90.4172 146.04 92.1449 146.095C96.6718 146.238 96.6896 146.299 96.9104 146.107C97.0951 145.946 97.0882 145.663 97.0666 145.419C94.6083 117.711 96.4086 103.898 95.8771 102.653C95.265 101.219 91.3498 100.814 90.3809 101.906Z" fill="#0D0D0D" fill-opacity="0.82"/>
<path d="M50.7464 102.085C51.6895 101.286 54.8575 100.854 55.7893 101.904C56.6343 102.856 56.2267 106.989 56.3447 108.94C56.4958 111.439 56.8332 113.919 56.9327 116.426C57.1318 121.446 56.9963 126.472 56.8591 131.491C56.752 135.408 56.645 139.324 56.5379 143.24C56.4738 145.583 55.7529 146.038 54.0253 146.093C49.4984 146.236 49.4806 146.297 49.2598 146.105C49.0751 145.945 49.082 145.661 49.1036 145.417C50.3378 131.506 50.7019 117.518 50.1931 103.561C50.1819 103.253 50.1723 102.934 50.2931 102.651C50.3889 102.427 50.5603 102.243 50.7464 102.085Z" fill="#DDDDDB"/>
<path d="M50.7464 102.085C51.6895 101.286 54.8575 100.854 55.7893 101.904C56.6343 102.856 56.2267 106.989 56.3447 108.94C56.4958 111.439 56.8332 113.919 56.9327 116.426C57.1318 121.446 56.9963 126.472 56.8591 131.491C56.752 135.408 56.645 139.324 56.5379 143.24C56.4738 145.583 55.7529 146.038 54.0253 146.093C49.4984 146.236 49.4806 146.297 49.2598 146.105C49.0751 145.945 49.082 145.661 49.1036 145.417C50.3378 131.506 50.7019 117.518 50.1931 103.561C50.1819 103.253 50.1723 102.934 50.2931 102.651C50.3889 102.427 50.5603 102.243 50.7464 102.085Z" fill="#0D0D0D" fill-opacity="0.82"/>
<path d="M96.3359 123.89L96.2425 123.888C93.6565 123.843 94.2961 123.754 92.0743 123.567C89.634 123.359 86.2922 123.075 86.4175 120.065C86.8114 112.994 86.3701 113.015 87.4041 112.448C89.3627 111.366 91.7211 111.752 95.8842 112.027C96.863 112.092 97.3003 112.375 97.5057 113.623C98.3671 118.82 98.1725 118.574 98.5026 120.037C98.77 121.226 99.1027 122.705 98.1381 123.42C97.6319 123.795 96.9673 123.909 96.3359 123.89ZM86.9431 120.087C86.8384 122.594 89.6437 122.833 92.1189 123.043C94.4209 123.238 93.6878 123.317 96.2522 123.362L96.3456 123.364C98.5455 123.397 98.4352 122.134 97.9898 120.153C97.7492 119.086 97.6435 117.668 96.9873 113.709C96.8224 112.712 96.5917 112.601 95.8498 112.551C91.6575 112.275 89.4144 111.939 87.6577 112.909C87.0313 113.254 87.2775 112.82 86.9431 120.087Z" fill="#DDDDDB"/>
<path d="M96.3359 123.89L96.2425 123.888C93.6565 123.843 94.2961 123.754 92.0743 123.567C89.634 123.359 86.2922 123.075 86.4175 120.065C86.8114 112.994 86.3701 113.015 87.4041 112.448C89.3627 111.366 91.7211 111.752 95.8842 112.027C96.863 112.092 97.3003 112.375 97.5057 113.623C98.3671 118.82 98.1725 118.574 98.5026 120.037C98.77 121.226 99.1027 122.705 98.1381 123.42C97.6319 123.795 96.9673 123.909 96.3359 123.89ZM86.9431 120.087C86.8384 122.594 89.6437 122.833 92.1189 123.043C94.4209 123.238 93.6878 123.317 96.2522 123.362L96.3456 123.364C98.5455 123.397 98.4352 122.134 97.9898 120.153C97.7492 119.086 97.6435 117.668 96.9873 113.709C96.8224 112.712 96.5917 112.601 95.8498 112.551C91.6575 112.275 89.4144 111.939 87.6577 112.909C87.0313 113.254 87.2775 112.82 86.9431 120.087Z" fill="#0D0D0D" fill-opacity="0.82"/>
<path d="M55.7883 123.184C54.2427 123.184 52.7099 122.927 51.2212 122.677C50.6094 122.574 49.9154 122.458 49.3245 122.105C47.1904 120.828 47.9101 116.773 48.1644 114.431C48.346 112.771 48.8945 111.972 51.0775 111.679C53.0117 111.419 54.9726 111.425 56.9068 111.693C57.2487 111.741 57.607 111.805 57.9057 112.016C58.5001 112.435 58.5997 113.2 58.6187 113.965L58.7891 120.798C58.8004 121.245 58.8138 121.801 58.5263 122.266C58.1875 122.815 57.5233 123.108 56.4967 123.166C56.2605 123.178 56.0244 123.184 55.7883 123.184ZM53.9383 112.014C53.0056 112.014 52.0734 112.076 51.1473 112.2C49.2 112.461 48.8404 113.081 48.687 114.488C48.4619 116.534 47.7419 120.546 49.5945 121.653C50.1002 121.956 50.7141 122.059 51.3085 122.16C52.9963 122.442 54.7421 122.733 56.4679 122.64C57.3103 122.594 57.8374 122.381 58.0797 121.989C58.2846 121.658 58.2727 121.188 58.2635 120.811L58.0931 113.977C58.0777 113.351 58.0074 112.731 57.6029 112.445C57.3996 112.303 57.1234 112.255 56.8344 112.214C55.874 112.081 54.9059 112.014 53.9383 112.014Z" fill="#DDDDDB"/>
<path d="M55.7883 123.184C54.2427 123.184 52.7099 122.927 51.2212 122.677C50.6094 122.574 49.9154 122.458 49.3245 122.105C47.1904 120.828 47.9101 116.773 48.1644 114.431C48.346 112.771 48.8945 111.972 51.0775 111.679C53.0117 111.419 54.9726 111.425 56.9068 111.693C57.2487 111.741 57.607 111.805 57.9057 112.016C58.5001 112.435 58.5997 113.2 58.6187 113.965L58.7891 120.798C58.8004 121.245 58.8138 121.801 58.5263 122.266C58.1875 122.815 57.5233 123.108 56.4967 123.166C56.2605 123.178 56.0244 123.184 55.7883 123.184ZM53.9383 112.014C53.0056 112.014 52.0734 112.076 51.1473 112.2C49.2 112.461 48.8404 113.081 48.687 114.488C48.4619 116.534 47.7419 120.546 49.5945 121.653C50.1002 121.956 50.7141 122.059 51.3085 122.16C52.9963 122.442 54.7421 122.733 56.4679 122.64C57.3103 122.594 57.8374 122.381 58.0797 121.989C58.2846 121.658 58.2727 121.188 58.2635 120.811L58.0931 113.977C58.0777 113.351 58.0074 112.731 57.6029 112.445C57.3996 112.303 57.1234 112.255 56.8344 112.214C55.874 112.081 54.9059 112.014 53.9383 112.014Z" fill="#0D0D0D" fill-opacity="0.82"/>
<path d="M50.7343 30.0162C52.0822 27.6056 53.4759 25.1119 55.3552 22.9991C56.8361 21.3328 59.2754 19.2149 62.4842 18.5886C64.8837 18.119 67.374 18.5632 69.762 18.5003C74.1056 18.3879 79.0836 16.4892 83.1505 19.0496C83.4404 19.234 83.1716 19.6784 82.8702 19.4951C79.0009 17.0564 74.1065 18.9131 69.7754 19.026C65.2231 19.1329 60.933 17.5145 55.7484 23.3481C53.9071 25.4189 52.5273 27.8859 51.1932 30.2728C51.0228 30.5774 50.5648 30.3182 50.7343 30.0162Z" fill="#DDDDDB"/>
<path d="M50.7343 30.0162C52.0822 27.6056 53.4759 25.1119 55.3552 22.9991C56.8361 21.3328 59.2754 19.2149 62.4842 18.5886C64.8837 18.119 67.374 18.5632 69.762 18.5003C74.1056 18.3879 79.0836 16.4892 83.1505 19.0496C83.4404 19.234 83.1716 19.6784 82.8702 19.4951C79.0009 17.0564 74.1065 18.9131 69.7754 19.026C65.2231 19.1329 60.933 17.5145 55.7484 23.3481C53.9071 25.4189 52.5273 27.8859 51.1932 30.2728C51.0228 30.5774 50.5648 30.3182 50.7343 30.0162Z" fill="#0D0D0D" fill-opacity="0.82"/>
<path d="M116.358 93.4855C115.871 96.0169 115.352 96.6205 115.358 97.5797C115.359 98.8303 116.299 99.6521 118.091 98.5509C119.091 97.9334 120.063 97.2537 120.998 96.5272C136.452 104.895 149.101 98.663 149.863 90.5574C151.1 77.1167 130.772 72.0191 120.793 73.6316C117.529 74.1601 114.132 75.3884 112.221 78.0822C109.526 81.8454 110.028 88.4784 116.358 93.4855Z" fill="#AEEA00"/>
<path d="M116.358 93.4855C115.871 96.0169 115.352 96.6205 115.358 97.5797C115.359 98.8303 116.299 99.6521 118.091 98.5509C119.091 97.9334 120.063 97.2537 120.998 96.5272C136.452 104.895 149.101 98.663 149.863 90.5574C151.1 77.1167 130.772 72.0191 120.793 73.6316C117.529 74.1601 114.132 75.3884 112.221 78.0822C109.526 81.8454 110.028 88.4784 116.358 93.4855Z" fill="white" fill-opacity="0.32"/>
<path d="M139.525 85.6042L138.653 89.1365L137.809 88.957L138.445 85.3746L139.525 85.6042ZM137.427 90.0269C137.459 89.8767 137.537 89.7634 137.661 89.6868C137.788 89.6084 137.937 89.5874 138.108 89.6238C138.282 89.6607 138.409 89.7405 138.491 89.8633C138.574 89.9838 138.599 90.119 138.567 90.2692C138.536 90.4146 138.458 90.5268 138.333 90.6057C138.209 90.6846 138.06 90.7056 137.886 90.6687C137.715 90.6323 137.587 90.5525 137.503 90.4292C137.421 90.3064 137.396 90.1723 137.427 90.0269Z" fill="#DDDDDB"/>
<path d="M139.525 85.6042L138.653 89.1365L137.809 88.957L138.445 85.3746L139.525 85.6042ZM137.427 90.0269C137.459 89.8767 137.537 89.7634 137.661 89.6868C137.788 89.6084 137.937 89.5874 138.108 89.6238C138.282 89.6607 138.409 89.7405 138.491 89.8633C138.574 89.9838 138.599 90.119 138.567 90.2692C138.536 90.4146 138.458 90.5268 138.333 90.6057C138.209 90.6846 138.06 90.7056 137.886 90.6687C137.715 90.6323 137.587 90.5525 137.503 90.4292C137.421 90.3064 137.396 90.1723 137.427 90.0269Z" fill="#0D0D0D" fill-opacity="0.82"/>
<path d="M135.874 89.0826C135.89 89.0099 135.882 88.9398 135.853 88.8722C135.823 88.8045 135.756 88.7339 135.651 88.6602C135.55 88.5847 135.397 88.5031 135.192 88.4155C135.009 88.3324 134.841 88.2415 134.687 88.1428C134.537 88.0422 134.411 87.9332 134.308 87.8158C134.208 87.6989 134.137 87.5711 134.096 87.4323C134.055 87.2912 134.051 87.1397 134.086 86.9779C134.12 86.8184 134.185 86.6755 134.283 86.5492C134.384 86.4234 134.51 86.3203 134.662 86.2399C134.817 86.1575 134.994 86.1058 135.195 86.0847C135.398 86.0618 135.618 86.0755 135.855 86.1258C136.186 86.1961 136.459 86.3092 136.673 86.4651C136.89 86.6215 137.042 86.8058 137.129 87.0181C137.219 87.2284 137.239 87.4509 137.19 87.6854L136.176 87.4701C136.197 87.3716 136.195 87.2791 136.169 87.1927C136.146 87.1045 136.096 87.0289 136.019 86.9659C135.944 86.901 135.839 86.8541 135.703 86.8252C135.59 86.8013 135.489 86.8005 135.398 86.823C135.308 86.843 135.234 86.8812 135.175 86.9374C135.12 86.9917 135.084 87.0576 135.067 87.135C135.055 87.1937 135.055 87.2489 135.069 87.3008C135.085 87.3509 135.117 87.4006 135.166 87.4501C135.214 87.4996 135.279 87.5503 135.361 87.6021C135.446 87.652 135.553 87.7041 135.681 87.7583C135.944 87.8729 136.173 87.9989 136.369 88.1362C136.566 88.2712 136.712 88.4296 136.805 88.6113C136.9 88.7907 136.92 89.0047 136.867 89.2533C136.831 89.4222 136.761 89.569 136.656 89.6938C136.551 89.8186 136.417 89.9188 136.254 89.9944C136.091 90.0677 135.905 90.1127 135.696 90.1295C135.489 90.1444 135.264 90.1259 135.02 90.0741C134.666 89.9988 134.379 89.8717 134.159 89.6927C133.942 89.5142 133.791 89.3141 133.706 89.0925C133.624 88.8691 133.604 88.6541 133.648 88.4477L134.609 88.6519C134.584 88.7913 134.595 88.9102 134.643 89.0086C134.693 89.1074 134.766 89.1866 134.861 89.2461C134.959 89.3061 135.068 89.349 135.19 89.3749C135.322 89.4028 135.435 89.4084 135.529 89.3917C135.624 89.3726 135.7 89.3373 135.757 89.2858C135.818 89.2325 135.857 89.1647 135.874 89.0826Z" fill="#DDDDDB"/>
<path d="M135.874 89.0826C135.89 89.0099 135.882 88.9398 135.853 88.8722C135.823 88.8045 135.756 88.7339 135.651 88.6602C135.55 88.5847 135.397 88.5031 135.192 88.4155C135.009 88.3324 134.841 88.2415 134.687 88.1428C134.537 88.0422 134.411 87.9332 134.308 87.8158C134.208 87.6989 134.137 87.5711 134.096 87.4323C134.055 87.2912 134.051 87.1397 134.086 86.9779C134.12 86.8184 134.185 86.6755 134.283 86.5492C134.384 86.4234 134.51 86.3203 134.662 86.2399C134.817 86.1575 134.994 86.1058 135.195 86.0847C135.398 86.0618 135.618 86.0755 135.855 86.1258C136.186 86.1961 136.459 86.3092 136.673 86.4651C136.89 86.6215 137.042 86.8058 137.129 87.0181C137.219 87.2284 137.239 87.4509 137.19 87.6854L136.176 87.4701C136.197 87.3716 136.195 87.2791 136.169 87.1927C136.146 87.1045 136.096 87.0289 136.019 86.9659C135.944 86.901 135.839 86.8541 135.703 86.8252C135.59 86.8013 135.489 86.8005 135.398 86.823C135.308 86.843 135.234 86.8812 135.175 86.9374C135.12 86.9917 135.084 87.0576 135.067 87.135C135.055 87.1937 135.055 87.2489 135.069 87.3008C135.085 87.3509 135.117 87.4006 135.166 87.4501C135.214 87.4996 135.279 87.5503 135.361 87.6021C135.446 87.652 135.553 87.7041 135.681 87.7583C135.944 87.8729 136.173 87.9989 136.369 88.1362C136.566 88.2712 136.712 88.4296 136.805 88.6113C136.9 88.7907 136.92 89.0047 136.867 89.2533C136.831 89.4222 136.761 89.569 136.656 89.6938C136.551 89.8186 136.417 89.9188 136.254 89.9944C136.091 90.0677 135.905 90.1127 135.696 90.1295C135.489 90.1444 135.264 90.1259 135.02 90.0741C134.666 89.9988 134.379 89.8717 134.159 89.6927C133.942 89.5142 133.791 89.3141 133.706 89.0925C133.624 88.8691 133.604 88.6541 133.648 88.4477L134.609 88.6519C134.584 88.7913 134.595 88.9102 134.643 89.0086C134.693 89.1074 134.766 89.1866 134.861 89.2461C134.959 89.3061 135.068 89.349 135.19 89.3749C135.322 89.4028 135.435 89.4084 135.529 89.3917C135.624 89.3726 135.7 89.3373 135.757 89.2858C135.818 89.2325 135.857 89.1647 135.874 89.0826Z" fill="#0D0D0D" fill-opacity="0.82"/>
<path d="M131.264 86.059L130.299 90.5976L129.286 90.3823L130.406 85.1119L131.345 85.3115L131.264 86.059ZM133.434 87.7007L133.418 87.7746C133.359 88.0513 133.272 88.3012 133.156 88.5241C133.042 88.7476 132.904 88.934 132.743 89.0835C132.581 89.2307 132.398 89.3338 132.191 89.3929C131.988 89.4502 131.767 89.4534 131.527 89.4026C131.295 89.3532 131.103 89.2634 130.952 89.1332C130.801 89.003 130.685 88.841 130.603 88.6472C130.525 88.4515 130.474 88.2336 130.452 87.9935C130.429 87.7534 130.427 87.5003 130.444 87.2343L130.485 87.0408C130.581 86.772 130.689 86.5302 130.808 86.3153C130.928 86.098 131.063 85.9172 131.214 85.7727C131.368 85.6264 131.539 85.5243 131.728 85.4664C131.919 85.409 132.13 85.4047 132.359 85.4536C132.601 85.5049 132.804 85.5958 132.967 85.7261C133.133 85.857 133.26 86.0212 133.348 86.2189C133.438 86.417 133.49 86.6413 133.503 86.8916C133.518 87.1425 133.495 87.4122 133.434 87.7007ZM132.401 87.5584L132.417 87.4846C132.451 87.3227 132.469 87.1708 132.47 87.0288C132.473 86.8849 132.457 86.7551 132.42 86.6395C132.386 86.5243 132.328 86.4286 132.246 86.3524C132.167 86.2743 132.061 86.2213 131.93 86.1934C131.792 86.1639 131.669 86.161 131.561 86.1847C131.455 86.2088 131.363 86.2566 131.284 86.3281C131.205 86.3995 131.138 86.4907 131.082 86.6015C131.027 86.7123 130.98 86.8408 130.941 86.9871L130.837 87.4761C130.812 87.6522 130.812 87.8151 130.836 87.965C130.862 88.1125 130.922 88.2381 131.017 88.3418C131.113 88.4454 131.252 88.5167 131.435 88.5556C131.569 88.584 131.688 88.5786 131.792 88.5395C131.896 88.4979 131.988 88.4304 132.067 88.3368C132.148 88.2437 132.215 88.1304 132.267 87.997C132.323 87.8641 132.367 87.7179 132.401 87.5584Z" fill="#DDDDDB"/>
<path d="M131.264 86.059L130.299 90.5976L129.286 90.3823L130.406 85.1119L131.345 85.3115L131.264 86.059ZM133.434 87.7007L133.418 87.7746C133.359 88.0513 133.272 88.3012 133.156 88.5241C133.042 88.7476 132.904 88.934 132.743 89.0835C132.581 89.2307 132.398 89.3338 132.191 89.3929C131.988 89.4502 131.767 89.4534 131.527 89.4026C131.295 89.3532 131.103 89.2634 130.952 89.1332C130.801 89.003 130.685 88.841 130.603 88.6472C130.525 88.4515 130.474 88.2336 130.452 87.9935C130.429 87.7534 130.427 87.5003 130.444 87.2343L130.485 87.0408C130.581 86.772 130.689 86.5302 130.808 86.3153C130.928 86.098 131.063 85.9172 131.214 85.7727C131.368 85.6264 131.539 85.5243 131.728 85.4664C131.919 85.409 132.13 85.4047 132.359 85.4536C132.601 85.5049 132.804 85.5958 132.967 85.7261C133.133 85.857 133.26 86.0212 133.348 86.2189C133.438 86.417 133.49 86.6413 133.503 86.8916C133.518 87.1425 133.495 87.4122 133.434 87.7007ZM132.401 87.5584L132.417 87.4846C132.451 87.3227 132.469 87.1708 132.47 87.0288C132.473 86.8849 132.457 86.7551 132.42 86.6395C132.386 86.5243 132.328 86.4286 132.246 86.3524C132.167 86.2743 132.061 86.2213 131.93 86.1934C131.792 86.1639 131.669 86.161 131.561 86.1847C131.455 86.2088 131.363 86.2566 131.284 86.3281C131.205 86.3995 131.138 86.4907 131.082 86.6015C131.027 86.7123 130.98 86.8408 130.941 86.9871L130.837 87.4761C130.812 87.6522 130.812 87.8151 130.836 87.965C130.862 88.1125 130.922 88.2381 131.017 88.3418C131.113 88.4454 131.252 88.5167 131.435 88.5556C131.569 88.584 131.688 88.5786 131.792 88.5395C131.896 88.4979 131.988 88.4304 132.067 88.3368C132.148 88.2437 132.215 88.1304 132.267 87.997C132.323 87.8641 132.367 87.7179 132.401 87.5584Z" fill="#0D0D0D" fill-opacity="0.82"/>
<path d="M125.711 85.2201L125.659 85.4629C125.576 85.8522 125.449 86.1905 125.278 86.4777C125.106 86.7649 124.901 86.9971 124.663 87.1743C124.424 87.3492 124.159 87.4657 123.868 87.5238C123.578 87.5824 123.272 87.5773 122.948 87.5085C122.627 87.4402 122.344 87.3202 122.101 87.1484C121.861 86.9771 121.666 86.7629 121.517 86.5058C121.369 86.2462 121.274 85.9502 121.232 85.6177C121.192 85.2856 121.214 84.9249 121.296 84.5356L121.348 84.2928C121.431 83.9011 121.558 83.5628 121.729 83.278C121.9 82.9908 122.105 82.7586 122.344 82.5814C122.585 82.4046 122.85 82.287 123.14 82.2284C123.432 82.1703 123.738 82.1754 124.06 82.2437C124.383 82.3125 124.665 82.4325 124.906 82.6038C125.149 82.7755 125.344 82.9909 125.489 83.2499C125.638 83.5095 125.732 83.8052 125.772 84.1373C125.814 84.4675 125.794 84.8284 125.711 85.2201ZM124.593 85.2363L124.646 84.9865C124.704 84.7144 124.73 84.4699 124.725 84.2531C124.719 84.0362 124.683 83.8472 124.617 83.686C124.551 83.5248 124.456 83.3943 124.333 83.2946C124.21 83.1924 124.059 83.1224 123.881 83.0845C123.703 83.0467 123.537 83.0494 123.383 83.0927C123.232 83.1341 123.093 83.215 122.967 83.3353C122.843 83.456 122.735 83.6144 122.642 83.8103C122.549 84.0063 122.473 84.2403 122.415 84.5124L122.362 84.7622C122.305 85.0319 122.279 85.2764 122.284 85.4956C122.289 85.7125 122.325 85.9027 122.39 86.0662C122.457 86.2274 122.551 86.359 122.674 86.4611C122.797 86.5633 122.948 86.6333 123.126 86.6712C123.304 86.7091 123.47 86.7064 123.624 86.6631C123.778 86.6198 123.917 86.5377 124.04 86.4169C124.165 86.2938 124.273 86.1343 124.366 85.9383C124.46 85.74 124.536 85.506 124.593 85.2363Z" fill="#DDDDDB"/>
<path d="M125.711 85.2201L125.659 85.4629C125.576 85.8522 125.449 86.1905 125.278 86.4777C125.106 86.7649 124.901 86.9971 124.663 87.1743C124.424 87.3492 124.159 87.4657 123.868 87.5238C123.578 87.5824 123.272 87.5773 122.948 87.5085C122.627 87.4402 122.344 87.3202 122.101 87.1484C121.861 86.9771 121.666 86.7629 121.517 86.5058C121.369 86.2462 121.274 85.9502 121.232 85.6177C121.192 85.2856 121.214 84.9249 121.296 84.5356L121.348 84.2928C121.431 83.9011 121.558 83.5628 121.729 83.278C121.9 82.9908 122.105 82.7586 122.344 82.5814C122.585 82.4046 122.85 82.287 123.14 82.2284C123.432 82.1703 123.738 82.1754 124.06 82.2437C124.383 82.3125 124.665 82.4325 124.906 82.6038C125.149 82.7755 125.344 82.9909 125.489 83.2499C125.638 83.5095 125.732 83.8052 125.772 84.1373C125.814 84.4675 125.794 84.8284 125.711 85.2201ZM124.593 85.2363L124.646 84.9865C124.704 84.7144 124.73 84.4699 124.725 84.2531C124.719 84.0362 124.683 83.8472 124.617 83.686C124.551 83.5248 124.456 83.3943 124.333 83.2946C124.21 83.1924 124.059 83.1224 123.881 83.0845C123.703 83.0467 123.537 83.0494 123.383 83.0927C123.232 83.1341 123.093 83.215 122.967 83.3353C122.843 83.456 122.735 83.6144 122.642 83.8103C122.549 84.0063 122.473 84.2403 122.415 84.5124L122.362 84.7622C122.305 85.0319 122.279 85.2764 122.284 85.4956C122.289 85.7125 122.325 85.9027 122.39 86.0662C122.457 86.2274 122.551 86.359 122.674 86.4611C122.797 86.5633 122.948 86.6333 123.126 86.6712C123.304 86.7091 123.47 86.7064 123.624 86.6631C123.778 86.6198 123.917 86.5377 124.04 86.4169C124.165 86.2938 124.273 86.1343 124.366 85.9383C124.46 85.74 124.536 85.506 124.593 85.2363Z" fill="#0D0D0D" fill-opacity="0.82"/>
<path d="M129.623 87.0082L129.581 87.2057C129.513 87.5225 129.41 87.7977 129.271 88.0313C129.131 88.265 128.964 88.4539 128.77 88.5981C128.576 88.7404 128.361 88.8352 128.123 88.8824C127.888 88.9301 127.639 88.926 127.375 88.87C127.114 88.8144 126.884 88.7168 126.687 88.577C126.491 88.4377 126.332 88.2634 126.211 88.0542C126.091 87.843 126.013 87.6022 125.979 87.3316C125.947 87.0615 125.964 86.768 126.031 86.4512L126.073 86.2537C126.141 85.935 126.245 85.6598 126.384 85.4281C126.523 85.1945 126.69 85.0055 126.884 84.8613C127.08 84.7175 127.296 84.6218 127.531 84.5741C127.769 84.5269 128.018 84.531 128.28 84.5866C128.543 84.6426 128.773 84.7402 128.968 84.8796C129.166 85.0193 129.324 85.1945 129.443 85.4053C129.564 85.6164 129.64 85.857 129.672 86.1272C129.707 86.3958 129.691 86.6895 129.623 87.0082ZM128.714 87.0213L128.757 86.8181C128.804 86.5967 128.825 86.3978 128.821 86.2214C128.816 86.0449 128.787 85.8912 128.733 85.76C128.679 85.6289 128.602 85.5228 128.502 85.4416C128.402 85.3585 128.279 85.3015 128.134 85.2707C127.989 85.2399 127.854 85.2421 127.729 85.2773C127.606 85.311 127.493 85.3768 127.391 85.4747C127.29 85.573 127.202 85.7018 127.126 85.8612C127.05 86.0206 126.989 86.211 126.942 86.4324L126.899 86.6356C126.852 86.855 126.831 87.054 126.835 87.2323C126.839 87.4088 126.868 87.5635 126.922 87.6965C126.975 87.8277 127.052 87.9348 127.152 88.0179C127.252 88.1009 127.375 88.1579 127.52 88.1887C127.665 88.2196 127.8 88.2174 127.925 88.1821C128.05 88.1469 128.163 88.0802 128.264 87.9819C128.365 87.8817 128.454 87.7519 128.529 87.5925C128.605 87.4312 128.667 87.2408 128.714 87.0213Z" fill="#DDDDDB"/>
<path d="M129.623 87.0082L129.581 87.2057C129.513 87.5225 129.41 87.7977 129.271 88.0313C129.131 88.265 128.964 88.4539 128.77 88.5981C128.576 88.7404 128.361 88.8352 128.123 88.8824C127.888 88.9301 127.639 88.926 127.375 88.87C127.114 88.8144 126.884 88.7168 126.687 88.577C126.491 88.4377 126.332 88.2634 126.211 88.0542C126.091 87.843 126.013 87.6022 125.979 87.3316C125.947 87.0615 125.964 86.768 126.031 86.4512L126.073 86.2537C126.141 85.935 126.245 85.6598 126.384 85.4281C126.523 85.1945 126.69 85.0055 126.884 84.8613C127.08 84.7175 127.296 84.6218 127.531 84.5741C127.769 84.5269 128.018 84.531 128.28 84.5866C128.543 84.6426 128.773 84.7402 128.968 84.8796C129.166 85.0193 129.324 85.1945 129.443 85.4053C129.564 85.6164 129.64 85.857 129.672 86.1272C129.707 86.3958 129.691 86.6895 129.623 87.0082ZM128.714 87.0213L128.757 86.8181C128.804 86.5967 128.825 86.3978 128.821 86.2214C128.816 86.0449 128.787 85.8912 128.733 85.76C128.679 85.6289 128.602 85.5228 128.502 85.4416C128.402 85.3585 128.279 85.3015 128.134 85.2707C127.989 85.2399 127.854 85.2421 127.729 85.2773C127.606 85.311 127.493 85.3768 127.391 85.4747C127.29 85.573 127.202 85.7018 127.126 85.8612C127.05 86.0206 126.989 86.211 126.942 86.4324L126.899 86.6356C126.852 86.855 126.831 87.054 126.835 87.2323C126.839 87.4088 126.868 87.5635 126.922 87.6965C126.975 87.8277 127.052 87.9348 127.152 88.0179C127.252 88.1009 127.375 88.1579 127.52 88.1887C127.665 88.2196 127.8 88.2174 127.925 88.1821C128.05 88.1469 128.163 88.0802 128.264 87.9819C128.365 87.8817 128.454 87.7519 128.529 87.5925C128.605 87.4312 128.667 87.2408 128.714 87.0213Z" fill="#0D0D0D" fill-opacity="0.82"/>
<path d="M136.28 72.9936C140.049 66.1244 141.378 58.0909 140.021 50.3726C138.797 43.4147 135.243 38.8509 128.304 39.2623C127.253 41.9668 124.371 43.9555 121.641 43.0414C120.167 42.5388 120.688 41.1216 122.035 40.4368C123.689 39.5939 125.766 38.9245 127.934 38.7387C129.162 34.8858 125.827 30.972 121.775 29.5821C118.434 28.4394 114.688 28.6714 111.383 28.8778C110.997 28.8578 111.035 28.3722 111.35 28.3522C114.703 28.1448 118.503 27.9066 121.945 29.0852C126.207 30.5464 129.641 34.6493 128.492 38.7017C135.565 38.3903 139.287 43.1692 140.538 50.2823C141.916 58.1166 140.568 66.2722 136.741 73.2462C136.574 73.5518 136.113 73.2976 136.28 72.9936ZM127.719 39.3085C125.775 39.5015 123.875 40.0887 122.273 40.9049C121.416 41.3405 120.798 42.2009 121.809 42.5424C124.179 43.3462 126.706 41.6187 127.719 39.3085Z" fill="#DDDDDB"/>
<path d="M136.28 72.9936C140.049 66.1244 141.378 58.0909 140.021 50.3726C138.797 43.4147 135.243 38.8509 128.304 39.2623C127.253 41.9668 124.371 43.9555 121.641 43.0414C120.167 42.5388 120.688 41.1216 122.035 40.4368C123.689 39.5939 125.766 38.9245 127.934 38.7387C129.162 34.8858 125.827 30.972 121.775 29.5821C118.434 28.4394 114.688 28.6714 111.383 28.8778C110.997 28.8578 111.035 28.3722 111.35 28.3522C114.703 28.1448 118.503 27.9066 121.945 29.0852C126.207 30.5464 129.641 34.6493 128.492 38.7017C135.565 38.3903 139.287 43.1692 140.538 50.2823C141.916 58.1166 140.568 66.2722 136.741 73.2462C136.574 73.5518 136.113 73.2976 136.28 72.9936ZM127.719 39.3085C125.775 39.5015 123.875 40.0887 122.273 40.9049C121.416 41.3405 120.798 42.2009 121.809 42.5424C124.179 43.3462 126.706 41.6187 127.719 39.3085Z" fill="#0D0D0D" fill-opacity="0.82"/>
<path fill-rule="evenodd" clip-rule="evenodd" d="M143.924 149.103C88.4293 137.506 34.9131 146.205 15.1038 152L15 151.628C34.8554 145.819 88.434 137.112 144 148.724L143.924 149.103Z" fill="#DDDDDB"/>
<path fill-rule="evenodd" clip-rule="evenodd" d="M143.924 149.103C88.4293 137.506 34.9131 146.205 15.1038 152L15 151.628C34.8554 145.819 88.434 137.112 144 148.724L143.924 149.103Z" fill="#0D0D0D" fill-opacity="0.82"/>
</svg>
