<svg width="56" height="57" viewBox="0 0 56 57" fill="none" xmlns="http://www.w3.org/2000/svg">
<rect y="0.105469" width="56" height="56" rx="28" fill="#FF9800"/>
<path fill-rule="evenodd" clip-rule="evenodd" d="M27.9999 18.5054C28.589 18.5054 29.0666 18.9829 29.0666 19.572V27.0387H36.5332C37.1223 27.0387 37.5999 27.5163 37.5999 28.1054C37.5999 28.6945 37.1223 29.172 36.5332 29.172H29.0666V36.6387C29.0666 37.2278 28.589 37.7054 27.9999 37.7054C27.4108 37.7054 26.9332 37.2278 26.9332 36.6387V29.172H19.4666C18.8775 29.172 18.3999 28.6945 18.3999 28.1054C18.3999 27.5163 18.8775 27.0387 19.4666 27.0387H26.9332V19.572C26.9332 18.9829 27.4108 18.5054 27.9999 18.5054Z" fill="white" fill-opacity="0.97"/>
</svg>
