<svg width="165" height="165" viewBox="0 0 165 165" fill="none" xmlns="http://www.w3.org/2000/svg">
<path d="M48.4496 138.564C55.9482 133.809 62.5307 127.401 67.4848 120.032C67.6713 119.758 68.084 120.037 67.8998 120.311C62.9072 127.737 56.2739 134.194 48.7172 138.985C48.4375 139.163 48.1707 138.74 48.4496 138.564Z" fill="#242422"/>
<path d="M81.2457 65.73C81.2357 68.23 81.2157 70.74 81.1957 73.24C81.1757 76.5601 81.1557 79.88 81.1257 83.2C81.1057 86.9001 81.0757 90.6 81.0557 94.3001C81.0257 97.94 81.0057 101.58 80.9757 105.22C80.9557 108.37 80.9357 111.51 80.9157 114.66C80.8957 116.87 80.8857 119.07 80.8657 121.28C80.8657 122.12 80.8557 122.95 80.8557 123.79C80.8457 124.77 80.1357 125.6 79.1657 125.75L45.7757 131.08C45.1657 131.18 44.3957 131.22 43.7957 131.12C42.1284 130.859 41.1564 129.297 40.5557 127.72C40.9657 128.34 41.7157 128.72 42.5357 128.58L75.9157 123.26C76.8957 123.11 77.6057 122.27 77.6157 121.3L78.0357 59.3101C78.0457 58.2701 77.2657 57.46 76.3357 57.3201C76.4057 57.3101 76.4857 57.3301 76.5557 57.3401C77.7357 57.5701 78.9557 57.9001 79.8257 58.73C81.7257 60.5601 81.2657 63.37 81.2457 65.73Z" fill="#242422"/>
<path d="M78.0352 59.2805V59.3105L77.6153 121.301C77.6153 121.71 77.4853 122.1 77.2452 122.42C77.2152 122.48 77.1753 122.531 77.1252 122.591C76.8252 122.94 76.4052 123.19 75.9152 123.26C39.8524 129.016 42.2288 128.762 41.6252 128.521C41.1717 128.391 40.7721 128.054 40.5552 127.72V127.71C40.3952 127.47 40.2852 127.21 40.2452 126.91V126.901C40.2452 126.88 40.2353 126.87 40.2353 126.85C40.1166 126.733 40.4736 124.822 40.7852 122.811C41.4752 122.591 42.1252 122.281 42.7152 121.87C46.3947 119.404 45.8096 115.234 42.4253 112.48L42.5152 111.92C48.5855 113.053 51.4587 113.68 53.0052 113.401C54.4253 113.271 55.8352 112.771 56.8452 111.781C57.4152 111.22 57.8452 110.45 57.7652 109.651C57.6008 108.13 55.6843 107.191 53.8352 106.22C49.9388 104.171 45.9365 102.878 44.0152 102.5C49.4862 67.9982 49.321 68.993 49.3552 68.8905C49.4638 68.5102 49.5875 68.2585 49.8952 67.9504C50.3831 67.4628 49.1832 68.136 75.2852 57.4404C75.5352 57.3406 75.7852 57.2905 76.0352 57.2905C76.1352 57.2905 76.2353 57.3005 76.3352 57.3206C76.4253 57.3306 76.5152 57.3505 76.6052 57.3805C76.6352 57.3905 76.6652 57.4005 76.6952 57.4104C76.7952 57.4504 76.8952 57.4905 76.9853 57.5405C77.0952 57.6005 77.1852 57.6604 77.2752 57.7305C77.3653 57.8005 77.4552 57.8805 77.5352 57.9705C77.6052 58.0605 77.6753 58.1505 77.7353 58.2505C77.8653 58.4504 77.9552 58.6704 77.9952 58.9204C78.0252 59.0305 78.0352 59.1505 78.0352 59.2805Z" fill="#242422"/>
<path d="M78.0352 59.2805V59.3105L77.6153 121.301C77.6153 121.71 77.4853 122.1 77.2452 122.42C77.2152 122.48 77.1753 122.531 77.1252 122.591C76.8252 122.94 76.4052 123.19 75.9152 123.26C39.8524 129.016 42.2288 128.762 41.6252 128.521C41.1717 128.391 40.7721 128.054 40.5552 127.72V127.71C40.3952 127.47 40.2852 127.21 40.2452 126.91V126.901C40.2452 126.88 40.2353 126.87 40.2353 126.85C40.1166 126.733 40.4736 124.822 40.7852 122.811C41.4752 122.591 42.1252 122.281 42.7152 121.87C46.3947 119.404 45.8096 115.234 42.4253 112.48L42.5152 111.92C48.5855 113.053 51.4587 113.68 53.0052 113.401C54.4253 113.271 55.8352 112.771 56.8452 111.781C57.4152 111.22 57.8452 110.45 57.7652 109.651C57.6008 108.13 55.6843 107.191 53.8352 106.22C49.9388 104.171 45.9365 102.878 44.0152 102.5C49.4862 67.9982 49.321 68.993 49.3552 68.8905C49.4638 68.5102 49.5875 68.2585 49.8952 67.9504C50.3831 67.4628 49.1832 68.136 75.2852 57.4404C75.5352 57.3406 75.7852 57.2905 76.0352 57.2905C76.1352 57.2905 76.2353 57.3005 76.3352 57.3206C76.4253 57.3306 76.5152 57.3505 76.6052 57.3805C76.6352 57.3905 76.6652 57.4005 76.6952 57.4104C76.7952 57.4504 76.8952 57.4905 76.9853 57.5405C77.0952 57.6005 77.1852 57.6604 77.2752 57.7305C77.3653 57.8005 77.4552 57.8805 77.5352 57.9705C77.6052 58.0605 77.6753 58.1505 77.7353 58.2505C77.8653 58.4504 77.9552 58.6704 77.9952 58.9204C78.0252 59.0305 78.0352 59.1505 78.0352 59.2805Z" fill="white" fill-opacity="0.82"/>
<path d="M42.5156 111.92L42.4256 112.48C43.0156 112.96 43.5456 113.51 43.9856 114.12L44.2856 112.25C43.6956 112.141 43.1056 112.031 42.5156 111.92ZM77.9956 58.9204C77.9556 58.6704 77.8656 58.4504 77.7356 58.2505C77.6756 58.1505 77.6056 58.0605 77.5356 57.9705C77.4556 57.8805 77.3656 57.8005 77.2756 57.7305C77.1856 57.6604 77.0956 57.6005 76.9856 57.5405C76.8956 57.4905 76.7956 57.4504 76.6956 57.4104C76.6656 57.4005 76.6356 57.3905 76.6056 57.3805C76.5156 57.3505 76.4256 57.3306 76.3356 57.3206C76.2356 57.3005 76.1356 57.2905 76.0356 57.2905C75.7856 57.2905 75.5356 57.3406 75.2856 57.4404C49.2023 68.1284 50.3844 67.4618 49.8956 67.9504C49.6726 68.1737 49.5162 68.3987 49.4156 68.7004C49.2019 69.3415 49.7264 66.6689 44.0056 102.5C44.1077 102.524 44.6666 102.617 45.8056 102.95L51.1556 70.1704C51.2356 69.7305 51.5256 69.3605 51.9456 69.2004L58.5456 66.6305C59.0829 66.4291 58.8993 65.797 58.9156 65.6904C58.9156 65.4404 59.0556 65.2205 59.2856 65.1205L66.3956 62.1105L66.5056 62.8505L74.7656 59.7805C75.5356 59.4905 76.3356 60.0105 76.4356 60.8005C76.4556 60.8605 76.4556 60.9304 76.4556 60.9905L74.9556 119.771C74.9356 120.38 74.4956 120.87 73.9056 120.98C70.4152 121.582 85.7668 118.936 43.6856 126.19C42.8456 126.341 42.1056 125.6 42.2456 124.75L42.7156 121.87C42.1256 122.281 41.4756 122.591 40.7856 122.811C40.5158 124.552 40.1111 126.727 40.2356 126.85C40.2356 126.87 40.2456 126.88 40.2456 126.901V126.91C40.3456 127.18 40.4456 127.44 40.5556 127.71V127.72C40.7728 128.055 41.1751 128.392 41.6256 128.521C42.4703 128.858 42.2805 128.517 75.9156 123.26C76.4056 123.19 76.8256 122.94 77.1256 122.591C77.1756 122.531 77.2156 122.48 77.2456 122.42C77.4856 122.1 77.6156 121.71 77.6156 121.301L78.0356 59.3105V59.2805C78.0356 59.1505 78.0256 59.0305 77.9956 58.9204Z" fill="#242422"/>
<path d="M45.666 135.13C50.598 138.432 50.8606 137.794 49.766 141.026C49.4461 141.971 49.0136 142.873 48.5199 143.739C48.0763 144.516 47.5433 145.693 46.8408 146.264C46.091 146.873 45.3249 146.148 44.5861 145.844C39.1857 143.622 34.7104 141.573 29.1081 138.959C28.3302 138.596 27.5525 138.233 26.7749 137.869C24.9449 137.013 23.094 136.15 21.4528 134.959C20.4342 134.219 20.3152 134.029 20.7516 132.856C21.1114 131.889 21.5403 130.949 22.0476 130.05C22.6412 128.998 23.2537 127.761 24.3369 127.13C25.4539 126.479 26.9418 126.917 28.1326 127.128C35.8377 128.495 40.0712 131.385 45.666 135.13Z" fill="#B39DDB"/>
<path d="M45.666 135.13C50.598 138.432 50.8606 137.794 49.766 141.026C49.4461 141.971 49.0136 142.873 48.5199 143.739C48.0763 144.516 47.5433 145.693 46.8408 146.264C46.091 146.873 45.3249 146.148 44.5861 145.844C39.1857 143.622 34.7104 141.573 29.1081 138.959C28.3302 138.596 27.5525 138.233 26.7749 137.869C24.9449 137.013 23.094 136.15 21.4528 134.959C20.4342 134.219 20.3152 134.029 20.7516 132.856C21.1114 131.889 21.5403 130.949 22.0476 130.05C22.6412 128.998 23.2537 127.761 24.3369 127.13C25.4539 126.479 26.9418 126.917 28.1326 127.128C35.8377 128.495 40.0712 131.385 45.666 135.13Z" fill="white" fill-opacity="0.32"/>
<path d="M46.6061 135.801C46.5587 135.801 46.5109 135.788 46.4684 135.76C41.1862 132.28 35.4493 129.548 29.4181 127.64C25.17 126.296 23.8166 126.891 21.2662 132.644C21.0646 133.1 20.8683 133.585 20.88 134.068C20.8879 134.386 20.3898 134.429 20.38 134.08C20.3663 133.493 20.5846 132.949 20.8092 132.441C23.2101 127.022 24.5954 125.589 29.569 127.164C35.6442 129.085 41.4225 131.837 46.7438 135.342C46.9494 135.478 46.8547 135.801 46.6061 135.801Z" fill="#242422"/>
<path d="M65.7554 112.28C63.5254 113.02 61.1954 113.46 58.8754 113.77C56.8371 114.045 54.1412 115.027 53.0054 113.4C54.4254 113.27 55.8354 112.77 56.8454 111.78C57.4154 111.22 57.8454 110.45 57.7654 109.65C57.601 108.13 55.6845 107.191 53.8354 106.22C54.8628 105.861 59.4514 104.817 64.3054 104.48C64.9135 104.445 65.6228 104.408 66.1054 104.83C67.1554 105.76 66.8554 108.6 67.0254 109.76C67.2768 111.495 66.8355 111.91 65.7554 112.28Z" fill="#242422"/>
<path d="M26.3714 127.716C27.7892 121.331 29.4409 117.568 30.8304 113.989C31.2757 112.843 31.6966 111.76 32.3489 110.626C34.2953 107.266 36.9327 103.41 40.6429 102.281C41.5848 102.002 42.6985 101.993 44.053 102.254C46.7553 102.777 51.7785 104.637 55.7733 107.005C56.8079 107.619 57.8831 108.411 58.014 109.623C58.0931 110.411 57.7308 111.262 57.0208 111.958C55.9153 113.042 54.3644 113.568 52.8089 113.672C52.5967 113.66 51.8503 113.905 48.1097 113.206C47.3028 113.056 48.0504 113.192 42.4349 112.159C46.6123 115.609 46.2378 119.81 42.8548 122.078C40.8259 123.488 38.5258 123.438 38.6258 123.42C38.2975 123.42 38.2934 122.925 38.6224 122.92C40.075 122.901 41.5072 122.405 42.5731 121.665C46.4993 119.032 45.2851 114.501 41.2508 111.921C41.1502 111.857 41.1092 111.73 41.1531 111.618C41.1966 111.507 41.3074 111.442 41.431 111.464C49.0601 112.883 51.5604 113.412 52.9608 113.154C54.4817 113.014 55.7913 112.463 56.6707 111.601C57.2718 111.011 57.5804 110.309 57.5169 109.675C57.41 108.684 56.4466 107.986 55.5184 107.435C51.5939 105.111 46.6646 103.277 43.9671 102.745C42.6849 102.499 41.6478 102.504 40.7869 102.76C37.2211 103.845 34.6435 107.662 32.782 110.876C32.1487 111.977 31.7347 113.042 31.2967 114.17C29.9773 117.564 28.3332 121.185 26.8597 127.824C26.7882 128.147 26.2998 128.04 26.3714 127.716Z" fill="#242422"/>
<path d="M55.4797 101.606C53.9734 101.606 52.7136 101.127 51.8391 100.201C47.9291 96.0589 54.0712 86.3594 61.5007 84.7892C63.7771 84.3092 65.6829 84.7409 66.8757 86.0026C69.304 88.5748 67.907 93.8517 63.7615 97.7658C61.5707 99.8342 58.4666 101.606 55.4797 101.606ZM61.6042 85.2785C54.4218 86.7972 48.6431 96.0871 52.2024 99.8576C53.2717 100.988 55.0139 101.368 57.1106 100.925C59.2512 100.472 61.4915 99.2213 63.4177 97.4025C69.6485 91.5195 68.7083 83.78 61.6042 85.2785Z" fill="#242422"/>
<path d="M51.7455 95.5916C56.7914 95.9371 63.0721 91.6451 64.7802 86.8544C65.7049 84.2611 64.7973 82.3926 63.1792 80.3246C63.0511 80.1609 62.9156 79.9964 62.7368 79.8903C62.1797 79.5595 61.9279 80.066 61.7492 80.2151C61.3456 80.5517 60.2738 80.2587 59.7563 80.2784C58.9865 80.3077 58.2214 80.4342 57.4761 80.6264C53.3627 81.6876 49.1705 85.0337 47.7041 88.7923C47.4268 89.5031 47.4199 90.2776 46.6385 90.6581C46.4978 90.7266 46.337 90.782 46.2532 90.9142C46.1311 91.107 46.2314 91.3589 46.3393 91.5599C47.5298 93.7776 49.234 95.4196 51.7455 95.5916Z" fill="#242422"/>
<path d="M58.4066 91.1152C62.9812 87.933 65.1134 83.0874 63.1691 80.2923C61.2247 77.4973 55.9401 77.8112 51.3655 80.9934C46.7909 84.1756 44.6587 89.0212 46.6031 91.8163C48.5474 94.6113 53.8321 94.2975 58.4066 91.1152Z" fill="#B39DDB"/>
<path d="M58.4066 91.1152C62.9812 87.933 65.1134 83.0874 63.1691 80.2923C61.2247 77.4973 55.9401 77.8112 51.3655 80.9934C46.7909 84.1756 44.6587 89.0212 46.6031 91.8163C48.5474 94.6113 53.8321 94.2975 58.4066 91.1152Z" fill="white" fill-opacity="0.32"/>
<path d="M60.8955 74.8083C60.8909 74.3552 60.8864 73.9021 60.8819 73.449C60.8675 72.0123 60.1116 73.0395 59.5906 72.6743C59.0136 72.27 59.7401 71.6638 56.7626 70.2995C50.9252 67.6248 43.525 69.8121 42.0309 72.2416C41.8328 72.5637 41.674 72.8275 41.201 72.6951C41.1049 72.6683 41.0098 72.6259 40.9102 72.6324C40.4353 72.6632 40.4551 73.4904 40.4682 73.9471C40.4773 74.2686 40.4785 74.5916 40.4957 74.9128C40.968 83.7742 60.9805 83.3273 60.8955 74.8083Z" fill="#242422"/>
<path d="M50.7151 79.1062C56.2876 79.0942 60.7991 76.3243 60.7918 72.9195C60.7845 69.5147 56.2612 66.7642 50.6886 66.7762C45.1161 66.7882 40.6046 69.558 40.6119 72.9628C40.6192 76.3677 45.1425 79.1181 50.7151 79.1062Z" fill="#B39DDB"/>
<path d="M50.7151 79.1062C56.2876 79.0942 60.7991 76.3243 60.7918 72.9195C60.7845 69.5147 56.2612 66.7642 50.6886 66.7762C45.1161 66.7882 40.6046 69.558 40.6119 72.9628C40.6192 76.3677 45.1425 79.1181 50.7151 79.1062Z" fill="white" fill-opacity="0.32"/>
<path d="M39.913 63.4938C39.6397 63.807 39.2128 63.9792 38.7987 63.9433C38.7398 63.9382 38.6767 63.9299 38.6245 63.9577C38.4042 64.0753 38.4201 64.8634 38.4313 65.1139C38.4834 66.2759 38.5125 67.3709 39.1361 68.387C42.4438 73.7762 55.3122 73.2869 58.2043 67.6554C58.8187 66.4591 58.7186 65.005 58.6818 63.6967C58.676 63.4878 58.6409 63.2371 58.4507 63.1506C58.0888 62.9862 57.7298 63.4834 57.3701 63.1671C56.9164 62.7682 57.5031 62.1512 54.5738 60.8998C47.5026 57.8787 37.9699 61.5794 38.5315 66.6733" fill="#242422"/>
<path d="M48.7432 69.8755C54.3116 69.6603 58.7191 66.7278 58.5876 63.3255C58.4561 59.9232 53.8354 57.3395 48.267 57.5547C42.6986 57.7699 38.2912 60.7024 38.4226 64.1047C38.5541 67.507 43.1748 70.0907 48.7432 69.8755Z" fill="#B39DDB"/>
<path d="M48.7432 69.8755C54.3116 69.6603 58.7191 66.7278 58.5876 63.3255C58.4561 59.9232 53.8354 57.3395 48.267 57.5547C42.6986 57.7699 38.2912 60.7024 38.4226 64.1047C38.5541 67.507 43.1748 70.0907 48.7432 69.8755Z" fill="white" fill-opacity="0.32"/>
<path d="M40.1914 53.5421C43.7026 57.9055 51.6419 59.9672 57.0008 58.1225C59.4056 57.2946 61.0263 55.4929 62.0382 53.1928C62.2325 52.7513 62.3893 52.2793 62.3696 51.7974C62.347 51.2469 62.0855 51.1835 61.7734 51.1195C60.6715 50.8937 60.4286 50.3662 59.9771 49.4959C59.5445 48.662 58.6463 47.9639 57.913 47.404C54.5008 44.7991 49.4836 43.568 45.3432 44.1363C44.3989 44.2659 43.5231 44.5286 42.6222 44.825C42.0181 45.0237 40.7575 44.8031 40.3339 45.1844C40.23 45.2779 40.1679 45.408 40.1095 45.535C38.7842 48.4161 37.62 50.3464 40.1914 53.5421Z" fill="#242422"/>
<path d="M62.3559 52.1479C63.4215 48.392 59.302 43.9334 53.1547 42.1892C47.0074 40.4451 41.1602 42.0759 40.0945 45.8318C39.0289 49.5876 43.1484 54.0462 49.2957 55.7904C55.443 57.5345 61.2902 55.9037 62.3559 52.1479Z" fill="#B39DDB"/>
<path d="M62.3559 52.1479C63.4215 48.392 59.302 43.9334 53.1547 42.1892C47.0074 40.4451 41.1602 42.0759 40.0945 45.8318C39.0289 49.5876 43.1484 54.0462 49.2957 55.7904C55.443 57.5345 61.2902 55.9037 62.3559 52.1479Z" fill="white" fill-opacity="0.32"/>
<path d="M140.332 87.5103H107.363C105.621 87.5103 104.21 86.0984 104.21 84.3568C104.21 60.7789 104.324 68.8763 104.276 67.1315C104.26 66.5572 104.158 65.984 104.235 65.4097C104.197 65.691 105.698 65.7869 105.871 65.7718C106.409 65.7246 106.801 65.4291 107.363 65.4291H140.332C140.776 65.4291 141.271 65.5129 141.667 65.7248C141.931 65.8662 142.131 66.2072 142.464 66.1542C142.972 66.0733 143.011 65.4557 143.279 65.5375C143.55 67.1745 143.485 66.9576 143.485 84.3568C143.485 86.0984 142.073 87.5103 140.332 87.5103Z" fill="#242422"/>
<path d="M140.332 87.5103H107.363C105.621 87.5103 104.21 86.0984 104.21 84.3568C104.21 60.7789 104.324 68.8763 104.276 67.1315C104.26 66.5572 104.158 65.984 104.235 65.4097C104.197 65.691 105.698 65.7869 105.871 65.7718C106.409 65.7246 106.801 65.4291 107.363 65.4291H140.332C140.776 65.4291 141.271 65.5129 141.667 65.7248C141.931 65.8662 142.131 66.2072 142.464 66.1542C142.972 66.0733 143.011 65.4557 143.279 65.5375C143.55 67.1745 143.485 66.9576 143.485 84.3568C143.485 86.0984 142.073 87.5103 140.332 87.5103Z" fill="white" fill-opacity="0.32"/>
<path d="M141.366 56.5202C129.546 56.0002 117.866 55.9902 106.326 56.5202C105.236 56.5202 104.346 57.4101 104.346 58.5002V65.3303C104.346 66.4201 105.236 67.3103 106.326 67.3103C117.586 67.7803 129.306 67.7402 141.366 67.3103C142.466 67.3103 143.356 66.4201 143.356 65.3303V58.5002C143.356 57.4101 142.466 56.5202 141.366 56.5202ZM134.686 61.7602C134.686 62.1102 134.406 62.3902 134.056 62.3902H115.726C115.376 62.3902 115.086 62.1102 115.086 61.7602V60.0903C115.086 59.7402 115.366 59.4602 115.706 59.4602C118.646 59.4302 131.136 59.4602 134.066 59.4702C134.416 59.4702 134.686 59.7502 134.686 60.1002V61.7602Z" fill="#242422"/>
<path d="M141.366 56.5202C129.546 56.0002 117.866 55.9902 106.326 56.5202C105.236 56.5202 104.346 57.4101 104.346 58.5002V65.3303C104.346 66.4201 105.236 67.3103 106.326 67.3103C117.586 67.7803 129.306 67.7402 141.366 67.3103C142.466 67.3103 143.356 66.4201 143.356 65.3303V58.5002C143.356 57.4101 142.466 56.5202 141.366 56.5202ZM134.686 61.7602C134.686 62.1102 134.406 62.3902 134.056 62.3902H115.726C115.376 62.3902 115.086 62.1102 115.086 61.7602V60.0903C115.086 59.7402 115.366 59.4602 115.706 59.4602C118.646 59.4302 131.136 59.4602 134.066 59.4702C134.416 59.4702 134.686 59.7502 134.686 60.1002V61.7602Z" fill="white" fill-opacity="0.32"/>
<path d="M134.689 60.6492V62.395H115.09V60.6492C115.216 60.6178 134.689 60.6492 134.689 60.6492Z" fill="#242422"/>
<path d="M124.519 42.0277C125.061 40.6977 125.631 39.2321 125.824 37.8015C125.908 37.1843 126.147 36.5952 126.254 35.978C126.829 32.6766 127.599 28.6497 124.405 27.779C123.575 27.5528 123.25 27.4416 122.905 27.4637C122.631 27.4814 122.347 27.6066 122.212 27.8461C122.076 28.0859 122.111 28.3838 122.039 28.65C121.906 29.1436 121.486 29.4913 121.178 29.8699C120.789 30.3501 120.481 30.8976 120.172 31.4346C118.603 34.1677 117.171 37.6271 116.957 40.8127C116.732 44.1703 117.473 44.0957 116.855 45.2684C116.756 45.4555 116.638 45.6551 116.674 45.8634C116.729 46.1757 117.087 46.3186 117.392 46.406C118.932 46.8475 120.523 47.2424 121.844 46.1163C123.063 45.0766 123.909 43.5224 124.519 42.0277Z" fill="#242422"/>
<path d="M112.974 38.6238C113.991 36.324 114.838 33.9127 115.044 31.4063C115.251 28.9 114.769 26.2741 113.323 24.2166C112.727 23.3683 112.124 23.1805 111.24 22.749C110.699 22.4854 110.057 22.1068 109.485 22.4564C109.293 22.5735 109.159 22.7618 109.013 22.9318C108.049 24.0504 106.734 24.7711 105.818 25.9697C103.057 29.583 102.929 34.2698 103.8 38.7564C104.045 40.0179 104.764 40.3844 104.25 41.8791C104.153 42.1614 104.154 42.351 104.624 42.5101C105.608 42.8431 106.761 43.2222 107.808 43.2467C108.696 43.2674 109.623 42.7915 110.327 42.2763C111.559 41.3755 112.367 39.9953 112.974 38.6238Z" fill="#242422"/>
<path d="M83.6845 37.587C83.848 37.7398 84.0535 37.72 84.1641 37.9665C84.279 38.2226 84.2737 38.9969 84.2912 39.7705C84.3003 40.1722 84.1101 40.838 84.6616 40.9532C84.7929 40.9806 84.929 40.9623 85.0619 40.9436C85.9632 40.8167 87.5921 40.6631 88.04 39.719C88.3713 39.0209 88.3823 38.1256 88.3771 37.371C88.342 32.2471 85.1464 24.1521 82.3334 22.001C81.4553 21.3295 80.4177 21.6969 78.8809 22.0021C78.5705 22.0638 78.2499 22.1297 77.9918 22.3128C77.7337 22.4958 77.5547 22.8302 77.6509 23.1316C77.7951 23.5832 78.3743 23.6748 79.4833 24.9525C80.0465 25.6014 79.9105 27.195 80.0722 28.0392C81.0013 32.8907 83.3339 37.2596 83.6845 37.587Z" fill="#242422"/>
<path d="M54.3311 29.9883C51.9417 31.5499 57.1844 41.7968 62.1582 45.6828C63.6647 46.8598 65.0727 47.2917 66.7505 46.0604C67.0043 45.8742 66.8984 45.64 66.6857 45.4058C65.6065 44.2172 65.8895 44.585 65.4739 43.1287C64.3973 39.3566 61.0403 34.0884 57.8692 31.372C57.4214 30.9884 56.8269 30.7165 56.6256 30.1335C56.3362 29.2949 56.4563 28.973 55.646 29.3311C55.1994 29.5284 54.7397 29.7213 54.3311 29.9883Z" fill="#242422"/>
<path d="M67.1764 45.9035C68.5851 44.9829 67.2815 40.4944 64.2648 35.8782C61.248 31.262 57.6605 28.2661 56.2518 29.1866C54.8431 30.1072 56.1467 34.5957 59.1635 39.2119C62.1802 43.8282 65.7678 46.8241 67.1764 45.9035Z" fill="#B39DDB"/>
<path d="M67.1764 45.9035C68.5851 44.9829 67.2815 40.4944 64.2648 35.8782C61.248 31.262 57.6605 28.2661 56.2518 29.1866C54.8431 30.1072 56.1467 34.5957 59.1635 39.2119C62.1802 43.8282 65.7678 46.8241 67.1764 45.9035Z" fill="white" fill-opacity="0.32"/>
<path d="M84.9854 41.0784C86.9695 40.407 87.1363 35.6023 85.3579 30.3468C83.5796 25.0913 80.5294 21.3751 78.5453 22.0465C76.5611 22.7179 76.3943 27.5226 78.1727 32.7782C79.9511 38.0337 83.0012 41.7498 84.9854 41.0784Z" fill="#B39DDB"/>
<path d="M84.9854 41.0784C86.9695 40.407 87.1363 35.6023 85.3579 30.3468C83.5796 25.0913 80.5294 21.3751 78.5453 22.0465C76.5611 22.7179 76.3943 27.5226 78.1727 32.7782C79.9511 38.0337 83.0012 41.7498 84.9854 41.0784Z" fill="white" fill-opacity="0.32"/>
<path d="M72.4779 40.1845C72.6697 40.4783 72.8127 40.3478 72.9408 41.1378C73.2929 43.3076 73.1009 43.8876 73.7892 43.9383C75.5917 44.0711 75.8189 43.7458 75.4515 40.8616C74.7715 35.5228 71.6952 26.5056 69.6158 23.723C68.9949 22.8921 68.4505 23.0366 67.4078 23.0609C67.2172 23.0653 67.0206 23.0723 66.879 23.213C66.7374 23.3537 66.6658 23.6668 66.766 23.9986C66.8421 24.2509 66.9943 24.4521 67.1348 24.6418C68.8973 27.0226 68.4311 27.3645 68.9437 29.5654C70.0789 34.4396 72.1404 39.6675 72.4779 40.1845Z" fill="#242422"/>
<path d="M73.3576 44.1698C74.301 43.8743 73.5925 38.9308 71.775 33.1281C69.9576 27.3254 67.7194 22.8609 66.776 23.1564C65.8326 23.4519 66.5412 28.3954 68.3587 34.1981C70.1761 40.0008 72.4142 44.4653 73.3576 44.1698Z" fill="#B39DDB"/>
<path d="M73.3576 44.1698C74.301 43.8743 73.5925 38.9308 71.775 33.1281C69.9576 27.3254 67.7194 22.8609 66.776 23.1564C65.8326 23.4519 66.5412 28.3954 68.3587 34.1981C70.1761 40.0008 72.4142 44.4653 73.3576 44.1698Z" fill="white" fill-opacity="0.32"/>
<path d="M94.6368 29.7615C94.7348 31.1216 94.8853 32.4802 95.1006 33.8241C95.1619 34.2062 95.4999 36.1375 95.61 36.3732C95.7598 36.6939 95.9906 36.5988 95.8967 37.4004C95.8395 37.889 95.7627 38.3717 95.6903 38.8528C95.5905 39.5164 95.2877 40.1621 96.0747 40.3224C98.2231 40.7601 98.7472 40.6769 99.2483 37.5971C100.122 32.2289 99.1121 22.7411 97.3226 19.5946C96.7884 18.6552 96.026 18.6982 94.6736 18.5285C94.4247 18.4973 94.1671 18.4674 93.9368 18.5798C93.7065 18.6922 93.5101 18.9878 93.5308 19.3339C93.5617 19.8527 93.9902 20.1285 94.6154 21.8119C95.0587 23.0056 94.2052 23.7753 94.6368 29.7615Z" fill="#242422"/>
<path d="M95.4299 40.4722C96.7535 40.3756 97.468 35.3798 97.0257 29.3136C96.5835 23.2474 95.1519 18.408 93.8283 18.5045C92.5047 18.601 91.7902 23.5968 92.2325 29.663C92.6747 35.7293 94.1063 40.5687 95.4299 40.4722Z" fill="#B39DDB"/>
<path d="M95.4299 40.4722C96.7535 40.3756 97.468 35.3798 97.0257 29.3136C96.5835 23.2474 95.1519 18.408 93.8283 18.5045C92.5047 18.601 91.7902 23.5968 92.2325 29.663C92.6747 35.7293 94.1063 40.5687 95.4299 40.4722Z" fill="white" fill-opacity="0.32"/>
<path d="M111.092 38.1525C112.109 35.8527 112.957 33.4414 113.163 30.9351C113.51 26.7166 111.73 23.5145 110.421 22.7039C109.317 22.0209 107.857 22.3829 106.728 23.0236C104.249 24.4316 102.591 27.0342 101.893 29.7993C101.195 32.5643 101.375 35.4857 101.919 38.2852C102.268 40.0829 103.177 42.6652 105.37 42.7415C108.326 42.8443 110.012 40.5934 111.092 38.1525Z" fill="#B39DDB"/>
<path d="M111.092 38.1525C112.109 35.8527 112.957 33.4414 113.163 30.9351C113.51 26.7166 111.73 23.5145 110.421 22.7039C109.317 22.0209 107.857 22.3829 106.728 23.0236C104.249 24.4316 102.591 27.0342 101.893 29.7993C101.195 32.5643 101.375 35.4857 101.919 38.2852C102.268 40.0829 103.177 42.6652 105.37 42.7415C108.326 42.8443 110.012 40.5934 111.092 38.1525Z" fill="white" fill-opacity="0.32"/>
<path d="M121.988 41.1179C122.53 39.7879 123.101 38.3223 123.294 36.8917C123.377 36.2745 123.616 35.6854 123.724 35.0682C124.287 31.8294 125.077 27.0603 121.758 27.0851C120.903 27.0914 120.053 27.4211 119.418 27.9936C118.035 29.2387 114.743 35.1986 114.426 39.9029C114.326 41.4011 114.313 45.4139 116.147 46.002C118.843 46.8663 120.922 43.73 121.988 41.1179Z" fill="#B39DDB"/>
<path d="M121.988 41.1179C122.53 39.7879 123.101 38.3223 123.294 36.8917C123.377 36.2745 123.616 35.6854 123.724 35.0682C124.287 31.8294 125.077 27.0603 121.758 27.0851C120.903 27.0914 120.053 27.4211 119.418 27.9936C118.035 29.2387 114.743 35.1986 114.426 39.9029C114.326 41.4011 114.313 45.4139 116.147 46.002C118.843 46.8663 120.922 43.73 121.988 41.1179Z" fill="white" fill-opacity="0.32"/>
<path d="M131.408 53.5413C131.973 52.4703 132.572 51.288 132.851 50.1038C132.972 49.5929 133.221 49.1185 133.362 48.6096C134.116 45.8876 135.094 42.5732 132.486 41.5797C131.809 41.3216 131.545 41.2015 131.254 41.1917C130.488 41.1658 130.542 41.8201 130.43 42.1154C130.278 42.5185 129.896 42.7755 129.608 43.0678C128.826 43.8587 127.574 45.8426 126.935 47.0357C125.486 49.7385 124.943 52.1061 124.978 53.9951C124.99 54.6685 125.121 55.0093 124.713 55.6284C124.614 55.7772 124.498 55.9349 124.512 56.1126C124.532 56.3791 124.82 56.5284 125.069 56.6268C126.324 57.1241 127.627 57.5864 128.827 56.7506C129.935 55.9789 130.773 54.7449 131.408 53.5413Z" fill="#242422"/>
<path d="M129.268 52.7405C129.857 51.6646 130.523 50.3187 130.804 49.1321C130.99 48.345 133.323 42.7565 131.365 41.1608C130.734 40.6465 129.347 40.5661 128.285 41.3488C127.217 42.1362 125.52 44.8831 124.887 46.064C124.068 47.5913 123.402 49.2181 123.118 50.9275C122.91 52.176 122.568 55.5409 124.058 56.1854C126.333 57.169 128.319 54.4758 129.268 52.7405Z" fill="#B39DDB"/>
<path d="M129.268 52.7405C129.857 51.6646 130.523 50.3187 130.804 49.1321C130.99 48.345 133.323 42.7565 131.365 41.1608C130.734 40.6465 129.347 40.5661 128.285 41.3488C127.217 42.1362 125.52 44.8831 124.887 46.064C124.068 47.5913 123.402 49.2181 123.118 50.9275C122.91 52.176 122.568 55.5409 124.058 56.1854C126.333 57.169 128.319 54.4758 129.268 52.7405Z" fill="white" fill-opacity="0.32"/>
<path d="M104.221 66.0146C104.216 65.5243 102.307 65.9058 143.276 65.2876H143.279C143.608 65.2876 143.61 65.7841 143.282 65.7876C102.604 66.167 104.227 66.5542 104.221 66.0146Z" fill="#242422"/>
<path d="M68.5847 116.504L67.1863 114.174C67.0157 113.891 67.4454 113.633 67.615 113.917L69.0134 116.247C69.0847 116.366 69.0461 116.519 68.9275 116.59C68.8132 116.66 68.6575 116.626 68.5847 116.504Z" fill="#242422"/>
<path d="M67.9971 111.2C67.8876 110.705 68.6872 111.056 71.0273 109.913C71.3304 109.771 71.5409 110.219 71.2471 110.362C70.3081 110.821 69.3149 111.167 68.2949 111.391C68.1582 111.42 68.0261 111.334 67.9971 111.2Z" fill="#242422"/>
<path d="M28.5573 91.7042C21.9132 86.8292 19.9645 76.506 24.3415 69.5314C21.8485 66.803 21.9387 62.8858 22.4772 59.2467C24.2116 47.5016 29.9215 36.5446 38.5543 28.3937C38.793 28.1655 39.139 28.5296 38.8976 28.757C30.3459 36.8312 24.6901 47.6852 22.9718 59.3199C22.4684 62.7236 22.3344 66.4974 24.6237 69.1017C27.2418 65.287 30.4037 65.489 31.8918 67.486C34.1813 70.5583 28.8887 73.9056 24.7013 69.9C20.5382 76.6617 22.4416 86.5968 28.8532 91.3009C28.9645 91.3824 28.9884 91.5392 28.9069 91.6505C28.8237 91.7633 28.6666 91.7847 28.5573 91.7042ZM24.9748 69.4742C28.6533 73.1029 33.4384 70.4009 31.4909 67.7848C30.8918 66.9811 29.8693 66.4982 28.9445 66.5841C27.1803 66.7457 25.8302 68.2013 24.9748 69.4742Z" fill="#242422"/>
<path d="M57.1005 51.1079L55.7187 50.5139L55.9658 50.4201C55.5134 51.9842 54.3788 52.8435 53.988 52.7996C53.6477 52.7588 53.363 52.3486 53.7281 52.127C54.6403 51.572 55.0115 50.8826 55.2497 50.0589C55.618 48.7857 55.3216 47.6877 54.147 47.1827C52.0302 46.2726 52.0188 49.7747 50.1931 50.4403C49.2355 50.7916 47.9377 50.1888 47.266 49.3893C46.6346 48.6362 46.3706 47.6094 46.6519 46.4962L46.7907 46.6755C45.4785 46.081 45.3401 46.1272 45.2216 45.8941C45.1303 45.7173 45.1784 45.5161 45.352 45.4434C45.5638 45.3526 45.6349 45.4888 46.9761 46.0349L46.7854 46.086C47.0163 45.3515 47.6339 44.5695 48.474 44.2498C48.7567 44.1432 49.1329 44.4047 49.0415 44.7208C48.9508 45.0343 47.8989 45.0221 47.423 46.6675C47.0639 47.9087 47.5187 49.0709 48.7052 49.581C49.1483 49.7715 49.5376 49.8031 49.8724 49.6754C50.9647 49.2615 51.3263 46.9648 52.6985 46.3397C54.0671 45.7163 56.6784 47.2187 56.0482 50.1353L55.8912 49.8677C57.267 50.4884 57.38 50.4392 57.5013 50.66C57.5491 50.7474 57.4205 51.2455 57.1005 51.1079Z" fill="#242422"/>
<path d="M55.5843 63.298C55.4343 63.4756 55.2836 63.387 53.8392 63.5032L54.0176 63.3082C54.3275 64.958 53.6724 66.1941 53.3235 66.3234C53.2431 66.3526 53.1611 66.362 53.0778 66.3509C52.8256 66.3154 52.6167 66.1152 52.7886 65.84C52.9794 65.5336 53.126 65.1831 53.2283 64.7876C53.3311 64.3926 53.3265 63.8991 53.2155 63.3082C53.0648 62.5058 52.7019 61.7486 51.9572 61.4138C51.3234 61.1289 50.576 61.2046 50.1889 61.4544C48.678 62.4344 50.7296 66.3474 47.294 66.5579C45.7025 66.6554 44.31 65.6809 43.9346 63.9999L44.1393 64.0975C42.7 64.1578 42.5972 64.2614 42.3864 64.1066C42.1184 63.9125 42.2156 63.5524 42.5432 63.5323L44.0162 63.4421L43.869 63.5736C43.6635 62.3212 44.3851 61.1374 44.7499 61.0569C45.1154 60.9762 45.409 61.277 45.1984 61.576C44.2112 62.8193 44.6458 64.5924 45.5538 65.3374C46.4591 66.0811 47.763 65.9131 48.2418 65.3879C49.2882 64.2451 47.7351 60.6588 50.7495 60.4741C52.3479 60.3762 53.5485 61.4234 53.9629 63.0167L53.7021 62.8486C55.21 62.7831 55.2888 62.6883 55.4965 62.8307C55.5786 62.8873 55.7106 63.1493 55.5843 63.298Z" fill="#242422"/>
<path d="M61.1941 82.4646C61.157 82.6928 61.0076 82.6773 59.8034 83.5385L59.856 83.2795C60.9862 84.5522 61.0349 85.9443 60.8125 86.2221C60.7 86.3605 60.536 86.4254 60.3768 86.4098C60.1841 86.3909 60.1017 86.2757 60.1051 86.0829C60.1225 85.0153 59.7377 84.3334 59.1683 83.6923C58.6261 83.0818 57.9253 82.6194 57.1145 82.7155C56.4244 82.7973 55.8226 83.2469 55.6191 83.6603C55.0137 84.8984 57.1423 86.5551 56.7919 88.1719C56.4454 89.7857 53.5232 91.1191 51.5665 89.0614L51.7922 89.0397L50.5756 89.875C50.3955 89.9987 50.1653 89.9642 50.0502 89.8345C49.935 89.7048 49.9527 89.5001 50.1328 89.3764L51.3494 88.541L51.2908 88.7296C50.4702 87.7615 50.4797 86.3751 50.7511 86.1183C51.0213 85.8626 51.4295 85.9659 51.4028 86.3327C51.2878 87.2082 51.5597 87.8666 52.1229 88.5008C52.9809 89.4669 54.2064 89.7027 55.271 88.9716C57.2994 87.5788 54.3961 85.8098 54.6615 83.8646C54.8647 82.3745 57.5291 80.9682 59.6591 83.0578L59.349 83.0478L60.6005 82.1885C60.6861 82.1297 60.7786 82.103 60.8784 82.1091C61.064 82.1208 61.2259 82.272 61.1941 82.4646Z" fill="#242422"/>
<path d="M125.257 54.011C125.206 53.8501 125.322 53.7342 125.801 52.522L125.852 52.7092C125.027 52.655 124.512 52.2375 124.304 51.7258C124.167 51.4235 124.617 50.8596 124.782 51.1817C124.895 51.4014 125.052 51.5934 125.254 51.7576C125.604 52.0438 126.447 52.1689 127.074 51.9018C127.656 51.6539 128.055 51.1455 128.293 50.5676C129.27 48.19 125.12 49.7194 126.451 46.4792C126.96 45.2417 128.045 44.1775 129.295 44.2051L129.157 44.3553C129.544 43.5198 129.664 42.7967 130.017 42.8199C130.16 42.8293 130.171 43.0025 130.113 43.1445L129.603 44.3847L129.579 44.2362C130.478 44.3224 131.147 45.4074 130.553 45.8002C130.222 46.0197 130.355 45.5195 129.878 45.1311C129.49 44.8169 128.612 44.7135 127.861 45.2802C127.233 45.7528 126.628 46.8652 126.8 47.5002C127.095 48.6004 129.871 48.0277 128.828 50.5663C128.337 51.7614 127.309 52.6952 126.05 52.7222L126.252 52.5396C125.72 53.7898 125.744 53.8861 125.575 54.0319C125.509 54.0887 125.301 54.1522 125.257 54.011Z" fill="#242422"/>
<path d="M138.496 51.7789C138.364 51.7789 138.253 51.6749 138.247 51.5416C138.185 50.3224 138.248 49.0934 138.433 47.8873C138.482 47.564 138.977 47.6346 138.927 47.9635C138.46 51.0085 139.028 51.7526 138.509 51.7784C138.504 51.7789 138.5 51.7789 138.496 51.7789Z" fill="#242422"/>
<path d="M139.665 53.0459C140.303 51.3877 141.185 49.8379 142.283 48.4395C142.489 48.18 142.88 48.4882 142.677 48.7481C141.608 50.1074 140.752 51.6138 140.131 53.2256C140.011 53.5341 139.546 53.3547 139.665 53.0459Z" fill="#242422"/>
<path d="M141.85 54.4616C142.598 53.8908 143.41 53.4006 144.265 53.0056C144.565 52.8668 144.775 53.3205 144.475 53.4597C143.654 53.8395 142.872 54.3102 142.154 54.8591C141.894 55.0575 141.586 54.664 141.85 54.4616Z" fill="#242422"/>
<path d="M135.644 77.9042C135.772 78.0722 135.909 78.1895 136.056 78.2562C136.205 78.3228 136.372 78.3562 136.556 78.3562C136.913 78.3562 137.189 78.2282 137.384 77.9722C137.581 77.7135 137.68 77.3375 137.68 76.8442C137.68 76.5855 137.657 76.3655 137.612 76.1842C137.569 76.0002 137.505 75.8508 137.42 75.7362C137.337 75.6188 137.234 75.5335 137.112 75.4802C136.989 75.4242 136.85 75.3962 136.696 75.3962C136.469 75.3962 136.272 75.4468 136.104 75.5482C135.938 75.6495 135.785 75.7935 135.644 75.9802V77.9042ZM135.604 75.4482C135.689 75.3468 135.78 75.2548 135.876 75.1722C135.974 75.0868 136.08 75.0148 136.192 74.9562C136.304 74.8948 136.422 74.8482 136.548 74.8162C136.676 74.7815 136.812 74.7642 136.956 74.7642C137.188 74.7642 137.397 74.8095 137.584 74.9002C137.773 74.9908 137.934 75.1242 138.068 75.3002C138.201 75.4762 138.304 75.6935 138.376 75.9522C138.45 76.2108 138.488 76.5082 138.488 76.8442C138.488 77.1455 138.446 77.4255 138.364 77.6842C138.284 77.9402 138.168 78.1628 138.016 78.3522C137.866 78.5415 137.682 78.6908 137.464 78.8002C137.248 78.9068 137.004 78.9602 136.732 78.9602C136.489 78.9602 136.281 78.9202 136.108 78.8402C135.934 78.7602 135.78 78.6482 135.644 78.5042V80.2682H134.864V74.8402H135.332C135.441 74.8402 135.509 74.8922 135.536 74.9962L135.604 75.4482Z" fill="white"/>
<path d="M133.935 74.8398V78.9038H133.467C133.36 78.9038 133.291 78.8518 133.259 78.7478L133.203 78.3398C133.115 78.4332 133.023 78.5185 132.927 78.5958C132.831 78.6732 132.728 78.7398 132.619 78.7958C132.509 78.8492 132.393 78.8905 132.271 78.9198C132.148 78.9518 132.016 78.9678 131.875 78.9678C131.651 78.9678 131.453 78.9305 131.283 78.8558C131.115 78.7812 130.973 78.6772 130.859 78.5438C130.744 78.4078 130.657 78.2452 130.599 78.0558C130.54 77.8665 130.511 77.6572 130.511 77.4278V74.8398H131.295V77.4278C131.295 77.7185 131.361 77.9452 131.495 78.1078C131.628 78.2678 131.832 78.3478 132.107 78.3478C132.307 78.3478 132.493 78.3012 132.667 78.2078C132.84 78.1118 133.003 77.9812 133.155 77.8158V74.8398H133.935Z" fill="white"/>
<path d="M127.309 76.4199C127.309 76.2652 127.287 76.1225 127.241 75.9919C127.199 75.8612 127.135 75.7479 127.049 75.6519C126.964 75.5559 126.86 75.4812 126.737 75.4279C126.615 75.3745 126.473 75.3479 126.313 75.3479C125.985 75.3479 125.727 75.4425 125.537 75.6319C125.351 75.8212 125.232 76.0839 125.181 76.4199H127.309ZM127.953 78.3239C127.857 78.4359 127.747 78.5332 127.621 78.6159C127.496 78.6959 127.363 78.7612 127.221 78.8119C127.08 78.8625 126.933 78.8999 126.781 78.9239C126.632 78.9479 126.484 78.9599 126.337 78.9599C126.057 78.9599 125.797 78.9132 125.557 78.8199C125.32 78.7239 125.113 78.5852 124.937 78.4039C124.764 78.2199 124.628 77.9932 124.529 77.7239C124.433 77.4519 124.385 77.1399 124.385 76.7879C124.385 76.5052 124.429 76.2425 124.517 75.9999C124.605 75.7545 124.731 75.5412 124.893 75.3599C125.059 75.1785 125.26 75.0359 125.497 74.9319C125.735 74.8279 126.001 74.7759 126.297 74.7759C126.545 74.7759 126.773 74.8172 126.981 74.8999C127.192 74.9799 127.373 75.0972 127.525 75.2519C127.677 75.4065 127.796 75.5972 127.881 75.8239C127.969 76.0505 128.013 76.3092 128.013 76.5999C128.013 76.7199 128 76.8012 127.973 76.8439C127.947 76.8839 127.897 76.9039 127.825 76.9039H125.161C125.169 77.1465 125.204 77.3585 125.265 77.5399C125.327 77.7185 125.411 77.8679 125.517 77.9879C125.627 78.1079 125.756 78.1972 125.905 78.2559C126.055 78.3145 126.221 78.3439 126.405 78.3439C126.579 78.3439 126.728 78.3239 126.853 78.2839C126.981 78.2439 127.091 78.2012 127.181 78.1559C127.275 78.1079 127.352 78.0639 127.413 78.0239C127.477 77.9839 127.533 77.9639 127.581 77.9639C127.645 77.9639 127.695 77.9879 127.729 78.0359L127.953 78.3239Z" fill="white"/>
<path d="M123.663 73V78.904H122.879V73H123.663Z" fill="white"/>
<path d="M118.787 78.968C118.459 78.968 118.206 78.876 118.027 78.692C117.851 78.508 117.763 78.2454 117.763 77.904V75.472H117.291C117.246 75.472 117.207 75.4587 117.175 75.432C117.146 75.4027 117.131 75.36 117.131 75.304V74.988L117.791 74.896L117.967 73.684C117.978 73.6387 117.998 73.604 118.027 73.58C118.059 73.5534 118.099 73.54 118.147 73.54H118.543V74.904H120.399L120.579 73.684C120.587 73.6387 120.606 73.604 120.635 73.58C120.667 73.5534 120.707 73.54 120.755 73.54H121.155V74.904H122.307V75.472H121.155V77.852C121.155 78.012 121.194 78.132 121.271 78.212C121.349 78.2894 121.45 78.328 121.575 78.328C121.647 78.328 121.709 78.3187 121.759 78.3C121.813 78.2814 121.858 78.2614 121.895 78.24C121.933 78.216 121.965 78.1947 121.991 78.176C122.018 78.1574 122.042 78.148 122.063 78.148C122.087 78.148 122.107 78.1547 122.123 78.168C122.139 78.1787 122.155 78.1974 122.171 78.224L122.403 78.6C122.275 78.7174 122.122 78.808 121.943 78.872C121.767 78.936 121.585 78.968 121.395 78.968C121.067 78.968 120.814 78.876 120.635 78.692C120.459 78.508 120.371 78.2454 120.371 77.904V75.472H118.543V77.852C118.543 78.012 118.582 78.132 118.659 78.212C118.739 78.2894 118.841 78.328 118.963 78.328C119.035 78.328 119.097 78.3187 119.147 78.3C119.201 78.2814 119.246 78.2614 119.283 78.24C119.321 78.216 119.353 78.1947 119.379 78.176C119.406 78.1574 119.43 78.148 119.451 78.148C119.478 78.148 119.498 78.1547 119.511 78.168C119.527 78.1787 119.543 78.1974 119.559 78.224L119.791 78.6C119.663 78.7174 119.511 78.808 119.335 78.872C119.159 78.936 118.977 78.968 118.787 78.968Z" fill="white"/>
<path d="M116.164 76.4199C116.164 76.2652 116.142 76.1225 116.096 75.9919C116.054 75.8612 115.99 75.7479 115.904 75.6519C115.819 75.5559 115.715 75.4812 115.592 75.4279C115.47 75.3745 115.328 75.3479 115.168 75.3479C114.84 75.3479 114.582 75.4425 114.392 75.6319C114.206 75.8212 114.087 76.0839 114.036 76.4199H116.164ZM116.808 78.3239C116.712 78.4359 116.602 78.5332 116.476 78.6159C116.351 78.6959 116.218 78.7612 116.076 78.8119C115.935 78.8625 115.788 78.8999 115.636 78.9239C115.487 78.9479 115.339 78.9599 115.192 78.9599C114.912 78.9599 114.652 78.9132 114.412 78.8199C114.175 78.7239 113.968 78.5852 113.792 78.4039C113.619 78.2199 113.483 77.9932 113.384 77.7239C113.288 77.4519 113.24 77.1399 113.24 76.7879C113.24 76.5052 113.284 76.2425 113.372 75.9999C113.46 75.7545 113.586 75.5412 113.748 75.3599C113.914 75.1785 114.115 75.0359 114.352 74.9319C114.59 74.8279 114.856 74.7759 115.152 74.7759C115.4 74.7759 115.628 74.8172 115.836 74.8999C116.047 74.9799 116.228 75.0972 116.38 75.2519C116.532 75.4065 116.651 75.5972 116.736 75.8239C116.824 76.0505 116.868 76.3092 116.868 76.5999C116.868 76.7199 116.855 76.8012 116.828 76.8439C116.802 76.8839 116.752 76.9039 116.68 76.9039H114.016C114.024 77.1465 114.059 77.3585 114.12 77.5399C114.182 77.7185 114.266 77.8679 114.372 77.9879C114.482 78.1079 114.611 78.1972 114.76 78.2559C114.91 78.3145 115.076 78.3439 115.26 78.3439C115.434 78.3439 115.583 78.3239 115.708 78.2839C115.836 78.2439 115.946 78.2012 116.036 78.1559C116.13 78.1079 116.207 78.0639 116.268 78.0239C116.332 77.9839 116.388 77.9639 116.436 77.9639C116.5 77.9639 116.55 77.9879 116.584 78.0359L116.808 78.3239Z" fill="white"/>
<path d="M112.436 74.0962C112.409 74.1415 112.381 74.1749 112.352 74.1962C112.323 74.2175 112.285 74.2282 112.24 74.2282C112.192 74.2282 112.137 74.2069 112.076 74.1642C112.015 74.1189 111.937 74.0695 111.844 74.0162C111.753 73.9602 111.644 73.9109 111.516 73.8682C111.388 73.8229 111.235 73.8002 111.056 73.8002C110.888 73.8002 110.74 73.8229 110.612 73.8682C110.487 73.9109 110.381 73.9709 110.296 74.0482C110.211 74.1229 110.145 74.2122 110.1 74.3162C110.057 74.4175 110.036 74.5282 110.036 74.6482C110.036 74.8029 110.075 74.9309 110.152 75.0322C110.232 75.1335 110.336 75.2202 110.464 75.2922C110.592 75.3642 110.737 75.4269 110.9 75.4802C111.063 75.5335 111.229 75.5895 111.4 75.6482C111.571 75.7042 111.737 75.7695 111.9 75.8442C112.063 75.9189 112.208 76.0135 112.336 76.1282C112.464 76.2402 112.567 76.3789 112.644 76.5442C112.724 76.7069 112.764 76.9069 112.764 77.1442C112.764 77.3975 112.72 77.6349 112.632 77.8562C112.547 78.0775 112.421 78.2709 112.256 78.4362C112.091 78.6015 111.887 78.7322 111.644 78.8282C111.404 78.9215 111.131 78.9682 110.824 78.9682C110.64 78.9682 110.461 78.9495 110.288 78.9122C110.115 78.8775 109.951 78.8282 109.796 78.7642C109.641 78.6975 109.496 78.6189 109.36 78.5282C109.227 78.4349 109.107 78.3309 109 78.2162L109.244 77.8082C109.268 77.7762 109.296 77.7495 109.328 77.7282C109.363 77.7069 109.401 77.6962 109.444 77.6962C109.5 77.6962 109.564 77.7255 109.636 77.7842C109.711 77.8429 109.801 77.9082 109.908 77.9802C110.017 78.0495 110.147 78.1135 110.296 78.1722C110.448 78.2309 110.632 78.2602 110.848 78.2602C111.024 78.2602 111.181 78.2375 111.32 78.1922C111.459 78.1442 111.575 78.0775 111.668 77.9922C111.764 77.9042 111.837 77.7989 111.888 77.6762C111.939 77.5535 111.964 77.4175 111.964 77.2682C111.964 77.1002 111.925 76.9629 111.848 76.8562C111.771 76.7495 111.668 76.6602 111.54 76.5882C111.412 76.5162 111.267 76.4549 111.104 76.4042C110.941 76.3535 110.775 76.3015 110.604 76.2482C110.433 76.1922 110.267 76.1282 110.104 76.0562C109.941 75.9842 109.796 75.8909 109.668 75.7762C109.54 75.6589 109.437 75.5135 109.36 75.3402C109.283 75.1642 109.244 74.9482 109.244 74.6922C109.244 74.4869 109.284 74.2882 109.364 74.0962C109.444 73.9042 109.56 73.7349 109.712 73.5882C109.867 73.4389 110.056 73.3202 110.28 73.2322C110.504 73.1415 110.76 73.0962 111.048 73.0962C111.371 73.0962 111.667 73.1482 111.936 73.2522C112.208 73.3535 112.444 73.5002 112.644 73.6922L112.436 74.0962Z" fill="white"/>
<path d="M121.895 98.3266C121.219 100.42 119.691 103.11 117.43 104.378C115.617 105.392 113.527 106.03 111.372 106.23C111.133 111.398 104.314 113.103 99.2792 112.967C98.4664 116.332 95.9005 119.586 92.3778 121.706C92.0968 121.875 91.8401 121.448 92.1228 121.276C95.499 119.245 97.964 116.15 98.7724 112.949C97.9015 112.908 97.0213 112.811 96.1508 112.657C95.1004 112.475 93.7779 112.145 92.8676 111.205C92.0015 110.301 91.6776 108.674 92.5742 107.691C93.6577 106.52 97.5052 105.961 98.9276 107.965C99.7546 109.126 99.668 111.079 99.3898 112.469C102.975 112.561 108.502 111.54 110.269 108.397C110.626 107.77 110.828 107.055 110.873 106.27C107.979 106.46 105.144 105.885 102.654 104.592C100.725 103.586 99.1512 101.574 100.034 99.8262C100.81 98.3173 102.882 98.1777 104.42 98.5151C108.114 99.3301 111.269 101.95 111.377 105.728C113.446 105.528 115.449 104.913 117.189 103.941C119.324 102.744 120.776 100.176 121.423 98.1723C121.523 97.8587 121.996 98.0107 121.895 98.3266ZM110.881 105.769C110.725 99.7142 101.955 97.1775 100.476 100.055C99.6492 101.691 101.513 103.434 102.882 104.148C105.303 105.405 108.069 105.959 110.881 105.769ZM98.8859 112.453C99.1451 111.215 99.2727 109.308 98.5241 108.256C97.6629 107.044 95.837 106.974 94.4132 107.313C93.9287 107.429 93.323 107.615 92.9384 108.03C92.243 108.793 92.5301 110.133 93.2241 110.857C94.0335 111.692 95.2589 111.995 96.2356 112.164C97.1163 112.32 98.0067 112.417 98.8859 112.453Z" fill="#242422"/>
</svg>
