<svg width="165" height="165" viewBox="0 0 165 165" fill="none" xmlns="http://www.w3.org/2000/svg">
<path d="M48.4499 138.563C55.9484 133.808 62.5309 127.4 67.485 120.031C67.6716 119.757 68.0842 120.037 67.9001 120.311C62.9074 127.736 56.2741 134.194 48.7175 138.985C48.4378 139.163 48.1709 138.739 48.4499 138.563Z" fill="#DDDDDB"/>
<path d="M80.5967 65.5949C80.5869 68.055 80.5672 70.525 80.5475 72.9851C80.5279 76.2522 80.5082 79.5192 80.4786 82.7862C80.459 86.4273 80.4295 90.0682 80.4098 93.7093C80.3803 97.2911 80.3606 100.873 80.3311 104.455C80.3114 107.555 80.2917 110.645 80.272 113.744C80.2523 115.919 80.2425 118.084 80.2228 120.259C80.2228 121.086 80.213 121.902 80.213 122.729C80.2031 123.693 79.5044 124.51 78.5499 124.658L45.6924 129.903C45.0922 130.001 44.3344 130.04 43.744 129.942C42.1033 129.686 41.1468 128.148 40.5557 126.596C40.9592 127.206 41.6972 127.58 42.5041 127.443L75.3518 122.207C76.3161 122.06 77.0148 121.233 77.0247 120.279L77.438 59.2773C77.4478 58.2539 76.6802 57.4568 75.7651 57.3191C75.834 57.3092 75.9127 57.3289 75.9815 57.3388C77.1428 57.5651 78.3433 57.8898 79.1994 58.7065C81.0691 60.5074 80.6164 63.2725 80.5967 65.5949Z" fill="#DDDDDB"/>
<path d="M80.5967 65.5949C80.5869 68.055 80.5672 70.525 80.5475 72.9851C80.5279 76.2522 80.5082 79.5192 80.4786 82.7862C80.459 86.4273 80.4295 90.0682 80.4098 93.7093C80.3803 97.2911 80.3606 100.873 80.3311 104.455C80.3114 107.555 80.2917 110.645 80.272 113.744C80.2523 115.919 80.2425 118.084 80.2228 120.259C80.2228 121.086 80.213 121.902 80.213 122.729C80.2031 123.693 79.5044 124.51 78.5499 124.658L45.6924 129.903C45.0922 130.001 44.3344 130.04 43.744 129.942C42.1033 129.686 41.1468 128.148 40.5557 126.596C40.9592 127.206 41.6972 127.58 42.5041 127.443L75.3518 122.207C76.3161 122.06 77.0148 121.233 77.0247 120.279L77.438 59.2773C77.4478 58.2539 76.6802 57.4568 75.7651 57.3191C75.834 57.3092 75.9127 57.3289 75.9815 57.3388C77.1428 57.5651 78.3433 57.8898 79.1994 58.7065C81.0691 60.5074 80.6164 63.2725 80.5967 65.5949Z" fill="#0D0D0D" fill-opacity="0.82"/>
<path d="M78.0355 59.28V59.3101L77.6155 121.3C77.6155 121.71 77.4855 122.1 77.2454 122.42C77.2155 122.48 77.1755 122.53 77.1255 122.59C76.8255 122.94 76.4055 123.19 75.9155 123.26C39.8526 129.015 42.229 128.761 41.6254 128.52C41.1719 128.39 40.7723 128.054 40.5554 127.72V127.71C40.3955 127.47 40.2855 127.21 40.2454 126.91V126.9C40.2454 126.88 40.2355 126.87 40.2355 126.85C40.1168 126.733 40.4738 124.822 40.7855 122.81C41.4755 122.59 42.1254 122.28 42.7155 121.87C46.395 119.404 45.8098 115.233 42.4255 112.48L42.5155 111.92C48.5858 113.053 51.459 113.68 53.0055 113.4C54.4255 113.27 55.8355 112.77 56.8455 111.78C57.4155 111.22 57.8455 110.45 57.7655 109.65C57.6011 108.129 55.6845 107.19 53.8355 106.22C49.9391 104.17 45.9367 102.878 44.0155 102.5C49.4865 67.9977 49.3213 68.9925 49.3555 68.89C49.464 68.5097 49.5877 68.258 49.8955 67.95C50.3833 67.4623 49.1834 68.1355 75.2855 57.4399C75.5355 57.3401 75.7855 57.29 76.0355 57.29C76.1355 57.29 76.2355 57.3 76.3355 57.3201C76.4255 57.3301 76.5155 57.35 76.6055 57.38C76.6355 57.39 76.6655 57.4 76.6955 57.4099C76.7955 57.45 76.8955 57.49 76.9855 57.54C77.0955 57.6 77.1854 57.6599 77.2755 57.73C77.3655 57.8 77.4555 57.88 77.5355 57.97C77.6055 58.0601 77.6755 58.15 77.7355 58.25C77.8655 58.45 77.9555 58.6699 77.9954 58.9199C78.0255 59.03 78.0355 59.15 78.0355 59.28Z" fill="#DDDDDB"/>
<path d="M78.0355 59.28V59.3101L77.6155 121.3C77.6155 121.71 77.4855 122.1 77.2454 122.42C77.2155 122.48 77.1755 122.53 77.1255 122.59C76.8255 122.94 76.4055 123.19 75.9155 123.26C39.8526 129.015 42.229 128.761 41.6254 128.52C41.1719 128.39 40.7723 128.054 40.5554 127.72V127.71C40.3955 127.47 40.2855 127.21 40.2454 126.91V126.9C40.2454 126.88 40.2355 126.87 40.2355 126.85C40.1168 126.733 40.4738 124.822 40.7855 122.81C41.4755 122.59 42.1254 122.28 42.7155 121.87C46.395 119.404 45.8098 115.233 42.4255 112.48L42.5155 111.92C48.5858 113.053 51.459 113.68 53.0055 113.4C54.4255 113.27 55.8355 112.77 56.8455 111.78C57.4155 111.22 57.8455 110.45 57.7655 109.65C57.6011 108.129 55.6845 107.19 53.8355 106.22C49.9391 104.17 45.9367 102.878 44.0155 102.5C49.4865 67.9977 49.3213 68.9925 49.3555 68.89C49.464 68.5097 49.5877 68.258 49.8955 67.95C50.3833 67.4623 49.1834 68.1355 75.2855 57.4399C75.5355 57.3401 75.7855 57.29 76.0355 57.29C76.1355 57.29 76.2355 57.3 76.3355 57.3201C76.4255 57.3301 76.5155 57.35 76.6055 57.38C76.6355 57.39 76.6655 57.4 76.6955 57.4099C76.7955 57.45 76.8955 57.49 76.9855 57.54C77.0955 57.6 77.1854 57.6599 77.2755 57.73C77.3655 57.8 77.4555 57.88 77.5355 57.97C77.6055 58.0601 77.6755 58.15 77.7355 58.25C77.8655 58.45 77.9555 58.6699 77.9954 58.9199C78.0255 59.03 78.0355 59.15 78.0355 59.28Z" fill="#0D0D0D" fill-opacity="0.32"/>
<path d="M42.5153 111.92L42.4254 112.48C43.0153 112.96 43.5454 113.51 43.9854 114.12L44.2854 112.25C43.6953 112.14 43.1054 112.03 42.5153 111.92ZM77.9953 58.9199C77.9553 58.6699 77.8654 58.45 77.7354 58.25C77.6754 58.15 77.6054 58.0601 77.5354 57.97C77.4553 57.88 77.3654 57.8 77.2753 57.73C77.1853 57.6599 77.0953 57.6 76.9854 57.54C76.8953 57.49 76.7954 57.45 76.6953 57.4099C76.6654 57.4 76.6353 57.39 76.6054 57.38C76.5153 57.35 76.4254 57.3301 76.3353 57.3201C76.2354 57.3 76.1353 57.29 76.0354 57.29C75.7854 57.29 75.5354 57.3401 75.2854 57.4399C49.202 68.1279 50.3841 67.4613 49.8953 67.95C49.6723 68.1732 49.516 68.3983 49.4154 68.7C49.2017 69.341 49.7261 66.6684 44.0053 102.5C44.1074 102.523 44.6664 102.616 45.8053 102.95L51.1553 70.1699C51.2354 69.73 51.5253 69.36 51.9453 69.2L58.5454 66.63C59.0827 66.4286 58.8991 65.7965 58.9154 65.6899C58.9154 65.4399 59.0553 65.22 59.2854 65.12L66.3953 62.11L66.5053 62.85L74.7653 59.78C75.5354 59.49 76.3353 60.01 76.4353 60.8C76.4553 60.86 76.4553 60.9299 76.4553 60.99L74.9553 119.77C74.9353 120.38 74.4953 120.87 73.9053 120.98C70.415 121.582 85.7666 118.935 43.6853 126.19C42.8453 126.34 42.1054 125.6 42.2453 124.75L42.7153 121.87C42.1253 122.28 41.4754 122.59 40.7854 122.81C40.5156 124.552 40.1108 126.727 40.2354 126.85C40.2354 126.87 40.2453 126.88 40.2453 126.9V126.91C40.3453 127.18 40.4453 127.44 40.5553 127.71V127.72C40.7725 128.054 41.1749 128.391 41.6253 128.52C42.47 128.858 42.2802 128.517 75.9154 123.26C76.4053 123.19 76.8253 122.94 77.1253 122.59C77.1754 122.53 77.2153 122.48 77.2453 122.42C77.4854 122.1 77.6154 121.71 77.6154 121.3L78.0354 59.3101V59.28C78.0354 59.15 78.0253 59.03 77.9953 58.9199Z" fill="#DDDDDB"/>
<path d="M42.5153 111.92L42.4254 112.48C43.0153 112.96 43.5454 113.51 43.9854 114.12L44.2854 112.25C43.6953 112.14 43.1054 112.03 42.5153 111.92ZM77.9953 58.9199C77.9553 58.6699 77.8654 58.45 77.7354 58.25C77.6754 58.15 77.6054 58.0601 77.5354 57.97C77.4553 57.88 77.3654 57.8 77.2753 57.73C77.1853 57.6599 77.0953 57.6 76.9854 57.54C76.8953 57.49 76.7954 57.45 76.6953 57.4099C76.6654 57.4 76.6353 57.39 76.6054 57.38C76.5153 57.35 76.4254 57.3301 76.3353 57.3201C76.2354 57.3 76.1353 57.29 76.0354 57.29C75.7854 57.29 75.5354 57.3401 75.2854 57.4399C49.202 68.1279 50.3841 67.4613 49.8953 67.95C49.6723 68.1732 49.516 68.3983 49.4154 68.7C49.2017 69.341 49.7261 66.6684 44.0053 102.5C44.1074 102.523 44.6664 102.616 45.8053 102.95L51.1553 70.1699C51.2354 69.73 51.5253 69.36 51.9453 69.2L58.5454 66.63C59.0827 66.4286 58.8991 65.7965 58.9154 65.6899C58.9154 65.4399 59.0553 65.22 59.2854 65.12L66.3953 62.11L66.5053 62.85L74.7653 59.78C75.5354 59.49 76.3353 60.01 76.4353 60.8C76.4553 60.86 76.4553 60.9299 76.4553 60.99L74.9553 119.77C74.9353 120.38 74.4953 120.87 73.9053 120.98C70.415 121.582 85.7666 118.935 43.6853 126.19C42.8453 126.34 42.1054 125.6 42.2453 124.75L42.7153 121.87C42.1253 122.28 41.4754 122.59 40.7854 122.81C40.5156 124.552 40.1108 126.727 40.2354 126.85C40.2354 126.87 40.2453 126.88 40.2453 126.9V126.91C40.3453 127.18 40.4453 127.44 40.5553 127.71V127.72C40.7725 128.054 41.1749 128.391 41.6253 128.52C42.47 128.858 42.2802 128.517 75.9154 123.26C76.4053 123.19 76.8253 122.94 77.1253 122.59C77.1754 122.53 77.2153 122.48 77.2453 122.42C77.4854 122.1 77.6154 121.71 77.6154 121.3L78.0354 59.3101V59.28C78.0354 59.15 78.0253 59.03 77.9953 58.9199Z" fill="#0D0D0D" fill-opacity="0.82"/>
<path d="M45.666 135.13C50.598 138.431 50.8606 137.793 49.766 141.025C49.4461 141.97 49.0136 142.872 48.5199 143.738C48.0763 144.515 47.5433 145.692 46.8408 146.263C46.091 146.872 45.3249 146.147 44.5861 145.843C39.1857 143.621 34.7104 141.572 29.1081 138.958C28.3302 138.595 27.5525 138.232 26.7749 137.868C24.9449 137.012 23.094 136.149 21.4528 134.958C20.4342 134.218 20.3152 134.028 20.7516 132.855C21.1114 131.888 21.5403 130.948 22.0476 130.049C22.6412 128.997 23.2537 127.76 24.3369 127.129C25.4539 126.478 26.9418 126.916 28.1326 127.127C35.8377 128.494 40.0712 131.384 45.666 135.13Z" fill="#B39DDB"/>
<path d="M45.666 135.13C50.598 138.431 50.8606 137.793 49.766 141.025C49.4461 141.97 49.0136 142.872 48.5199 143.738C48.0763 144.515 47.5433 145.692 46.8408 146.263C46.091 146.872 45.3249 146.147 44.5861 145.843C39.1857 143.621 34.7104 141.572 29.1081 138.958C28.3302 138.595 27.5525 138.232 26.7749 137.868C24.9449 137.012 23.094 136.149 21.4528 134.958C20.4342 134.218 20.3152 134.028 20.7516 132.855C21.1114 131.888 21.5403 130.948 22.0476 130.049C22.6412 128.997 23.2537 127.76 24.3369 127.129C25.4539 126.478 26.9418 126.916 28.1326 127.127C35.8377 128.494 40.0712 131.384 45.666 135.13Z" fill="white" fill-opacity="0.32"/>
<path d="M46.6061 135.801C46.5587 135.801 46.5109 135.788 46.4684 135.76C41.1862 132.28 35.4493 129.548 29.4181 127.64C25.17 126.296 23.8166 126.89 21.2662 132.643C21.0646 133.099 20.8683 133.584 20.88 134.068C20.8879 134.385 20.3898 134.429 20.38 134.08C20.3663 133.493 20.5846 132.948 20.8092 132.441C23.2101 127.022 24.5954 125.589 29.569 127.163C35.6442 129.085 41.4225 131.837 46.7438 135.342C46.9494 135.478 46.8547 135.801 46.6061 135.801Z" fill="#DDDDDB"/>
<path d="M46.6061 135.801C46.5587 135.801 46.5109 135.788 46.4684 135.76C41.1862 132.28 35.4493 129.548 29.4181 127.64C25.17 126.296 23.8166 126.89 21.2662 132.643C21.0646 133.099 20.8683 133.584 20.88 134.068C20.8879 134.385 20.3898 134.429 20.38 134.08C20.3663 133.493 20.5846 132.948 20.8092 132.441C23.2101 127.022 24.5954 125.589 29.569 127.163C35.6442 129.085 41.4225 131.837 46.7438 135.342C46.9494 135.478 46.8547 135.801 46.6061 135.801Z" fill="#0D0D0D" fill-opacity="0.82"/>
<path d="M65.7554 112.28C63.5254 113.02 61.1954 113.46 58.8754 113.77C56.8371 114.045 54.1412 115.026 53.0054 113.4C54.4254 113.27 55.8354 112.77 56.8454 111.78C57.4154 111.22 57.8454 110.45 57.7654 109.65C57.601 108.129 55.6845 107.19 53.8354 106.22C54.8628 105.861 59.4514 104.816 64.3054 104.48C64.9135 104.445 65.6228 104.407 66.1054 104.83C67.1554 105.76 66.8554 108.6 67.0254 109.76C67.2768 111.495 66.8355 111.909 65.7554 112.28Z" fill="#DDDDDB"/>
<path d="M65.7554 112.28C63.5254 113.02 61.1954 113.46 58.8754 113.77C56.8371 114.045 54.1412 115.026 53.0054 113.4C54.4254 113.27 55.8354 112.77 56.8454 111.78C57.4154 111.22 57.8454 110.45 57.7654 109.65C57.601 108.129 55.6845 107.19 53.8354 106.22C54.8628 105.861 59.4514 104.816 64.3054 104.48C64.9135 104.445 65.6228 104.407 66.1054 104.83C67.1554 105.76 66.8554 108.6 67.0254 109.76C67.2768 111.495 66.8355 111.909 65.7554 112.28Z" fill="#0D0D0D" fill-opacity="0.82"/>
<path d="M26.3711 127.715C27.7889 121.331 29.4406 117.568 30.8301 113.988C31.2754 112.842 31.6963 111.76 32.3487 110.625C34.295 107.265 36.9325 103.41 40.6426 102.28C41.5845 102.002 42.6983 101.993 44.0528 102.254C46.7551 102.776 51.7782 104.637 55.773 107.005C56.8077 107.619 57.8829 108.41 58.0137 109.623C58.0928 110.411 57.7305 111.261 57.0206 111.958C55.915 113.042 54.3641 113.567 52.8087 113.671C52.5964 113.659 51.8501 113.905 48.1094 113.205C47.3026 113.055 48.0502 113.192 42.4346 112.159C46.6121 115.608 46.2376 119.809 42.8545 122.077C40.8257 123.488 38.5255 123.438 38.6255 123.42C38.2972 123.42 38.2932 122.924 38.6221 122.92C40.0748 122.9 41.5069 122.405 42.5728 121.664C46.499 119.032 45.2848 114.501 41.2505 111.92C41.15 111.856 41.1089 111.729 41.1529 111.618C41.1963 111.507 41.3072 111.441 41.4307 111.463C49.0598 112.883 51.5602 113.412 52.9605 113.153C54.4815 113.013 55.7911 112.463 56.6705 111.601C57.2715 111.011 57.5801 110.309 57.5167 109.674C57.4097 108.683 56.4463 107.986 55.5181 107.435C51.5937 105.11 46.6644 103.277 43.9669 102.745C42.6846 102.499 41.6475 102.504 40.7867 102.759C37.2209 103.844 34.6433 107.661 32.7818 110.875C32.1485 111.977 31.7344 113.042 31.2964 114.17C29.977 117.564 28.333 121.184 26.8594 127.824C26.788 128.146 26.2996 128.039 26.3711 127.715Z" fill="#DDDDDB"/>
<path d="M55.4797 101.605C53.9734 101.605 52.7136 101.126 51.8391 100.2C47.9291 96.0584 54.0712 86.3589 61.5007 84.7887C63.7771 84.3087 65.6829 84.7404 66.8757 86.0021C69.304 88.5744 67.907 93.8512 63.7615 97.7653C61.5707 99.8337 58.4666 101.605 55.4797 101.605ZM61.6042 85.278C54.4218 86.7967 48.6431 96.0866 52.2024 99.8571C53.2717 100.988 55.0139 101.367 57.1106 100.924C59.2512 100.472 61.4915 99.2208 63.4177 97.402C69.6485 91.519 68.7083 83.7795 61.6042 85.278Z" fill="#DDDDDB"/>
<path d="M55.4797 101.605C53.9734 101.605 52.7136 101.126 51.8391 100.2C47.9291 96.0584 54.0712 86.3589 61.5007 84.7887C63.7771 84.3087 65.6829 84.7404 66.8757 86.0021C69.304 88.5744 67.907 93.8512 63.7615 97.7653C61.5707 99.8337 58.4666 101.605 55.4797 101.605ZM61.6042 85.278C54.4218 86.7967 48.6431 96.0866 52.2024 99.8571C53.2717 100.988 55.0139 101.367 57.1106 100.924C59.2512 100.472 61.4915 99.2208 63.4177 97.402C69.6485 91.519 68.7083 83.7795 61.6042 85.278Z" fill="#0D0D0D" fill-opacity="0.82"/>
<path d="M51.7455 95.5916C56.7914 95.9371 63.0721 91.6451 64.7802 86.8544C65.7049 84.2611 64.7973 82.3926 63.1792 80.3246C63.0511 80.1609 62.9156 79.9964 62.7368 79.8903C62.1797 79.5595 61.9279 80.066 61.7492 80.2151C61.3456 80.5517 60.2738 80.2587 59.7563 80.2784C58.9865 80.3077 58.2214 80.4342 57.4761 80.6264C53.3627 81.6876 49.1705 85.0337 47.7041 88.7923C47.4268 89.5031 47.4199 90.2776 46.6385 90.6581C46.4978 90.7266 46.337 90.782 46.2532 90.9142C46.1311 91.107 46.2314 91.3589 46.3393 91.5599C47.5298 93.7776 49.234 95.4196 51.7455 95.5916Z" fill="#DDDDDB"/>
<path d="M51.7455 95.5916C56.7914 95.9371 63.0721 91.6451 64.7802 86.8544C65.7049 84.2611 64.7973 82.3926 63.1792 80.3246C63.0511 80.1609 62.9156 79.9964 62.7368 79.8903C62.1797 79.5595 61.9279 80.066 61.7492 80.2151C61.3456 80.5517 60.2738 80.2587 59.7563 80.2784C58.9865 80.3077 58.2214 80.4342 57.4761 80.6264C53.3627 81.6876 49.1705 85.0337 47.7041 88.7923C47.4268 89.5031 47.4199 90.2776 46.6385 90.6581C46.4978 90.7266 46.337 90.782 46.2532 90.9142C46.1311 91.107 46.2314 91.3589 46.3393 91.5599C47.5298 93.7776 49.234 95.4196 51.7455 95.5916Z" fill="#0D0D0D" fill-opacity="0.82"/>
<path d="M58.4066 91.1147C62.9812 87.9325 65.1134 83.0869 63.1691 80.2919C61.2247 77.4968 55.9401 77.8107 51.3655 80.9929C46.7909 84.1752 44.6587 89.0207 46.6031 91.8158C48.5474 94.6109 53.8321 94.297 58.4066 91.1147Z" fill="#B39DDB"/>
<path d="M58.4066 91.1147C62.9812 87.9325 65.1134 83.0869 63.1691 80.2919C61.2247 77.4968 55.9401 77.8107 51.3655 80.9929C46.7909 84.1752 44.6587 89.0207 46.6031 91.8158C48.5474 94.6109 53.8321 94.297 58.4066 91.1147Z" fill="white" fill-opacity="0.32"/>
<path d="M60.8957 74.8078C60.8912 74.3547 60.8867 73.9016 60.8821 73.4485C60.8678 72.0118 60.1119 73.0391 59.5908 72.6738C59.0139 72.2695 59.7404 71.6633 56.7629 70.299C50.9255 67.6243 43.5253 69.8117 42.0312 72.2411C41.8331 72.5632 41.6743 72.827 41.2012 72.6946C41.1052 72.6678 41.01 72.6255 40.9105 72.6319C40.4356 72.6628 40.4554 73.4899 40.4684 73.9466C40.4776 74.2682 40.4788 74.5911 40.4959 74.9123C40.9683 83.7737 60.9808 83.3268 60.8957 74.8078Z" fill="#DDDDDB"/>
<path d="M60.8957 74.8078C60.8912 74.3547 60.8867 73.9016 60.8821 73.4485C60.8678 72.0118 60.1119 73.0391 59.5908 72.6738C59.0139 72.2695 59.7404 71.6633 56.7629 70.299C50.9255 67.6243 43.5253 69.8117 42.0312 72.2411C41.8331 72.5632 41.6743 72.827 41.2012 72.6946C41.1052 72.6678 41.01 72.6255 40.9105 72.6319C40.4356 72.6628 40.4554 73.4899 40.4684 73.9466C40.4776 74.2682 40.4788 74.5911 40.4959 74.9123C40.9683 83.7737 60.9808 83.3268 60.8957 74.8078Z" fill="#0D0D0D" fill-opacity="0.82"/>
<path d="M50.7153 79.1052C56.2879 79.0932 60.7994 76.3234 60.7921 72.9185C60.7848 69.5137 56.2614 66.7633 50.6889 66.7752C45.1163 66.7872 40.6048 69.557 40.6121 72.9619C40.6194 76.3667 45.1428 79.1172 50.7153 79.1052Z" fill="#B39DDB"/>
<path d="M50.7153 79.1052C56.2879 79.0932 60.7994 76.3234 60.7921 72.9185C60.7848 69.5137 56.2614 66.7633 50.6889 66.7752C45.1163 66.7872 40.6048 69.557 40.6121 72.9619C40.6194 76.3667 45.1428 79.1172 50.7153 79.1052Z" fill="white" fill-opacity="0.32"/>
<path d="M39.9128 63.4933C39.6395 63.8065 39.2125 63.9787 38.7985 63.9428C38.7395 63.9377 38.6765 63.9294 38.6243 63.9572C38.4039 64.0748 38.4199 64.8629 38.4311 65.1134C38.4832 66.2754 38.5122 67.3704 39.1359 68.3865C42.4435 73.7757 55.3119 73.2864 58.2041 67.6549C58.8184 66.4587 58.7184 65.0046 58.6816 63.6962C58.6757 63.4873 58.6407 63.2367 58.4504 63.1502C58.0886 62.9857 57.7295 63.4829 57.3699 63.1666C56.9161 62.7677 57.5029 62.1507 54.5736 60.8993C47.5023 57.8782 37.9696 61.5789 38.5312 66.6728" fill="#DDDDDB"/>
<path d="M39.9128 63.4933C39.6395 63.8065 39.2125 63.9787 38.7985 63.9428C38.7395 63.9377 38.6765 63.9294 38.6243 63.9572C38.4039 64.0748 38.4199 64.8629 38.4311 65.1134C38.4832 66.2754 38.5122 67.3704 39.1359 68.3865C42.4435 73.7757 55.3119 73.2864 58.2041 67.6549C58.8184 66.4587 58.7184 65.0046 58.6816 63.6962C58.6757 63.4873 58.6407 63.2367 58.4504 63.1502C58.0886 62.9857 57.7295 63.4829 57.3699 63.1666C56.9161 62.7677 57.5029 62.1507 54.5736 60.8993C47.5023 57.8782 37.9696 61.5789 38.5312 66.6728" fill="#0D0D0D" fill-opacity="0.82"/>
<path d="M48.7432 69.8755C54.3116 69.6603 58.7191 66.7278 58.5876 63.3255C58.4561 59.9232 53.8354 57.3395 48.267 57.5547C42.6986 57.7699 38.2912 60.7024 38.4226 64.1047C38.5541 67.507 43.1748 70.0907 48.7432 69.8755Z" fill="#B39DDB"/>
<path d="M48.7432 69.8755C54.3116 69.6603 58.7191 66.7278 58.5876 63.3255C58.4561 59.9232 53.8354 57.3395 48.267 57.5547C42.6986 57.7699 38.2912 60.7024 38.4226 64.1047C38.5541 67.507 43.1748 70.0907 48.7432 69.8755Z" fill="white" fill-opacity="0.32"/>
<path d="M40.1914 53.5421C43.7026 57.9055 51.6419 59.9672 57.0008 58.1225C59.4056 57.2946 61.0263 55.4929 62.0382 53.1928C62.2325 52.7513 62.3893 52.2793 62.3696 51.7974C62.347 51.2469 62.0855 51.1835 61.7734 51.1195C60.6715 50.8937 60.4286 50.3662 59.9771 49.4959C59.5445 48.662 58.6463 47.9639 57.913 47.404C54.5008 44.7991 49.4836 43.568 45.3432 44.1363C44.3989 44.2659 43.5231 44.5286 42.6222 44.825C42.0181 45.0237 40.7575 44.8031 40.3339 45.1844C40.23 45.2779 40.1679 45.408 40.1095 45.535C38.7842 48.4161 37.62 50.3464 40.1914 53.5421Z" fill="#DDDDDB"/>
<path d="M40.1914 53.5421C43.7026 57.9055 51.6419 59.9672 57.0008 58.1225C59.4056 57.2946 61.0263 55.4929 62.0382 53.1928C62.2325 52.7513 62.3893 52.2793 62.3696 51.7974C62.347 51.2469 62.0855 51.1835 61.7734 51.1195C60.6715 50.8937 60.4286 50.3662 59.9771 49.4959C59.5445 48.662 58.6463 47.9639 57.913 47.404C54.5008 44.7991 49.4836 43.568 45.3432 44.1363C44.3989 44.2659 43.5231 44.5286 42.6222 44.825C42.0181 45.0237 40.7575 44.8031 40.3339 45.1844C40.23 45.2779 40.1679 45.408 40.1095 45.535C38.7842 48.4161 37.62 50.3464 40.1914 53.5421Z" fill="#0D0D0D" fill-opacity="0.82"/>
<path d="M62.3556 52.1474C63.4212 48.3915 59.3017 43.9329 53.1544 42.1887C47.0072 40.4446 41.1599 42.0754 40.0943 45.8313C39.0287 49.5871 43.1482 54.0457 49.2955 55.7899C55.4427 57.534 61.29 55.9032 62.3556 52.1474Z" fill="#B39DDB"/>
<path d="M62.3556 52.1474C63.4212 48.3915 59.3017 43.9329 53.1544 42.1887C47.0072 40.4446 41.1599 42.0754 40.0943 45.8313C39.0287 49.5871 43.1482 54.0457 49.2955 55.7899C55.4427 57.534 61.29 55.9032 62.3556 52.1474Z" fill="white" fill-opacity="0.32"/>
<path d="M140.332 87.5098H107.363C105.621 87.5098 104.21 86.0979 104.21 84.3563C104.21 60.7784 104.324 68.8758 104.276 67.131C104.26 66.5567 104.158 65.9835 104.235 65.4092C104.197 65.6905 105.698 65.7864 105.871 65.7713C106.409 65.7241 106.801 65.4286 107.363 65.4286H140.332C140.776 65.4286 141.271 65.5125 141.667 65.7243C141.931 65.8657 142.131 66.2067 142.464 66.1537C142.972 66.0728 143.011 65.4552 143.279 65.537C143.55 67.174 143.485 66.9571 143.485 84.3563C143.485 86.0979 142.073 87.5098 140.332 87.5098Z" fill="#DDDDDB"/>
<path d="M140.332 87.5098H107.363C105.621 87.5098 104.21 86.0979 104.21 84.3563C104.21 60.7784 104.324 68.8758 104.276 67.131C104.26 66.5567 104.158 65.9835 104.235 65.4092C104.197 65.6905 105.698 65.7864 105.871 65.7713C106.409 65.7241 106.801 65.4286 107.363 65.4286H140.332C140.776 65.4286 141.271 65.5125 141.667 65.7243C141.931 65.8657 142.131 66.2067 142.464 66.1537C142.972 66.0728 143.011 65.4552 143.279 65.537C143.55 67.174 143.485 66.9571 143.485 84.3563C143.485 86.0979 142.073 87.5098 140.332 87.5098Z" fill="#0D0D0D" fill-opacity="0.64"/>
<path d="M141.365 56.5198C129.545 55.9997 117.865 55.9897 106.325 56.5198C105.235 56.5198 104.345 57.4096 104.345 58.4997V65.3298C104.345 66.4197 105.235 67.3098 106.325 67.3098C117.585 67.7798 129.305 67.7397 141.365 67.3098C142.465 67.3098 143.355 66.4197 143.355 65.3298V58.4997C143.355 57.4096 142.465 56.5198 141.365 56.5198ZM134.685 61.7597C134.685 62.1097 134.405 62.3897 134.055 62.3897H115.725C115.375 62.3897 115.085 62.1097 115.085 61.7597V60.0898C115.085 59.7397 115.365 59.4597 115.705 59.4597C118.645 59.4297 131.135 59.4597 134.065 59.4697C134.415 59.4697 134.685 59.7497 134.685 60.0997V61.7597Z" fill="#DDDDDB"/>
<path d="M141.365 56.5198C129.545 55.9997 117.865 55.9897 106.325 56.5198C105.235 56.5198 104.345 57.4096 104.345 58.4997V65.3298C104.345 66.4197 105.235 67.3098 106.325 67.3098C117.585 67.7798 129.305 67.7397 141.365 67.3098C142.465 67.3098 143.355 66.4197 143.355 65.3298V58.4997C143.355 57.4096 142.465 56.5198 141.365 56.5198ZM134.685 61.7597C134.685 62.1097 134.405 62.3897 134.055 62.3897H115.725C115.375 62.3897 115.085 62.1097 115.085 61.7597V60.0898C115.085 59.7397 115.365 59.4597 115.705 59.4597C118.645 59.4297 131.135 59.4597 134.065 59.4697C134.415 59.4697 134.685 59.7497 134.685 60.0997V61.7597Z" fill="#0D0D0D" fill-opacity="0.64"/>
<path d="M134.689 60.6488V62.3946H115.09V60.6488C115.216 60.6173 134.689 60.6488 134.689 60.6488Z" fill="#DDDDDB"/>
<path d="M134.689 60.6488V62.3946H115.09V60.6488C115.216 60.6173 134.689 60.6488 134.689 60.6488Z" fill="#0D0D0D" fill-opacity="0.82"/>
<path d="M124.518 42.0267C125.061 40.6967 125.631 39.2311 125.824 37.8005C125.907 37.1833 126.147 36.5942 126.254 35.977C126.829 32.6756 127.598 28.6487 124.405 27.778C123.575 27.5518 123.25 27.4406 122.905 27.4627C122.63 27.4804 122.347 27.6056 122.211 27.8451C122.075 28.0849 122.111 28.3829 122.039 28.649C121.906 29.1427 121.485 29.4903 121.178 29.8689C120.788 30.3491 120.48 30.8966 120.172 31.4337C118.603 34.1667 117.171 37.6261 116.957 40.8117C116.731 44.1693 117.473 44.0947 116.855 45.2674C116.756 45.4545 116.637 45.6542 116.674 45.8625C116.729 46.1747 117.087 46.3176 117.391 46.405C118.932 46.8465 120.523 47.2414 121.843 46.1154C123.062 45.0756 123.908 43.5215 124.518 42.0267Z" fill="#DDDDDB"/>
<path d="M124.518 42.0267C125.061 40.6967 125.631 39.2311 125.824 37.8005C125.907 37.1833 126.147 36.5942 126.254 35.977C126.829 32.6756 127.598 28.6487 124.405 27.778C123.575 27.5518 123.25 27.4406 122.905 27.4627C122.63 27.4804 122.347 27.6056 122.211 27.8451C122.075 28.0849 122.111 28.3829 122.039 28.649C121.906 29.1427 121.485 29.4903 121.178 29.8689C120.788 30.3491 120.48 30.8966 120.172 31.4337C118.603 34.1667 117.171 37.6261 116.957 40.8117C116.731 44.1693 117.473 44.0947 116.855 45.2674C116.756 45.4545 116.637 45.6542 116.674 45.8625C116.729 46.1747 117.087 46.3176 117.391 46.405C118.932 46.8465 120.523 47.2414 121.843 46.1154C123.062 45.0756 123.908 43.5215 124.518 42.0267Z" fill="#0D0D0D" fill-opacity="0.82"/>
<path d="M112.974 38.6238C113.991 36.324 114.838 33.9127 115.044 31.4063C115.251 28.9 114.769 26.2741 113.323 24.2166C112.727 23.3683 112.124 23.1805 111.24 22.749C110.699 22.4854 110.057 22.1068 109.485 22.4564C109.293 22.5735 109.159 22.7618 109.013 22.9318C108.049 24.0504 106.734 24.7711 105.818 25.9697C103.057 29.583 102.929 34.2698 103.8 38.7564C104.045 40.0179 104.764 40.3844 104.25 41.8791C104.153 42.1614 104.154 42.351 104.624 42.5101C105.608 42.8431 106.761 43.2222 107.808 43.2467C108.696 43.2674 109.623 42.7915 110.327 42.2763C111.559 41.3755 112.367 39.9953 112.974 38.6238Z" fill="#DDDDDB"/>
<path d="M112.974 38.6238C113.991 36.324 114.838 33.9127 115.044 31.4063C115.251 28.9 114.769 26.2741 113.323 24.2166C112.727 23.3683 112.124 23.1805 111.24 22.749C110.699 22.4854 110.057 22.1068 109.485 22.4564C109.293 22.5735 109.159 22.7618 109.013 22.9318C108.049 24.0504 106.734 24.7711 105.818 25.9697C103.057 29.583 102.929 34.2698 103.8 38.7564C104.045 40.0179 104.764 40.3844 104.25 41.8791C104.153 42.1614 104.154 42.351 104.624 42.5101C105.608 42.8431 106.761 43.2222 107.808 43.2467C108.696 43.2674 109.623 42.7915 110.327 42.2763C111.559 41.3755 112.367 39.9953 112.974 38.6238Z" fill="#0D0D0D" fill-opacity="0.82"/>
<path d="M83.6845 37.5861C83.848 37.7388 84.0535 37.719 84.1641 37.9655C84.279 38.2216 84.2737 38.996 84.2912 39.7695C84.3003 40.1713 84.1101 40.837 84.6616 40.9522C84.7929 40.9797 84.929 40.9613 85.0619 40.9426C85.9632 40.8157 87.5921 40.6622 88.04 39.718C88.3713 39.0199 88.3823 38.1246 88.3771 37.3701C88.342 32.2461 85.1464 24.1511 82.3334 22C81.4553 21.3285 80.4177 21.696 78.8809 22.0012C78.5705 22.0628 78.2499 22.1287 77.9918 22.3118C77.7337 22.4948 77.5547 22.8292 77.6509 23.1306C77.7951 23.5822 78.3743 23.6739 79.4833 24.9516C80.0465 25.6004 79.9105 27.194 80.0722 28.0383C81.0013 32.8897 83.3339 37.2586 83.6845 37.5861Z" fill="#DDDDDB"/>
<path d="M83.6845 37.5861C83.848 37.7388 84.0535 37.719 84.1641 37.9655C84.279 38.2216 84.2737 38.996 84.2912 39.7695C84.3003 40.1713 84.1101 40.837 84.6616 40.9522C84.7929 40.9797 84.929 40.9613 85.0619 40.9426C85.9632 40.8157 87.5921 40.6622 88.04 39.718C88.3713 39.0199 88.3823 38.1246 88.3771 37.3701C88.342 32.2461 85.1464 24.1511 82.3334 22C81.4553 21.3285 80.4177 21.696 78.8809 22.0012C78.5705 22.0628 78.2499 22.1287 77.9918 22.3118C77.7337 22.4948 77.5547 22.8292 77.6509 23.1306C77.7951 23.5822 78.3743 23.6739 79.4833 24.9516C80.0465 25.6004 79.9105 27.194 80.0722 28.0383C81.0013 32.8897 83.3339 37.2586 83.6845 37.5861Z" fill="#0D0D0D" fill-opacity="0.82"/>
<path d="M54.3311 29.9883C51.9417 31.5499 57.1844 41.7968 62.1582 45.6828C63.6647 46.8598 65.0727 47.2917 66.7505 46.0604C67.0043 45.8742 66.8984 45.64 66.6857 45.4058C65.6065 44.2172 65.8895 44.585 65.4739 43.1287C64.3973 39.3566 61.0403 34.0884 57.8692 31.372C57.4214 30.9884 56.8269 30.7165 56.6256 30.1335C56.3362 29.2949 56.4563 28.973 55.646 29.3311C55.1994 29.5284 54.7397 29.7213 54.3311 29.9883Z" fill="#DDDDDB"/>
<path d="M54.3311 29.9883C51.9417 31.5499 57.1844 41.7968 62.1582 45.6828C63.6647 46.8598 65.0727 47.2917 66.7505 46.0604C67.0043 45.8742 66.8984 45.64 66.6857 45.4058C65.6065 44.2172 65.8895 44.585 65.4739 43.1287C64.3973 39.3566 61.0403 34.0884 57.8692 31.372C57.4214 30.9884 56.8269 30.7165 56.6256 30.1335C56.3362 29.2949 56.4563 28.973 55.646 29.3311C55.1994 29.5284 54.7397 29.7213 54.3311 29.9883Z" fill="#0D0D0D" fill-opacity="0.82"/>
<path d="M67.1762 45.9035C68.5849 44.9829 67.2813 40.4944 64.2645 35.8782C61.2478 31.262 57.6602 28.2661 56.2516 29.1866C54.8429 30.1072 56.1465 34.5957 59.1632 39.2119C62.18 43.8282 65.7675 46.8241 67.1762 45.9035Z" fill="#B39DDB"/>
<path d="M67.1762 45.9035C68.5849 44.9829 67.2813 40.4944 64.2645 35.8782C61.2478 31.262 57.6602 28.2661 56.2516 29.1866C54.8429 30.1072 56.1465 34.5957 59.1632 39.2119C62.18 43.8282 65.7675 46.8241 67.1762 45.9035Z" fill="white" fill-opacity="0.32"/>
<path d="M84.9854 41.0779C86.9695 40.4065 87.1363 35.6018 85.3579 30.3463C83.5796 25.0908 80.5294 21.3746 78.5453 22.046C76.5611 22.7174 76.3943 27.5222 78.1727 32.7777C79.9511 38.0332 83.0012 41.7493 84.9854 41.0779Z" fill="#B39DDB"/>
<path d="M84.9854 41.0779C86.9695 40.4065 87.1363 35.6018 85.3579 30.3463C83.5796 25.0908 80.5294 21.3746 78.5453 22.046C76.5611 22.7174 76.3943 27.5222 78.1727 32.7777C79.9511 38.0332 83.0012 41.7493 84.9854 41.0779Z" fill="white" fill-opacity="0.32"/>
<path d="M72.4777 40.1845C72.6695 40.4783 72.8124 40.3478 72.9406 41.1378C73.2927 43.3076 73.1007 43.8876 73.789 43.9383C75.5915 44.0711 75.8187 43.7458 75.4513 40.8616C74.7712 35.5228 71.6949 26.5056 69.6156 23.723C68.9946 22.8921 68.4503 23.0366 67.4076 23.0609C67.217 23.0653 67.0204 23.0723 66.8788 23.213C66.7372 23.3537 66.6655 23.6668 66.7657 23.9986C66.8419 24.2509 66.9941 24.4521 67.1345 24.6418C68.897 27.0226 68.4308 27.3645 68.9434 29.5654C70.0787 34.4396 72.1402 39.6675 72.4777 40.1845Z" fill="#DDDDDB"/>
<path d="M72.4777 40.1845C72.6695 40.4783 72.8124 40.3478 72.9406 41.1378C73.2927 43.3076 73.1007 43.8876 73.789 43.9383C75.5915 44.0711 75.8187 43.7458 75.4513 40.8616C74.7712 35.5228 71.6949 26.5056 69.6156 23.723C68.9946 22.8921 68.4503 23.0366 67.4076 23.0609C67.217 23.0653 67.0204 23.0723 66.8788 23.213C66.7372 23.3537 66.6655 23.6668 66.7657 23.9986C66.8419 24.2509 66.9941 24.4521 67.1345 24.6418C68.897 27.0226 68.4308 27.3645 68.9434 29.5654C70.0787 34.4396 72.1402 39.6675 72.4777 40.1845Z" fill="#0D0D0D" fill-opacity="0.82"/>
<path d="M73.3579 44.1698C74.3013 43.8743 73.5927 38.9308 71.7753 33.1281C69.9578 27.3254 67.7197 22.8609 66.7763 23.1564C65.8329 23.4519 66.5415 28.3954 68.3589 34.1981C70.1764 40.0008 72.4145 44.4653 73.3579 44.1698Z" fill="#B39DDB"/>
<path d="M73.3579 44.1698C74.3013 43.8743 73.5927 38.9308 71.7753 33.1281C69.9578 27.3254 67.7197 22.8609 66.7763 23.1564C65.8329 23.4519 66.5415 28.3954 68.3589 34.1981C70.1764 40.0008 72.4145 44.4653 73.3579 44.1698Z" fill="white" fill-opacity="0.32"/>
<path d="M94.6365 29.7615C94.7346 31.1216 94.8851 32.4802 95.1004 33.8241C95.1616 34.2062 95.4996 36.1375 95.6097 36.3732C95.7595 36.6939 95.9903 36.5988 95.8964 37.4004C95.8392 37.889 95.7624 38.3717 95.6901 38.8528C95.5902 39.5164 95.2875 40.1621 96.0745 40.3224C98.2228 40.7601 98.747 40.6769 99.248 37.5971C100.121 32.2289 99.1118 22.7411 97.3224 19.5946C96.7882 18.6552 96.0258 18.6982 94.6734 18.5285C94.4244 18.4973 94.1668 18.4674 93.9365 18.5798C93.7063 18.6922 93.5099 18.9878 93.5305 19.3339C93.5615 19.8527 93.99 20.1285 94.6151 21.8119C95.0585 23.0056 94.205 23.7753 94.6365 29.7615Z" fill="#DDDDDB"/>
<path d="M94.6365 29.7615C94.7346 31.1216 94.8851 32.4802 95.1004 33.8241C95.1616 34.2062 95.4996 36.1375 95.6097 36.3732C95.7595 36.6939 95.9903 36.5988 95.8964 37.4004C95.8392 37.889 95.7624 38.3717 95.6901 38.8528C95.5902 39.5164 95.2875 40.1621 96.0745 40.3224C98.2228 40.7601 98.747 40.6769 99.248 37.5971C100.121 32.2289 99.1118 22.7411 97.3224 19.5946C96.7882 18.6552 96.0258 18.6982 94.6734 18.5285C94.4244 18.4973 94.1668 18.4674 93.9365 18.5798C93.7063 18.6922 93.5099 18.9878 93.5305 19.3339C93.5615 19.8527 93.99 20.1285 94.6151 21.8119C95.0585 23.0056 94.205 23.7753 94.6365 29.7615Z" fill="#0D0D0D" fill-opacity="0.82"/>
<path d="M95.4299 40.4717C96.7535 40.3752 97.468 35.3793 97.0257 29.3131C96.5835 23.2469 95.1519 18.4075 93.8283 18.504C92.5047 18.6005 91.7902 23.5963 92.2325 29.6626C92.6747 35.7288 94.1063 40.5682 95.4299 40.4717Z" fill="#B39DDB"/>
<path d="M95.4299 40.4717C96.7535 40.3752 97.468 35.3793 97.0257 29.3131C96.5835 23.2469 95.1519 18.4075 93.8283 18.504C92.5047 18.6005 91.7902 23.5963 92.2325 29.6626C92.6747 35.7288 94.1063 40.5682 95.4299 40.4717Z" fill="white" fill-opacity="0.32"/>
<path d="M111.092 38.1515C112.109 35.8517 112.956 33.4404 113.163 30.9341C113.51 26.7157 111.73 23.5135 110.42 22.703C109.317 22.02 107.857 22.3819 106.728 23.0226C104.248 24.4306 102.591 27.0333 101.893 29.7983C101.195 32.5633 101.375 35.4847 101.918 38.2842C102.267 40.0819 103.177 42.6642 105.37 42.7405C108.326 42.8433 110.012 40.5924 111.092 38.1515Z" fill="#B39DDB"/>
<path d="M111.092 38.1515C112.109 35.8517 112.956 33.4404 113.163 30.9341C113.51 26.7157 111.73 23.5135 110.42 22.703C109.317 22.02 107.857 22.3819 106.728 23.0226C104.248 24.4306 102.591 27.0333 101.893 29.7983C101.195 32.5633 101.375 35.4847 101.918 38.2842C102.267 40.0819 103.177 42.6642 105.37 42.7405C108.326 42.8433 110.012 40.5924 111.092 38.1515Z" fill="white" fill-opacity="0.32"/>
<path d="M121.988 41.1169C122.53 39.7869 123.101 38.3213 123.294 36.8907C123.377 36.2735 123.616 35.6844 123.724 35.0672C124.287 31.8284 125.077 27.0593 121.758 27.0841C120.903 27.0905 120.053 27.4201 119.418 27.9926C118.035 29.2378 114.743 35.1976 114.426 39.9019C114.326 41.4002 114.313 45.413 116.147 46.001C118.843 46.8653 120.922 43.729 121.988 41.1169Z" fill="#B39DDB"/>
<path d="M121.988 41.1169C122.53 39.7869 123.101 38.3213 123.294 36.8907C123.377 36.2735 123.616 35.6844 123.724 35.0672C124.287 31.8284 125.077 27.0593 121.758 27.0841C120.903 27.0905 120.053 27.4201 119.418 27.9926C118.035 29.2378 114.743 35.1976 114.426 39.9019C114.326 41.4002 114.313 45.413 116.147 46.001C118.843 46.8653 120.922 43.729 121.988 41.1169Z" fill="white" fill-opacity="0.32"/>
<path d="M131.408 53.5408C131.973 52.4699 132.572 51.2875 132.851 50.1033C132.972 49.5924 133.221 49.118 133.362 48.6091C134.116 45.8871 135.094 42.5727 132.486 41.5792C131.809 41.3211 131.545 41.201 131.254 41.1912C130.488 41.1653 130.542 41.8197 130.43 42.1149C130.278 42.518 129.896 42.775 129.608 43.0673C128.826 43.8582 127.574 45.8421 126.935 47.0352C125.486 49.738 124.943 52.1056 124.978 53.9946C124.99 54.668 125.121 55.0088 124.713 55.6279C124.614 55.7767 124.498 55.9344 124.512 56.1121C124.532 56.3786 124.82 56.5279 125.069 56.6263C126.324 57.1236 127.627 57.5859 128.827 56.7501C129.935 55.9784 130.773 54.7444 131.408 53.5408Z" fill="#DDDDDB"/>
<path d="M131.408 53.5408C131.973 52.4699 132.572 51.2875 132.851 50.1033C132.972 49.5924 133.221 49.118 133.362 48.6091C134.116 45.8871 135.094 42.5727 132.486 41.5792C131.809 41.3211 131.545 41.201 131.254 41.1912C130.488 41.1653 130.542 41.8197 130.43 42.1149C130.278 42.518 129.896 42.775 129.608 43.0673C128.826 43.8582 127.574 45.8421 126.935 47.0352C125.486 49.738 124.943 52.1056 124.978 53.9946C124.99 54.668 125.121 55.0088 124.713 55.6279C124.614 55.7767 124.498 55.9344 124.512 56.1121C124.532 56.3786 124.82 56.5279 125.069 56.6263C126.324 57.1236 127.627 57.5859 128.827 56.7501C129.935 55.9784 130.773 54.7444 131.408 53.5408Z" fill="#0D0D0D" fill-opacity="0.82"/>
<path d="M129.268 52.7396C129.857 51.6636 130.523 50.3177 130.804 49.1311C130.99 48.3441 133.323 42.7555 131.365 41.1599C130.734 40.6455 129.347 40.5651 128.285 41.3478C127.217 42.1353 125.52 44.8821 124.887 46.063C124.068 47.5904 123.402 49.2171 123.118 50.9265C122.91 52.175 122.568 55.54 124.058 56.1844C126.333 57.1681 128.319 54.4748 129.268 52.7396Z" fill="#B39DDB"/>
<path d="M129.268 52.7396C129.857 51.6636 130.523 50.3177 130.804 49.1311C130.99 48.3441 133.323 42.7555 131.365 41.1599C130.734 40.6455 129.347 40.5651 128.285 41.3478C127.217 42.1353 125.52 44.8821 124.887 46.063C124.068 47.5904 123.402 49.2171 123.118 50.9265C122.91 52.175 122.568 55.54 124.058 56.1844C126.333 57.1681 128.319 54.4748 129.268 52.7396Z" fill="white" fill-opacity="0.32"/>
<path d="M104.221 66.0142C104.216 65.5238 102.307 65.9053 143.276 65.2871H143.279C143.609 65.2871 143.61 65.7836 143.282 65.7871C102.604 66.1665 104.227 66.5537 104.221 66.0142Z" fill="#DDDDDB"/>
<path d="M104.221 66.0142C104.216 65.5238 102.307 65.9053 143.276 65.2871H143.279C143.609 65.2871 143.61 65.7836 143.282 65.7871C102.604 66.1665 104.227 66.5537 104.221 66.0142Z" fill="#0D0D0D" fill-opacity="0.82"/>
<path d="M68.5847 116.503L67.1863 114.173C67.0157 113.89 67.4454 113.632 67.615 113.916L69.0134 116.246C69.0847 116.365 69.0461 116.518 68.9275 116.589C68.8132 116.659 68.6575 116.625 68.5847 116.503Z" fill="#DDDDDB"/>
<path d="M68.5847 116.503L67.1863 114.173C67.0157 113.89 67.4454 113.632 67.615 113.916L69.0134 116.246C69.0847 116.365 69.0461 116.518 68.9275 116.589C68.8132 116.659 68.6575 116.625 68.5847 116.503Z" fill="#0D0D0D" fill-opacity="0.82"/>
<path d="M67.9973 111.2C67.8878 110.705 68.6874 111.056 71.0276 109.913C71.3306 109.771 71.5412 110.219 71.2473 110.362C70.3083 110.821 69.3152 111.167 68.2952 111.391C68.1584 111.42 68.0263 111.334 67.9973 111.2Z" fill="#DDDDDB"/>
<path d="M67.9973 111.2C67.8878 110.705 68.6874 111.056 71.0276 109.913C71.3306 109.771 71.5412 110.219 71.2473 110.362C70.3083 110.821 69.3152 111.167 68.2952 111.391C68.1584 111.42 68.0263 111.334 67.9973 111.2Z" fill="#0D0D0D" fill-opacity="0.82"/>
<path d="M28.5573 91.7042C21.9132 86.8292 19.9645 76.506 24.3415 69.5314C21.8485 66.803 21.9387 62.8858 22.4772 59.2467C24.2116 47.5016 29.9215 36.5446 38.5543 28.3937C38.793 28.1655 39.139 28.5296 38.8976 28.757C30.3459 36.8312 24.6901 47.6852 22.9718 59.3199C22.4684 62.7236 22.3344 66.4974 24.6237 69.1017C27.2418 65.287 30.4037 65.489 31.8918 67.486C34.1813 70.5583 28.8887 73.9056 24.7013 69.9C20.5382 76.6617 22.4416 86.5968 28.8532 91.3009C28.9645 91.3824 28.9884 91.5392 28.9069 91.6505C28.8237 91.7633 28.6666 91.7847 28.5573 91.7042ZM24.9748 69.4742C28.6533 73.1029 33.4384 70.4009 31.4909 67.7848C30.8918 66.9811 29.8693 66.4982 28.9445 66.5841C27.1803 66.7457 25.8302 68.2013 24.9748 69.4742Z" fill="#DDDDDB"/>
<path d="M57.1005 51.1079L55.7187 50.5139L55.9658 50.4201C55.5134 51.9842 54.3788 52.8435 53.988 52.7996C53.6477 52.7588 53.363 52.3486 53.7281 52.127C54.6403 51.572 55.0115 50.8826 55.2497 50.0589C55.618 48.7857 55.3216 47.6877 54.147 47.1827C52.0302 46.2726 52.0188 49.7747 50.1931 50.4403C49.2355 50.7916 47.9377 50.1888 47.266 49.3893C46.6346 48.6362 46.3706 47.6094 46.6519 46.4962L46.7907 46.6755C45.4785 46.081 45.3401 46.1272 45.2216 45.8941C45.1303 45.7173 45.1784 45.5161 45.352 45.4434C45.5638 45.3526 45.6349 45.4888 46.9761 46.0349L46.7854 46.086C47.0163 45.3515 47.6339 44.5695 48.474 44.2498C48.7567 44.1432 49.1329 44.4047 49.0415 44.7208C48.9508 45.0343 47.8989 45.0221 47.423 46.6675C47.0639 47.9087 47.5187 49.0709 48.7052 49.581C49.1483 49.7715 49.5376 49.8031 49.8724 49.6754C50.9647 49.2615 51.3263 46.9648 52.6985 46.3397C54.0671 45.7163 56.6784 47.2187 56.0482 50.1353L55.8912 49.8677C57.267 50.4884 57.38 50.4392 57.5013 50.66C57.5491 50.7474 57.4205 51.2455 57.1005 51.1079Z" fill="#DDDDDB"/>
<path d="M57.1005 51.1079L55.7187 50.5139L55.9658 50.4201C55.5134 51.9842 54.3788 52.8435 53.988 52.7996C53.6477 52.7588 53.363 52.3486 53.7281 52.127C54.6403 51.572 55.0115 50.8826 55.2497 50.0589C55.618 48.7857 55.3216 47.6877 54.147 47.1827C52.0302 46.2726 52.0188 49.7747 50.1931 50.4403C49.2355 50.7916 47.9377 50.1888 47.266 49.3893C46.6346 48.6362 46.3706 47.6094 46.6519 46.4962L46.7907 46.6755C45.4785 46.081 45.3401 46.1272 45.2216 45.8941C45.1303 45.7173 45.1784 45.5161 45.352 45.4434C45.5638 45.3526 45.6349 45.4888 46.9761 46.0349L46.7854 46.086C47.0163 45.3515 47.6339 44.5695 48.474 44.2498C48.7567 44.1432 49.1329 44.4047 49.0415 44.7208C48.9508 45.0343 47.8989 45.0221 47.423 46.6675C47.0639 47.9087 47.5187 49.0709 48.7052 49.581C49.1483 49.7715 49.5376 49.8031 49.8724 49.6754C50.9647 49.2615 51.3263 46.9648 52.6985 46.3397C54.0671 45.7163 56.6784 47.2187 56.0482 50.1353L55.8912 49.8677C57.267 50.4884 57.38 50.4392 57.5013 50.66C57.5491 50.7474 57.4205 51.2455 57.1005 51.1079Z" fill="#0D0D0D" fill-opacity="0.82"/>
<path d="M55.5841 63.298C55.434 63.4756 55.2833 63.387 53.839 63.5032L54.0174 63.3082C54.3272 64.958 53.6721 66.1941 53.3233 66.3234C53.2428 66.3526 53.1608 66.362 53.0775 66.3509C52.8254 66.3154 52.6165 66.1152 52.7883 65.84C52.9791 65.5336 53.1258 65.1831 53.2281 64.7876C53.3309 64.3926 53.3263 63.8991 53.2153 63.3082C53.0646 62.5058 52.7017 61.7486 51.957 61.4138C51.3232 61.1289 50.5758 61.2046 50.1886 61.4544C48.6777 62.4344 50.7293 66.3474 47.2938 66.5579C45.7022 66.6554 44.3097 65.6809 43.9343 63.9999L44.139 64.0975C42.6997 64.1578 42.5969 64.2614 42.3861 64.1066C42.1181 63.9125 42.2154 63.5524 42.543 63.5323L44.0159 63.4421L43.8688 63.5736C43.6633 62.3212 44.3848 61.1374 44.7497 61.0569C45.1152 60.9762 45.4087 61.277 45.1982 61.576C44.211 62.8193 44.6456 64.5924 45.5536 65.3374C46.4588 66.0811 47.7627 65.9131 48.2416 65.3879C49.2879 64.2451 47.7348 60.6588 50.7493 60.4741C52.3476 60.3762 53.5483 61.4234 53.9626 63.0167L53.7019 62.8486C55.2098 62.7831 55.2886 62.6883 55.4963 62.8307C55.5784 62.8873 55.7104 63.1493 55.5841 63.298Z" fill="#DDDDDB"/>
<path d="M55.5841 63.298C55.434 63.4756 55.2833 63.387 53.839 63.5032L54.0174 63.3082C54.3272 64.958 53.6721 66.1941 53.3233 66.3234C53.2428 66.3526 53.1608 66.362 53.0775 66.3509C52.8254 66.3154 52.6165 66.1152 52.7883 65.84C52.9791 65.5336 53.1258 65.1831 53.2281 64.7876C53.3309 64.3926 53.3263 63.8991 53.2153 63.3082C53.0646 62.5058 52.7017 61.7486 51.957 61.4138C51.3232 61.1289 50.5758 61.2046 50.1886 61.4544C48.6777 62.4344 50.7293 66.3474 47.2938 66.5579C45.7022 66.6554 44.3097 65.6809 43.9343 63.9999L44.139 64.0975C42.6997 64.1578 42.5969 64.2614 42.3861 64.1066C42.1181 63.9125 42.2154 63.5524 42.543 63.5323L44.0159 63.4421L43.8688 63.5736C43.6633 62.3212 44.3848 61.1374 44.7497 61.0569C45.1152 60.9762 45.4087 61.277 45.1982 61.576C44.211 62.8193 44.6456 64.5924 45.5536 65.3374C46.4588 66.0811 47.7627 65.9131 48.2416 65.3879C49.2879 64.2451 47.7348 60.6588 50.7493 60.4741C52.3476 60.3762 53.5483 61.4234 53.9626 63.0167L53.7019 62.8486C55.2098 62.7831 55.2886 62.6883 55.4963 62.8307C55.5784 62.8873 55.7104 63.1493 55.5841 63.298Z" fill="#0D0D0D" fill-opacity="0.82"/>
<path d="M61.1941 82.4646C61.157 82.6928 61.0076 82.6773 59.8034 83.5385L59.856 83.2795C60.9862 84.5522 61.0349 85.9443 60.8125 86.2221C60.7 86.3605 60.536 86.4254 60.3768 86.4098C60.1841 86.3909 60.1017 86.2757 60.1051 86.0829C60.1225 85.0153 59.7377 84.3334 59.1683 83.6923C58.6261 83.0818 57.9253 82.6194 57.1145 82.7155C56.4244 82.7973 55.8226 83.2469 55.6191 83.6603C55.0137 84.8984 57.1423 86.5551 56.7919 88.1719C56.4454 89.7857 53.5232 91.1191 51.5665 89.0614L51.7922 89.0397L50.5756 89.875C50.3955 89.9987 50.1653 89.9642 50.0502 89.8345C49.935 89.7048 49.9527 89.5001 50.1328 89.3764L51.3494 88.541L51.2908 88.7296C50.4702 87.7615 50.4797 86.3751 50.7511 86.1183C51.0213 85.8626 51.4295 85.9659 51.4028 86.3327C51.2878 87.2082 51.5597 87.8666 52.1229 88.5008C52.9809 89.4669 54.2064 89.7027 55.271 88.9716C57.2994 87.5788 54.3961 85.8098 54.6615 83.8646C54.8647 82.3745 57.5291 80.9682 59.6591 83.0578L59.349 83.0478L60.6005 82.1885C60.6861 82.1297 60.7786 82.103 60.8784 82.1091C61.064 82.1208 61.2259 82.272 61.1941 82.4646Z" fill="#DDDDDB"/>
<path d="M61.1941 82.4646C61.157 82.6928 61.0076 82.6773 59.8034 83.5385L59.856 83.2795C60.9862 84.5522 61.0349 85.9443 60.8125 86.2221C60.7 86.3605 60.536 86.4254 60.3768 86.4098C60.1841 86.3909 60.1017 86.2757 60.1051 86.0829C60.1225 85.0153 59.7377 84.3334 59.1683 83.6923C58.6261 83.0818 57.9253 82.6194 57.1145 82.7155C56.4244 82.7973 55.8226 83.2469 55.6191 83.6603C55.0137 84.8984 57.1423 86.5551 56.7919 88.1719C56.4454 89.7857 53.5232 91.1191 51.5665 89.0614L51.7922 89.0397L50.5756 89.875C50.3955 89.9987 50.1653 89.9642 50.0502 89.8345C49.935 89.7048 49.9527 89.5001 50.1328 89.3764L51.3494 88.541L51.2908 88.7296C50.4702 87.7615 50.4797 86.3751 50.7511 86.1183C51.0213 85.8626 51.4295 85.9659 51.4028 86.3327C51.2878 87.2082 51.5597 87.8666 52.1229 88.5008C52.9809 89.4669 54.2064 89.7027 55.271 88.9716C57.2994 87.5788 54.3961 85.8098 54.6615 83.8646C54.8647 82.3745 57.5291 80.9682 59.6591 83.0578L59.349 83.0478L60.6005 82.1885C60.6861 82.1297 60.7786 82.103 60.8784 82.1091C61.064 82.1208 61.2259 82.272 61.1941 82.4646Z" fill="#0D0D0D" fill-opacity="0.82"/>
<path d="M125.257 54.011C125.206 53.8501 125.322 53.7342 125.801 52.522L125.851 52.7092C125.027 52.655 124.512 52.2375 124.304 51.7258C124.167 51.4235 124.616 50.8596 124.782 51.1817C124.895 51.4014 125.052 51.5934 125.254 51.7576C125.603 52.0438 126.447 52.1689 127.074 51.9018C127.656 51.6539 128.055 51.1455 128.293 50.5676C129.27 48.19 125.119 49.7194 126.451 46.4792C126.959 45.2417 128.045 44.1775 129.295 44.2051L129.157 44.3553C129.544 43.5198 129.664 42.7967 130.017 42.8199C130.159 42.8293 130.171 43.0025 130.112 43.1445L129.603 44.3847L129.579 44.2362C130.478 44.3224 131.147 45.4074 130.553 45.8002C130.222 46.0197 130.355 45.5195 129.877 45.1311C129.49 44.8169 128.612 44.7135 127.86 45.2802C127.233 45.7528 126.628 46.8652 126.799 47.5002C127.095 48.6004 129.871 48.0277 128.828 50.5663C128.337 51.7614 127.309 52.6952 126.05 52.7222L126.252 52.5396C125.72 53.7898 125.744 53.8861 125.575 54.0319C125.509 54.0887 125.301 54.1522 125.257 54.011Z" fill="#DDDDDB"/>
<path d="M125.257 54.011C125.206 53.8501 125.322 53.7342 125.801 52.522L125.851 52.7092C125.027 52.655 124.512 52.2375 124.304 51.7258C124.167 51.4235 124.616 50.8596 124.782 51.1817C124.895 51.4014 125.052 51.5934 125.254 51.7576C125.603 52.0438 126.447 52.1689 127.074 51.9018C127.656 51.6539 128.055 51.1455 128.293 50.5676C129.27 48.19 125.119 49.7194 126.451 46.4792C126.959 45.2417 128.045 44.1775 129.295 44.2051L129.157 44.3553C129.544 43.5198 129.664 42.7967 130.017 42.8199C130.159 42.8293 130.171 43.0025 130.112 43.1445L129.603 44.3847L129.579 44.2362C130.478 44.3224 131.147 45.4074 130.553 45.8002C130.222 46.0197 130.355 45.5195 129.877 45.1311C129.49 44.8169 128.612 44.7135 127.86 45.2802C127.233 45.7528 126.628 46.8652 126.799 47.5002C127.095 48.6004 129.871 48.0277 128.828 50.5663C128.337 51.7614 127.309 52.6952 126.05 52.7222L126.252 52.5396C125.72 53.7898 125.744 53.8861 125.575 54.0319C125.509 54.0887 125.301 54.1522 125.257 54.011Z" fill="#0D0D0D" fill-opacity="0.82"/>
<path d="M138.496 51.7789C138.364 51.7789 138.253 51.6749 138.247 51.5416C138.185 50.3224 138.248 49.0934 138.433 47.8873C138.483 47.564 138.977 47.6346 138.927 47.9635C138.46 51.0085 139.029 51.7526 138.509 51.7784C138.505 51.7789 138.5 51.7789 138.496 51.7789Z" fill="#DDDDDB"/>
<path d="M138.496 51.7789C138.364 51.7789 138.253 51.6749 138.247 51.5416C138.185 50.3224 138.248 49.0934 138.433 47.8873C138.483 47.564 138.977 47.6346 138.927 47.9635C138.46 51.0085 139.029 51.7526 138.509 51.7784C138.505 51.7789 138.5 51.7789 138.496 51.7789Z" fill="#0D0D0D" fill-opacity="0.82"/>
<path d="M139.665 53.0454C140.303 51.3872 141.185 49.8374 142.283 48.439C142.489 48.1795 142.88 48.4877 142.677 48.7476C141.608 50.1069 140.752 51.6133 140.131 53.2251C140.011 53.5336 139.546 53.3542 139.665 53.0454Z" fill="#DDDDDB"/>
<path d="M139.665 53.0454C140.303 51.3872 141.185 49.8374 142.283 48.439C142.489 48.1795 142.88 48.4877 142.677 48.7476C141.608 50.1069 140.752 51.6133 140.131 53.2251C140.011 53.5336 139.546 53.3542 139.665 53.0454Z" fill="#0D0D0D" fill-opacity="0.82"/>
<path d="M141.85 54.4616C142.598 53.8908 143.41 53.4006 144.265 53.0056C144.565 52.8668 144.775 53.3205 144.475 53.4597C143.654 53.8395 142.872 54.3102 142.154 54.8591C141.894 55.0575 141.586 54.664 141.85 54.4616Z" fill="#DDDDDB"/>
<path d="M141.85 54.4616C142.598 53.8908 143.41 53.4006 144.265 53.0056C144.565 52.8668 144.775 53.3205 144.475 53.4597C143.654 53.8395 142.872 54.3102 142.154 54.8591C141.894 55.0575 141.586 54.664 141.85 54.4616Z" fill="#0D0D0D" fill-opacity="0.82"/>
<path d="M135.644 77.9037C135.772 78.0717 135.909 78.189 136.056 78.2557C136.205 78.3223 136.372 78.3557 136.556 78.3557C136.913 78.3557 137.189 78.2277 137.384 77.9717C137.581 77.713 137.68 77.337 137.68 76.8437C137.68 76.585 137.657 76.365 137.612 76.1837C137.569 75.9997 137.505 75.8503 137.42 75.7357C137.337 75.6183 137.234 75.533 137.112 75.4797C136.989 75.4237 136.85 75.3957 136.696 75.3957C136.469 75.3957 136.272 75.4463 136.104 75.5477C135.938 75.649 135.785 75.793 135.644 75.9797V77.9037ZM135.604 75.4477C135.689 75.3463 135.78 75.2543 135.876 75.1717C135.974 75.0863 136.08 75.0143 136.192 74.9557C136.304 74.8943 136.422 74.8477 136.548 74.8157C136.676 74.781 136.812 74.7637 136.956 74.7637C137.188 74.7637 137.397 74.809 137.584 74.8997C137.773 74.9903 137.934 75.1237 138.068 75.2997C138.201 75.4757 138.304 75.693 138.376 75.9517C138.45 76.2103 138.488 76.5077 138.488 76.8437C138.488 77.145 138.446 77.425 138.364 77.6837C138.284 77.9397 138.168 78.1623 138.016 78.3517C137.866 78.541 137.682 78.6903 137.464 78.7997C137.248 78.9063 137.004 78.9597 136.732 78.9597C136.489 78.9597 136.281 78.9197 136.108 78.8397C135.934 78.7597 135.78 78.6477 135.644 78.5037V80.2677H134.864V74.8397H135.332C135.441 74.8397 135.509 74.8917 135.536 74.9957L135.604 75.4477Z" fill="white"/>
<path d="M133.935 74.8398V78.9038H133.467C133.36 78.9038 133.291 78.8518 133.259 78.7478L133.203 78.3398C133.115 78.4332 133.023 78.5185 132.927 78.5958C132.831 78.6732 132.728 78.7398 132.619 78.7958C132.51 78.8492 132.394 78.8905 132.271 78.9198C132.148 78.9518 132.016 78.9678 131.875 78.9678C131.651 78.9678 131.454 78.9305 131.283 78.8558C131.115 78.7812 130.974 78.6772 130.859 78.5438C130.744 78.4078 130.658 78.2452 130.599 78.0558C130.54 77.8665 130.511 77.6572 130.511 77.4278V74.8398H131.295V77.4278C131.295 77.7185 131.362 77.9452 131.495 78.1078C131.628 78.2678 131.832 78.3478 132.107 78.3478C132.307 78.3478 132.494 78.3012 132.667 78.2078C132.84 78.1118 133.003 77.9812 133.155 77.8158V74.8398H133.935Z" fill="white"/>
<path d="M127.309 76.4204C127.309 76.2657 127.286 76.123 127.241 75.9924C127.198 75.8617 127.134 75.7484 127.049 75.6524C126.964 75.5564 126.86 75.4817 126.737 75.4284C126.614 75.375 126.473 75.3484 126.313 75.3484C125.985 75.3484 125.726 75.443 125.537 75.6324C125.35 75.8217 125.232 76.0844 125.181 76.4204H127.309ZM127.953 78.3244C127.857 78.4364 127.746 78.5337 127.621 78.6164C127.496 78.6964 127.362 78.7617 127.221 78.8124C127.08 78.863 126.933 78.9004 126.781 78.9244C126.632 78.9484 126.484 78.9604 126.337 78.9604C126.057 78.9604 125.797 78.9137 125.557 78.8204C125.32 78.7244 125.113 78.5857 124.937 78.4044C124.764 78.2204 124.628 77.9937 124.529 77.7244C124.433 77.4524 124.385 77.1404 124.385 76.7884C124.385 76.5057 124.429 76.243 124.517 76.0004C124.605 75.755 124.73 75.5417 124.893 75.3604C125.058 75.179 125.26 75.0364 125.497 74.9324C125.734 74.8284 126.001 74.7764 126.297 74.7764C126.545 74.7764 126.773 74.8177 126.981 74.9004C127.192 74.9804 127.373 75.0977 127.525 75.2524C127.677 75.407 127.796 75.5977 127.881 75.8244C127.969 76.051 128.013 76.3097 128.013 76.6004C128.013 76.7204 128 76.8017 127.973 76.8444C127.946 76.8844 127.897 76.9044 127.825 76.9044H125.161C125.169 77.147 125.204 77.359 125.265 77.5404C125.326 77.719 125.41 77.8684 125.517 77.9884C125.626 78.1084 125.756 78.1977 125.905 78.2564C126.054 78.315 126.221 78.3444 126.405 78.3444C126.578 78.3444 126.728 78.3244 126.853 78.2844C126.981 78.2444 127.09 78.2017 127.181 78.1564C127.274 78.1084 127.352 78.0644 127.413 78.0244C127.477 77.9844 127.533 77.9644 127.581 77.9644C127.645 77.9644 127.694 77.9884 127.729 78.0364L127.953 78.3244Z" fill="white"/>
<path d="M123.663 73V78.904H122.879V73H123.663Z" fill="white"/>
<path d="M118.787 78.968C118.459 78.968 118.206 78.876 118.027 78.692C117.851 78.508 117.763 78.2454 117.763 77.904V75.472H117.291C117.246 75.472 117.207 75.4587 117.175 75.432C117.146 75.4027 117.131 75.36 117.131 75.304V74.988L117.791 74.896L117.967 73.684C117.978 73.6387 117.998 73.604 118.027 73.58C118.059 73.5534 118.099 73.54 118.147 73.54H118.543V74.904H120.399L120.579 73.684C120.587 73.6387 120.606 73.604 120.635 73.58C120.667 73.5534 120.707 73.54 120.755 73.54H121.155V74.904H122.307V75.472H121.155V77.852C121.155 78.012 121.194 78.132 121.271 78.212C121.349 78.2894 121.45 78.328 121.575 78.328C121.647 78.328 121.709 78.3187 121.759 78.3C121.813 78.2814 121.858 78.2614 121.895 78.24C121.933 78.216 121.965 78.1947 121.991 78.176C122.018 78.1574 122.042 78.148 122.063 78.148C122.087 78.148 122.107 78.1547 122.123 78.168C122.139 78.1787 122.155 78.1974 122.171 78.224L122.403 78.6C122.275 78.7174 122.122 78.808 121.943 78.872C121.767 78.936 121.585 78.968 121.395 78.968C121.067 78.968 120.814 78.876 120.635 78.692C120.459 78.508 120.371 78.2454 120.371 77.904V75.472H118.543V77.852C118.543 78.012 118.582 78.132 118.659 78.212C118.739 78.2894 118.841 78.328 118.963 78.328C119.035 78.328 119.097 78.3187 119.147 78.3C119.201 78.2814 119.246 78.2614 119.283 78.24C119.321 78.216 119.353 78.1947 119.379 78.176C119.406 78.1574 119.43 78.148 119.451 78.148C119.478 78.148 119.498 78.1547 119.511 78.168C119.527 78.1787 119.543 78.1974 119.559 78.224L119.791 78.6C119.663 78.7174 119.511 78.808 119.335 78.872C119.159 78.936 118.977 78.968 118.787 78.968Z" fill="white"/>
<path d="M116.164 76.4204C116.164 76.2657 116.142 76.123 116.096 75.9924C116.054 75.8617 115.99 75.7484 115.904 75.6524C115.819 75.5564 115.715 75.4817 115.592 75.4284C115.47 75.375 115.328 75.3484 115.168 75.3484C114.84 75.3484 114.582 75.443 114.392 75.6324C114.206 75.8217 114.087 76.0844 114.036 76.4204H116.164ZM116.808 78.3244C116.712 78.4364 116.602 78.5337 116.476 78.6164C116.351 78.6964 116.218 78.7617 116.076 78.8124C115.935 78.863 115.788 78.9004 115.636 78.9244C115.487 78.9484 115.339 78.9604 115.192 78.9604C114.912 78.9604 114.652 78.9137 114.412 78.8204C114.175 78.7244 113.968 78.5857 113.792 78.4044C113.619 78.2204 113.483 77.9937 113.384 77.7244C113.288 77.4524 113.24 77.1404 113.24 76.7884C113.24 76.5057 113.284 76.243 113.372 76.0004C113.46 75.755 113.586 75.5417 113.748 75.3604C113.914 75.179 114.115 75.0364 114.352 74.9324C114.59 74.8284 114.856 74.7764 115.152 74.7764C115.4 74.7764 115.628 74.8177 115.836 74.9004C116.047 74.9804 116.228 75.0977 116.38 75.2524C116.532 75.407 116.651 75.5977 116.736 75.8244C116.824 76.051 116.868 76.3097 116.868 76.6004C116.868 76.7204 116.855 76.8017 116.828 76.8444C116.802 76.8844 116.752 76.9044 116.68 76.9044H114.016C114.024 77.147 114.059 77.359 114.12 77.5404C114.182 77.719 114.266 77.8684 114.372 77.9884C114.482 78.1084 114.611 78.1977 114.76 78.2564C114.91 78.315 115.076 78.3444 115.26 78.3444C115.434 78.3444 115.583 78.3244 115.708 78.2844C115.836 78.2444 115.946 78.2017 116.036 78.1564C116.13 78.1084 116.207 78.0644 116.268 78.0244C116.332 77.9844 116.388 77.9644 116.436 77.9644C116.5 77.9644 116.55 77.9884 116.584 78.0364L116.808 78.3244Z" fill="white"/>
<path d="M112.436 74.0957C112.409 74.141 112.381 74.1744 112.352 74.1957C112.323 74.217 112.285 74.2277 112.24 74.2277C112.192 74.2277 112.137 74.2064 112.076 74.1637C112.015 74.1184 111.937 74.069 111.844 74.0157C111.753 73.9597 111.644 73.9104 111.516 73.8677C111.388 73.8224 111.235 73.7997 111.056 73.7997C110.888 73.7997 110.74 73.8224 110.612 73.8677C110.487 73.9104 110.381 73.9704 110.296 74.0477C110.211 74.1224 110.145 74.2117 110.1 74.3157C110.057 74.417 110.036 74.5277 110.036 74.6477C110.036 74.8024 110.075 74.9304 110.152 75.0317C110.232 75.133 110.336 75.2197 110.464 75.2917C110.592 75.3637 110.737 75.4264 110.9 75.4797C111.063 75.533 111.229 75.589 111.4 75.6477C111.571 75.7037 111.737 75.769 111.9 75.8437C112.063 75.9184 112.208 76.013 112.336 76.1277C112.464 76.2397 112.567 76.3784 112.644 76.5437C112.724 76.7064 112.764 76.9064 112.764 77.1437C112.764 77.397 112.72 77.6344 112.632 77.8557C112.547 78.077 112.421 78.2704 112.256 78.4357C112.091 78.601 111.887 78.7317 111.644 78.8277C111.404 78.921 111.131 78.9677 110.824 78.9677C110.64 78.9677 110.461 78.949 110.288 78.9117C110.115 78.877 109.951 78.8277 109.796 78.7637C109.641 78.697 109.496 78.6184 109.36 78.5277C109.227 78.4344 109.107 78.3304 109 78.2157L109.244 77.8077C109.268 77.7757 109.296 77.749 109.328 77.7277C109.363 77.7064 109.401 77.6957 109.444 77.6957C109.5 77.6957 109.564 77.725 109.636 77.7837C109.711 77.8424 109.801 77.9077 109.908 77.9797C110.017 78.049 110.147 78.113 110.296 78.1717C110.448 78.2304 110.632 78.2597 110.848 78.2597C111.024 78.2597 111.181 78.237 111.32 78.1917C111.459 78.1437 111.575 78.077 111.668 77.9917C111.764 77.9037 111.837 77.7984 111.888 77.6757C111.939 77.553 111.964 77.417 111.964 77.2677C111.964 77.0997 111.925 76.9624 111.848 76.8557C111.771 76.749 111.668 76.6597 111.54 76.5877C111.412 76.5157 111.267 76.4544 111.104 76.4037C110.941 76.353 110.775 76.301 110.604 76.2477C110.433 76.1917 110.267 76.1277 110.104 76.0557C109.941 75.9837 109.796 75.8904 109.668 75.7757C109.54 75.6584 109.437 75.513 109.36 75.3397C109.283 75.1637 109.244 74.9477 109.244 74.6917C109.244 74.4864 109.284 74.2877 109.364 74.0957C109.444 73.9037 109.56 73.7344 109.712 73.5877C109.867 73.4384 110.056 73.3197 110.28 73.2317C110.504 73.141 110.76 73.0957 111.048 73.0957C111.371 73.0957 111.667 73.1477 111.936 73.2517C112.208 73.353 112.444 73.4997 112.644 73.6917L112.436 74.0957Z" fill="white"/>
<path d="M121.895 98.3271C121.219 100.421 119.691 103.111 117.43 104.379C115.617 105.392 113.527 106.03 111.372 106.23C111.133 111.399 104.314 113.104 99.2792 112.967C98.4664 116.332 95.9005 119.586 92.3778 121.706C92.0968 121.875 91.8401 121.448 92.1228 121.277C95.499 119.246 97.964 116.151 98.7724 112.949C97.9015 112.909 97.0213 112.811 96.1508 112.657C95.1004 112.475 93.7779 112.145 92.8676 111.205C92.0015 110.302 91.6776 108.675 92.5742 107.692C93.6577 106.521 97.5052 105.961 98.9276 107.965C99.7546 109.127 99.668 111.079 99.3898 112.47C102.975 112.561 108.502 111.54 110.269 108.398C110.626 107.77 110.828 107.056 110.873 106.271C107.979 106.461 105.144 105.885 102.654 104.593C100.725 103.586 99.1512 101.574 100.034 99.8267C100.81 98.3178 102.882 98.1781 104.42 98.5156C108.114 99.3306 111.269 101.95 111.377 105.728C113.446 105.529 115.449 104.914 117.189 103.942C119.324 102.744 120.776 100.176 121.423 98.1728C121.523 97.8592 121.996 98.0112 121.895 98.3271ZM110.881 105.769C110.725 99.7147 101.955 97.178 100.476 100.055C99.6492 101.691 101.513 103.434 102.882 104.148C105.303 105.405 108.069 105.96 110.881 105.769ZM98.8859 112.454C99.1451 111.216 99.2727 109.309 98.5241 108.256C97.6629 107.044 95.837 106.975 94.4132 107.314C93.9287 107.43 93.323 107.616 92.9384 108.031C92.243 108.794 92.5301 110.133 93.2241 110.857C94.0335 111.693 95.2589 111.995 96.2356 112.165C97.1163 112.32 98.0067 112.417 98.8859 112.454Z" fill="#DDDDDB"/>
</svg>
