<svg width="165" height="165" viewBox="0 0 165 165" fill="none" xmlns="http://www.w3.org/2000/svg">
<path d="M48.656 138.224C56.109 133.497 62.6517 127.129 67.5757 119.804C67.7612 119.532 68.1713 119.809 67.9883 120.082C63.0258 127.462 56.4327 133.881 48.9219 138.643C48.6439 138.819 48.3787 138.399 48.656 138.224Z" fill="#242422"/>
<path d="M80.6085 65.698C80.5987 68.1432 80.5791 70.5983 80.5596 73.0435C80.54 76.2908 80.5205 79.538 80.4911 82.7852C80.4716 86.4042 80.4422 90.0231 80.4226 93.6421C80.3933 97.2022 80.3737 100.763 80.3444 104.323C80.3248 107.404 80.3052 110.475 80.2857 113.556C80.2661 115.717 80.2564 117.869 80.2368 120.031C80.2368 120.852 80.227 121.664 80.227 122.486C80.2173 123.444 79.5228 124.256 78.5741 124.403L45.9157 129.616C45.3191 129.714 44.5659 129.753 43.9791 129.655C42.3483 129.4 41.3976 127.872 40.8101 126.33C41.2111 126.936 41.9447 127.308 42.7467 127.171L75.3953 121.967C76.3538 121.821 77.0483 120.999 77.058 120.05L77.4688 59.4188C77.4786 58.4015 76.7157 57.6092 75.8061 57.4724C75.8745 57.4626 75.9528 57.4822 76.0212 57.492C77.1754 57.7169 78.3687 58.0396 79.2196 58.8514C81.078 60.6414 80.628 63.3898 80.6085 65.698Z" fill="#242422"/>
<path d="M78.0624 59.4208V59.4506L77.6449 121.065C77.6449 121.472 77.5157 121.86 77.2771 122.178C77.2473 122.238 77.2076 122.287 77.1578 122.347C76.8597 122.695 76.4422 122.943 75.9552 123.013C40.1109 128.734 42.4729 128.481 41.873 128.241C41.4222 128.112 41.025 127.778 40.8095 127.446V127.436C40.6505 127.197 40.5411 126.939 40.5013 126.641V126.631C40.5013 126.611 40.4915 126.601 40.4915 126.581C40.3735 126.465 40.7284 124.566 41.0381 122.566C41.7239 122.347 42.37 122.039 42.9564 121.631C46.6136 119.18 46.032 115.035 42.6682 112.298L42.7576 111.742C48.7911 112.868 51.6469 113.491 53.184 113.213C54.5955 113.084 55.9969 112.587 57.0008 111.603C57.5673 111.046 57.9947 110.281 57.9152 109.486C57.7518 107.974 55.8469 107.041 54.009 106.076C50.1362 104.039 46.1581 102.754 44.2485 102.379C49.6864 68.0857 49.5221 69.0744 49.5562 68.9725C49.664 68.5945 49.787 68.3443 50.0929 68.0382C50.5778 67.5535 49.3852 68.2226 75.329 57.5919C75.5775 57.4926 75.826 57.4429 76.0745 57.4429C76.1738 57.4429 76.2733 57.4528 76.3726 57.4727C76.4621 57.4827 76.5515 57.5024 76.641 57.5323C76.6708 57.5422 76.7007 57.5522 76.7304 57.562C76.8299 57.6018 76.9292 57.6416 77.0187 57.6914C77.1281 57.7509 77.2175 57.8105 77.307 57.8801C77.3964 57.9498 77.4859 58.0293 77.5654 58.1187C77.635 58.2082 77.7046 58.2976 77.7642 58.397C77.8934 58.5958 77.9828 58.8144 78.0226 59.0629C78.0524 59.1723 78.0624 59.2916 78.0624 59.4208Z" fill="#242422"/>
<path d="M78.0624 59.4208V59.4506L77.6449 121.065C77.6449 121.472 77.5157 121.86 77.2771 122.178C77.2473 122.238 77.2076 122.287 77.1578 122.347C76.8597 122.695 76.4422 122.943 75.9552 123.013C40.1109 128.734 42.4729 128.481 41.873 128.241C41.4222 128.112 41.025 127.778 40.8095 127.446V127.436C40.6505 127.197 40.5411 126.939 40.5013 126.641V126.631C40.5013 126.611 40.4915 126.601 40.4915 126.581C40.3735 126.465 40.7284 124.566 41.0381 122.566C41.7239 122.347 42.37 122.039 42.9564 121.631C46.6136 119.18 46.032 115.035 42.6682 112.298L42.7576 111.742C48.7911 112.868 51.6469 113.491 53.184 113.213C54.5955 113.084 55.9969 112.587 57.0008 111.603C57.5673 111.046 57.9947 110.281 57.9152 109.486C57.7518 107.974 55.8469 107.041 54.009 106.076C50.1362 104.039 46.1581 102.754 44.2485 102.379C49.6864 68.0857 49.5221 69.0744 49.5562 68.9725C49.664 68.5945 49.787 68.3443 50.0929 68.0382C50.5778 67.5535 49.3852 68.2226 75.329 57.5919C75.5775 57.4926 75.826 57.4429 76.0745 57.4429C76.1738 57.4429 76.2733 57.4528 76.3726 57.4727C76.4621 57.4827 76.5515 57.5024 76.641 57.5323C76.6708 57.5422 76.7007 57.5522 76.7304 57.562C76.8299 57.6018 76.9292 57.6416 77.0187 57.6914C77.1281 57.7509 77.2175 57.8105 77.307 57.8801C77.3964 57.9498 77.4859 58.0293 77.5654 58.1187C77.635 58.2082 77.7046 58.2976 77.7642 58.397C77.8934 58.5958 77.9828 58.8144 78.0226 59.0629C78.0524 59.1723 78.0624 59.2916 78.0624 59.4208Z" fill="white" fill-opacity="0.82"/>
<path d="M42.758 111.742L42.6685 112.298C43.2549 112.775 43.7818 113.322 44.2191 113.928L44.5173 112.07C43.9308 111.96 43.3444 111.851 42.758 111.742ZM78.0229 59.0629C77.9832 58.8144 77.8938 58.5958 77.7645 58.397C77.7049 58.2976 77.6353 58.2082 77.5657 58.1187C77.4862 58.0293 77.3968 57.9498 77.3073 57.8801C77.2178 57.8105 77.1284 57.7509 77.0191 57.6914C76.9296 57.6416 76.8302 57.6018 76.7308 57.562C76.701 57.5522 76.6712 57.5422 76.6414 57.5323C76.5519 57.5024 76.4625 57.4827 76.373 57.4727C76.2736 57.4528 76.1742 57.4429 76.0748 57.4429C75.8263 57.4429 75.5779 57.4926 75.3294 57.5919C49.4041 68.215 50.5791 67.5525 50.0932 68.0382C49.8716 68.2601 49.7162 68.4838 49.6162 68.7836C49.4038 69.4208 49.925 66.7644 44.2389 102.379C44.3404 102.402 44.896 102.494 46.028 102.826L51.3456 70.2447C51.4251 69.8074 51.7134 69.4397 52.1308 69.2806L58.6908 66.7262C59.2249 66.526 59.0424 65.8978 59.0586 65.7919C59.0586 65.5434 59.1977 65.3247 59.4263 65.2254L66.4932 62.2336L66.6026 62.9691L74.8125 59.9178C75.5779 59.6295 76.373 60.1464 76.4724 60.9316C76.4923 60.9912 76.4923 61.0607 76.4923 61.1204L75.0014 119.544C74.9815 120.15 74.5441 120.637 73.9577 120.747C70.4885 121.345 85.7471 118.714 43.9209 125.925C43.086 126.074 42.3505 125.339 42.4896 124.494L42.9568 121.631C42.3703 122.039 41.7243 122.347 41.0385 122.566C40.7703 124.297 40.368 126.459 40.4918 126.581C40.4918 126.601 40.5017 126.611 40.5017 126.631V126.641C40.6011 126.909 40.7005 127.168 40.8098 127.436V127.446C41.0257 127.778 41.4256 128.113 41.8733 128.241C42.7129 128.577 42.5243 128.238 75.9556 123.013C76.4426 122.943 76.86 122.695 77.1582 122.347C77.2079 122.287 77.2477 122.238 77.2775 122.178C77.5161 121.86 77.6453 121.472 77.6453 121.065L78.0627 59.4506V59.4208C78.0627 59.2916 78.0528 59.1723 78.0229 59.0629Z" fill="#242422"/>
<path d="M45.889 134.811C50.7912 138.093 51.0522 137.458 49.9641 140.671C49.6462 141.61 49.2163 142.507 48.7256 143.367C48.2848 144.139 47.755 145.309 47.0567 145.877C46.3114 146.482 45.5501 145.762 44.8157 145.46C39.448 143.251 34.9998 141.214 29.4315 138.616C28.6583 138.256 27.8853 137.894 27.1124 137.533C25.2935 136.682 23.4538 135.825 21.8226 134.64C20.8102 133.905 20.6918 133.716 21.1257 132.55C21.4833 131.589 21.9096 130.654 22.4138 129.761C23.0038 128.715 23.6126 127.486 24.6892 126.859C25.7995 126.212 27.2783 126.647 28.4619 126.857C36.1203 128.216 40.3281 131.088 45.889 134.811Z" fill="#AEEA00"/>
<path d="M45.889 134.811C50.7912 138.093 51.0522 137.458 49.9641 140.671C49.6462 141.61 49.2163 142.507 48.7256 143.367C48.2848 144.139 47.755 145.309 47.0567 145.877C46.3114 146.482 45.5501 145.762 44.8157 145.46C39.448 143.251 34.9998 141.214 29.4315 138.616C28.6583 138.256 27.8853 137.894 27.1124 137.533C25.2935 136.682 23.4538 135.825 21.8226 134.64C20.8102 133.905 20.6918 133.716 21.1257 132.55C21.4833 131.589 21.9096 130.654 22.4138 129.761C23.0038 128.715 23.6126 127.486 24.6892 126.859C25.7995 126.212 27.2783 126.647 28.4619 126.857C36.1203 128.216 40.3281 131.088 45.889 134.811Z" fill="white" fill-opacity="0.32"/>
<path d="M46.8236 135.478C46.7765 135.478 46.729 135.465 46.6867 135.437C41.4365 131.978 35.7345 129.263 29.7398 127.366C25.5174 126.03 24.1723 126.621 21.6373 132.339C21.4369 132.792 21.2418 133.275 21.2534 133.755C21.2613 134.071 20.7662 134.114 20.7565 133.767C20.7429 133.184 20.9598 132.642 21.1831 132.138C23.5694 126.752 24.9463 125.328 29.8897 126.892C35.9281 128.803 41.6714 131.538 46.9605 135.021C47.1649 135.157 47.0707 135.478 46.8236 135.478Z" fill="#242422"/>
<path d="M65.8568 112.1C63.6403 112.835 61.3244 113.272 59.0185 113.581C56.9926 113.854 54.313 114.829 53.1841 113.213C54.5955 113.084 55.9969 112.587 57.0008 111.603C57.5674 111.046 57.9948 110.281 57.9152 109.486C57.7518 107.974 55.8469 107.041 54.0091 106.076C55.0303 105.719 59.591 104.681 64.4156 104.347C65.0201 104.312 65.7251 104.275 66.2047 104.695C67.2483 105.619 66.9502 108.442 67.1191 109.595C67.369 111.319 66.9304 111.731 65.8568 112.1Z" fill="#242422"/>
<path d="M26.7112 127.442C28.1204 121.096 29.7621 117.355 31.1432 113.798C31.5858 112.659 32.0041 111.583 32.6525 110.455C34.5871 107.116 37.2085 103.283 40.8962 102.161C41.8324 101.884 42.9394 101.875 44.2857 102.135C46.9716 102.654 51.9643 104.503 55.9349 106.857C56.9633 107.467 58.0319 108.254 58.162 109.459C58.2406 110.242 57.8805 111.087 57.1749 111.779C56.076 112.857 54.5345 113.379 52.9885 113.483C52.7775 113.471 52.0357 113.715 48.3177 113.019C47.5157 112.87 48.2588 113.006 42.6773 111.979C46.8295 115.408 46.4572 119.584 43.0947 121.838C41.0781 123.24 38.7919 123.19 38.8913 123.172C38.565 123.172 38.561 122.68 38.8879 122.675C40.3318 122.656 41.7553 122.163 42.8147 121.427C46.7171 118.811 45.5102 114.307 41.5004 111.742C41.4004 111.679 41.3597 111.552 41.4033 111.442C41.4465 111.332 41.5567 111.267 41.6795 111.288C49.2624 112.699 51.7476 113.225 53.1394 112.968C54.6512 112.829 55.9528 112.282 56.8269 111.425C57.4243 110.838 57.731 110.141 57.6679 109.51C57.5617 108.525 56.6041 107.832 55.6815 107.284C51.7808 104.974 46.8815 103.151 44.2003 102.622C42.9258 102.378 41.895 102.383 41.0394 102.637C37.4951 103.716 34.9332 107.509 33.083 110.704C32.4535 111.798 32.042 112.857 31.6066 113.978C30.2952 117.352 28.6611 120.95 27.1965 127.55C27.1255 127.87 26.6401 127.764 26.7112 127.442Z" fill="#242422"/>
<path d="M55.6432 101.49C54.146 101.49 52.8938 101.014 52.0246 100.094C48.1383 95.9767 54.2432 86.336 61.6277 84.7753C63.8903 84.2983 65.7845 84.7273 66.9701 85.9814C69.3836 88.538 67.9951 93.7829 63.8747 97.6733C61.6972 99.7291 58.6119 101.49 55.6432 101.49ZM61.7306 85.2616C54.5917 86.7712 48.848 96.0048 52.3857 99.7524C53.4485 100.876 55.1802 101.253 57.2642 100.813C59.3918 100.363 61.6185 99.12 63.5331 97.3122C69.7261 91.4648 68.7916 83.7722 61.7306 85.2616Z" fill="#242422"/>
<path d="M51.9321 95.5124C56.9474 95.8558 63.19 91.5898 64.8878 86.8281C65.8069 84.2505 64.9047 82.3933 63.2965 80.3379C63.1692 80.1752 63.0345 80.0117 62.8568 79.9062C62.3031 79.5774 62.0528 80.0809 61.8751 80.2291C61.474 80.5637 60.4087 80.2724 59.8943 80.292C59.1292 80.3211 58.3687 80.4468 57.628 80.6379C53.5395 81.6926 49.3727 85.0184 47.9151 88.7543C47.6395 89.4608 47.6327 90.2306 46.8561 90.6088C46.7162 90.6769 46.5564 90.7319 46.4731 90.8633C46.3517 91.0549 46.4514 91.3053 46.5587 91.5051C47.7419 93.7093 49.4358 95.3414 51.9321 95.5124Z" fill="#242422"/>
<path d="M58.5525 91.0624C63.0994 87.8995 65.2187 83.0833 63.2861 80.3051C61.3535 77.527 56.1009 77.839 51.5541 81.002C47.0072 84.1649 44.8879 88.9811 46.8205 91.7592C48.7531 94.5374 54.0057 94.2254 58.5525 91.0624Z" fill="#AEEA00"/>
<path d="M58.5525 91.0624C63.0994 87.8995 65.2187 83.0833 63.2861 80.3051C61.3535 77.527 56.1009 77.839 51.5541 81.002C47.0072 84.1649 44.8879 88.9811 46.8205 91.7592C48.7531 94.5374 54.0057 94.2254 58.5525 91.0624Z" fill="white" fill-opacity="0.32"/>
<path d="M61.0265 74.8546C61.022 74.4042 61.0175 73.9539 61.013 73.5035C60.9988 72.0756 60.2474 73.0966 59.7295 72.7336C59.1561 72.3317 59.8782 71.7292 56.9187 70.3731C51.1167 67.7146 43.7614 69.8887 42.2763 72.3035C42.0794 72.6236 41.9216 72.8858 41.4514 72.7542C41.3559 72.7275 41.2613 72.6855 41.1624 72.6919C40.6904 72.7225 40.7101 73.5446 40.723 73.9986C40.7321 74.3182 40.7333 74.6392 40.7504 74.9585C41.2199 83.7662 61.111 83.322 61.0265 74.8546Z" fill="#242422"/>
<path d="M50.9077 79.1263C56.4464 79.1144 60.9306 76.3613 60.9233 72.9771C60.9161 69.593 56.4201 66.8592 50.8814 66.871C45.3426 66.8829 40.8584 69.636 40.8657 73.0202C40.873 76.4044 45.3689 79.1382 50.9077 79.1263Z" fill="#AEEA00"/>
<path d="M50.9077 79.1263C56.4464 79.1144 60.9306 76.3613 60.9233 72.9771C60.9161 69.593 56.4201 66.8592 50.8814 66.871C45.3426 66.8829 40.8584 69.636 40.8657 73.0202C40.873 76.4044 45.3689 79.1382 50.9077 79.1263Z" fill="white" fill-opacity="0.32"/>
<path d="M40.1711 63.6092C39.8995 63.9205 39.4751 64.0916 39.0635 64.0559C39.005 64.0508 38.9423 64.0426 38.8904 64.0703C38.6714 64.1871 38.6872 64.9704 38.6984 65.2194C38.7502 66.3744 38.779 67.4627 39.3989 68.4727C42.6865 73.8293 55.4769 73.3429 58.3515 67.7455C58.9622 66.5566 58.8627 65.1113 58.8262 63.8109C58.8203 63.6032 58.7855 63.3541 58.5964 63.2681C58.2367 63.1047 57.8799 63.5988 57.5224 63.2845C57.0714 62.888 57.6546 62.2747 54.743 61.0309C47.7146 58.0281 38.2397 61.7064 38.7979 66.7694" fill="#242422"/>
<path d="M48.9477 69.9516C54.4824 69.7378 58.8632 66.823 58.7325 63.4413C58.6018 60.0596 54.0091 57.4916 48.4745 57.7055C42.9398 57.9194 38.5591 60.8342 38.6897 64.2158C38.8204 67.5975 43.4131 70.1655 48.9477 69.9516Z" fill="#AEEA00"/>
<path d="M48.9477 69.9516C54.4824 69.7378 58.8632 66.823 58.7325 63.4413C58.6018 60.0596 54.0091 57.4916 48.4745 57.7055C42.9398 57.9194 38.5591 60.8342 38.6897 64.2158C38.8204 67.5975 43.4131 70.1655 48.9477 69.9516Z" fill="white" fill-opacity="0.32"/>
<path d="M40.4478 53.7177C43.9377 58.0546 51.8288 60.1039 57.1553 58.2703C59.5456 57.4474 61.1564 55.6566 62.1622 53.3705C62.3552 52.9317 62.5111 52.4625 62.4915 51.9835C62.4691 51.4364 62.2092 51.3733 61.899 51.3098C60.8038 51.0853 60.5623 50.561 60.1135 49.696C59.6835 48.8671 58.7908 48.1732 58.0619 47.6168C54.6704 45.0277 49.6836 43.8041 45.5683 44.3689C44.6298 44.4977 43.7592 44.7588 42.8639 45.0534C42.2633 45.2509 41.0105 45.0316 40.5894 45.4107C40.4861 45.5036 40.4244 45.6329 40.3664 45.7591C39.0491 48.6228 37.8919 50.5414 40.4478 53.7177Z" fill="#242422"/>
<path d="M62.4778 52.3315C63.537 48.5984 59.4424 44.1668 53.3324 42.4332C47.2224 40.6996 41.4106 42.3205 40.3514 46.0536C39.2922 49.7867 43.3868 54.2183 49.4968 55.9519C55.6068 57.6855 61.4186 56.0645 62.4778 52.3315Z" fill="#AEEA00"/>
<path d="M62.4778 52.3315C63.537 48.5984 59.4424 44.1668 53.3324 42.4332C47.2224 40.6996 41.4106 42.3205 40.3514 46.0536C39.2922 49.7867 43.3868 54.2183 49.4968 55.9519C55.6068 57.6855 61.4186 56.0645 62.4778 52.3315Z" fill="white" fill-opacity="0.32"/>
<path d="M139.982 87.4799H107.213C105.482 87.4799 104.078 86.0765 104.078 84.3454C104.078 60.9105 104.192 68.9588 104.144 67.2246C104.128 66.6537 104.027 66.084 104.104 65.5132C104.066 65.7928 105.558 65.8882 105.729 65.8731C106.264 65.8262 106.654 65.5325 107.213 65.5325H139.982C140.424 65.5325 140.915 65.6158 141.309 65.8264C141.572 65.9669 141.769 66.3059 142.1 66.2532C142.605 66.1728 142.645 65.559 142.911 65.6402C143.181 67.2673 143.116 67.0518 143.116 84.3454C143.116 86.0765 141.713 87.4799 139.982 87.4799Z" fill="#242422"/>
<path d="M139.982 87.4799H107.213C105.482 87.4799 104.078 86.0765 104.078 84.3454C104.078 60.9105 104.192 68.9588 104.144 67.2246C104.128 66.6537 104.027 66.084 104.104 65.5132C104.066 65.7928 105.558 65.8882 105.729 65.8731C106.264 65.8262 106.654 65.5325 107.213 65.5325H139.982C140.424 65.5325 140.915 65.6158 141.309 65.8264C141.572 65.9669 141.769 66.3059 142.1 66.2532C142.605 66.1728 142.645 65.559 142.911 65.6402C143.181 67.2673 143.116 67.0518 143.116 84.3454C143.116 86.0765 141.713 87.4799 139.982 87.4799Z" fill="white" fill-opacity="0.82"/>
<path d="M141.008 56.6775C129.26 56.1607 117.651 56.1507 106.181 56.6775C105.098 56.6775 104.213 57.562 104.213 58.6455V65.4342C104.213 66.5174 105.098 67.4022 106.181 67.4022C117.373 67.8693 129.022 67.8295 141.008 67.4022C142.102 67.4022 142.986 66.5174 142.986 65.4342V58.6455C142.986 57.562 142.102 56.6775 141.008 56.6775ZM134.369 61.8858C134.369 62.2336 134.091 62.5119 133.743 62.5119H115.524C115.176 62.5119 114.888 62.2336 114.888 61.8858V60.226C114.888 59.878 115.166 59.5996 115.504 59.5996C118.426 59.5698 130.841 59.5996 133.753 59.6096C134.101 59.6096 134.369 59.8879 134.369 60.2358V61.8858Z" fill="#242422"/>
<path d="M141.008 56.6775C129.26 56.1607 117.651 56.1507 106.181 56.6775C105.098 56.6775 104.213 57.562 104.213 58.6455V65.4342C104.213 66.5174 105.098 67.4022 106.181 67.4022C117.373 67.8693 129.022 67.8295 141.008 67.4022C142.102 67.4022 142.986 66.5174 142.986 65.4342V58.6455C142.986 57.562 142.102 56.6775 141.008 56.6775ZM134.369 61.8858C134.369 62.2336 134.091 62.5119 133.743 62.5119H115.524C115.176 62.5119 114.888 62.2336 114.888 61.8858V60.226C114.888 59.878 115.166 59.5996 115.504 59.5996C118.426 59.5698 130.841 59.5996 133.753 59.6096C134.101 59.6096 134.369 59.8879 134.369 60.2358V61.8858Z" fill="white" fill-opacity="0.82"/>
<path d="M134.373 60.7815V62.5167H114.892V60.7815C115.017 60.7502 134.373 60.7815 134.373 60.7815Z" fill="#242422"/>
<path d="M124.263 42.2724C124.803 40.9505 125.37 39.4938 125.561 38.0718C125.644 37.4583 125.882 36.8728 125.989 36.2594C126.56 32.978 127.325 28.9755 124.15 28.1101C123.326 27.8853 123.003 27.7747 122.66 27.7967C122.387 27.8142 122.105 27.9387 121.97 28.1767C121.835 28.4151 121.871 28.7113 121.799 28.9758C121.667 29.4665 121.249 29.812 120.943 30.1883C120.556 30.6656 120.25 31.2098 119.944 31.7436C118.384 34.46 116.961 37.8985 116.748 41.0648C116.524 44.402 117.261 44.3278 116.646 45.4935C116.548 45.6794 116.43 45.8779 116.467 46.0849C116.521 46.3953 116.877 46.5373 117.18 46.6242C118.711 47.063 120.293 47.4555 121.605 46.3363C122.816 45.3029 123.657 43.7581 124.263 42.2724Z" fill="#242422"/>
<path d="M112.789 38.8897C113.8 36.6038 114.642 34.2071 114.847 31.716C115.052 29.2249 114.573 26.6148 113.136 24.5698C112.544 23.7267 111.944 23.54 111.065 23.1112C110.528 22.8491 109.889 22.4728 109.321 22.8203C109.131 22.9367 108.997 23.1238 108.852 23.2928C107.894 24.4046 106.587 25.1209 105.676 26.3123C102.932 29.9037 102.805 34.5621 103.671 39.0215C103.914 40.2754 104.628 40.6396 104.118 42.1253C104.021 42.4059 104.023 42.5944 104.49 42.7524C105.468 43.0834 106.614 43.4602 107.655 43.4846C108.537 43.5052 109.458 43.0321 110.158 42.5201C111.382 41.6248 112.186 40.2529 112.789 38.8897Z" fill="#242422"/>
<path d="M83.6775 37.8589C83.8401 38.0108 84.0444 37.9911 84.1543 38.2361C84.2685 38.4906 84.2631 39.2603 84.2806 40.0291C84.2897 40.4285 84.1006 41.0902 84.6487 41.2047C84.7793 41.232 84.9146 41.2137 85.0467 41.1951C85.9424 41.069 87.5614 40.9164 88.0067 39.978C88.3359 39.2841 88.3469 38.3942 88.3418 37.6442C88.3068 32.5513 85.1306 24.5054 82.3346 22.3673C81.4618 21.6999 80.4306 22.0651 78.903 22.3685C78.5946 22.4297 78.2759 22.4953 78.0194 22.6772C77.7629 22.8592 77.5849 23.1915 77.6805 23.4911C77.8238 23.94 78.3995 24.0311 79.5018 25.301C80.0616 25.946 79.9265 27.5298 80.0872 28.369C81.0107 33.1911 83.3291 37.5335 83.6775 37.8589Z" fill="#242422"/>
<path d="M54.5018 30.3067C52.1269 31.8588 57.3378 42.0436 62.2814 45.906C63.7788 47.076 65.1783 47.5052 66.8459 46.2814C67.0982 46.0963 66.993 45.8636 66.7815 45.6307C65.7089 44.4493 65.9901 44.8149 65.577 43.3674C64.507 39.6182 61.1703 34.3819 58.0184 31.682C57.5733 31.3007 56.9824 31.0304 56.7824 30.451C56.4947 29.6175 56.6141 29.2975 55.8087 29.6534C55.3648 29.8496 54.908 30.0413 54.5018 30.3067Z" fill="#242422"/>
<path d="M67.2691 46.1248C68.6692 45.2098 67.3735 40.7485 64.3751 36.1603C61.3766 31.572 57.8108 28.5942 56.4107 29.5093C55.0105 30.4243 56.3062 34.8855 59.3047 39.4738C62.3032 44.062 65.8689 47.0398 67.2691 46.1248Z" fill="#AEEA00"/>
<path d="M67.2691 46.1248C68.6692 45.2098 67.3735 40.7485 64.3751 36.1603C61.3766 31.572 57.8108 28.5942 56.4107 29.5093C55.0105 30.4243 56.3062 34.8855 59.3047 39.4738C62.3032 44.062 65.8689 47.0398 67.2691 46.1248Z" fill="white" fill-opacity="0.32"/>
<path d="M84.9705 41.3293C86.9426 40.662 87.1084 35.8864 85.3408 30.6627C83.5732 25.4391 80.5415 21.7454 78.5694 22.4128C76.5973 23.0801 76.4315 27.8557 78.1991 33.0794C79.9667 38.303 82.9983 41.9967 84.9705 41.3293Z" fill="#AEEA00"/>
<path d="M84.9705 41.3293C86.9426 40.662 87.1084 35.8864 85.3408 30.6627C83.5732 25.4391 80.5415 21.7454 78.5694 22.4128C76.5973 23.0801 76.4315 27.8557 78.1991 33.0794C79.9667 38.303 82.9983 41.9967 84.9705 41.3293Z" fill="white" fill-opacity="0.32"/>
<path d="M72.5382 40.4409C72.7289 40.733 72.871 40.6033 72.9984 41.3885C73.3483 43.5451 73.1575 44.1216 73.8416 44.172C75.6332 44.304 75.859 43.9806 75.4938 41.1139C74.8179 35.8075 71.7602 26.8449 69.6935 24.0792C69.0763 23.2533 68.5352 23.397 67.4989 23.4211C67.3094 23.4255 67.114 23.4324 66.9733 23.5722C66.8326 23.7121 66.7613 24.0234 66.8609 24.3532C66.9366 24.6039 67.0878 24.8039 67.2275 24.9924C68.9793 27.3588 68.5159 27.6986 69.0254 29.8862C70.1538 34.7308 72.2028 39.9271 72.5382 40.4409Z" fill="#242422"/>
<path d="M73.4133 44.4016C74.351 44.108 73.6468 39.1944 71.8403 33.4268C70.0339 27.6593 67.8093 23.2219 66.8717 23.5156C65.934 23.8093 66.6382 28.7229 68.4447 34.4904C70.2511 40.2579 72.4757 44.6953 73.4133 44.4016Z" fill="#AEEA00"/>
<path d="M73.4133 44.4016C74.351 44.108 73.6468 39.1944 71.8403 33.4268C70.0339 27.6593 67.8093 23.2219 66.8717 23.5156C65.934 23.8093 66.6382 28.7229 68.4447 34.4904C70.2511 40.2579 72.4757 44.6953 73.4133 44.4016Z" fill="white" fill-opacity="0.32"/>
<path d="M94.5632 30.0809C94.6606 31.4328 94.8102 32.7832 95.0242 34.1189C95.0851 34.4987 95.421 36.4183 95.5305 36.6526C95.6794 36.9713 95.9088 36.8768 95.8154 37.6736C95.7586 38.1592 95.6823 38.6389 95.6103 39.1171C95.5111 39.7768 95.2102 40.4185 95.9924 40.5779C98.1277 41.0129 98.6487 40.9302 99.1467 37.869C100.015 32.5334 99.0114 23.1031 97.2328 19.9756C96.7018 19.0419 95.944 19.0847 94.5998 18.9161C94.3524 18.885 94.0963 18.8553 93.8674 18.967C93.6385 19.0787 93.4434 19.3725 93.4639 19.7166C93.4947 20.2322 93.9205 20.5064 94.5419 22.1795C94.9826 23.366 94.1342 24.131 94.5632 30.0809Z" fill="#242422"/>
<path d="M95.3515 40.7263C96.6671 40.6304 97.3772 35.6648 96.9376 29.6354C96.498 23.6059 95.0752 18.7958 93.7596 18.8918C92.4439 18.9877 91.7338 23.9533 92.1734 29.9827C92.613 36.0121 94.0359 40.8222 95.3515 40.7263Z" fill="#AEEA00"/>
<path d="M95.3515 40.7263C96.6671 40.6304 97.3772 35.6648 96.9376 29.6354C96.498 23.6059 95.0752 18.7958 93.7596 18.8918C92.4439 18.9877 91.7338 23.9533 92.1734 29.9827C92.613 36.0121 94.0359 40.8222 95.3515 40.7263Z" fill="white" fill-opacity="0.32"/>
<path d="M110.919 38.4209C111.93 36.135 112.772 33.7383 112.977 31.2472C113.322 27.0544 111.553 23.8716 110.251 23.066C109.155 22.3871 107.703 22.7468 106.582 23.3837C104.117 24.7831 102.469 27.37 101.775 30.1183C101.082 32.8665 101.261 35.7702 101.801 38.5527C102.148 40.3396 103.052 42.9063 105.231 42.9821C108.169 43.0843 109.846 40.847 110.919 38.4209Z" fill="#AEEA00"/>
<path d="M110.919 38.4209C111.93 36.135 112.772 33.7383 112.977 31.2472C113.322 27.0544 111.553 23.8716 110.251 23.066C109.155 22.3871 107.703 22.7468 106.582 23.3837C104.117 24.7831 102.469 27.37 101.775 30.1183C101.082 32.8665 101.261 35.7702 101.801 38.5527C102.148 40.3396 103.052 42.9063 105.231 42.9821C108.169 43.0843 109.846 40.847 110.919 38.4209Z" fill="white" fill-opacity="0.32"/>
<path d="M121.748 41.3683C122.288 40.0463 122.855 38.5897 123.046 37.1677C123.129 36.5542 123.367 35.9687 123.474 35.3553C124.034 32.1361 124.819 27.3959 121.52 27.4205C120.67 27.4268 119.826 27.7545 119.194 28.3235C117.819 29.5611 114.547 35.4848 114.233 40.1607C114.133 41.6498 114.12 45.6383 115.943 46.2228C118.623 47.0819 120.689 43.9645 121.748 41.3683Z" fill="#AEEA00"/>
<path d="M121.748 41.3683C122.288 40.0463 122.855 38.5897 123.046 37.1677C123.129 36.5542 123.367 35.9687 123.474 35.3553C124.034 32.1361 124.819 27.3959 121.52 27.4205C120.67 27.4268 119.826 27.7545 119.194 28.3235C117.819 29.5611 114.547 35.4848 114.233 40.1607C114.133 41.6498 114.12 45.6383 115.943 46.2228C118.623 47.0819 120.689 43.9645 121.748 41.3683Z" fill="white" fill-opacity="0.32"/>
<path d="M131.112 53.7164C131.673 52.652 132.268 51.4768 132.546 50.2998C132.666 49.792 132.914 49.3204 133.054 48.8147C133.804 46.1092 134.775 42.8148 132.184 41.8273C131.51 41.5708 131.248 41.4514 130.959 41.4417C130.197 41.416 130.251 42.0663 130.14 42.3598C129.989 42.7605 129.609 43.0159 129.322 43.3064C128.545 44.0925 127.302 46.0644 126.666 47.2503C125.226 49.9367 124.686 52.2899 124.721 54.1675C124.733 54.8369 124.863 55.1755 124.457 55.7909C124.359 55.9388 124.244 56.0955 124.257 56.2722C124.278 56.537 124.564 56.6855 124.811 56.7833C126.059 57.2775 127.354 57.737 128.547 56.9063C129.648 56.1393 130.481 54.9128 131.112 53.7164Z" fill="#242422"/>
<path d="M128.985 52.9204C129.569 51.851 130.232 50.5133 130.511 49.3339C130.696 48.5516 133.015 42.9969 131.069 41.4109C130.442 40.8997 129.063 40.8198 128.008 41.5977C126.946 42.3804 125.259 45.1106 124.63 46.2843C123.816 47.8024 123.154 49.4193 122.871 51.1184C122.665 52.3593 122.325 55.7038 123.806 56.3444C126.067 57.3221 128.042 54.6451 128.985 52.9204Z" fill="#AEEA00"/>
<path d="M128.985 52.9204C129.569 51.851 130.232 50.5133 130.511 49.3339C130.696 48.5516 133.015 42.9969 131.069 41.4109C130.442 40.8997 129.063 40.8198 128.008 41.5977C126.946 42.3804 125.259 45.1106 124.63 46.2843C123.816 47.8024 123.154 49.4193 122.871 51.1184C122.665 52.3593 122.325 55.7038 123.806 56.3444C126.067 57.3221 128.042 54.6451 128.985 52.9204Z" fill="white" fill-opacity="0.32"/>
<path d="M104.09 66.1142C104.085 65.6268 102.187 66.0061 142.908 65.3916H142.911C143.238 65.3916 143.24 65.8851 142.914 65.8886C102.482 66.2656 104.095 66.6505 104.09 66.1142Z" fill="#242422"/>
<path d="M68.6688 116.298L67.2788 113.982C67.1093 113.701 67.5363 113.444 67.7049 113.727L69.0949 116.043C69.1657 116.16 69.1274 116.313 69.0095 116.383C68.8959 116.453 68.7411 116.418 68.6688 116.298Z" fill="#242422"/>
<path d="M68.0849 111.026C67.9761 110.534 68.7708 110.883 71.0968 109.747C71.398 109.606 71.6073 110.051 71.3152 110.194C70.3819 110.649 69.3948 110.993 68.3809 111.216C68.2451 111.245 68.1138 111.159 68.0849 111.026Z" fill="#242422"/>
<path d="M28.8842 91.6482C22.2804 86.8028 20.3435 76.5421 24.694 69.6097C22.2161 66.8979 22.3058 63.0045 22.841 59.3874C24.5649 47.7135 30.2402 36.8228 38.8207 28.7214C39.0579 28.4945 39.4018 28.8565 39.1619 29.0824C30.662 37.1077 25.0405 47.8959 23.3326 59.4602C22.8323 62.8432 22.699 66.5942 24.9745 69.1827C27.5767 65.3911 30.7194 65.5919 32.1985 67.5767C34.4742 70.6305 29.2137 73.9575 25.0516 69.9762C20.9138 76.6969 22.8056 86.5717 29.1783 91.2473C29.289 91.3284 29.3128 91.4842 29.2317 91.5948C29.1491 91.7069 28.9929 91.7282 28.8842 91.6482ZM25.3234 69.553C28.9797 73.1597 33.7357 70.474 31.8 67.8737C31.2045 67.0749 30.1883 66.5949 29.2691 66.6803C27.5156 66.841 26.1737 68.2877 25.3234 69.553Z" fill="#242422"/>
<path d="M57.2544 51.2982L55.8809 50.7077L56.1265 50.6145C55.6768 52.1691 54.5491 53.0232 54.1607 52.9795C53.8224 52.939 53.5394 52.5313 53.9024 52.3111C54.809 51.7594 55.1779 51.0742 55.4148 50.2554C55.7808 48.99 55.4862 47.8986 54.3188 47.3967C52.2148 46.4922 52.2034 49.973 50.3888 50.6346C49.437 50.9837 48.147 50.3846 47.4794 49.5899C46.8518 48.8414 46.5895 47.8208 46.8691 46.7144L47.007 46.8926C45.7028 46.3017 45.5652 46.3476 45.4474 46.1159C45.3567 45.9402 45.4044 45.7402 45.577 45.6679C45.7875 45.5777 45.8581 45.7131 47.1912 46.2558L47.0017 46.3067C47.2313 45.5766 47.8451 44.7993 48.6801 44.4816C48.9611 44.3756 49.335 44.6356 49.2442 44.9497C49.154 45.2613 48.1085 45.2492 47.6354 46.8847C47.2786 48.1184 47.7306 49.2735 48.9099 49.7805C49.3503 49.9698 49.7372 50.0012 50.07 49.8743C51.1556 49.4629 51.5151 47.1801 52.879 46.5588C54.2392 45.9392 56.8348 47.4325 56.2084 50.3314L56.0523 50.0655C57.4198 50.6824 57.5321 50.6335 57.6527 50.8529C57.7002 50.9398 57.5724 51.4349 57.2544 51.2982Z" fill="#242422"/>
<path d="M55.747 63.4142C55.5979 63.5906 55.4481 63.5026 54.0125 63.6181L54.1898 63.4243C54.4978 65.0641 53.8467 66.2927 53.5 66.4213C53.42 66.4503 53.3385 66.4596 53.2557 66.4486C53.0051 66.4133 52.7975 66.2143 52.9682 65.9408C53.1579 65.6362 53.3037 65.2879 53.4053 64.8947C53.5075 64.5021 53.5029 64.0116 53.3926 63.4243C53.2428 62.6267 52.8821 61.8741 52.142 61.5414C51.5119 61.2582 50.7691 61.3334 50.3843 61.5817C48.8825 62.5558 50.9217 66.4451 47.507 66.6543C45.9251 66.7512 44.541 65.7827 44.1679 64.1118L44.3714 64.2088C42.9408 64.2687 42.8386 64.3717 42.6291 64.2179C42.3627 64.0249 42.4594 63.667 42.785 63.647L44.249 63.5573L44.1027 63.6881C43.8985 62.4433 44.6157 61.2666 44.9783 61.1866C45.3416 61.1064 45.6334 61.4054 45.4241 61.7026C44.4429 62.9384 44.8748 64.7007 45.7774 65.4411C46.6771 66.1804 47.9731 66.0134 48.4491 65.4913C49.489 64.3555 47.9454 60.7909 50.9415 60.6074C52.5302 60.51 53.7236 61.5509 54.1354 63.1346L53.8763 62.9675C55.375 62.9024 55.4533 62.8081 55.6598 62.9497C55.7414 63.0059 55.8726 63.2663 55.747 63.4142Z" fill="#242422"/>
<path d="M61.3234 82.4647C61.2866 82.6915 61.1381 82.6762 59.9411 83.5321L59.9934 83.2747C61.1168 84.5396 61.1651 85.9234 60.9441 86.1994C60.8323 86.337 60.6692 86.4016 60.5111 86.386C60.3195 86.3672 60.2376 86.2527 60.2409 86.0611C60.2583 85 59.8758 84.3222 59.3099 83.6849C58.771 83.0782 58.0744 82.6185 57.2686 82.7141C56.5826 82.7954 55.9844 83.2422 55.7822 83.6532C55.1804 84.8838 57.2962 86.5305 56.9479 88.1375C56.6035 89.7415 53.699 91.0667 51.7541 89.0215L51.9784 88.9999L50.7693 89.8303C50.5902 89.9532 50.3615 89.9189 50.247 89.79C50.1325 89.6611 50.1501 89.4576 50.3291 89.3346L51.5383 88.5043L51.4802 88.6917C50.6645 87.7295 50.6739 86.3515 50.9436 86.0963C51.2122 85.8421 51.618 85.9448 51.5914 86.3094C51.4772 87.1796 51.7473 87.834 52.3072 88.4644C53.16 89.4246 54.378 89.6589 55.4362 88.9323C57.4523 87.5479 54.5666 85.7897 54.8303 83.8562C55.0324 82.3752 57.6806 80.9774 59.7977 83.0543L59.4895 83.0444L60.7334 82.1903C60.8184 82.1319 60.9105 82.1053 61.0096 82.1114C61.194 82.123 61.355 82.2733 61.3234 82.4647Z" fill="#242422"/>
<path d="M124.998 54.1834C124.947 54.0235 125.062 53.9082 125.539 52.7035L125.589 52.8895C124.77 52.8356 124.257 52.4207 124.05 51.9121C123.915 51.6116 124.361 51.0511 124.526 51.3712C124.638 51.5897 124.794 51.7805 124.995 51.9437C125.342 52.2282 126.18 52.3525 126.804 52.087C127.382 51.8406 127.779 51.3353 128.015 50.7609C128.986 48.3977 124.861 49.9178 126.185 46.6972C126.69 45.4672 127.769 44.4095 129.011 44.4369L128.874 44.5862C129.259 43.7558 129.378 43.0371 129.729 43.0601C129.871 43.0694 129.882 43.2417 129.824 43.3828L129.317 44.6154L129.294 44.4678C130.187 44.5536 130.852 45.632 130.262 46.0223C129.932 46.2405 130.065 45.7433 129.59 45.3574C129.205 45.045 128.333 44.9423 127.585 45.5055C126.962 45.9752 126.36 47.0809 126.531 47.7121C126.824 48.8056 129.584 48.2363 128.547 50.7595C128.059 51.9474 127.037 52.8756 125.786 52.9024L125.987 52.7209C125.458 53.9635 125.482 54.0592 125.314 54.2042C125.248 54.2606 125.042 54.3238 124.998 54.1834Z" fill="#242422"/>
<path d="M138.157 51.965C138.025 51.965 137.915 51.8616 137.909 51.7291C137.848 50.5173 137.91 49.2957 138.094 48.097C138.143 47.7756 138.635 47.8458 138.585 48.1727C138.121 51.1993 138.686 51.9389 138.17 51.9645C138.165 51.965 138.161 51.965 138.157 51.965Z" fill="#242422"/>
<path d="M139.318 53.2239C139.953 51.5758 140.829 50.0354 141.921 48.6454C142.126 48.3875 142.515 48.6938 142.312 48.9521C141.25 50.3033 140.399 51.8005 139.782 53.4025C139.663 53.7092 139.201 53.5309 139.318 53.2239Z" fill="#242422"/>
<path d="M141.49 54.6313C142.233 54.064 143.041 53.5767 143.89 53.1841C144.188 53.0462 144.398 53.4971 144.099 53.6355C143.283 54.013 142.506 54.4809 141.792 55.0264C141.533 55.2236 141.228 54.8325 141.49 54.6313Z" fill="#242422"/>
<path d="M135.322 77.9315C135.449 78.0985 135.585 78.2151 135.731 78.2814C135.88 78.3476 136.045 78.3808 136.228 78.3808C136.583 78.3808 136.858 78.2536 137.051 77.9991C137.247 77.742 137.345 77.3683 137.345 76.8779C137.345 76.6208 137.323 76.4022 137.278 76.2219C137.235 76.0391 137.172 75.8906 137.087 75.7767C137.005 75.66 136.903 75.5752 136.781 75.5222C136.659 75.4665 136.521 75.4387 136.367 75.4387C136.142 75.4387 135.946 75.4891 135.779 75.5898C135.615 75.6905 135.462 75.8336 135.322 76.0192V77.9315ZM135.282 75.4904C135.367 75.3897 135.457 75.2982 135.552 75.2161C135.65 75.1313 135.755 75.0597 135.866 75.0014C135.978 74.9404 136.096 74.894 136.22 74.8622C136.347 74.8278 136.483 74.8105 136.626 74.8105C136.856 74.8105 137.064 74.8556 137.25 74.9457C137.438 75.0358 137.598 75.1684 137.731 75.3433C137.863 75.5182 137.966 75.7342 138.037 75.9913C138.111 76.2484 138.148 76.544 138.148 76.8779C138.148 77.1774 138.107 77.4558 138.025 77.7129C137.946 77.9673 137.83 78.1886 137.679 78.3768C137.531 78.565 137.348 78.7134 137.131 78.8221C136.916 78.9281 136.673 78.9811 136.403 78.9811C136.162 78.9811 135.955 78.9414 135.783 78.8618C135.611 78.7823 135.457 78.671 135.322 78.5279V80.2812H134.546V74.8861H135.012C135.12 74.8861 135.188 74.9378 135.214 75.0411L135.282 75.4904Z" fill="black" fill-opacity="0.87"/>
<path d="M133.623 74.8857V78.9251H133.158C133.052 78.9251 132.983 78.8734 132.951 78.7701L132.895 78.3645C132.808 78.4573 132.717 78.5421 132.621 78.619C132.526 78.6958 132.424 78.7621 132.315 78.8178C132.206 78.8708 132.091 78.9119 131.969 78.941C131.847 78.9728 131.716 78.9887 131.575 78.9887C131.353 78.9887 131.157 78.9516 130.987 78.8774C130.82 78.8032 130.68 78.6998 130.566 78.5673C130.452 78.4321 130.366 78.2704 130.307 78.0823C130.249 77.8941 130.22 77.686 130.22 77.4581V74.8857H130.999V77.4581C130.999 77.747 131.065 77.9723 131.198 78.1339C131.33 78.293 131.533 78.3725 131.806 78.3725C132.005 78.3725 132.19 78.3261 132.363 78.2333C132.535 78.1379 132.697 78.008 132.848 77.8437V74.8857H133.623Z" fill="black" fill-opacity="0.87"/>
<path d="M127.038 76.4563C127.038 76.3026 127.015 76.1608 126.97 76.0309C126.928 75.901 126.864 75.7884 126.779 75.693C126.694 75.5975 126.591 75.5233 126.469 75.4703C126.347 75.4173 126.207 75.3908 126.048 75.3908C125.722 75.3908 125.465 75.4849 125.276 75.6731C125.091 75.8613 124.973 76.1223 124.923 76.4563H127.038ZM127.678 78.3488C127.582 78.4601 127.472 78.5568 127.348 78.639C127.223 78.7185 127.091 78.7834 126.95 78.8338C126.81 78.8842 126.664 78.9213 126.513 78.9451C126.364 78.969 126.217 78.9809 126.072 78.9809C125.793 78.9809 125.535 78.9345 125.296 78.8418C125.06 78.7463 124.855 78.6085 124.68 78.4283C124.508 78.2454 124.373 78.0201 124.274 77.7524C124.179 77.482 124.131 77.1719 124.131 76.8221C124.131 76.5411 124.175 76.28 124.263 76.0388C124.35 75.795 124.475 75.583 124.636 75.4027C124.801 75.2225 125.001 75.0807 125.237 74.9773C125.473 74.874 125.738 74.8223 126.032 74.8223C126.278 74.8223 126.505 74.8633 126.712 74.9455C126.921 75.025 127.101 75.1417 127.252 75.2954C127.403 75.4491 127.521 75.6386 127.606 75.8639C127.694 76.0892 127.737 76.3463 127.737 76.6352C127.737 76.7545 127.724 76.8353 127.698 76.8777C127.671 76.9175 127.622 76.9374 127.55 76.9374H124.903C124.911 77.1786 124.945 77.3893 125.006 77.5695C125.067 77.7471 125.15 77.8955 125.256 78.0148C125.365 78.1341 125.494 78.2229 125.642 78.2812C125.791 78.3395 125.956 78.3686 126.139 78.3686C126.311 78.3686 126.46 78.3488 126.584 78.309C126.712 78.2692 126.82 78.2268 126.91 78.1818C127.003 78.1341 127.08 78.0903 127.141 78.0506C127.205 78.0108 127.26 77.9909 127.308 77.9909C127.372 77.9909 127.421 78.0148 127.455 78.0625L127.678 78.3488Z" fill="black" fill-opacity="0.87"/>
<path d="M123.414 73.0571V78.9253H122.634V73.0571H123.414Z" fill="black" fill-opacity="0.87"/>
<path d="M118.567 78.9889C118.241 78.9889 117.99 78.8974 117.812 78.7145C117.637 78.5316 117.55 78.2706 117.55 77.9313V75.514H117.08C117.035 75.514 116.997 75.5008 116.965 75.4743C116.936 75.4451 116.921 75.4027 116.921 75.3471V75.033L117.577 74.9415L117.752 73.7369C117.763 73.6918 117.783 73.6574 117.812 73.6335C117.844 73.607 117.884 73.5938 117.931 73.5938H118.325V74.9495H120.17L120.348 73.7369C120.356 73.6918 120.375 73.6574 120.404 73.6335C120.436 73.607 120.476 73.5938 120.523 73.5938H120.921V74.9495H122.066V75.514H120.921V77.8796C120.921 78.0386 120.959 78.1579 121.036 78.2374C121.113 78.3143 121.214 78.3527 121.338 78.3527C121.41 78.3527 121.471 78.3435 121.521 78.3249C121.574 78.3063 121.619 78.2865 121.657 78.2653C121.694 78.2414 121.725 78.2202 121.752 78.2017C121.778 78.1831 121.802 78.1738 121.823 78.1738C121.847 78.1738 121.867 78.1804 121.883 78.1937C121.899 78.2043 121.915 78.2229 121.931 78.2494L122.161 78.6231C122.034 78.7397 121.882 78.8298 121.704 78.8934C121.529 78.957 121.348 78.9889 121.16 78.9889C120.834 78.9889 120.582 78.8974 120.404 78.7145C120.229 78.5316 120.142 78.2706 120.142 77.9313V75.514H118.325V77.8796C118.325 78.0386 118.363 78.1579 118.44 78.2374C118.52 78.3143 118.62 78.3527 118.742 78.3527C118.814 78.3527 118.875 78.3435 118.925 78.3249C118.978 78.3063 119.023 78.2865 119.06 78.2653C119.097 78.2414 119.129 78.2202 119.156 78.2017C119.182 78.1831 119.206 78.1738 119.227 78.1738C119.254 78.1738 119.274 78.1804 119.287 78.1937C119.303 78.2043 119.319 78.2229 119.335 78.2494L119.565 78.6231C119.438 78.7397 119.287 78.8298 119.112 78.8934C118.937 78.957 118.756 78.9889 118.567 78.9889Z" fill="black" fill-opacity="0.87"/>
<path d="M115.96 76.4563C115.96 76.3026 115.937 76.1608 115.892 76.0309C115.85 75.901 115.786 75.7884 115.702 75.693C115.617 75.5975 115.513 75.5233 115.391 75.4703C115.27 75.4173 115.129 75.3908 114.97 75.3908C114.644 75.3908 114.387 75.4849 114.199 75.6731C114.013 75.8613 113.895 76.1223 113.845 76.4563H115.96ZM116.6 78.3488C116.505 78.4601 116.395 78.5568 116.27 78.639C116.146 78.7185 116.013 78.7834 115.873 78.8338C115.732 78.8842 115.586 78.9213 115.435 78.9451C115.287 78.969 115.14 78.9809 114.994 78.9809C114.716 78.9809 114.457 78.9345 114.219 78.8418C113.983 78.7463 113.777 78.6085 113.602 78.4283C113.43 78.2454 113.295 78.0201 113.197 77.7524C113.101 77.482 113.054 77.1719 113.054 76.8221C113.054 76.5411 113.097 76.28 113.185 76.0388C113.272 75.795 113.397 75.583 113.559 75.4027C113.723 75.2225 113.923 75.0807 114.159 74.9773C114.395 74.874 114.66 74.8223 114.954 74.8223C115.201 74.8223 115.427 74.8633 115.634 74.9455C115.843 75.025 116.024 75.1417 116.175 75.2954C116.326 75.4491 116.444 75.6386 116.529 75.8639C116.616 76.0892 116.66 76.3463 116.66 76.6352C116.66 76.7545 116.646 76.8353 116.62 76.8777C116.593 76.9175 116.544 76.9374 116.473 76.9374H113.825C113.833 77.1786 113.867 77.3893 113.928 77.5695C113.989 77.7471 114.073 77.8955 114.179 78.0148C114.288 78.1341 114.416 78.2229 114.564 78.2812C114.713 78.3395 114.879 78.3686 115.061 78.3686C115.234 78.3686 115.382 78.3488 115.507 78.309C115.634 78.2692 115.743 78.2268 115.833 78.1818C115.926 78.1341 116.002 78.0903 116.063 78.0506C116.127 78.0108 116.183 77.9909 116.23 77.9909C116.294 77.9909 116.343 78.0148 116.377 78.0625L116.6 78.3488Z" fill="black" fill-opacity="0.87"/>
<path d="M112.255 74.1463C112.228 74.1913 112.2 74.2245 112.171 74.2457C112.142 74.2669 112.105 74.2775 112.06 74.2775C112.012 74.2775 111.958 74.2563 111.897 74.2139C111.836 74.1688 111.759 74.1198 111.666 74.0668C111.576 74.0111 111.467 73.9621 111.34 73.9197C111.213 73.8746 111.06 73.8521 110.883 73.8521C110.716 73.8521 110.569 73.8746 110.442 73.9197C110.317 73.9621 110.212 74.0217 110.128 74.0986C110.043 74.1728 109.978 74.2616 109.933 74.3649C109.89 74.4657 109.869 74.5757 109.869 74.6949C109.869 74.8487 109.908 74.9759 109.984 75.0766C110.064 75.1773 110.167 75.2635 110.294 75.335C110.422 75.4066 110.566 75.4689 110.728 75.5219C110.89 75.5749 111.055 75.6306 111.225 75.6889C111.394 75.7445 111.56 75.8095 111.722 75.8837C111.883 75.9579 112.028 76.052 112.155 76.166C112.282 76.2773 112.384 76.4151 112.461 76.5794C112.541 76.7411 112.581 76.9399 112.581 77.1758C112.581 77.4276 112.537 77.6635 112.449 77.8835C112.365 78.1035 112.24 78.2956 112.076 78.46C111.911 78.6243 111.709 78.7542 111.467 78.8496C111.229 78.9424 110.957 78.9888 110.652 78.9888C110.469 78.9888 110.292 78.9702 110.12 78.9331C109.947 78.8986 109.784 78.8496 109.631 78.786C109.477 78.7197 109.332 78.6415 109.197 78.5514C109.065 78.4587 108.945 78.3553 108.839 78.2413L109.082 77.8358C109.106 77.804 109.134 77.7775 109.165 77.7563C109.2 77.7351 109.238 77.7245 109.281 77.7245C109.336 77.7245 109.4 77.7536 109.472 77.8119C109.546 77.8702 109.636 77.9352 109.742 78.0067C109.851 78.0757 109.979 78.1393 110.128 78.1976C110.279 78.2559 110.461 78.285 110.676 78.285C110.851 78.285 111.007 78.2625 111.145 78.2175C111.283 78.1698 111.398 78.1035 111.491 78.0187C111.587 77.9312 111.659 77.8265 111.71 77.7046C111.76 77.5827 111.785 77.4475 111.785 77.2991C111.785 77.1321 111.747 76.9956 111.67 76.8896C111.593 76.7835 111.491 76.6947 111.364 76.6232C111.237 76.5516 111.092 76.4907 110.931 76.4403C110.769 76.3899 110.603 76.3383 110.434 76.2852C110.264 76.2296 110.098 76.166 109.937 76.0944C109.775 76.0228 109.631 75.9301 109.503 75.8161C109.376 75.6995 109.274 75.555 109.197 75.3827C109.12 75.2078 109.082 74.9931 109.082 74.7387C109.082 74.5346 109.122 74.3371 109.201 74.1463C109.281 73.9554 109.396 73.7871 109.547 73.6414C109.701 73.4929 109.889 73.375 110.112 73.2875C110.334 73.1974 110.589 73.1523 110.875 73.1523C111.196 73.1523 111.49 73.204 111.758 73.3074C112.028 73.4081 112.262 73.5539 112.461 73.7447L112.255 74.1463Z" fill="black" fill-opacity="0.87"/>
<path d="M121.656 98.2307C120.985 100.312 119.466 102.985 117.218 104.246C115.416 105.253 113.339 105.887 111.198 106.086C110.96 111.223 104.182 112.918 99.1776 112.782C98.3697 116.127 95.8194 119.361 92.318 121.468C92.0387 121.636 91.7835 121.212 92.0645 121.041C95.4203 119.022 97.8704 115.946 98.6739 112.764C97.8082 112.724 96.9333 112.627 96.0681 112.474C95.0241 112.293 93.7096 111.965 92.8049 111.031C91.944 110.133 91.622 108.515 92.5133 107.538C93.5902 106.375 97.4144 105.819 98.8281 107.81C99.6501 108.965 99.564 110.906 99.2875 112.288C102.851 112.379 108.344 111.364 110.101 108.24C110.455 107.617 110.656 106.906 110.702 106.126C107.824 106.315 105.007 105.743 102.532 104.458C100.614 103.458 99.0503 101.458 99.9281 99.7213C100.699 98.2215 102.758 98.0827 104.287 98.4181C107.959 99.2282 111.095 101.832 111.202 105.587C113.258 105.389 115.25 104.777 116.978 103.811C119.101 102.621 120.544 100.069 121.187 98.0774C121.287 97.7657 121.757 97.9167 121.656 98.2307ZM110.709 105.628C110.554 99.6099 101.837 97.0886 100.367 99.9484C99.5454 101.574 101.398 103.307 102.759 104.017C105.165 105.266 107.915 105.817 110.709 105.628ZM98.7867 112.272C99.0443 111.041 99.1711 109.146 98.4271 108.1C97.571 106.895 95.7563 106.826 94.3411 107.163C93.8595 107.278 93.2575 107.463 92.8753 107.876C92.184 108.634 92.4694 109.965 93.1592 110.685C93.9636 111.515 95.1817 111.816 96.1525 111.984C97.0278 112.139 97.9128 112.235 98.7867 112.272Z" fill="#242422"/>
</svg>
