<svg width="61" height="60" viewBox="0 0 61 60" fill="none" xmlns="http://www.w3.org/2000/svg">
<g clip-path="url(#clip0_1446_11853)">
<path d="M57.1188 42.9162C56.981 43.2081 56.8269 43.4999 56.6729 43.7918C56.6263 43.887 56.618 43.9963 56.6497 44.0974C56.6813 44.1985 56.7506 44.2836 56.8432 44.3351C56.8905 44.3605 56.9423 44.3762 56.9958 44.3814C57.0492 44.3865 57.1031 44.381 57.1544 44.3652C57.2057 44.3493 57.2533 44.3235 57.2946 44.2891C57.3358 44.2547 57.3697 44.2124 57.3945 44.1648C57.5486 43.8729 57.7026 43.5729 57.8486 43.2648C57.8761 43.2164 57.8934 43.1629 57.8993 43.1075C57.9052 43.0521 57.8997 42.9962 57.883 42.943C57.8663 42.8899 57.8389 42.8408 57.8024 42.7987C57.7659 42.7567 57.7212 42.7226 57.6709 42.6986C57.6207 42.6746 57.5661 42.6612 57.5104 42.6592C57.4548 42.6573 57.3993 42.6668 57.3475 42.6872C57.2957 42.7076 57.2487 42.7385 57.2093 42.7779C57.17 42.8173 57.1392 42.8643 57.1188 42.9162ZM60.0864 29.9999C60.0934 33.4776 59.4812 36.9288 58.2783 40.1918C58.2418 40.2929 58.2469 40.4043 58.2925 40.5016C58.3381 40.5989 58.4205 40.6742 58.5215 40.7108C58.571 40.7302 58.6238 40.7395 58.6769 40.7381C58.73 40.7367 58.7823 40.7247 58.8307 40.7028C58.879 40.6809 58.9225 40.6495 58.9586 40.6105C58.9946 40.5714 59.0224 40.5256 59.0405 40.4756C60.2719 37.1204 60.9005 33.574 60.8972 29.9999C60.8972 29.8924 60.8545 29.7893 60.7785 29.7133C60.7024 29.6373 60.5993 29.5945 60.4918 29.5945C60.3843 29.5945 60.2812 29.6373 60.2051 29.7133C60.1291 29.7893 60.0864 29.8924 60.0864 29.9999ZM15.1594 4.70265L15.9702 4.23238C16.0196 4.20801 16.0635 4.17382 16.0993 4.13189C16.1351 4.08996 16.1619 4.04119 16.1782 3.98854C16.1945 3.93589 16.1999 3.88047 16.194 3.82568C16.1881 3.77088 16.1712 3.71785 16.1441 3.66984C16.1171 3.62182 16.0805 3.57982 16.0367 3.54641C15.9929 3.51299 15.9427 3.48886 15.8892 3.47549C15.8358 3.46212 15.7802 3.45979 15.7258 3.46864C15.6714 3.4775 15.6194 3.49735 15.5729 3.52698C15.2972 3.68103 15.0296 3.84319 14.7621 4.00536C14.7161 4.03285 14.676 4.06919 14.6441 4.11227C14.6123 4.15535 14.5893 4.20431 14.5765 4.25634C14.5637 4.30836 14.5613 4.36241 14.5695 4.41536C14.5777 4.46831 14.5963 4.51911 14.6242 4.56482C14.6812 4.65605 14.7716 4.72148 14.876 4.74722C14.9805 4.77295 15.0908 4.75697 15.1837 4.70265H15.1594ZM5.47019 14.2135C7.31629 11.3007 9.65364 8.73013 12.3783 6.61617C12.4204 6.58156 12.4552 6.53901 12.4808 6.49095C12.5064 6.44288 12.5223 6.39024 12.5276 6.33603C12.5328 6.28182 12.5274 6.2271 12.5115 6.175C12.4956 6.1229 12.4697 6.07444 12.4351 6.03238C12.4004 5.99033 12.3579 5.95549 12.3098 5.92988C12.2618 5.90427 12.2091 5.88837 12.1549 5.8831C12.1007 5.87783 12.046 5.88329 11.9939 5.89916C11.9418 5.91504 11.8933 5.94102 11.8513 5.97563C9.06312 8.15006 6.67359 10.792 4.78911 13.7837C4.73767 13.8739 4.72278 13.9804 4.74751 14.0812C4.77224 14.182 4.8347 14.2695 4.92202 14.3256C5.00934 14.3818 5.11487 14.4023 5.21685 14.3829C5.31884 14.3635 5.40951 14.3058 5.47019 14.2216V14.2135Z" fill="#242422"/>
<g opacity="0.6">
<path d="M30.4919 57.5677C45.717 57.5677 58.0594 45.2253 58.0594 30.0002C58.0594 14.775 45.717 2.43262 30.4919 2.43262C15.2667 2.43262 2.92432 14.775 2.92432 30.0002C2.92432 45.2253 15.2667 57.5677 30.4919 57.5677Z" fill="#242422"/>
<path d="M30.4919 57.5677C45.717 57.5677 58.0594 45.2253 58.0594 30.0002C58.0594 14.775 45.717 2.43262 30.4919 2.43262C15.2667 2.43262 2.92432 14.775 2.92432 30.0002C2.92432 45.2253 15.2667 57.5677 30.4919 57.5677Z" fill="white" fill-opacity="0.82"/>
</g>
<path d="M44.5674 6.29199C50.2388 10.511 54.0729 16.7473 55.2776 23.7125C56.4822 30.6777 54.9653 37.8396 51.0402 43.7183C47.1152 49.597 41.082 53.7434 34.1871 55.3007C27.2922 56.8581 20.0625 55.7075 13.9917 52.0866C16.9911 54.3179 20.413 55.9158 24.0493 56.7832C27.6855 57.6506 31.4603 57.7694 35.1439 57.1323C38.8275 56.4952 42.3431 55.1156 45.4768 53.0773C48.6106 51.039 51.297 48.3847 53.3728 45.2756C55.4486 42.1666 56.8704 38.6679 57.5517 34.9922C58.233 31.3165 58.1596 27.5406 57.336 23.8942C56.5123 20.2477 54.9556 16.8069 52.7606 13.7809C50.5655 10.7549 47.778 8.20695 44.5674 6.29199Z" fill="#242422"/>
<path d="M44.5674 6.29199C50.2388 10.511 54.0729 16.7473 55.2776 23.7125C56.4822 30.6777 54.9653 37.8396 51.0402 43.7183C47.1152 49.597 41.082 53.7434 34.1871 55.3007C27.2922 56.8581 20.0625 55.7075 13.9917 52.0866C16.9911 54.3179 20.413 55.9158 24.0493 56.7832C27.6855 57.6506 31.4603 57.7694 35.1439 57.1323C38.8275 56.4952 42.3431 55.1156 45.4768 53.0773C48.6106 51.039 51.297 48.3847 53.3728 45.2756C55.4486 42.1666 56.8704 38.6679 57.5517 34.9922C58.233 31.3165 58.1596 27.5406 57.336 23.8942C56.5123 20.2477 54.9556 16.8069 52.7606 13.7809C50.5655 10.7549 47.778 8.20695 44.5674 6.29199Z" fill="white" fill-opacity="0.64"/>
<path d="M48.1272 20.6674L24.2002 44.5945L12.8569 33.235L18.1191 27.9728L24.2083 34.062L42.865 15.4053L48.1272 20.6674Z" fill="#B39DDB"/>
<path d="M48.1272 20.6674L24.2002 44.5945L12.8569 33.235L18.1191 27.9728L24.2083 34.062L42.865 15.4053L48.1272 20.6674Z" fill="white" fill-opacity="0.32"/>
<path d="M48.127 20.6673L47.8432 20.3835L24.1999 44.0187L13.4729 33.243L18.1594 28.5565L23.9648 34.3538C24.001 34.3928 24.045 34.4237 24.0938 34.4447C24.1427 34.4656 24.1954 34.4761 24.2486 34.4754C24.303 34.4762 24.357 34.4658 24.4072 34.4449C24.4574 34.424 24.5028 34.393 24.5405 34.3538L42.8648 15.9808L47.8432 20.9511L48.127 20.6673L48.4189 20.3835L43.1567 15.1214C43.119 15.0834 43.0742 15.0532 43.0248 15.0326C42.9754 15.0121 42.9224 15.0015 42.8689 15.0015C42.8153 15.0015 42.7624 15.0121 42.713 15.0326C42.6636 15.0532 42.6187 15.0834 42.581 15.1214L24.2081 33.4862L18.4108 27.689C18.3731 27.651 18.3282 27.6208 18.2788 27.6002C18.2294 27.5796 18.1764 27.569 18.1229 27.569C18.0694 27.569 18.0164 27.5796 17.967 27.6002C17.9176 27.6208 17.8728 27.651 17.8351 27.689L12.5729 32.9511C12.4986 33.0269 12.457 33.1288 12.457 33.2349C12.457 33.341 12.4986 33.4429 12.5729 33.5187L23.9243 44.87C23.9605 44.909 24.0044 44.9399 24.0533 44.9609C24.1022 44.9818 24.1549 44.9923 24.2081 44.9917C24.2624 44.9924 24.3164 44.9821 24.3666 44.9611C24.4168 44.9402 24.4622 44.9092 24.4999 44.87L48.4189 20.9511C48.4931 20.8753 48.5348 20.7734 48.5348 20.6673C48.5348 20.5612 48.4931 20.4593 48.4189 20.3835L48.127 20.6673Z" fill="#242422"/>
<path d="M58.0677 29.9998H57.6623C57.6608 36.2817 55.4813 42.3688 51.4951 47.224C47.5089 52.0792 41.9627 55.4021 35.8013 56.6266C29.6399 57.8511 23.2445 56.9014 17.7047 53.9394C12.165 50.9774 7.82357 46.1863 5.42015 40.3823C3.01674 34.5784 2.70001 28.1206 4.52393 22.1093C6.34785 16.098 10.1996 10.9051 15.4229 7.41518C20.6462 3.92528 26.9179 2.35436 33.1696 2.97004C39.4213 3.58573 45.2661 6.34994 49.7082 10.7917C52.234 13.3112 54.2363 16.3054 55.6 19.602C56.9638 22.8986 57.6619 26.4324 57.6542 29.9998H58.465C58.465 24.467 56.8242 19.0584 53.7501 14.458C50.6761 9.85774 46.3068 6.27238 41.195 4.15541C36.0831 2.03844 30.4582 1.48495 25.0318 2.56495C19.6053 3.64496 14.6211 6.30993 10.7093 10.2228C6.79752 14.1357 4.13399 19.1208 3.05556 24.5476C1.97713 29.9743 2.53225 35.599 4.6507 40.7103C6.76915 45.8215 10.3558 50.1897 14.957 53.2625C19.5582 56.3352 24.9673 57.9744 30.5001 57.9728C34.1732 57.9728 37.8103 57.2492 41.2037 55.8433C44.5971 54.4375 47.6803 52.3769 50.2772 49.7792C52.874 47.1816 54.9337 44.0978 56.3386 40.704C57.7435 37.3102 58.4661 33.6729 58.465 29.9998H58.0677Z" fill="#242422"/>
<path d="M40.2295 9.30826V9.21096C40.2951 8.87687 40.2398 8.53035 40.0734 8.23329C39.9071 7.93623 39.6405 7.70799 39.3214 7.58934C38.9217 7.42483 38.506 7.30254 38.0809 7.22447C37.9236 7.18268 37.7591 7.1752 37.5987 7.20253C37.4383 7.22985 37.2856 7.29136 37.1511 7.38287C37.0165 7.47438 36.9032 7.59375 36.8188 7.7329C36.7344 7.87204 36.6809 8.02771 36.6619 8.18934C36.6267 8.54112 36.7233 8.89345 36.933 9.17807C37.1427 9.46269 37.4506 9.65932 37.7971 9.72988C38.132 9.78737 38.4588 9.88539 38.77 10.0218C39.0582 10.12 39.3736 10.1 39.6471 9.9663C39.9206 9.83259 40.13 9.59598 40.2295 9.30826ZM34.4403 8.33528C34.503 8.1941 34.5414 8.04332 34.5538 7.88934C34.5506 7.54403 34.4224 7.21158 34.1928 6.95365C33.9631 6.69571 33.6478 6.52979 33.3052 6.48664C27.8561 5.87639 22.36 7.11267 17.6971 9.99745C17.564 10.0986 17.4521 10.225 17.3678 10.3694C17.2836 10.5137 17.2286 10.6733 17.206 10.839C17.1834 11.0046 17.1937 11.1731 17.2362 11.3347C17.2787 11.4964 17.3527 11.6481 17.4538 11.7812C17.633 12.0684 17.918 12.2736 18.2472 12.3525C18.5764 12.4314 18.9234 12.3776 19.2133 12.2029C23.425 9.65576 28.3524 8.5513 33.2484 9.05691C33.4994 9.08913 33.7539 9.03532 33.9704 8.90425C34.1869 8.77319 34.3525 8.57262 34.4403 8.33528Z" fill="#242422"/>
<path d="M40.2295 9.30826V9.21096C40.2951 8.87687 40.2398 8.53035 40.0734 8.23329C39.9071 7.93623 39.6405 7.70799 39.3214 7.58934C38.9217 7.42483 38.506 7.30254 38.0809 7.22447C37.9236 7.18268 37.7591 7.1752 37.5987 7.20253C37.4383 7.22985 37.2856 7.29136 37.1511 7.38287C37.0165 7.47438 36.9032 7.59375 36.8188 7.7329C36.7344 7.87204 36.6809 8.02771 36.6619 8.18934C36.6267 8.54112 36.7233 8.89345 36.933 9.17807C37.1427 9.46269 37.4506 9.65932 37.7971 9.72988C38.132 9.78737 38.4588 9.88539 38.77 10.0218C39.0582 10.12 39.3736 10.1 39.6471 9.9663C39.9206 9.83259 40.13 9.59598 40.2295 9.30826ZM34.4403 8.33528C34.503 8.1941 34.5414 8.04332 34.5538 7.88934C34.5506 7.54403 34.4224 7.21158 34.1928 6.95365C33.9631 6.69571 33.6478 6.52979 33.3052 6.48664C27.8561 5.87639 22.36 7.11267 17.6971 9.99745C17.564 10.0986 17.4521 10.225 17.3678 10.3694C17.2836 10.5137 17.2286 10.6733 17.206 10.839C17.1834 11.0046 17.1937 11.1731 17.2362 11.3347C17.2787 11.4964 17.3527 11.6481 17.4538 11.7812C17.633 12.0684 17.918 12.2736 18.2472 12.3525C18.5764 12.4314 18.9234 12.3776 19.2133 12.2029C23.425 9.65576 28.3524 8.5513 33.2484 9.05691C33.4994 9.08913 33.7539 9.03532 33.9704 8.90425C34.1869 8.77319 34.3525 8.57262 34.4403 8.33528Z" fill="white" fill-opacity="0.82"/>
</g>
<defs>
<clipPath id="clip0_1446_11853">
<rect width="60" height="60" fill="white" transform="translate(0.5)"/>
</clipPath>
</defs>
</svg>
