<svg width="19" height="18" viewBox="0 0 19 18" fill="none" xmlns="http://www.w3.org/2000/svg">
<mask id="mask0_997_5698" style="mask-type:luminance" maskUnits="userSpaceOnUse" x="3" y="3" width="13" height="12">
<path d="M15.3605 7.90909H9.63953V10.2273H12.9326C12.6256 11.7 11.3419 12.5455 9.63953 12.5455C7.63023 12.5455 6.01163 10.9636 6.01163 9C6.01163 7.03636 7.63023 5.45455 9.63953 5.45455C10.5047 5.45455 11.286 5.75455 11.9 6.24545L13.686 4.5C12.5977 3.57273 11.2023 3 9.63953 3C6.23488 3 3.5 5.67273 3.5 9C3.5 12.3273 6.23488 15 9.63953 15C12.7093 15 15.5 12.8182 15.5 9C15.5 8.64545 15.4442 8.26364 15.3605 7.90909Z" fill="white"/>
</mask>
<g mask="url(#mask0_997_5698)">
<path d="M2.95453 12.5455V5.45459L7.59089 9.00004L2.95453 12.5455Z" fill="#FCA700"/>
</g>
<mask id="mask1_997_5698" style="mask-type:luminance" maskUnits="userSpaceOnUse" x="3" y="3" width="13" height="12">
<path d="M15.3605 7.90909H9.63953V10.2273H12.9326C12.6256 11.7 11.3419 12.5455 9.63953 12.5455C7.63023 12.5455 6.01163 10.9636 6.01163 9C6.01163 7.03636 7.63023 5.45455 9.63953 5.45455C10.5047 5.45455 11.286 5.75455 11.9 6.24545L13.686 4.5C12.5977 3.57273 11.2023 3 9.63953 3C6.23488 3 3.5 5.67273 3.5 9C3.5 12.3273 6.23488 15 9.63953 15C12.7093 15 15.5 12.8182 15.5 9C15.5 8.64545 15.4442 8.26364 15.3605 7.90909Z" fill="white"/>
</mask>
<g mask="url(#mask1_997_5698)">
<path d="M2.95453 5.45459L7.59089 9.00004L9.49998 7.33641L16.0454 6.27277V2.45459H2.95453V5.45459Z" fill="#D60000"/>
</g>
<mask id="mask2_997_5698" style="mask-type:luminance" maskUnits="userSpaceOnUse" x="3" y="3" width="13" height="12">
<path d="M15.3605 7.90909H9.63953V10.2273H12.9326C12.6256 11.7 11.3419 12.5455 9.63953 12.5455C7.63023 12.5455 6.01163 10.9636 6.01163 9C6.01163 7.03636 7.63023 5.45455 9.63953 5.45455C10.5047 5.45455 11.286 5.75455 11.9 6.24545L13.686 4.5C12.5977 3.57273 11.2023 3 9.63953 3C6.23488 3 3.5 5.67273 3.5 9C3.5 12.3273 6.23488 15 9.63953 15C12.7093 15 15.5 12.8182 15.5 9C15.5 8.64545 15.4442 8.26364 15.3605 7.90909Z" fill="white"/>
</mask>
<g mask="url(#mask2_997_5698)">
<path d="M2.95453 12.5455L11.1363 6.27277L13.2909 6.5455L16.0454 2.45459V15.5455H2.95453V12.5455Z" fill="#0E9600"/>
</g>
<mask id="mask3_997_5698" style="mask-type:luminance" maskUnits="userSpaceOnUse" x="3" y="3" width="13" height="12">
<path d="M15.3605 7.90909H9.63953V10.2273H12.9326C12.6256 11.7 11.3419 12.5455 9.63953 12.5455C7.63023 12.5455 6.01163 10.9636 6.01163 9C6.01163 7.03636 7.63023 5.45455 9.63953 5.45455C10.5047 5.45455 11.286 5.75455 11.9 6.24545L13.686 4.5C12.5977 3.57273 11.2023 3 9.63953 3C6.23488 3 3.5 5.67273 3.5 9C3.5 12.3273 6.23488 15 9.63953 15C12.7093 15 15.5 12.8182 15.5 9C15.5 8.64545 15.4442 8.26364 15.3605 7.90909Z" fill="white"/>
</mask>
<g mask="url(#mask3_997_5698)">
<path d="M16.0455 15.5455L7.59091 9.00004L6.5 8.18186L16.0455 5.45459V15.5455Z" fill="#3E6EEC"/>
</g>
</svg>
