<svg width="24" height="24" viewBox="0 0 24 24" fill="none" xmlns="http://www.w3.org/2000/svg">
<path fill-rule="evenodd" clip-rule="evenodd" d="M17.6 5.00016H6.4C6.03425 4.99455 5.68126 5.13448 5.4187 5.38917C5.15614 5.64384 5.00553 5.99241 5 6.35814V14.5001C5.00553 14.8658 5.15614 15.2144 5.4187 15.4691C5.68126 15.7236 6.03425 15.8636 6.4 15.858H10.27C10.4881 15.8568 10.7035 15.9054 10.9 16L16 19V16H18C18 16 19 16 19 15V6.35814C18.9945 5.99241 18.8439 5.64384 18.5813 5.38917C18.3187 5.13448 17.9657 4.99455 17.6 5.00016Z" stroke="black" stroke-opacity="0.87" stroke-width="2" stroke-linecap="round" stroke-linejoin="round"/>
<path d="M9 9L15 9" stroke="black" stroke-opacity="0.87" stroke-width="2" stroke-linecap="round"/>
<path d="M9 12L15 12" stroke="black" stroke-opacity="0.87" stroke-width="2" stroke-linecap="round"/>
</svg>
