<svg width="165" height="165" viewBox="0 0 165 165" fill="none" xmlns="http://www.w3.org/2000/svg">
<path d="M107.712 44.2975C106.967 43.8997 107.373 42.9721 107.046 41.4233C106.908 40.7751 106.766 40.7291 106.219 40.467C105.684 40.2096 105.131 39.9436 105.124 39.4813C105.118 39.0946 105.505 38.8495 105.795 38.6988C107.121 38.001 108.922 37.906 109.41 37.8294C110.084 37.775 110.66 37.7044 111.079 37.935C111.432 38.1394 111.657 38.5529 111.674 39.0184C111.759 40.3881 109.379 43.7921 108.685 44.2336C108.494 44.3447 108.019 44.4679 107.712 44.2975ZM109.378 38.3823C107.894 38.5255 106.803 38.7883 106.047 39.1863C105.699 39.3665 105.67 39.4748 105.67 39.4748C105.71 39.6781 106.771 40.0732 107.075 40.3179C107.651 40.7941 107.752 42.2136 107.752 42.9566C107.752 43.3315 107.769 43.7064 107.971 43.8148C108.299 43.9971 108.641 43.5585 108.812 43.3487C111.366 40.048 111.181 38.931 111.129 39.0409C111.119 38.7706 110.992 38.5185 110.812 38.4134C110.546 38.268 110.064 38.3275 109.378 38.3823Z" fill="#DDDDDB"/>
<path d="M107.712 44.2975C106.967 43.8997 107.373 42.9721 107.046 41.4233C106.908 40.7751 106.766 40.7291 106.219 40.467C105.684 40.2096 105.131 39.9436 105.124 39.4813C105.118 39.0946 105.505 38.8495 105.795 38.6988C107.121 38.001 108.922 37.906 109.41 37.8294C110.084 37.775 110.66 37.7044 111.079 37.935C111.432 38.1394 111.657 38.5529 111.674 39.0184C111.759 40.3881 109.379 43.7921 108.685 44.2336C108.494 44.3447 108.019 44.4679 107.712 44.2975ZM109.378 38.3823C107.894 38.5255 106.803 38.7883 106.047 39.1863C105.699 39.3665 105.67 39.4748 105.67 39.4748C105.71 39.6781 106.771 40.0732 107.075 40.3179C107.651 40.7941 107.752 42.2136 107.752 42.9566C107.752 43.3315 107.769 43.7064 107.971 43.8148C108.299 43.9971 108.641 43.5585 108.812 43.3487C111.366 40.048 111.181 38.931 111.129 39.0409C111.119 38.7706 110.992 38.5185 110.812 38.4134C110.546 38.268 110.064 38.3275 109.378 38.3823Z" fill="#0D0D0D" fill-opacity="0.64"/>
<path d="M104.882 108.739C84.9883 105.281 61.8268 104.823 42.2508 110.694C43.2006 109.881 44.3032 108.97 44.3251 107.696C44.3359 106.619 43.5718 105.598 42.5674 105.345C41.2355 105.005 40.2529 106.092 39.2704 106.861C39.1831 106.927 39.0957 106.993 39.0084 107.07C39.4451 106.542 39.7617 105.938 39.6525 105.29C39.5215 104.543 38.8119 104.027 38.0804 103.972C37.3599 103.917 36.6503 104.225 36.028 104.653C36.0171 104.653 36.0171 104.664 36.0062 104.664C34.0737 106.004 31.8785 108.099 31.4537 110.442C31.2136 111.815 31.4756 113.199 31.8467 114.517C28.0476 116.219 24.3795 118.251 20.9951 120.668C21.1153 119.646 21.4537 118.537 21.6829 117.405C22.6764 112.54 23.9973 107.729 25.6349 103.038C28.2058 95.5905 28.4576 94.9206 34.183 88.6165C36.1936 86.3715 39.3561 84.2436 43.9429 82.9378C44.1504 82.8829 44.3578 82.817 44.5652 82.773C48.2989 86.903 53.6919 89.2316 59.3688 89.5831C66.3449 90.0115 73.4628 90.6156 79.511 86.4856C81.2359 85.3104 82.7424 83.8495 83.9869 82.1909C84.904 82.3666 85.821 82.5753 86.7053 82.828C86.6944 84.9039 86.3778 86.9799 85.9957 89.012C85.7992 90.0994 84.2599 93.9328 84.8712 94.7236C85.6477 95.7653 88.7552 95.7796 90.0023 95.8C98.7947 95.9387 99.0213 95.9961 99.5221 95.7671C100.112 95.4925 100.221 94.5589 100.177 93.5813C101.629 96.1955 102.699 99.0513 103.55 101.918C104.216 104.181 104.598 106.454 104.882 108.739Z" fill="#AEEA00"/>
<path d="M104.882 108.739C84.9883 105.281 61.8268 104.823 42.2508 110.694C43.2006 109.881 44.3032 108.97 44.3251 107.696C44.3359 106.619 43.5718 105.598 42.5674 105.345C41.2355 105.005 40.2529 106.092 39.2704 106.861C39.1831 106.927 39.0957 106.993 39.0084 107.07C39.4451 106.542 39.7617 105.938 39.6525 105.29C39.5215 104.543 38.8119 104.027 38.0804 103.972C37.3599 103.917 36.6503 104.225 36.028 104.653C36.0171 104.653 36.0171 104.664 36.0062 104.664C34.0737 106.004 31.8785 108.099 31.4537 110.442C31.2136 111.815 31.4756 113.199 31.8467 114.517C28.0476 116.219 24.3795 118.251 20.9951 120.668C21.1153 119.646 21.4537 118.537 21.6829 117.405C22.6764 112.54 23.9973 107.729 25.6349 103.038C28.2058 95.5905 28.4576 94.9206 34.183 88.6165C36.1936 86.3715 39.3561 84.2436 43.9429 82.9378C44.1504 82.8829 44.3578 82.817 44.5652 82.773C48.2989 86.903 53.6919 89.2316 59.3688 89.5831C66.3449 90.0115 73.4628 90.6156 79.511 86.4856C81.2359 85.3104 82.7424 83.8495 83.9869 82.1909C84.904 82.3666 85.821 82.5753 86.7053 82.828C86.6944 84.9039 86.3778 86.9799 85.9957 89.012C85.7992 90.0994 84.2599 93.9328 84.8712 94.7236C85.6477 95.7653 88.7552 95.7796 90.0023 95.8C98.7947 95.9387 99.0213 95.9961 99.5221 95.7671C100.112 95.4925 100.221 94.5589 100.177 93.5813C101.629 96.1955 102.699 99.0513 103.55 101.918C104.216 104.181 104.598 106.454 104.882 108.739Z" fill="#0D0D0D" fill-opacity="0.32"/>
<path d="M121.869 113.218C107.462 108.422 89.5801 106.476 75.5023 106.476C75.141 106.476 75.1413 105.927 75.5023 105.927C89.987 105.927 107.782 107.95 122.04 112.696C134.168 116.729 143.589 122.837 151.689 131.918C151.789 132.031 151.78 132.205 151.668 132.306C150.733 133.151 144.078 120.604 121.869 113.218Z" fill="#DDDDDB"/>
<path d="M12.7729 128.257C12.7079 128.257 12.6434 128.234 12.5911 128.188C12.4786 128.087 12.4691 127.913 12.5693 127.8C17.826 121.876 24.609 117.458 31.7345 114.266C32.0638 114.118 32.287 114.62 31.9562 114.768C24.9204 117.92 18.1892 122.292 12.9765 128.166C12.9227 128.226 12.8481 128.257 12.7729 128.257Z" fill="#DDDDDB"/>
<path d="M32.9817 81.1887C25.6792 81.1887 21.05 74.204 22.1333 68.0294C22.9841 63.2315 27.2561 59.2578 32.0702 58.7859C34.6816 58.537 38.0303 59.4981 39.2345 62.221C39.3814 62.5527 38.8818 62.7767 38.7356 62.4441C37.6417 59.9695 34.5425 59.0996 32.1229 59.3329C27.5439 59.7818 23.4804 63.5618 22.6707 68.1254C21.8711 72.6831 24.3882 77.6372 28.5253 79.6489C32.5702 81.6151 37.928 80.587 40.9899 77.2601C41.2356 76.9937 41.6354 77.3667 41.3908 77.6334C39.2724 79.9342 36.1086 81.1887 32.9817 81.1887Z" fill="#DDDDDB"/>
<path d="M98.8224 79.844C98.8331 79.8343 98.8667 79.8139 98.912 79.7989C104.398 76.9561 107.01 68.7622 101.865 63.1551C101.619 62.8886 102.022 62.516 102.265 62.7829C107.631 68.6266 104.995 77.2657 99.122 80.3041C99.0746 80.3293 99.0415 80.3492 98.9973 80.3642C98.648 80.4813 98.4859 79.9589 98.8224 79.844Z" fill="#DDDDDB"/>
<path d="M66.3247 90.1619C64.0624 90.1619 61.7505 90.0067 59.3517 89.8573C53.3734 89.4872 48.0503 87.0373 44.3625 82.9585C36.1859 73.9362 36.6708 54.2744 47.1361 48.2325C47.4484 48.0523 47.7217 48.5271 47.4079 48.7088C37.2217 54.5892 36.826 73.8284 44.7661 82.5885C51.026 89.513 59.737 89.2659 60.1066 89.3537C66.7368 89.7661 73.5941 90.193 79.3565 86.2585C82.1228 84.3745 84.3263 81.6887 85.7186 78.9146C85.878 78.5927 86.3693 78.8347 86.2058 79.1624C84.8116 81.9383 82.5647 84.7355 79.663 86.7134C75.5723 89.5065 70.9869 90.1619 66.3247 90.1619Z" fill="#DDDDDB"/>
<path d="M64.1822 68.4357C63.951 67.7328 66.2494 67.9735 68.0282 66.786C69.7567 65.6387 69.1736 64.1014 68.9051 62.0867C68.1968 56.7925 67.6321 53.5591 66.9312 48.3058C66.8837 47.954 67.4214 47.8603 67.4717 48.2329C67.6343 49.4497 69.5375 62.6271 69.573 62.8451C69.8444 64.5028 70.0997 66.0689 68.3294 67.244C67.0545 68.095 65.8853 68.1542 64.5276 68.6095C64.4988 68.6191 64.2311 68.5821 64.1822 68.4357Z" fill="#DDDDDB"/>
<path d="M59.0079 58.9097C59.0079 59.9606 58.5029 60.813 57.8814 60.813C57.2589 60.813 56.7539 59.9606 56.7539 58.9097C56.7539 57.8587 57.2589 57.0063 57.8814 57.0063C58.5029 57.0063 59.0079 57.8587 59.0079 58.9097Z" fill="#DDDDDB"/>
<path d="M92.5859 42.7147C91.2838 41.2767 89.4001 39.7601 87.4658 39.5733C86.1756 39.4393 84.7803 39.9796 84.1243 41.0794C84.139 41.1225 84.1613 41.1635 84.1527 41.2114C83.6629 43.9095 84.1241 44.5473 83.6063 44.5473C83.4555 44.5473 83.3329 44.4245 83.3329 44.2733C83.3318 43.2162 83.4267 42.1526 83.6154 41.1127C83.6426 40.963 83.7881 40.8649 83.9331 40.8917C83.9792 40.9002 84.0081 40.9352 84.0422 40.9628C84.5099 38.21 83.5205 35.2545 81.5269 33.3014C79.4526 31.2694 76.4176 30.3248 73.5464 30.6653C71.3849 30.9289 68.9504 32.4666 69.1905 34.6524C67.0944 31.0497 62.6621 29.0067 58.59 29.7536C54.5801 30.4999 51.2004 33.9106 50.4518 37.9372C50.5717 37.937 50.6871 37.9983 50.7206 38.1205C50.9872 39.0934 51.1401 40.0974 51.1764 41.1041C51.1817 41.2553 51.0639 41.383 50.9131 41.3884C50.9099 41.3884 50.9067 41.3884 50.9035 41.3884C50.7569 41.3884 50.6359 41.272 50.6305 41.1234C50.5964 40.1596 50.4493 39.198 50.194 38.2664C50.169 38.175 50.204 38.0926 50.2609 38.0257C47.2521 36.0695 43.5454 34.4333 40.2383 35.7728C35.9915 37.4903 33.1111 44.6666 35.2037 49.2538C35.226 49.2239 35.2374 49.1867 35.2719 49.1672C35.4031 49.0954 35.5694 49.1409 35.6435 49.274C36.143 50.1793 36.5236 51.1473 36.7746 52.1519C36.8109 52.2988 36.7224 52.4485 36.5763 52.4855C36.554 52.4908 36.5316 52.4935 36.5097 52.4935C36.3871 52.4935 36.2762 52.4104 36.2448 52.286C36.006 51.3275 35.6429 50.404 35.1659 49.541C35.1606 49.5315 35.1665 49.5208 35.1625 49.5109C33.1181 48.4827 30.4261 49.3376 29.0264 51.1833C27.5963 53.0835 27.4325 55.7416 28.1639 58.0153C28.3714 58.6634 28.6989 59.2675 29.0919 59.8496C30.0417 59.4322 31.057 59.1576 32.0941 59.0588C34.7906 58.7952 37.8802 59.8387 38.9829 62.332L39.223 63.8478C39.4632 60.6954 40.151 56.9718 41.5047 54.83C45.8281 48.0103 50.2797 45.1071 59.256 44.5051C64.4634 44.1536 69.7037 44.5271 74.8237 45.6145C78.0552 46.3065 81.0465 48.1737 83.3282 50.8099C83.3391 50.8099 83.3391 50.8099 83.3391 50.8099C84.6186 51.4815 85.8528 53.0516 86.516 54.1819C85.6188 52.4374 83.5949 48.5899 83.7758 46.5152C83.9507 44.8725 85.3121 44.1732 86.7234 44.7687C87.4112 45.0543 87.968 45.5925 88.4483 46.1527C89.9549 47.8882 91.0466 49.8982 91.4833 52.1609C91.4178 51.5897 90.7846 46.3943 90.9374 45.3069C91.0793 44.2525 91.658 43.198 92.5859 42.7147ZM69.5132 38.9685C69.5276 39.1192 69.4183 39.2538 69.268 39.2688C69.2589 39.2693 69.2499 39.2699 69.2408 39.2699C69.1022 39.2699 68.9839 39.1642 68.9695 39.0221C68.8101 37.3959 68.9364 35.7698 69.3458 34.1887C69.4386 33.8313 69.9644 33.9794 69.8736 34.3271C69.4807 35.8454 69.3597 37.4067 69.5132 38.9685Z" fill="#DDDDDB"/>
<path d="M92.5859 42.7147C91.2838 41.2767 89.4001 39.7601 87.4658 39.5733C86.1756 39.4393 84.7803 39.9796 84.1243 41.0794C84.139 41.1225 84.1613 41.1635 84.1527 41.2114C83.6629 43.9095 84.1241 44.5473 83.6063 44.5473C83.4555 44.5473 83.3329 44.4245 83.3329 44.2733C83.3318 43.2162 83.4267 42.1526 83.6154 41.1127C83.6426 40.963 83.7881 40.8649 83.9331 40.8917C83.9792 40.9002 84.0081 40.9352 84.0422 40.9628C84.5099 38.21 83.5205 35.2545 81.5269 33.3014C79.4526 31.2694 76.4176 30.3248 73.5464 30.6653C71.3849 30.9289 68.9504 32.4666 69.1905 34.6524C67.0944 31.0497 62.6621 29.0067 58.59 29.7536C54.5801 30.4999 51.2004 33.9106 50.4518 37.9372C50.5717 37.937 50.6871 37.9983 50.7206 38.1205C50.9872 39.0934 51.1401 40.0974 51.1764 41.1041C51.1817 41.2553 51.0639 41.383 50.9131 41.3884C50.9099 41.3884 50.9067 41.3884 50.9035 41.3884C50.7569 41.3884 50.6359 41.272 50.6305 41.1234C50.5964 40.1596 50.4493 39.198 50.194 38.2664C50.169 38.175 50.204 38.0926 50.2609 38.0257C47.2521 36.0695 43.5454 34.4333 40.2383 35.7728C35.9915 37.4903 33.1111 44.6666 35.2037 49.2538C35.226 49.2239 35.2374 49.1867 35.2719 49.1672C35.4031 49.0954 35.5694 49.1409 35.6435 49.274C36.143 50.1793 36.5236 51.1473 36.7746 52.1519C36.8109 52.2988 36.7224 52.4485 36.5763 52.4855C36.554 52.4908 36.5316 52.4935 36.5097 52.4935C36.3871 52.4935 36.2762 52.4104 36.2448 52.286C36.006 51.3275 35.6429 50.404 35.1659 49.541C35.1606 49.5315 35.1665 49.5208 35.1625 49.5109C33.1181 48.4827 30.4261 49.3376 29.0264 51.1833C27.5963 53.0835 27.4325 55.7416 28.1639 58.0153C28.3714 58.6634 28.6989 59.2675 29.0919 59.8496C30.0417 59.4322 31.057 59.1576 32.0941 59.0588C34.7906 58.7952 37.8802 59.8387 38.9829 62.332L39.223 63.8478C39.4632 60.6954 40.151 56.9718 41.5047 54.83C45.8281 48.0103 50.2797 45.1071 59.256 44.5051C64.4634 44.1536 69.7037 44.5271 74.8237 45.6145C78.0552 46.3065 81.0465 48.1737 83.3282 50.8099C83.3391 50.8099 83.3391 50.8099 83.3391 50.8099C84.6186 51.4815 85.8528 53.0516 86.516 54.1819C85.6188 52.4374 83.5949 48.5899 83.7758 46.5152C83.9507 44.8725 85.3121 44.1732 86.7234 44.7687C87.4112 45.0543 87.968 45.5925 88.4483 46.1527C89.9549 47.8882 91.0466 49.8982 91.4833 52.1609C91.4178 51.5897 90.7846 46.3943 90.9374 45.3069C91.0793 44.2525 91.658 43.198 92.5859 42.7147ZM69.5132 38.9685C69.5276 39.1192 69.4183 39.2538 69.268 39.2688C69.2589 39.2693 69.2499 39.2699 69.2408 39.2699C69.1022 39.2699 68.9839 39.1642 68.9695 39.0221C68.8101 37.3959 68.9364 35.7698 69.3458 34.1887C69.4386 33.8313 69.9644 33.9794 69.8736 34.3271C69.4807 35.8454 69.3597 37.4067 69.5132 38.9685Z" fill="#0D0D0D" fill-opacity="0.82"/>
<path d="M58.6445 49.6057C58.976 49.7881 59.2573 50.1232 59.2482 50.5032C59.2182 51.7467 56.0777 53.0182 54.6707 53.0527C53.7269 53.0758 53.0681 52.3858 53.8715 51.55C54.3719 51.0295 54.9905 50.6335 55.6198 50.3037C56.5834 49.7986 57.6167 49.0404 58.6445 49.6057Z" fill="#DDDDDB"/>
<path d="M77.7271 51.3087C77.8142 51.6785 77.7549 52.1131 77.4682 52.3606C76.5297 53.1704 73.489 51.6732 72.522 50.6444C71.8733 49.9543 71.9421 49 73.097 49.0413C73.8163 49.0671 74.5227 49.2646 75.1874 49.5144C76.2054 49.8968 77.4568 50.1619 77.7271 51.3087Z" fill="#DDDDDB"/>
<path d="M46.5198 57.8646C46.0169 57.4611 45.6555 55.9073 45.7293 54.814C45.7551 54.4461 46.2982 54.492 46.2741 54.8515C46.1884 56.1125 46.6788 57.29 46.861 57.436C47.0432 57.5844 47.4307 57.4791 47.6004 56.8751C47.7603 56.3055 47.6574 55.6721 47.3253 55.1819C47.1214 54.8813 47.5741 54.5742 47.7763 54.8729C48.5243 55.9775 48.2327 57.3924 47.6036 57.8512C47.271 58.093 46.813 58.1023 46.5198 57.8646Z" fill="#DDDDDB"/>
<path d="M53.5111 57.5621C53.1586 57.5621 53.146 57.0297 53.4978 57.0134L61.7485 56.6155C62.0923 56.5604 62.1525 57.1461 61.7752 57.1636L53.5244 57.5616C53.5196 57.5621 53.5154 57.5621 53.5111 57.5621Z" fill="#DDDDDB"/>
<path d="M77.7641 58.4063C77.7348 59.4569 77.2062 60.2947 76.585 60.2771C75.9627 60.2595 75.4817 59.3932 75.511 58.3427C75.5404 57.2921 76.0689 56.4544 76.6912 56.472C77.3124 56.4895 77.7934 57.3558 77.7641 58.4063Z" fill="#DDDDDB"/>
<path d="M72.312 56.9049C71.9555 56.9049 71.9477 56.3627 72.3067 56.355L80.5655 56.1896C80.9222 56.1805 80.9406 56.7317 80.5762 56.7395L72.3174 56.9049H72.312Z" fill="#DDDDDB"/>
<path d="M60.7203 75.2725C60.6126 75.2725 60.5108 75.2082 60.4676 75.1014C60.4105 74.9609 60.4777 74.8006 60.6174 74.7437C62.1371 74.121 63.8094 73.8078 65.4485 73.8362C66.5365 73.8561 67.3718 74.0272 68.0781 74.3758C68.2135 74.4428 68.2695 74.6075 68.2034 74.7432C68.1373 74.8805 67.9731 74.9357 67.8382 74.8692C67.206 74.5571 66.4438 74.4037 65.4389 74.3854C63.8675 74.3576 62.2747 74.6574 60.8231 75.2521C60.7896 75.2661 60.7544 75.2725 60.7203 75.2725Z" fill="#DDDDDB"/>
<path d="M99.2643 67.9175C101.63 64.5987 102.868 60.5221 102.749 56.4391C102.632 52.3602 100.888 51.3852 100.277 52.6773C100.075 53.1046 99.9147 53.8906 99.8837 54.0127C99.8082 54.3693 99.2741 54.2511 99.3507 53.8969C99.379 53.7855 99.5404 52.9561 99.7846 52.4408C100.644 50.6239 103.151 51.4861 103.295 56.423C103.417 60.6256 102.143 64.8219 99.7078 68.2372C99.4976 68.5333 99.0537 68.2116 99.2643 67.9175Z" fill="#DDDDDB"/>
<path d="M89.9948 96.0742C88.5689 96.051 85.5026 96.0323 84.6497 94.8878C84.1689 94.2657 84.6417 92.5714 85.3097 90.4213C85.5032 89.7981 85.67 89.2601 85.7239 88.9625C86.0666 87.1406 86.4179 84.9888 86.4296 82.8258C86.4296 78.3146 83.5478 76.2293 82.348 72.309C81.2154 68.6196 82.3069 66.3538 82.3165 66.2427C83.3464 63.3283 82.9231 60.1291 81.1854 57.6797C80.7893 57.1262 80.3954 56.525 79.9087 55.7312C79.1437 54.4869 78.2631 52.6591 79.447 51.1547C80.485 49.8304 82.9092 49.5421 85.0112 51.7683C84.3848 50.4191 83.3751 47.9731 83.5047 46.4903C83.7002 44.6501 85.2635 43.853 86.8294 44.515C88.4402 45.1825 90.1761 47.8195 90.9074 49.4476C90.6755 47.1891 90.595 45.7872 90.668 45.2675C90.8659 43.7982 91.7647 42.7054 92.7422 42.3359C94.9542 41.5012 97.2923 43.612 98.012 46.0859C100.496 54.5561 101.089 63.0896 99.5979 68.9136C97.7248 76.2209 100.12 83.7355 100.25 91.1705C100.272 92.2116 100.985 95.3859 99.6336 96.0157C99.0696 96.2741 99.1635 96.22 89.9948 96.0742ZM79.8751 51.4953C79.1363 52.4344 79.2946 53.6883 80.373 55.4427C80.8527 56.2252 81.2403 56.8162 81.6294 57.36C84.8654 61.9233 82.7192 66.6609 82.7035 66.801C82.0948 68.7854 82.4572 70.8041 82.8693 72.1471C84.0658 76.0568 86.9755 78.1639 86.9755 82.8274C86.9638 85.036 86.6077 87.2183 86.2607 89.0622C86.2015 89.3915 86.0293 89.9445 85.8305 90.5849C85.4483 91.8152 84.7366 94.1058 85.0836 94.5547C85.7792 95.4879 88.8999 95.507 89.999 95.525C98.9861 95.6675 98.9875 95.7088 99.406 95.5164C100.04 95.2213 99.9089 93.4774 99.9012 93.5872C99.881 92.7189 99.7151 91.6531 99.7045 91.1818C99.5747 83.7741 97.167 76.1981 99.0691 68.7763C100.537 63.0445 99.9454 54.6205 97.4886 46.2409C96.6797 43.4619 94.2137 42.1035 92.7214 42.9527C91.9276 43.3668 91.3514 44.2807 91.2085 45.3431C91.0573 46.4223 91.7452 52.0188 91.7555 52.1287C91.7949 52.4795 91.2821 52.5502 91.216 52.2129C90.8119 50.1169 89.8119 48.139 88.2431 46.3326C87.8476 45.8714 87.3065 45.3066 86.6199 45.0219C85.401 44.5089 84.2056 45.0631 84.0479 46.5439C83.8786 48.4865 85.8545 52.3067 86.7591 54.0552C86.9209 54.3705 86.4581 54.6227 86.2814 54.3207C85.6098 53.1753 84.383 51.6464 83.2051 51.0539C82.084 50.4813 80.6388 50.5208 79.8751 51.4953Z" fill="#DDDDDB"/>
<path d="M91.7117 55.744C91.7015 55.744 91.6914 55.7435 91.6813 55.7424C91.5315 55.7258 91.4233 55.5901 91.4398 55.4394C91.7374 52.7107 90.816 51.9137 91.3987 51.7612C91.5453 51.7248 91.6935 51.8116 91.7314 51.9586C92.0278 53.1181 92.112 54.3093 91.9824 55.4994C91.967 55.6399 91.8486 55.744 91.7117 55.744Z" fill="#DDDDDB"/>
<path d="M86.8891 56.2864C86.2957 53.62 85.1696 53.1483 85.6679 52.8191C85.7926 52.7354 85.9627 52.7697 86.0458 52.8979C86.6983 53.8976 87.1615 54.9971 87.4222 56.1663C87.4547 56.3143 87.3625 56.4613 87.2154 56.4945C87.0617 56.5271 86.9214 56.4297 86.8891 56.2864Z" fill="#DDDDDB"/>
<path d="M99.9676 91.9117C99.8708 91.9104 99.8331 91.7862 99.823 91.6894C99.7515 91.0026 99.0702 88.4179 99.8474 88.0957C100.556 87.8019 102.089 89.4096 102.596 89.8232C110.741 96.4621 112.469 107.805 109.31 113.587C107.256 117.347 103.612 118.262 99.6422 118.133C97.1107 118.05 94.588 117.671 92.1465 116.992C90.1827 116.445 87.2463 115.994 85.798 114.487C85.0463 113.704 84.5779 112.695 84.1664 111.689C82.2884 107.096 81.3171 102.131 81.3252 97.1645C81.3299 94.3567 81.9728 92.9284 84.9388 91.8526C91.6992 89.4008 99.1291 91.8762 105.652 94.1043" fill="#AEEA00"/>
<path d="M99.9676 91.9117C99.8708 91.9104 99.8331 91.7862 99.823 91.6894C99.7515 91.0026 99.0702 88.4179 99.8474 88.0957C100.556 87.8019 102.089 89.4096 102.596 89.8232C110.741 96.4621 112.469 107.805 109.31 113.587C107.256 117.347 103.612 118.262 99.6422 118.133C97.1107 118.05 94.588 117.671 92.1465 116.992C90.1827 116.445 87.2463 115.994 85.798 114.487C85.0463 113.704 84.5779 112.695 84.1664 111.689C82.2884 107.096 81.3171 102.131 81.3252 97.1645C81.3299 94.3567 81.9728 92.9284 84.9388 91.8526C91.6992 89.4008 99.1291 91.8762 105.652 94.1043" fill="#0D0D0D" fill-opacity="0.32"/>
<path d="M90.2563 116.366C90.1439 116.326 86.8886 116.354 84.5072 112.572C83.2513 110.577 82.6895 108.224 82.2694 105.98C81.7438 103.169 81.3845 100.295 81.2022 97.4388C81.1047 95.9065 81.0818 94.1613 82.0418 92.8366C83.2972 91.1048 85.6496 90.8222 87.559 90.7691C92.9355 90.62 98.2538 91.3933 103.368 93.0704C104.99 93.6042 105.552 94.1056 105.992 95.9167C106.566 98.2706 106.835 100.692 106.789 103.114C106.783 103.456 106.237 103.48 106.243 103.103C106.288 100.729 106.025 98.3554 105.462 96.0476C105.071 94.4449 104.664 94.0743 103.199 93.5928C98.144 91.9345 92.8832 91.1692 87.5739 91.3183C82.6272 91.455 81.4866 93.3013 81.747 97.4034C81.9283 100.238 82.2844 103.089 82.8057 105.878C83.2156 108.069 83.7615 110.361 84.9689 112.278C86.2797 114.36 88.2627 115.684 90.2739 115.818C90.4242 115.828 90.5383 115.959 90.5282 116.11C90.5186 116.255 90.3986 116.366 90.2563 116.366Z" fill="#DDDDDB"/>
<path d="M28.9575 29.3814C28.9135 29.0964 29.0351 29.3837 26.3387 25.8708C25.027 24.1695 23.7172 22.4647 22.4055 20.7633C21.5691 19.6806 19.92 19.7037 19.0313 20.8082C18.8188 21.0707 18.607 21.336 18.3945 21.5985C17.629 22.5467 17.7329 23.9373 18.6801 24.631C21.0233 26.3504 23.6497 27.813 26.0389 29.5521C26.6836 30.0243 27.4271 30.9348 28.3199 30.365C28.5298 30.2319 29.0019 29.7276 28.9575 29.3814Z" fill="#DDDDDB"/>
<path d="M28.9575 29.3814C28.9135 29.0964 29.0351 29.3837 26.3387 25.8708C25.027 24.1695 23.7172 22.4647 22.4055 20.7633C21.5691 19.6806 19.92 19.7037 19.0313 20.8082C18.8188 21.0707 18.607 21.336 18.3945 21.5985C17.629 22.5467 17.7329 23.9373 18.6801 24.631C21.0233 26.3504 23.6497 27.813 26.0389 29.5521C26.6836 30.0243 27.4271 30.9348 28.3199 30.365C28.5298 30.2319 29.0019 29.7276 28.9575 29.3814Z" fill="#0D0D0D" fill-opacity="0.64"/>
<path d="M33.3872 32.9314C33.642 34.0223 33.035 35.1268 32.0338 35.3935C31.0332 35.6628 30.0162 34.992 29.7614 33.9011C29.5066 32.8102 30.1109 31.7065 31.1148 31.439C32.1161 31.1723 33.1324 31.8405 33.3872 32.9314Z" fill="#DDDDDB"/>
<path d="M33.3872 32.9314C33.642 34.0223 33.035 35.1268 32.0338 35.3935C31.0332 35.6628 30.0162 34.992 29.7614 33.9011C29.5066 32.8102 30.1109 31.7065 31.1148 31.439C32.1161 31.1723 33.1324 31.8405 33.3872 32.9314Z" fill="#0D0D0D" fill-opacity="0.64"/>
<path d="M100.206 92.5716C100.068 92.5716 99.9497 92.4671 99.9348 92.3265C99.761 90.7036 99.6134 89.0485 99.495 87.4068C99.4693 87.0426 100.013 87.0086 100.04 87.3671C100.157 89.0024 100.305 90.6511 100.477 92.2675C100.493 92.4183 100.385 92.5539 100.235 92.57C100.225 92.5711 100.216 92.5716 100.206 92.5716Z" fill="#DDDDDB"/>
<path d="M84.572 52.1288C83.911 52.5411 82.6765 53.3069 82.7046 54.0903C82.7131 54.3271 82.7562 54.3823 83.5033 56.0658C83.9548 57.0832 84.4288 57.4312 85.8573 56.7737C91.1306 54.3465 91.6883 54.5888 91.7254 51.8359C91.7447 50.4115 91.7508 47.9824 89.7814 48.8785C87.9752 49.7003 86.2589 51.0765 84.572 52.1288Z" fill="#DDDDDB"/>
<path d="M84.572 52.1288C83.911 52.5411 82.6765 53.3069 82.7046 54.0903C82.7131 54.3271 82.7562 54.3823 83.5033 56.0658C83.9548 57.0832 84.4288 57.4312 85.8573 56.7737C91.1306 54.3465 91.6883 54.5888 91.7254 51.8359C91.7447 50.4115 91.7508 47.9824 89.7814 48.8785C87.9752 49.7003 86.2589 51.0765 84.572 52.1288Z" fill="#0D0D0D" fill-opacity="0.64"/>
<path d="M104.084 39.6683C104.729 39.3039 105.467 38.9468 106.179 39.146C107.487 39.5117 109.06 42.3158 108.643 43.7081C108.427 44.4294 107.748 44.893 107.11 45.2876C104.588 46.848 101.978 48.2658 99.2978 49.5321C98.6034 49.8602 98.3507 49.5385 98.3026 48.7581C98.1902 46.9346 97.0949 44.7898 97.2234 44.3974C97.2621 44.279 97.3614 44.1926 97.4568 44.1131C99.5008 42.4091 101.772 40.9754 104.084 39.6683Z" fill="#DDDDDB"/>
<path d="M104.084 39.6683C104.729 39.3039 105.467 38.9468 106.179 39.146C107.487 39.5117 109.06 42.3158 108.643 43.7081C108.427 44.4294 107.748 44.893 107.11 45.2876C104.588 46.848 101.978 48.2658 99.2978 49.5321C98.6034 49.8602 98.3507 49.5385 98.3026 48.7581C98.1902 46.9346 97.0949 44.7898 97.2234 44.3974C97.2621 44.279 97.3614 44.1926 97.4568 44.1131C99.5008 42.4091 101.772 40.9754 104.084 39.6683Z" fill="#0D0D0D" fill-opacity="0.64"/>
<path d="M85.5461 55.3214C85.3776 54.4092 84.8574 53.5655 84.1191 53.0077C83.8289 52.7904 84.1603 52.3506 84.4464 52.569C85.2934 53.2083 85.8899 54.1753 86.0824 55.2217C86.1101 55.3708 86.012 55.514 85.8638 55.5413C85.7196 55.5694 85.5737 55.4737 85.5461 55.3214Z" fill="#DDDDDB"/>
<path d="M91.6424 53.7851C91.5022 53.7851 91.3828 53.6762 91.3711 53.5331C90.9265 48.0662 90.2353 47.5171 90.798 47.4071C90.9441 47.3792 91.0896 47.4758 91.1179 47.6249C91.4878 49.5557 91.7559 51.5283 91.9148 53.488C91.927 53.6392 91.8151 53.7717 91.6653 53.7841C91.6578 53.7846 91.6499 53.7851 91.6424 53.7851Z" fill="#DDDDDB"/>
<path d="M98.5889 50.3225C98.2136 48.5151 97.826 46.6465 96.9726 44.9882C96.8064 44.6653 97.2924 44.4138 97.4577 44.7361C98.3452 46.4609 98.7408 48.367 99.123 50.2099C99.1968 50.5647 98.6624 50.6792 98.5889 50.3225Z" fill="#DDDDDB"/>
<path d="M110.815 40.8333C109.76 40.4539 109.376 39.2088 109.356 38.1094C109.974 38.0596 110.592 37.9808 110.948 38.1761C111.796 38.6688 111.277 39.9762 110.815 40.8333Z" fill="#DDDDDB"/>
<path d="M110.815 40.8333C109.76 40.4539 109.376 39.2088 109.356 38.1094C109.974 38.0596 110.592 37.9808 110.948 38.1761C111.796 38.6688 111.277 39.9762 110.815 40.8333Z" fill="#0D0D0D" fill-opacity="0.64"/>
<path d="M70.8405 121.163C69.989 121.657 68.9846 121.778 68.013 121.888C60.5675 122.733 53.1221 123.48 45.6657 124.128C44.8032 124.205 43.8971 124.282 43.0783 123.985C43.0674 123.985 43.0455 123.974 43.0346 123.963C42.8163 123.887 42.6197 123.766 42.4232 123.601C42.8683 123.198 42.8877 123.135 43.4713 122.601C44.8687 121.327 46.7683 118.076 43.8097 117.34C43.1329 117.164 42.4014 117.329 41.7573 117.659C42.3905 117.142 43.0019 116.593 43.6023 116.022C44.1918 115.462 44.8141 114.825 44.9888 114.001C45.2072 113.034 44.7049 111.98 43.8534 111.541C42.9036 111.057 41.7682 111.42 40.6547 112.123C41.8819 111.016 41.3684 111.447 42.2486 110.695C43.1984 109.882 44.301 108.97 44.3229 107.696C44.3337 106.62 43.5696 105.598 42.5652 105.346C41.2333 105.005 40.2507 106.093 39.2682 106.861C39.1809 106.927 39.0935 106.993 39.0062 107.07C39.4429 106.543 39.7595 105.939 39.6503 105.291C39.5193 104.544 38.8097 104.028 38.0782 103.973C37.3577 103.918 36.6481 104.225 36.0258 104.654C36.0149 104.654 36.0149 104.665 36.004 104.665C35.5127 105.005 34.9887 105.412 34.4756 105.862C31.154 99.3371 25.3352 89.1205 25.8183 87.4199C26.1568 86.2666 29.1371 85.5087 30.0869 85.245C36.9 83.3245 43.6989 81.5578 50.5674 80.3132C55.2291 79.4565 59.9234 78.8414 64.6506 78.5887C66.834 78.4679 70.0436 77.5672 71.9759 79.0061C73.1155 79.866 73.0203 80.6559 72.893 82.1915C72.8056 84.2565 72.9585 86.3434 72.9475 88.4084C72.9148 94.3617 72.5763 100.293 72.5655 106.235V107.18C72.5763 110.596 74.6179 118.966 70.8405 121.163Z" fill="#DDDDDB"/>
<path d="M70.8405 121.163C69.989 121.657 68.9846 121.778 68.013 121.888C60.5675 122.733 53.1221 123.48 45.6657 124.128C44.8032 124.205 43.8971 124.282 43.0783 123.985C43.0674 123.985 43.0455 123.974 43.0346 123.963C42.8163 123.887 42.6197 123.766 42.4232 123.601C42.8683 123.198 42.8877 123.135 43.4713 122.601C44.8687 121.327 46.7683 118.076 43.8097 117.34C43.1329 117.164 42.4014 117.329 41.7573 117.659C42.3905 117.142 43.0019 116.593 43.6023 116.022C44.1918 115.462 44.8141 114.825 44.9888 114.001C45.2072 113.034 44.7049 111.98 43.8534 111.541C42.9036 111.057 41.7682 111.42 40.6547 112.123C41.8819 111.016 41.3684 111.447 42.2486 110.695C43.1984 109.882 44.301 108.97 44.3229 107.696C44.3337 106.62 43.5696 105.598 42.5652 105.346C41.2333 105.005 40.2507 106.093 39.2682 106.861C39.1809 106.927 39.0935 106.993 39.0062 107.07C39.4429 106.543 39.7595 105.939 39.6503 105.291C39.5193 104.544 38.8097 104.028 38.0782 103.973C37.3577 103.918 36.6481 104.225 36.0258 104.654C36.0149 104.654 36.0149 104.665 36.004 104.665C35.5127 105.005 34.9887 105.412 34.4756 105.862C31.154 99.3371 25.3352 89.1205 25.8183 87.4199C26.1568 86.2666 29.1371 85.5087 30.0869 85.245C36.9 83.3245 43.6989 81.5578 50.5674 80.3132C55.2291 79.4565 59.9234 78.8414 64.6506 78.5887C66.834 78.4679 70.0436 77.5672 71.9759 79.0061C73.1155 79.866 73.0203 80.6559 72.893 82.1915C72.8056 84.2565 72.9585 86.3434 72.9475 88.4084C72.9148 94.3617 72.5763 100.293 72.5655 106.235V107.18C72.5763 110.596 74.6179 118.966 70.8405 121.163Z" fill="#0D0D0D" fill-opacity="0.64"/>
<path d="M59.5826 147.5C59.5752 147.5 59.5672 147.499 59.5597 147.499C58.9637 147.45 59.5899 146.202 59.8652 145.676C60.1658 145.103 60.4494 144.56 60.2879 144.031C60.0826 143.355 59.2372 143.088 58.4637 143.065C57.6218 143.072 56.7432 143.313 55.8555 143.129C54.8612 142.924 53.9504 141.94 54.2898 140.957C54.6129 140.023 55.448 139.875 58.4211 138.896C60.4096 138.242 60.602 136.92 58.6226 136.464C54.3449 135.48 52.576 137.199 51.3356 135.9C50.7151 135.251 50.8612 134.229 51.3132 133.596C52.1401 132.44 54.7073 131.69 56.0927 131.398C56.6982 131.272 57.3461 131.151 57.6913 130.719C58.3598 129.879 57.88 127.874 57.2558 126.861C57.0646 126.551 57.5321 126.264 57.7196 126.571C58.3054 127.522 59.0501 129.891 58.1167 131.062C57.776 131.49 57.3481 131.696 56.2046 131.936C54.9938 132.191 52.4763 132.91 51.7567 133.917C51.4284 134.376 51.3287 135.101 51.729 135.519C52.6557 136.488 54.5697 134.969 58.7441 135.929C61.0742 136.465 61.3346 138.515 58.5906 139.419C55.9457 140.316 55.0483 140.435 54.8059 141.137C54.5838 141.777 55.2916 142.452 55.9653 142.591C56.7382 142.752 57.6016 142.523 58.4595 142.515C58.468 142.515 58.4771 142.515 58.4861 142.515C59.4424 142.515 60.5251 142.932 60.8103 143.87C61.1926 145.125 59.9424 146.158 59.854 147.248C59.8422 147.391 59.7228 147.5 59.5826 147.5Z" fill="#DDDDDB"/>
<path d="M148.71 42.2176C147.22 44.9288 145.525 46.4191 140.731 46.2455C134.86 46.0313 129.224 44.0168 123.698 42.0263C121.599 41.2787 119.418 40.4709 117.815 38.9098C113.334 34.506 115.288 27.682 117.649 21.8801C120.123 15.7834 126.08 15.5402 132.21 17.8436C144.889 22.588 146.533 23.0783 148.776 24.7073C150.625 26.0608 152.145 28.0099 152.45 30.2887C152.898 33.5197 150.248 39.2927 148.71 42.2176Z" fill="#AEEA00"/>
<path d="M148.71 42.2176C147.22 44.9288 145.525 46.4191 140.731 46.2455C134.86 46.0313 129.224 44.0168 123.698 42.0263C121.599 41.2787 119.418 40.4709 117.815 38.9098C113.334 34.506 115.288 27.682 117.649 21.8801C120.123 15.7834 126.08 15.5402 132.21 17.8436C144.889 22.588 146.533 23.0783 148.776 24.7073C150.625 26.0608 152.145 28.0099 152.45 30.2887C152.898 33.5197 150.248 39.2927 148.71 42.2176Z" fill="#0D0D0D" fill-opacity="0.32"/>
<path d="M119.007 40.0483C116.603 45.097 116.399 45.2472 116.696 45.7622C116.845 46.021 117.164 46.1426 117.461 46.1281C117.758 46.1137 118.037 45.9856 118.299 45.8442C119.975 44.94 121.241 43.4415 122.466 41.9778" fill="#AEEA00"/>
<path d="M119.007 40.0483C116.603 45.097 116.399 45.2472 116.696 45.7622C116.845 46.021 117.164 46.1426 117.461 46.1281C117.758 46.1137 118.037 45.9856 118.299 45.8442C119.975 44.94 121.241 43.4415 122.466 41.9778" fill="#0D0D0D" fill-opacity="0.32"/>
<path d="M56.4445 127.911C58.4408 128.034 60.7368 128.129 62.2096 126.562C63.3391 125.36 62.8811 124.12 61.5702 123.182C59.3793 121.613 55.4927 121.239 53.3781 123.216C52.5217 124.016 52.4953 124.88 52.7402 125.982C53.2067 128.08 54.5919 127.797 56.4445 127.911Z" fill="#DDDDDB"/>
<path d="M76.988 86.0362C76.7697 88.0902 76.7915 90.1772 76.6605 92.2422C76.2764 98.0938 75.4558 105.651 75.1649 110.959C74.9792 114.364 76.5186 122.843 72.6102 124.81C71.7369 125.249 70.7216 125.304 69.75 125.359C62.2717 125.754 54.7935 126.051 47.3153 126.259C44.7942 126.323 43.7774 126.004 42.7519 123.294C42.9921 123.052 43.2323 122.821 43.4724 122.602C44.8699 121.328 46.7694 118.076 43.8109 117.34C43.134 117.165 42.4026 117.329 41.7584 117.659C42.3916 117.143 43.003 116.594 43.6034 116.022C44.1929 115.462 44.8152 114.825 44.9899 114.001C45.2083 113.035 44.7061 111.98 43.8545 111.541C42.9047 111.058 41.7694 111.42 40.6558 112.123C41.883 111.016 41.3696 111.448 42.2497 110.695C43.1995 109.882 44.3021 108.971 44.324 107.697C44.3349 106.62 43.5707 105.599 42.5663 105.346C41.2344 105.005 40.2519 106.093 39.2694 106.862C39.182 106.928 39.0947 106.994 39.0073 107.07C39.444 106.543 39.7606 105.939 39.6514 105.291C39.5204 104.544 38.8108 104.028 38.0794 103.973C37.3589 103.918 36.6492 104.226 36.0269 104.654C34.5047 101.292 29.1034 89.9976 29.6841 88.4197C30.088 87.2884 33.1012 86.7172 34.0728 86.5085C45.5472 84.0037 57.2498 81.8575 68.9639 81.9392C71.1007 81.9596 74.3957 81.2372 76.2457 82.7959C77.4465 83.8174 77.119 84.7181 76.988 86.0362Z" fill="#DDDDDB"/>
<path d="M76.988 86.0362C76.7697 88.0902 76.7915 90.1772 76.6605 92.2422C76.2764 98.0938 75.4558 105.651 75.1649 110.959C74.9792 114.364 76.5186 122.843 72.6102 124.81C71.7369 125.249 70.7216 125.304 69.75 125.359C62.2717 125.754 54.7935 126.051 47.3153 126.259C44.7942 126.323 43.7774 126.004 42.7519 123.294C42.9921 123.052 43.2323 122.821 43.4724 122.602C44.8699 121.328 46.7694 118.076 43.8109 117.34C43.134 117.165 42.4026 117.329 41.7584 117.659C42.3916 117.143 43.003 116.594 43.6034 116.022C44.1929 115.462 44.8152 114.825 44.9899 114.001C45.2083 113.035 44.7061 111.98 43.8545 111.541C42.9047 111.058 41.7694 111.42 40.6558 112.123C41.883 111.016 41.3696 111.448 42.2497 110.695C43.1995 109.882 44.3021 108.971 44.324 107.697C44.3349 106.62 43.5707 105.599 42.5663 105.346C41.2344 105.005 40.2519 106.093 39.2694 106.862C39.182 106.928 39.0947 106.994 39.0073 107.07C39.444 106.543 39.7606 105.939 39.6514 105.291C39.5204 104.544 38.8108 104.028 38.0794 103.973C37.3589 103.918 36.6492 104.226 36.0269 104.654C34.5047 101.292 29.1034 89.9976 29.6841 88.4197C30.088 87.2884 33.1012 86.7172 34.0728 86.5085C45.5472 84.0037 57.2498 81.8575 68.9639 81.9392C71.1007 81.9596 74.3957 81.2372 76.2457 82.7959C77.4465 83.8174 77.119 84.7181 76.988 86.0362Z" fill="#0D0D0D" fill-opacity="0.82"/>
<path d="M38.2401 125.153C35.0939 123.566 30.4054 114.79 31.1834 110.394C31.6616 107.694 34.3141 105.502 35.8531 104.436C36.6404 103.891 37.3973 103.641 38.0989 103.696C39.2445 103.786 40.1759 104.775 39.8937 105.99C40.6623 105.37 41.5344 104.8 42.6331 105.075C43.7616 105.361 44.6038 106.49 44.5926 107.701C44.5779 109.227 43.2166 110.214 42.1213 111.156C42.7711 110.987 43.4044 111.002 43.9801 111.298C44.9508 111.797 45.5004 112.987 45.2584 114.066C45.011 115.173 44.0473 116.012 42.93 117.013C44.0149 116.899 45.3059 117.434 45.5831 118.549C45.9343 119.958 44.6688 121.885 43.6582 122.804C42.1139 124.21 40.5651 126.324 38.2401 125.153ZM36.1622 104.889C34.9804 105.708 32.1808 107.893 31.7208 110.491C30.985 114.652 35.5738 123.194 38.4843 124.662C40.4392 125.647 41.7374 123.809 43.2925 122.396C44.1758 121.593 45.3464 119.858 45.0537 118.683C44.8378 117.816 43.4828 117.112 41.9305 117.879C41.2679 118.435 40.5888 118.97 39.8985 119.479C39.6274 119.681 39.302 119.295 39.5482 119.059C40.1261 118.504 40.7237 117.93 41.4401 117.519C41.8666 117.276 43.1082 116.113 43.4098 115.827C43.9844 115.283 44.559 114.69 44.7264 113.945C44.9119 113.118 44.4748 112.169 43.7317 111.787C42.906 111.361 41.8868 111.679 40.8724 112.302C39.6522 113.42 38.3803 114.543 37.0119 115.71C36.7487 115.933 36.3991 115.557 36.6404 115.308C37.7645 114.143 39.073 112.79 40.5062 111.894C41.6719 110.826 41.3762 111.066 42.1011 110.455C43.0078 109.692 44.0361 108.827 44.0468 107.696C44.0558 106.747 43.3762 105.83 42.4998 105.609C40.7041 105.153 38.8807 107.748 35.1958 111.523C34.9436 111.782 34.5534 111.398 34.8067 111.138C35.9479 109.967 37.4984 108.014 38.8142 106.879C39.206 106.387 39.4694 105.871 39.3803 105.339C39.2711 104.686 38.617 104.288 38.0567 104.244C37.3837 104.191 36.716 104.505 36.1622 104.889Z" fill="#DDDDDB"/>
<path d="M55.9212 131.91C55.9233 132.326 55.3886 132.983 54.0023 133.022C53.7131 133.03 53.3878 133.004 53.1969 132.785C52.6646 132.175 53.6634 131.404 54.1527 131.18C54.6993 130.931 55.9173 131.138 55.9212 131.91Z" fill="#DDDDDB"/>
<path d="M59.1658 136.511C58.968 136.946 58.0938 137.371 56.628 136.737C56.3222 136.604 55.9951 136.419 55.9012 136.097C55.6392 135.201 57.053 134.883 57.6713 134.888C58.3619 134.894 59.5337 135.703 59.1658 136.511Z" fill="#DDDDDB"/>
<path d="M59.4636 143.383C58.9872 144.43 56.4351 143.777 56.199 142.969C55.937 142.073 57.3508 141.754 57.9691 141.759C58.6598 141.765 59.8315 142.574 59.4636 143.383Z" fill="#DDDDDB"/>
<path d="M26.0366 69.9351C28.7608 66.2398 33.6673 65.9747 36.2079 68.8694C36.447 69.1421 36.0375 69.5056 35.7985 69.233C33.47 66.5769 28.977 66.8695 26.4747 70.2622C26.2598 70.5542 25.821 70.2265 26.0366 69.9351Z" fill="#DDDDDB"/>
<path d="M30.6312 72.2966C30.2618 72.1089 29.975 71.8097 29.7223 71.5463C29.6173 71.4369 29.6205 71.2631 29.7287 71.158C30.0535 70.8455 30.2631 71.4939 30.8775 71.8064C31.2998 72.022 31.6976 71.9659 31.9452 71.5179C32.2815 70.9054 32.1334 70.109 31.9436 69.4112C31.7767 68.7982 31.5768 68.1868 31.3487 67.5941C31.2179 67.2534 31.7286 67.0593 31.8583 67.3957C32.0923 68.006 32.2981 68.6357 32.4702 69.2664C32.6888 70.0709 32.8541 70.9987 32.4228 71.7834C32.0197 72.5192 31.2781 72.6244 30.6312 72.2966Z" fill="#DDDDDB"/>
<path d="M145.163 32.4118L141.123 37.2186C141.079 37.2728 141.031 37.3103 140.979 37.3312C140.927 37.3521 140.861 37.3501 140.779 37.3253L140.171 37.139L141.469 35.6692L140.936 31.1167L141.648 31.3351C141.718 31.3565 141.768 31.3901 141.797 31.4359C141.826 31.4816 141.842 31.5281 141.846 31.5755L142.149 34.4807C142.152 34.5522 142.153 34.6248 142.152 34.6983C142.155 34.7698 142.153 34.8401 142.148 34.9091C142.188 34.8476 142.229 34.7879 142.271 34.73C142.313 34.6694 142.357 34.6106 142.402 34.5536L144.224 32.304C144.258 32.2621 144.301 32.2322 144.352 32.2141C144.403 32.196 144.455 32.1951 144.508 32.2114L145.163 32.4118Z" fill="#DDDDDB"/>
<path d="M138.415 35.1017C138.071 34.9963 137.835 34.8179 137.707 34.5664C137.581 34.3158 137.573 34.0105 137.681 33.6504L138.458 31.0851L137.963 30.9335C137.916 30.919 137.879 30.8925 137.854 30.8541C137.833 30.8137 137.831 30.764 137.849 30.7049L137.95 30.3716L138.671 30.4866L139.243 29.2647C139.268 29.2203 139.3 29.1901 139.339 29.1742C139.381 29.1564 139.427 29.1552 139.477 29.1706L139.892 29.2978L139.457 30.7365L140.665 31.1066L140.483 31.7057L139.276 31.3357L138.516 33.8461C138.465 34.0149 138.467 34.1539 138.523 34.2631C138.582 34.3704 138.676 34.4437 138.804 34.4831C138.88 34.5063 138.947 34.5161 139.006 34.5127C139.068 34.5101 139.122 34.5036 139.168 34.4931C139.215 34.4798 139.255 34.4675 139.289 34.4564C139.323 34.4453 139.351 34.4432 139.373 34.45C139.401 34.4586 139.42 34.472 139.43 34.4904C139.443 34.5068 139.454 34.5316 139.462 34.5649L139.585 35.036C139.414 35.1186 139.225 35.1655 139.021 35.1764C138.816 35.1874 138.614 35.1625 138.415 35.1017Z" fill="#DDDDDB"/>
<path d="M133.579 32.3932C133.66 32.6115 133.766 32.7794 133.899 32.8968C134.034 33.0151 134.198 33.1038 134.391 33.1629C134.765 33.2777 135.096 33.2313 135.381 33.0238C135.671 32.8144 135.894 32.4495 136.052 31.9291C136.134 31.6562 136.181 31.4169 136.191 31.2111C136.205 31.0033 136.186 30.8252 136.133 30.6768C136.084 30.5265 136.003 30.4035 135.892 30.3079C135.781 30.2094 135.645 30.1353 135.483 30.0857C135.245 30.0129 135.022 30.0029 134.813 30.0558C134.608 30.1096 134.401 30.2123 134.193 30.3638L133.579 32.3932ZM134.321 29.7898C134.443 29.7103 134.567 29.6424 134.694 29.586C134.825 29.5277 134.958 29.4856 135.095 29.4597C135.232 29.4309 135.371 29.4198 135.513 29.4263C135.658 29.4309 135.806 29.4563 135.957 29.5025C136.2 29.577 136.405 29.6921 136.572 29.8477C136.741 30.0042 136.868 30.1966 136.952 30.4251C137.035 30.6536 137.073 30.9158 137.066 31.2118C137.062 31.5086 137.006 31.8342 136.899 32.1886C136.803 32.5065 136.67 32.7885 136.501 33.0348C136.335 33.2792 136.143 33.4768 135.923 33.6277C135.706 33.7794 135.465 33.8778 135.201 33.9229C134.94 33.9661 134.668 33.9439 134.382 33.8566C134.128 33.7786 133.923 33.6696 133.767 33.5296C133.61 33.3895 133.484 33.2217 133.387 33.0261L132.824 34.8868L132.007 34.6362L133.739 28.9107L134.23 29.0611C134.345 29.0962 134.399 29.1729 134.394 29.2911L134.321 29.7898Z" fill="#DDDDDB"/>
<path d="M125.513 31.0755L126.811 26.7887L127.301 26.939C127.416 26.9741 127.471 27.0508 127.465 27.1691L127.4 27.5964C127.614 27.4559 127.834 27.3557 128.059 27.2958C128.289 27.2339 128.532 27.2424 128.789 27.3212C129.072 27.4077 129.277 27.5567 129.406 27.7682C129.535 27.9769 129.6 28.2272 129.6 28.5193C129.707 28.3862 129.827 28.2799 129.958 28.2001C130.089 28.1204 130.225 28.0638 130.367 28.0303C130.508 27.9968 130.651 27.9838 130.795 27.9911C130.943 27.9993 131.086 28.0249 131.226 28.0677C131.452 28.1371 131.643 28.2353 131.797 28.3624C131.954 28.4875 132.074 28.6379 132.155 28.8134C132.236 28.9889 132.278 29.1878 132.281 29.41C132.284 29.6322 132.247 29.8727 132.168 30.1315L131.342 32.8614L130.52 32.6095L131.347 29.8797C131.444 29.559 131.447 29.2957 131.357 29.0897C131.269 28.8846 131.092 28.7414 130.827 28.66C130.709 28.624 130.591 28.6109 130.472 28.6205C130.354 28.6273 130.242 28.6591 130.136 28.7158C130.033 28.7734 129.94 28.8554 129.856 28.9618C129.774 29.0691 129.709 29.2029 129.661 29.3632L128.834 32.093L128.013 31.8412L128.839 29.1114C128.939 28.7794 128.948 28.5146 128.864 28.3168C128.78 28.119 128.611 27.9812 128.357 27.9032C128.181 27.8493 128.003 27.8456 127.824 27.8921C127.645 27.9387 127.468 28.0229 127.294 28.1447L126.331 31.326L125.513 31.0755Z" fill="#DDDDDB"/>
<path d="M124.689 27.9599C124.738 27.7968 124.76 27.639 124.754 27.4866C124.751 27.3351 124.721 27.195 124.662 27.0663C124.603 26.9377 124.518 26.8255 124.406 26.7298C124.295 26.6342 124.155 26.5607 123.987 26.5093C123.643 26.4039 123.342 26.4207 123.083 26.5596C122.827 26.6993 122.618 26.9383 122.458 27.2764L124.689 27.9599ZM124.756 30.1752C124.62 30.2625 124.473 30.3296 124.315 30.3765C124.158 30.4206 123.998 30.4467 123.833 30.4548C123.669 30.4628 123.503 30.4551 123.336 30.4316C123.172 30.4089 123.013 30.3741 122.859 30.3269C122.566 30.237 122.308 30.1043 122.086 29.9287C121.868 29.7512 121.696 29.5386 121.569 29.2908C121.446 29.041 121.376 28.7582 121.358 28.4425C121.344 28.1247 121.394 27.7802 121.506 27.4089C121.596 27.1107 121.726 26.8478 121.896 26.6201C122.067 26.3896 122.266 26.2048 122.495 26.0658C122.726 25.9276 122.982 25.8418 123.264 25.8084C123.546 25.7749 123.843 25.8057 124.153 25.9008C124.413 25.9804 124.639 26.0973 124.83 26.2513C125.026 26.4033 125.178 26.5853 125.288 26.7973C125.398 27.0093 125.462 27.2485 125.479 27.515C125.499 27.7824 125.462 28.0693 125.37 28.3759C125.331 28.5025 125.291 28.584 125.25 28.6205C125.209 28.6541 125.151 28.6593 125.076 28.6362L122.283 27.7805C122.214 28.0391 122.182 28.2738 122.189 28.4848C122.196 28.6929 122.236 28.8774 122.31 29.0383C122.386 29.2 122.493 29.3357 122.631 29.4456C122.769 29.5554 122.934 29.6399 123.127 29.699C123.309 29.7547 123.472 29.7816 123.616 29.7796C123.763 29.7786 123.891 29.7687 124.001 29.75C124.114 29.7293 124.209 29.7078 124.286 29.6853C124.366 29.6636 124.431 29.6605 124.481 29.6759C124.548 29.6965 124.592 29.7377 124.614 29.7994L124.756 30.1752Z" fill="#DDDDDB"/>
</svg>
