<svg width="165" height="164" viewBox="0 0 165 164" fill="none" xmlns="http://www.w3.org/2000/svg">
<path d="M141.756 117.303C79.5631 117.173 82.902 117.564 82.902 117.03C82.902 116.486 79.6569 116.886 141.756 116.756C146.977 116.756 151.225 112.509 151.225 107.288V104.937C151.225 99.722 146.977 95.48 141.756 95.48C85.9543 95.3506 88.7952 95.7497 88.7952 95.2066C88.7952 94.6633 85.9676 95.0627 141.756 94.9333C147.278 94.9333 151.771 99.4209 151.771 104.937V107.288C151.771 112.81 147.278 117.303 141.756 117.303Z" fill="#DDDDDB"/>
<path d="M143.255 105.656C143.231 105.694 143.207 105.721 143.18 105.739C143.154 105.753 143.121 105.761 143.08 105.761C143.033 105.761 142.981 105.745 142.922 105.712C142.867 105.68 142.798 105.645 142.717 105.608C142.638 105.57 142.545 105.535 142.437 105.503C142.329 105.47 142.201 105.454 142.052 105.454C141.93 105.454 141.817 105.47 141.715 105.503C141.616 105.532 141.532 105.574 141.462 105.629C141.392 105.682 141.338 105.746 141.3 105.822C141.262 105.895 141.243 105.973 141.243 106.058C141.243 106.169 141.275 106.261 141.339 106.333C141.406 106.406 141.492 106.469 141.597 106.522C141.705 106.574 141.826 106.622 141.96 106.666C142.097 106.707 142.236 106.75 142.376 106.797C142.519 106.844 142.657 106.898 142.791 106.959C142.928 107.017 143.049 107.092 143.154 107.182C143.262 107.269 143.348 107.376 143.412 107.501C143.479 107.627 143.513 107.78 143.513 107.96C143.513 108.167 143.475 108.36 143.399 108.538C143.326 108.713 143.217 108.864 143.071 108.992C142.928 109.121 142.75 109.221 142.538 109.294C142.325 109.367 142.081 109.404 141.807 109.404C141.501 109.404 141.218 109.353 140.959 109.25C140.699 109.148 140.482 109.019 140.307 108.861L140.508 108.533C140.532 108.492 140.561 108.462 140.596 108.441C140.631 108.418 140.677 108.406 140.736 108.406C140.791 108.406 140.848 108.427 140.906 108.468C140.965 108.508 141.035 108.554 141.116 108.603C141.198 108.65 141.297 108.694 141.414 108.734C141.53 108.772 141.676 108.791 141.851 108.791C141.997 108.791 142.124 108.774 142.231 108.739C142.339 108.701 142.428 108.651 142.498 108.59C142.571 108.526 142.625 108.453 142.66 108.371C142.695 108.29 142.712 108.204 142.712 108.113C142.712 107.997 142.679 107.901 142.612 107.825C142.548 107.746 142.462 107.679 142.354 107.624C142.249 107.568 142.128 107.52 141.991 107.479C141.854 107.438 141.714 107.395 141.571 107.348C141.428 107.301 141.288 107.248 141.151 107.186C141.014 107.125 140.892 107.048 140.784 106.954C140.679 106.861 140.593 106.747 140.526 106.613C140.462 106.479 140.43 106.316 140.43 106.124C140.43 105.952 140.465 105.787 140.535 105.629C140.607 105.472 140.711 105.333 140.845 105.214C140.982 105.094 141.15 105 141.348 104.93C141.549 104.857 141.778 104.82 142.035 104.82C142.329 104.82 142.594 104.867 142.831 104.96C143.07 105.054 143.274 105.182 143.443 105.345L143.255 105.656Z" fill="white"/>
<path d="M138.588 105.966C138.449 105.782 138.297 105.654 138.134 105.581C137.973 105.508 137.793 105.472 137.591 105.472C137.201 105.472 136.897 105.613 136.682 105.896C136.469 106.176 136.362 106.586 136.362 107.125C136.362 107.408 136.386 107.65 136.432 107.851C136.482 108.049 136.552 108.212 136.642 108.341C136.736 108.466 136.849 108.559 136.983 108.621C137.118 108.679 137.269 108.708 137.438 108.708C137.686 108.708 137.9 108.653 138.081 108.542C138.262 108.431 138.431 108.275 138.588 108.074V105.966ZM139.446 102.878V109.333H138.93C138.81 109.333 138.736 109.277 138.707 109.163L138.632 108.651C138.443 108.876 138.227 109.056 137.985 109.194C137.746 109.328 137.469 109.395 137.154 109.395C136.9 109.395 136.67 109.345 136.463 109.246C136.259 109.147 136.084 109.003 135.938 108.813C135.792 108.621 135.68 108.383 135.601 108.1C135.523 107.817 135.483 107.492 135.483 107.125C135.483 106.795 135.527 106.489 135.615 106.207C135.702 105.924 135.829 105.679 135.995 105.472C136.161 105.265 136.362 105.103 136.599 104.986C136.835 104.867 137.102 104.807 137.399 104.807C137.667 104.807 137.895 104.851 138.081 104.938C138.271 105.026 138.44 105.15 138.588 105.31V102.878H139.446Z" fill="white"/>
<path d="M131.629 105.507C131.726 105.405 131.826 105.312 131.931 105.227C132.036 105.142 132.147 105.071 132.264 105.013C132.383 104.952 132.51 104.905 132.644 104.873C132.781 104.838 132.927 104.82 133.081 104.82C133.326 104.82 133.541 104.861 133.724 104.943C133.911 105.024 134.067 105.14 134.192 105.288C134.318 105.434 134.412 105.61 134.476 105.817C134.541 106.024 134.573 106.253 134.573 106.504V109.334H133.716V106.504C133.716 106.186 133.643 105.94 133.497 105.765C133.351 105.587 133.128 105.498 132.828 105.498C132.609 105.498 132.404 105.551 132.211 105.656C132.022 105.758 131.845 105.898 131.682 106.075V109.334H130.829V104.89H131.341C131.46 104.89 131.535 104.947 131.564 105.061L131.629 105.507Z" fill="white"/>
<path d="M129.143 106.618C129.143 106.449 129.118 106.293 129.069 106.15C129.022 106.007 128.952 105.883 128.859 105.778C128.766 105.673 128.652 105.591 128.518 105.533C128.384 105.475 128.229 105.446 128.054 105.446C127.696 105.446 127.413 105.549 127.206 105.756C127.002 105.963 126.872 106.25 126.817 106.618H129.143ZM129.847 108.699C129.742 108.822 129.621 108.928 129.484 109.019C129.347 109.106 129.202 109.178 129.047 109.233C128.892 109.288 128.732 109.329 128.566 109.355C128.403 109.382 128.241 109.395 128.08 109.395C127.774 109.395 127.49 109.344 127.228 109.242C126.968 109.137 126.742 108.985 126.55 108.787C126.36 108.586 126.212 108.338 126.104 108.043C125.999 107.746 125.946 107.405 125.946 107.02C125.946 106.711 125.994 106.424 126.091 106.159C126.187 105.89 126.324 105.657 126.502 105.459C126.682 105.261 126.903 105.105 127.162 104.991C127.422 104.877 127.713 104.82 128.037 104.82C128.308 104.82 128.557 104.866 128.785 104.956C129.015 105.043 129.213 105.172 129.379 105.341C129.546 105.51 129.675 105.718 129.769 105.966C129.865 106.214 129.913 106.497 129.913 106.815C129.913 106.946 129.898 107.035 129.869 107.081C129.84 107.125 129.786 107.147 129.707 107.147H126.795C126.803 107.412 126.841 107.644 126.908 107.842C126.975 108.038 127.067 108.201 127.184 108.332C127.303 108.463 127.445 108.561 127.608 108.625C127.771 108.689 127.954 108.721 128.155 108.721C128.344 108.721 128.508 108.699 128.645 108.656C128.785 108.612 128.904 108.565 129.003 108.516C129.105 108.463 129.19 108.415 129.257 108.371C129.327 108.328 129.388 108.306 129.441 108.306C129.511 108.306 129.564 108.332 129.602 108.385L129.847 108.699Z" fill="white"/>
<path d="M124.965 104.89V109.334H124.112V104.89H124.965ZM125.127 103.517C125.127 103.596 125.111 103.672 125.079 103.745C125.046 103.815 125.003 103.877 124.947 103.933C124.895 103.985 124.832 104.027 124.759 104.059C124.686 104.089 124.611 104.103 124.532 104.103C124.453 104.103 124.379 104.089 124.309 104.059C124.239 104.027 124.176 103.985 124.121 103.933C124.068 103.877 124.026 103.815 123.994 103.745C123.965 103.672 123.95 103.596 123.95 103.517C123.95 103.436 123.965 103.36 123.994 103.29C124.026 103.217 124.068 103.154 124.121 103.102C124.176 103.046 124.239 103.004 124.309 102.975C124.379 102.943 124.453 102.927 124.532 102.927C124.611 102.927 124.686 102.943 124.759 102.975C124.832 103.004 124.895 103.046 124.947 103.102C125.003 103.154 125.046 103.217 125.079 103.29C125.111 103.36 125.127 103.436 125.127 103.517Z" fill="white"/>
<path d="M121.674 105.743C121.817 105.451 121.989 105.223 122.19 105.056C122.392 104.89 122.634 104.807 122.916 104.807C123.013 104.807 123.103 104.819 123.187 104.842C123.275 104.863 123.351 104.895 123.415 104.938L123.358 105.581C123.338 105.66 123.29 105.699 123.214 105.699C123.173 105.699 123.112 105.692 123.03 105.677C122.948 105.66 122.861 105.651 122.768 105.651C122.631 105.651 122.51 105.672 122.405 105.712C122.3 105.75 122.205 105.809 122.12 105.887C122.039 105.963 121.966 106.058 121.902 106.172C121.838 106.282 121.778 106.409 121.722 106.552V109.334H120.87V104.89H121.359C121.453 104.89 121.515 104.908 121.547 104.943C121.582 104.975 121.607 105.033 121.622 105.118L121.674 105.743Z" fill="white"/>
<path d="M118.079 109.333V105.59L117.616 105.533C117.549 105.518 117.493 105.495 117.449 105.463C117.409 105.428 117.388 105.378 117.388 105.314V104.96H118.079V104.558C118.079 104.304 118.116 104.078 118.189 103.88C118.261 103.682 118.365 103.514 118.499 103.377C118.636 103.237 118.799 103.132 118.989 103.062C119.181 102.989 119.397 102.953 119.636 102.953C119.837 102.953 120.022 102.982 120.191 103.04L120.174 103.469C120.171 103.507 120.159 103.536 120.139 103.556C120.119 103.574 120.091 103.587 120.056 103.596C120.024 103.604 119.983 103.61 119.933 103.613C119.887 103.613 119.836 103.613 119.78 103.613C119.649 103.613 119.53 103.629 119.422 103.661C119.314 103.693 119.222 103.747 119.146 103.823C119.07 103.899 119.012 103.999 118.971 104.125C118.931 104.247 118.91 104.4 118.91 104.584V104.96H120.157V105.581H118.936V109.333H118.079Z" fill="white"/>
<path d="M113.887 106.618C113.887 106.449 113.863 106.293 113.813 106.15C113.766 106.007 113.696 105.883 113.603 105.778C113.51 105.673 113.396 105.591 113.262 105.533C113.128 105.475 112.973 105.446 112.798 105.446C112.44 105.446 112.157 105.549 111.95 105.756C111.746 105.963 111.616 106.25 111.561 106.618H113.887ZM114.591 108.699C114.486 108.822 114.365 108.928 114.228 109.019C114.091 109.106 113.946 109.178 113.791 109.233C113.637 109.288 113.476 109.329 113.31 109.355C113.147 109.382 112.985 109.395 112.825 109.395C112.518 109.395 112.234 109.344 111.972 109.242C111.712 109.137 111.486 108.985 111.294 108.787C111.104 108.586 110.956 108.338 110.848 108.043C110.743 107.746 110.69 107.405 110.69 107.02C110.69 106.711 110.739 106.424 110.835 106.159C110.931 105.89 111.068 105.657 111.246 105.459C111.427 105.261 111.647 105.105 111.906 104.991C112.166 104.877 112.457 104.82 112.781 104.82C113.052 104.82 113.301 104.866 113.529 104.956C113.759 105.043 113.957 105.172 114.123 105.341C114.29 105.51 114.419 105.718 114.513 105.966C114.609 106.214 114.657 106.497 114.657 106.815C114.657 106.946 114.642 107.035 114.613 107.081C114.584 107.125 114.53 107.147 114.451 107.147H111.539C111.548 107.412 111.586 107.644 111.653 107.842C111.72 108.038 111.811 108.201 111.928 108.332C112.048 108.463 112.189 108.561 112.352 108.625C112.516 108.689 112.698 108.721 112.899 108.721C113.088 108.721 113.252 108.699 113.389 108.656C113.529 108.612 113.648 108.565 113.747 108.516C113.849 108.463 113.934 108.415 114.001 108.371C114.071 108.328 114.132 108.306 114.185 108.306C114.255 108.306 114.309 108.332 114.347 108.385L114.591 108.699Z" fill="white"/>
<path d="M109.192 109.403C108.833 109.403 108.556 109.303 108.361 109.102C108.169 108.9 108.072 108.613 108.072 108.24V105.581H107.556C107.507 105.581 107.464 105.566 107.429 105.537C107.397 105.505 107.381 105.459 107.381 105.397V105.052L108.103 104.951L108.295 103.626C108.307 103.577 108.329 103.539 108.361 103.512C108.396 103.483 108.44 103.469 108.492 103.469H108.925V104.96H110.185V105.581H108.925V108.183C108.925 108.358 108.967 108.489 109.052 108.577C109.139 108.661 109.25 108.704 109.384 108.704C109.463 108.704 109.53 108.693 109.586 108.673C109.644 108.653 109.693 108.631 109.734 108.607C109.775 108.581 109.81 108.558 109.839 108.537C109.868 108.517 109.895 108.507 109.918 108.507C109.947 108.507 109.969 108.514 109.983 108.529C110.001 108.54 110.018 108.561 110.036 108.59L110.29 109.001C110.15 109.129 109.983 109.228 109.791 109.298C109.599 109.368 109.399 109.403 109.192 109.403Z" fill="white"/>
<path d="M106.566 104.89V109.334H105.714V104.89H106.566ZM106.728 103.517C106.728 103.596 106.712 103.672 106.68 103.745C106.648 103.815 106.604 103.877 106.549 103.933C106.496 103.985 106.434 104.027 106.361 104.059C106.288 104.089 106.212 104.103 106.133 104.103C106.055 104.103 105.98 104.089 105.91 104.059C105.84 104.027 105.778 103.985 105.722 103.933C105.67 103.877 105.628 103.815 105.595 103.745C105.566 103.672 105.552 103.596 105.552 103.517C105.552 103.436 105.566 103.36 105.595 103.29C105.628 103.217 105.67 103.154 105.722 103.102C105.778 103.046 105.84 103.004 105.91 102.975C105.98 102.943 106.055 102.927 106.133 102.927C106.212 102.927 106.288 102.943 106.361 102.975C106.434 103.004 106.496 103.046 106.549 103.102C106.604 103.154 106.648 103.217 106.68 103.29C106.712 103.36 106.728 103.436 106.728 103.517Z" fill="white"/>
<path d="M104.996 104.89L103.194 109.333H102.424L100.623 104.89H101.327C101.394 104.89 101.449 104.906 101.493 104.938C101.537 104.97 101.566 105.011 101.58 105.061L102.643 107.79C102.681 107.903 102.713 108.017 102.739 108.131C102.768 108.242 102.795 108.352 102.818 108.463C102.841 108.352 102.868 108.242 102.897 108.131C102.926 108.02 102.961 107.906 103.002 107.79L104.077 105.061C104.095 105.011 104.126 104.97 104.169 104.938C104.213 104.906 104.266 104.89 104.327 104.89H104.996Z" fill="white"/>
<path d="M97.1382 105.507C97.2344 105.405 97.335 105.312 97.44 105.227C97.5449 105.142 97.6557 105.071 97.7723 105.013C97.8919 104.952 98.0187 104.905 98.1528 104.873C98.2899 104.838 98.4356 104.82 98.5902 104.82C98.8351 104.82 99.0494 104.861 99.233 104.943C99.4196 105.024 99.5756 105.14 99.701 105.288C99.8264 105.434 99.9211 105.61 99.9853 105.817C100.049 106.024 100.081 106.253 100.081 106.504V109.334H99.2243V106.504C99.2243 106.186 99.1514 105.94 99.0056 105.765C98.8598 105.587 98.6368 105.498 98.3365 105.498C98.1178 105.498 97.9123 105.551 97.7199 105.656C97.5304 105.758 97.354 105.898 97.1907 106.075V109.334H96.3379V104.89H96.8496C96.9691 104.89 97.0435 104.947 97.0726 105.061L97.1382 105.507Z" fill="white"/>
<path d="M95.0316 109.333H94.0957V103.053H95.0316V109.333Z" fill="white"/>
<path d="M86.3134 73.7773C84.892 75.7782 83.099 77.5275 81.0107 78.9051C78.7693 80.3701 76.3531 80.8512 73.7837 81.5182C70.3311 82.4299 66.4242 82.5898 62.5661 81.6821C53.2291 87.4331 40.7542 87.9469 31.6467 80.9606C13.3758 93.9633 6.90622 136.423 25.6224 149.053C33.2351 154.172 43.3871 151.334 45.2915 149.13C45.8928 148.43 46.0459 147.359 45.9693 146.189C42.1437 146.514 37.6609 143.957 35.528 137.114C33.1227 129.373 34.4566 116.833 39.9451 110.481C42.1318 107.966 45.3899 106.665 48.6261 105.845C53.7919 104.563 58.9153 104.293 64.0641 105.648C64.9605 105.889 65.879 106.195 66.5568 106.829C67.2347 107.452 67.6283 108.491 67.2566 109.343C66.9942 109.934 66.4256 110.338 65.868 110.666C61.6835 113.107 56.8847 113.527 50.0366 114.57C55.253 114.218 60.6894 115.097 65.4744 117.073C69.9708 118.932 69.3389 122.005 66.8958 123.032C65.9449 123.452 64.843 123.503 63.8454 123.524C65.551 123.611 66.2944 125.973 65.5072 127.482C70.5475 124.77 75.5222 121.95 80.5078 119.129C81.2403 118.713 81.9947 118.287 82.596 117.697C85.1654 115.171 85.7886 109.978 86.6413 106.621C89.3756 95.8297 91.8615 84.0116 86.3134 73.7773ZM50.5176 94.3648C50.3427 93.5339 52.092 92.4733 54.4099 92.0032C56.7168 91.5331 58.7395 91.8392 58.9035 92.6701C59.3035 94.6699 50.8819 96.372 50.5176 94.3648ZM55.3939 79.6813C52.8938 78.2789 50.4477 76.5401 48.4075 74.3458C44.6859 75.2361 41.0248 76.1585 37.3648 77.7789C42.8205 81.1683 49.4461 81.5838 55.3939 79.6813Z" fill="#AEEA00"/>
<path d="M86.3134 73.7773C84.892 75.7782 83.099 77.5275 81.0107 78.9051C78.7693 80.3701 76.3531 80.8512 73.7837 81.5182C70.3311 82.4299 66.4242 82.5898 62.5661 81.6821C53.2291 87.4331 40.7542 87.9469 31.6467 80.9606C13.3758 93.9633 6.90622 136.423 25.6224 149.053C33.2351 154.172 43.3871 151.334 45.2915 149.13C45.8928 148.43 46.0459 147.359 45.9693 146.189C42.1437 146.514 37.6609 143.957 35.528 137.114C33.1227 129.373 34.4566 116.833 39.9451 110.481C42.1318 107.966 45.3899 106.665 48.6261 105.845C53.7919 104.563 58.9153 104.293 64.0641 105.648C64.9605 105.889 65.879 106.195 66.5568 106.829C67.2347 107.452 67.6283 108.491 67.2566 109.343C66.9942 109.934 66.4256 110.338 65.868 110.666C61.6835 113.107 56.8847 113.527 50.0366 114.57C55.253 114.218 60.6894 115.097 65.4744 117.073C69.9708 118.932 69.3389 122.005 66.8958 123.032C65.9449 123.452 64.843 123.503 63.8454 123.524C65.551 123.611 66.2944 125.973 65.5072 127.482C70.5475 124.77 75.5222 121.95 80.5078 119.129C81.2403 118.713 81.9947 118.287 82.596 117.697C85.1654 115.171 85.7886 109.978 86.6413 106.621C89.3756 95.8297 91.8615 84.0116 86.3134 73.7773ZM50.5176 94.3648C50.3427 93.5339 52.092 92.4733 54.4099 92.0032C56.7168 91.5331 58.7395 91.8392 58.9035 92.6701C59.3035 94.6699 50.8819 96.372 50.5176 94.3648ZM55.3939 79.6813C52.8938 78.2789 50.4477 76.5401 48.4075 74.3458C44.6859 75.2361 41.0248 76.1585 37.3648 77.7789C42.8205 81.1683 49.4461 81.5838 55.3939 79.6813Z" fill="#0D0D0D" fill-opacity="0.32"/>
<path d="M50.2555 76.1172C49.2617 75.6199 47.4828 75.7841 46.3304 75.6689C42.9083 75.3299 39.9454 72.9137 38.1414 69.9835C37.8899 69.5681 37.6493 69.1417 37.4307 68.7043C39.5736 69.0761 41.8368 68.8137 43.8595 67.9937C44.0781 68.431 44.3078 68.8465 44.5483 69.262C44.9856 70.0164 45.4667 70.7489 45.9696 71.4596C47.216 73.1652 48.6592 74.7396 50.2555 76.1172Z" fill="#DDDDDB"/>
<path d="M50.2555 76.1172C49.2617 75.6199 47.4828 75.7841 46.3304 75.6689C42.9083 75.3299 39.9454 72.9137 38.1414 69.9835C37.8899 69.5681 37.6493 69.1417 37.4307 68.7043C39.5736 69.0761 41.8368 68.8137 43.8595 67.9937C44.0781 68.431 44.3078 68.8465 44.5483 69.262C44.9856 70.0164 45.4667 70.7489 45.9696 71.4596C47.216 73.1652 48.6592 74.7396 50.2555 76.1172Z" fill="#0D0D0D" fill-opacity="0.82"/>
<path d="M55.0989 36.746C54.3772 36.9319 53.6666 37.1615 52.9668 37.4239C49.9929 38.5609 47.4565 40.6383 45.3245 42.9671C43.9814 44.4486 43.0703 45.4669 42.1757 47.0781C39.197 46.0133 35.7695 46.8294 33.2103 48.6524C33.1775 48.1604 33.1666 47.6575 33.1557 47.1655C33.1338 45.6895 33.1338 44.1807 33.2978 42.7156C39.2999 36.7806 48.0031 35.1174 55.0989 36.746Z" fill="#DDDDDB"/>
<path d="M55.0989 36.746C54.3772 36.9319 53.6666 37.1615 52.9668 37.4239C49.9929 38.5609 47.4565 40.6383 45.3245 42.9671C43.9814 44.4486 43.0703 45.4669 42.1757 47.0781C39.197 46.0133 35.7695 46.8294 33.2103 48.6524C33.1775 48.1604 33.1666 47.6575 33.1557 47.1655C33.1338 45.6895 33.1338 44.1807 33.2978 42.7156C39.2999 36.7806 48.0031 35.1174 55.0989 36.746Z" fill="#0D0D0D" fill-opacity="0.82"/>
<path d="M91.3865 42.8906C92.2721 49.1007 91.9331 55.4857 90.4462 61.5756C90.6102 59.5748 90.5665 57.5412 90.3587 55.5623C90.0089 52.3916 89.6918 49.3521 88.2923 46.4657C86.051 41.83 81.9401 38.397 77.2824 37.3255C73.1059 36.3524 68.8419 35.8604 64.567 35.8386C60.1865 32.4091 54.7477 30.8857 49.2275 30.8857C50.8987 29.5898 52.6249 27.9041 54.3553 26.9607C63.1055 22.1392 73.527 22.1411 82.8366 25.5394C85.6136 26.5452 88.3579 27.9119 90.3041 30.1423C92.2392 32.3618 93.2233 35.6199 92.1299 38.3642C91.3484 40.3337 90.9852 40.1558 91.3865 42.8906Z" fill="#DDDDDB"/>
<path d="M91.3865 42.8906C92.2721 49.1007 91.9331 55.4857 90.4462 61.5756C90.6102 59.5748 90.5665 57.5412 90.3587 55.5623C90.0089 52.3916 89.6918 49.3521 88.2923 46.4657C86.051 41.83 81.9401 38.397 77.2824 37.3255C73.1059 36.3524 68.8419 35.8604 64.567 35.8386C60.1865 32.4091 54.7477 30.8857 49.2275 30.8857C50.8987 29.5898 52.6249 27.9041 54.3553 26.9607C63.1055 22.1392 73.527 22.1411 82.8366 25.5394C85.6136 26.5452 88.3579 27.9119 90.3041 30.1423C92.2392 32.3618 93.2233 35.6199 92.1299 38.3642C91.3484 40.3337 90.9852 40.1558 91.3865 42.8906Z" fill="#0D0D0D" fill-opacity="0.82"/>
<path d="M39.4046 69.1429C31.7272 69.1429 27.065 61.8206 28.2951 55.5542C29.5137 49.4208 36.1435 45.0499 41.7701 46.673C42.117 46.7725 41.9668 47.2967 41.6185 47.1983C40.6838 46.9282 39.662 46.8268 38.6647 46.9026C33.9769 47.2741 29.7493 51.0389 28.8311 55.6599C27.9246 60.2799 30.4103 65.3643 34.6128 67.488C37.4011 68.8963 40.8829 68.9678 43.9274 67.6759C44.0646 67.6161 44.2275 67.6823 44.2857 67.8211C44.3449 67.9599 44.2798 68.1211 44.141 68.1799C42.6243 68.8226 41.003 69.1429 39.4046 69.1429Z" fill="#DDDDDB"/>
<path d="M40.4631 57.1986C38.6309 55.2362 35.4368 54.665 33.0388 55.8693C32.7101 56.0278 32.4732 55.5428 32.7932 55.3803C35.4011 54.0713 38.8706 54.6927 40.8624 56.8249C40.9654 56.936 40.9596 57.1089 40.8496 57.2114C40.7395 57.3138 40.5668 57.3095 40.4631 57.1986Z" fill="#DDDDDB"/>
<path d="M36.5538 59.9202C36.2148 58.4916 36.5213 56.9221 37.3744 55.7241C37.5834 55.4285 38.0296 55.7456 37.8196 56.0402C37.0567 57.1132 36.7823 58.5162 37.0856 59.7942C37.1688 60.145 36.6376 60.2731 36.5538 59.9202Z" fill="#DDDDDB"/>
<path d="M55.2717 79.9257C50.373 77.4764 46.3531 73.3774 43.9524 68.3848C43.8979 68.277 43.8418 68.1649 43.7853 68.0399C42.0678 64.3553 41.022 60.1528 40.8427 56.2097C40.8261 55.8477 41.3728 55.824 41.3883 56.1841C41.565 60.0578 42.5926 64.1877 44.2823 67.8125C44.3362 67.9321 44.389 68.0378 44.4424 68.1435C46.7935 73.0326 50.7254 77.0418 55.5162 79.4367C55.8376 79.5968 55.5989 80.0848 55.2717 79.9257Z" fill="#DDDDDB"/>
<path d="M68.9499 82.4337C68.592 82.3798 68.6736 81.8375 69.031 81.8934C73.4364 82.5504 79.6459 80.6612 84.0174 76.414C89.0949 71.4838 91.1224 64.4243 90.6227 57.4771C90.5981 57.1301 91.1401 57.0596 91.1683 57.4386C91.6808 64.5591 89.5818 71.7721 84.3985 76.8069C79.8936 81.1827 73.507 83.1144 68.9499 82.4337Z" fill="#DDDDDB"/>
<path d="M66.2778 60.1859C58.0191 60.0362 54.148 46.502 60.0659 38.7901C60.1583 38.6694 60.3302 38.647 60.4492 38.7399C60.5688 38.8317 60.5912 39.0036 60.4994 39.1232C54.8395 46.5012 58.5167 59.4981 66.2874 59.6392C67.9253 59.6862 70.041 59.147 71.1519 57.5946C71.3577 57.3016 71.8086 57.6165 71.5961 57.9127C70.4496 59.5153 68.2307 60.2324 66.2778 60.1859Z" fill="#DDDDDB"/>
<path d="M74.6629 51.406C75.8017 48.0899 75.0637 43.1112 72.3518 40.3072C70.7865 38.6895 68.9099 38.133 67.1676 38.4045C67.0261 38.428 66.8782 38.3266 66.8553 38.176C66.8323 38.0276 66.9343 37.8877 67.0832 37.8642C67.411 37.813 67.7767 37.7938 68.1734 37.8066C69.8465 37.8333 71.4288 38.5668 72.7448 39.927C75.5946 42.8743 76.3856 48.0794 75.1797 51.5832C75.0615 51.9265 74.5451 51.7466 74.6629 51.406Z" fill="#DDDDDB"/>
<path d="M81.8412 55.7515C77.1541 49.1602 80.8329 37.9507 87.6639 38.1546C94.5937 38.2788 97.7301 49.584 92.8455 55.9512C89.7445 59.9937 84.7988 59.9125 81.8412 55.7515ZM82.2864 55.4344C86.7613 61.7302 94.5175 57.2823 94.6724 48.6694C94.7204 46.0268 94.0077 43.5316 92.6651 41.6428C91.3406 39.7807 89.5607 38.7354 87.6543 38.7013C81.3353 38.4941 77.8211 49.1563 82.2864 55.4344Z" fill="#DDDDDB"/>
<path d="M79.9376 45.3062C78.4617 43.867 75.9869 43.8597 75.5333 45.0286C75.4029 45.3685 74.8922 45.1675 75.024 44.8321C75.245 44.2609 75.7709 43.8648 76.5054 43.7164C77.8427 43.4409 79.2681 43.8893 80.3188 44.9154C80.58 45.1676 80.1937 45.5598 79.9376 45.3062Z" fill="#DDDDDB"/>
<path d="M75.5386 59.859C75.5386 59.4559 76.1506 59.6715 77.154 58.8596C78.3963 57.8891 78.25 56.5929 78.0648 54.9518C77.7742 52.4115 77.551 48.5681 77.1412 43.964C77.1279 43.8135 77.2389 43.6811 77.3894 43.6672C77.9043 43.5969 77.615 44.1204 78.5169 54.0176C78.7148 56.3092 79.5087 58.9437 75.9021 60.1184C75.7329 60.1782 75.5386 60.0466 75.5386 59.859Z" fill="#DDDDDB"/>
<path d="M65.6414 49.709C66.5807 54.0131 65.6618 57.8642 63.5929 58.3158C61.5241 58.7673 59.0841 55.6491 58.1448 51.345C57.2055 47.041 58.1245 43.1898 60.1933 42.7383C62.2623 42.2868 64.7021 45.4049 65.6414 49.709Z" fill="#DDDDDB"/>
<path d="M85.448 49.4834C85.3927 52.5365 84.1567 54.9867 82.6891 54.9602C81.2216 54.9336 80.075 52.4402 80.1303 49.3871C80.1856 46.334 81.4217 43.8838 82.8893 43.9104C84.3568 43.937 85.5033 46.4303 85.448 49.4834Z" fill="#DDDDDB"/>
<path d="M48.9213 36.1992C47.2093 37.181 45.6478 37.6123 43.8045 37.9814C42.5909 38.1672 41.3882 38.1016 40.1855 38.0907C42.9101 36.9298 45.9796 36.3066 48.9213 36.1992Z" fill="#DDDDDB"/>
<path d="M53.2619 31.17C45.8032 30.1308 37.1914 31.8216 30.5315 37.2489C23.6949 32.4966 23.6109 20.5752 30.9033 14.9449C36.2168 10.834 44.4824 11.1729 49.4461 15.7103C53.6239 19.5385 55.0287 25.9577 53.2619 31.17Z" fill="#DDDDDB"/>
<path d="M53.2619 31.17C45.8032 30.1308 37.1914 31.8216 30.5315 37.2489C23.6949 32.4966 23.6109 20.5752 30.9033 14.9449C36.2168 10.834 44.4824 11.1729 49.4461 15.7103C53.6239 19.5385 55.0287 25.9577 53.2619 31.17Z" fill="#0D0D0D" fill-opacity="0.82"/>
<path d="M60.4442 48.7603C54.3721 47.6083 49.2807 47.0477 42.8697 46.8256C42.5081 46.8128 42.53 46.2682 42.8889 46.279C49.3293 46.5021 54.4453 47.0648 60.5456 48.2222C60.694 48.251 60.7917 48.3941 60.7634 48.5425C60.7345 48.6924 60.5895 48.7876 60.4442 48.7603Z" fill="#DDDDDB"/>
<path d="M57.7444 37.5771C50.8127 41.5897 45.0727 48.6963 42.077 56.1856C41.8364 56.787 41.2242 56.5355 40.9618 55.9451C40.4917 54.8736 40.8962 51.1454 41.6943 46.9361C42.4153 43.1369 43.2318 39.9226 44.1434 36.8227C48.6873 35.8123 53.5345 35.9251 57.7444 37.5771Z" fill="#DDDDDB"/>
<path d="M57.7444 37.5771C50.8127 41.5897 45.0727 48.6963 42.077 56.1856C41.8364 56.787 41.2242 56.5355 40.9618 55.9451C40.4917 54.8736 40.8962 51.1454 41.6943 46.9361C42.4153 43.1369 43.2318 39.9226 44.1434 36.8227C48.6873 35.8123 53.5345 35.9251 57.7444 37.5771Z" fill="#0D0D0D" fill-opacity="0.82"/>
<path d="M68.4967 68.8855C67.6739 64.477 63.4416 61.9506 59.4462 62.7088C59.0961 62.7771 58.9853 62.2405 59.3448 62.1707C63.6655 61.3591 68.1579 64.0914 69.0337 68.7851C69.0615 68.9335 68.9638 69.0766 68.8154 69.1044C68.6709 69.1315 68.525 69.0368 68.4967 68.8855Z" fill="#DDDDDB"/>
<path d="M61.0681 33.8699C60.9314 33.8699 60.8129 33.7674 60.7969 33.6275C60.4792 30.8365 61.2475 27.9719 62.9056 25.7681C63.1205 25.4799 63.5608 25.8064 63.3423 26.097C61.7674 28.1897 61.0376 30.9123 61.3403 33.5656C61.3574 33.7161 61.2496 33.8507 61.0996 33.8677C61.0889 33.8688 61.0788 33.8699 61.0681 33.8699Z" fill="#DDDDDB"/>
<path d="M61.0681 33.8699C60.9314 33.8699 60.8129 33.7674 60.7969 33.6275C60.4792 30.8365 61.2475 27.9719 62.9056 25.7681C63.1205 25.4799 63.5608 25.8064 63.3423 26.097C61.7674 28.1897 61.0376 30.9123 61.3403 33.5656C61.3574 33.7161 61.2496 33.8507 61.0996 33.8677C61.0889 33.8688 61.0788 33.8699 61.0681 33.8699Z" fill="#0D0D0D" fill-opacity="0.64"/>
<path d="M75.0116 36.6833C76.3559 33.4566 78.7166 30.6347 81.6597 28.7374C81.9629 28.5404 82.2603 29.0018 81.9555 29.1965C79.1047 31.0351 76.8182 33.7684 75.5166 36.8925C75.3781 37.2271 74.8731 37.0168 75.0116 36.6833Z" fill="#DDDDDB"/>
<path d="M75.0116 36.6833C76.3559 33.4566 78.7166 30.6347 81.6597 28.7374C81.9629 28.5404 82.2603 29.0018 81.9555 29.1965C79.1047 31.0351 76.8182 33.7684 75.5166 36.8925C75.3781 37.2271 74.8731 37.0168 75.0116 36.6833Z" fill="#0D0D0D" fill-opacity="0.64"/>
<path d="M38.2469 32.5472C39.8078 30.8677 41.4195 29.5918 42.9079 28.8583C46.7213 26.9951 50.7636 26.378 54.2924 27.1307C54.651 27.2061 54.5254 27.7466 54.1781 27.6646C50.7689 26.9396 46.852 27.5375 43.1487 29.3494C41.7206 30.053 40.1639 31.2884 38.6472 32.9188C38.4033 33.1845 37.9993 32.8114 38.2469 32.5472Z" fill="#DDDDDB"/>
<path d="M38.2469 32.5472C39.8078 30.8677 41.4195 29.5918 42.9079 28.8583C46.7213 26.9951 50.7636 26.378 54.2924 27.1307C54.651 27.2061 54.5254 27.7466 54.1781 27.6646C50.7689 26.9396 46.852 27.5375 43.1487 29.3494C41.7206 30.053 40.1639 31.2884 38.6472 32.9188C38.4033 33.1845 37.9993 32.8114 38.2469 32.5472Z" fill="#0D0D0D" fill-opacity="0.64"/>
<path d="M138.583 39.4381C138.356 39.8726 138.571 39.6429 137.359 41.1965C137.198 41.4027 137.284 41.2955 138.078 43.2275C138.129 43.3525 138.188 43.4036 138.32 43.4158C138.858 43.4655 139.395 43.529 139.933 43.5819C140.365 43.6242 140.591 43.8638 140.599 44.3022C140.614 45.1607 140.628 46.0192 140.642 46.8777C140.648 47.3181 140.433 47.5565 139.996 47.6145C139.453 47.6867 138.912 47.7713 138.368 47.8411C138.25 47.8564 138.203 47.9047 138.162 48.0142C137.491 49.7727 137.359 49.883 137.5 50.0633C137.842 50.5011 138.199 50.9271 138.547 51.3593C138.809 51.6842 138.799 52.0063 138.51 52.3075C137.916 52.9277 137.32 53.5456 136.722 54.1611C136.398 54.4935 136.094 54.5152 135.728 54.2383C134.281 53.1436 134.377 53.1178 134.132 53.2296C132.256 54.0854 132.249 53.9553 132.226 54.2263C132.178 54.7796 132.116 55.3317 132.057 55.884C132.014 56.2737 131.776 56.4925 131.384 56.4998C130.504 56.5162 129.623 56.5305 128.743 56.5434C128.355 56.5492 128.101 56.3387 128.045 55.9527C127.964 55.3958 127.889 54.838 127.821 54.2794C127.79 54.0231 127.733 54.1468 125.887 53.3682C125.637 53.2625 125.738 53.2896 124.307 54.4405C123.967 54.7137 123.654 54.6985 123.345 54.3989C122.723 53.7967 122.101 53.1938 121.481 52.59C121.193 52.3098 121.162 51.9844 121.402 51.6612C122.521 50.1509 122.547 50.2693 122.436 50.0253C121.589 48.1628 121.711 48.1402 121.469 48.1188C120.924 48.0704 120.379 48.0041 119.834 47.9489C119.4 47.9049 119.177 47.6679 119.169 47.2283C119.154 46.3698 119.14 45.5113 119.127 44.6528C119.12 44.2158 119.34 43.9724 119.773 43.9167C120.303 43.8486 120.83 43.7679 121.359 43.702C121.661 43.6644 121.525 43.5915 122.284 41.7899C122.346 41.6448 122.355 41.5529 122.248 41.4273C121.903 41.0205 121.571 40.6022 121.234 40.1877C120.956 39.8447 120.966 39.5282 121.275 39.2069C121.869 38.5875 122.466 37.9698 123.065 37.3548C123.369 37.0428 123.682 37.0212 124.026 37.2815C125.456 38.3654 125.39 38.4156 125.639 38.3011C126.207 38.0393 126.782 37.7929 127.36 37.5526C127.597 37.454 127.51 37.5132 127.711 35.6452C127.753 35.2566 127.992 35.0378 128.385 35.0305C129.265 35.0142 130.146 34.9997 131.026 34.9869C131.414 34.9813 131.666 35.1911 131.723 35.579C131.996 37.4402 131.882 37.3764 132.135 37.4717C134.092 38.2097 133.994 38.2923 134.187 38.13C134.59 37.791 134.999 37.4599 135.409 37.1284C135.809 36.8047 136.104 36.8207 136.471 37.1781C137.081 37.7716 137.698 38.3585 138.299 38.9617C138.422 39.0851 138.485 39.2683 138.583 39.4381ZM129.79 41.0564C127.152 41.1481 125.102 43.2988 125.191 45.8968C125.283 48.5407 127.431 50.5302 129.98 50.4663C132.633 50.3998 134.68 48.2144 134.579 45.613C134.476 42.9718 132.317 41.0196 129.79 41.0564Z" fill="#DDDDDB"/>
<path d="M138.583 39.4381C138.356 39.8726 138.571 39.6429 137.359 41.1965C137.198 41.4027 137.284 41.2955 138.078 43.2275C138.129 43.3525 138.188 43.4036 138.32 43.4158C138.858 43.4655 139.395 43.529 139.933 43.5819C140.365 43.6242 140.591 43.8638 140.599 44.3022C140.614 45.1607 140.628 46.0192 140.642 46.8777C140.648 47.3181 140.433 47.5565 139.996 47.6145C139.453 47.6867 138.912 47.7713 138.368 47.8411C138.25 47.8564 138.203 47.9047 138.162 48.0142C137.491 49.7727 137.359 49.883 137.5 50.0633C137.842 50.5011 138.199 50.9271 138.547 51.3593C138.809 51.6842 138.799 52.0063 138.51 52.3075C137.916 52.9277 137.32 53.5456 136.722 54.1611C136.398 54.4935 136.094 54.5152 135.728 54.2383C134.281 53.1436 134.377 53.1178 134.132 53.2296C132.256 54.0854 132.249 53.9553 132.226 54.2263C132.178 54.7796 132.116 55.3317 132.057 55.884C132.014 56.2737 131.776 56.4925 131.384 56.4998C130.504 56.5162 129.623 56.5305 128.743 56.5434C128.355 56.5492 128.101 56.3387 128.045 55.9527C127.964 55.3958 127.889 54.838 127.821 54.2794C127.79 54.0231 127.733 54.1468 125.887 53.3682C125.637 53.2625 125.738 53.2896 124.307 54.4405C123.967 54.7137 123.654 54.6985 123.345 54.3989C122.723 53.7967 122.101 53.1938 121.481 52.59C121.193 52.3098 121.162 51.9844 121.402 51.6612C122.521 50.1509 122.547 50.2693 122.436 50.0253C121.589 48.1628 121.711 48.1402 121.469 48.1188C120.924 48.0704 120.379 48.0041 119.834 47.9489C119.4 47.9049 119.177 47.6679 119.169 47.2283C119.154 46.3698 119.14 45.5113 119.127 44.6528C119.12 44.2158 119.34 43.9724 119.773 43.9167C120.303 43.8486 120.83 43.7679 121.359 43.702C121.661 43.6644 121.525 43.5915 122.284 41.7899C122.346 41.6448 122.355 41.5529 122.248 41.4273C121.903 41.0205 121.571 40.6022 121.234 40.1877C120.956 39.8447 120.966 39.5282 121.275 39.2069C121.869 38.5875 122.466 37.9698 123.065 37.3548C123.369 37.0428 123.682 37.0212 124.026 37.2815C125.456 38.3654 125.39 38.4156 125.639 38.3011C126.207 38.0393 126.782 37.7929 127.36 37.5526C127.597 37.454 127.51 37.5132 127.711 35.6452C127.753 35.2566 127.992 35.0378 128.385 35.0305C129.265 35.0142 130.146 34.9997 131.026 34.9869C131.414 34.9813 131.666 35.1911 131.723 35.579C131.996 37.4402 131.882 37.3764 132.135 37.4717C134.092 38.2097 133.994 38.2923 134.187 38.13C134.59 37.791 134.999 37.4599 135.409 37.1284C135.809 36.8047 136.104 36.8207 136.471 37.1781C137.081 37.7716 137.698 38.3585 138.299 38.9617C138.422 39.0851 138.485 39.2683 138.583 39.4381ZM129.79 41.0564C127.152 41.1481 125.102 43.2988 125.191 45.8968C125.283 48.5407 127.431 50.5302 129.98 50.4663C132.633 50.3998 134.68 48.2144 134.579 45.613C134.476 42.9718 132.317 41.0196 129.79 41.0564Z" fill="#0D0D0D" fill-opacity="0.82"/>
<path d="M47.2315 86.3577C22.0947 86.3577 10.5037 53.2218 30.3585 37.0381C40.1807 29.0319 55.959 28.1857 65.366 36.1327C71.445 41.2491 75.3416 48.5448 76.057 56.149C76.3757 59.4877 75.8824 63.1788 74.59 67.1165C70.7739 78.8074 59.0987 86.3577 47.2315 86.3577ZM30.704 37.4609C16.4425 49.0871 18.4342 70.446 31.8133 80.7437C46.0648 91.6746 68.4957 84.0256 74.0705 66.9467C75.339 63.0795 75.8242 59.4642 75.5125 56.2003C74.7545 48.137 70.3614 40.7317 64.3976 36.0537C55.2693 28.9089 40.2255 29.7005 30.704 37.4609ZM48.2704 81.0843C28.777 81.0843 19.1825 56.1999 33.1058 42.5208C41.4747 34.2471 55.321 33.9083 63.0368 40.3854C67.952 44.5185 71.1071 50.424 71.6943 56.5868C71.9479 59.3372 71.5465 62.3278 70.5012 65.4754C67.4276 74.9306 57.9833 81.0843 48.2704 81.0843ZM33.4896 42.9105C22.7559 53.4564 26.4406 70.7112 37.5085 77.5459C48.956 84.6634 65.6978 78.4837 69.9812 65.3067L69.9817 65.3046C71.0035 62.2285 71.3964 59.3126 71.1498 56.638C70.5764 50.6172 67.4913 44.8462 62.685 40.8039C55.2797 34.5878 41.7048 34.7845 33.4896 42.9105Z" fill="#DDDDDB"/>
<path d="M61.5387 105.101C58.7506 104.653 55.8861 104.653 53.0653 105.003C51.6941 99.1572 50.6428 95.2613 50.7037 94.6927C52.1137 96.1297 58.735 94.615 58.9037 92.856C58.9972 92.9805 61.4005 104.448 61.5387 105.101Z" fill="#DDDDDB"/>
<path d="M61.5387 105.101C58.7506 104.653 55.8861 104.653 53.0653 105.003C51.6941 99.1572 50.6428 95.2613 50.7037 94.6927C52.1137 96.1297 58.735 94.615 58.9037 92.856C58.9972 92.9805 61.4005 104.448 61.5387 105.101Z" fill="#0D0D0D" fill-opacity="0.64"/>
<path d="M63.9657 116.494C61.1995 115.51 58.3022 114.887 55.383 114.635C55.3065 114.351 55.2409 114.078 55.1753 113.793C57.8321 113.389 60.5216 112.93 63.0145 112.011C63.0393 112.133 63.5767 114.713 63.9657 116.494Z" fill="#DDDDDB"/>
<path d="M63.9657 116.494C61.1995 115.51 58.3022 114.887 55.383 114.635C55.3065 114.351 55.2409 114.078 55.1753 113.793C57.8321 113.389 60.5216 112.93 63.0145 112.011C63.0393 112.133 63.5767 114.713 63.9657 116.494Z" fill="#0D0D0D" fill-opacity="0.64"/>
<path d="M61.0576 136.523C62.415 135.505 63.7809 133.888 63.5394 132.216C63.3755 131.155 62.3368 130.204 61.2981 130.445C62.9054 129.799 64.6328 129.056 65.4747 127.547C66.3165 126.038 65.573 123.611 63.8456 123.524C64.3704 123.513 64.9061 123.491 65.431 123.425C65.4553 123.535 67.3595 132.524 67.5301 133.353C68.3978 137.379 63.5606 139.521 61.0576 136.523Z" fill="#DDDDDB"/>
<path d="M61.0576 136.523C62.415 135.505 63.7809 133.888 63.5394 132.216C63.3755 131.155 62.3368 130.204 61.2981 130.445C62.9054 129.799 64.6328 129.056 65.4747 127.547C66.3165 126.038 65.573 123.611 63.8456 123.524C64.3704 123.513 64.9061 123.491 65.431 123.425C65.4553 123.535 67.3595 132.524 67.5301 133.353C68.3978 137.379 63.5606 139.521 61.0576 136.523Z" fill="#0D0D0D" fill-opacity="0.64"/>
<path d="M39.347 144.052C31.652 137.169 32.934 118.176 39.7383 110.302C41.6308 108.125 44.4336 106.625 48.5587 105.579C53.7542 104.291 58.9353 104.015 64.1333 105.383C65.0649 105.633 66.0248 105.956 66.7433 106.629C67.4283 107.259 67.9605 108.412 67.5067 109.452C67.2062 110.129 66.58 110.564 66.0061 110.902C62.424 112.991 58.3647 113.604 53.934 114.26C58.1129 114.459 62.0655 115.367 65.579 116.82C70.8389 118.995 69.7319 123.307 65.0884 123.737C66.0857 124.571 66.4121 126.338 65.7493 127.607L65.7189 127.669C64.9875 128.981 63.6208 129.747 62.3753 130.294C64.3382 131.151 64.6614 134.162 61.2211 136.742C58.8919 138.475 55.6979 139.066 52.8866 139.483C51.8577 139.631 51.9805 139.911 51.939 140.547C51.9146 143.456 49.3384 146.205 45.9903 146.461C45.7885 146.478 41.1305 145.657 39.347 144.052ZM48.6916 106.109C44.6813 107.125 41.9672 108.571 40.151 110.659C34.6272 117.053 33.4356 129.459 35.7889 137.033C38.043 144.26 43.0082 146.636 46.7841 145.79C49.3493 145.236 51.3726 142.928 51.3924 140.534L51.3961 140.394C51.4118 139.508 51.6911 139.099 52.8081 138.943C56.2459 138.432 60.0943 137.68 62.2883 134.985C62.7261 134.454 63.434 133.398 63.2685 132.255C63.1313 131.363 62.2577 130.516 61.3594 130.71C61.0432 130.792 60.8787 130.318 61.1961 130.19C62.8873 129.512 64.4686 128.789 65.2357 127.414L65.2603 127.364C65.9631 126.017 65.3216 123.871 63.8317 123.797C63.6843 123.789 63.5701 123.666 63.5722 123.519C63.5782 123.106 63.9973 123.329 65.3964 123.154C65.9676 123.067 66.3979 122.953 66.785 122.782C67.7577 122.373 68.4346 121.569 68.5147 120.732L68.5152 120.729C68.7063 118.91 66.3792 117.743 65.3697 117.326C62.3438 116.072 58.9159 115.214 55.3594 114.907C50.5924 114.471 49.8303 115.19 49.7646 114.599C49.7486 114.453 49.8506 114.322 49.9953 114.299C56.7006 113.281 61.6268 112.826 65.7301 110.43C66.2282 110.137 66.7695 109.766 67.0065 109.232C67.337 108.474 66.9377 107.55 66.3712 107.029C65.7392 106.438 64.8546 106.143 63.9929 105.911C58.8574 104.558 53.7635 104.852 48.6916 106.109Z" fill="#DDDDDB"/>
<path d="M50.0343 114.846H44.3215C43.9598 114.846 43.96 114.299 44.3215 114.299H50.0343C50.396 114.299 50.3958 114.846 50.0343 114.846Z" fill="#DDDDDB"/>
<path d="M43.9819 124.224C43.6233 124.224 43.6186 123.685 43.976 123.677C51.331 123.519 64.0034 123.25 63.8482 123.25C64.2067 123.25 64.2115 123.789 63.8541 123.797L43.9877 124.224H43.9819Z" fill="#DDDDDB"/>
<path d="M44.2709 132.852C44.123 132.823 44.0253 132.681 44.0531 132.533C44.0808 132.383 44.2271 132.284 44.3723 132.314C50.4721 133.467 61.106 130.221 61.2127 130.188C61.5649 130.088 61.715 130.605 61.374 130.711C56.7703 132.123 49.0066 133.74 44.2709 132.852Z" fill="#DDDDDB"/>
<path d="M51.8088 139.966H45.0881C44.7264 139.966 44.7266 139.419 45.0881 139.419H51.8088C52.1705 139.419 52.1703 139.966 51.8088 139.966Z" fill="#DDDDDB"/>
<path d="M54.3556 91.7356C60.2734 90.5267 61.0331 94.0876 55.0768 95.2996C49.1616 96.5066 48.3636 92.9521 54.3556 91.7356ZM50.885 93.9586C50.7286 94.1965 50.7561 94.3568 50.8978 94.501C51.3318 94.9419 52.9062 95.1854 54.9674 94.7636C57.1594 94.3184 58.5757 93.413 58.6312 92.83C58.6403 92.7723 58.6392 92.7403 58.636 92.7254L58.6355 92.7232C58.6152 92.6218 58.5373 92.5257 58.4033 92.436C56.9376 91.4603 51.8513 92.4874 50.885 93.9586Z" fill="#DDDDDB"/>
<path d="M50.5464 85.8991L52.0251 93.0142C52.1262 93.5006 52.5218 93.8686 53.0165 93.9148C54.0488 94.0113 55.8247 93.9908 57.0506 92.9672C57.3494 92.7177 57.4401 92.2925 57.3551 91.9126L55.7595 84.7832" fill="#DDDDDB"/>
<path d="M21.477 129.784C23.2943 122.254 29.6482 116.06 36.9295 114.723C37.2831 114.658 37.3854 115.195 37.0277 115.261C29.9531 116.56 23.7769 122.585 22.0088 129.912C21.9231 130.264 21.3915 130.139 21.477 129.784Z" fill="#DDDDDB"/>
<path d="M13.9677 36.0535C13.6534 35.8713 13.9341 35.3966 14.2432 35.5816C15.9985 36.6076 17.6476 37.8216 19.1461 39.1904C19.2577 39.2919 19.2657 39.4648 19.1637 39.5769C18.7141 40.0666 18.345 38.6134 13.9677 36.0535Z" fill="#DDDDDB"/>
<path d="M20.3761 37.3114C19.7659 36.1134 19.3233 34.8375 19.0601 33.5189C18.9894 33.1612 19.527 33.0627 19.5961 33.4121C20.2299 36.5852 21.2758 37.1605 20.7434 37.4309C20.6103 37.4992 20.4446 37.4469 20.3761 37.3114Z" fill="#DDDDDB"/>
<path d="M13.46 41.2574C15.3093 40.9883 17.1863 40.9499 19.0415 41.1421C19.4027 41.1807 19.3412 41.7255 18.9849 41.6866C17.1756 41.4976 15.3424 41.5361 13.539 41.7977C13.1843 41.8544 13.1 41.309 13.46 41.2574Z" fill="#DDDDDB"/>
<path d="M76.0703 138.255C75.9736 138.139 75.9891 137.967 76.105 137.87C76.2208 137.773 76.3922 137.788 76.4899 137.905C80.2653 142.431 86.4895 144.913 92.3379 144.239C95.3595 143.889 98.4767 142.235 99.8327 139.856C98.6164 139.259 97.4011 138.485 96.936 137.208C96.4838 135.965 97.1382 134.318 98.4558 134.123C100.31 133.854 101.935 136.562 100.591 139.605C108.884 143.251 120.557 139.832 127.848 126.6C127.92 126.468 128.088 126.42 128.219 126.494C128.351 126.566 128.399 126.733 128.326 126.865C120.897 140.348 108.912 143.873 100.348 140.095C98.9326 142.662 95.6681 144.403 92.4009 144.781C86.4548 145.475 80.0086 142.978 76.0703 138.255ZM97.622 135.325C97.3241 135.824 97.2563 136.489 97.4495 137.02C97.8556 138.136 99.0025 138.843 100.08 139.369C101.674 135.823 98.7644 133.404 97.622 135.325Z" fill="#DDDDDB"/>
<path d="M111.745 93.3288C111.735 93.3288 111.724 93.3283 111.714 93.3272C111.565 93.3096 111.458 93.174 111.475 93.024C112.029 88.2293 115.729 84.2057 120.771 83.518C121.055 82.8805 121.463 82.3338 121.8 81.9206C124.324 78.8309 128.043 76.8678 132.002 76.5347C132.356 76.5013 132.408 77.0496 132.048 77.0792C128.29 77.3953 124.615 79.3349 122.219 82.2676C121.959 82.5864 121.653 82.9905 121.409 83.4507C122.531 83.3653 124.273 83.337 124.832 84.3199C125.554 85.5932 123.996 87.7941 122.281 87.5243C121.057 87.3304 120.059 85.8478 120.556 84.1031C115.907 84.8698 112.53 88.6286 112.015 93.087C111.998 93.2263 111.881 93.3288 111.745 93.3288ZM121.153 84.0225C120.601 85.5572 121.413 86.8334 122.366 86.984C123.669 87.1907 124.84 85.435 124.36 84.5911C124.166 84.2489 123.718 84.0551 122.99 83.9974C122.378 83.9499 121.762 83.9585 121.153 84.0225Z" fill="#DDDDDB"/>
</svg>
