<svg width="151" height="150" viewBox="0 0 151 150" fill="none" xmlns="http://www.w3.org/2000/svg">
<path d="M129.698 107.289C72.8142 107.17 75.8681 107.528 75.8681 107.039C75.8681 106.541 72.9 106.907 129.698 106.789C134.474 106.789 138.358 102.904 138.358 98.1287V95.9783C138.358 91.2088 134.474 87.3289 129.698 87.3289C78.6598 87.2106 81.2582 87.5756 81.2582 87.0789C81.2582 86.582 78.672 86.9472 129.698 86.8289C134.749 86.8289 138.858 90.9334 138.858 95.9783V98.1287C138.858 103.18 134.749 107.289 129.698 107.289Z" fill="#242422"/>
<path d="M131.069 96.6361C131.048 96.6707 131.025 96.6961 131.001 96.7121C130.977 96.7254 130.946 96.7321 130.909 96.7321C130.866 96.7321 130.818 96.7174 130.765 96.6881C130.714 96.6587 130.652 96.6267 130.577 96.5921C130.505 96.5574 130.42 96.5254 130.321 96.4961C130.222 96.4667 130.105 96.4521 129.969 96.4521C129.857 96.4521 129.754 96.4667 129.661 96.4961C129.57 96.5227 129.493 96.5614 129.429 96.6121C129.365 96.6601 129.316 96.7187 129.281 96.7881C129.246 96.8547 129.229 96.9267 129.229 97.0041C129.229 97.1054 129.258 97.1894 129.317 97.2561C129.378 97.3227 129.457 97.3801 129.553 97.4281C129.652 97.4761 129.762 97.5201 129.885 97.5601C130.01 97.5974 130.137 97.6374 130.265 97.6801C130.396 97.7227 130.522 97.7721 130.645 97.8281C130.77 97.8814 130.881 97.9494 130.977 98.0321C131.076 98.1121 131.154 98.2094 131.213 98.3241C131.274 98.4387 131.305 98.5787 131.305 98.7441C131.305 98.9334 131.27 99.1094 131.201 99.2721C131.134 99.4321 131.034 99.5707 130.901 99.6881C130.77 99.8054 130.608 99.8974 130.413 99.9641C130.218 100.031 129.996 100.064 129.745 100.064C129.465 100.064 129.206 100.017 128.969 99.9241C128.732 99.8307 128.533 99.7121 128.373 99.5681L128.557 99.2681C128.578 99.2307 128.605 99.2027 128.637 99.1841C128.669 99.1627 128.712 99.1521 128.765 99.1521C128.816 99.1521 128.868 99.1707 128.921 99.2081C128.974 99.2454 129.038 99.2867 129.113 99.3321C129.188 99.3747 129.278 99.4147 129.385 99.4521C129.492 99.4867 129.625 99.5041 129.785 99.5041C129.918 99.5041 130.034 99.4881 130.133 99.4561C130.232 99.4214 130.313 99.3761 130.377 99.3201C130.444 99.2614 130.493 99.1947 130.525 99.1201C130.557 99.0454 130.573 98.9667 130.573 98.8841C130.573 98.7774 130.542 98.6894 130.481 98.6201C130.422 98.5481 130.344 98.4867 130.245 98.4361C130.149 98.3854 130.038 98.3414 129.913 98.3041C129.788 98.2667 129.66 98.2267 129.529 98.1841C129.398 98.1414 129.27 98.0921 129.145 98.0361C129.02 97.9801 128.908 97.9094 128.809 97.8241C128.713 97.7387 128.634 97.6347 128.573 97.5121C128.514 97.3894 128.485 97.2401 128.485 97.0641C128.485 96.9067 128.517 96.7561 128.581 96.6121C128.648 96.4681 128.742 96.3414 128.865 96.2321C128.99 96.1227 129.144 96.0361 129.325 95.9721C129.509 95.9054 129.718 95.8721 129.953 95.8721C130.222 95.8721 130.465 95.9147 130.681 96.0001C130.9 96.0854 131.086 96.2027 131.241 96.3521L131.069 96.6361Z" fill="black" fill-opacity="0.87"/>
<path d="M126.801 96.9202C126.673 96.7522 126.534 96.6349 126.385 96.5682C126.238 96.5015 126.073 96.4682 125.889 96.4682C125.532 96.4682 125.254 96.5975 125.057 96.8562C124.862 97.1122 124.765 97.4869 124.765 97.9802C124.765 98.2389 124.786 98.4602 124.829 98.6442C124.874 98.8255 124.938 98.9749 125.021 99.0922C125.106 99.2069 125.21 99.2922 125.333 99.3482C125.456 99.4015 125.594 99.4282 125.749 99.4282C125.976 99.4282 126.172 99.3775 126.337 99.2762C126.502 99.1749 126.657 99.0322 126.801 98.8482V96.9202ZM127.585 94.0962V100H127.113C127.004 100 126.936 99.9482 126.909 99.8442L126.841 99.3762C126.668 99.5815 126.47 99.7469 126.249 99.8722C126.03 99.9949 125.777 100.056 125.489 100.056C125.257 100.056 125.046 100.011 124.857 99.9202C124.67 99.8295 124.51 99.6975 124.377 99.5242C124.244 99.3482 124.141 99.1309 124.069 98.8722C123.997 98.6135 123.961 98.3162 123.961 97.9802C123.961 97.6789 124.001 97.3989 124.081 97.1402C124.161 96.8815 124.277 96.6575 124.429 96.4682C124.581 96.2789 124.765 96.1309 124.981 96.0242C125.197 95.9149 125.441 95.8602 125.713 95.8602C125.958 95.8602 126.166 95.9002 126.337 95.9802C126.51 96.0602 126.665 96.1735 126.801 96.3202V94.0962H127.585Z" fill="black" fill-opacity="0.87"/>
<path d="M120.436 96.5001C120.524 96.4067 120.616 96.3214 120.712 96.2441C120.808 96.1667 120.909 96.1014 121.016 96.0481C121.125 95.9921 121.241 95.9494 121.364 95.9201C121.489 95.8881 121.623 95.8721 121.764 95.8721C121.988 95.8721 122.184 95.9094 122.352 95.9841C122.523 96.0587 122.665 96.1641 122.78 96.3001C122.895 96.4334 122.981 96.5947 123.04 96.7841C123.099 96.9734 123.128 97.1827 123.128 97.4121V100H122.344V97.4121C122.344 97.1214 122.277 96.8961 122.144 96.7361C122.011 96.5734 121.807 96.4921 121.532 96.4921C121.332 96.4921 121.144 96.5401 120.968 96.6361C120.795 96.7294 120.633 96.8574 120.484 97.0201V100H119.704V95.9361H120.172C120.281 95.9361 120.349 95.9881 120.376 96.0921L120.436 96.5001Z" fill="black" fill-opacity="0.87"/>
<path d="M118.162 97.5161C118.162 97.3614 118.139 97.2187 118.094 97.0881C118.051 96.9574 117.987 96.8441 117.902 96.7481C117.816 96.6521 117.712 96.5774 117.59 96.5241C117.467 96.4707 117.326 96.4441 117.166 96.4441C116.838 96.4441 116.579 96.5387 116.39 96.7281C116.203 96.9174 116.084 97.1801 116.034 97.5161H118.162ZM118.806 99.4201C118.71 99.5321 118.599 99.6294 118.474 99.7121C118.348 99.7921 118.215 99.8574 118.074 99.9081C117.932 99.9587 117.786 99.9961 117.634 100.02C117.484 100.044 117.336 100.056 117.19 100.056C116.91 100.056 116.65 100.009 116.41 99.9161C116.172 99.8201 115.966 99.6814 115.79 99.5001C115.616 99.3161 115.48 99.0894 115.382 98.8201C115.286 98.5481 115.238 98.2361 115.238 97.8841C115.238 97.6014 115.282 97.3387 115.37 97.0961C115.458 96.8507 115.583 96.6374 115.746 96.4561C115.911 96.2747 116.112 96.1321 116.35 96.0281C116.587 95.9241 116.854 95.8721 117.15 95.8721C117.398 95.8721 117.626 95.9134 117.834 95.9961C118.044 96.0761 118.226 96.1934 118.378 96.3481C118.53 96.5027 118.648 96.6934 118.734 96.9201C118.822 97.1467 118.866 97.4054 118.866 97.6961C118.866 97.8161 118.852 97.8974 118.826 97.9401C118.799 97.9801 118.75 98.0001 118.678 98.0001H116.014C116.022 98.2427 116.056 98.4547 116.118 98.6361C116.179 98.8147 116.263 98.9641 116.37 99.0841C116.479 99.2041 116.608 99.2934 116.758 99.3521C116.907 99.4107 117.074 99.4401 117.258 99.4401C117.431 99.4401 117.58 99.4201 117.706 99.3801C117.834 99.3401 117.943 99.2974 118.034 99.2521C118.127 99.2041 118.204 99.1601 118.266 99.1201C118.33 99.0801 118.386 99.0601 118.434 99.0601C118.498 99.0601 118.547 99.0841 118.582 99.1321L118.806 99.4201Z" fill="black" fill-opacity="0.87"/>
<path d="M114.341 95.9361V100H113.561V95.9361H114.341ZM114.489 94.6801C114.489 94.7521 114.474 94.8215 114.445 94.8881C114.415 94.9521 114.375 95.0095 114.325 95.0601C114.277 95.1081 114.219 95.1468 114.153 95.1761C114.086 95.2028 114.017 95.2161 113.945 95.2161C113.873 95.2161 113.805 95.2028 113.741 95.1761C113.677 95.1468 113.619 95.1081 113.569 95.0601C113.521 95.0095 113.482 94.9521 113.453 94.8881C113.426 94.8215 113.413 94.7521 113.413 94.6801C113.413 94.6055 113.426 94.5361 113.453 94.4721C113.482 94.4055 113.521 94.3481 113.569 94.3001C113.619 94.2495 113.677 94.2108 113.741 94.1841C113.805 94.1548 113.873 94.1401 113.945 94.1401C114.017 94.1401 114.086 94.1548 114.153 94.1841C114.219 94.2108 114.277 94.2495 114.325 94.3001C114.375 94.3481 114.415 94.4055 114.445 94.4721C114.474 94.5361 114.489 94.6055 114.489 94.6801Z" fill="black" fill-opacity="0.87"/>
<path d="M111.331 96.7164C111.461 96.4497 111.619 96.2404 111.803 96.0884C111.987 95.9364 112.208 95.8604 112.467 95.8604C112.555 95.8604 112.637 95.871 112.715 95.8924C112.795 95.911 112.864 95.9404 112.923 95.9804L112.871 96.5684C112.852 96.6404 112.808 96.6764 112.739 96.6764C112.701 96.6764 112.645 96.6697 112.571 96.6564C112.496 96.6404 112.416 96.6324 112.331 96.6324C112.205 96.6324 112.095 96.651 111.999 96.6884C111.903 96.723 111.816 96.7764 111.739 96.8484C111.664 96.9177 111.597 97.0044 111.539 97.1084C111.48 97.2097 111.425 97.3257 111.375 97.4564V100H110.595V95.9364H111.043C111.128 95.9364 111.185 95.9524 111.215 95.9844C111.247 96.0137 111.269 96.067 111.283 96.1444L111.331 96.7164Z" fill="black" fill-opacity="0.87"/>
<path d="M108.043 100V96.5761L107.619 96.5241C107.557 96.5107 107.507 96.4894 107.467 96.4601C107.429 96.4281 107.411 96.3827 107.411 96.3241V96.0001H108.043V95.6321C108.043 95.4001 108.076 95.1934 108.143 95.0121C108.209 94.8307 108.304 94.6774 108.427 94.5521C108.552 94.4241 108.701 94.3281 108.875 94.2641C109.051 94.1974 109.248 94.1641 109.467 94.1641C109.651 94.1641 109.82 94.1907 109.975 94.2441L109.959 94.6361C109.956 94.6707 109.945 94.6974 109.927 94.7161C109.908 94.7321 109.883 94.7441 109.851 94.7521C109.821 94.7601 109.784 94.7654 109.739 94.7681C109.696 94.7681 109.649 94.7681 109.599 94.7681C109.479 94.7681 109.369 94.7827 109.271 94.8121C109.172 94.8414 109.088 94.8907 109.019 94.9601C108.949 95.0294 108.896 95.1214 108.859 95.2361C108.821 95.3481 108.803 95.4881 108.803 95.6561V96.0001H109.943V96.5681H108.827V100H108.043Z" fill="black" fill-opacity="0.87"/>
<path d="M104.209 97.5161C104.209 97.3614 104.186 97.2187 104.141 97.0881C104.098 96.9574 104.034 96.8441 103.949 96.7481C103.863 96.6521 103.759 96.5774 103.637 96.5241C103.514 96.4707 103.373 96.4441 103.213 96.4441C102.885 96.4441 102.626 96.5387 102.437 96.7281C102.25 96.9174 102.131 97.1801 102.081 97.5161H104.209ZM104.853 99.4201C104.757 99.5321 104.646 99.6294 104.521 99.7121C104.395 99.7921 104.262 99.8574 104.121 99.9081C103.979 99.9587 103.833 99.9961 103.681 100.02C103.531 100.044 103.383 100.056 103.237 100.056C102.957 100.056 102.697 100.009 102.457 99.9161C102.219 99.8201 102.013 99.6814 101.837 99.5001C101.663 99.3161 101.527 99.0894 101.429 98.8201C101.333 98.5481 101.285 98.2361 101.285 97.8841C101.285 97.6014 101.329 97.3387 101.417 97.0961C101.505 96.8507 101.63 96.6374 101.793 96.4561C101.958 96.2747 102.159 96.1321 102.397 96.0281C102.634 95.9241 102.901 95.8721 103.197 95.8721C103.445 95.8721 103.673 95.9134 103.881 95.9961C104.091 96.0761 104.273 96.1934 104.425 96.3481C104.577 96.5027 104.695 96.6934 104.781 96.9201C104.869 97.1467 104.913 97.4054 104.913 97.6961C104.913 97.8161 104.899 97.8974 104.873 97.9401C104.846 97.9801 104.797 98.0001 104.725 98.0001H102.061C102.069 98.2427 102.103 98.4547 102.165 98.6361C102.226 98.8147 102.31 98.9641 102.417 99.0841C102.526 99.2041 102.655 99.2934 102.805 99.3521C102.954 99.4107 103.121 99.4401 103.305 99.4401C103.478 99.4401 103.627 99.4201 103.753 99.3801C103.881 99.3401 103.99 99.2974 104.081 99.2521C104.174 99.2041 104.251 99.1601 104.313 99.1201C104.377 99.0801 104.433 99.0601 104.481 99.0601C104.545 99.0601 104.594 99.0841 104.629 99.1321L104.853 99.4201Z" fill="black" fill-opacity="0.87"/>
<path d="M99.9138 100.064C99.5858 100.064 99.3325 99.9722 99.1538 99.7882C98.9778 99.6042 98.8898 99.3416 98.8898 99.0002V96.5682H98.4178C98.3725 96.5682 98.3338 96.5549 98.3018 96.5282C98.2725 96.4989 98.2578 96.4562 98.2578 96.4002V96.0842L98.9178 95.9922L99.0938 94.7802C99.1045 94.7349 99.1245 94.7002 99.1538 94.6762C99.1858 94.6496 99.2258 94.6362 99.2738 94.6362H99.6698V96.0002H100.822V96.5682H99.6698V98.9482C99.6698 99.1082 99.7085 99.2282 99.7858 99.3082C99.8658 99.3856 99.9671 99.4242 100.09 99.4242C100.162 99.4242 100.223 99.4149 100.274 99.3962C100.327 99.3776 100.372 99.3576 100.41 99.3362C100.447 99.3122 100.479 99.2909 100.506 99.2722C100.532 99.2536 100.556 99.2442 100.578 99.2442C100.604 99.2442 100.624 99.2509 100.638 99.2642C100.654 99.2749 100.67 99.2936 100.686 99.3202L100.918 99.6962C100.79 99.8136 100.638 99.9042 100.462 99.9682C100.286 100.032 100.103 100.064 99.9138 100.064Z" fill="black" fill-opacity="0.87"/>
<path d="M97.5125 95.9361V100H96.7325V95.9361H97.5125ZM97.6605 94.6801C97.6605 94.7521 97.6458 94.8215 97.6165 94.8881C97.5871 94.9521 97.5471 95.0095 97.4965 95.0601C97.4485 95.1081 97.3911 95.1468 97.3245 95.1761C97.2578 95.2028 97.1885 95.2161 97.1165 95.2161C97.0445 95.2161 96.9765 95.2028 96.9125 95.1761C96.8485 95.1468 96.7911 95.1081 96.7405 95.0601C96.6925 95.0095 96.6538 94.9521 96.6245 94.8881C96.5978 94.8215 96.5845 94.7521 96.5845 94.6801C96.5845 94.6055 96.5978 94.5361 96.6245 94.4721C96.6538 94.4055 96.6925 94.3481 96.7405 94.3001C96.7911 94.2495 96.8485 94.2108 96.9125 94.1841C96.9765 94.1548 97.0445 94.1401 97.1165 94.1401C97.1885 94.1401 97.2578 94.1548 97.3245 94.1841C97.3911 94.2108 97.4485 94.2495 97.4965 94.3001C97.5471 94.3481 97.5871 94.4055 97.6165 94.4721C97.6458 94.5361 97.6605 94.6055 97.6605 94.6801Z" fill="black" fill-opacity="0.87"/>
<path d="M96.0762 95.936L94.4282 100H93.7242L92.0762 95.936H92.7202C92.7815 95.936 92.8322 95.9507 92.8722 95.98C92.9122 96.0094 92.9388 96.0467 92.9522 96.092L93.9242 98.588C93.9588 98.692 93.9882 98.796 94.0122 98.9C94.0388 99.0014 94.0628 99.1027 94.0842 99.204C94.1055 99.1027 94.1295 99.0014 94.1562 98.9C94.1828 98.7987 94.2148 98.6947 94.2522 98.588L95.2362 96.092C95.2522 96.0467 95.2802 96.0094 95.3202 95.98C95.3602 95.9507 95.4082 95.936 95.4642 95.936H96.0762Z" fill="black" fill-opacity="0.87"/>
<path d="M88.8892 96.5001C88.9772 96.4067 89.0692 96.3214 89.1652 96.2441C89.2612 96.1667 89.3626 96.1014 89.4692 96.0481C89.5786 95.9921 89.6946 95.9494 89.8172 95.9201C89.9426 95.8881 90.0759 95.8721 90.2172 95.8721C90.4412 95.8721 90.6372 95.9094 90.8052 95.9841C90.9759 96.0587 91.1186 96.1641 91.2332 96.3001C91.3479 96.4334 91.4346 96.5947 91.4932 96.7841C91.5519 96.9734 91.5812 97.1827 91.5812 97.4121V100H90.7972V97.4121C90.7972 97.1214 90.7306 96.8961 90.5972 96.7361C90.4639 96.5734 90.2599 96.4921 89.9852 96.4921C89.7852 96.4921 89.5972 96.5401 89.4212 96.6361C89.2479 96.7294 89.0866 96.8574 88.9372 97.0201V100H88.1572V95.9361H88.6252C88.7346 95.9361 88.8026 95.9881 88.8292 96.0921L88.8892 96.5001Z" fill="black" fill-opacity="0.87"/>
<path d="M86.9624 100H86.1064V94.2563H86.9624V100Z" fill="black" fill-opacity="0.87"/>
<path d="M78.9878 67.479C77.6879 69.309 76.0478 70.909 74.1379 72.169C72.0878 73.509 69.8779 73.949 67.5278 74.559C64.3699 75.393 60.7965 75.5392 57.2678 74.709C48.7278 79.969 37.3179 80.439 28.9878 74.049C12.2767 85.9417 6.35936 124.777 23.4778 136.329C30.4407 141.011 39.726 138.415 41.4678 136.399C42.0178 135.759 42.1578 134.779 42.0878 133.709C38.5887 134.006 34.4887 131.668 32.5378 125.409C30.3378 118.329 31.5578 106.859 36.5779 101.049C38.5779 98.749 41.5578 97.559 44.5178 96.809C49.2426 95.6367 53.9286 95.39 58.6379 96.629C59.4578 96.849 60.2978 97.129 60.9178 97.709C61.5378 98.279 61.8978 99.229 61.5578 100.009C61.3179 100.549 60.7978 100.919 60.2878 101.219C56.4606 103.452 52.0714 103.836 45.8078 104.789C50.579 104.467 55.5513 105.271 59.9278 107.079C64.0404 108.779 63.4624 111.589 61.2278 112.529C60.3582 112.913 59.3503 112.96 58.4379 112.979C59.9978 113.059 60.6778 115.219 59.9578 116.599C64.5679 114.119 69.1178 111.539 73.6778 108.959C74.3478 108.579 75.0378 108.189 75.5878 107.649C77.9379 105.339 78.5079 100.589 79.2878 97.519C81.7886 87.6489 84.0623 76.8396 78.9878 67.479ZM46.2478 86.309C46.0878 85.549 47.6879 84.579 49.8078 84.149C51.9178 83.719 53.7678 83.999 53.9178 84.759C54.2837 86.5881 46.581 88.1449 46.2478 86.309ZM50.7078 72.879C48.4212 71.5963 46.1839 70.0059 44.3179 67.999C40.914 68.8132 37.5654 69.6569 34.2178 71.139C39.2078 74.239 45.2678 74.619 50.7078 72.879Z" fill="#B39DDB"/>
<path d="M78.9878 67.479C77.6879 69.309 76.0478 70.909 74.1379 72.169C72.0878 73.509 69.8779 73.949 67.5278 74.559C64.3699 75.393 60.7965 75.5392 57.2678 74.709C48.7278 79.969 37.3179 80.439 28.9878 74.049C12.2767 85.9417 6.35936 124.777 23.4778 136.329C30.4407 141.011 39.726 138.415 41.4678 136.399C42.0178 135.759 42.1578 134.779 42.0878 133.709C38.5887 134.006 34.4887 131.668 32.5378 125.409C30.3378 118.329 31.5578 106.859 36.5779 101.049C38.5779 98.749 41.5578 97.559 44.5178 96.809C49.2426 95.6367 53.9286 95.39 58.6379 96.629C59.4578 96.849 60.2978 97.129 60.9178 97.709C61.5378 98.279 61.8978 99.229 61.5578 100.009C61.3179 100.549 60.7978 100.919 60.2878 101.219C56.4606 103.452 52.0714 103.836 45.8078 104.789C50.579 104.467 55.5513 105.271 59.9278 107.079C64.0404 108.779 63.4624 111.589 61.2278 112.529C60.3582 112.913 59.3503 112.96 58.4379 112.979C59.9978 113.059 60.6778 115.219 59.9578 116.599C64.5679 114.119 69.1178 111.539 73.6778 108.959C74.3478 108.579 75.0378 108.189 75.5878 107.649C77.9379 105.339 78.5079 100.589 79.2878 97.519C81.7886 87.6489 84.0623 76.8396 78.9878 67.479ZM46.2478 86.309C46.0878 85.549 47.6879 84.579 49.8078 84.149C51.9178 83.719 53.7678 83.999 53.9178 84.759C54.2837 86.5881 46.581 88.1449 46.2478 86.309ZM50.7078 72.879C48.4212 71.5963 46.1839 70.0059 44.3179 67.999C40.914 68.8132 37.5654 69.6569 34.2178 71.139C39.2078 74.239 45.2678 74.619 50.7078 72.879Z" fill="white" fill-opacity="0.32"/>
<path d="M46.0079 69.619C45.0989 69.1642 43.4719 69.3144 42.4178 69.209C39.2878 68.899 36.5779 66.689 34.9279 64.009C34.6979 63.629 34.4778 63.239 34.2778 62.839C36.2379 63.179 38.3079 62.939 40.1578 62.189C40.3578 62.589 40.5679 62.969 40.7878 63.349C41.1879 64.039 41.6279 64.709 42.0878 65.359C43.2278 66.919 44.5479 68.359 46.0079 69.619Z" fill="#242422"/>
<path d="M50.4382 33.6087C49.7781 33.7787 49.1282 33.9887 48.4882 34.2287C45.7681 35.2687 43.4482 37.1687 41.4982 39.2987C40.2698 40.6537 39.4364 41.5851 38.6182 43.0588C35.8938 42.0849 32.7589 42.8314 30.4182 44.4987C30.3882 44.0487 30.3782 43.5887 30.3682 43.1387C30.3481 41.7887 30.3481 40.4087 30.4982 39.0687C35.9879 33.6403 43.9481 32.1191 50.4382 33.6087Z" fill="#242422"/>
<path d="M83.6279 39.2289C84.4379 44.9088 84.1279 50.7488 82.7678 56.3188C82.9178 54.4889 82.8779 52.6288 82.6879 50.8188C82.3679 47.9189 82.0779 45.1388 80.7979 42.4988C78.7479 38.2588 74.9879 35.1189 70.7278 34.1388C66.9078 33.2488 63.0079 32.7989 59.0978 32.7788C55.0913 29.6421 50.1168 28.2488 45.0679 28.2488C46.5963 27.0635 48.1752 25.5217 49.7579 24.6588C57.7611 20.2489 67.293 20.2507 75.8079 23.3589C78.3478 24.2788 80.8578 25.5288 82.6379 27.5688C84.4078 29.5989 85.3079 32.5788 84.3079 35.0888C83.593 36.8902 83.2609 36.7276 83.6279 39.2289Z" fill="#242422"/>
<path d="M36.0836 63.2401C29.0615 63.2401 24.7973 56.5428 25.9224 50.8114C27.037 45.2016 33.1008 41.2038 38.2471 42.6883C38.5644 42.7793 38.427 43.2588 38.1085 43.1688C37.2535 42.9217 36.3189 42.829 35.4068 42.8983C31.1192 43.2381 27.2525 46.6815 26.4127 50.9081C25.5836 55.1337 27.857 59.784 31.7008 61.7264C34.2511 63.0145 37.4356 63.0799 40.2203 61.8983C40.3458 61.8436 40.4947 61.9042 40.5479 62.0311C40.6021 62.1581 40.5426 62.3055 40.4156 62.3592C39.0284 62.9471 37.5455 63.2401 36.0836 63.2401Z" fill="#242422"/>
<path d="M37.0517 52.3152C35.376 50.5203 32.4546 49.9978 30.2612 51.0994C29.9606 51.2443 29.7439 50.8007 30.0366 50.6521C32.4218 49.4548 35.5952 50.0232 37.417 51.9734C37.5112 52.0749 37.5058 52.2331 37.4052 52.3269C37.3046 52.4205 37.1466 52.4166 37.0517 52.3152Z" fill="#242422"/>
<path d="M33.4764 54.8044C33.1663 53.4977 33.4466 52.0622 34.2269 50.9665C34.418 50.6961 34.8262 50.9862 34.6341 51.2555C33.9363 52.237 33.6853 53.5202 33.9627 54.6891C34.0388 55.01 33.5529 55.1271 33.4764 54.8044Z" fill="#242422"/>
<path d="M50.596 73.1025C46.1156 70.8623 42.4388 67.1132 40.243 62.5468C40.1932 62.4482 40.1419 62.3457 40.0902 62.2314C38.5194 58.8613 37.5628 55.0175 37.3988 51.4111C37.3836 51.0799 37.8837 51.0583 37.8978 51.3876C38.0594 54.9306 38.9994 58.708 40.5448 62.0234C40.5941 62.1328 40.6424 62.2294 40.6913 62.3261C42.8416 66.7978 46.4378 70.4648 50.8197 72.6552C51.1137 72.8016 50.8953 73.2481 50.596 73.1025Z" fill="#242422"/>
<path d="M63.1069 75.3964C62.7796 75.3471 62.8542 74.8511 63.1811 74.9023C67.2104 75.5031 72.8899 73.7752 76.8881 69.8905C81.5323 65.3813 83.3866 58.9244 82.9296 52.5702C82.9071 52.2528 83.4028 52.1884 83.4287 52.5351C83.8974 59.0477 81.9776 65.6449 77.2368 70.2499C73.1164 74.2522 67.275 76.019 63.1069 75.3964Z" fill="#242422"/>
<path d="M60.663 55.048C53.1093 54.9111 49.5686 42.5323 54.9814 35.4787C55.0658 35.3683 55.2231 35.3478 55.3319 35.4328C55.4413 35.5168 55.4618 35.674 55.3778 35.7834C50.2011 42.5315 53.5644 54.419 60.6718 54.548C62.1698 54.591 64.1049 54.0978 65.121 52.6779C65.3093 52.4099 65.7217 52.6979 65.5273 52.9689C64.4787 54.4347 62.4492 55.0905 60.663 55.048Z" fill="#242422"/>
<path d="M68.3321 47.0177C69.3737 43.9846 68.6986 39.431 66.2183 36.8663C64.7866 35.3867 63.0702 34.8778 61.4766 35.1261C61.3472 35.1476 61.2119 35.0548 61.1909 34.9171C61.1699 34.7813 61.2632 34.6534 61.3994 34.6319C61.6992 34.5851 62.0337 34.5675 62.3965 34.5792C63.9268 34.6036 65.374 35.2745 66.5777 36.5187C69.1842 39.2143 69.9077 43.975 68.8047 47.1798C68.6966 47.4937 68.2243 47.3292 68.3321 47.0177Z" fill="#242422"/>
<path d="M74.8976 50.9923C70.6106 44.9636 73.9753 34.711 80.2232 34.8975C86.5615 35.0111 89.4301 45.3513 84.9625 51.1749C82.1262 54.8724 77.6027 54.798 74.8976 50.9923ZM75.3048 50.7022C79.3977 56.4606 86.4918 52.3924 86.6334 44.5147C86.6773 42.0977 86.0255 39.8155 84.7975 38.088C83.586 36.3848 81.9581 35.4288 80.2145 35.3975C74.4348 35.208 71.2207 44.9601 75.3048 50.7022Z" fill="#242422"/>
<path d="M73.1564 41.4386C71.8065 40.1223 69.543 40.1156 69.1281 41.1847C69.0089 41.4956 68.5417 41.3117 68.6623 41.005C68.8644 40.4825 69.3454 40.1202 70.0173 39.9845C71.2404 39.7325 72.5441 40.1427 73.5051 41.0812C73.744 41.3118 73.3907 41.6705 73.1564 41.4386Z" fill="#242422"/>
<path d="M69.1333 54.7488C69.1333 54.3801 69.6931 54.5773 70.6108 53.8347C71.7471 52.947 71.6133 51.7615 71.4438 50.2605C71.1781 47.9371 70.974 44.4218 70.5991 40.2107C70.5869 40.073 70.6885 39.9519 70.8262 39.9392C71.2971 39.8749 71.0324 40.3537 71.8574 49.406C72.0384 51.502 72.7645 53.9116 69.4658 54.9861C69.311 55.0407 69.1333 54.9204 69.1333 54.7488Z" fill="#242422"/>
<path d="M60.0809 45.4652C60.94 49.4019 60.0995 52.9243 58.2072 53.3372C56.315 53.7502 54.0833 50.8982 53.2242 46.9616C52.3651 43.0249 53.2056 39.5025 55.0979 39.0896C56.9902 38.6766 59.2217 41.5285 60.0809 45.4652Z" fill="#242422"/>
<path d="M78.1965 45.2586C78.146 48.0511 77.0154 50.2922 75.6731 50.2678C74.3309 50.2435 73.2822 47.963 73.3328 45.1705C73.3834 42.3781 74.514 40.137 75.8562 40.1613C77.1985 40.1856 78.2471 42.4662 78.1965 45.2586Z" fill="#242422"/>
<path d="M44.7878 33.1089C43.222 34.0069 41.7938 34.4013 40.1078 34.7389C38.9979 34.9089 37.8978 34.8489 36.7979 34.8389C39.2898 33.7771 42.0973 33.2071 44.7878 33.1089Z" fill="#242422"/>
<path d="M48.7581 28.5088C41.9361 27.5583 34.0595 29.1049 27.9681 34.0688C21.7151 29.7222 21.6382 18.8185 28.3081 13.6689C33.1681 9.90886 40.7281 10.2189 45.268 14.3689C49.0891 17.8703 50.374 23.7415 48.7581 28.5088Z" fill="#242422"/>
<path d="M55.3269 44.5978C49.7732 43.5441 45.1165 43.0314 39.2527 42.8283C38.9219 42.8165 38.942 42.3184 39.2703 42.3283C45.1609 42.5324 49.8401 43.047 55.4197 44.1056C55.5554 44.132 55.6448 44.2628 55.6189 44.3986C55.5925 44.5357 55.4599 44.6227 55.3269 44.5978Z" fill="#242422"/>
<path d="M52.8582 34.3691C46.5181 38.039 41.2681 44.539 38.5282 51.389C38.3082 51.939 37.7482 51.709 37.5082 51.169C37.0782 50.189 37.4482 46.779 38.1782 42.9291C38.8376 39.4542 39.5844 36.5143 40.4182 33.6791C44.5742 32.7549 49.0076 32.858 52.8582 34.3691Z" fill="#242422"/>
<path d="M62.6921 63.0048C61.9396 58.9726 58.0686 56.6619 54.4143 57.3553C54.094 57.4178 53.9927 56.927 54.3215 56.8632C58.2734 56.1208 62.3823 58.6199 63.1833 62.913C63.2087 63.0487 63.1194 63.1796 62.9836 63.205C62.8515 63.2297 62.718 63.1431 62.6921 63.0048Z" fill="#242422"/>
<path d="M55.8978 30.9783C55.7728 30.9783 55.6644 30.8845 55.6498 30.7566C55.3592 28.2039 56.0619 25.5838 57.5785 23.5681C57.7751 23.3045 58.1778 23.6032 57.9779 23.8689C56.5375 25.783 55.87 28.2732 56.1468 30.7C56.1625 30.8377 56.0638 30.9607 55.9266 30.9763C55.9169 30.9773 55.9076 30.9783 55.8978 30.9783Z" fill="#242422"/>
<path d="M68.6512 33.5516C69.8807 30.6005 72.0399 28.0194 74.7317 26.2841C75.0091 26.1039 75.2811 26.5259 75.0023 26.704C72.3948 28.3856 70.3035 30.8856 69.1131 33.743C68.9864 34.049 68.5245 33.8567 68.6512 33.5516Z" fill="#242422"/>
<path d="M35.0249 29.7686C36.4526 28.2324 37.9268 27.0654 39.2881 26.3945C42.7759 24.6904 46.4732 24.126 49.7007 24.8144C50.0287 24.8834 49.9138 25.3777 49.5962 25.3027C46.478 24.6396 42.8955 25.1865 39.5083 26.8437C38.2022 27.4873 36.7783 28.6172 35.3911 30.1084C35.168 30.3514 34.7985 30.0102 35.0249 29.7686Z" fill="#242422"/>
<path d="M126.796 36.0713C126.588 36.4687 126.784 36.2586 125.676 37.6796C125.529 37.8682 125.607 37.7702 126.334 39.5372C126.381 39.6515 126.434 39.6982 126.555 39.7094C127.047 39.7549 127.539 39.813 128.031 39.8613C128.425 39.9001 128.633 40.1192 128.64 40.5202C128.653 41.3054 128.666 42.0906 128.678 42.8758C128.685 43.2786 128.488 43.4966 128.088 43.5497C127.592 43.6157 127.096 43.6931 126.599 43.757C126.491 43.7709 126.448 43.8152 126.41 43.9153C125.797 45.5237 125.676 45.6246 125.805 45.7895C126.118 46.1899 126.444 46.5795 126.763 46.9749C127.003 47.272 126.993 47.5666 126.729 47.8421C126.186 48.4093 125.641 48.9745 125.093 49.5374C124.797 49.8415 124.519 49.8614 124.184 49.6081C122.861 48.6068 122.949 48.5832 122.724 48.6854C121.008 49.4682 121.002 49.3492 120.981 49.597C120.938 50.1031 120.881 50.6081 120.826 51.1132C120.788 51.4697 120.57 51.6698 120.211 51.6765C119.406 51.6915 118.601 51.7046 117.796 51.7164C117.441 51.7217 117.209 51.5292 117.157 51.1761C117.083 50.6668 117.014 50.1566 116.952 49.6457C116.924 49.4112 116.872 49.5244 115.184 48.8122C114.955 48.7156 115.047 48.7404 113.738 49.793C113.428 50.0429 113.141 50.029 112.858 49.755C112.289 49.2041 111.721 48.6528 111.154 48.1005C110.89 47.8442 110.862 47.5466 111.081 47.251C112.105 45.8696 112.129 45.9779 112.027 45.7547C111.252 44.0512 111.364 44.0305 111.143 44.0109C110.644 43.9667 110.146 43.9061 109.647 43.8555C109.25 43.8153 109.046 43.5986 109.039 43.1965C109.025 42.4113 109.012 41.6261 109 40.8409C108.994 40.4412 109.196 40.2185 109.592 40.1675C110.076 40.1053 110.558 40.0315 111.042 39.9712C111.319 39.9368 111.193 39.8702 111.888 38.2223C111.944 38.0896 111.953 38.0055 111.855 37.8907C111.539 37.5186 111.235 37.1361 110.928 36.7569C110.673 36.4432 110.683 36.1537 110.965 35.8598C111.509 35.2933 112.054 34.7283 112.602 34.1659C112.88 33.8805 113.167 33.8607 113.481 34.0988C114.789 35.0901 114.729 35.1361 114.956 35.0314C115.476 34.7919 116.002 34.5665 116.53 34.3468C116.747 34.2566 116.668 34.3107 116.852 32.6022C116.89 32.2468 117.109 32.0467 117.469 32.04C118.273 32.025 119.078 32.0118 119.884 32.0001C120.239 31.9949 120.469 32.1869 120.521 32.5417C120.771 34.244 120.667 34.1856 120.898 34.2727C122.688 34.9477 122.598 35.0233 122.775 34.8748C123.143 34.5648 123.518 34.2619 123.892 33.9588C124.258 33.6627 124.528 33.6773 124.864 34.0042C125.422 34.547 125.987 35.0838 126.536 35.6355C126.648 35.7484 126.706 35.916 126.796 36.0713ZM118.753 37.5514C116.34 37.6353 114.465 39.6024 114.547 41.9786C114.631 44.3968 116.596 46.2165 118.927 46.1581C121.354 46.0972 123.225 44.0984 123.133 41.7191C123.039 39.3033 121.064 37.5178 118.753 37.5514Z" fill="#242422"/>
<path d="M126.796 36.0713C126.588 36.4687 126.784 36.2586 125.676 37.6796C125.529 37.8682 125.607 37.7702 126.334 39.5372C126.381 39.6515 126.434 39.6982 126.555 39.7094C127.047 39.7549 127.539 39.813 128.031 39.8613C128.425 39.9001 128.633 40.1192 128.64 40.5202C128.653 41.3054 128.666 42.0906 128.678 42.8758C128.685 43.2786 128.488 43.4966 128.088 43.5497C127.592 43.6157 127.096 43.6931 126.599 43.757C126.491 43.7709 126.448 43.8152 126.41 43.9153C125.797 45.5237 125.676 45.6246 125.805 45.7895C126.118 46.1899 126.444 46.5795 126.763 46.9749C127.003 47.272 126.993 47.5666 126.729 47.8421C126.186 48.4093 125.641 48.9745 125.093 49.5374C124.797 49.8415 124.519 49.8614 124.184 49.6081C122.861 48.6068 122.949 48.5832 122.724 48.6854C121.008 49.4682 121.002 49.3492 120.981 49.597C120.938 50.1031 120.881 50.6081 120.826 51.1132C120.788 51.4697 120.57 51.6698 120.211 51.6765C119.406 51.6915 118.601 51.7046 117.796 51.7164C117.441 51.7217 117.209 51.5292 117.157 51.1761C117.083 50.6668 117.014 50.1566 116.952 49.6457C116.924 49.4112 116.872 49.5244 115.184 48.8122C114.955 48.7156 115.047 48.7404 113.738 49.793C113.428 50.0429 113.141 50.029 112.858 49.755C112.289 49.2041 111.721 48.6528 111.154 48.1005C110.89 47.8442 110.862 47.5466 111.081 47.251C112.105 45.8696 112.129 45.9779 112.027 45.7547C111.252 44.0512 111.364 44.0305 111.143 44.0109C110.644 43.9667 110.146 43.9061 109.647 43.8555C109.25 43.8153 109.046 43.5986 109.039 43.1965C109.025 42.4113 109.012 41.6261 109 40.8409C108.994 40.4412 109.196 40.2185 109.592 40.1675C110.076 40.1053 110.558 40.0315 111.042 39.9712C111.319 39.9368 111.193 39.8702 111.888 38.2223C111.944 38.0896 111.953 38.0055 111.855 37.8907C111.539 37.5186 111.235 37.1361 110.928 36.7569C110.673 36.4432 110.683 36.1537 110.965 35.8598C111.509 35.2933 112.054 34.7283 112.602 34.1659C112.88 33.8805 113.167 33.8607 113.481 34.0988C114.789 35.0901 114.729 35.1361 114.956 35.0314C115.476 34.7919 116.002 34.5665 116.53 34.3468C116.747 34.2566 116.668 34.3107 116.852 32.6022C116.89 32.2468 117.109 32.0467 117.469 32.04C118.273 32.025 119.078 32.0118 119.884 32.0001C120.239 31.9949 120.469 32.1869 120.521 32.5417C120.771 34.244 120.667 34.1856 120.898 34.2727C122.688 34.9477 122.598 35.0233 122.775 34.8748C123.143 34.5648 123.518 34.2619 123.892 33.9588C124.258 33.6627 124.528 33.6773 124.864 34.0042C125.422 34.547 125.987 35.0838 126.536 35.6355C126.648 35.7484 126.706 35.916 126.796 36.0713ZM118.753 37.5514C116.34 37.6353 114.465 39.6024 114.547 41.9786C114.631 44.3968 116.596 46.2165 118.927 46.1581C121.354 46.0972 123.225 44.0984 123.133 41.7191C123.039 39.3033 121.064 37.5178 118.753 37.5514Z" fill="white" fill-opacity="0.82"/>
<path d="M43.2426 78.9853C20.2516 78.9853 9.64999 48.6781 27.8099 33.8759C36.7936 26.5532 51.2249 25.7792 59.829 33.0478C65.389 37.7274 68.953 44.4003 69.6073 51.3554C69.8988 54.4091 69.4476 57.7851 68.2655 61.3866C64.7752 72.0795 54.0967 78.9853 43.2426 78.9853ZM28.1259 34.2626C15.0818 44.8964 16.9035 64.4319 29.1405 73.8505C42.1754 83.8483 62.6914 76.8522 67.7904 61.2314C68.9506 57.6942 69.3944 54.3876 69.1092 51.4023C68.416 44.0273 64.3979 37.2542 58.9432 32.9755C50.5941 26.4407 36.8346 27.1647 28.1259 34.2626ZM44.1927 74.162C26.3634 74.162 17.5879 51.4019 30.3226 38.8905C37.9772 31.3231 50.6414 31.0132 57.6986 36.9374C62.1942 40.7177 65.08 46.1191 65.6171 51.7558C65.849 54.2714 65.4818 57.0067 64.5258 59.8857C61.7146 68.5337 53.0764 74.162 44.1927 74.162ZM30.6737 39.247C20.8563 48.8926 24.2264 64.6745 34.3495 70.9257C44.8198 77.4356 60.1324 71.7835 64.0502 59.7314L64.0507 59.7294C64.9852 56.9159 65.3446 54.2489 65.119 51.8026C64.5946 46.2958 61.7728 41.0175 57.3768 37.3202C50.6037 31.6348 38.1876 31.8147 30.6737 39.247Z" fill="#242422"/>
<path d="M56.3279 96.1287C53.7778 95.7187 51.1578 95.7187 48.5779 96.0387C47.3237 90.692 46.3622 87.1287 46.4178 86.6087C47.7074 87.923 53.7635 86.5376 53.9178 84.9287C54.0034 85.0426 56.2015 95.5314 56.3279 96.1287Z" fill="#242422"/>
<path d="M56.3279 96.1287C53.7778 95.7187 51.1578 95.7187 48.5779 96.0387C47.3237 90.692 46.3622 87.1287 46.4178 86.6087C47.7074 87.923 53.7635 86.5376 53.9178 84.9287C54.0034 85.0426 56.2015 95.5314 56.3279 96.1287Z" fill="white" fill-opacity="0.64"/>
<path d="M58.5478 106.549C56.0178 105.649 53.3678 105.079 50.6978 104.849C50.6278 104.589 50.5678 104.339 50.5078 104.079C52.9378 103.709 55.3978 103.289 57.6778 102.449C57.7005 102.56 58.192 104.92 58.5478 106.549Z" fill="#242422"/>
<path d="M58.5478 106.549C56.0178 105.649 53.3678 105.079 50.6978 104.849C50.6278 104.589 50.5678 104.339 50.5078 104.079C52.9378 103.709 55.3978 103.289 57.6778 102.449C57.7005 102.56 58.192 104.92 58.5478 106.549Z" fill="white" fill-opacity="0.64"/>
<path d="M55.8882 124.869C57.1297 123.937 58.379 122.458 58.1581 120.929C58.0082 119.959 57.0582 119.089 56.1082 119.309C57.5782 118.719 59.1581 118.039 59.9282 116.659C60.6982 115.279 60.0181 113.059 58.4382 112.979C58.9182 112.969 59.4081 112.949 59.8882 112.889C59.9104 112.989 61.6521 121.211 61.8082 121.969C62.6018 125.651 58.1775 127.61 55.8882 124.869Z" fill="#242422"/>
<path d="M55.8882 124.869C57.1297 123.937 58.379 122.458 58.1581 120.929C58.0082 119.959 57.0582 119.089 56.1082 119.309C57.5782 118.719 59.1581 118.039 59.9282 116.659C60.6982 115.279 60.0181 113.059 58.4382 112.979C58.9182 112.969 59.4081 112.949 59.8882 112.889C59.9104 112.989 61.6521 121.211 61.8082 121.969C62.6018 125.651 58.1775 127.61 55.8882 124.869Z" fill="white" fill-opacity="0.64"/>
<path d="M36.0308 131.755C28.9927 125.459 30.1653 108.088 36.3887 100.886C38.1197 98.8944 40.6832 97.5223 44.4561 96.5662C49.2082 95.3876 53.947 95.1354 58.7012 96.3866C59.5533 96.6151 60.4312 96.911 61.0884 97.5262C61.7149 98.1024 62.2017 99.1571 61.7867 100.108C61.5118 100.727 60.939 101.126 60.4141 101.434C57.1378 103.345 53.425 103.906 49.3726 104.506C53.1948 104.688 56.8099 105.519 60.0235 106.847C64.8344 108.837 63.8218 112.781 59.5748 113.174C60.4869 113.937 60.7855 115.552 60.1793 116.714L60.1514 116.77C59.4825 117.971 58.2325 118.671 57.0933 119.171C58.8886 119.955 59.1842 122.709 56.0377 125.069C53.9073 126.654 50.9859 127.194 48.4146 127.576C47.4735 127.711 47.5858 127.967 47.5479 128.549C47.5256 131.209 45.1693 133.724 42.107 133.958C41.9224 133.973 37.6621 133.223 36.0308 131.755ZM44.5777 97.0506C40.9097 97.9803 38.4273 99.3026 36.7662 101.213C31.7139 107.06 30.6241 118.407 32.7764 125.335C34.8381 131.945 39.3795 134.118 42.8331 133.345C45.1793 132.838 47.0299 130.726 47.0479 128.537L47.0513 128.409C47.0657 127.599 47.3212 127.224 48.3428 127.082C51.4871 126.614 55.007 125.927 57.0137 123.462C57.4141 122.976 58.0616 122.011 57.9102 120.965C57.7848 120.149 56.9857 119.374 56.1641 119.552C55.8749 119.626 55.7244 119.193 56.0147 119.076C57.5616 118.456 59.0079 117.795 59.7095 116.537L59.732 116.491C60.3748 115.259 59.7881 113.297 58.4254 113.228C58.2906 113.222 58.1861 113.109 58.1881 112.974C58.1935 112.597 58.5768 112.801 59.8565 112.64C60.379 112.561 60.7725 112.457 61.1265 112.301C62.0162 111.927 62.6353 111.191 62.7086 110.426L62.7091 110.423C62.8839 108.759 60.7554 107.691 59.8321 107.31C57.0645 106.163 53.9292 105.379 50.6763 105.097C46.3163 104.699 45.6192 105.357 45.5591 104.816C45.5445 104.682 45.6378 104.562 45.7701 104.542C51.903 103.61 56.4087 103.195 60.1617 101.003C60.6173 100.735 61.1124 100.395 61.3292 99.9071C61.6314 99.2137 61.2662 98.369 60.7481 97.8924C60.17 97.3514 59.3609 97.0819 58.5728 96.8699C53.8757 95.6326 49.2167 95.9006 44.5777 97.0506Z" fill="#242422"/>
<path d="M45.8062 105.042H40.5811C40.2502 105.042 40.2504 104.542 40.5811 104.542H45.8062C46.137 104.542 46.1368 105.042 45.8062 105.042Z" fill="#242422"/>
<path d="M40.2702 113.619C39.9423 113.619 39.938 113.126 40.2649 113.119C46.992 112.975 58.5826 112.729 58.4406 112.729C58.7686 112.729 58.7729 113.222 58.446 113.229L40.2756 113.619H40.2702Z" fill="#242422"/>
<path d="M40.5346 121.511C40.3993 121.484 40.31 121.354 40.3354 121.219C40.3608 121.082 40.4945 120.991 40.6274 121.018C46.2065 122.073 55.9325 119.104 56.0302 119.074C56.3523 118.983 56.4896 119.456 56.1777 119.553C51.967 120.844 44.8661 122.323 40.5346 121.511Z" fill="#242422"/>
<path d="M47.4292 128.018H41.2822C40.9514 128.018 40.9516 127.518 41.2822 127.518H47.4292C47.76 127.518 47.7598 128.018 47.4292 128.018Z" fill="#242422"/>
<path d="M49.758 83.9045C55.1707 82.7988 55.8656 86.0557 50.4177 87.1642C45.0075 88.2682 44.2776 85.0172 49.758 83.9045ZM46.5837 85.9377C46.4407 86.1553 46.4658 86.3019 46.5954 86.4338C46.9924 86.8371 48.4324 87.0597 50.3176 86.674C52.3225 86.2668 53.6179 85.4386 53.6687 84.9054C53.677 84.8527 53.676 84.8234 53.6731 84.8097L53.6726 84.8078C53.654 84.715 53.5827 84.6271 53.4602 84.5451C52.1197 83.6527 47.4676 84.5921 46.5837 85.9377Z" fill="#242422"/>
<path d="M46.2739 78.566L47.6264 85.0738C47.7189 85.5187 48.0807 85.8552 48.5332 85.8975C49.4773 85.9857 51.1017 85.967 52.2229 85.0308C52.4962 84.8025 52.5791 84.4137 52.5014 84.0662L51.042 77.5454" fill="#242422"/>
<path d="M19.6862 118.705C21.3483 111.817 27.1599 106.152 33.8195 104.93C34.1429 104.871 34.2365 105.361 33.9094 105.422C27.4387 106.609 21.7897 112.12 20.1725 118.822C20.0941 119.144 19.608 119.03 19.6862 118.705Z" fill="#242422"/>
<path d="M12.8183 32.9754C12.5308 32.8088 12.7875 32.3746 13.0702 32.5438C14.6757 33.4823 16.184 34.5926 17.5546 35.8446C17.6567 35.9374 17.664 36.0956 17.5707 36.1981C17.1595 36.646 16.8219 35.3168 12.8183 32.9754Z" fill="#242422"/>
<path d="M18.6797 34.126C18.1216 33.0303 17.7168 31.8633 17.4761 30.6572C17.4114 30.3301 17.9031 30.24 17.9663 30.5596C18.546 33.4618 19.5026 33.988 19.0156 34.2353C18.894 34.2978 18.7424 34.2499 18.6797 34.126Z" fill="#242422"/>
<path d="M12.3538 37.7354C14.0452 37.4893 15.762 37.4541 17.4588 37.6299C17.7891 37.6652 17.7329 38.1635 17.407 38.1279C15.7522 37.9551 14.0755 37.9902 12.4261 38.2295C12.1016 38.2814 12.0245 37.7826 12.3538 37.7354Z" fill="#242422"/>
<path d="M69.6191 126.453C69.5307 126.347 69.5448 126.189 69.6508 126.1C69.7568 126.012 69.9135 126.025 70.0028 126.133C73.456 130.272 79.1488 132.542 84.498 131.926C87.2616 131.605 90.1127 130.093 91.3529 127.917C90.2405 127.371 89.129 126.663 88.7035 125.495C88.2899 124.358 88.8885 122.852 90.0937 122.674C91.7893 122.427 93.2761 124.904 92.0468 127.687C99.6313 131.022 110.308 127.895 116.976 115.793C117.043 115.672 117.196 115.628 117.316 115.695C117.437 115.762 117.481 115.914 117.414 116.035C110.619 128.367 99.6576 131.591 91.8246 128.136C90.5297 130.483 87.5439 132.076 84.5556 132.422C79.1171 133.056 73.2212 130.772 69.6191 126.453ZM89.331 123.772C89.0585 124.229 88.9965 124.838 89.1733 125.323C89.5447 126.344 90.5937 126.991 91.5795 127.472C93.0371 124.228 90.3759 122.016 89.331 123.772Z" fill="#242422"/>
<path d="M102.249 85.3618C102.239 85.3618 102.23 85.3614 102.22 85.3604C102.084 85.3443 101.986 85.2202 102.002 85.083C102.509 80.6976 105.893 77.0176 110.504 76.3885C110.764 75.8055 111.137 75.3054 111.446 74.9275C113.754 72.1016 117.155 70.306 120.777 70.0013C121.1 69.9708 121.148 70.4723 120.818 70.4994C117.381 70.7885 114.02 72.5626 111.829 75.2449C111.591 75.5364 111.311 75.9061 111.087 76.327C112.114 76.2489 113.707 76.223 114.218 77.122C114.879 78.2866 113.454 80.2996 111.885 80.0529C110.766 79.8755 109.853 78.5195 110.308 76.9237C106.055 77.6249 102.966 81.0629 102.495 85.1406C102.48 85.2681 102.373 85.3618 102.249 85.3618ZM110.853 76.85C110.348 78.2536 111.092 79.4209 111.963 79.5587C113.155 79.7477 114.225 78.1419 113.787 77.37C113.609 77.057 113.199 76.8798 112.534 76.827C111.974 76.7836 111.411 76.7914 110.853 76.85Z" fill="#242422"/>
</svg>
