<svg width="151" height="150" viewBox="0 0 151 150" fill="none" xmlns="http://www.w3.org/2000/svg">
<path d="M129.698 107.289C72.8142 107.171 75.8681 107.528 75.8681 107.039C75.8681 106.542 72.9 106.908 129.698 106.789C134.474 106.789 138.358 102.905 138.358 98.1292V95.9788C138.358 91.2093 134.474 87.3294 129.698 87.3294C78.6598 87.2111 81.2582 87.5761 81.2582 87.0794C81.2582 86.5825 78.672 86.9477 129.698 86.8294C134.749 86.8294 138.858 90.9339 138.858 95.9788V98.1292C138.858 103.18 134.749 107.289 129.698 107.289Z" fill="#DDDDDB"/>
<path d="M131.069 96.637C131.048 96.6717 131.025 96.697 131.001 96.713C130.977 96.7264 130.946 96.733 130.909 96.733C130.866 96.733 130.818 96.7184 130.765 96.689C130.714 96.6597 130.652 96.6277 130.577 96.593C130.505 96.5584 130.42 96.5264 130.321 96.497C130.222 96.4677 130.105 96.453 129.969 96.453C129.857 96.453 129.754 96.4677 129.661 96.497C129.57 96.5237 129.493 96.5624 129.429 96.613C129.365 96.661 129.316 96.7197 129.281 96.789C129.246 96.8557 129.229 96.9277 129.229 97.005C129.229 97.1064 129.258 97.1904 129.317 97.257C129.378 97.3237 129.457 97.381 129.553 97.429C129.652 97.477 129.762 97.521 129.885 97.561C130.01 97.5984 130.137 97.6384 130.265 97.681C130.396 97.7237 130.522 97.773 130.645 97.829C130.77 97.8824 130.881 97.9504 130.977 98.033C131.076 98.113 131.154 98.2104 131.213 98.325C131.274 98.4397 131.305 98.5797 131.305 98.745C131.305 98.9344 131.27 99.1104 131.201 99.273C131.134 99.433 131.034 99.5717 130.901 99.689C130.77 99.8064 130.608 99.8984 130.413 99.965C130.218 100.032 129.996 100.065 129.745 100.065C129.465 100.065 129.206 100.018 128.969 99.925C128.732 99.8317 128.533 99.713 128.373 99.569L128.557 99.269C128.578 99.2317 128.605 99.2037 128.637 99.185C128.669 99.1637 128.712 99.153 128.765 99.153C128.816 99.153 128.868 99.1717 128.921 99.209C128.974 99.2464 129.038 99.2877 129.113 99.333C129.188 99.3757 129.278 99.4157 129.385 99.453C129.492 99.4877 129.625 99.505 129.785 99.505C129.918 99.505 130.034 99.489 130.133 99.457C130.232 99.4224 130.313 99.377 130.377 99.321C130.444 99.2624 130.493 99.1957 130.525 99.121C130.557 99.0464 130.573 98.9677 130.573 98.885C130.573 98.7784 130.542 98.6904 130.481 98.621C130.422 98.549 130.344 98.4877 130.245 98.437C130.149 98.3864 130.038 98.3424 129.913 98.305C129.788 98.2677 129.66 98.2277 129.529 98.185C129.398 98.1424 129.27 98.093 129.145 98.037C129.02 97.981 128.908 97.9104 128.809 97.825C128.713 97.7397 128.634 97.6357 128.573 97.513C128.514 97.3904 128.485 97.241 128.485 97.065C128.485 96.9077 128.517 96.757 128.581 96.613C128.648 96.469 128.742 96.3424 128.865 96.233C128.99 96.1237 129.144 96.037 129.325 95.973C129.509 95.9064 129.718 95.873 129.953 95.873C130.222 95.873 130.465 95.9157 130.681 96.001C130.9 96.0864 131.086 96.2037 131.241 96.353L131.069 96.637Z" fill="white"/>
<path d="M126.801 96.9207C126.673 96.7527 126.534 96.6353 126.385 96.5687C126.238 96.502 126.073 96.4687 125.889 96.4687C125.532 96.4687 125.254 96.598 125.057 96.8567C124.862 97.1127 124.765 97.4873 124.765 97.9807C124.765 98.2393 124.786 98.4607 124.829 98.6447C124.874 98.826 124.938 98.9753 125.021 99.0927C125.106 99.2073 125.21 99.2927 125.333 99.3487C125.456 99.402 125.594 99.4287 125.749 99.4287C125.976 99.4287 126.172 99.378 126.337 99.2767C126.502 99.1753 126.657 99.0327 126.801 98.8487V96.9207ZM127.585 94.0967V100.001H127.113C127.004 100.001 126.936 99.9487 126.909 99.8447L126.841 99.3767C126.668 99.582 126.47 99.7473 126.249 99.8727C126.03 99.9953 125.777 100.057 125.489 100.057C125.257 100.057 125.046 100.011 124.857 99.9207C124.67 99.83 124.51 99.698 124.377 99.5247C124.244 99.3487 124.141 99.1313 124.069 98.8727C123.997 98.614 123.961 98.3167 123.961 97.9807C123.961 97.6793 124.001 97.3993 124.081 97.1407C124.161 96.882 124.277 96.658 124.429 96.4687C124.581 96.2793 124.765 96.1313 124.981 96.0247C125.197 95.9153 125.441 95.8607 125.713 95.8607C125.958 95.8607 126.166 95.9007 126.337 95.9807C126.51 96.0607 126.665 96.174 126.801 96.3207V94.0967H127.585Z" fill="white"/>
<path d="M120.436 96.501C120.524 96.4077 120.616 96.3224 120.712 96.245C120.808 96.1677 120.909 96.1024 121.016 96.049C121.125 95.993 121.241 95.9504 121.364 95.921C121.489 95.889 121.623 95.873 121.764 95.873C121.988 95.873 122.184 95.9104 122.352 95.985C122.523 96.0597 122.665 96.165 122.78 96.301C122.895 96.4344 122.981 96.5957 123.04 96.785C123.099 96.9744 123.128 97.1837 123.128 97.413V100.001H122.344V97.413C122.344 97.1224 122.277 96.897 122.144 96.737C122.011 96.5744 121.807 96.493 121.532 96.493C121.332 96.493 121.144 96.541 120.968 96.637C120.795 96.7304 120.633 96.8584 120.484 97.021V100.001H119.704V95.937H120.172C120.281 95.937 120.349 95.989 120.376 96.093L120.436 96.501Z" fill="white"/>
<path d="M118.162 97.517C118.162 97.3624 118.139 97.2197 118.094 97.089C118.051 96.9584 117.987 96.845 117.902 96.749C117.816 96.653 117.712 96.5784 117.59 96.525C117.467 96.4717 117.326 96.445 117.166 96.445C116.838 96.445 116.579 96.5397 116.39 96.729C116.203 96.9184 116.084 97.181 116.034 97.517H118.162ZM118.806 99.421C118.71 99.533 118.599 99.6304 118.474 99.713C118.348 99.793 118.215 99.8584 118.074 99.909C117.932 99.9597 117.786 99.997 117.634 100.021C117.484 100.045 117.336 100.057 117.19 100.057C116.91 100.057 116.65 100.01 116.41 99.917C116.172 99.821 115.966 99.6824 115.79 99.501C115.616 99.317 115.48 99.0904 115.382 98.821C115.286 98.549 115.238 98.237 115.238 97.885C115.238 97.6024 115.282 97.3397 115.37 97.097C115.458 96.8517 115.583 96.6384 115.746 96.457C115.911 96.2757 116.112 96.133 116.35 96.029C116.587 95.925 116.854 95.873 117.15 95.873C117.398 95.873 117.626 95.9144 117.834 95.997C118.044 96.077 118.226 96.1944 118.378 96.349C118.53 96.5037 118.648 96.6944 118.734 96.921C118.822 97.1477 118.866 97.4064 118.866 97.697C118.866 97.817 118.852 97.8984 118.826 97.941C118.799 97.981 118.75 98.001 118.678 98.001H116.014C116.022 98.2437 116.056 98.4557 116.118 98.637C116.179 98.8157 116.263 98.965 116.37 99.085C116.479 99.205 116.608 99.2944 116.758 99.353C116.907 99.4117 117.074 99.441 117.258 99.441C117.431 99.441 117.58 99.421 117.706 99.381C117.834 99.341 117.943 99.2984 118.034 99.253C118.127 99.205 118.204 99.161 118.266 99.121C118.33 99.081 118.386 99.061 118.434 99.061C118.498 99.061 118.547 99.085 118.582 99.133L118.806 99.421Z" fill="white"/>
<path d="M114.341 95.9366V100.001H113.561V95.9366H114.341ZM114.489 94.6806C114.489 94.7526 114.474 94.822 114.445 94.8886C114.415 94.9526 114.375 95.01 114.325 95.0606C114.277 95.1086 114.219 95.1473 114.153 95.1766C114.086 95.2033 114.017 95.2166 113.945 95.2166C113.873 95.2166 113.805 95.2033 113.741 95.1766C113.677 95.1473 113.619 95.1086 113.569 95.0606C113.521 95.01 113.482 94.9526 113.453 94.8886C113.426 94.822 113.413 94.7526 113.413 94.6806C113.413 94.606 113.426 94.5366 113.453 94.4726C113.482 94.406 113.521 94.3486 113.569 94.3006C113.619 94.25 113.677 94.2113 113.741 94.1846C113.805 94.1553 113.873 94.1406 113.945 94.1406C114.017 94.1406 114.086 94.1553 114.153 94.1846C114.219 94.2113 114.277 94.25 114.325 94.3006C114.375 94.3486 114.415 94.406 114.445 94.4726C114.474 94.5366 114.489 94.606 114.489 94.6806Z" fill="white"/>
<path d="M111.331 96.7164C111.461 96.4497 111.619 96.2404 111.803 96.0884C111.987 95.9364 112.208 95.8604 112.467 95.8604C112.555 95.8604 112.637 95.871 112.715 95.8924C112.795 95.911 112.864 95.9404 112.923 95.9804L112.871 96.5684C112.852 96.6404 112.808 96.6764 112.739 96.6764C112.701 96.6764 112.645 96.6697 112.571 96.6564C112.496 96.6404 112.416 96.6324 112.331 96.6324C112.205 96.6324 112.095 96.651 111.999 96.6884C111.903 96.723 111.816 96.7764 111.739 96.8484C111.664 96.9177 111.597 97.0044 111.539 97.1084C111.48 97.2097 111.425 97.3257 111.375 97.4564V100H110.595V95.9364H111.043C111.128 95.9364 111.185 95.9524 111.215 95.9844C111.247 96.0137 111.269 96.067 111.283 96.1444L111.331 96.7164Z" fill="white"/>
<path d="M108.043 100.001V96.577L107.619 96.525C107.557 96.5117 107.507 96.4904 107.467 96.461C107.429 96.429 107.411 96.3837 107.411 96.325V96.001H108.043V95.633C108.043 95.401 108.076 95.1944 108.143 95.013C108.209 94.8317 108.304 94.6784 108.427 94.553C108.552 94.425 108.701 94.329 108.875 94.265C109.051 94.1984 109.248 94.165 109.467 94.165C109.651 94.165 109.82 94.1917 109.975 94.245L109.959 94.637C109.956 94.6717 109.945 94.6984 109.927 94.717C109.908 94.733 109.883 94.745 109.851 94.753C109.821 94.761 109.784 94.7664 109.739 94.769C109.696 94.769 109.649 94.769 109.599 94.769C109.479 94.769 109.369 94.7837 109.271 94.813C109.172 94.8424 109.088 94.8917 109.019 94.961C108.949 95.0304 108.896 95.1224 108.859 95.237C108.821 95.349 108.803 95.489 108.803 95.657V96.001H109.943V96.569H108.827V100.001H108.043Z" fill="white"/>
<path d="M104.209 97.517C104.209 97.3624 104.186 97.2197 104.141 97.089C104.098 96.9584 104.034 96.845 103.949 96.749C103.863 96.653 103.759 96.5784 103.637 96.525C103.514 96.4717 103.373 96.445 103.213 96.445C102.885 96.445 102.626 96.5397 102.437 96.729C102.25 96.9184 102.131 97.181 102.081 97.517H104.209ZM104.853 99.421C104.757 99.533 104.646 99.6304 104.521 99.713C104.395 99.793 104.262 99.8584 104.121 99.909C103.979 99.9597 103.833 99.997 103.681 100.021C103.531 100.045 103.383 100.057 103.237 100.057C102.957 100.057 102.697 100.01 102.457 99.917C102.219 99.821 102.013 99.6824 101.837 99.501C101.663 99.317 101.527 99.0904 101.429 98.821C101.333 98.549 101.285 98.237 101.285 97.885C101.285 97.6024 101.329 97.3397 101.417 97.097C101.505 96.8517 101.63 96.6384 101.793 96.457C101.958 96.2757 102.159 96.133 102.397 96.029C102.634 95.925 102.901 95.873 103.197 95.873C103.445 95.873 103.673 95.9144 103.881 95.997C104.091 96.077 104.273 96.1944 104.425 96.349C104.577 96.5037 104.695 96.6944 104.781 96.921C104.869 97.1477 104.913 97.4064 104.913 97.697C104.913 97.817 104.899 97.8984 104.873 97.941C104.846 97.981 104.797 98.001 104.725 98.001H102.061C102.069 98.2437 102.103 98.4557 102.165 98.637C102.226 98.8157 102.31 98.965 102.417 99.085C102.526 99.205 102.655 99.2944 102.805 99.353C102.954 99.4117 103.121 99.441 103.305 99.441C103.478 99.441 103.627 99.421 103.753 99.381C103.881 99.341 103.99 99.2984 104.081 99.253C104.174 99.205 104.251 99.161 104.313 99.121C104.377 99.081 104.433 99.061 104.481 99.061C104.545 99.061 104.594 99.085 104.629 99.133L104.853 99.421Z" fill="white"/>
<path d="M99.9138 100.065C99.5858 100.065 99.3325 99.9727 99.1538 99.7887C98.9778 99.6047 98.8898 99.3421 98.8898 99.0007V96.5687H98.4178C98.3725 96.5687 98.3338 96.5554 98.3018 96.5287C98.2725 96.4994 98.2578 96.4567 98.2578 96.4007V96.0847L98.9178 95.9927L99.0938 94.7807C99.1045 94.7354 99.1245 94.7007 99.1538 94.6767C99.1858 94.6501 99.2258 94.6367 99.2738 94.6367H99.6698V96.0007H100.822V96.5687H99.6698V98.9487C99.6698 99.1087 99.7085 99.2287 99.7858 99.3087C99.8658 99.3861 99.9671 99.4247 100.09 99.4247C100.162 99.4247 100.223 99.4154 100.274 99.3967C100.327 99.3781 100.372 99.3581 100.41 99.3367C100.447 99.3127 100.479 99.2914 100.506 99.2727C100.532 99.2541 100.556 99.2447 100.578 99.2447C100.604 99.2447 100.624 99.2514 100.638 99.2647C100.654 99.2754 100.67 99.2941 100.686 99.3207L100.918 99.6967C100.79 99.8141 100.638 99.9047 100.462 99.9687C100.286 100.033 100.103 100.065 99.9138 100.065Z" fill="white"/>
<path d="M97.5125 95.9366V100.001H96.7325V95.9366H97.5125ZM97.6605 94.6806C97.6605 94.7526 97.6458 94.822 97.6165 94.8886C97.5871 94.9526 97.5471 95.01 97.4965 95.0606C97.4485 95.1086 97.3911 95.1473 97.3245 95.1766C97.2578 95.2033 97.1885 95.2166 97.1165 95.2166C97.0445 95.2166 96.9765 95.2033 96.9125 95.1766C96.8485 95.1473 96.7911 95.1086 96.7405 95.0606C96.6925 95.01 96.6538 94.9526 96.6245 94.8886C96.5978 94.822 96.5845 94.7526 96.5845 94.6806C96.5845 94.606 96.5978 94.5366 96.6245 94.4726C96.6538 94.406 96.6925 94.3486 96.7405 94.3006C96.7911 94.25 96.8485 94.2113 96.9125 94.1846C96.9765 94.1553 97.0445 94.1406 97.1165 94.1406C97.1885 94.1406 97.2578 94.1553 97.3245 94.1846C97.3911 94.2113 97.4485 94.25 97.4965 94.3006C97.5471 94.3486 97.5871 94.406 97.6165 94.4726C97.6458 94.5366 97.6605 94.606 97.6605 94.6806Z" fill="white"/>
<path d="M96.0762 95.9365L94.4282 100.001H93.7242L92.0762 95.9365H92.7202C92.7815 95.9365 92.8322 95.9512 92.8722 95.9805C92.9122 96.0099 92.9388 96.0472 92.9522 96.0925L93.9242 98.5885C93.9588 98.6925 93.9882 98.7965 94.0122 98.9005C94.0388 99.0019 94.0628 99.1032 94.0842 99.2045C94.1055 99.1032 94.1295 99.0019 94.1562 98.9005C94.1828 98.7992 94.2148 98.6952 94.2522 98.5885L95.2362 96.0925C95.2522 96.0472 95.2802 96.0099 95.3202 95.9805C95.3602 95.9512 95.4082 95.9365 95.4642 95.9365H96.0762Z" fill="white"/>
<path d="M88.8892 96.501C88.9772 96.4077 89.0692 96.3224 89.1652 96.245C89.2612 96.1677 89.3626 96.1024 89.4692 96.049C89.5786 95.993 89.6946 95.9504 89.8172 95.921C89.9426 95.889 90.0759 95.873 90.2172 95.873C90.4412 95.873 90.6372 95.9104 90.8052 95.985C90.9759 96.0597 91.1186 96.165 91.2332 96.301C91.3479 96.4344 91.4346 96.5957 91.4932 96.785C91.5519 96.9744 91.5812 97.1837 91.5812 97.413V100.001H90.7972V97.413C90.7972 97.1224 90.7306 96.897 90.5972 96.737C90.4639 96.5744 90.2599 96.493 89.9852 96.493C89.7852 96.493 89.5972 96.541 89.4212 96.637C89.2479 96.7304 89.0866 96.8584 88.9372 97.021V100.001H88.1572V95.937H88.6252C88.7346 95.937 88.8026 95.989 88.8292 96.093L88.8892 96.501Z" fill="white"/>
<path d="M86.9624 100.001H86.1064V94.2568H86.9624V100.001Z" fill="white"/>
<path d="M78.9878 67.4795C77.6879 69.3095 76.0478 70.9095 74.1379 72.1695C72.0878 73.5095 69.8779 73.9495 67.5278 74.5595C64.3699 75.3935 60.7965 75.5397 57.2678 74.7095C48.7278 79.9695 37.3179 80.4395 28.9878 74.0495C12.2767 85.9422 6.35936 124.778 23.4778 136.329C30.4407 141.011 39.726 138.416 41.4678 136.399C42.0178 135.759 42.1578 134.779 42.0878 133.709C38.5887 134.007 34.4887 131.668 32.5378 125.409C30.3378 118.329 31.5578 106.859 36.5779 101.049C38.5779 98.7495 41.5578 97.5595 44.5178 96.8095C49.2426 95.6372 53.9286 95.3905 58.6379 96.6295C59.4578 96.8495 60.2978 97.1295 60.9178 97.7095C61.5378 98.2795 61.8978 99.2295 61.5578 100.009C61.3179 100.549 60.7978 100.919 60.2878 101.219C56.4606 103.452 52.0714 103.836 45.8078 104.789C50.579 104.468 55.5513 105.272 59.9278 107.079C64.0404 108.779 63.4624 111.59 61.2278 112.529C60.3582 112.914 59.3503 112.96 58.4379 112.979C59.9978 113.06 60.6778 115.219 59.9578 116.599C64.5679 114.12 69.1178 111.539 73.6778 108.959C74.3478 108.579 75.0378 108.189 75.5878 107.649C77.9379 105.339 78.5079 100.589 79.2878 97.5195C81.7886 87.6494 84.0623 76.8401 78.9878 67.4795ZM46.2478 86.3095C46.0878 85.5495 47.6879 84.5795 49.8078 84.1495C51.9178 83.7195 53.7678 83.9995 53.9178 84.7595C54.2837 86.5886 46.581 88.1454 46.2478 86.3095ZM50.7078 72.8795C48.4212 71.5967 46.1839 70.0064 44.3179 67.9995C40.914 68.8137 37.5654 69.6574 34.2178 71.1395C39.2078 74.2395 45.2678 74.6195 50.7078 72.8795Z" fill="#B39DDB"/>
<path d="M78.9878 67.4795C77.6879 69.3095 76.0478 70.9095 74.1379 72.1695C72.0878 73.5095 69.8779 73.9495 67.5278 74.5595C64.3699 75.3935 60.7965 75.5397 57.2678 74.7095C48.7278 79.9695 37.3179 80.4395 28.9878 74.0495C12.2767 85.9422 6.35936 124.778 23.4778 136.329C30.4407 141.011 39.726 138.416 41.4678 136.399C42.0178 135.759 42.1578 134.779 42.0878 133.709C38.5887 134.007 34.4887 131.668 32.5378 125.409C30.3378 118.329 31.5578 106.859 36.5779 101.049C38.5779 98.7495 41.5578 97.5595 44.5178 96.8095C49.2426 95.6372 53.9286 95.3905 58.6379 96.6295C59.4578 96.8495 60.2978 97.1295 60.9178 97.7095C61.5378 98.2795 61.8978 99.2295 61.5578 100.009C61.3179 100.549 60.7978 100.919 60.2878 101.219C56.4606 103.452 52.0714 103.836 45.8078 104.789C50.579 104.468 55.5513 105.272 59.9278 107.079C64.0404 108.779 63.4624 111.59 61.2278 112.529C60.3582 112.914 59.3503 112.96 58.4379 112.979C59.9978 113.06 60.6778 115.219 59.9578 116.599C64.5679 114.12 69.1178 111.539 73.6778 108.959C74.3478 108.579 75.0378 108.189 75.5878 107.649C77.9379 105.339 78.5079 100.589 79.2878 97.5195C81.7886 87.6494 84.0623 76.8401 78.9878 67.4795ZM46.2478 86.3095C46.0878 85.5495 47.6879 84.5795 49.8078 84.1495C51.9178 83.7195 53.7678 83.9995 53.9178 84.7595C54.2837 86.5886 46.581 88.1454 46.2478 86.3095ZM50.7078 72.8795C48.4212 71.5967 46.1839 70.0064 44.3179 67.9995C40.914 68.8137 37.5654 69.6574 34.2178 71.1395C39.2078 74.2395 45.2678 74.6195 50.7078 72.8795Z" fill="white" fill-opacity="0.32"/>
<path d="M46.0079 69.6195C45.0989 69.1647 43.4719 69.3149 42.4178 69.2095C39.2878 68.8995 36.5779 66.6895 34.9279 64.0095C34.6979 63.6295 34.4778 63.2395 34.2778 62.8395C36.2379 63.1795 38.3079 62.9395 40.1578 62.1895C40.3578 62.5895 40.5679 62.9695 40.7878 63.3495C41.1879 64.0395 41.6279 64.7095 42.0878 65.3595C43.2278 66.9195 44.5479 68.3595 46.0079 69.6195Z" fill="#DDDDDB"/>
<path d="M46.0079 69.6195C45.0989 69.1647 43.4719 69.3149 42.4178 69.2095C39.2878 68.8995 36.5779 66.6895 34.9279 64.0095C34.6979 63.6295 34.4778 63.2395 34.2778 62.8395C36.2379 63.1795 38.3079 62.9395 40.1578 62.1895C40.3578 62.5895 40.5679 62.9695 40.7878 63.3495C41.1879 64.0395 41.6279 64.7095 42.0878 65.3595C43.2278 66.9195 44.5479 68.3595 46.0079 69.6195Z" fill="#0D0D0D" fill-opacity="0.82"/>
<path d="M50.4382 33.6092C49.7781 33.7792 49.1282 33.9892 48.4882 34.2292C45.7681 35.2692 43.4482 37.1692 41.4982 39.2992C40.2698 40.6542 39.4364 41.5856 38.6182 43.0592C35.8938 42.0854 32.7589 42.8319 30.4182 44.4992C30.3882 44.0492 30.3782 43.5892 30.3682 43.1392C30.3481 41.7892 30.3481 40.4092 30.4982 39.0692C35.9879 33.6408 43.9481 32.1196 50.4382 33.6092Z" fill="#DDDDDB"/>
<path d="M50.4382 33.6092C49.7781 33.7792 49.1282 33.9892 48.4882 34.2292C45.7681 35.2692 43.4482 37.1692 41.4982 39.2992C40.2698 40.6542 39.4364 41.5856 38.6182 43.0592C35.8938 42.0854 32.7589 42.8319 30.4182 44.4992C30.3882 44.0492 30.3782 43.5892 30.3682 43.1392C30.3481 41.7892 30.3481 40.4092 30.4982 39.0692C35.9879 33.6408 43.9481 32.1196 50.4382 33.6092Z" fill="#0D0D0D" fill-opacity="0.82"/>
<path d="M83.6279 39.2293C84.4379 44.9093 84.1279 50.7493 82.7678 56.3193C82.9178 54.4894 82.8779 52.6293 82.6879 50.8193C82.3679 47.9193 82.0779 45.1393 80.7979 42.4993C78.7479 38.2593 74.9879 35.1194 70.7278 34.1393C66.9078 33.2493 63.0079 32.7994 59.0978 32.7793C55.0913 29.6426 50.1168 28.2493 45.0679 28.2493C46.5963 27.064 48.1752 25.5222 49.7579 24.6593C57.7611 20.2494 67.293 20.2512 75.8079 23.3593C78.3478 24.2793 80.8578 25.5293 82.6379 27.5693C84.4078 29.5993 85.3079 32.5793 84.3079 35.0893C83.593 36.8907 83.2609 36.7281 83.6279 39.2293Z" fill="#DDDDDB"/>
<path d="M83.6279 39.2293C84.4379 44.9093 84.1279 50.7493 82.7678 56.3193C82.9178 54.4894 82.8779 52.6293 82.6879 50.8193C82.3679 47.9193 82.0779 45.1393 80.7979 42.4993C78.7479 38.2593 74.9879 35.1194 70.7278 34.1393C66.9078 33.2493 63.0079 32.7994 59.0978 32.7793C55.0913 29.6426 50.1168 28.2493 45.0679 28.2493C46.5963 27.064 48.1752 25.5222 49.7579 24.6593C57.7611 20.2494 67.293 20.2512 75.8079 23.3593C78.3478 24.2793 80.8578 25.5293 82.6379 27.5693C84.4078 29.5993 85.3079 32.5793 84.3079 35.0893C83.593 36.8907 83.2609 36.7281 83.6279 39.2293Z" fill="#0D0D0D" fill-opacity="0.82"/>
<path d="M36.0836 63.2406C29.0615 63.2406 24.7973 56.5433 25.9224 50.8119C27.037 45.2021 33.1008 41.2042 38.2471 42.6888C38.5644 42.7798 38.427 43.2593 38.1085 43.1693C37.2535 42.9222 36.3189 42.8295 35.4068 42.8988C31.1192 43.2386 27.2525 46.682 26.4127 50.9086C25.5836 55.1341 27.857 59.7845 31.7008 61.7269C34.2511 63.015 37.4356 63.0804 40.2203 61.8988C40.3458 61.8441 40.4947 61.9047 40.5479 62.0316C40.6021 62.1586 40.5426 62.306 40.4156 62.3597C39.0284 62.9476 37.5455 63.2406 36.0836 63.2406Z" fill="#DDDDDB"/>
<path d="M37.0517 52.3162C35.376 50.5212 32.4546 49.9988 30.2612 51.1003C29.9606 51.2453 29.7439 50.8017 30.0366 50.6531C32.4218 49.4558 35.5952 50.0242 37.417 51.9744C37.5112 52.0759 37.5058 52.2341 37.4052 52.3279C37.3046 52.4214 37.1466 52.4176 37.0517 52.3162Z" fill="#DDDDDB"/>
<path d="M33.4764 54.8053C33.1663 53.4987 33.4466 52.0632 34.2269 50.9675C34.418 50.697 34.8262 50.9871 34.6341 51.2565C33.9363 52.238 33.6853 53.5212 33.9627 54.6901C34.0388 55.0109 33.5529 55.1281 33.4764 54.8053Z" fill="#DDDDDB"/>
<path d="M50.596 73.1025C46.1156 70.8623 42.4388 67.1132 40.243 62.5468C40.1932 62.4482 40.1419 62.3457 40.0902 62.2314C38.5194 58.8613 37.5628 55.0175 37.3988 51.4111C37.3836 51.0799 37.8837 51.0583 37.8978 51.3876C38.0594 54.9306 38.9994 58.708 40.5448 62.0234C40.5941 62.1328 40.6424 62.2294 40.6913 62.3261C42.8416 66.7978 46.4378 70.4648 50.8197 72.6552C51.1137 72.8016 50.8953 73.2481 50.596 73.1025Z" fill="#DDDDDB"/>
<path d="M63.1069 75.3969C62.7796 75.3476 62.8542 74.8516 63.1811 74.9028C67.2104 75.5036 72.8899 73.7757 76.8881 69.891C81.5323 65.3818 83.3866 58.9249 82.9296 52.5707C82.9071 52.2533 83.4028 52.1889 83.4287 52.5356C83.8974 59.0482 81.9776 65.6454 77.2368 70.2504C73.1164 74.2527 67.275 76.0195 63.1069 75.3969Z" fill="#DDDDDB"/>
<path d="M60.663 55.0485C53.1093 54.9116 49.5686 42.5327 54.9814 35.4792C55.0658 35.3688 55.2231 35.3483 55.3319 35.4333C55.4413 35.5172 55.4618 35.6745 55.3778 35.7838C50.2011 42.532 53.5644 54.4195 60.6718 54.5485C62.1698 54.5915 64.1049 54.0983 65.121 52.6784C65.3093 52.4104 65.7217 52.6984 65.5273 52.9694C64.4787 54.4352 62.4492 55.091 60.663 55.0485Z" fill="#DDDDDB"/>
<path d="M68.3321 47.0182C69.3737 43.9851 68.6986 39.4315 66.2183 36.8668C64.7866 35.3872 63.0702 34.8783 61.4766 35.1266C61.3472 35.148 61.2119 35.0553 61.1909 34.9176C61.1699 34.7818 61.2632 34.6539 61.3994 34.6324C61.6992 34.5855 62.0337 34.568 62.3965 34.5797C63.9268 34.6041 65.374 35.275 66.5777 36.5191C69.1842 39.2148 69.9077 43.9755 68.8047 47.1803C68.6966 47.4942 68.2243 47.3297 68.3321 47.0182Z" fill="#DDDDDB"/>
<path d="M74.8976 50.9927C70.6106 44.9641 73.9753 34.7115 80.2232 34.898C86.5615 35.0116 89.4301 45.3518 84.9625 51.1754C82.1262 54.8728 77.6027 54.7985 74.8976 50.9927ZM75.3048 50.7027C79.3977 56.4611 86.4918 52.3929 86.6334 44.5152C86.6773 42.0982 86.0255 39.816 84.7975 38.0884C83.586 36.3853 81.9581 35.4293 80.2145 35.398C74.4348 35.2085 71.2207 44.9606 75.3048 50.7027Z" fill="#DDDDDB"/>
<path d="M73.1564 41.4391C71.8065 40.1228 69.543 40.116 69.1281 41.1852C69.0089 41.4961 68.5417 41.3122 68.6623 41.0055C68.8644 40.483 69.3454 40.1207 70.0173 39.985C71.2404 39.733 72.5441 40.1432 73.5051 41.0816C73.744 41.3123 73.3907 41.671 73.1564 41.4391Z" fill="#DDDDDB"/>
<path d="M69.1333 54.7498C69.1333 54.3811 69.6931 54.5783 70.6108 53.8357C71.7471 52.948 71.6133 51.7625 71.4438 50.2615C71.1781 47.938 70.974 44.4227 70.5991 40.2117C70.5869 40.074 70.6885 39.9529 70.8262 39.9402C71.2971 39.8759 71.0324 40.3547 71.8574 49.407C72.0384 51.503 72.7645 53.9126 69.4658 54.9871C69.311 55.0417 69.1333 54.9214 69.1333 54.7498Z" fill="#DDDDDB"/>
<path d="M60.0809 45.4652C60.94 49.4019 60.0995 52.9243 58.2072 53.3372C56.315 53.7502 54.0833 50.8982 53.2242 46.9616C52.3651 43.0249 53.2056 39.5025 55.0979 39.0896C56.9902 38.6766 59.2217 41.5285 60.0809 45.4652Z" fill="#DDDDDB"/>
<path d="M78.1965 45.2596C78.146 48.0521 77.0154 50.2931 75.6731 50.2688C74.3309 50.2445 73.2822 47.964 73.3328 45.1715C73.3834 42.3791 74.514 40.138 75.8562 40.1623C77.1985 40.1866 78.2471 42.4672 78.1965 45.2596Z" fill="#DDDDDB"/>
<path d="M44.7878 33.1094C43.222 34.0074 41.7938 34.4018 40.1078 34.7394C38.9979 34.9094 37.8978 34.8494 36.7979 34.8394C39.2898 33.7776 42.0973 33.2075 44.7878 33.1094Z" fill="#DDDDDB"/>
<path d="M48.7581 28.5093C41.9361 27.5588 34.0595 29.1053 27.9681 34.0693C21.7151 29.7227 21.6382 18.819 28.3081 13.6694C33.1681 9.90935 40.7281 10.2193 45.268 14.3694C49.0891 17.8708 50.374 23.742 48.7581 28.5093Z" fill="#DDDDDB"/>
<path d="M48.7581 28.5093C41.9361 27.5588 34.0595 29.1053 27.9681 34.0693C21.7151 29.7227 21.6382 18.819 28.3081 13.6694C33.1681 9.90935 40.7281 10.2193 45.268 14.3694C49.0891 17.8708 50.374 23.742 48.7581 28.5093Z" fill="#0D0D0D" fill-opacity="0.82"/>
<path d="M55.3269 44.5978C49.7732 43.5441 45.1165 43.0314 39.2527 42.8283C38.9219 42.8165 38.942 42.3184 39.2703 42.3283C45.1609 42.5324 49.8401 43.047 55.4197 44.1056C55.5554 44.132 55.6448 44.2628 55.6189 44.3986C55.5925 44.5357 55.4599 44.6227 55.3269 44.5978Z" fill="#DDDDDB"/>
<path d="M52.8582 34.3695C46.5181 38.0395 41.2681 44.5395 38.5282 51.3895C38.3082 51.9395 37.7482 51.7095 37.5082 51.1695C37.0782 50.1895 37.4482 46.7795 38.1782 42.9295C38.8376 39.4547 39.5844 36.5148 40.4182 33.6795C44.5742 32.7554 49.0076 32.8585 52.8582 34.3695Z" fill="#DDDDDB"/>
<path d="M52.8582 34.3695C46.5181 38.0395 41.2681 44.5395 38.5282 51.3895C38.3082 51.9395 37.7482 51.7095 37.5082 51.1695C37.0782 50.1895 37.4482 46.7795 38.1782 42.9295C38.8376 39.4547 39.5844 36.5148 40.4182 33.6795C44.5742 32.7554 49.0076 32.8585 52.8582 34.3695Z" fill="#0D0D0D" fill-opacity="0.82"/>
<path d="M62.6921 63.0057C61.9396 58.9735 58.0686 56.6629 54.4143 57.3563C54.094 57.4188 53.9927 56.928 54.3215 56.8641C58.2734 56.1218 62.3823 58.6209 63.1833 62.9139C63.2087 63.0497 63.1194 63.1805 62.9836 63.2059C62.8515 63.2307 62.718 63.1441 62.6921 63.0057Z" fill="#DDDDDB"/>
<path d="M55.8978 30.9793C55.7728 30.9793 55.6644 30.8855 55.6498 30.7576C55.3592 28.2048 56.0619 25.5847 57.5785 23.5691C57.7751 23.3055 58.1778 23.6042 57.9779 23.8699C56.5375 25.7839 55.87 28.2742 56.1468 30.7009C56.1625 30.8386 56.0638 30.9617 55.9266 30.9773C55.9169 30.9783 55.9076 30.9793 55.8978 30.9793Z" fill="#DDDDDB"/>
<path d="M55.8978 30.9793C55.7728 30.9793 55.6644 30.8855 55.6498 30.7576C55.3592 28.2048 56.0619 25.5847 57.5785 23.5691C57.7751 23.3055 58.1778 23.6042 57.9779 23.8699C56.5375 25.7839 55.87 28.2742 56.1468 30.7009C56.1625 30.8386 56.0638 30.9617 55.9266 30.9773C55.9169 30.9783 55.9076 30.9793 55.8978 30.9793Z" fill="#0D0D0D" fill-opacity="0.64"/>
<path d="M68.6512 33.5526C69.8807 30.6014 72.0399 28.0204 74.7317 26.285C75.0091 26.1049 75.2811 26.5269 75.0023 26.705C72.3948 28.3866 70.3035 30.8866 69.1131 33.744C68.9864 34.05 68.5245 33.8577 68.6512 33.5526Z" fill="#DDDDDB"/>
<path d="M68.6512 33.5526C69.8807 30.6014 72.0399 28.0204 74.7317 26.285C75.0091 26.1049 75.2811 26.5269 75.0023 26.705C72.3948 28.3866 70.3035 30.8866 69.1131 33.744C68.9864 34.05 68.5245 33.8577 68.6512 33.5526Z" fill="#0D0D0D" fill-opacity="0.64"/>
<path d="M35.0249 29.7686C36.4526 28.2324 37.9268 27.0654 39.2881 26.3945C42.7759 24.6904 46.4732 24.126 49.7007 24.8144C50.0287 24.8834 49.9138 25.3777 49.5962 25.3027C46.478 24.6396 42.8955 25.1865 39.5083 26.8437C38.2022 27.4873 36.7783 28.6172 35.3911 30.1084C35.168 30.3514 34.7985 30.0102 35.0249 29.7686Z" fill="#DDDDDB"/>
<path d="M35.0249 29.7686C36.4526 28.2324 37.9268 27.0654 39.2881 26.3945C42.7759 24.6904 46.4732 24.126 49.7007 24.8144C50.0287 24.8834 49.9138 25.3777 49.5962 25.3027C46.478 24.6396 42.8955 25.1865 39.5083 26.8437C38.2022 27.4873 36.7783 28.6172 35.3911 30.1084C35.168 30.3514 34.7985 30.0102 35.0249 29.7686Z" fill="#0D0D0D" fill-opacity="0.64"/>
<path d="M126.796 36.0713C126.588 36.4687 126.784 36.2586 125.676 37.6796C125.529 37.8682 125.607 37.7702 126.334 39.5372C126.381 39.6515 126.434 39.6982 126.555 39.7094C127.047 39.7549 127.539 39.813 128.031 39.8613C128.425 39.9001 128.633 40.1192 128.64 40.5202C128.653 41.3054 128.666 42.0906 128.678 42.8758C128.685 43.2786 128.488 43.4966 128.088 43.5497C127.592 43.6157 127.096 43.6931 126.599 43.757C126.491 43.7709 126.448 43.8152 126.41 43.9153C125.797 45.5237 125.676 45.6246 125.805 45.7895C126.118 46.1899 126.444 46.5795 126.763 46.9749C127.003 47.272 126.993 47.5666 126.729 47.8421C126.186 48.4093 125.641 48.9745 125.093 49.5374C124.797 49.8415 124.519 49.8614 124.184 49.6081C122.861 48.6068 122.949 48.5832 122.724 48.6854C121.008 49.4682 121.002 49.3492 120.981 49.597C120.938 50.1031 120.881 50.6081 120.826 51.1132C120.788 51.4697 120.57 51.6698 120.211 51.6765C119.406 51.6915 118.601 51.7046 117.796 51.7164C117.441 51.7217 117.209 51.5292 117.157 51.1761C117.083 50.6668 117.014 50.1566 116.952 49.6457C116.924 49.4112 116.872 49.5244 115.184 48.8122C114.955 48.7156 115.047 48.7404 113.738 49.793C113.428 50.0429 113.141 50.029 112.858 49.755C112.289 49.2041 111.721 48.6528 111.154 48.1005C110.89 47.8442 110.862 47.5466 111.081 47.251C112.105 45.8696 112.129 45.9779 112.027 45.7547C111.252 44.0512 111.364 44.0305 111.143 44.0109C110.644 43.9667 110.146 43.9061 109.647 43.8555C109.25 43.8153 109.046 43.5986 109.039 43.1965C109.025 42.4113 109.012 41.6261 109 40.8409C108.994 40.4412 109.196 40.2185 109.592 40.1675C110.076 40.1053 110.558 40.0315 111.042 39.9712C111.319 39.9368 111.193 39.8702 111.888 38.2223C111.944 38.0896 111.953 38.0055 111.855 37.8907C111.539 37.5186 111.235 37.1361 110.928 36.7569C110.673 36.4432 110.683 36.1537 110.965 35.8598C111.509 35.2933 112.054 34.7283 112.602 34.1659C112.88 33.8805 113.167 33.8607 113.481 34.0988C114.789 35.0901 114.729 35.1361 114.956 35.0314C115.476 34.7919 116.002 34.5665 116.53 34.3468C116.747 34.2566 116.668 34.3107 116.852 32.6022C116.89 32.2468 117.109 32.0467 117.469 32.04C118.273 32.025 119.078 32.0118 119.884 32.0001C120.239 31.9949 120.469 32.1869 120.521 32.5417C120.771 34.244 120.667 34.1856 120.898 34.2727C122.688 34.9477 122.598 35.0233 122.775 34.8748C123.143 34.5648 123.518 34.2619 123.892 33.9588C124.258 33.6627 124.528 33.6773 124.864 34.0042C125.422 34.547 125.987 35.0838 126.536 35.6355C126.648 35.7484 126.706 35.916 126.796 36.0713ZM118.753 37.5514C116.34 37.6353 114.465 39.6024 114.547 41.9786C114.631 44.3968 116.596 46.2165 118.927 46.1581C121.354 46.0972 123.225 44.0984 123.133 41.7191C123.039 39.3033 121.064 37.5178 118.753 37.5514Z" fill="#DDDDDB"/>
<path d="M126.796 36.0713C126.588 36.4687 126.784 36.2586 125.676 37.6796C125.529 37.8682 125.607 37.7702 126.334 39.5372C126.381 39.6515 126.434 39.6982 126.555 39.7094C127.047 39.7549 127.539 39.813 128.031 39.8613C128.425 39.9001 128.633 40.1192 128.64 40.5202C128.653 41.3054 128.666 42.0906 128.678 42.8758C128.685 43.2786 128.488 43.4966 128.088 43.5497C127.592 43.6157 127.096 43.6931 126.599 43.757C126.491 43.7709 126.448 43.8152 126.41 43.9153C125.797 45.5237 125.676 45.6246 125.805 45.7895C126.118 46.1899 126.444 46.5795 126.763 46.9749C127.003 47.272 126.993 47.5666 126.729 47.8421C126.186 48.4093 125.641 48.9745 125.093 49.5374C124.797 49.8415 124.519 49.8614 124.184 49.6081C122.861 48.6068 122.949 48.5832 122.724 48.6854C121.008 49.4682 121.002 49.3492 120.981 49.597C120.938 50.1031 120.881 50.6081 120.826 51.1132C120.788 51.4697 120.57 51.6698 120.211 51.6765C119.406 51.6915 118.601 51.7046 117.796 51.7164C117.441 51.7217 117.209 51.5292 117.157 51.1761C117.083 50.6668 117.014 50.1566 116.952 49.6457C116.924 49.4112 116.872 49.5244 115.184 48.8122C114.955 48.7156 115.047 48.7404 113.738 49.793C113.428 50.0429 113.141 50.029 112.858 49.755C112.289 49.2041 111.721 48.6528 111.154 48.1005C110.89 47.8442 110.862 47.5466 111.081 47.251C112.105 45.8696 112.129 45.9779 112.027 45.7547C111.252 44.0512 111.364 44.0305 111.143 44.0109C110.644 43.9667 110.146 43.9061 109.647 43.8555C109.25 43.8153 109.046 43.5986 109.039 43.1965C109.025 42.4113 109.012 41.6261 109 40.8409C108.994 40.4412 109.196 40.2185 109.592 40.1675C110.076 40.1053 110.558 40.0315 111.042 39.9712C111.319 39.9368 111.193 39.8702 111.888 38.2223C111.944 38.0896 111.953 38.0055 111.855 37.8907C111.539 37.5186 111.235 37.1361 110.928 36.7569C110.673 36.4432 110.683 36.1537 110.965 35.8598C111.509 35.2933 112.054 34.7283 112.602 34.1659C112.88 33.8805 113.167 33.8607 113.481 34.0988C114.789 35.0901 114.729 35.1361 114.956 35.0314C115.476 34.7919 116.002 34.5665 116.53 34.3468C116.747 34.2566 116.668 34.3107 116.852 32.6022C116.89 32.2468 117.109 32.0467 117.469 32.04C118.273 32.025 119.078 32.0118 119.884 32.0001C120.239 31.9949 120.469 32.1869 120.521 32.5417C120.771 34.244 120.667 34.1856 120.898 34.2727C122.688 34.9477 122.598 35.0233 122.775 34.8748C123.143 34.5648 123.518 34.2619 123.892 33.9588C124.258 33.6627 124.528 33.6773 124.864 34.0042C125.422 34.547 125.987 35.0838 126.536 35.6355C126.648 35.7484 126.706 35.916 126.796 36.0713ZM118.753 37.5514C116.34 37.6353 114.465 39.6024 114.547 41.9786C114.631 44.3968 116.596 46.2165 118.927 46.1581C121.354 46.0972 123.225 44.0984 123.133 41.7191C123.039 39.3033 121.064 37.5178 118.753 37.5514Z" fill="#0D0D0D" fill-opacity="0.82"/>
<path d="M43.2426 78.9862C20.2516 78.9862 9.64999 48.6791 27.8099 33.8769C36.7936 26.5541 51.2249 25.7802 59.829 33.0487C65.389 37.7284 68.953 44.4013 69.6073 51.3564C69.8988 54.4101 69.4476 57.786 68.2655 61.3876C64.7752 72.0805 54.0967 78.9862 43.2426 78.9862ZM28.1259 34.2636C15.0818 44.8973 16.9035 64.4329 29.1405 73.8515C42.1754 83.8493 62.6914 76.8532 67.7904 61.2323C68.9506 57.6952 69.3944 54.3886 69.1092 51.4032C68.416 44.0283 64.3979 37.2552 58.9432 32.9765C50.5941 26.4416 36.8346 27.1657 28.1259 34.2636ZM44.1927 74.163C26.3634 74.163 17.5879 51.4029 30.3226 38.8915C37.9772 31.3241 50.6414 31.0142 57.6986 36.9384C62.1942 40.7187 65.08 46.12 65.6171 51.7567C65.849 54.2724 65.4818 57.0077 64.5258 59.8866C61.7146 68.5347 53.0764 74.163 44.1927 74.163ZM30.6737 39.248C20.8563 48.8936 24.2264 64.6755 34.3495 70.9267C44.8198 77.4366 60.1324 71.7845 64.0502 59.7323L64.0507 59.7304C64.9852 56.9169 65.3446 54.2499 65.119 51.8036C64.5946 46.2968 61.7728 41.0185 57.3768 37.3212C50.6037 31.6357 38.1876 31.8156 30.6737 39.248Z" fill="#DDDDDB"/>
<path d="M56.3279 96.1296C53.7778 95.7197 51.1578 95.7197 48.5779 96.0397C47.3237 90.693 46.3622 87.1297 46.4178 86.6097C47.7074 87.924 53.7635 86.5386 53.9178 84.9297C54.0034 85.0436 56.2015 95.5324 56.3279 96.1296Z" fill="#DDDDDB"/>
<path d="M56.3279 96.1296C53.7778 95.7197 51.1578 95.7197 48.5779 96.0397C47.3237 90.693 46.3622 87.1297 46.4178 86.6097C47.7074 87.924 53.7635 86.5386 53.9178 84.9297C54.0034 85.0436 56.2015 95.5324 56.3279 96.1296Z" fill="#0D0D0D" fill-opacity="0.64"/>
<path d="M58.5478 106.549C56.0178 105.649 53.3678 105.079 50.6978 104.849C50.6278 104.589 50.5678 104.339 50.5078 104.079C52.9378 103.709 55.3978 103.289 57.6778 102.449C57.7005 102.561 58.192 104.92 58.5478 106.549Z" fill="#DDDDDB"/>
<path d="M58.5478 106.549C56.0178 105.649 53.3678 105.079 50.6978 104.849C50.6278 104.589 50.5678 104.339 50.5078 104.079C52.9378 103.709 55.3978 103.289 57.6778 102.449C57.7005 102.561 58.192 104.92 58.5478 106.549Z" fill="#0D0D0D" fill-opacity="0.64"/>
<path d="M55.8882 124.87C57.1297 123.938 58.379 122.459 58.1581 120.93C58.0082 119.96 57.0582 119.09 56.1082 119.31C57.5782 118.72 59.1581 118.04 59.9282 116.66C60.6982 115.28 60.0181 113.06 58.4382 112.98C58.9182 112.97 59.4081 112.95 59.8882 112.89C59.9104 112.99 61.6521 121.212 61.8082 121.97C62.6018 125.652 58.1775 127.611 55.8882 124.87Z" fill="#DDDDDB"/>
<path d="M55.8882 124.87C57.1297 123.938 58.379 122.459 58.1581 120.93C58.0082 119.96 57.0582 119.09 56.1082 119.31C57.5782 118.72 59.1581 118.04 59.9282 116.66C60.6982 115.28 60.0181 113.06 58.4382 112.98C58.9182 112.97 59.4081 112.95 59.8882 112.89C59.9104 112.99 61.6521 121.212 61.8082 121.97C62.6018 125.652 58.1775 127.611 55.8882 124.87Z" fill="#0D0D0D" fill-opacity="0.64"/>
<path d="M36.0308 131.755C28.9927 125.459 30.1653 108.089 36.3887 100.886C38.1197 98.8949 40.6832 97.5228 44.4561 96.5667C49.2082 95.3881 53.947 95.1359 58.7012 96.387C59.5533 96.6156 60.4312 96.9115 61.0884 97.5267C61.7149 98.1029 62.2017 99.1575 61.7867 100.109C61.5118 100.728 60.939 101.126 60.4141 101.435C57.1378 103.346 53.425 103.907 49.3726 104.506C53.1948 104.689 56.8099 105.519 60.0235 106.848C64.8344 108.837 63.8218 112.782 59.5748 113.174C60.4869 113.938 60.7855 115.553 60.1793 116.714L60.1514 116.771C59.4825 117.971 58.2325 118.671 57.0933 119.171C58.8886 119.955 59.1842 122.709 56.0377 125.07C53.9073 126.655 50.9859 127.195 48.4146 127.576C47.4735 127.712 47.5858 127.968 47.5479 128.549C47.5256 131.21 45.1693 133.724 42.107 133.958C41.9224 133.974 37.6621 133.223 36.0308 131.755ZM44.5777 97.0511C40.9097 97.9808 38.4273 99.3031 36.7662 101.213C31.7139 107.061 30.6241 118.408 32.7764 125.335C34.8381 131.946 39.3795 134.118 42.8331 133.345C45.1793 132.838 47.0299 130.727 47.0479 128.537L47.0513 128.41C47.0657 127.599 47.3212 127.225 48.3428 127.082C51.4871 126.615 55.007 125.927 57.0137 123.462C57.4141 122.977 58.0616 122.011 57.9102 120.965C57.7848 120.149 56.9857 119.374 56.1641 119.552C55.8749 119.627 55.7244 119.194 56.0147 119.076C57.5616 118.456 59.0079 117.795 59.7095 116.537L59.732 116.492C60.3748 115.26 59.7881 113.297 58.4254 113.229C58.2906 113.222 58.1861 113.11 58.1881 112.975C58.1935 112.597 58.5768 112.801 59.8565 112.641C60.379 112.562 60.7725 112.457 61.1265 112.301C62.0162 111.927 62.6353 111.192 62.7086 110.426L62.7091 110.423C62.8839 108.759 60.7554 107.692 59.8321 107.311C57.0645 106.164 53.9292 105.379 50.6763 105.098C46.3163 104.7 45.6192 105.357 45.5591 104.817C45.5445 104.683 45.6378 104.563 45.7701 104.542C51.903 103.611 56.4087 103.195 60.1617 101.003C60.6173 100.736 61.1124 100.396 61.3292 99.9075C61.6314 99.2142 61.2662 98.3695 60.7481 97.8929C60.17 97.3519 59.3609 97.0824 58.5728 96.8704C53.8757 95.6331 49.2167 95.9011 44.5777 97.0511Z" fill="#DDDDDB"/>
<path d="M45.8062 105.042H40.5811C40.2502 105.042 40.2504 104.542 40.5811 104.542H45.8062C46.137 104.542 46.1368 105.042 45.8062 105.042Z" fill="#DDDDDB"/>
<path d="M40.2702 113.619C39.9423 113.619 39.938 113.126 40.2649 113.119C46.992 112.975 58.5826 112.729 58.4406 112.729C58.7686 112.729 58.7729 113.222 58.446 113.229L40.2756 113.619H40.2702Z" fill="#DDDDDB"/>
<path d="M40.5346 121.511C40.3993 121.484 40.31 121.354 40.3354 121.219C40.3608 121.082 40.4945 120.991 40.6274 121.018C46.2065 122.073 55.9325 119.104 56.0302 119.074C56.3523 118.983 56.4896 119.456 56.1777 119.553C51.967 120.844 44.8661 122.323 40.5346 121.511Z" fill="#DDDDDB"/>
<path d="M47.4292 128.018H41.2822C40.9514 128.018 40.9516 127.518 41.2822 127.518H47.4292C47.76 127.518 47.7598 128.018 47.4292 128.018Z" fill="#DDDDDB"/>
<path d="M49.758 83.9045C55.1707 82.7988 55.8656 86.0557 50.4177 87.1642C45.0075 88.2682 44.2776 85.0172 49.758 83.9045ZM46.5837 85.9377C46.4407 86.1553 46.4658 86.3019 46.5954 86.4338C46.9924 86.8371 48.4324 87.0597 50.3176 86.674C52.3225 86.2668 53.6179 85.4386 53.6687 84.9054C53.677 84.8527 53.676 84.8234 53.6731 84.8097L53.6726 84.8078C53.654 84.715 53.5827 84.6271 53.4602 84.5451C52.1197 83.6527 47.4676 84.5921 46.5837 85.9377Z" fill="#DDDDDB"/>
<path d="M46.2739 78.5665L47.6264 85.0742C47.7189 85.5191 48.0807 85.8557 48.5332 85.898C49.4773 85.9862 51.1017 85.9675 52.2229 85.0312C52.4962 84.803 52.5791 84.4142 52.5014 84.0667L51.042 77.5459" fill="#DDDDDB"/>
<path d="M19.6862 118.705C21.3483 111.817 27.1599 106.152 33.8195 104.93C34.1429 104.871 34.2365 105.361 33.9094 105.422C27.4387 106.609 21.7897 112.12 20.1725 118.822C20.0941 119.144 19.608 119.03 19.6862 118.705Z" fill="#DDDDDB"/>
<path d="M12.8183 32.9759C12.5308 32.8093 12.7875 32.3751 13.0702 32.5443C14.6757 33.4828 16.184 34.5931 17.5546 35.8451C17.6567 35.9378 17.664 36.0961 17.5707 36.1986C17.1595 36.6465 16.8219 35.3173 12.8183 32.9759Z" fill="#DDDDDB"/>
<path d="M18.6797 34.1264C18.1216 33.0307 17.7168 31.8638 17.4761 30.6577C17.4114 30.3306 17.9031 30.2405 17.9663 30.56C18.546 33.4623 19.5026 33.9885 19.0156 34.2358C18.894 34.2983 18.7424 34.2504 18.6797 34.1264Z" fill="#DDDDDB"/>
<path d="M12.3538 37.7358C14.0452 37.4897 15.762 37.4546 17.4588 37.6304C17.7891 37.6656 17.7329 38.164 17.407 38.1284C15.7522 37.9556 14.0755 37.9907 12.4261 38.23C12.1016 38.2819 12.0245 37.783 12.3538 37.7358Z" fill="#DDDDDB"/>
<path d="M69.6191 126.453C69.5307 126.347 69.5448 126.19 69.6508 126.101C69.7568 126.012 69.9135 126.026 70.0028 126.133C73.456 130.273 79.1488 132.542 84.498 131.926C87.2616 131.606 90.1127 130.093 91.3529 127.917C90.2405 127.372 89.129 126.664 88.7035 125.495C88.2899 124.359 88.8885 122.853 90.0937 122.674C91.7893 122.428 93.2761 124.905 92.0468 127.688C99.6313 131.022 110.308 127.896 116.976 115.793C117.043 115.672 117.196 115.628 117.316 115.696C117.437 115.762 117.481 115.914 117.414 116.036C110.619 128.367 99.6576 131.591 91.8246 128.136C90.5297 130.484 87.5439 132.077 84.5556 132.422C79.1171 133.057 73.2212 130.773 69.6191 126.453ZM89.331 123.773C89.0585 124.23 88.9965 124.838 89.1733 125.324C89.5447 126.345 90.5937 126.991 91.5795 127.472C93.0371 124.228 90.3759 122.016 89.331 123.773Z" fill="#DDDDDB"/>
<path d="M102.249 85.3618C102.239 85.3618 102.23 85.3614 102.22 85.3604C102.084 85.3443 101.986 85.2202 102.002 85.083C102.509 80.6976 105.893 77.0176 110.504 76.3885C110.764 75.8055 111.137 75.3054 111.446 74.9275C113.754 72.1016 117.155 70.306 120.777 70.0013C121.1 69.9708 121.148 70.4723 120.818 70.4994C117.381 70.7885 114.02 72.5626 111.829 75.2449C111.591 75.5364 111.311 75.9061 111.087 76.327C112.114 76.2489 113.707 76.223 114.218 77.122C114.879 78.2866 113.454 80.2996 111.885 80.0529C110.766 79.8755 109.853 78.5195 110.308 76.9237C106.055 77.6249 102.966 81.0629 102.495 85.1406C102.48 85.2681 102.373 85.3618 102.249 85.3618ZM110.853 76.85C110.348 78.2536 111.092 79.4209 111.963 79.5587C113.155 79.7477 114.225 78.1419 113.787 77.37C113.609 77.057 113.199 76.8798 112.534 76.827C111.974 76.7836 111.411 76.7914 110.853 76.85Z" fill="#DDDDDB"/>
</svg>
