<svg width="36" height="36" viewBox="0 0 36 36" fill="none" xmlns="http://www.w3.org/2000/svg">
<path d="M15 24.1675V26C11.1923 26 9.80769 26 6 26V24.1675C6 23.4101 6.38557 22.691 7.0071 22.1445C9.37234 20.0687 14.9948 20.8597 15 24.1675Z" fill="#242422"/>
<path d="M15 24.1675V26C11.1923 26 9.80769 26 6 26V24.1675C6 23.4101 6.38557 22.691 7.0071 22.1445C9.37234 20.0687 14.9948 20.8597 15 24.1675Z" fill="white" fill-opacity="0.64"/>
<path d="M10.6387 14C12.0742 14 13.2761 15.1395 13.2761 16.5C13.2761 17.8605 12.0742 19 10.6387 19C9.20184 19 8 17.8605 8 16.5C8 15.1395 9.20184 14 10.6387 14ZM25.3626 14C26.7982 14 28 15.1395 28 16.5C28 17.8605 26.7982 19 25.3626 19C23.9258 19 22.7239 17.8605 22.7239 16.5C22.7239 15.1395 23.9258 14 25.3626 14Z" fill="#242422"/>
<path d="M10.6387 14C12.0742 14 13.2761 15.1395 13.2761 16.5C13.2761 17.8605 12.0742 19 10.6387 19C9.20184 19 8 17.8605 8 16.5C8 15.1395 9.20184 14 10.6387 14ZM25.3626 14C26.7982 14 28 15.1395 28 16.5C28 17.8605 26.7982 19 25.3626 19C23.9258 19 22.7239 17.8605 22.7239 16.5C22.7239 15.1395 23.9258 14 25.3626 14Z" fill="white" fill-opacity="0.64"/>
<path d="M30 24.1675V26C26.1923 26 24.4615 26 21 26V24.1675C21 23.4101 21.3856 22.691 22.0071 22.1445C24.3723 20.0687 29.9948 20.8597 30 24.1675Z" fill="#242422"/>
<path d="M30 24.1675V26C26.1923 26 24.4615 26 21 26V24.1675C21 23.4101 21.3856 22.691 22.0071 22.1445C24.3723 20.0687 29.9948 20.8597 30 24.1675Z" fill="white" fill-opacity="0.64"/>
<path fill-rule="evenodd" clip-rule="evenodd" d="M14 14C14 11.79 15.79 10 18 10C20.21 10 22 11.79 22 14C22 16.21 20.21 18 18 18C15.79 18 14 16.21 14 14ZM10 23C10 20.34 15.33 19 18 19C20.67 19 26 20.34 26 23V26H10V23Z" fill="#242422"/>
<path fill-rule="evenodd" clip-rule="evenodd" d="M14 14C14 11.79 15.79 10 18 10C20.21 10 22 11.79 22 14C22 16.21 20.21 18 18 18C15.79 18 14 16.21 14 14ZM10 23C10 20.34 15.33 19 18 19C20.67 19 26 20.34 26 23V26H10V23Z" fill="white" fill-opacity="0.32"/>
</svg>
