<svg width="140" height="141" viewBox="0 0 140 141" fill="none" xmlns="http://www.w3.org/2000/svg">
<path d="M119.287 20.9327C119.92 19.5224 121.621 18.8794 123.031 19.5224C124.441 20.1653 125.064 21.8453 124.421 23.2557C123.778 24.6764 122.118 25.2987 120.708 24.6557C119.287 24.0231 118.644 22.3431 119.287 20.9327Z" fill="#E1E1E1" fill-opacity="0.4"/>
<path d="M133.018 70.5031C133.018 105.465 104.659 133.513 69.9972 133.513C35.4877 133.513 6.98682 105.599 6.98682 70.5031C6.98682 58.5461 10.3157 47.3668 16.1024 37.8365L14.9927 35.0883C14.8787 34.7979 15.0446 34.4661 15.3454 34.3832L16.569 34.0409C16.849 33.9579 17.1498 34.1342 17.2224 34.4246L17.5126 35.6172C29.2673 18.0486 48.7566 7.48242 69.9972 7.48242C91.4531 7.48242 110.491 18.2963 121.642 34.3832H123.705C124.006 34.3832 124.224 34.6735 124.13 34.9639L123.457 37.1105C129.523 46.7965 133.018 58.235 133.018 70.5031Z" fill="#E1E1E1" fill-opacity="0.4"/>
<path d="M16.7345 18.4644C17.3776 17.054 19.0678 16.4215 20.4783 17.054C21.8989 17.697 22.5109 19.377 21.8679 20.7977C21.2353 22.2081 19.5656 22.8303 18.1554 22.1978C16.7449 21.5547 16.0917 19.8851 16.7345 18.4644Z" fill="#E1E1E1" fill-opacity="0.4"/>
<path d="M21.8679 121.328C21.2353 122.749 19.5656 123.371 18.1554 122.728C16.7449 122.095 16.0917 120.415 16.7345 119.005C17.3776 117.595 19.0678 116.952 20.4783 117.595C21.8989 118.238 22.5109 119.918 21.8679 121.328Z" fill="#E1E1E1" fill-opacity="0.4"/>
<path d="M115.129 15.4058C115.533 14.5036 116.612 14.0991 117.514 14.5036C118.416 14.9081 118.81 15.9866 118.395 16.8785C117.991 17.7807 116.933 18.1851 116.031 17.7703C115.139 17.3658 114.724 16.2977 115.129 15.4058Z" fill="#E1E1E1" fill-opacity="0.4"/>
<path d="M15.8532 114.951C15.4486 115.853 14.3804 116.257 13.4887 115.843C12.5864 115.438 12.1717 114.37 12.5864 113.478C12.991 112.576 14.0694 112.171 14.9612 112.576C15.8636 112.98 16.2575 114.059 15.8532 114.951Z" fill="#E1E1E1" fill-opacity="0.4"/>
<path d="M119.283 20.9315C118.643 22.3451 119.289 24.0187 120.703 24.6589C122.116 25.299 123.781 24.6721 124.421 23.2586C125.062 21.8452 124.443 20.161 123.03 19.5208C121.616 18.8807 119.923 19.5181 119.283 20.9315ZM115.13 15.4021C114.722 16.3018 115.134 17.3671 116.033 17.7745C116.933 18.1819 117.993 17.7829 118.4 16.8832C118.808 15.9836 118.414 14.9117 117.514 14.5043C116.615 14.0968 115.537 14.5025 115.13 15.4021ZM16.7344 119.004C16.0942 120.418 16.7403 122.092 18.1537 122.732C19.5672 123.372 21.2323 122.745 21.8725 121.331C22.5126 119.918 21.8942 118.234 20.4808 117.594C19.0674 116.953 17.3746 117.591 16.7344 119.004ZM16.7344 18.4685C16.0942 19.8821 16.7403 21.5557 18.1537 22.1959C19.5672 22.836 21.2323 22.2091 21.8725 20.7956C22.5126 19.3821 21.8942 17.698 20.4808 17.0578C19.0674 16.4177 17.3746 17.0551 16.7344 18.4685ZM12.581 113.475C12.1735 114.375 12.5847 115.44 13.4843 115.847C14.3839 116.255 15.4437 115.856 15.8512 114.956C16.2586 114.056 15.865 112.985 14.9654 112.577C14.0658 112.17 12.9884 112.575 12.581 113.475Z" fill="#E1E1E1" fill-opacity="0.4"/>
<path d="M109.893 111.848C109.893 118.218 91.6399 123.385 69.1292 123.385C53.6673 123.385 40.2186 120.949 33.3087 117.359C32.6284 117.006 32.3638 116.17 32.6986 115.481L33.7152 113.388C33.8226 113.166 33.6025 112.929 33.3737 113.019L30.5429 114.132C29.8547 114.402 29.0647 114.101 28.741 113.436C28.4878 112.916 28.3571 112.385 28.3571 111.848C28.3571 105.478 46.6097 100.32 69.1292 100.32C75.1478 100.32 80.8607 100.691 86.0025 101.354C87.1506 101.502 87.812 102.732 87.3049 103.773C87.1971 103.994 87.4176 104.232 87.6465 104.142L91.8115 102.5C92.0666 102.399 92.3495 102.374 92.6185 102.427C103.072 104.514 109.893 107.953 109.893 111.848Z" fill="white" fill-opacity="0.8"/>
<path d="M101.004 111.857C101.004 115.976 86.7327 119.317 69.1292 119.317C61.9655 119.317 37.2454 117.949 37.2454 111.857C37.2454 107.737 51.5169 104.396 69.1292 104.396C72.5477 104.396 75.8366 104.518 78.9262 104.76C91.7352 105.721 101.004 108.534 101.004 111.857Z" fill="url(#paint0_linear_1724_10526)" fill-opacity="0.8"/>
<path d="M101.004 111.857C101.004 115.976 86.7327 119.317 69.1292 119.317C62.5072 119.317 37.2454 118.021 37.2454 111.857C37.2454 107.737 51.5169 104.396 69.1292 104.396C76.9642 104.396 88.7912 105.161 96.1231 107.885C99.2127 109.035 101.004 110.394 101.004 111.857Z" fill="#DEE1E4" fill-opacity="0.8"/>
<path d="M68.0757 104.403C50.9525 104.534 37.2454 107.82 37.2454 111.857C37.2454 117.95 61.9203 119.257 68.0757 119.303V104.403Z" fill="#DEE1E4" fill-opacity="0.8"/>
<path d="M100.944 111.398C97.4645 109.33 90.1686 107.728 81.0985 107.045C62.2884 105.571 39.4177 108.76 39.4177 114.142C39.4177 114.297 39.435 114.453 39.4783 114.6C29.3451 108.654 54.1168 102.815 78.9262 104.76C91.1379 105.677 100.139 108.274 100.944 111.398Z" fill="#D3D5D8" fill-opacity="0.8"/>
<path d="M104.91 21.87L24.5216 29.7428C22.1331 29.9767 20.4301 32.1669 20.7919 34.5394L27.6679 79.6274C27.9829 81.6924 29.7721 83.209 31.8608 83.1815L68.9722 82.6921L71.2674 86.0417C71.7833 86.7945 71.4492 87.8318 70.5909 88.1421L55.5654 93.5738C54.7515 93.868 54.7399 95.015 55.5478 95.3256L62.9948 98.1883C63.4992 98.3822 63.7346 98.962 63.5082 99.4526L61.8675 103.008C61.6301 103.522 61.9013 104.128 62.4432 104.293L72.8314 107.467C73.3979 107.64 73.6627 108.29 73.3788 108.809L68.2138 118.264C68.3176 118.239 69.5033 118.323 70.3621 117.206L78.2216 106.987C78.625 106.463 78.3707 105.696 77.7336 105.517L66.2702 102.294C65.6338 102.115 65.3792 101.35 65.7813 100.825L68.3786 97.436C68.611 97.1328 68.6355 96.7188 68.4406 96.3903L67.2655 94.4104C66.9342 93.8523 67.2586 93.1347 67.8964 93.0146L83.7363 90.0314C84.1782 89.9482 84.4982 89.5623 84.4982 89.1127V82.5131L102.589 82.2676C104.792 82.2378 106.594 80.5058 106.712 78.3061L109.497 26.2592C109.634 23.7003 107.46 21.6202 104.91 21.87Z" fill="#C5CAD0" fill-opacity="0.8"/>
<path d="M44.9453 22.3843L96.9649 16.1452C97.4205 16.0906 97.8214 16.4463 97.8214 16.9051V19.0206C97.8214 19.4285 97.5015 19.7647 97.0941 19.785L44.9453 22.3843Z" fill="#DEE1E4" fill-opacity="0.8"/>
<path d="M113.478 28.3398H115.418C115.692 28.3398 115.904 28.5818 115.866 28.8534L110.709 66.4641L113.027 28.7642C113.041 28.5258 113.239 28.3398 113.478 28.3398Z" fill="#DEE1E4" fill-opacity="0.8"/>
<path d="M118.428 34.3789H123.703C124.008 34.3789 124.226 34.675 124.135 34.9662L115.937 61.147L117.977 34.7961C117.996 34.5607 118.192 34.3789 118.428 34.3789Z" fill="#DEE1E4" fill-opacity="0.8"/>
<path d="M13.6974 57.8457H20.9505C21.2169 57.8457 21.4412 58.045 21.4726 58.3095L24.3713 82.7528L13.22 58.5917C13.0592 58.2434 13.3137 57.8457 13.6974 57.8457Z" fill="#DEE1E4" fill-opacity="0.8"/>
<path d="M15.342 34.3852L16.5649 34.0413C16.8508 33.9609 17.1465 34.1331 17.2177 34.4214L21.1308 50.2834L14.9969 35.0881C14.8797 34.7978 15.0406 34.47 15.342 34.3852Z" fill="#DEE1E4" fill-opacity="0.8"/>
<path d="M33.7549 60.6758V47.723C33.7549 47.3728 34.0388 47.0889 34.389 47.0889H42.7032C43.0534 47.0889 43.3373 47.3728 43.3373 47.723V48.934C43.3373 49.2843 43.0534 49.5682 42.7032 49.5682H36.7622V52.9563H42.2105C42.5607 52.9563 42.8446 53.2402 42.8446 53.5904V54.8015C42.8446 55.1517 42.5607 55.4356 42.2105 55.4356H36.7622V58.8306H42.7307C43.0809 58.8306 43.3648 59.1145 43.3648 59.4647V60.6758C43.3648 61.026 43.0809 61.3099 42.7307 61.3099H34.389C34.0388 61.3099 33.7549 61.026 33.7549 60.6758Z" fill="white" fill-opacity="0.8"/>
<path d="M53.9255 55.7846C57.1914 54.3825 57.3589 49.2915 54.0953 47.6595C53.3344 47.2791 52.4174 47.0889 51.3439 47.0889H46.3666C46.0164 47.0889 45.7325 47.3728 45.7325 47.723V60.6736C45.7325 61.0238 46.0164 61.3077 46.3666 61.3077H48.1079C48.4581 61.3077 48.742 61.0238 48.742 60.6736V56.2669H50.9295C53.4907 60.808 53.3291 61.3077 54.0064 61.3077H55.8786C56.3604 61.3077 56.6662 60.7918 56.4349 60.3692L53.9255 55.7846ZM48.742 53.8484V49.5482C50.1369 49.623 52.2715 49.1839 53.0627 50.54C53.4323 51.1971 53.4408 52.26 53.0627 52.9042C52.3097 54.168 50.3595 53.8093 48.742 53.8484Z" fill="white" fill-opacity="0.8"/>
<path d="M66.7581 55.7846C69.4433 54.6338 69.8537 51.348 68.6671 49.2764C67.7434 47.6798 66.0208 47.0889 64.1766 47.0889H59.1992C58.849 47.0889 58.5651 47.3728 58.5651 47.723V60.6736C58.5651 61.0238 58.849 61.3077 59.1992 61.3077H60.9338C61.284 61.3077 61.5679 61.0238 61.5679 60.6736V56.2669H63.7622C66.3234 60.808 66.1618 61.3077 66.8391 61.3077H68.7113C69.193 61.3077 69.4988 60.7917 69.2675 60.3692L66.7581 55.7846ZM61.5679 53.8484V49.5482C63.1613 49.6335 65.108 49.19 65.8953 50.54C66.2666 51.2002 66.2719 52.2625 65.8953 52.9042C65.1438 54.1659 63.1826 53.8095 61.5679 53.8484Z" fill="white" fill-opacity="0.8"/>
<path d="M77.8069 61.5033C75.3223 61.5033 73.2112 60.3661 72.0229 58.1495C70.8497 55.9611 70.8491 52.4319 72.0229 50.2405C73.2015 48.042 75.3019 46.8936 77.8069 46.8936C86.8163 46.8936 86.7625 61.5033 77.8069 61.5033ZM79.709 50.0884C79.1682 49.7321 78.5332 49.5534 77.8069 49.5534C75.8268 49.5534 74.1959 50.9463 74.1959 54.1989C74.1959 59.8859 79.5753 59.9635 80.9693 56.74C81.7394 54.9651 81.7001 51.3977 79.709 50.0884Z" fill="white" fill-opacity="0.8"/>
<path d="M94.8851 55.7778C98.3155 54.796 98.9637 47.0889 92.2968 47.0889H87.3195C86.9693 47.0889 86.6854 47.3728 86.6854 47.723V60.6736C86.6854 61.0238 86.9693 61.3077 87.3195 61.3077H89.0607C89.4109 61.3077 89.6948 61.0238 89.6948 60.6736V56.2669H91.8823C94.4436 60.808 94.282 61.3077 94.9593 61.3077H96.8333C97.3146 61.3077 97.6204 60.7925 97.39 60.37L94.8851 55.7778ZM89.6948 53.8484V49.5482C90.6757 49.7063 93.1493 49.0552 94.0156 50.54C94.3848 51.1732 94.3955 52.2798 94.0156 52.9042C93.262 54.1689 91.316 53.8092 89.6948 53.8484Z" fill="white" fill-opacity="0.8"/>
<defs>
<linearGradient id="paint0_linear_1724_10526" x1="69.4234" y1="116.135" x2="67.8502" y2="93.6428" gradientUnits="userSpaceOnUse">
<stop stop-color="#AAB2C5"/>
<stop offset="1" stop-color="#D6DCE8"/>
</linearGradient>
</defs>
</svg>
