<svg width="165" height="165" viewBox="0 0 165 165" fill="none" xmlns="http://www.w3.org/2000/svg">
<path d="M84.8305 82.2551C84.6099 82.2813 50.9003 88.1853 49.3738 88.4555C43.9511 92.7058 38.5283 96.9561 33.1154 101.216C31.6157 102.387 26.5604 105.647 29.4406 107.727C30.851 108.747 33.1254 108.987 34.7741 109.467C35.658 109.717 36.5419 109.967 37.4259 110.227C36.6214 114.788 36.8001 119.618 37.9224 123.248C39.7835 129.25 43.7045 131.472 46.9902 131.179C47.0498 132.199 46.9207 133.139 46.3943 133.749C45.3713 134.949 42.213 135.699 40.7232 135.989C36.82 136.779 32.6188 135.919 29.3214 133.679C20.7801 127.878 18.7242 114.668 19.7372 105.097C20.6013 96.8962 23.124 88.7055 27.5635 81.7451C31.5697 75.4727 37.0847 71.015 48.2019 68.6141C51.471 72.2444 55.9678 74.6201 60.14 75.3046C63.2685 75.8147 66.258 76.4446 69.4262 75.9346C74.4515 75.1284 78.9152 72.2877 81.851 67.624C84.3339 72.0744 85.0788 77.1548 84.8305 82.2551Z" fill="#AEEA00"/>
<path d="M84.8305 82.2551C84.6099 82.2813 50.9003 88.1853 49.3738 88.4555C43.9511 92.7058 38.5283 96.9561 33.1154 101.216C31.6157 102.387 26.5604 105.647 29.4406 107.727C30.851 108.747 33.1254 108.987 34.7741 109.467C35.658 109.717 36.5419 109.967 37.4259 110.227C36.6214 114.788 36.8001 119.618 37.9224 123.248C39.7835 129.25 43.7045 131.472 46.9902 131.179C47.0498 132.199 46.9207 133.139 46.3943 133.749C45.3713 134.949 42.213 135.699 40.7232 135.989C36.82 136.779 32.6188 135.919 29.3214 133.679C20.7801 127.878 18.7242 114.668 19.7372 105.097C20.6013 96.8962 23.124 88.7055 27.5635 81.7451C31.5697 75.4727 37.0847 71.015 48.2019 68.6141C51.471 72.2444 55.9678 74.6201 60.14 75.3046C63.2685 75.8147 66.258 76.4446 69.4262 75.9346C74.4515 75.1284 78.9152 72.2877 81.851 67.624C84.3339 72.0744 85.0788 77.1548 84.8305 82.2551Z" fill="#0D0D0D" fill-opacity="0.32"/>
<path d="M47.616 67.9042C46.7222 67.4241 45.719 67.174 44.8153 66.704C42.8677 65.6632 41.3504 63.4192 40.4055 61.4137C41.4782 61.4536 42.5508 61.3338 43.5837 61.0337C44.2683 63.0033 45.7288 65.6904 47.616 67.9042Z" fill="#DDDDDB"/>
<path d="M47.616 67.9042C46.7222 67.4241 45.719 67.174 44.8153 66.704C42.8677 65.6632 41.3504 63.4192 40.4055 61.4137C41.4782 61.4536 42.5508 61.3338 43.5837 61.0337C44.2683 63.0033 45.7288 65.6904 47.616 67.9042Z" fill="#0D0D0D" fill-opacity="0.82"/>
<path d="M35.3827 60.1125C31.7935 57.7476 30.055 52.8532 31.3386 48.7279C33.0638 43.2172 39.7617 40.0893 44.445 42.5912C44.7355 42.7457 44.5009 43.1892 44.2122 43.0327C39.8417 40.6977 33.4653 43.5974 31.8124 48.8778C30.5928 52.7966 32.2445 57.4473 35.6547 59.6945C37.9233 61.1912 40.9198 61.5824 43.6695 60.7342C43.9858 60.6385 44.1276 61.116 43.815 61.2127C42.8087 61.5218 37.7427 61.6702 35.3827 60.1125Z" fill="#DDDDDB"/>
<path d="M41.6771 51.3359C40.2857 49.4578 37.5913 48.654 35.4129 49.4681C35.103 49.5833 34.9336 49.1135 35.2403 48.9993C37.618 48.112 40.5578 48.9876 42.0747 51.037C42.1567 51.1479 42.1344 51.3041 42.0243 51.3867C41.9149 51.4693 41.7588 51.4469 41.6771 51.3359Z" fill="#DDDDDB"/>
<path d="M38.0424 53.3168C37.8867 52.0404 38.3028 50.7039 39.1554 49.7424C39.3756 49.4959 39.744 49.8289 39.5259 50.0754C38.7669 50.9309 38.3969 52.12 38.5351 53.2563C38.5521 53.393 38.4551 53.518 38.3188 53.5346C38.1911 53.553 38.0599 53.4597 38.0424 53.3168Z" fill="#DDDDDB"/>
<path d="M60.1004 75.551C53.0184 74.3957 46.2304 68.9488 43.6174 61.3854C41.663 55.7776 40.9613 47.5709 44.8535 41.3586C45.0292 41.0781 45.4484 41.3463 45.2735 41.6252C41.4753 47.6867 42.1698 55.7219 44.0863 61.2204C46.6269 68.5744 53.241 73.9208 60.148 75.0525C63.3528 75.5894 66.3283 76.1793 69.3873 75.6873C78.7169 74.1914 84.5478 66.0337 84.9102 56.4134C84.9238 56.063 85.4179 56.1162 85.4067 56.4329C85.033 66.2972 79.0238 74.6481 69.4658 76.1814C66.3322 76.6848 63.4331 76.1088 60.1004 75.551Z" fill="#DDDDDB"/>
<path d="M76.8673 44.8217C76.1613 43.9549 75.1317 43.4905 74.1118 43.5887C73.7738 43.619 73.3267 43.742 73.1138 44.1537C72.9636 44.4479 72.5214 44.2166 72.6735 43.9232C72.9198 43.4451 73.415 43.1497 74.0667 43.0906C75.25 42.9846 76.4396 43.5091 77.2514 44.5043C77.3382 44.6112 77.3227 44.7685 77.217 44.8564C77.1128 44.9425 76.9565 44.93 76.8673 44.8217Z" fill="#DDDDDB"/>
<path d="M70.43 57.1055C71.4895 56.8212 72.2523 56.886 73.1715 56.3076C74.332 55.582 74.3276 54.4393 74.3227 52.9929C74.3138 50.7047 74.494 47.6094 74.5817 43.3809C74.5846 43.2446 74.6952 43.1362 74.83 43.1362H74.8353C74.9721 43.1392 75.0812 43.2534 75.0783 43.3916C75.0288 45.7575 74.9896 46.7888 74.9503 47.8177C74.9021 49.0817 74.8143 51.7156 74.8193 52.991C74.8242 54.4662 74.8295 55.8593 73.4338 56.732C72.4095 57.377 71.6105 57.3056 70.5581 57.589C70.2374 57.6697 70.1143 57.1914 70.43 57.1055Z" fill="#DDDDDB"/>
<path d="M83.5149 51.6249C83.1743 54.2713 81.873 56.28 80.6097 56.1151C79.3464 55.9502 78.5967 53.6738 78.9374 51.0275C79.2781 48.3811 80.5793 46.3724 81.8426 46.5373C83.1059 46.7022 83.8556 48.9786 83.5149 51.6249Z" fill="#DDDDDB"/>
<path d="M72.232 50.3608C71.8913 53.0071 70.5901 55.0158 69.3268 54.851C68.0635 54.6861 67.3138 52.4097 67.6544 49.7633C67.9951 47.117 69.2964 45.1083 70.5597 45.2731C71.823 45.438 72.5726 47.7144 72.232 50.3608Z" fill="#DDDDDB"/>
<path d="M60.7605 33.0015C61.1519 33.1968 61.1819 33.6745 61.1441 34.1109C61.1213 34.3734 61.0763 34.6542 60.8944 34.8438C60.2982 35.4654 59.1017 35.6654 58.3357 36.0108C52.4013 38.6866 46.7299 43.9151 43.1729 50.6021C42.9067 51.1051 42.4054 50.8317 42.2362 50.2871C41.6895 48.5283 44.2292 40.9019 44.8314 39.1642C45.2717 37.8934 45.6084 35.9824 47.1186 35.571" fill="#DDDDDB"/>
<path d="M41.6771 51.3359C40.2857 49.4578 37.5913 48.654 35.4129 49.4681C35.103 49.5833 34.9336 49.1135 35.2403 48.9993C37.618 48.112 40.5578 48.9876 42.0747 51.037C42.1567 51.1479 42.1344 51.3041 42.0243 51.3867C41.9149 51.4693 41.7588 51.4469 41.6771 51.3359Z" fill="#DDDDDB"/>
<path d="M38.0424 53.3168C37.8867 52.0404 38.3028 50.7039 39.1554 49.7424C39.3756 49.4959 39.744 49.8289 39.5259 50.0754C38.7669 50.9309 38.3969 52.12 38.5351 53.2563C38.5521 53.393 38.4551 53.518 38.3188 53.5346C38.1911 53.553 38.0599 53.4597 38.0424 53.3168Z" fill="#DDDDDB"/>
<path d="M76.8673 44.8217C76.1613 43.9549 75.1317 43.4905 74.1118 43.5887C73.7738 43.619 73.3267 43.742 73.1138 44.1537C72.9636 44.4479 72.5214 44.2166 72.6735 43.9232C72.9198 43.4451 73.415 43.1497 74.0667 43.0906C75.25 42.9846 76.4396 43.5091 77.2514 44.5043C77.3382 44.6112 77.3227 44.7685 77.217 44.8564C77.1128 44.9425 76.9565 44.93 76.8673 44.8217Z" fill="#DDDDDB"/>
<path d="M60.7605 33.0015C61.1519 33.1968 61.1819 33.6745 61.1441 34.1109C61.1213 34.3734 61.0763 34.6542 60.8944 34.8438C60.2982 35.4654 59.1017 35.6654 58.3357 36.0108C52.4013 38.6866 46.7299 43.9151 43.1729 50.6021C42.9067 51.1051 42.4054 50.8317 42.2362 50.2871C41.6895 48.5283 44.2292 40.9019 44.8314 39.1642C45.2717 37.8934 45.6084 35.9824 47.1186 35.571" fill="#DDDDDB"/>
<path d="M25.7131 116.839C26.473 113.67 28.2217 110.62 30.6383 108.248C30.8723 108.018 31.2207 108.374 30.9845 108.606C28.6344 110.913 26.9337 113.878 26.1961 116.956C26.1188 117.277 25.6363 117.161 25.7131 116.839Z" fill="#DDDDDB"/>
<path d="M81.9077 57.3645C78.2264 56.8835 75.7517 52.4496 76.3908 47.48C77.0305 42.5104 80.5416 38.8621 84.2282 39.3387C87.9095 39.8197 90.3842 44.2536 89.7445 49.2233C89.1664 53.7136 85.9174 57.8837 81.9077 57.3645ZM76.8836 47.5444C76.2793 52.2406 78.5615 56.423 81.9717 56.8684C85.3814 57.3176 88.648 53.8549 89.2518 49.1588C89.8565 44.4626 87.5739 40.2802 84.1642 39.8349C80.4084 39.3436 77.4247 43.3406 76.8836 47.5444Z" fill="#DDDDDB"/>
<path d="M65.4197 56.3042C61.7384 55.8232 59.2641 51.3893 59.9033 46.4196C60.5435 41.4496 64.0516 37.8004 67.7402 38.2784C71.4214 38.7594 73.8966 43.1933 73.257 48.1629C72.6784 52.6532 69.4295 56.8234 65.4197 56.3042ZM60.396 46.4841C59.7918 51.1803 62.074 55.3627 65.4837 55.808C68.8934 56.2568 72.16 52.7941 72.7643 48.0985C73.369 43.4023 71.0863 39.2199 67.6761 38.7746C63.9249 38.2839 60.9384 42.2704 60.396 46.4841Z" fill="#DDDDDB"/>
<path d="M124.467 85.9116L134.083 103.112C134.799 104.392 133.88 105.974 132.422 105.974H123.897L124.467 85.9116Z" fill="#DDDDDB"/>
<path d="M124.467 85.9116L134.083 103.112C134.799 104.392 133.88 105.974 132.422 105.974H123.897L124.467 85.9116Z" fill="#0D0D0D" fill-opacity="0.82"/>
<path d="M124.558 86.7957C124.558 86.7456 124.558 86.2456 124.469 86.2456L124.399 86.2556C114.815 88.103 148.019 81.7027 80.8182 94.6563C80.2233 94.6563 76.6306 100.148 68.2444 112.338C67.0923 114.018 66.1091 116.188 64.232 117.128C63.0627 117.699 62.2582 117.491 60.9644 117.148C60.7359 117.248 60.5075 117.338 60.2791 117.428C61.1928 117.218 62.0966 118.048 62.2257 118.978C62.3648 119.898 61.9278 120.818 61.3319 121.538C59.6534 123.608 56.9718 124.398 54.3101 124.868C54.5683 126.699 54.8265 128.539 55.0748 130.369C55.492 133.439 55.6707 137.899 58.4219 139.85C59.0446 140.297 57.8606 139.786 86.6879 148.46L86.6978 148.47C86.7375 148.48 86.7773 148.49 86.817 148.5C92.8059 146.44 98.7948 144.37 104.784 142.31C108.002 141.2 111.22 140.09 114.437 138.989C117 138.1 120.585 137.649 121.876 135.019C122.76 133.199 122.611 130.699 122.721 128.709C123.075 122.027 124.042 104.98 124.409 94.5963C124.508 92.0661 124.856 89.3259 124.558 86.7957ZM87.219 147.367C87.2091 147.367 87.1892 147.377 87.1792 147.377C87.0601 147.377 86.9508 147.287 86.9309 147.157C84.438 130.605 82.4172 112.038 81.9106 95.3063C81.9106 94.9616 82.4072 94.977 82.4072 95.2863C82.9138 112.008 84.9346 130.546 87.4275 147.087C87.4474 147.217 87.3481 147.347 87.219 147.367Z" fill="#DDDDDB"/>
<path d="M124.558 86.7957C124.558 86.7456 124.558 86.2456 124.469 86.2456L124.399 86.2556C114.815 88.103 148.019 81.7027 80.8182 94.6563C80.2233 94.6563 76.6306 100.148 68.2444 112.338C67.0923 114.018 66.1091 116.188 64.232 117.128C63.0627 117.699 62.2582 117.491 60.9644 117.148C60.7359 117.248 60.5075 117.338 60.2791 117.428C61.1928 117.218 62.0966 118.048 62.2257 118.978C62.3648 119.898 61.9278 120.818 61.3319 121.538C59.6534 123.608 56.9718 124.398 54.3101 124.868C54.5683 126.699 54.8265 128.539 55.0748 130.369C55.492 133.439 55.6707 137.899 58.4219 139.85C59.0446 140.297 57.8606 139.786 86.6879 148.46L86.6978 148.47C86.7375 148.48 86.7773 148.49 86.817 148.5C92.8059 146.44 98.7948 144.37 104.784 142.31C108.002 141.2 111.22 140.09 114.437 138.989C117 138.1 120.585 137.649 121.876 135.019C122.76 133.199 122.611 130.699 122.721 128.709C123.075 122.027 124.042 104.98 124.409 94.5963C124.508 92.0661 124.856 89.3259 124.558 86.7957ZM87.219 147.367C87.2091 147.367 87.1892 147.377 87.1792 147.377C87.0601 147.377 86.9508 147.287 86.9309 147.157C84.438 130.605 82.4172 112.038 81.9106 95.3063C81.9106 94.9616 82.4072 94.977 82.4072 95.2863C82.9138 112.008 84.9346 130.546 87.4275 147.087C87.4474 147.217 87.3481 147.347 87.219 147.367Z" fill="#0D0D0D" fill-opacity="0.64"/>
<path d="M103.165 83.5049C98.05 82.845 92.6646 81.26 87.5 81.5L50 88.5L81 95L124.469 86.2451L124.156 86.2058C123.226 86.0888 122.289 85.971 121.36 85.8452C115.302 85.0651 109.233 84.285 103.165 83.5049Z" fill="#DDDDDB"/>
<path d="M103.165 83.5049C98.05 82.845 92.6646 81.26 87.5 81.5L50 88.5L81 95L124.469 86.2451L124.156 86.2058C123.226 86.0888 122.289 85.971 121.36 85.8452C115.302 85.0651 109.233 84.285 103.165 83.5049Z" fill="#0D0D0D" fill-opacity="0.82"/>
<path d="M41.2325 129.324C36.5384 125.092 36.0878 116.381 37.1812 110.183C37.2372 109.861 37.7285 109.942 37.67 110.271C36.8738 114.783 37.0566 119.607 38.1594 123.173C39.9865 129.065 43.8062 131.214 46.9681 130.929C49.7004 130.709 51.6693 128.438 51.6876 126.236L51.6871 126.158C51.6801 125.239 52.0579 124.965 52.9238 124.84C55.9193 124.374 59.1909 123.782 61.1394 121.379C61.5186 120.921 62.1296 120.007 61.9803 119.015C61.8703 118.221 61.0978 117.496 60.3343 117.671C60.0347 117.738 59.9055 117.306 60.1884 117.194C60.4347 117.097 60.65 117.012 60.8654 116.918C61.0801 116.822 61.2942 117.057 61.1825 117.267C61.8428 117.532 62.3685 118.199 62.4715 118.943C62.6034 119.818 62.2669 120.798 61.5225 121.698C59.7291 123.909 56.8917 124.666 54.3524 125.114C52.2961 125.475 52.1763 125.284 52.1842 126.238C52.1639 128.669 50.0133 131.184 47.0098 131.427C46.8289 131.444 42.81 130.747 41.2325 129.324Z" fill="#DDDDDB"/>
<path d="M48.2446 119.763C47.2752 119.763 46.348 119.695 45.5076 119.536C45.3732 119.511 45.2845 119.38 45.3097 119.244C45.3344 119.108 45.4649 119.019 45.5997 119.045C50.8935 120.047 60.1178 117.216 60.2099 117.187C60.5217 117.087 60.6716 117.567 60.3563 117.665C60.0329 117.766 53.5214 119.763 48.2446 119.763Z" fill="#DDDDDB"/>
<path d="M52.0516 125.754H46.2191C45.8903 125.754 45.8907 125.254 46.2191 125.254H52.0516C52.1889 125.254 52.2999 125.366 52.2999 125.504C52.2999 125.642 52.1889 125.754 52.0516 125.754Z" fill="#DDDDDB"/>
<path d="M62.0532 117.662C60.1275 117.253 57.737 116.483 55.9481 115.909C51.9608 114.63 34.7668 109.691 33.2135 109.34C31.3288 108.914 28.3342 108.228 28.3208 106.267C28.3077 104.249 31.5269 102.139 32.9633 101.019C50.3447 87.3401 49.2748 88.178 49.4216 88.2104C82.5842 94.8541 81.107 94.239 81.0653 94.6806C81.0547 94.791 80.9732 94.8794 80.8689 94.9009C80.5804 95.0713 79.3379 96.6329 79.0838 96.9914C79.0147 97.0919 68.4127 112.51 67.7733 113.527C66.8364 115.017 65.8792 116.578 64.3432 117.351C63.6265 117.701 62.834 117.835 62.0532 117.662ZM49.4376 88.7227C43.9066 93.0579 38.7893 97.0682 33.2683 101.413C32.0109 102.397 28.8064 104.511 28.8174 106.264C28.8273 107.875 31.7948 108.507 33.3226 108.852C35.1871 109.274 34.8251 109.227 52.73 114.387C55.6754 115.239 59.316 116.571 62.158 117.173C64.9316 117.784 66.5888 114.334 68.0395 112.196C78.4717 97.0325 79.0114 96.0224 80.2516 94.7993L49.4376 88.7227Z" fill="#DDDDDB"/>
<path d="M87.7506 34.7212C86.7872 33.2011 84.334 32.5812 83.2316 33.9912C84.4632 31.211 83.1919 27.5708 80.5103 26.1705C78.9808 25.3806 77.1235 25.3806 75.5444 26.0106C73.6772 26.7507 73.1806 28.5208 71.5418 26.7206C69.1979 24.1505 66.6653 22.1702 62.9508 22.6005C59.0973 23.0504 55.7204 26.2706 55.0848 30.1309C53.4262 27.6107 49.8507 26.8607 47.0499 27.9407C44.2491 29.0108 42.2131 31.5511 41.0412 34.3313C40.0182 36.7814 39.2633 39.4716 38.7866 42.2218C40.345 41.8347 42.0037 41.8637 43.5738 42.4718C43.3056 44.132 43.5539 46.0021 44.8848 47.0722C46.5334 48.3823 49.3938 48.4522 51.122 47.3722C53.1679 46.1022 54.1214 43.312 53.2871 41.0518C54.8862 42.4018 57.4287 41.9517 59.0277 40.6117C60.6267 39.2616 61.4908 37.2414 62.2357 35.2913C64.0468 38.4331 68.54 39.3302 71.4127 36.4114C71.8398 36.5214 72.2669 36.6414 72.694 36.7714C73.7857 38.97 76.2631 39.9425 78.4743 39.2516C80.9374 40.9817 82.9039 43.592 83.9765 46.6321C84.9002 49.2724 84.8902 51.9425 84.8803 54.7227C84.8704 56.5029 84.7015 58.3131 84.3539 60.0832C84.9101 58.473 85.3173 56.833 85.5458 55.1727C86.5453 47.8397 90.0866 38.3828 87.7506 34.7212ZM64.4096 26.5356C62.4504 28.6241 61.5722 31.6761 62.1177 34.4995C62.1805 34.8249 61.6932 34.9193 61.6299 34.5952C61.0547 31.616 61.9815 28.396 64.0488 26.1918C64.1414 26.0922 64.2995 26.0868 64.3999 26.182C64.4993 26.2768 64.5037 26.435 64.4096 26.5356ZM80.1677 31.0276C77.5349 32.3475 75.3017 34.499 73.8798 37.0852C73.7198 37.3748 73.2863 37.1316 73.4453 36.843C74.9152 34.1689 77.224 31.9447 79.9466 30.5803C80.2379 30.4313 80.463 30.8795 80.1677 31.0276Z" fill="#DDDDDB"/>
<path d="M87.7506 34.7212C86.7872 33.2011 84.334 32.5812 83.2316 33.9912C84.4632 31.211 83.1919 27.5708 80.5103 26.1705C78.9808 25.3806 77.1235 25.3806 75.5444 26.0106C73.6772 26.7507 73.1806 28.5208 71.5418 26.7206C69.1979 24.1505 66.6653 22.1702 62.9508 22.6005C59.0973 23.0504 55.7204 26.2706 55.0848 30.1309C53.4262 27.6107 49.8507 26.8607 47.0499 27.9407C44.2491 29.0108 42.2131 31.5511 41.0412 34.3313C40.0182 36.7814 39.2633 39.4716 38.7866 42.2218C40.345 41.8347 42.0037 41.8637 43.5738 42.4718C43.3056 44.132 43.5539 46.0021 44.8848 47.0722C46.5334 48.3823 49.3938 48.4522 51.122 47.3722C53.1679 46.1022 54.1214 43.312 53.2871 41.0518C54.8862 42.4018 57.4287 41.9517 59.0277 40.6117C60.6267 39.2616 61.4908 37.2414 62.2357 35.2913C64.0468 38.4331 68.54 39.3302 71.4127 36.4114C71.8398 36.5214 72.2669 36.6414 72.694 36.7714C73.7857 38.97 76.2631 39.9425 78.4743 39.2516C80.9374 40.9817 82.9039 43.592 83.9765 46.6321C84.9002 49.2724 84.8902 51.9425 84.8803 54.7227C84.8704 56.5029 84.7015 58.3131 84.3539 60.0832C84.9101 58.473 85.3173 56.833 85.5458 55.1727C86.5453 47.8397 90.0866 38.3828 87.7506 34.7212ZM64.4096 26.5356C62.4504 28.6241 61.5722 31.6761 62.1177 34.4995C62.1805 34.8249 61.6932 34.9193 61.6299 34.5952C61.0547 31.616 61.9815 28.396 64.0488 26.1918C64.1414 26.0922 64.2995 26.0868 64.3999 26.182C64.4993 26.2768 64.5037 26.435 64.4096 26.5356ZM80.1677 31.0276C77.5349 32.3475 75.3017 34.499 73.8798 37.0852C73.7198 37.3748 73.2863 37.1316 73.4453 36.843C74.9152 34.1689 77.224 31.9447 79.9466 30.5803C80.2379 30.4313 80.463 30.8795 80.1677 31.0276Z" fill="#0D0D0D" fill-opacity="0.82"/>
<path d="M87.0774 81.918C87.7529 79.8241 89.281 77.1345 91.5428 75.8663C93.3556 74.8531 95.4453 74.2148 97.5999 74.0146C97.8392 68.8464 104.659 67.1413 109.693 67.2778C110.506 63.9128 113.072 60.6587 116.595 58.5389C116.876 58.3698 117.132 58.7969 116.85 58.9686C113.473 60.9995 111.008 64.0945 110.2 67.2959C111.071 67.3364 111.951 67.4341 112.822 67.5879C113.872 67.77 115.195 68.1001 116.105 69.0396C116.971 69.9435 117.295 71.5706 116.398 72.5536C115.315 73.7246 111.467 74.2839 110.045 72.2801C109.218 71.1183 109.304 69.1659 109.583 67.7754C105.998 67.6838 100.47 68.7047 98.7032 71.8475C98.3467 72.475 98.1445 73.1894 98.0989 73.9746C100.994 73.7841 103.828 74.3599 106.318 75.6524C108.248 76.6589 109.821 78.6707 108.938 80.4184C108.162 81.9273 106.09 82.067 104.552 81.7295C100.859 80.9145 97.7032 78.295 97.5951 74.5171C95.5267 74.7163 93.5229 75.3316 91.7839 76.3034C89.6481 77.5007 88.1962 80.0688 87.5497 82.0723C87.4493 82.3859 86.9759 82.2339 87.0774 81.918ZM98.0912 74.4761C98.2476 80.5304 107.018 83.0671 108.496 80.1899C109.323 78.554 107.459 76.8107 106.09 76.0968C103.669 74.8399 100.903 74.2851 98.0912 74.4761ZM110.086 67.7915C109.827 69.0293 109.7 70.9362 110.448 71.9891C111.31 73.2011 113.135 73.2704 114.559 72.9315C115.044 72.8153 115.649 72.6293 116.034 72.2142C116.729 71.4514 116.442 70.112 115.748 69.3878C114.939 68.5523 113.713 68.25 112.737 68.0806C111.856 67.9248 110.966 67.8281 110.086 67.7915Z" fill="#DDDDDB"/>
<path d="M141.208 46.9493C144.131 36.4408 138.124 25.5597 127.791 22.6456C117.458 19.7316 106.712 25.888 103.789 36.3965C100.866 46.905 106.873 57.7862 117.206 60.7002C127.539 63.6143 138.285 57.4578 141.208 46.9493Z" fill="#DDDDDB"/>
<path d="M138.123 46.0802C141.046 35.5717 135.039 24.6906 124.706 21.7765C114.373 18.8624 103.627 25.0189 100.704 35.5274C97.7811 46.0359 103.788 56.917 114.121 59.8311C124.454 62.7452 135.201 56.5887 138.123 46.0802Z" fill="#AEEA00"/>
<path d="M138.123 46.0802C141.046 35.5717 135.039 24.6906 124.706 21.7765C114.373 18.8624 103.627 25.0189 100.704 35.5274C97.7811 46.0359 103.788 56.917 114.121 59.8311C124.454 62.7452 135.201 56.5887 138.123 46.0802Z" fill="#0D0D0D" fill-opacity="0.32"/>
<path d="M134.999 45.1988C137.154 37.4496 132.725 29.4257 125.105 27.2768C117.485 25.1279 109.561 29.6679 107.405 37.4171C105.25 45.1663 109.68 53.1902 117.299 55.3391C124.919 57.488 132.844 52.948 134.999 45.1988Z" fill="#DDDDDB"/>
<path d="M133.21 44.6944C135.365 36.9452 130.935 28.9213 123.316 26.7724C115.696 24.6235 107.772 29.1635 105.616 36.9127C103.461 44.6619 107.891 52.6859 115.51 54.8347C123.13 56.9836 131.054 52.4436 133.21 44.6944Z" fill="#AEEA00"/>
<path d="M133.21 44.6944C135.365 36.9452 130.935 28.9213 123.316 26.7724C115.696 24.6235 107.772 29.1635 105.616 36.9127C103.461 44.6619 107.891 52.6859 115.51 54.8347C123.13 56.9836 131.054 52.4436 133.21 44.6944Z" fill="#0D0D0D" fill-opacity="0.32"/>
<path d="M115.444 55.0748C107.682 52.8863 103.186 44.7287 105.378 36.8449C107.57 28.964 115.615 24.3429 123.383 26.5316C131.145 28.7201 135.642 36.8775 133.45 44.7615C131.266 52.6105 123.205 57.2621 115.444 55.0748ZM112.54 28.3477C109.254 30.2302 106.881 33.2958 105.856 36.9797C103.736 44.6034 108.086 52.4805 115.578 54.5933C123.056 56.7009 130.857 52.2303 132.971 44.6267C136.393 32.3255 123.425 22.1133 112.54 28.3477Z" fill="#DDDDDB"/>
<path d="M116.415 50.8665C116.198 50.5079 116.409 50.4127 116.994 48.115L117.227 48.5319C114.24 47.6896 112.572 45.7356 112.541 45.1507C112.516 44.5803 113.148 44.1165 113.634 44.7331C114.86 46.2847 116.164 46.9216 117.651 47.3408C118.95 47.7073 120.485 47.8387 121.491 46.9488C122.269 46.2604 122.584 45.1041 122.359 44.291C121.698 41.9338 117.016 41.5331 115.561 38.8505C114.164 36.2847 116.41 31.7726 121.401 33.0186L121.13 33.2466C121.794 31.0498 121.671 30.8284 122.042 30.6363C122.333 30.4825 122.69 30.583 122.86 30.8671C123.078 31.2261 122.852 31.3753 122.293 33.5747L122.151 33.2536C123.498 33.6631 125.023 34.7224 125.812 36.1351C126.076 36.6111 125.73 37.2361 125.156 37.074C124.586 36.9135 124.31 35.1497 121.322 34.307C119.202 33.7092 117.21 34.2984 116.631 36.3784C115.585 40.1389 121.468 40.1509 123.381 43.163C124.878 45.521 122.923 49.8012 117.744 48.6778L118.164 48.4216C117.494 50.6502 117.6 50.8992 117.244 51.1004C117.106 51.1782 116.595 51.1668 116.415 50.8665Z" fill="black" fill-opacity="0.87"/>
<path d="M112.105 86.3589C112.096 86.3589 112.086 86.3584 112.076 86.3575C111.94 86.3413 111.843 86.2173 111.858 86.0801C112.365 81.6947 115.749 78.0146 120.36 77.3856C120.621 76.8025 120.993 76.3025 121.302 75.9246C123.61 73.0987 127.012 71.3031 130.633 70.9984C130.957 70.9679 131.004 71.4694 130.675 71.4965C127.237 71.7856 123.877 73.5596 121.685 76.242C121.448 76.5335 121.168 76.9031 120.944 77.3241C121.97 77.246 123.563 77.22 124.075 78.1191C124.735 79.2836 123.31 81.2967 121.742 81.0499C120.622 80.8725 119.71 79.5166 120.164 77.9208C115.911 78.622 112.823 82.0599 112.352 86.1377C112.337 86.2652 112.23 86.3589 112.105 86.3589ZM120.71 77.8471C120.205 79.2507 120.948 80.418 121.819 80.5558C123.012 80.7448 124.082 79.1389 123.643 78.3671C123.465 78.0541 123.056 77.8768 122.39 77.8241C121.83 77.7806 121.267 77.7885 120.71 77.8471Z" fill="#DDDDDB"/>
<path d="M90.053 72.1742C92.101 71.3476 93.6957 69.6086 93.1053 67.5518C91.5925 68.3813 90.1739 67.0243 90.8314 66.0307C91.2694 65.3691 92.586 65.4246 93.3202 66.7763C94.3046 65.842 94.9105 64.0144 94.4574 62.2931C94.1072 60.9644 93.165 59.8139 91.9371 59.2152C91.64 59.071 91.8596 58.6206 92.1534 58.765C93.5098 59.4262 94.5505 60.6973 94.9375 62.1652C95.4692 64.1856 94.6758 66.2876 93.5302 67.2573C94.15 69.0808 93.2741 71.4133 90.2373 72.6381C89.9335 72.7615 89.7475 72.297 90.053 72.1742ZM91.5612 66.1235C91.0399 66.1926 91.0845 66.8408 91.5118 67.1279C91.8524 67.3568 92.4036 67.3878 92.9215 67.082C92.7935 66.8305 92.6257 66.6069 92.4196 66.4247C92.1966 66.2269 91.8455 66.0865 91.5612 66.1235Z" fill="#DDDDDB"/>
<path d="M96.75 23.5894C96.4958 23.3801 96.8087 22.9939 97.0643 23.2016C98.3523 24.2603 99.6098 25.3912 100.802 26.5627C100.9 26.6589 100.902 26.8171 100.806 26.9163C100.465 27.2667 100.429 26.6129 96.75 23.5894Z" fill="#DDDDDB"/>
<path d="M104.012 25.1436C103.469 23.6391 102.976 22.0969 102.545 20.5612C102.455 20.2434 102.933 20.107 103.023 20.4254C104.29 24.9464 104.77 25.1332 104.33 25.293C104.2 25.3404 104.058 25.2723 104.012 25.1436Z" fill="#DDDDDB"/>
<path d="M95.2064 28.2211C94.8875 28.1622 94.9665 27.6741 95.2956 27.7289C96.6554 27.9789 97.9769 28.4111 99.2227 29.0137C99.3464 29.0737 99.3983 29.2231 99.3391 29.3477C99.0903 29.8628 98.4845 28.8229 95.2064 28.2211Z" fill="#DDDDDB"/>
<path d="M66.2235 63.256C64.9849 62.712 64.0475 61.4922 63.836 60.1484C63.7846 59.8201 64.2762 59.7461 64.3268 60.0702C64.7313 62.6454 67.6841 63.9422 69.8325 62.4879C70.1038 62.303 70.3825 62.7177 70.1089 62.903C69.4431 63.3537 67.4575 63.7988 66.2235 63.256Z" fill="#DDDDDB"/>
</svg>
