<svg width="25" height="24" viewBox="0 0 25 24" fill="none" xmlns="http://www.w3.org/2000/svg">
<path fill-rule="evenodd" clip-rule="evenodd" d="M11.4868 5C9.62579 5 8.11842 6.56625 8.11842 8.5C8.11842 10.4338 9.62579 12 11.4868 12C13.3479 12 14.8553 10.4338 14.8553 8.5C14.8553 6.56625 13.3479 5 11.4868 5ZM13.171 8.49999C13.171 7.53749 12.4131 6.74999 11.4868 6.74999C10.5605 6.74999 9.80261 7.53749 9.80261 8.49999C9.80261 9.46249 10.5605 10.25 11.4868 10.25C12.4131 10.25 13.171 9.46249 13.171 8.49999ZM16.5395 16.375C16.371 15.7538 13.7605 14.625 11.4868 14.625C9.21315 14.625 6.60263 15.7538 6.4342 16.3838V17.25H16.5395V16.375ZM4.75 16.375C4.75 14.0475 9.23842 12.875 11.4868 12.875C13.7353 12.875 18.2237 14.0475 18.2237 16.375V19H4.75V16.375Z" fill="black" fill-opacity="0.4"/>
<path d="M17.3817 8.81817C17.3817 10.6933 16.2954 12.4375 14.4343 12.4375C14.1435 12.4375 13.5922 12.4375 13.1711 12.4375C14.6244 12.061 15.6975 10.4003 15.6975 8.81817C15.6975 7.23602 14.6244 5.37656 13.1711 5.00002C13.5922 5 13.7224 5 14.0132 5C15.8743 5 17.3817 6.94301 17.3817 8.81817Z" fill="black" fill-opacity="0.4"/>
<path d="M19.0659 16.4545V17.303V19H20.7501V16.4545C20.7501 14.1976 17.3817 12 14.4343 12.4375C14.1792 12.4375 13.4741 12.4082 13.1711 12.4375C16.5396 12.4375 19.0659 14.4537 19.0659 16.4545Z" fill="black" fill-opacity="0.4"/>
</svg>
