<svg width="40" height="40" viewBox="0 0 40 40" fill="none" xmlns="http://www.w3.org/2000/svg">
<path fill-rule="evenodd" clip-rule="evenodd" d="M16 16C16 13.79 17.79 12 20 12C22.21 12 24 13.79 24 16C24 18.21 22.21 20 20 20C17.79 20 16 18.21 16 16ZM12 25C12 22.34 17.33 21 20 21C22.67 21 28 22.34 28 25V28H12V25Z" fill="#242422"/>
<path fill-rule="evenodd" clip-rule="evenodd" d="M16 16C16 13.79 17.79 12 20 12C22.21 12 24 13.79 24 16C24 18.21 22.21 20 20 20C17.79 20 16 18.21 16 16ZM12 25C12 22.34 17.33 21 20 21C22.67 21 28 22.34 28 25V28H12V25Z" fill="white" fill-opacity="0.32"/>
</svg>
