<svg width="25" height="24" viewBox="0 0 25 24" fill="none" xmlns="http://www.w3.org/2000/svg">
<path fill-rule="evenodd" clip-rule="evenodd" d="M4.25 7C4.25 5.34315 5.59315 4 7.25 4H17.25C18.9069 4 20.25 5.34315 20.25 7V17C20.25 18.6569 18.9069 20 17.25 20H7.25C5.59315 20 4.25 18.6569 4.25 17V7ZM7.25 6C6.69772 6 6.25 6.44772 6.25 7V13.4245V16V17C6.25 17.5523 6.69772 18 7.25 18H17.25C17.8023 18 18.25 17.5523 18.25 17V10.5695V7.99997V7C18.25 6.44772 17.8023 6 17.25 6H7.25Z" fill="white"/>
<path d="M7.25 6C6.69772 6 6.25 6.44772 6.25 7V13.4245L8.53608 10.6411C9.31843 9.69178 10.7255 9.53988 11.7062 10.2505L11.7132 10.2556L14.0596 11.9871C14.1261 12.0343 14.2152 12.0581 14.3104 12.0472C14.4058 12.0362 14.4755 11.9944 14.5157 11.9479L17.4792 8.36287C17.6769 8.12381 17.9623 8.00013 18.25 7.99997V7C18.25 6.44772 17.8023 6 17.25 6H7.25Z" fill="white"/>
<path d="M6.25 17C6.25 17.5523 6.69772 18 7.25 18H17.25C17.8023 18 18.25 17.5523 18.25 17V10.5695L16.0467 13.235C15.2638 14.1635 13.8626 14.3142 12.8838 13.6049L12.8768 13.5999L10.5303 11.8683C10.4638 11.8211 10.3761 11.7982 10.2841 11.8092C10.1914 11.8203 10.1218 11.862 10.0798 11.9127L7.02276 15.6347C6.82517 15.8753 6.53876 15.9999 6.25 16V17Z" fill="white"/>
</svg>
