<svg width="18" height="18" viewBox="0 0 18 18" fill="none" xmlns="http://www.w3.org/2000/svg">
<path d="M14.0578 4.87029C14.3141 4.61401 14.3141 4.19849 14.0578 3.94221C13.8015 3.68593 13.386 3.68593 13.1297 3.94221L9 8.07192L4.87029 3.94221C4.61401 3.68593 4.19849 3.68593 3.94221 3.94221C3.68593 4.19849 3.68593 4.61401 3.94221 4.87029L8.07192 9L3.94221 13.1297C3.68593 13.386 3.68593 13.8015 3.94221 14.0578C4.19849 14.3141 4.61401 14.3141 4.87029 14.0578L9 9.92808L13.1297 14.0578C13.386 14.3141 13.8015 14.3141 14.0578 14.0578C14.3141 13.8015 14.3141 13.386 14.0578 13.1297L9.92808 9L14.0578 4.87029Z" fill="white" fill-opacity="0.87"/>
</svg>
