<svg width="24" height="24" viewBox="0 0 24 24" fill="none" xmlns="http://www.w3.org/2000/svg">
<path fill-rule="evenodd" clip-rule="evenodd" d="M12 4C9.79 4 8 5.79 8 8C8 10.21 9.79 12 12 12C14.21 12 16 10.21 16 8C16 5.79 14.21 4 12 4ZM12 6C13.1 6 14 6.9 14 8C14 9.1 13.1 10 12 10C10.9 10 10 9.1 10 8C10 6.9 10.9 6 12 6ZM6 18V17.01C6.2 16.29 9.3 15 12 15C12.4615 15 12.9347 15.0377 13.4032 15.1037C13.714 15.1476 14 14.9121 14 14.5981V13.6074C14 13.3629 13.8233 13.1533 13.5811 13.1199C13.0021 13.04 12.4613 13 12 13C9.33 13 4 14.34 4 17V19.4C4 19.7314 4.26863 20 4.6 20H13.5C13.7761 20 14 19.7761 14 19.5V18.5C14 18.2239 13.7761 18 13.5 18H6Z" fill="black" fill-opacity="0.87"/>
<path fill-rule="evenodd" clip-rule="evenodd" d="M17.5 14C17.9602 14 18.3333 14.3731 18.3333 14.8333V15.6667H19.1667C19.6269 15.6667 20 16.0398 20 16.5C20 16.9602 19.6269 17.3333 19.1667 17.3333H18.3333V18.1667C18.3333 18.6269 17.9602 19 17.5 19C17.0398 19 16.6667 18.6269 16.6667 18.1667V17.3333H15.8333C15.3731 17.3333 15 16.9602 15 16.5C15 16.0398 15.3731 15.6667 15.8333 15.6667H16.6667V14.8333C16.6667 14.3731 17.0398 14 17.5 14Z" fill="black" fill-opacity="0.87"/>
</svg>
