<svg width="77" height="60" viewBox="0 0 77 60" fill="none" xmlns="http://www.w3.org/2000/svg">
<g filter="url(#filter0_d_997_6525)">
<rect x="10.5" y="10" width="56" height="40" rx="20" fill="#B39DDB" shape-rendering="crispEdges"/>
<path d="M38.5 22C39.0523 22 39.5 22.4477 39.5 23V29H45.5C46.0523 29 46.5 29.4477 46.5 30C46.5 30.5523 46.0523 31 45.5 31H39.5V37C39.5 37.5523 39.0523 38 38.5 38C37.9477 38 37.5 37.5523 37.5 37V31H31.5C30.9477 31 30.5 30.5523 30.5 30C30.5 29.4477 30.9477 29 31.5 29H37.5V23C37.5 22.4477 37.9477 22 38.5 22Z" fill="black" fill-opacity="0.87"/>
</g>
<defs>
<filter id="filter0_d_997_6525" x="0.5" y="0" width="76" height="60" filterUnits="userSpaceOnUse" color-interpolation-filters="sRGB">
<feFlood flood-opacity="0" result="BackgroundImageFix"/>
<feColorMatrix in="SourceAlpha" type="matrix" values="0 0 0 0 0 0 0 0 0 0 0 0 0 0 0 0 0 0 127 0" result="hardAlpha"/>
<feOffset/>
<feGaussianBlur stdDeviation="5"/>
<feComposite in2="hardAlpha" operator="out"/>
<feColorMatrix type="matrix" values="0 0 0 0 0.705882 0 0 0 0 0.866667 0 0 0 0 0.0784314 0 0 0 0.2 0"/>
<feBlend mode="normal" in2="BackgroundImageFix" result="effect1_dropShadow_997_6525"/>
<feBlend mode="normal" in="SourceGraphic" in2="effect1_dropShadow_997_6525" result="shape"/>
</filter>
</defs>
</svg>
