<svg width="27" height="12" viewBox="0 0 27 12" fill="none" xmlns="http://www.w3.org/2000/svg">
<path d="M6.97806 9.859V11H1.48306V9.859H3.58306V3.545C3.58306 3.321 3.59006 3.09233 3.60406 2.859L1.98706 4.224C1.91706 4.28 1.84473 4.31733 1.77006 4.336C1.70006 4.35 1.6324 4.35 1.56706 4.336C1.5064 4.322 1.4504 4.301 1.39906 4.273C1.3524 4.24033 1.31506 4.20533 1.28706 4.168L0.818062 3.51L3.85606 0.898999H5.08106V9.859H6.97806ZM8.59616 10.132C8.59616 9.99667 8.61949 9.87067 8.66616 9.754C8.71749 9.63267 8.78516 9.52767 8.86916 9.439C8.95782 9.35033 9.06049 9.28033 9.17716 9.229C9.29849 9.17767 9.42682 9.152 9.56216 9.152C9.69749 9.152 9.82349 9.17767 9.94016 9.229C10.0615 9.28033 10.1665 9.35033 10.2552 9.439C10.3438 9.52767 10.4138 9.63267 10.4652 9.754C10.5165 9.87067 10.5422 9.99667 10.5422 10.132C10.5422 10.272 10.5165 10.4003 10.4652 10.517C10.4138 10.6337 10.3438 10.7363 10.2552 10.825C10.1665 10.9137 10.0615 10.9813 9.94016 11.028C9.82349 11.0793 9.69749 11.105 9.56216 11.105C9.42682 11.105 9.29849 11.0793 9.17716 11.028C9.06049 10.9813 8.95782 10.9137 8.86916 10.825C8.78516 10.7363 8.71749 10.6337 8.66616 10.517C8.61949 10.4003 8.59616 10.272 8.59616 10.132ZM18.1068 9.579C18.2701 9.579 18.3984 9.628 18.4918 9.726C18.5851 9.81933 18.6318 9.94067 18.6318 10.09V11H11.8138V10.489C11.8138 10.3863 11.8348 10.279 11.8768 10.167C11.9188 10.055 11.9864 9.95233 12.0798 9.859L15.2158 6.716C15.4818 6.45 15.7174 6.19567 15.9228 5.953C16.1328 5.71033 16.3101 5.46767 16.4548 5.225C16.6041 4.98233 16.7161 4.73733 16.7908 4.49C16.8701 4.238 16.9098 3.97433 16.9098 3.699C16.9098 3.433 16.8678 3.19967 16.7838 2.999C16.7044 2.79367 16.5924 2.62567 16.4478 2.495C16.3078 2.35967 16.1374 2.25933 15.9368 2.194C15.7408 2.124 15.5238 2.089 15.2858 2.089C15.0571 2.089 14.8448 2.12167 14.6488 2.187C14.4574 2.25233 14.2848 2.34333 14.1308 2.46C13.9814 2.57667 13.8554 2.71667 13.7528 2.88C13.6548 3.03867 13.5824 3.21367 13.5358 3.405C13.4658 3.59633 13.3748 3.72467 13.2628 3.79C13.1554 3.85533 12.9968 3.86933 12.7868 3.832L11.9958 3.692C12.0658 3.216 12.1964 2.79833 12.3878 2.439C12.5838 2.07967 12.8288 1.781 13.1228 1.543C13.4168 1.30033 13.7528 1.11833 14.1308 0.997C14.5134 0.871 14.9264 0.807999 15.3698 0.807999C15.8178 0.807999 16.2284 0.875666 16.6018 1.011C16.9798 1.14167 17.3041 1.33067 17.5748 1.578C17.8501 1.82067 18.0648 2.117 18.2188 2.467C18.3727 2.817 18.4497 3.21133 18.4497 3.65C18.4497 4.02333 18.3938 4.36867 18.2818 4.686C18.1744 5.00333 18.0274 5.30667 17.8408 5.596C17.6541 5.88533 17.4348 6.16767 17.1828 6.443C16.9354 6.71367 16.6741 6.989 16.3988 7.269L13.9628 9.761C14.1634 9.705 14.3641 9.66067 14.5648 9.628C14.7701 9.59533 14.9638 9.579 15.1458 9.579H18.1068ZM20.1658 3.692C20.2358 3.216 20.3665 2.79833 20.5578 2.439C20.7538 2.07967 20.9988 1.781 21.2928 1.543C21.5868 1.30033 21.9228 1.11833 22.3008 0.997C22.6835 0.871 23.0965 0.807999 23.5398 0.807999C23.9878 0.807999 24.3938 0.873333 24.7578 1.004C25.1265 1.13 25.4415 1.30733 25.7028 1.536C25.9688 1.76467 26.1718 2.03767 26.3118 2.355C26.4565 2.67233 26.5288 3.02 26.5288 3.398C26.5288 3.72 26.4892 4.00467 26.4098 4.252C26.3352 4.49467 26.2255 4.70933 26.0808 4.896C25.9408 5.08267 25.7682 5.239 25.5628 5.365C25.3575 5.491 25.1265 5.596 24.8698 5.68C25.4952 5.862 25.9642 6.15367 26.2768 6.555C26.5895 6.95167 26.7458 7.451 26.7458 8.053C26.7458 8.53833 26.6548 8.97 26.4728 9.348C26.2908 9.726 26.0435 10.0457 25.7308 10.307C25.4228 10.5683 25.0612 10.769 24.6458 10.909C24.2352 11.0443 23.7988 11.112 23.3368 11.112C22.8188 11.112 22.3708 11.0513 21.9928 10.93C21.6148 10.804 21.2882 10.6267 21.0128 10.398C20.7422 10.1647 20.5158 9.88467 20.3338 9.558C20.1518 9.23133 19.9978 8.865 19.8718 8.459L20.5228 8.186C20.6955 8.11133 20.8588 8.09033 21.0128 8.123C21.1715 8.15567 21.2858 8.242 21.3558 8.382C21.4305 8.53133 21.5145 8.69233 21.6078 8.865C21.7012 9.033 21.8202 9.18933 21.9648 9.334C22.1142 9.474 22.2962 9.593 22.5108 9.691C22.7302 9.78433 22.9985 9.831 23.3158 9.831C23.6378 9.831 23.9178 9.77967 24.1558 9.677C24.3985 9.56967 24.5992 9.43433 24.7578 9.271C24.9212 9.103 25.0425 8.91633 25.1218 8.711C25.2012 8.50567 25.2408 8.30267 25.2408 8.102C25.2408 7.85 25.2105 7.619 25.1498 7.409C25.0892 7.19433 24.9702 7.01233 24.7928 6.863C24.6202 6.71367 24.3728 6.597 24.0508 6.513C23.7335 6.42433 23.3158 6.38 22.7978 6.38V5.295C23.2225 5.29033 23.5795 5.24833 23.8688 5.169C24.1628 5.085 24.3962 4.973 24.5688 4.833C24.7462 4.68833 24.8722 4.51567 24.9468 4.315C25.0262 4.11433 25.0658 3.895 25.0658 3.657C25.0658 3.40033 25.0262 3.174 24.9468 2.978C24.8675 2.782 24.7555 2.61867 24.6108 2.488C24.4708 2.35267 24.3028 2.25233 24.1068 2.187C23.9108 2.12167 23.6938 2.089 23.4558 2.089C23.2272 2.089 23.0148 2.12167 22.8188 2.187C22.6275 2.25233 22.4548 2.34333 22.3008 2.46C22.1515 2.57667 22.0255 2.71667 21.9228 2.88C21.8202 3.03867 21.7455 3.21367 21.6988 3.405C21.6335 3.59633 21.5448 3.72467 21.4328 3.79C21.3255 3.85533 21.1668 3.86933 20.9568 3.832L20.1658 3.692Z" fill="white" fill-opacity="0.6"/>
</svg>
