<svg width="25" height="24" viewBox="0 0 25 24" fill="none" xmlns="http://www.w3.org/2000/svg">
<path fill-rule="evenodd" clip-rule="evenodd" d="M8.11842 8.5C8.11842 6.56625 9.62579 5 11.4868 5C13.3479 5 14.8553 6.56625 14.8553 8.5C14.8553 10.4338 13.3479 12 11.4868 12C9.62579 12 8.11842 10.4338 8.11842 8.5ZM4.75 16.375C4.75 14.0475 9.23842 12.875 11.4868 12.875C13.7353 12.875 18.2237 14.0475 18.2237 16.375V19H4.75V16.375Z" fill="white"/>
<path d="M18.7501 8.81817C18.7501 10.6933 16.2954 12.4375 14.4343 12.4375C14.1435 12.4375 13.5922 12.4375 13.1711 12.4375C14.6244 12.061 15.6975 10.4003 15.6975 8.81817C15.6975 7.23602 14.6244 5.37656 13.1711 5.00002C13.5922 5 14.9593 5 15.2501 5C17.1112 5 18.7501 6.94301 18.7501 8.81817Z" fill="white"/>
<path d="M19.0659 16.4545V17.303V19H20.7501V16.4545C20.7501 14.1976 17.3817 12 14.4343 12.4375C14.1792 12.4375 13.4741 12.4082 13.1711 12.4375C16.5396 12.4375 19.0659 14.4537 19.0659 16.4545Z" fill="white"/>
</svg>
