<svg width="38" height="38" viewBox="0 0 38 38" fill="none" xmlns="http://www.w3.org/2000/svg">
<path d="M37 19C37 28.9411 28.9411 37 19 37C9.05887 37 1 28.9411 1 19C1 9.05887 9.05887 1 19 1C28.9411 1 37 9.05887 37 19Z" fill="black" fill-opacity="0.87"/>
<path d="M19 37.5C29.2173 37.5 37.5 29.2173 37.5 19C37.5 8.78273 29.2173 0.5 19 0.5C8.78273 0.5 0.5 8.78273 0.5 19C0.5 29.2173 8.78273 37.5 19 37.5Z" stroke="white" stroke-opacity="0.97"/>
<g clip-path="url(#clip0_0_5)">
<path d="M21.3511 12.3592L10.3468 23.3643C10.2914 23.4198 10.2514 23.4899 10.2324 23.5653L9.01269 28.461C8.97621 28.6083 9.01951 28.7651 9.12706 28.8726C9.20844 28.954 9.31933 28.999 9.43275 28.999C9.46749 28.999 9.50302 28.9948 9.5376 28.986L14.4333 27.7662C14.5096 27.7471 14.5789 27.7073 14.6343 27.6519L25.6395 16.6477L21.3511 12.3592Z" fill="white" fill-opacity="0.97"/>
<path d="M28.3658 10.8587L27.1408 9.63375C26.3221 8.81505 24.8952 8.81584 24.0775 9.63375L22.577 11.1342L26.8653 15.4225L28.3658 13.922C28.7747 13.5132 29 12.9691 29 12.3904C29 11.8118 28.7747 11.2677 28.3658 10.8587Z" fill="white" fill-opacity="0.97"/>
</g>
<defs>
<clipPath id="clip0_0_5">
<rect width="20" height="20" fill="white" transform="translate(9 9)"/>
</clipPath>
</defs>
</svg>
