<svg width="38" height="38" viewBox="0 0 38 38" fill="none" xmlns="http://www.w3.org/2000/svg">
<circle cx="19" cy="19" r="18" fill="white"/>
<circle cx="19" cy="19" r="18.5" stroke="black" stroke-opacity="0.08"/>
<g clip-path="url(#clip0_207_13865)">
<path d="M21.3511 12.3594L10.3468 23.3645C10.2914 23.42 10.2515 23.4901 10.2324 23.5654L9.0127 28.4611C8.97622 28.6085 9.01953 28.7652 9.12708 28.8728C9.20846 28.9542 9.31934 28.9992 9.43276 28.9992C9.4675 28.9992 9.50304 28.9949 9.53762 28.9862L14.4333 27.7663C14.5096 27.7473 14.5789 27.7075 14.6343 27.6521L25.6395 16.6478L21.3511 12.3594Z" fill="black" fill-opacity="0.87"/>
<path d="M28.3659 10.8587L27.141 9.63375C26.3223 8.81505 24.8954 8.81584 24.0776 9.63375L22.5771 11.1342L26.8654 15.4225L28.3659 13.922C28.7749 13.5132 29.0001 12.9691 29.0001 12.3904C29.0001 11.8118 28.7749 11.2677 28.3659 10.8587Z" fill="black" fill-opacity="0.87"/>
</g>
<defs>
<clipPath id="clip0_207_13865">
<rect width="20" height="20" fill="white" transform="translate(9 9)"/>
</clipPath>
</defs>
</svg>
