<svg width="165" height="165" viewBox="0 0 165 165" fill="none" xmlns="http://www.w3.org/2000/svg">
<g opacity="0.56">
<path d="M92.8916 91.6627C91.6302 91.6627 89.7136 92.4685 88.6016 93.1726C89.4116 92.6028 90.2316 92.0327 91.0215 91.4326C91.6416 91.5127 92.2715 91.5928 92.8916 91.6627Z" fill="#242422"/>
<path d="M92.8916 91.6627C91.6302 91.6627 89.7136 92.4685 88.6016 93.1726C89.4116 92.6028 90.2316 92.0327 91.0215 91.4326C91.6416 91.5127 92.2715 91.5928 92.8916 91.6627Z" fill="white" fill-opacity="0.82"/>
</g>
<path d="M88.3618 83.9624C88.7117 84.5024 89.0718 85.0425 89.4218 85.5825C87.7418 86.3925 86.2418 87.5225 85.0718 88.9924C85.3718 88.5525 87.4218 85.5925 88.3618 83.9624Z" fill="#242422"/>
<path d="M88.3618 83.9624C88.7117 84.5024 89.0718 85.0425 89.4218 85.5825C87.7418 86.3925 86.2418 87.5225 85.0718 88.9924C85.3718 88.5525 87.4218 85.5925 88.3618 83.9624Z" fill="white" fill-opacity="0.82"/>
<path d="M127.881 71.2025C127.971 71.6825 127.601 72.1626 127.061 72.1626H103.351C103.071 72.1626 102.801 72.0226 102.641 71.7826C86.5392 46.6493 92.0929 55.3178 90.8915 53.4425C90.5514 52.9026 90.9114 52.2025 91.5414 52.1626C91.0414 52.1126 90.5214 52.3026 90.2114 52.7326C87.5473 56.4757 83.7451 61.8111 80.8214 66.0026C80.1314 66.9926 78.5614 68.5226 79.0614 69.7626C79.5214 70.9026 80.5014 72.0226 81.1714 73.0626C81.1914 73.0927 81.2015 73.1126 81.2314 73.1426C82.2914 74.7726 83.3614 76.4026 84.4314 78.0226C84.6415 78.3427 84.8614 78.6725 85.0714 78.9926C88.1986 78.2096 90.1317 80.9293 88.3614 83.9625C88.7114 84.5026 89.0714 85.0426 89.4214 85.5827C89.8576 85.3643 90.2901 85.1725 90.6314 85.0426C91.8758 84.5693 93.3585 84.31 94.3014 85.2526C97.3114 81.0827 100.131 76.7326 102.681 72.2826C102.849 71.9953 103.285 72.2529 103.121 72.5326C100.531 77.0326 97.6814 81.4325 94.6314 85.6526C94.9026 86.0589 95.001 86.8202 94.6814 87.5927C94.3404 88.4167 93.6937 89.0118 93.2314 89.5126C94.79 89.8622 115.078 90.0552 115.761 90.0626C116.271 90.0626 116.731 89.8226 116.981 89.4225C117.615 88.4402 113.933 94.1483 127.901 72.4926C128.181 72.0626 128.141 71.5726 127.881 71.2025Z" fill="#242422"/>
<path d="M127.881 71.2025C127.971 71.6825 127.601 72.1626 127.061 72.1626H103.351C103.071 72.1626 102.801 72.0226 102.641 71.7826C86.5392 46.6493 92.0929 55.3178 90.8915 53.4425C90.5514 52.9026 90.9114 52.2025 91.5414 52.1626C91.0414 52.1126 90.5214 52.3026 90.2114 52.7326C87.5473 56.4757 83.7451 61.8111 80.8214 66.0026C80.1314 66.9926 78.5614 68.5226 79.0614 69.7626C79.5214 70.9026 80.5014 72.0226 81.1714 73.0626C81.1914 73.0927 81.2015 73.1126 81.2314 73.1426C82.2914 74.7726 83.3614 76.4026 84.4314 78.0226C84.6415 78.3427 84.8614 78.6725 85.0714 78.9926C88.1986 78.2096 90.1317 80.9293 88.3614 83.9625C88.7114 84.5026 89.0714 85.0426 89.4214 85.5827C89.8576 85.3643 90.2901 85.1725 90.6314 85.0426C91.8758 84.5693 93.3585 84.31 94.3014 85.2526C97.3114 81.0827 100.131 76.7326 102.681 72.2826C102.849 71.9953 103.285 72.2529 103.121 72.5326C100.531 77.0326 97.6814 81.4325 94.6314 85.6526C94.9026 86.0589 95.001 86.8202 94.6814 87.5927C94.3404 88.4167 93.6937 89.0118 93.2314 89.5126C94.79 89.8622 115.078 90.0552 115.761 90.0626C116.271 90.0626 116.731 89.8226 116.981 89.4225C117.615 88.4402 113.933 94.1483 127.901 72.4926C128.181 72.0626 128.141 71.5726 127.881 71.2025Z" fill="white" fill-opacity="0.64"/>
<path d="M127.061 72.4125H103.351C102.982 72.4125 102.639 72.2289 102.433 71.9213C86.3278 46.7823 91.8826 55.4528 90.6809 53.5771C90.2157 52.8388 90.7563 51.9028 91.6116 51.9028C97.8806 51.8285 105.85 51.9086 115.968 52.1425C116.338 52.1425 116.68 52.3373 116.876 52.664C128.952 72.3201 128.119 70.8546 128.131 71.1782C128.236 71.8112 127.742 72.4125 127.061 72.4125ZM91.0755 52.728C90.9807 52.914 90.991 53.1313 91.1028 53.309C103.426 72.3339 102.72 71.9125 103.351 71.9125C128.349 71.8354 127.184 72.1005 127.514 71.704C127.701 71.4794 127.632 71.3032 127.632 71.2026C127.632 71.1562 127.608 71.0883 127.567 71.0209C115.861 52.1537 116.558 52.6425 115.962 52.6425C105.86 52.4091 97.907 52.3324 91.6419 52.4023C91.5403 52.4313 91.2465 52.3948 91.0755 52.728Z" fill="#242422"/>
<path d="M105.032 27.4726L86.6317 37.1526C84.3567 38.4328 84.0503 38.3411 83.9816 38.7526C83.9716 38.7626 83.9517 38.7626 83.9417 38.7726C83.5148 38.928 83.554 39.2088 82.0416 32.6326C81.9216 32.1326 82.1716 31.6126 82.6317 31.3826C83.037 31.1703 102.182 21.5671 102.932 21.1825C103.272 21.0226 103.652 20.9225 104.022 20.8427L104.032 20.8327C104.416 20.7556 104.602 20.7279 104.672 21.1426C104.742 21.5627 104.732 21.9726 104.732 22.3926C104.742 22.5426 104.792 22.6626 104.822 22.8026C104.837 22.8712 105.131 24.7634 105.142 24.8327C105.192 25.1426 105.212 25.4026 105.382 25.6925C105.502 25.9026 105.642 26.0927 105.702 26.3427C105.762 26.5627 105.862 26.7726 105.912 27.0026V27.0126C106.02 27.3906 105.672 27.1526 105.032 27.4726Z" fill="#242422"/>
<path d="M105.032 27.4726L86.6317 37.1526C84.3567 38.4328 84.0503 38.3411 83.9816 38.7526C83.9716 38.7626 83.9517 38.7626 83.9417 38.7726C83.5148 38.928 83.554 39.2088 82.0416 32.6326C81.9216 32.1326 82.1716 31.6126 82.6317 31.3826C83.037 31.1703 102.182 21.5671 102.932 21.1825C103.272 21.0226 103.652 20.9225 104.022 20.8427L104.032 20.8327C104.416 20.7556 104.602 20.7279 104.672 21.1426C104.742 21.5627 104.732 21.9726 104.732 22.3926C104.742 22.5426 104.792 22.6626 104.822 22.8026C104.837 22.8712 105.131 24.7634 105.142 24.8327C105.192 25.1426 105.212 25.4026 105.382 25.6925C105.502 25.9026 105.642 26.0927 105.702 26.3427C105.762 26.5627 105.862 26.7726 105.912 27.0026V27.0126C106.02 27.3906 105.672 27.1526 105.032 27.4726Z" fill="white" fill-opacity="0.64"/>
<path d="M131.002 28.6824C131.102 28.5826 131.094 28.3912 130.772 28.3325C130.538 28.305 119.434 27.8399 117.222 27.7324C105.787 27.0557 106.402 27.1964 105.912 27.0124C105.387 26.7938 105.23 26.5463 105.092 26.0225C104.629 24.4656 104.144 23.2413 104.272 21.7024C104.292 21.5425 104.362 21.3724 104.212 21.2324C104.162 21.1824 104.082 21.1625 104.012 21.1224C103.888 21.0402 103.87 20.9178 104.022 20.8425L104.032 20.8325C105.856 19.9433 110.057 20.6586 128.972 21.7725C129.462 21.8025 129.872 22.1525 129.992 22.6224C130.142 23.2524 130.302 23.8724 130.452 24.5024C131.164 27.3537 130.65 25.5445 131.232 28.4524C131.262 28.693 131.15 28.7458 131.002 28.6824Z" fill="#242422"/>
<path d="M131.002 28.6824C131.102 28.5826 131.094 28.3912 130.772 28.3325C130.538 28.305 119.434 27.8399 117.222 27.7324C105.787 27.0557 106.402 27.1964 105.912 27.0124C105.387 26.7938 105.23 26.5463 105.092 26.0225C104.629 24.4656 104.144 23.2413 104.272 21.7024C104.292 21.5425 104.362 21.3724 104.212 21.2324C104.162 21.1824 104.082 21.1625 104.012 21.1224C103.888 21.0402 103.87 20.9178 104.022 20.8425L104.032 20.8325C105.856 19.9433 110.057 20.6586 128.972 21.7725C129.462 21.8025 129.872 22.1525 129.992 22.6224C130.142 23.2524 130.302 23.8724 130.452 24.5024C131.164 27.3537 130.65 25.5445 131.232 28.4524C131.262 28.693 131.15 28.7458 131.002 28.6824Z" fill="white" fill-opacity="0.64"/>
<path d="M127.072 28.1622C126.822 28.3222 126.562 28.4922 126.302 28.6622C125.337 29.1191 108.635 38.1459 108.072 38.2121C107.275 38.3042 87.9495 37.3423 87.0318 37.3423C86.9309 37.3423 86.8819 37.3891 86.7518 37.3022C86.7118 37.2722 86.6718 37.2021 86.6318 37.1522C106.047 27.0725 104.888 27.2522 106.072 27.2522C107.516 27.31 126.811 28.1505 127.072 28.1622Z" fill="#242422"/>
<path d="M127.072 28.1622C126.822 28.3222 126.562 28.4922 126.302 28.6622C125.337 29.1191 108.635 38.1459 108.072 38.2121C107.275 38.3042 87.9495 37.3423 87.0318 37.3423C86.9309 37.3423 86.8819 37.3891 86.7518 37.3022C86.7118 37.2722 86.6718 37.2021 86.6318 37.1522C106.047 27.0725 104.888 27.2522 106.072 27.2522C107.516 27.31 126.811 28.1505 127.072 28.1622Z" fill="white" fill-opacity="0.82"/>
<path d="M87.2227 37.6023C87.2207 37.615 87.1519 37.5993 87.1128 37.5969L87.0317 37.5925C86.8007 37.6199 86.644 37.6007 86.4683 37.3518L86.2778 37.1154L86.5156 36.9314C105.674 26.9348 104.874 27.0791 105.793 27.0129C105.944 26.9957 104.513 26.9221 127.871 27.9475L127.207 28.3728C125.551 29.4343 128.46 27.7283 113.409 35.7829C108.045 38.6021 108.689 38.3915 108.101 38.4607C107.459 38.5347 87.3227 37.6077 87.2227 37.6023ZM87.2612 37.1037C87.3632 37.109 107.393 38.0397 108.043 37.9636C108.521 37.908 107.971 38.074 113.175 35.341C123.79 29.7053 126.128 28.4794 126.283 28.3776C104.604 27.4631 105.84 27.3477 105.144 27.696L87.2612 37.1037Z" fill="#242422"/>
<path d="M87.2227 37.6023C87.2207 37.615 87.1519 37.5993 87.1128 37.5969L87.0317 37.5925C86.8007 37.6199 86.644 37.6007 86.4683 37.3518L86.2778 37.1154L86.5156 36.9314C105.674 26.9348 104.874 27.0791 105.793 27.0129C105.944 26.9957 104.513 26.9221 127.871 27.9475L127.207 28.3728C125.551 29.4343 128.46 27.7283 113.409 35.7829C108.045 38.6021 108.689 38.3915 108.101 38.4607C107.459 38.5347 87.3227 37.6077 87.2227 37.6023ZM87.2612 37.1037C87.3632 37.109 107.393 38.0397 108.043 37.9636C108.521 37.908 107.971 38.074 113.175 35.341C123.79 29.7053 126.128 28.4794 126.283 28.3776C104.604 27.4631 105.84 27.3477 105.144 27.696L87.2612 37.1037Z" fill="white" fill-opacity="0.82"/>
<path d="M105.045 41.6674C98.5013 41.6674 86.8216 39.8642 84.282 39.4594C83.7921 39.3699 83.5809 38.8278 83.8441 38.433C83.9933 38.1801 84.1968 38.1883 86.5111 36.9335C86.6175 36.8764 86.7503 36.9013 86.8265 36.996L86.8758 37.0629C86.9433 37.0904 107.37 38.0427 108.043 37.9638C108.521 37.9082 107.971 38.0742 113.175 35.3412C113.276 35.2878 126.094 28.484 126.195 28.4364C126.931 27.9467 126.973 27.9078 127.084 27.913C127.126 27.915 130.738 28.077 130.801 28.0844C131.35 28.1829 131.412 28.6213 131.18 28.8573C131.179 28.8666 131.152 28.8964 131.108 28.9394C130.769 29.2175 118.329 37.5455 110.975 40.5043C108.546 41.4719 107.64 41.6674 105.045 41.6674ZM86.5682 37.4731C86.2398 37.6454 84.1857 38.7232 84.3172 38.6542C84.2032 38.7213 84.2017 38.9364 84.3665 38.9662C87.2327 39.4233 101.835 41.6757 107.324 41.0639C113.304 40.3704 130.35 28.81 130.604 28.6723C130.654 28.6449 130.707 28.6166 130.754 28.5839C125.807 28.3549 127.506 28.4338 127.139 28.4159C125.655 29.3704 128.272 27.8349 113.409 35.7831C108.045 38.6023 108.689 38.3917 108.1 38.4608C107.441 38.5367 87.3238 37.6079 87.2225 37.6025C87.2205 37.6151 87.1517 37.5995 87.1126 37.5971L87.0316 37.5927C86.8925 37.6092 86.7871 37.6277 86.6121 37.5102C86.596 37.498 86.5814 37.4858 86.5682 37.4731Z" fill="#242422"/>
<path d="M84.2766 39.4583C83.8649 39.3829 83.688 39.0168 83.9333 38.8543C84.0451 38.78 84.197 38.8069 84.2756 38.9177C84.2844 38.9304 84.3151 38.9568 84.3664 38.9661C84.689 39.0249 84.6051 39.5113 84.2766 39.4583Z" fill="#242422"/>
<path d="M103.197 100.235C109.086 99.0018 129.077 99 127.49 99C127.819 99 127.821 99.4977 127.492 99.5C110.324 99.6274 104.855 100.398 103.3 100.724C102.982 100.797 102.87 100.303 103.197 100.235Z" fill="#242422"/>
<path d="M127.065 72.1658H103.351C103.069 72.1658 102.797 72.0248 102.645 71.783L100.519 68.4571C101.134 67.7715 90 53.9999 91.0001 52.4999C93.5 52 103.5 51.9998 116.745 52.9261L127.781 70.896C128.124 71.4503 127.721 72.1658 127.065 72.1658Z" fill="#242422"/>
<path d="M127.065 72.1658H103.351C103.069 72.1658 102.797 72.0248 102.645 71.783L100.519 68.4571C101.134 67.7715 90 53.9999 91.0001 52.4999C93.5 52 103.5 51.9998 116.745 52.9261L127.781 70.896C128.124 71.4503 127.721 72.1658 127.065 72.1658Z" fill="white" fill-opacity="0.82"/>
<path d="M136.474 53.4348C142.01 53.4348 146.499 48.9464 146.499 43.4098C146.499 37.8731 142.01 33.3848 136.474 33.3848C130.937 33.3848 126.449 37.8731 126.449 43.4098C126.449 48.9464 130.937 53.4348 136.474 53.4348Z" fill="#242422"/>
<path d="M143.648 47.7271C146.475 42.9022 144.893 36.7221 140.116 33.9233C135.339 31.1246 129.175 32.7671 126.348 37.592C123.521 42.4168 125.103 48.5969 129.88 51.3957C134.657 54.1944 140.821 52.5519 143.648 47.7271Z" fill="#B39DDB"/>
<path d="M143.648 47.7271C146.475 42.9022 144.893 36.7221 140.116 33.9233C135.339 31.1246 129.175 32.7671 126.348 37.592C123.521 42.4168 125.103 48.5969 129.88 51.3957C134.657 54.1944 140.821 52.5519 143.648 47.7271Z" fill="white" fill-opacity="0.32"/>
<path d="M142.204 46.8819C144.288 43.3241 143.122 38.7668 139.599 36.7029C136.076 34.639 131.53 35.8499 129.446 39.4077C127.362 42.9655 128.528 47.5228 132.051 49.5867C135.574 51.6507 140.119 50.4397 142.204 46.8819Z" fill="#242422"/>
<path d="M141.377 46.397C143.461 42.8393 142.295 38.282 138.772 36.218C135.249 34.1541 130.704 35.3651 128.619 38.9228C126.535 42.4806 127.701 47.0379 131.224 49.1018C134.747 51.1658 139.293 49.9548 141.377 46.397Z" fill="#B39DDB"/>
<path d="M141.377 46.397C143.461 42.8393 142.295 38.282 138.772 36.218C135.249 34.1541 130.704 35.3651 128.619 38.9228C126.535 42.4806 127.701 47.0379 131.224 49.1018C134.747 51.1658 139.293 49.9548 141.377 46.397Z" fill="white" fill-opacity="0.32"/>
<path d="M127.576 44.6352C125.893 38.0562 133.021 32.5587 138.899 36.0024C142.535 38.1327 143.743 42.8525 141.593 46.5238C138.138 52.4182 129.269 51.2466 127.576 44.6352ZM135.074 35.4643C130.349 35.4643 126.895 39.9521 128.061 44.5111C129.636 50.6701 137.917 51.8085 141.161 46.2709C143.971 41.474 140.55 35.4643 135.074 35.4643Z" fill="#242422"/>
<path d="M132.191 47.2546C132.129 47.0472 132.26 47.0066 132.838 45.9668L132.9 46.204C131.519 45.3949 130.941 44.2078 131.002 43.914C131.066 43.6148 131.443 43.4891 131.602 43.8503C131.74 44.1632 131.93 44.4733 132.174 44.7813C132.62 45.3458 133.642 45.9929 134.37 46.0945C135.024 46.1853 135.525 45.9282 135.831 45.4044C137.015 43.3849 131.981 42.4932 133.587 39.7522C134.303 38.5307 135.721 38.3625 137.003 39.0627L136.838 39.1401C137.461 38.1296 137.423 38.0125 137.633 37.9659C137.898 37.9049 138.118 38.188 137.983 38.4185L137.376 39.4552L137.346 39.2774C137.965 39.6569 138.589 40.3819 138.799 41.1855C138.869 41.4564 138.614 41.7203 138.349 41.5647C138.1 41.4188 138.178 40.5007 136.796 39.6908C135.816 39.1167 134.745 39.1475 134.185 40.1025C133.177 41.8232 136.104 42.5951 136.67 44.3498C136.956 45.2376 136.354 46.2142 135.613 46.555C134.816 46.9211 133.928 46.7437 133.139 46.3441L133.382 46.2721C132.744 47.3113 132.777 47.4264 132.574 47.4792C132.425 47.5178 132.242 47.4271 132.191 47.2546Z" fill="#242422"/>
<path d="M119.386 72.1659H106.203C103.232 67.1559 106.829 60.6665 112.795 60.6665C118.771 60.6665 122.347 67.1715 119.386 72.1659Z" fill="#242422"/>
<path d="M118.196 72.1656H104.873C101.874 66.8814 106.031 60.135 112.2 60.6964C117.809 61.1878 120.9 67.4013 118.196 72.1656Z" fill="#B39DDB"/>
<path d="M118.196 72.1656H104.873C101.874 66.8814 106.031 60.135 112.2 60.6964C117.809 61.1878 120.9 67.4013 118.196 72.1656Z" fill="white" fill-opacity="0.32"/>
<path d="M116.473 72.166H108.058C104.853 68.561 107.361 62.6924 112.26 62.6924C117.135 62.6924 119.692 68.5445 116.473 72.166Z" fill="#242422"/>
<path d="M115.737 72.1655H107.322C104.102 68.543 106.662 62.6919 111.535 62.6919C111.655 62.6919 111.776 62.6919 111.897 62.7121C116.608 63.0023 118.835 68.6805 115.737 72.1655Z" fill="#B39DDB"/>
<path d="M115.737 72.1655H107.322C104.102 68.543 106.662 62.6919 111.535 62.6919C111.655 62.6919 111.776 62.6919 111.897 62.7121C116.608 63.0023 118.835 68.6805 115.737 72.1655Z" fill="white" fill-opacity="0.32"/>
<path d="M115.85 72.4155H107.209L107.135 72.3315C103.775 68.5511 106.442 62.4419 111.535 62.4419C111.669 62.4419 111.804 62.4429 111.938 62.4653C116.798 62.7629 119.173 68.6774 115.924 72.3315L115.85 72.4155ZM107.435 71.9155H115.623C118.607 68.4182 116.099 62.9006 111.535 62.9419C106.924 62.9419 104.465 68.4316 107.435 71.9155Z" fill="#242422"/>
<path d="M110.285 67.7314C109.905 67.3518 109.886 66.5407 110.436 66.0885C111.049 65.5854 112.343 65.5768 113.147 66.3001C113.411 66.5202 113.694 66.1723 113.47 65.9475C113.003 65.5022 112.362 65.2812 111.857 65.2623C111.839 64.4306 111.898 64.4008 111.797 64.2746C111.637 64.1467 111.384 64.2288 111.384 64.4459V65.2519C111.021 65.2623 110.708 65.3528 110.426 65.4941C109.311 66.051 109.249 67.4554 109.872 68.054C110.834 69.0539 113.137 68.4276 113.137 69.8679C113.137 70.7164 112.412 71.0271 111.555 71.0271C110.13 71.0271 109.867 70.4122 109.59 70.4122C109.395 70.4122 109.269 70.6755 109.489 70.8959C109.897 71.2193 110.565 71.4975 111.384 71.5209V72.1658H111.857V71.5108C112.857 71.4225 113.691 70.8786 113.691 69.8377C113.691 67.9724 110.99 68.4776 110.285 67.7314Z" fill="#242422"/>
<path d="M109.973 54.0101C109.859 54.1777 109.906 54.3586 109.701 54.4919C109.488 54.6303 108.795 54.7338 108.107 54.8576C107.749 54.9219 107.127 54.8451 107.101 55.3539C107.095 55.4752 107.131 55.5942 107.166 55.7104C107.893 58.1018 108.223 58.5984 110.822 58.1736C113.031 57.8124 115.171 56.9041 117.143 55.8735C119.007 54.8999 120.839 53.7436 122.359 52.2791C122.868 51.7888 123.373 51.2491 123.713 50.6237C124.115 49.8836 123.829 49.1749 123.544 48.3979C123.195 47.4463 123.089 47.0561 122.827 46.7874C122.627 46.5823 122.304 46.4691 122.048 46.5972C121.853 46.6946 121.743 46.9011 121.638 47.0916C121.364 47.5875 121.042 48.0564 120.677 48.4893C120.175 49.0833 118.732 49.1846 118 49.4471C113.795 50.9557 110.217 53.6511 109.973 54.0101Z" fill="#242422"/>
<path d="M116.808 54.7446C121.256 52.4206 124.121 49.119 123.208 47.3703C122.294 45.6217 117.947 46.0881 113.499 48.4121C109.051 50.7361 106.186 54.0377 107.1 55.7863C108.013 57.535 112.36 57.0686 116.808 54.7446Z" fill="#B39DDB"/>
<path d="M116.808 54.7446C121.256 52.4206 124.121 49.119 123.208 47.3703C122.294 45.6217 117.947 46.0881 113.499 48.4121C109.051 50.7361 106.186 54.0377 107.1 55.7863C108.013 57.535 112.36 57.0686 116.808 54.7446Z" fill="white" fill-opacity="0.32"/>
<path d="M57.5317 83.391C57.5273 83.391 57.5224 83.391 57.5175 83.3905C57.3798 83.3827 57.2743 83.265 57.2821 83.1268C57.4244 80.59 57.3337 77.4327 57.6288 74.9071C57.6682 74.583 58.1636 74.6346 58.1259 74.9657C57.8344 77.454 57.9239 80.6312 57.7812 83.1552C57.7738 83.288 57.6635 83.391 57.5317 83.391Z" fill="#242422"/>
<path d="M45.0816 84.1621H45.0762C44.938 84.1592 44.8287 84.0449 44.8316 83.9067C44.8923 81.1261 44.9664 77.186 45.0318 74.127C45.0347 73.9907 45.1461 73.8823 45.2818 73.8823H45.2872C45.4254 73.8853 45.5347 73.9995 45.5318 74.1377C45.4579 77.5955 45.4058 80.4685 45.3316 83.9175C45.3287 84.0537 45.2173 84.1621 45.0816 84.1621Z" fill="#242422"/>
<path d="M70.4416 131.183C68.2816 132.343 65.7715 132.653 63.3216 132.873C54.1488 133.703 45.4626 133.672 36.0616 133.323C31.9615 133.163 27.2316 133.393 23.3716 131.713C19.6916 130.113 18.6016 126.713 18.5116 122.933C18.3716 116.193 19.3716 109.343 20.8415 102.783C22.9516 93.2927 27.1016 84.3626 36.3116 80.0327C47.3315 74.8427 61.8616 79.4127 68.1816 89.7927C69.0316 91.2026 69.7516 92.6826 70.3516 94.2126C70.1016 95.9326 70.1016 97.6826 70.3315 99.4027C70.2516 99.6826 70.1816 99.9626 70.1116 100.243C68.3415 107.743 62.6116 113.373 59.0016 119.963C58.5016 120.873 56.4615 123.293 57.2516 124.303C57.5016 124.623 57.8716 124.813 58.2416 124.993C67.1769 129.567 68.0248 130.049 69.6316 130.373C70.0815 130.463 70.5516 130.513 70.9615 130.323C71.8916 129.903 72.3116 125.733 72.6416 124.653C73.2916 122.573 74.0116 120.493 75.0416 118.573C75.2816 123.923 74.4316 129.033 70.4416 131.183Z" fill="#B39DDB"/>
<path d="M70.4416 131.183C68.2816 132.343 65.7715 132.653 63.3216 132.873C54.1488 133.703 45.4626 133.672 36.0616 133.323C31.9615 133.163 27.2316 133.393 23.3716 131.713C19.6916 130.113 18.6016 126.713 18.5116 122.933C18.3716 116.193 19.3716 109.343 20.8415 102.783C22.9516 93.2927 27.1016 84.3626 36.3116 80.0327C47.3315 74.8427 61.8616 79.4127 68.1816 89.7927C69.0316 91.2026 69.7516 92.6826 70.3516 94.2126C70.1016 95.9326 70.1016 97.6826 70.3315 99.4027C70.2516 99.6826 70.1816 99.9626 70.1116 100.243C68.3415 107.743 62.6116 113.373 59.0016 119.963C58.5016 120.873 56.4615 123.293 57.2516 124.303C57.5016 124.623 57.8716 124.813 58.2416 124.993C67.1769 129.567 68.0248 130.049 69.6316 130.373C70.0815 130.463 70.5516 130.513 70.9615 130.323C71.8916 129.903 72.3116 125.733 72.6416 124.653C73.2916 122.573 74.0116 120.493 75.0416 118.573C75.2816 123.923 74.4316 129.033 70.4416 131.183Z" fill="white" fill-opacity="0.32"/>
<path d="M28.5057 63.0124C25.5838 61.1335 24.1595 57.215 25.1927 53.8981C26.2162 50.5817 29.5985 48.1813 33.0682 48.2423C34.0077 48.2741 34.9535 48.5163 35.7352 48.9245C35.985 49.0349 35.9051 49.4025 35.6415 49.4025H35.6317C35.5912 49.4025 35.5511 49.3927 35.5155 49.3737C34.7967 48.9958 33.9222 48.7716 33.0531 48.7423C32.993 48.7404 32.933 48.7399 32.8729 48.7399C29.6878 48.7399 26.6122 50.9928 25.6703 54.0461C24.7015 57.1564 26.037 60.8302 28.7767 62.592C30.597 63.7707 32.9857 64.071 35.1673 63.3937C35.4845 63.2961 35.631 63.7732 35.3158 63.8713C34.4984 64.1247 30.4124 64.2475 28.5057 63.0124Z" fill="#242422"/>
<path d="M30.5856 57.5538C30.4533 56.522 30.7868 55.44 31.4768 54.6597C31.6962 54.4113 32.0704 54.7429 31.8518 54.9908C31.2556 55.6651 30.9675 56.5992 31.0817 57.4903C31.0993 57.627 31.0026 57.7525 30.8654 57.7701C30.7321 57.7882 30.6034 57.6924 30.5856 57.5538Z" fill="#242422"/>
<path d="M46.6974 74.8481C41.4528 73.5126 37.0065 69.3456 35.0934 63.9735C33.4982 59.495 32.9035 52.9359 36.0158 47.9579C36.1923 47.6781 36.6149 47.9432 36.4396 48.2226C33.4215 53.0502 34.0084 59.4374 35.5641 63.8056C37.4225 69.0229 41.7355 73.0688 46.8205 74.3637C47.1423 74.4459 47.0154 74.9313 46.6974 74.8481Z" fill="#242422"/>
<path d="M55.0808 75.6445C54.7585 75.6445 54.7457 75.162 55.0676 75.145C61.656 74.7924 66.0422 69.5634 67.4665 64.5376C69.0446 58.9711 68.0686 52.7021 67.197 48.4707C67.1299 48.1502 67.6199 48.0407 67.6862 48.3701C68.5686 52.6528 69.5559 59.0024 67.948 64.6743C66.4748 69.871 61.9294 75.2783 55.094 75.644C55.0896 75.6445 55.0852 75.6445 55.0808 75.6445Z" fill="#242422"/>
<path d="M57.8068 64.126C57.6561 63.57 59.1007 63.8508 60.1657 63.1768C61.2345 62.5053 61.0325 61.3614 61.0524 59.9673C61.112 56.1839 61.1618 56.6795 61.2213 52.9087C61.2233 52.7705 61.3351 52.6841 61.4752 52.6626C61.6134 52.665 61.7233 52.7783 61.7213 52.9165C61.678 55.6664 61.5396 58.867 61.5524 60.5688C61.5631 61.7593 61.5724 62.8833 60.4323 63.6001C59.618 64.115 58.9158 64.0824 58.1139 64.3013C57.9777 64.3376 57.8424 64.257 57.8068 64.126Z" fill="#242422"/>
<path d="M53.3606 67.1095C52.2022 66.1299 52.5617 64.3769 53.0935 64.6344C53.218 64.695 53.2697 64.8444 53.2097 64.9684C52.9431 65.5177 53.1467 66.2741 53.6838 66.7277C54.3269 67.2716 55.1975 67.2975 55.6574 67.2599C55.9837 67.2349 56.0273 67.733 55.6945 67.7589C54.6579 67.8336 53.8725 67.5425 53.3606 67.1095Z" fill="#242422"/>
<path d="M68.5604 48.7043C66.5735 50.1047 65.2127 49.0366 63.4625 48.1577C61.6075 47.2262 60.041 46.8986 58.4786 45.3103C57.9096 44.7318 57.5791 44.8362 57.2843 45.4461C56.6364 46.786 55.7149 48.0587 54.3988 48.7538C52.2552 49.8859 49.2912 49.0494 48.0557 46.9635C46.9883 49.2155 44.2606 50.584 41.5822 49.584C41.1699 49.43 40.0422 48.421 39.7161 48.4483C38.978 48.5101 37.5798 51.2666 37.1456 51.9507C36.2593 53.3471 35.4617 54.8064 34.7217 56.2849C34.5382 56.6516 34.1477 56.7911 34.1315 56.3265C34.1039 55.5349 34.1399 54.7421 34.2135 53.9535C34.3922 52.0389 35.9674 49.3971 33.4434 48.8761C29.4798 48.8761 27.5241 51.7259 27.233 49.2431C26.5097 43.0742 31.7985 37.0301 35.8037 36.7347C37.7373 36.5921 39.8539 37.8443 40.1356 39.7625C40.9413 37.2958 42.2523 34.9403 44.2212 33.25C46.1902 31.5598 48.8707 30.6016 51.4266 31.0501C53.9825 31.4986 56.2938 33.5055 56.7498 36.0601C57.3496 33.5217 60.5802 32.3334 63.0672 33.1196C65.5542 33.9057 67.3464 36.0717 68.6945 38.3046C69.6835 39.9427 70.5308 41.7284 70.6701 43.6368C70.8091 45.541 70.1271 47.5999 68.5604 48.7043Z" fill="#242422"/>
<path d="M64.0592 52.8973C63.6866 53.0161 63.335 53.2992 63.2698 53.6848C63.0554 54.9532 66.031 56.8578 67.4225 57.1632C68.3772 57.3727 69.1821 56.8056 68.5293 55.8028C68.1228 55.1783 67.5716 54.6563 66.9967 54.1989C66.1163 53.4986 65.2147 52.5289 64.0592 52.8973Z" fill="#242422"/>
<path d="M65.0057 57.9094C63.9472 57.86 63.738 60.4426 64.3999 61.0481C64.6878 61.3115 65.1672 61.2795 65.4788 61.0445C66.6125 60.1897 65.8707 57.9497 65.0057 57.9094Z" fill="#242422"/>
<path d="M51.0412 52.2574C50.9145 52.6275 50.9323 53.0785 51.2031 53.3607C51.8484 54.0332 53.6749 53.4958 54.5613 53.1629C57.5945 52.0235 57.4299 50.4855 56.0386 50.3998C55.2947 50.354 54.5471 50.4854 53.8372 50.6745C52.7501 50.9641 51.4342 51.11 51.0412 52.2574Z" fill="#242422"/>
<path d="M53.2093 54.7483C52.1508 54.6989 51.9416 57.2814 52.6035 57.887C52.8915 58.1504 53.3708 58.1184 53.6824 57.8834C54.8161 57.0285 54.0744 54.7886 53.2093 54.7483Z" fill="#242422"/>
<path d="M70.0813 99.4123C70.0327 98.6627 69.7009 96.949 70.1037 94.1764C70.5376 90.9574 72.3194 85.9953 74.944 84.2736C75.6823 83.8014 76.385 83.7316 76.8757 84.0783C77.6673 84.6411 77.4107 85.7281 77.1628 86.6471C77.1499 86.8406 76.9799 87.102 76.7917 87.4718C76.6835 87.8528 76.1084 87.5626 76.3449 87.2472L76.6433 86.6696C76.7867 85.9666 77.1982 84.9221 76.5866 84.486C74.8914 83.2891 69.3868 90.438 70.5788 99.3693C70.5788 99.7276 70.0813 99.7155 70.0813 99.4123Z" fill="#242422"/>
<path d="M58.1277 125.215C57.7214 125.017 57.3303 124.809 57.0549 124.456C56.125 123.268 58.2473 120.818 58.7825 119.841C60.0393 117.548 61.574 115.337 63.0579 113.2C72.0043 100.313 68.0395 101.963 72.4499 93.4669C74.8077 88.9 78.4289 84.2115 82.0515 80.4683C82.8625 79.6368 83.9128 79.0269 85.0105 78.7501C85.0105 78.7491 85.1316 78.7193 85.1326 78.7193C87.9911 78.0179 90.0597 80.3572 89.0261 83.1978C88.7354 83.9895 87.2346 86.2382 86.7551 86.9566C88.1809 85.8162 91.0316 84.2232 92.8616 84.3731C93.5974 84.4429 94.2366 84.7584 94.6287 85.2408C94.657 85.2601 94.6818 85.2889 94.6985 85.3184C95.1053 85.7768 95.3192 86.7062 94.9123 87.688C94.3398 89.0731 92.1466 90.9088 90.9407 91.8057C91.7681 91.525 92.4804 91.3416 93.281 91.4473C93.9452 91.5206 93.952 91.4986 94.029 91.5381C95.283 91.8557 96.1796 92.7696 96.3772 93.816C96.7273 95.7012 95.0798 96.9219 93.8098 97.6763C93.2205 98.0289 92.5808 98.3799 91.7356 98.8145C89.0154 100.194 87.1218 102.868 86.6692 105.968C86.3552 108.145 85.3141 109.802 83.7917 111.385C81.1581 114.039 76.8078 115.338 75.2683 118.677C74.2185 120.635 73.5002 122.741 72.8801 124.727C72.5277 125.879 72.1641 130.053 71.0647 130.55C69.5026 131.273 66.4932 129.497 58.1277 125.215ZM82.4104 80.8165C78.8312 84.5149 75.233 89.165 72.8938 93.6968C68.5348 102.089 72.4583 100.536 63.4685 113.485C59.4413 119.286 59.7364 119.356 58.7092 120.879C56.7751 123.75 57.0422 124.129 58.3508 124.768C66.6554 129.017 68.0384 129.796 69.6809 130.127C70.0637 130.204 70.5027 130.26 70.8567 130.095C71.6069 129.757 72.1083 125.543 72.4021 124.579C73.9018 119.781 74.8569 118.441 75.0212 118.074C76.8821 114.75 80.8805 113.609 83.4343 111.036C84.8737 109.54 85.8806 107.959 86.1741 105.897C86.6506 102.635 88.6443 99.8213 91.5081 98.3692C93.5199 97.3338 96.2751 96.0068 95.886 93.9078C95.8005 93.4576 95.5442 93.0201 95.1643 92.6783C94.3591 91.9848 93.7418 92 93.2268 91.9444C93.1267 91.9485 92.6202 91.7883 91.4275 92.1705C90.4646 92.4849 89.6374 92.8121 88.7351 93.3834C88.6204 93.4542 88.4695 93.4244 88.3933 93.3106C88.2003 93.0211 88.646 92.8654 88.7449 92.7652C90.2587 91.7028 93.7141 89.2781 94.4504 87.4966C94.7953 86.6639 94.5863 85.9108 94.3049 85.6294C94.2901 85.6146 94.2754 85.5997 94.2639 85.585C93.9592 85.1895 93.4319 84.9297 92.8176 84.8711C92.0608 84.8101 91.2991 85.0557 90.7205 85.2759C88.5979 86.1036 86.6862 87.3648 85.2673 89.148C85.0695 89.3964 84.6848 89.1155 84.865 88.8516C85.472 87.9685 88.191 84.0227 88.5564 83.0259C88.9695 81.8912 88.8157 80.6827 88.1643 79.9483C86.7571 78.3347 83.949 79.2396 82.4104 80.8165ZM94.029 91.5381C94.0051 91.5264 93.968 91.5123 93.9221 91.5123C93.9623 91.5215 93.9757 91.5246 94.029 91.5381Z" fill="#242422"/>
<path d="M93.8515 92.0021C93.6911 91.9884 93.8989 92.0171 92.9077 91.9112C92.5989 91.8814 92.6126 91.4226 92.9238 91.4122C93.2588 91.4049 93.5888 91.4342 93.9082 91.5084C94.0351 91.5382 94.1176 91.6598 94.0991 91.7887C94.0805 91.9117 93.9746 92.0021 93.8515 92.0021Z" fill="#242422"/>
<path d="M83.0684 91.768C83.5113 90.642 84.1475 89.6166 84.959 88.7192C85.1828 88.4755 85.5514 88.8093 85.3301 89.0551C84.5586 89.9072 83.9541 90.8813 83.5332 91.9506C83.4127 92.2587 82.9468 92.0755 83.0684 91.768Z" fill="#242422"/>
<path d="M86.892 94.889C86.7871 94.7996 86.7744 94.6419 86.8637 94.5364C87.6469 93.6151 88.5805 92.8504 89.6391 92.264C89.932 92.1058 90.1689 92.5419 89.8813 92.7015C87.4826 94.0296 87.3215 95.252 86.892 94.889Z" fill="#242422"/>
<path d="M53.8146 120.912C61.2693 110.87 61.0636 110.982 61.7927 110.581C62.6706 110.097 63.752 110.316 64.7271 110.547C68.099 111.345 71.5023 112.289 74.7386 113.478C77.2593 114.405 79.6287 115.607 82.1819 116.445C82.5123 116.554 82.8553 116.67 83.1034 116.913C83.5027 117.306 83.5583 117.941 83.4293 118.486C83.3004 119.03 83.0186 119.525 82.8233 120.05C82.4032 121.178 82.3931 122.401 82.067 123.553C81.7901 124.531 81.1033 125.352 80.5411 126.194C75.6791 133.478 67.7073 140.457 58.905 141.873C47.9969 143.629 37.6351 143.849 27.1344 140.008C23.351 138.624 21.3333 137.846 19.8907 133.811C18.4843 129.878 18.1644 125.546 19.085 121.465" fill="#B39DDB"/>
<path d="M53.8146 120.912C61.2693 110.87 61.0636 110.982 61.7927 110.581C62.6706 110.097 63.752 110.316 64.7271 110.547C68.099 111.345 71.5023 112.289 74.7386 113.478C77.2593 114.405 79.6287 115.607 82.1819 116.445C82.5123 116.554 82.8553 116.67 83.1034 116.913C83.5027 117.306 83.5583 117.941 83.4293 118.486C83.3004 119.03 83.0186 119.525 82.8233 120.05C82.4032 121.178 82.3931 122.401 82.067 123.553C81.7901 124.531 81.1033 125.352 80.5411 126.194C75.6791 133.478 67.7073 140.457 58.905 141.873C47.9969 143.629 37.6351 143.849 27.1344 140.008C23.351 138.624 21.3333 137.846 19.8907 133.811C18.4843 129.878 18.1644 125.546 19.085 121.465" fill="white" fill-opacity="0.32"/>
<path d="M81.9652 123.503C81.8344 123.459 81.765 123.316 81.81 123.186L83.2382 119.02C83.6323 117.872 83.631 117.162 81.621 116.521C59.1659 109.365 60.3386 109.678 60.1054 109.748C59.8302 109.83 60.1616 109.465 52.8041 120.765C52.7284 120.881 52.5736 120.914 52.4584 120.838C52.3427 120.763 52.31 120.608 52.3851 120.492C59.7856 109.109 59.4414 109.425 59.9618 109.269C60.4217 109.132 59.0487 108.797 81.7733 116.044C82.6664 116.33 83.7177 116.783 83.9188 117.762C84.0233 118.273 83.85 118.777 83.7108 119.182L82.2826 123.348C82.2373 123.48 82.0942 123.548 81.9652 123.503Z" fill="#242422"/>
<path d="M29.8894 26.8071C29.7061 26.5327 30.1214 26.2538 30.3055 26.5298C31.3846 28.1465 32.368 29.8501 33.2288 31.5933C33.2898 31.7173 33.239 31.8672 33.1155 31.9282C32.6137 32.1757 32.8007 31.1707 29.8894 26.8071Z" fill="#242422"/>
<path d="M35.3799 31.6774C35.5777 30.2262 35.5454 28.7594 35.2847 27.3185C35.2256 26.9897 35.7189 26.9112 35.7769 27.2296C36.0469 28.7223 36.0801 30.2414 35.875 31.7448C35.83 32.0752 35.3357 32.0034 35.3799 31.6774Z" fill="#242422"/>
<path d="M32.2284 33.8319C28.4726 31.6472 27.5992 31.878 27.8016 31.387C27.8544 31.2591 28.0013 31.1966 28.1278 31.2513C29.621 31.8656 31.0848 32.5887 32.4794 33.3992C32.7657 33.5664 32.5141 33.9977 32.2284 33.8319Z" fill="#242422"/>
<path d="M126.03 138.999C125.71 138.999 125.694 138.521 126.014 138.499C133.174 138.018 138.671 131.882 138.35 124.702C138.31 123.811 138.18 123.171 137.581 122.588C136.672 123.42 135.463 124.37 134.24 124.447C132.625 124.541 131.379 123.055 132.302 121.664C133.475 119.895 135.888 120.629 137.565 121.916C142.94 116.667 142.998 108.294 138.111 102.993C137.885 102.749 138.257 102.411 138.478 102.654C143.428 108.023 143.599 116.686 137.945 122.244C138.644 122.934 138.804 123.683 138.849 124.679C139.182 132.12 133.489 138.498 126.047 138.999C126.042 138.999 126.036 138.999 126.03 138.999ZM132.719 121.94C132.029 122.981 133.001 124.031 134.208 123.948C135.277 123.881 136.393 122.989 137.195 122.263C135.765 121.207 133.698 120.463 132.719 121.94Z" fill="#242422"/>
</svg>
