<svg width="165" height="165" viewBox="0 0 165 165" fill="none" xmlns="http://www.w3.org/2000/svg">
<g opacity="0.56">
<path d="M92.829 91.6071C91.5753 91.6071 89.6702 92.4081 88.5649 93.1079C89.37 92.5415 90.1851 91.9749 90.9703 91.3784C91.5866 91.458 92.2127 91.5376 92.829 91.6071Z" fill="#242422"/>
<path d="M92.829 91.6071C91.5753 91.6071 89.6702 92.4081 88.5649 93.1079C89.37 92.5415 90.1851 91.9749 90.9703 91.3784C91.5866 91.458 92.2127 91.5376 92.829 91.6071Z" fill="white" fill-opacity="0.82"/>
</g>
<path d="M88.3262 83.9536C88.674 84.4904 89.0319 85.0271 89.3798 85.5639C87.71 86.3689 86.219 87.4921 85.0562 88.9532C85.3543 88.5159 87.3919 85.5739 88.3262 83.9536Z" fill="#242422"/>
<path d="M88.3262 83.9536C88.674 84.4904 89.0319 85.0271 89.3798 85.5639C87.71 86.3689 86.219 87.4921 85.0562 88.9532C85.3543 88.5159 87.3919 85.5739 88.3262 83.9536Z" fill="white" fill-opacity="0.82"/>
<path d="M127.607 71.2712C127.696 71.7482 127.329 72.2254 126.792 72.2254H103.226C102.947 72.2254 102.679 72.0863 102.52 71.8477C86.5153 46.8667 92.0353 55.4827 90.8411 53.6188C90.5032 53.0821 90.861 52.3863 91.4872 52.3466C90.9902 52.2969 90.4733 52.4858 90.1652 52.9131C87.5172 56.6336 83.7381 61.9367 80.8322 66.1027C80.1463 67.0867 78.5859 68.6075 79.0828 69.84C79.54 70.9731 80.5141 72.0863 81.18 73.12C81.1999 73.1499 81.2099 73.1696 81.2397 73.1995C82.2932 74.8196 83.3568 76.4397 84.4203 78.0499C84.629 78.368 84.8477 78.6959 85.0564 79.014C88.1646 78.2358 90.086 80.939 88.3264 83.9538C88.6743 84.4906 89.0322 85.0274 89.38 85.5641C89.8136 85.3472 90.2435 85.1565 90.5827 85.0274C91.8196 84.557 93.2932 84.2992 94.2304 85.2361C97.2222 81.0914 100.025 76.7677 102.56 72.3447C102.726 72.0591 103.159 72.3152 102.997 72.5932C100.423 77.0659 97.59 81.4392 94.5585 85.6337C94.8279 86.0375 94.9258 86.7942 94.6082 87.562C94.2691 88.3811 93.6264 88.9725 93.1669 89.4703C94.716 89.8177 114.881 90.0096 115.56 90.017C116.067 90.017 116.525 89.7784 116.773 89.3807C117.403 88.4044 113.743 94.0779 127.627 72.5534C127.905 72.1261 127.865 71.639 127.607 71.2712Z" fill="#242422"/>
<path d="M127.607 71.2712C127.696 71.7482 127.329 72.2254 126.792 72.2254H103.226C102.947 72.2254 102.679 72.0863 102.52 71.8477C86.5153 46.8667 92.0353 55.4827 90.8411 53.6188C90.5032 53.0821 90.861 52.3863 91.4872 52.3466C90.9902 52.2969 90.4733 52.4858 90.1652 52.9131C87.5172 56.6336 83.7381 61.9367 80.8322 66.1027C80.1463 67.0867 78.5859 68.6075 79.0828 69.84C79.54 70.9731 80.5141 72.0863 81.18 73.12C81.1999 73.1499 81.2099 73.1696 81.2397 73.1995C82.2932 74.8196 83.3568 76.4397 84.4203 78.0499C84.629 78.368 84.8477 78.6959 85.0564 79.014C88.1646 78.2358 90.086 80.939 88.3264 83.9538C88.6743 84.4906 89.0322 85.0274 89.38 85.5641C89.8136 85.3472 90.2435 85.1565 90.5827 85.0274C91.8196 84.557 93.2932 84.2992 94.2304 85.2361C97.2222 81.0914 100.025 76.7677 102.56 72.3447C102.726 72.0591 103.159 72.3152 102.997 72.5932C100.423 77.0659 97.59 81.4392 94.5585 85.6337C94.8279 86.0375 94.9258 86.7942 94.6082 87.562C94.2691 88.3811 93.6264 88.9725 93.1669 89.4703C94.716 89.8177 114.881 90.0096 115.56 90.017C116.067 90.017 116.525 89.7784 116.773 89.3807C117.403 88.4044 113.743 94.0779 127.627 72.5534C127.905 72.1261 127.865 71.639 127.607 71.2712Z" fill="white" fill-opacity="0.64"/>
<path d="M126.791 72.4736H103.225C102.858 72.4736 102.517 72.2911 102.313 71.9854C86.3048 46.9987 91.826 55.6166 90.6316 53.7523C90.1691 53.0185 90.7065 52.0881 91.5566 52.0881C97.7876 52.0144 105.709 52.094 115.765 52.3264C116.133 52.3264 116.473 52.5201 116.668 52.8448C128.671 72.3818 127.842 70.9251 127.855 71.2467C127.959 71.8759 127.468 72.4736 126.791 72.4736ZM91.0237 52.9083C90.9295 53.0932 90.9397 53.3092 91.0509 53.4859C103.299 72.3954 102.597 71.9766 103.225 71.9766C128.071 71.9 126.914 72.1635 127.242 71.7694C127.427 71.5461 127.358 71.371 127.358 71.271C127.358 71.2249 127.335 71.1574 127.294 71.0904C115.659 52.3375 116.352 52.8234 115.759 52.8234C105.719 52.5914 97.8138 52.5152 91.5867 52.5846C91.4857 52.6135 91.1937 52.5772 91.0237 52.9083Z" fill="#242422"/>
<path d="M104.896 27.8061L86.6071 37.4275C84.3459 38.6999 84.0413 38.6088 83.9731 39.0177C83.9632 39.0277 83.9433 39.0277 83.9334 39.0376C83.5091 39.192 83.5481 39.4711 82.0449 32.9348C81.9256 32.4379 82.1741 31.921 82.6313 31.6924C83.0342 31.4814 102.063 21.9364 102.808 21.5542C103.146 21.3952 103.524 21.2957 103.892 21.2164L103.902 21.2064C104.284 21.1298 104.469 21.1023 104.538 21.5145C104.607 21.932 104.597 22.3394 104.597 22.7569C104.607 22.906 104.657 23.0253 104.687 23.1644C104.702 23.2325 104.994 25.1133 105.005 25.1822C105.055 25.4902 105.074 25.7487 105.243 26.0368C105.363 26.2456 105.502 26.4345 105.562 26.683C105.621 26.9017 105.721 27.1104 105.77 27.3389V27.3489C105.878 27.7246 105.532 27.488 104.896 27.8061Z" fill="#242422"/>
<path d="M104.896 27.8061L86.6071 37.4275C84.3459 38.6999 84.0413 38.6088 83.9731 39.0177C83.9632 39.0277 83.9433 39.0277 83.9334 39.0376C83.5091 39.192 83.5481 39.4711 82.0449 32.9348C81.9256 32.4379 82.1741 31.921 82.6313 31.6924C83.0342 31.4814 102.063 21.9364 102.808 21.5542C103.146 21.3952 103.524 21.2957 103.892 21.2164L103.902 21.2064C104.284 21.1298 104.469 21.1023 104.538 21.5145C104.607 21.932 104.597 22.3394 104.597 22.7569C104.607 22.906 104.657 23.0253 104.687 23.1644C104.702 23.2325 104.994 25.1133 105.005 25.1822C105.055 25.4902 105.074 25.7487 105.243 26.0368C105.363 26.2456 105.502 26.4345 105.562 26.683C105.621 26.9017 105.721 27.1104 105.77 27.3389V27.3489C105.878 27.7246 105.532 27.488 104.896 27.8061Z" fill="white" fill-opacity="0.64"/>
<path d="M130.708 29.0088C130.808 28.9096 130.8 28.7195 130.479 28.6611C130.247 28.6338 119.21 28.1715 117.012 28.0646C105.646 27.392 106.257 27.5319 105.77 27.349C105.249 27.1317 105.092 26.8857 104.955 26.365C104.495 24.8176 104.013 23.6008 104.14 22.0712C104.16 21.9122 104.23 21.7432 104.08 21.604C104.031 21.5543 103.951 21.5345 103.882 21.4947C103.759 21.4129 103.741 21.2913 103.892 21.2165L103.902 21.2066C105.715 20.3227 109.89 21.0337 128.69 22.1408C129.177 22.1706 129.585 22.5185 129.704 22.9856C129.853 23.6118 130.012 24.228 130.161 24.8542C130.87 27.6882 130.358 25.89 130.937 28.7802C130.967 29.0194 130.855 29.0719 130.708 29.0088Z" fill="#242422"/>
<path d="M130.708 29.0088C130.808 28.9096 130.8 28.7195 130.479 28.6611C130.247 28.6338 119.21 28.1715 117.012 28.0646C105.646 27.392 106.257 27.5319 105.77 27.349C105.249 27.1317 105.092 26.8857 104.955 26.365C104.495 24.8176 104.013 23.6008 104.14 22.0712C104.16 21.9122 104.23 21.7432 104.08 21.604C104.031 21.5543 103.951 21.5345 103.882 21.4947C103.759 21.4129 103.741 21.2913 103.892 21.2165L103.902 21.2066C105.715 20.3227 109.89 21.0337 128.69 22.1408C129.177 22.1706 129.585 22.5185 129.704 22.9856C129.853 23.6118 130.012 24.228 130.161 24.8542C130.87 27.6882 130.358 25.89 130.937 28.7802C130.967 29.0194 130.855 29.0719 130.708 29.0088Z" fill="white" fill-opacity="0.64"/>
<path d="M126.801 28.4916C126.553 28.6507 126.294 28.8196 126.036 28.9886C125.077 29.4428 108.477 38.4148 107.917 38.4807C107.124 38.5722 87.9161 37.6161 87.004 37.6161C86.9037 37.6161 86.855 37.6626 86.7257 37.5763C86.6859 37.5464 86.6462 37.4768 86.6064 37.4271C105.904 27.4086 104.752 27.5871 105.929 27.5871C107.364 27.6446 126.542 28.48 126.801 28.4916Z" fill="#242422"/>
<path d="M126.801 28.4916C126.553 28.6507 126.294 28.8196 126.036 28.9886C125.077 29.4428 108.477 38.4148 107.917 38.4807C107.124 38.5722 87.9161 37.6161 87.004 37.6161C86.9037 37.6161 86.855 37.6626 86.7257 37.5763C86.6859 37.5464 86.6462 37.4768 86.6064 37.4271C105.904 27.4086 104.752 27.5871 105.929 27.5871C107.364 27.6446 126.542 28.48 126.801 28.4916Z" fill="white" fill-opacity="0.82"/>
<path d="M87.194 37.8745C87.192 37.8871 87.1236 37.8715 87.0848 37.8691L87.0042 37.8647C86.7746 37.892 86.6188 37.8729 86.4442 37.6255L86.2549 37.3906L86.4912 37.2076C105.534 27.2717 104.739 27.415 105.652 27.3493C105.802 27.3322 104.379 27.259 127.596 28.2782L126.936 28.7009C125.29 29.756 128.181 28.0604 113.221 36.0661C107.891 38.8682 108.53 38.6589 107.945 38.7277C107.307 38.8012 87.2934 37.8798 87.194 37.8745ZM87.2323 37.3789C87.3336 37.3842 107.243 38.3093 107.888 38.2336C108.363 38.1784 107.817 38.3434 112.989 35.6269C123.539 30.0254 125.864 28.8069 126.018 28.7058C104.47 27.7967 105.699 27.6821 105.006 28.0282L87.2323 37.3789Z" fill="#242422"/>
<path d="M87.194 37.8745C87.192 37.8871 87.1236 37.8715 87.0848 37.8691L87.0042 37.8647C86.7746 37.892 86.6188 37.8729 86.4442 37.6255L86.2549 37.3906L86.4912 37.2076C105.534 27.2717 104.739 27.415 105.652 27.3493C105.802 27.3322 104.379 27.259 127.596 28.2782L126.936 28.7009C125.29 29.756 128.181 28.0604 113.221 36.0661C107.891 38.8682 108.53 38.6589 107.945 38.7277C107.307 38.8012 87.2934 37.8798 87.194 37.8745ZM87.2323 37.3789C87.3336 37.3842 107.243 38.3093 107.888 38.2336C108.363 38.1784 107.817 38.3434 112.989 35.6269C123.539 30.0254 125.864 28.8069 126.018 28.7058C104.47 27.7967 105.699 27.6821 105.006 28.0282L87.2323 37.3789Z" fill="white" fill-opacity="0.82"/>
<path d="M104.909 41.9151C98.4044 41.9151 86.7955 40.1228 84.2714 39.7205C83.7844 39.6315 83.5745 39.0927 83.836 38.7003C83.9844 38.4489 84.1867 38.4571 86.4869 37.2099C86.5927 37.1531 86.7247 37.1779 86.8004 37.272L86.8494 37.3385C86.9165 37.3658 107.22 38.3123 107.888 38.2339C108.363 38.1787 107.817 38.3437 112.989 35.6273C113.089 35.5742 125.83 28.8116 125.93 28.7643C126.662 28.2776 126.704 28.2389 126.814 28.2441C126.856 28.2461 130.446 28.407 130.508 28.4144C131.054 28.5124 131.116 28.9481 130.886 29.1827C130.884 29.1919 130.857 29.2215 130.814 29.2642C130.477 29.5407 118.112 37.8182 110.802 40.759C108.388 41.7207 107.487 41.9151 104.909 41.9151ZM86.5437 37.7462C86.2172 37.9175 84.1756 38.9887 84.3063 38.9202C84.193 38.9868 84.1916 39.2006 84.3553 39.2303C87.2042 39.6845 101.718 41.9233 107.173 41.3152C113.118 40.626 130.06 29.1357 130.312 28.9987C130.362 28.9716 130.415 28.9434 130.461 28.9109C125.544 28.6833 127.233 28.7617 126.869 28.7439C125.394 29.6926 127.995 28.1664 113.221 36.0665C107.891 38.8685 108.53 38.6593 107.945 38.728C107.29 38.8033 87.2947 37.8802 87.194 37.8748C87.192 37.8874 87.1236 37.8719 87.0848 37.8694L87.0042 37.8651C86.866 37.8815 86.7613 37.8998 86.5873 37.7831C86.5713 37.7709 86.5568 37.7588 86.5437 37.7462Z" fill="#242422"/>
<path d="M84.2665 39.7195C83.8573 39.6446 83.6814 39.2807 83.9253 39.1191C84.0364 39.0454 84.1874 39.0721 84.2655 39.1822C84.2742 39.1949 84.3048 39.2211 84.3558 39.2303C84.6764 39.2887 84.593 39.7722 84.2665 39.7195Z" fill="#242422"/>
<path d="M103.072 100.128C108.925 98.9022 128.795 98.9004 127.217 98.9004C127.545 98.9004 127.547 99.3951 127.219 99.3974C110.156 99.524 104.719 100.29 103.174 100.614C102.858 100.686 102.747 100.196 103.072 100.128Z" fill="#242422"/>
<path d="M126.796 72.2287H103.225C102.944 72.2287 102.674 72.0886 102.524 71.8482L100.41 68.5424C101.021 67.861 89.9549 54.1729 90.949 52.682C93.4337 52.1851 103.373 52.1849 116.538 53.1055L127.507 70.9665C127.847 71.5175 127.447 72.2287 126.796 72.2287Z" fill="#242422"/>
<path d="M126.796 72.2287H103.225C102.944 72.2287 102.674 72.0886 102.524 71.8482L100.41 68.5424C101.021 67.861 89.9549 54.1729 90.949 52.682C93.4337 52.1851 103.373 52.1849 116.538 53.1055L127.507 70.9665C127.847 71.5175 127.447 72.2287 126.796 72.2287Z" fill="white" fill-opacity="0.82"/>
<path d="M136.147 53.6111C141.65 53.6111 146.111 49.15 146.111 43.6469C146.111 38.1438 141.65 33.6826 136.147 33.6826C130.644 33.6826 126.183 38.1438 126.183 43.6469C126.183 49.15 130.644 53.6111 136.147 53.6111Z" fill="#242422"/>
<path d="M143.278 47.9383C146.087 43.1427 144.515 37 139.767 34.2182C135.019 31.4365 128.892 33.069 126.083 37.8646C123.273 42.6602 124.845 48.8029 129.593 51.5847C134.341 54.3665 140.468 52.7339 143.278 47.9383Z" fill="#AEEA00"/>
<path d="M143.278 47.9383C146.087 43.1427 144.515 37 139.767 34.2182C135.019 31.4365 128.892 33.069 126.083 37.8646C123.273 42.6602 124.845 48.8029 129.593 51.5847C134.341 54.3665 140.468 52.7339 143.278 47.9383Z" fill="white" fill-opacity="0.32"/>
<path d="M141.842 47.0978C143.914 43.5616 142.755 39.0319 139.253 36.9805C135.752 34.9291 131.233 36.1327 129.162 39.6689C127.09 43.2051 128.249 47.7348 131.751 49.7862C135.253 51.8377 139.771 50.634 141.842 47.0978Z" fill="#242422"/>
<path d="M141.021 46.6159C143.092 43.0797 141.933 38.55 138.431 36.4986C134.93 34.4471 130.412 35.6508 128.34 39.187C126.268 42.7232 127.427 47.2529 130.929 49.3043C134.431 51.3557 138.949 50.1521 141.021 46.6159Z" fill="#AEEA00"/>
<path d="M141.021 46.6159C143.092 43.0797 141.933 38.55 138.431 36.4986C134.93 34.4471 130.412 35.6508 128.34 39.187C126.268 42.7232 127.427 47.2529 130.929 49.3043C134.431 51.3557 138.949 50.1521 141.021 46.6159Z" fill="white" fill-opacity="0.32"/>
<path d="M127.303 44.8645C125.63 38.3254 132.715 32.8613 138.557 36.284C142.171 38.4015 143.372 43.0926 141.235 46.7417C137.801 52.6004 128.985 51.4359 127.303 44.8645ZM134.756 35.7492C130.059 35.7492 126.626 40.2098 127.785 44.7412C129.351 50.8629 137.582 51.9944 140.806 46.4903C143.599 41.7225 140.199 35.7492 134.756 35.7492Z" fill="#242422"/>
<path d="M131.89 47.4683C131.829 47.2621 131.958 47.2218 132.534 46.1883L132.595 46.424C131.222 45.6199 130.648 44.44 130.708 44.1479C130.772 43.8506 131.147 43.7256 131.305 44.0846C131.442 44.3956 131.631 44.7039 131.873 45.0099C132.317 45.5711 133.332 46.2143 134.056 46.3152C134.707 46.4055 135.204 46.1499 135.509 45.6293C136.685 43.622 131.682 42.7358 133.278 40.0114C133.989 38.7972 135.399 38.63 136.673 39.326L136.509 39.4029C137.128 38.3986 137.091 38.2822 137.299 38.2359C137.563 38.1753 137.781 38.4566 137.647 38.6857L137.044 39.7161L137.014 39.5394C137.63 39.9166 138.249 40.6372 138.458 41.4359C138.527 41.7052 138.275 41.9675 138.011 41.8129C137.763 41.6679 137.841 40.7553 136.467 39.9504C135.493 39.3797 134.428 39.4103 133.872 40.3595C132.87 42.0698 135.78 42.837 136.342 44.5811C136.627 45.4635 136.028 46.4342 135.291 46.7729C134.5 47.1368 133.617 46.9605 132.833 46.5633L133.074 46.4918C132.44 47.5246 132.473 47.639 132.271 47.6916C132.123 47.7299 131.941 47.6397 131.89 47.4683Z" fill="#242422"/>
<path d="M119.162 72.2285H106.06C103.107 67.2489 106.682 60.7988 112.611 60.7988C118.551 60.7988 122.106 67.2644 119.162 72.2285Z" fill="#242422"/>
<path d="M117.98 72.2287H104.737C101.757 66.9765 105.888 60.271 112.02 60.8291C117.595 61.3174 120.668 67.4933 117.98 72.2287Z" fill="#AEEA00"/>
<path d="M117.98 72.2287H104.737C101.757 66.9765 105.888 60.271 112.02 60.8291C117.595 61.3174 120.668 67.4933 117.98 72.2287Z" fill="white" fill-opacity="0.32"/>
<path d="M116.267 72.2287H107.903C104.718 68.6455 107.211 62.8125 112.08 62.8125C116.925 62.8125 119.467 68.6291 116.267 72.2287Z" fill="#242422"/>
<path d="M115.536 72.2287H107.171C103.971 68.6281 106.516 62.8125 111.359 62.8125C111.479 62.8125 111.599 62.8125 111.719 62.8326C116.401 63.121 118.615 68.7648 115.536 72.2287Z" fill="#AEEA00"/>
<path d="M115.536 72.2287H107.171C103.971 68.6281 106.516 62.8125 111.359 62.8125C111.479 62.8125 111.599 62.8125 111.719 62.8326C116.401 63.121 118.615 68.7648 115.536 72.2287Z" fill="white" fill-opacity="0.32"/>
<path d="M115.648 72.4772H107.06L106.986 72.3937C103.646 68.6362 106.297 62.564 111.359 62.564C111.493 62.564 111.627 62.5649 111.76 62.5873C116.59 62.8831 118.951 68.7617 115.722 72.3937L115.648 72.4772ZM107.284 71.9802H115.423C118.388 68.5041 115.896 63.0199 111.359 63.0609C106.776 63.0609 104.332 68.5174 107.284 71.9802Z" fill="#242422"/>
<path d="M110.117 67.8214C109.739 67.4441 109.72 66.638 110.267 66.1885C110.876 65.6884 112.163 65.6799 112.962 66.3988C113.224 66.6175 113.505 66.2718 113.282 66.0484C112.818 65.6057 112.181 65.3861 111.68 65.3672C111.662 64.5406 111.72 64.511 111.619 64.3856C111.461 64.2584 111.209 64.3401 111.209 64.5558V65.357C110.848 65.3672 110.538 65.4572 110.257 65.5976C109.149 66.1512 109.087 67.5471 109.706 68.1421C110.663 69.1359 112.952 68.5134 112.952 69.945C112.952 70.7883 112.231 71.0971 111.379 71.0971C109.963 71.0971 109.701 70.486 109.426 70.486C109.232 70.486 109.107 70.7477 109.325 70.9668C109.732 71.2881 110.396 71.5647 111.209 71.588V72.229H111.68V71.5779C112.673 71.4902 113.503 70.9495 113.503 69.9149C113.503 68.0609 110.818 68.5631 110.117 67.8214Z" fill="#242422"/>
<path d="M109.807 54.1832C109.694 54.3496 109.74 54.5295 109.536 54.6619C109.325 54.7996 108.636 54.9024 107.951 55.0255C107.596 55.0894 106.978 55.013 106.952 55.5188C106.946 55.6393 106.981 55.7577 107.017 55.8731C107.739 58.25 108.068 58.7436 110.651 58.3214C112.846 57.9624 114.973 57.0595 116.933 56.0352C118.785 55.0675 120.606 53.9182 122.117 52.4626C122.623 51.9753 123.125 51.4389 123.463 50.8172C123.863 50.0816 123.578 49.3772 123.295 48.6049C122.949 47.6591 122.843 47.2713 122.583 47.0042C122.384 46.8004 122.063 46.6878 121.808 46.8151C121.615 46.9119 121.506 47.1172 121.401 47.3065C121.129 47.7994 120.808 48.2655 120.445 48.6958C119.947 49.2862 118.513 49.3869 117.785 49.6478C113.605 51.1473 110.049 53.8263 109.807 54.1832Z" fill="#242422"/>
<path d="M116.6 54.9133C121.021 52.6034 123.869 49.3219 122.961 47.5838C122.053 45.8457 117.733 46.3093 113.312 48.6193C108.891 50.9292 106.043 54.2107 106.951 55.9488C107.859 57.6869 112.179 57.2233 116.6 54.9133Z" fill="#AEEA00"/>
<path d="M116.6 54.9133C121.021 52.6034 123.869 49.3219 122.961 47.5838C122.053 45.8457 117.733 46.3093 113.312 48.6193C108.891 50.9292 106.043 54.2107 106.951 55.9488C107.859 57.6869 112.179 57.2233 116.6 54.9133Z" fill="white" fill-opacity="0.32"/>
<path d="M57.6835 83.3856C57.6791 83.3856 57.6742 83.3856 57.6694 83.3851C57.5325 83.3774 57.4277 83.2604 57.4355 83.1231C57.5769 80.6016 57.4867 77.4635 57.78 74.9532C57.8192 74.631 58.3116 74.6823 58.2741 75.0114C57.9844 77.4846 58.0733 80.6426 57.9315 83.1512C57.9242 83.2832 57.8145 83.3856 57.6835 83.3856Z" fill="#242422"/>
<path d="M45.3086 84.1525H45.3033C45.1659 84.1496 45.0572 84.0361 45.0601 83.8987C45.1204 81.1349 45.1941 77.2187 45.2591 74.1782C45.262 74.0428 45.3727 73.9351 45.5076 73.9351H45.5129C45.6503 73.938 45.759 74.0515 45.7561 74.1889C45.6826 77.6258 45.6309 80.4814 45.5571 83.9094C45.5542 84.0448 45.4435 84.1525 45.3086 84.1525Z" fill="#242422"/>
<path d="M70.515 130.888C68.368 132.041 65.8732 132.349 63.4381 132.568C54.3209 133.393 45.6873 133.363 36.3433 133.015C32.2681 132.856 27.5668 133.085 23.7302 131.415C20.0725 129.824 18.9891 126.445 18.8997 122.688C18.7605 115.989 19.7545 109.18 21.2155 102.66C23.3128 93.2276 27.4376 84.3517 36.5918 80.048C47.545 74.8895 61.9869 79.4317 68.2687 89.7488C69.1135 91.1502 69.8291 92.6212 70.4255 94.1419C70.177 95.8515 70.177 97.5909 70.4056 99.3006C70.3261 99.5788 70.2565 99.8571 70.1869 100.135C68.4277 107.59 62.7324 113.186 59.1443 119.736C58.6473 120.64 56.6196 123.046 57.4049 124.05C57.6534 124.368 58.0211 124.557 58.3889 124.735C67.2701 129.282 68.1128 129.761 69.7099 130.083C70.1571 130.172 70.6243 130.222 71.0318 130.033C71.9562 129.616 72.3736 125.471 72.7016 124.398C73.3477 122.33 74.0633 120.263 75.0871 118.354C75.3256 123.672 74.4808 128.751 70.515 130.888Z" fill="#AEEA00"/>
<path d="M70.515 130.888C68.368 132.041 65.8732 132.349 63.4381 132.568C54.3209 133.393 45.6873 133.363 36.3433 133.015C32.2681 132.856 27.5668 133.085 23.7302 131.415C20.0725 129.824 18.9891 126.445 18.8997 122.688C18.7605 115.989 19.7545 109.18 21.2155 102.66C23.3128 93.2276 27.4376 84.3517 36.5918 80.048C47.545 74.8895 61.9869 79.4317 68.2687 89.7488C69.1135 91.1502 69.8291 92.6212 70.4255 94.1419C70.177 95.8515 70.177 97.5909 70.4056 99.3006C70.3261 99.5788 70.2565 99.8571 70.1869 100.135C68.4277 107.59 62.7324 113.186 59.1443 119.736C58.6473 120.64 56.6196 123.046 57.4049 124.05C57.6534 124.368 58.0211 124.557 58.3889 124.735C67.2701 129.282 68.1128 129.761 69.7099 130.083C70.1571 130.172 70.6243 130.222 71.0318 130.033C71.9562 129.616 72.3736 125.471 72.7016 124.398C73.3477 122.33 74.0633 120.263 75.0871 118.354C75.3256 123.672 74.4808 128.751 70.515 130.888Z" fill="white" fill-opacity="0.32"/>
<path d="M28.8332 63.1309C25.929 61.2633 24.5134 57.3686 25.5403 54.0718C26.5575 50.7755 29.9194 48.3897 33.3681 48.4503C34.3018 48.4819 35.2419 48.7226 36.0189 49.1283C36.2671 49.2381 36.1878 49.6035 35.9257 49.6035H35.916C35.8757 49.6035 35.8359 49.5938 35.8005 49.5748C35.0861 49.1992 34.2169 48.9764 33.353 48.9473C33.2933 48.9454 33.2336 48.9449 33.1739 48.9449C30.0082 48.9449 26.9511 51.1842 26.0149 54.2189C25.0521 57.3104 26.3794 60.962 29.1026 62.713C30.9118 63.8846 33.286 64.183 35.4545 63.5099C35.7697 63.4128 35.9153 63.8871 35.602 63.9845C34.7896 64.2364 30.7283 64.3585 28.8332 63.1309Z" fill="#242422"/>
<path d="M30.9009 57.7056C30.7694 56.6801 31.1009 55.6046 31.7866 54.8291C32.0047 54.5822 32.3766 54.9118 32.1593 55.1582C31.5668 55.8284 31.2804 56.7568 31.394 57.6425C31.4115 57.7784 31.3154 57.9031 31.179 57.9206C31.0465 57.9387 30.9185 57.8434 30.9009 57.7056Z" fill="#242422"/>
<path d="M46.9151 74.8943C41.7022 73.567 37.2829 69.4252 35.3814 64.0857C33.7958 59.6343 33.2047 53.115 36.2982 48.1672C36.4736 47.889 36.8937 48.1526 36.7194 48.4302C33.7196 53.2286 34.303 59.5771 35.8492 63.9188C37.6964 69.1044 41.9832 73.1258 47.0374 74.4129C47.3572 74.4946 47.2311 74.9771 46.9151 74.8943Z" fill="#242422"/>
<path d="M55.2472 75.686C54.927 75.686 54.9142 75.2065 55.2341 75.1895C61.7826 74.8391 66.1422 69.6418 67.5579 64.6464C69.1265 59.1137 68.1563 52.8826 67.29 48.6768C67.2233 48.3583 67.7104 48.2495 67.7763 48.5769C68.6533 52.8336 69.6346 59.1448 68.0364 64.7823C66.5722 69.9475 62.0544 75.322 55.2603 75.6855C55.256 75.686 55.2516 75.686 55.2472 75.686Z" fill="#242422"/>
<path d="M57.9571 64.2377C57.8073 63.6851 59.2432 63.9641 60.3017 63.2942C61.3641 62.6268 61.1633 61.4898 61.1831 60.1042C61.2423 56.3437 61.2918 56.8363 61.351 53.0884C61.3529 52.951 61.4641 52.8651 61.6033 52.8438C61.7407 52.8462 61.8499 52.9588 61.8479 53.0961C61.8049 55.8294 61.6673 59.0106 61.68 60.7021C61.6907 61.8853 61.6999 63.0025 60.5667 63.715C59.7573 64.2267 59.0594 64.1944 58.2624 64.4119C58.127 64.448 57.9925 64.3679 57.9571 64.2377Z" fill="#242422"/>
<path d="M53.5375 67.2032C52.3862 66.2296 52.7436 64.4872 53.2721 64.7431C53.3958 64.8033 53.4473 64.9518 53.3876 65.0751C53.1226 65.6211 53.325 66.3728 53.8588 66.8237C54.498 67.3644 55.3633 67.3901 55.8205 67.3527C56.1448 67.3279 56.1882 67.8229 55.8574 67.8487C54.827 67.923 54.0464 67.6336 53.5375 67.2032Z" fill="#242422"/>
<path d="M68.645 48.9096C66.6701 50.3016 65.3175 49.2399 63.5779 48.3663C61.7342 47.4405 60.1772 47.1148 58.6243 45.5362C58.0587 44.9612 57.7303 45.065 57.4372 45.6712C56.7932 47.003 55.8773 48.268 54.5692 48.9588C52.4385 50.0841 49.4925 49.2526 48.2645 47.1794C47.2036 49.4177 44.4925 50.7779 41.8303 49.784C41.4205 49.631 40.2997 48.628 39.9755 48.6552C39.2418 48.7166 37.8522 51.4564 37.4205 52.1364C36.5396 53.5243 35.7469 54.9747 35.0114 56.4443C34.829 56.8088 34.4408 56.9474 34.4247 56.4856C34.3973 55.6989 34.4331 54.9108 34.5062 54.127C34.6839 52.2241 36.2495 49.5982 33.7409 49.0803C29.8013 49.0803 27.8573 51.9129 27.568 49.4451C26.8491 43.3137 32.1059 37.3062 36.0868 37.0126C38.0086 36.8708 40.1124 38.1155 40.3925 40.0221C41.1932 37.5703 42.4963 35.229 44.4533 33.549C46.4103 31.869 49.0746 30.9166 51.615 31.3624C54.1554 31.8082 56.4527 33.803 56.9059 36.3421C57.5021 33.819 60.7131 32.638 63.1851 33.4193C65.657 34.2007 67.4383 36.3536 68.7782 38.5729C69.7612 40.2011 70.6034 41.976 70.7419 43.8729C70.8801 45.7655 70.2022 47.812 68.645 48.9096Z" fill="#242422"/>
<path d="M64.1711 53.0775C63.8007 53.1955 63.4512 53.4769 63.3864 53.8602C63.1733 55.1209 66.1309 57.014 67.514 57.3175C68.4628 57.5257 69.2629 56.9621 68.6141 55.9654C68.21 55.3446 67.6622 54.8258 67.0908 54.3712C66.2157 53.6751 65.3196 52.7113 64.1711 53.0775Z" fill="#242422"/>
<path d="M65.112 58.0588C64.0599 58.0097 63.852 60.5766 64.5099 61.1785C64.7961 61.4403 65.2726 61.4085 65.5823 61.175C66.7091 60.3252 65.9718 58.0989 65.112 58.0588Z" fill="#242422"/>
<path d="M51.2322 52.441C51.1062 52.8087 51.1239 53.2571 51.3931 53.5376C52.0345 54.2059 53.8498 53.6718 54.7309 53.3409C57.7457 52.2085 57.5821 50.6797 56.1992 50.5945C55.4599 50.549 54.7168 50.6797 54.0112 50.8676C52.9307 51.1554 51.6227 51.3005 51.2322 52.441Z" fill="#242422"/>
<path d="M53.3874 54.9167C52.3353 54.8676 52.1274 57.4345 52.7853 58.0364C53.0715 58.2982 53.5479 58.2664 53.8577 58.0329C54.9845 57.1832 54.2472 54.9568 53.3874 54.9167Z" fill="#242422"/>
<path d="M70.1569 99.3102C70.1086 98.5652 69.7788 96.8619 70.1792 94.1061C70.6105 90.9066 72.3814 85.9745 74.9902 84.2633C75.724 83.794 76.4224 83.7246 76.9101 84.0692C77.6969 84.6285 77.4419 85.709 77.1955 86.6224C77.1827 86.8147 77.0137 87.0745 76.8266 87.4421C76.7191 87.8208 76.1475 87.5323 76.3826 87.2189L76.6791 86.6448C76.8217 85.946 77.2307 84.9078 76.6228 84.4744C74.9378 83.2848 69.4666 90.3903 70.6514 99.2675C70.6514 99.6236 70.1569 99.6116 70.1569 99.3102Z" fill="#242422"/>
<path d="M58.276 124.956C57.8722 124.76 57.4835 124.552 57.2098 124.202C56.2855 123.021 58.3949 120.586 58.9268 119.615C60.1761 117.336 61.7014 115.139 63.1763 113.014C72.0685 100.205 68.1278 101.845 72.5115 93.4006C74.8549 88.8615 78.4542 84.2014 82.0549 80.4809C82.861 79.6544 83.9049 79.0482 84.9959 78.773C84.9959 78.7721 85.1163 78.7425 85.1172 78.7425C87.9584 78.0453 90.0146 80.3704 88.9872 83.1938C88.6982 83.9808 87.2065 86.2157 86.73 86.9298C88.1471 85.7963 90.9805 84.213 92.7994 84.362C93.5308 84.4314 94.1661 84.7449 94.5558 85.2244C94.5839 85.2436 94.6086 85.2722 94.6252 85.3016C95.0295 85.7572 95.2422 86.681 94.8377 87.6569C94.2686 89.0335 92.0888 90.8581 90.8901 91.7496C91.7126 91.4705 92.4205 91.2883 93.2163 91.3933C93.8764 91.4661 93.8832 91.4443 93.9598 91.4836C95.2061 91.7992 96.0974 92.7077 96.2937 93.7476C96.6417 95.6215 95.0042 96.8348 93.7419 97.5846C93.1561 97.935 92.5203 98.2839 91.6802 98.7159C88.9765 100.087 87.0944 102.745 86.6445 105.826C86.3324 107.989 85.2977 109.637 83.7845 111.21C81.1669 113.849 76.8429 115.139 75.3128 118.458C74.2693 120.404 73.5554 122.498 72.9391 124.471C72.5888 125.617 72.2273 129.765 71.1346 130.259C69.582 130.978 66.5908 129.212 58.276 124.956ZM82.4116 80.8269C78.8541 84.503 75.2777 89.1248 72.9526 93.6292C68.62 101.97 72.5198 100.427 63.5845 113.297C59.5817 119.063 59.8749 119.133 58.854 120.647C56.9316 123.5 57.1972 123.877 58.4978 124.512C66.7521 128.735 68.1267 129.51 69.7592 129.839C70.1397 129.915 70.576 129.971 70.9279 129.807C71.6736 129.47 72.172 125.282 72.4639 124.324C73.9545 119.555 74.9038 118.223 75.0672 117.858C76.9168 114.555 80.8909 113.421 83.4293 110.863C84.8599 109.376 85.8608 107.805 86.1524 105.755C86.6261 102.514 88.6077 99.7166 91.4541 98.2733C93.4537 97.2442 96.1923 95.9252 95.8055 93.8389C95.7206 93.3914 95.4658 92.9566 95.0882 92.6168C94.2878 91.9276 93.6743 91.9427 93.1624 91.8874C93.063 91.8915 92.5595 91.7322 91.374 92.1121C90.417 92.4247 89.5948 92.7498 88.6979 93.3176C88.5839 93.388 88.4339 93.3584 88.3582 93.2453C88.1664 92.9576 88.6094 92.8029 88.7077 92.7032C90.2123 91.6473 93.6467 89.2373 94.3786 87.4666C94.7214 86.639 94.5136 85.8904 94.234 85.6107C94.2193 85.596 94.2046 85.5811 94.1932 85.5666C93.8904 85.1735 93.3663 84.9153 92.7557 84.857C92.0035 84.7964 91.2464 85.0405 90.6713 85.2594C88.5615 86.082 86.6615 87.3356 85.2512 89.108C85.0546 89.3548 84.6722 89.0757 84.8513 88.8134C85.4546 87.9356 88.1571 84.0137 88.5203 83.023C88.9309 81.8951 88.778 80.6939 88.1306 79.964C86.732 78.3602 83.9409 79.2596 82.4116 80.8269ZM93.9598 91.4836C93.936 91.472 93.8991 91.4579 93.8535 91.4579C93.8934 91.4671 93.9068 91.4702 93.9598 91.4836Z" fill="#242422"/>
<path d="M93.7829 91.9448C93.6234 91.9312 93.83 91.9597 92.8448 91.8545C92.5379 91.8248 92.5515 91.3688 92.8608 91.3585C93.1937 91.3512 93.5218 91.3803 93.8392 91.4541C93.9654 91.4837 94.0474 91.6046 94.029 91.7327C94.0105 91.855 93.9052 91.9448 93.7829 91.9448Z" fill="#242422"/>
<path d="M83.0649 91.7119C83.505 90.5928 84.1374 89.5736 84.944 88.6816C85.1664 88.4393 85.5328 88.7711 85.3129 89.0155C84.5461 89.8624 83.9452 90.8306 83.5269 91.8934C83.4071 92.1996 82.944 92.0175 83.0649 91.7119Z" fill="#242422"/>
<path d="M86.8656 94.8143C86.7613 94.7255 86.7487 94.5687 86.8375 94.4639C87.6159 93.5481 88.5439 92.7881 89.5961 92.2052C89.8872 92.048 90.1227 92.4815 89.8368 92.64C87.4526 93.9601 87.2924 95.1751 86.8656 94.8143Z" fill="#242422"/>
<path d="M53.9886 120.679C61.3981 110.699 61.1937 110.81 61.9184 110.411C62.791 109.931 63.8658 110.148 64.8351 110.377C68.1865 111.171 71.5692 112.108 74.7859 113.291C77.2913 114.212 79.6464 115.406 82.184 116.24C82.5124 116.348 82.8533 116.463 83.0999 116.705C83.4969 117.095 83.552 117.726 83.4239 118.268C83.2958 118.809 83.0157 119.301 82.8215 119.823C82.404 120.944 82.394 122.16 82.0699 123.304C81.7946 124.277 81.112 125.092 80.5532 125.93C75.7207 133.169 67.7972 140.106 59.0482 141.514C48.2062 143.259 37.9072 143.478 27.4702 139.66C23.7097 138.285 21.7043 137.511 20.2703 133.501C18.8725 129.592 18.5545 125.286 19.4696 121.229" fill="#AEEA00"/>
<path d="M53.9886 120.679C61.3981 110.699 61.1937 110.81 61.9184 110.411C62.791 109.931 63.8658 110.148 64.8351 110.377C68.1865 111.171 71.5692 112.108 74.7859 113.291C77.2913 114.212 79.6464 115.406 82.184 116.24C82.5124 116.348 82.8533 116.463 83.0999 116.705C83.4969 117.095 83.552 117.726 83.4239 118.268C83.2958 118.809 83.0157 119.301 82.8215 119.823C82.404 120.944 82.394 122.16 82.0699 123.304C81.7946 124.277 81.112 125.092 80.5532 125.93C75.7207 133.169 67.7972 140.106 59.0482 141.514C48.2062 143.259 37.9072 143.478 27.4702 139.66C23.7097 138.285 21.7043 137.511 20.2703 133.501C18.8725 129.592 18.5545 125.286 19.4696 121.229" fill="white" fill-opacity="0.32"/>
<path d="M81.9688 123.255C81.8387 123.211 81.7698 123.069 81.8145 122.939L83.234 118.799C83.6257 117.658 83.6245 116.952 81.6267 116.315C59.3076 109.203 60.4732 109.514 60.2414 109.583C59.9679 109.665 60.2973 109.302 52.9844 120.533C52.9092 120.649 52.7553 120.682 52.6408 120.606C52.5258 120.531 52.4933 120.377 52.568 120.262C59.9236 108.948 59.5815 109.262 60.0987 109.107C60.5558 108.971 59.1912 108.638 81.7781 115.841C82.6657 116.125 83.7106 116.575 83.9106 117.548C84.0144 118.057 83.8422 118.557 83.7038 118.96L82.2843 123.1C82.2392 123.232 82.097 123.299 81.9688 123.255Z" fill="#242422"/>
<path d="M30.2085 27.1446C30.0263 26.8719 30.4391 26.5946 30.622 26.8689C31.6946 28.4758 32.672 30.1691 33.5276 31.9017C33.5883 32.025 33.5378 32.174 33.415 32.2347C32.9162 32.4806 33.1021 31.4817 30.2085 27.1446Z" fill="#242422"/>
<path d="M35.6654 31.9856C35.862 30.5433 35.83 29.0854 35.5708 27.6532C35.512 27.3264 36.0024 27.2483 36.06 27.5648C36.3284 29.0485 36.3614 30.5583 36.1576 32.0526C36.1128 32.381 35.6215 32.3097 35.6654 31.9856Z" fill="#242422"/>
<path d="M32.5334 34.1271C28.8004 31.9557 27.9323 32.1851 28.1335 31.6971C28.1859 31.57 28.332 31.5079 28.4577 31.5622C29.9418 32.1728 31.3968 32.8915 32.7829 33.6971C33.0674 33.8632 32.8174 34.2919 32.5334 34.1271Z" fill="#242422"/>
<path d="M125.767 138.657C125.449 138.657 125.433 138.182 125.751 138.161C132.867 137.682 138.331 131.583 138.011 124.446C137.972 123.561 137.842 122.925 137.247 122.345C136.343 123.173 135.142 124.117 133.926 124.193C132.321 124.287 131.082 122.81 132 121.427C133.167 119.669 135.564 120.399 137.232 121.677C142.574 116.461 142.631 108.138 137.774 102.869C137.55 102.627 137.919 102.291 138.139 102.533C143.059 107.869 143.229 116.48 137.609 122.003C138.304 122.689 138.463 123.433 138.508 124.424C138.839 131.82 133.18 138.159 125.784 138.657C125.778 138.657 125.772 138.657 125.767 138.657ZM132.414 121.701C131.729 122.736 132.695 123.78 133.895 123.697C134.957 123.63 136.066 122.744 136.864 122.023C135.442 120.972 133.388 120.233 132.414 121.701Z" fill="#242422"/>
</svg>
