<svg width="165" height="165" viewBox="0 0 165 165" fill="none" xmlns="http://www.w3.org/2000/svg">
<g opacity="0.56">
<path d="M92.8916 91.6627C91.6302 91.6627 89.7136 92.4685 88.6016 93.1726C89.4116 92.6028 90.2316 92.0327 91.0215 91.4326C91.6416 91.5127 92.2715 91.5928 92.8916 91.6627Z" fill="#242422"/>
<path d="M92.8916 91.6627C91.6302 91.6627 89.7136 92.4685 88.6016 93.1726C89.4116 92.6028 90.2316 92.0327 91.0215 91.4326C91.6416 91.5127 92.2715 91.5928 92.8916 91.6627Z" fill="white" fill-opacity="0.82"/>
</g>
<path d="M88.3618 83.9629C88.7117 84.5029 89.0718 85.043 89.4218 85.583C87.7418 86.3929 86.2418 87.5229 85.0718 88.9929C85.3718 88.553 87.4218 85.593 88.3618 83.9629Z" fill="#242422"/>
<path d="M88.3618 83.9629C88.7117 84.5029 89.0718 85.043 89.4218 85.583C87.7418 86.3929 86.2418 87.5229 85.0718 88.9929C85.3718 88.553 87.4218 85.593 88.3618 83.9629Z" fill="white" fill-opacity="0.82"/>
<path d="M127.881 71.203C127.971 71.683 127.601 72.1631 127.061 72.1631H103.351C103.071 72.1631 102.801 72.0231 102.641 71.7831C86.5392 46.6498 92.0929 55.3183 90.8915 53.443C90.5514 52.9031 90.9114 52.203 91.5414 52.1631C91.0414 52.113 90.5214 52.3031 90.2114 52.733C87.5473 56.4762 83.7451 61.8116 80.8214 66.0031C80.1314 66.9931 78.5614 68.5231 79.0614 69.7631C79.5214 70.9031 80.5014 72.0231 81.1714 73.0631C81.1914 73.0932 81.2015 73.1131 81.2314 73.1431C82.2914 74.7731 83.3614 76.4031 84.4314 78.0231C84.6415 78.3432 84.8614 78.673 85.0714 78.9931C88.1986 78.2101 90.1317 80.9298 88.3614 83.963C88.7114 84.5031 89.0714 85.0431 89.4214 85.5831C89.8576 85.3648 90.2901 85.173 90.6314 85.0431C91.8758 84.5698 93.3585 84.3105 94.3014 85.2531C97.3114 81.0831 100.131 76.733 102.681 72.2831C102.849 71.9958 103.285 72.2534 103.121 72.5331C100.531 77.0331 97.6814 81.433 94.6314 85.6531C94.9026 86.0594 95.001 86.8207 94.6814 87.5932C94.3404 88.4172 93.6937 89.0123 93.2314 89.5131C94.79 89.8626 115.078 90.0557 115.761 90.0631C116.271 90.0631 116.731 89.8231 116.981 89.423C117.615 88.4407 113.933 94.1488 127.901 72.4931C128.181 72.0631 128.141 71.5731 127.881 71.203Z" fill="#242422"/>
<path d="M127.881 71.203C127.971 71.683 127.601 72.1631 127.061 72.1631H103.351C103.071 72.1631 102.801 72.0231 102.641 71.7831C86.5392 46.6498 92.0929 55.3183 90.8915 53.443C90.5514 52.9031 90.9114 52.203 91.5414 52.1631C91.0414 52.113 90.5214 52.3031 90.2114 52.733C87.5473 56.4762 83.7451 61.8116 80.8214 66.0031C80.1314 66.9931 78.5614 68.5231 79.0614 69.7631C79.5214 70.9031 80.5014 72.0231 81.1714 73.0631C81.1914 73.0932 81.2015 73.1131 81.2314 73.1431C82.2914 74.7731 83.3614 76.4031 84.4314 78.0231C84.6415 78.3432 84.8614 78.673 85.0714 78.9931C88.1986 78.2101 90.1317 80.9298 88.3614 83.963C88.7114 84.5031 89.0714 85.0431 89.4214 85.5831C89.8576 85.3648 90.2901 85.173 90.6314 85.0431C91.8758 84.5698 93.3585 84.3105 94.3014 85.2531C97.3114 81.0831 100.131 76.733 102.681 72.2831C102.849 71.9958 103.285 72.2534 103.121 72.5331C100.531 77.0331 97.6814 81.433 94.6314 85.6531C94.9026 86.0594 95.001 86.8207 94.6814 87.5932C94.3404 88.4172 93.6937 89.0123 93.2314 89.5131C94.79 89.8626 115.078 90.0557 115.761 90.0631C116.271 90.0631 116.731 89.8231 116.981 89.423C117.615 88.4407 113.933 94.1488 127.901 72.4931C128.181 72.0631 128.141 71.5731 127.881 71.203Z" fill="white" fill-opacity="0.64"/>
<path d="M127.061 72.4125H103.351C102.982 72.4125 102.639 72.2289 102.433 71.9213C86.3278 46.7823 91.8826 55.4528 90.6809 53.5771C90.2157 52.8388 90.7563 51.9028 91.6116 51.9028C97.8806 51.8285 105.85 51.9086 115.968 52.1425C116.338 52.1425 116.68 52.3373 116.876 52.664C128.952 72.3201 128.119 70.8546 128.131 71.1782C128.236 71.8112 127.742 72.4125 127.061 72.4125ZM91.0755 52.728C90.9807 52.914 90.991 53.1313 91.1028 53.309C103.426 72.3339 102.72 71.9125 103.351 71.9125C128.349 71.8354 127.184 72.1005 127.514 71.704C127.701 71.4794 127.632 71.3032 127.632 71.2026C127.632 71.1562 127.608 71.0883 127.567 71.0209C115.861 52.1537 116.558 52.6425 115.962 52.6425C105.86 52.4091 97.907 52.3324 91.6419 52.4023C91.5403 52.4313 91.2465 52.3948 91.0755 52.728Z" fill="#DDDDDB"/>
<path d="M105.032 27.4731L86.6317 37.1531C84.3567 38.4333 84.0503 38.3416 83.9816 38.7531C83.9716 38.7631 83.9517 38.7631 83.9417 38.7731C83.5148 38.9284 83.554 39.2092 82.0416 32.6331C81.9216 32.1331 82.1716 31.6131 82.6317 31.3831C83.037 31.1708 102.182 21.5676 102.932 21.183C103.272 21.0231 103.652 20.923 104.022 20.8432L104.032 20.8332C104.416 20.7561 104.602 20.7284 104.672 21.1431C104.742 21.5631 104.732 21.9731 104.732 22.3931C104.742 22.5431 104.792 22.6631 104.822 22.8031C104.837 22.8716 105.131 24.7639 105.142 24.8332C105.192 25.1431 105.212 25.4031 105.382 25.693C105.502 25.9031 105.642 26.0932 105.702 26.3432C105.762 26.5631 105.862 26.7731 105.912 27.0031V27.0131C106.02 27.3911 105.672 27.1531 105.032 27.4731Z" fill="#242422"/>
<path d="M105.032 27.4731L86.6317 37.1531C84.3567 38.4333 84.0503 38.3416 83.9816 38.7531C83.9716 38.7631 83.9517 38.7631 83.9417 38.7731C83.5148 38.9284 83.554 39.2092 82.0416 32.6331C81.9216 32.1331 82.1716 31.6131 82.6317 31.3831C83.037 31.1708 102.182 21.5676 102.932 21.183C103.272 21.0231 103.652 20.923 104.022 20.8432L104.032 20.8332C104.416 20.7561 104.602 20.7284 104.672 21.1431C104.742 21.5631 104.732 21.9731 104.732 22.3931C104.742 22.5431 104.792 22.6631 104.822 22.8031C104.837 22.8716 105.131 24.7639 105.142 24.8332C105.192 25.1431 105.212 25.4031 105.382 25.693C105.502 25.9031 105.642 26.0932 105.702 26.3432C105.762 26.5631 105.862 26.7731 105.912 27.0031V27.0131C106.02 27.3911 105.672 27.1531 105.032 27.4731Z" fill="white" fill-opacity="0.64"/>
<path d="M131.002 28.6829C131.102 28.5831 131.094 28.3917 130.772 28.333C130.538 28.3055 119.434 27.8404 117.222 27.7329C105.787 27.0562 106.402 27.1969 105.912 27.0129C105.387 26.7943 105.23 26.5468 105.092 26.0229C104.629 24.4661 104.144 23.2418 104.272 21.7029C104.292 21.543 104.362 21.3729 104.212 21.2329C104.162 21.1829 104.082 21.163 104.012 21.1229C103.888 21.0407 103.87 20.9183 104.022 20.843L104.032 20.833C105.856 19.9438 110.057 20.6591 128.972 21.7729C129.462 21.803 129.872 22.1529 129.992 22.6229C130.142 23.2529 130.302 23.8729 130.452 24.5029C131.164 27.3541 130.65 25.545 131.232 28.4529C131.262 28.6935 131.15 28.7463 131.002 28.6829Z" fill="#242422"/>
<path d="M131.002 28.6829C131.102 28.5831 131.094 28.3917 130.772 28.333C130.538 28.3055 119.434 27.8404 117.222 27.7329C105.787 27.0562 106.402 27.1969 105.912 27.0129C105.387 26.7943 105.23 26.5468 105.092 26.0229C104.629 24.4661 104.144 23.2418 104.272 21.7029C104.292 21.543 104.362 21.3729 104.212 21.2329C104.162 21.1829 104.082 21.163 104.012 21.1229C103.888 21.0407 103.87 20.9183 104.022 20.843L104.032 20.833C105.856 19.9438 110.057 20.6591 128.972 21.7729C129.462 21.803 129.872 22.1529 129.992 22.6229C130.142 23.2529 130.302 23.8729 130.452 24.5029C131.164 27.3541 130.65 25.545 131.232 28.4529C131.262 28.6935 131.15 28.7463 131.002 28.6829Z" fill="white" fill-opacity="0.64"/>
<path d="M127.072 28.1632C126.822 28.3232 126.562 28.4931 126.302 28.6632C125.337 29.1201 108.635 38.1469 108.072 38.2131C107.275 38.3052 87.9495 37.3432 87.0318 37.3432C86.9309 37.3432 86.8819 37.3901 86.7518 37.3032C86.7118 37.2732 86.6718 37.2031 86.6318 37.1532C106.047 27.0735 104.888 27.2531 106.072 27.2531C107.516 27.311 126.811 28.1515 127.072 28.1632Z" fill="#242422"/>
<path d="M127.072 28.1632C126.822 28.3232 126.562 28.4931 126.302 28.6632C125.337 29.1201 108.635 38.1469 108.072 38.2131C107.275 38.3052 87.9495 37.3432 87.0318 37.3432C86.9309 37.3432 86.8819 37.3901 86.7518 37.3032C86.7118 37.2732 86.6718 37.2031 86.6318 37.1532C106.047 27.0735 104.888 27.2531 106.072 27.2531C107.516 27.311 126.811 28.1515 127.072 28.1632Z" fill="white" fill-opacity="0.82"/>
<path d="M87.2227 37.6032C87.2207 37.6159 87.1519 37.6003 87.1128 37.5979L87.0317 37.5935C86.8007 37.6209 86.644 37.6017 86.4683 37.3527L86.2778 37.1164L86.5156 36.9323C105.674 26.9358 104.874 27.08 105.793 27.0139C105.944 26.9967 104.513 26.9231 127.871 27.9484L127.207 28.3737C125.551 29.4353 128.46 27.7293 113.409 35.7839C108.045 38.6031 108.689 38.3925 108.101 38.4616C107.459 38.5356 87.3227 37.6086 87.2227 37.6032ZM87.2612 37.1047C87.3632 37.1099 107.393 38.0407 108.043 37.9646C108.521 37.909 107.971 38.075 113.175 35.342C123.79 29.7063 126.128 28.4804 126.283 28.3786C104.604 27.464 105.84 27.3487 105.144 27.697L87.2612 37.1047Z" fill="#242422"/>
<path d="M87.2227 37.6032C87.2207 37.6159 87.1519 37.6003 87.1128 37.5979L87.0317 37.5935C86.8007 37.6209 86.644 37.6017 86.4683 37.3527L86.2778 37.1164L86.5156 36.9323C105.674 26.9358 104.874 27.08 105.793 27.0139C105.944 26.9967 104.513 26.9231 127.871 27.9484L127.207 28.3737C125.551 29.4353 128.46 27.7293 113.409 35.7839C108.045 38.6031 108.689 38.3925 108.101 38.4616C107.459 38.5356 87.3227 37.6086 87.2227 37.6032ZM87.2612 37.1047C87.3632 37.1099 107.393 38.0407 108.043 37.9646C108.521 37.909 107.971 38.075 113.175 35.342C123.79 29.7063 126.128 28.4804 126.283 28.3786C104.604 27.464 105.84 27.3487 105.144 27.697L87.2612 37.1047Z" fill="white" fill-opacity="0.82"/>
<path d="M105.045 41.6679C98.5013 41.6679 86.8216 39.8647 84.282 39.4599C83.7921 39.3704 83.5809 38.8282 83.8441 38.4335C83.9933 38.1806 84.1968 38.1888 86.5111 36.934C86.6175 36.8769 86.7503 36.9018 86.8265 36.9965L86.8758 37.0634C86.9433 37.0909 107.37 38.0431 108.043 37.9643C108.521 37.9087 107.971 38.0747 113.175 35.3417C113.276 35.2883 126.094 28.4845 126.195 28.4369C126.931 27.9472 126.973 27.9083 127.084 27.9135C127.126 27.9155 130.738 28.0775 130.801 28.0849C131.35 28.1834 131.412 28.6218 131.18 28.8578C131.179 28.8671 131.152 28.8969 131.108 28.9399C130.769 29.218 118.329 37.546 110.975 40.5048C108.546 41.4724 107.64 41.6679 105.045 41.6679ZM86.5682 37.4735C86.2398 37.6459 84.1857 38.7237 84.3172 38.6547C84.2032 38.7218 84.2017 38.9369 84.3665 38.9667C87.2327 39.4237 101.835 41.6762 107.324 41.0644C113.304 40.3709 130.35 28.8105 130.604 28.6728C130.654 28.6454 130.707 28.6171 130.754 28.5844C125.807 28.3554 127.506 28.4343 127.139 28.4164C125.655 29.3709 128.272 27.8354 113.409 35.7836C108.045 38.6028 108.689 38.3922 108.1 38.4613C107.441 38.5371 87.3238 37.6084 87.2225 37.6029C87.2205 37.6156 87.1517 37.6 87.1126 37.5976L87.0316 37.5932C86.8925 37.6097 86.7871 37.6282 86.6121 37.5107C86.596 37.4984 86.5814 37.4862 86.5682 37.4735Z" fill="#DDDDDB"/>
<path d="M84.2766 39.4583C83.8649 39.3829 83.688 39.0168 83.9333 38.8543C84.0451 38.78 84.197 38.8069 84.2756 38.9177C84.2844 38.9304 84.3151 38.9568 84.3664 38.9661C84.689 39.0249 84.6051 39.5113 84.2766 39.4583Z" fill="#DDDDDB"/>
<path d="M103.197 100.235C109.086 99.0018 129.077 99 127.49 99C127.819 99 127.821 99.4977 127.492 99.5C110.324 99.6274 104.855 100.398 103.3 100.724C102.982 100.797 102.87 100.303 103.197 100.235Z" fill="#DDDDDB"/>
<path d="M127.065 72.1658H103.351C103.069 72.1658 102.797 72.0248 102.645 71.783L100.519 68.4571C101.134 67.7715 90 53.9999 91.0001 52.4999C93.5 52 103.5 51.9998 116.745 52.9261L127.781 70.896C128.124 71.4503 127.721 72.1658 127.065 72.1658Z" fill="#242422"/>
<path d="M127.065 72.1658H103.351C103.069 72.1658 102.797 72.0248 102.645 71.783L100.519 68.4571C101.134 67.7715 90 53.9999 91.0001 52.4999C93.5 52 103.5 51.9998 116.745 52.9261L127.781 70.896C128.124 71.4503 127.721 72.1658 127.065 72.1658Z" fill="white" fill-opacity="0.82"/>
<path d="M136.474 53.4357C142.01 53.4357 146.499 48.9474 146.499 43.4107C146.499 37.8741 142.01 33.3857 136.474 33.3857C130.937 33.3857 126.449 37.8741 126.449 43.4107C126.449 48.9474 130.937 53.4357 136.474 53.4357Z" fill="#DDDDDB"/>
<path d="M143.648 47.728C146.475 42.9032 144.893 36.7231 140.116 33.9243C135.339 31.1256 129.175 32.7681 126.348 37.5929C123.521 42.4178 125.103 48.5979 129.88 51.3967C134.657 54.1954 140.821 52.5529 143.648 47.728Z" fill="#B39DDB"/>
<path d="M143.648 47.728C146.475 42.9032 144.893 36.7231 140.116 33.9243C135.339 31.1256 129.175 32.7681 126.348 37.5929C123.521 42.4178 125.103 48.5979 129.88 51.3967C134.657 54.1954 140.821 52.5529 143.648 47.728Z" fill="white" fill-opacity="0.32"/>
<path d="M142.204 46.8829C144.288 43.3251 143.122 38.7678 139.599 36.7039C136.076 34.6399 131.53 35.8509 129.446 39.4087C127.362 42.9664 128.528 47.5237 132.051 49.5877C135.574 51.6516 140.119 50.4406 142.204 46.8829Z" fill="#DDDDDB"/>
<path d="M141.377 46.3975C143.461 42.8398 142.295 38.2825 138.772 36.2185C135.249 34.1546 130.704 35.3656 128.619 38.9233C126.535 42.4811 127.701 47.0384 131.224 49.1023C134.747 51.1663 139.293 49.9553 141.377 46.3975Z" fill="#B39DDB"/>
<path d="M141.377 46.3975C143.461 42.8398 142.295 38.2825 138.772 36.2185C135.249 34.1546 130.704 35.3656 128.619 38.9233C126.535 42.4811 127.701 47.0384 131.224 49.1023C134.747 51.1663 139.293 49.9553 141.377 46.3975Z" fill="white" fill-opacity="0.32"/>
<path d="M127.576 44.6357C125.893 38.0567 133.021 32.5592 138.899 36.0028C142.535 38.1332 143.743 42.8529 141.593 46.5243C138.138 52.4187 129.269 51.2471 127.576 44.6357ZM135.074 35.4648C130.349 35.4648 126.895 39.9525 128.061 44.5116C129.636 50.6706 137.917 51.809 141.161 46.2714C143.971 41.4745 140.55 35.4648 135.074 35.4648Z" fill="#DDDDDB"/>
<path d="M132.191 47.2551C132.129 47.0477 132.26 47.0071 132.838 45.9673L132.9 46.2044C131.519 45.3954 130.941 44.2083 131.002 43.9145C131.066 43.6153 131.443 43.4895 131.602 43.8508C131.74 44.1637 131.93 44.4738 132.174 44.7818C132.62 45.3463 133.642 45.9934 134.37 46.095C135.024 46.1858 135.525 45.9287 135.831 45.4049C137.015 43.3854 131.981 42.4937 133.587 39.7527C134.303 38.5312 135.721 38.3629 137.003 39.0632L136.838 39.1406C137.461 38.1301 137.423 38.013 137.633 37.9664C137.898 37.9054 138.118 38.1885 137.983 38.419L137.376 39.4557L137.346 39.2779C137.965 39.6574 138.589 40.3824 138.799 41.186C138.869 41.4569 138.614 41.7208 138.349 41.5652C138.1 41.4193 138.178 40.5012 136.796 39.6913C135.816 39.1172 134.745 39.148 134.185 40.103C133.177 41.8237 136.104 42.5956 136.67 44.3503C136.956 45.2381 136.354 46.2147 135.613 46.5555C134.816 46.9216 133.928 46.7442 133.139 46.3446L133.382 46.2726C132.744 47.3118 132.777 47.4269 132.574 47.4797C132.425 47.5183 132.242 47.4276 132.191 47.2551Z" fill="#DDDDDB"/>
<path d="M119.386 72.1664H106.203C103.232 67.1564 106.829 60.667 112.795 60.667C118.771 60.667 122.347 67.172 119.386 72.1664Z" fill="#DDDDDB"/>
<path d="M118.196 72.166H104.873C101.874 66.8818 106.031 60.1355 112.2 60.6969C117.809 61.1883 120.9 67.4018 118.196 72.166Z" fill="#B39DDB"/>
<path d="M118.196 72.166H104.873C101.874 66.8818 106.031 60.1355 112.2 60.6969C117.809 61.1883 120.9 67.4018 118.196 72.166Z" fill="white" fill-opacity="0.32"/>
<path d="M116.473 72.166H108.058C104.853 68.561 107.361 62.6924 112.26 62.6924C117.135 62.6924 119.692 68.5445 116.473 72.166Z" fill="#DDDDDB"/>
<path d="M115.737 72.166H107.322C104.102 68.5434 106.662 62.6924 111.535 62.6924C111.655 62.6924 111.776 62.6924 111.897 62.7126C116.608 63.0028 118.835 68.681 115.737 72.166Z" fill="#B39DDB"/>
<path d="M115.737 72.166H107.322C104.102 68.5434 106.662 62.6924 111.535 62.6924C111.655 62.6924 111.776 62.6924 111.897 62.7126C116.608 63.0028 118.835 68.681 115.737 72.166Z" fill="white" fill-opacity="0.32"/>
<path d="M115.85 72.416H107.209L107.135 72.332C103.775 68.5516 106.442 62.4424 111.535 62.4424C111.669 62.4424 111.804 62.4434 111.938 62.4658C116.798 62.7634 119.173 68.6779 115.924 72.332L115.85 72.416ZM107.435 71.916H115.623C118.607 68.4187 116.099 62.9011 111.535 62.9424C106.924 62.9424 104.465 68.4321 107.435 71.916Z" fill="#DDDDDB"/>
<path d="M110.285 67.7314C109.905 67.3518 109.886 66.5407 110.436 66.0885C111.049 65.5854 112.343 65.5768 113.147 66.3001C113.411 66.5202 113.694 66.1723 113.47 65.9475C113.003 65.5022 112.362 65.2812 111.857 65.2623C111.839 64.4306 111.898 64.4008 111.797 64.2746C111.637 64.1467 111.384 64.2288 111.384 64.4459V65.2519C111.021 65.2623 110.708 65.3528 110.426 65.4941C109.311 66.051 109.249 67.4554 109.872 68.054C110.834 69.0539 113.137 68.4276 113.137 69.8679C113.137 70.7164 112.412 71.0271 111.555 71.0271C110.13 71.0271 109.867 70.4122 109.59 70.4122C109.395 70.4122 109.269 70.6755 109.489 70.8959C109.897 71.2193 110.565 71.4975 111.384 71.5209V72.1658H111.857V71.5108C112.857 71.4225 113.691 70.8786 113.691 69.8377C113.691 67.9724 110.99 68.4776 110.285 67.7314Z" fill="#DDDDDB"/>
<path d="M109.973 54.0111C109.859 54.1786 109.906 54.3595 109.701 54.4928C109.488 54.6313 108.795 54.7348 108.107 54.8586C107.749 54.9229 107.127 54.846 107.101 55.3549C107.095 55.4762 107.131 55.5952 107.166 55.7114C107.893 58.1028 108.223 58.5994 110.822 58.1746C113.031 57.8134 115.171 56.9051 117.143 55.8744C119.007 54.9008 120.839 53.7446 122.359 52.2801C122.868 51.7898 123.373 51.2501 123.713 50.6247C124.115 49.8846 123.829 49.1758 123.544 48.3988C123.195 47.4473 123.089 47.0571 122.827 46.7883C122.627 46.5833 122.304 46.47 122.048 46.5982C121.853 46.6955 121.743 46.9021 121.638 47.0926C121.364 47.5884 121.042 48.0573 120.677 48.4903C120.175 49.0843 118.732 49.1856 118 49.4481C113.795 50.9567 110.217 53.6521 109.973 54.0111Z" fill="#DDDDDB"/>
<path d="M116.808 54.7446C121.256 52.4206 124.121 49.119 123.208 47.3703C122.294 45.6217 117.947 46.0881 113.499 48.4121C109.051 50.7361 106.186 54.0377 107.1 55.7863C108.013 57.535 112.36 57.0686 116.808 54.7446Z" fill="#B39DDB"/>
<path d="M116.808 54.7446C121.256 52.4206 124.121 49.119 123.208 47.3703C122.294 45.6217 117.947 46.0881 113.499 48.4121C109.051 50.7361 106.186 54.0377 107.1 55.7863C108.013 57.535 112.36 57.0686 116.808 54.7446Z" fill="white" fill-opacity="0.32"/>
<path d="M57.5317 83.3915C57.5273 83.3915 57.5224 83.3915 57.5175 83.391C57.3798 83.3832 57.2743 83.2655 57.2821 83.1273C57.4244 80.5905 57.3337 77.4332 57.6288 74.9076C57.6682 74.5835 58.1636 74.6351 58.1259 74.9662C57.8344 77.4545 57.9239 80.6317 57.7812 83.1557C57.7738 83.2885 57.6635 83.3915 57.5317 83.3915Z" fill="#DDDDDB"/>
<path d="M45.0816 84.1626H45.0762C44.938 84.1597 44.8287 84.0454 44.8316 83.9072C44.8923 81.1266 44.9664 77.1864 45.0318 74.1274C45.0347 73.9912 45.1461 73.8828 45.2818 73.8828H45.2872C45.4254 73.8857 45.5347 74 45.5318 74.1382C45.4579 77.596 45.4058 80.469 45.3316 83.918C45.3287 84.0542 45.2173 84.1626 45.0816 84.1626Z" fill="#DDDDDB"/>
<path d="M70.4416 131.183C68.2816 132.343 65.7715 132.653 63.3216 132.873C54.1488 133.703 45.4626 133.672 36.0616 133.323C31.9615 133.163 27.2316 133.393 23.3716 131.713C19.6916 130.113 18.6016 126.713 18.5116 122.933C18.3716 116.193 19.3716 109.343 20.8415 102.783C22.9516 93.2927 27.1016 84.3626 36.3116 80.0327C47.3315 74.8427 61.8616 79.4127 68.1816 89.7927C69.0316 91.2026 69.7516 92.6826 70.3516 94.2126C70.1016 95.9326 70.1016 97.6826 70.3315 99.4027C70.2516 99.6826 70.1816 99.9626 70.1116 100.243C68.3415 107.743 62.6116 113.373 59.0016 119.963C58.5016 120.873 56.4615 123.293 57.2516 124.303C57.5016 124.623 57.8716 124.813 58.2416 124.993C67.1769 129.567 68.0248 130.049 69.6316 130.373C70.0815 130.463 70.5516 130.513 70.9615 130.323C71.8916 129.903 72.3116 125.733 72.6416 124.653C73.2916 122.573 74.0116 120.493 75.0416 118.573C75.2816 123.923 74.4316 129.033 70.4416 131.183Z" fill="#B39DDB"/>
<path d="M70.4416 131.183C68.2816 132.343 65.7715 132.653 63.3216 132.873C54.1488 133.703 45.4626 133.672 36.0616 133.323C31.9615 133.163 27.2316 133.393 23.3716 131.713C19.6916 130.113 18.6016 126.713 18.5116 122.933C18.3716 116.193 19.3716 109.343 20.8415 102.783C22.9516 93.2927 27.1016 84.3626 36.3116 80.0327C47.3315 74.8427 61.8616 79.4127 68.1816 89.7927C69.0316 91.2026 69.7516 92.6826 70.3516 94.2126C70.1016 95.9326 70.1016 97.6826 70.3315 99.4027C70.2516 99.6826 70.1816 99.9626 70.1116 100.243C68.3415 107.743 62.6116 113.373 59.0016 119.963C58.5016 120.873 56.4615 123.293 57.2516 124.303C57.5016 124.623 57.8716 124.813 58.2416 124.993C67.1769 129.567 68.0248 130.049 69.6316 130.373C70.0815 130.463 70.5516 130.513 70.9615 130.323C71.8916 129.903 72.3116 125.733 72.6416 124.653C73.2916 122.573 74.0116 120.493 75.0416 118.573C75.2816 123.923 74.4316 129.033 70.4416 131.183Z" fill="white" fill-opacity="0.32"/>
<path d="M28.5057 63.0133C25.5838 61.1344 24.1595 57.216 25.1927 53.8991C26.2162 50.5827 29.5985 48.1823 33.0682 48.2433C34.0077 48.2751 34.9535 48.5173 35.7352 48.9255C35.985 49.0358 35.9051 49.4035 35.6415 49.4035H35.6317C35.5912 49.4035 35.5511 49.3937 35.5155 49.3747C34.7967 48.9967 33.9222 48.7726 33.0531 48.7433C32.993 48.7414 32.933 48.7409 32.8729 48.7409C29.6878 48.7409 26.6122 50.9938 25.6703 54.047C24.7015 57.1574 26.037 60.8312 28.7767 62.5929C30.597 63.7716 32.9857 64.0719 35.1673 63.3947C35.4845 63.297 35.631 63.7742 35.3158 63.8722C34.4984 64.1257 30.4124 64.2485 28.5057 63.0133Z" fill="#DDDDDB"/>
<path d="M30.5856 57.5542C30.4533 56.5225 30.7868 55.4405 31.4768 54.6602C31.6962 54.4118 32.0704 54.7434 31.8518 54.9913C31.2556 55.6656 30.9675 56.5997 31.0817 57.4908C31.0993 57.6275 31.0026 57.753 30.8654 57.7706C30.7321 57.7887 30.6034 57.6929 30.5856 57.5542Z" fill="#DDDDDB"/>
<path d="M46.6974 74.8481C41.4528 73.5126 37.0065 69.3456 35.0934 63.9735C33.4982 59.495 32.9035 52.9359 36.0158 47.9579C36.1923 47.6781 36.6149 47.9432 36.4396 48.2226C33.4215 53.0502 34.0084 59.4374 35.5641 63.8056C37.4225 69.0229 41.7355 73.0688 46.8205 74.3637C47.1423 74.4459 47.0154 74.9313 46.6974 74.8481Z" fill="#DDDDDB"/>
<path d="M55.0808 75.645C54.7585 75.645 54.7457 75.1625 55.0676 75.1455C61.656 74.7929 66.0422 69.5639 67.4665 64.538C69.0446 58.9716 68.0686 52.7026 67.197 48.4711C67.1299 48.1507 67.6199 48.0412 67.6862 48.3706C68.5686 52.6533 69.5559 59.0029 67.948 64.6748C66.4748 69.8715 61.9294 75.2788 55.094 75.6445C55.0896 75.645 55.0852 75.645 55.0808 75.645Z" fill="#DDDDDB"/>
<path d="M57.8068 64.1265C57.6561 63.5705 59.1007 63.8513 60.1657 63.1772C61.2345 62.5058 61.0325 61.3619 61.0524 59.9678C61.112 56.1844 61.1618 56.68 61.2213 52.9092C61.2233 52.771 61.3351 52.6846 61.4752 52.6631C61.6134 52.6655 61.7233 52.7788 61.7213 52.917C61.678 55.6669 61.5396 58.8675 61.5524 60.5693C61.5631 61.7598 61.5724 62.8838 60.4323 63.6006C59.618 64.1155 58.9158 64.0829 58.1139 64.3018C57.9777 64.3381 57.8424 64.2575 57.8068 64.1265Z" fill="#DDDDDB"/>
<path d="M53.3606 67.11C52.2022 66.1304 52.5617 64.3774 53.0935 64.6349C53.218 64.6954 53.2697 64.8449 53.2097 64.9689C52.9431 65.5182 53.1467 66.2745 53.6838 66.7282C54.3269 67.2721 55.1975 67.298 55.6574 67.2604C55.9837 67.2354 56.0273 67.7334 55.6945 67.7594C54.6579 67.8341 53.8725 67.543 53.3606 67.11Z" fill="#DDDDDB"/>
<path d="M68.5604 48.7047C66.5735 50.1052 65.2127 49.037 63.4625 48.1582C61.6075 47.2267 60.041 46.899 58.4786 45.3108C57.9096 44.7323 57.5791 44.8367 57.2843 45.4466C56.6364 46.7865 55.7149 48.0592 54.3988 48.7543C52.2552 49.8864 49.2912 49.0499 48.0557 46.964C46.9883 49.216 44.2606 50.5845 41.5822 49.5845C41.1699 49.4305 40.0422 48.4214 39.7161 48.4488C38.978 48.5106 37.5798 51.2671 37.1456 51.9512C36.2593 53.3476 35.4617 54.8069 34.7217 56.2854C34.5382 56.6521 34.1477 56.7916 34.1315 56.327C34.1039 55.5354 34.1399 54.7426 34.2135 53.954C34.3922 52.0394 35.9674 49.3976 33.4434 48.8765C29.4798 48.8765 27.5241 51.7264 27.233 49.2435C26.5097 43.0747 31.7985 37.0306 35.8037 36.7352C37.7373 36.5926 39.8539 37.8448 40.1356 39.763C40.9413 37.2963 42.2523 34.9408 44.2212 33.2505C46.1902 31.5602 48.8707 30.6021 51.4266 31.0506C53.9825 31.4991 56.2938 33.506 56.7498 36.0606C57.3496 33.5222 60.5802 32.3339 63.0672 33.12C65.5542 33.9062 67.3464 36.0722 68.6945 38.3051C69.6835 39.9431 70.5308 41.7289 70.6701 43.6373C70.8091 45.5415 70.1271 47.6004 68.5604 48.7047Z" fill="#DDDDDB"/>
<path d="M68.5604 48.7047C66.5735 50.1052 65.2127 49.037 63.4625 48.1582C61.6075 47.2267 60.041 46.899 58.4786 45.3108C57.9096 44.7323 57.5791 44.8367 57.2843 45.4466C56.6364 46.7865 55.7149 48.0592 54.3988 48.7543C52.2552 49.8864 49.2912 49.0499 48.0557 46.964C46.9883 49.216 44.2606 50.5845 41.5822 49.5845C41.1699 49.4305 40.0422 48.4214 39.7161 48.4488C38.978 48.5106 37.5798 51.2671 37.1456 51.9512C36.2593 53.3476 35.4617 54.8069 34.7217 56.2854C34.5382 56.6521 34.1477 56.7916 34.1315 56.327C34.1039 55.5354 34.1399 54.7426 34.2135 53.954C34.3922 52.0394 35.9674 49.3976 33.4434 48.8765C29.4798 48.8765 27.5241 51.7264 27.233 49.2435C26.5097 43.0747 31.7985 37.0306 35.8037 36.7352C37.7373 36.5926 39.8539 37.8448 40.1356 39.763C40.9413 37.2963 42.2523 34.9408 44.2212 33.2505C46.1902 31.5602 48.8707 30.6021 51.4266 31.0506C53.9825 31.4991 56.2938 33.506 56.7498 36.0606C57.3496 33.5222 60.5802 32.3339 63.0672 33.12C65.5542 33.9062 67.3464 36.0722 68.6945 38.3051C69.6835 39.9431 70.5308 41.7289 70.6701 43.6373C70.8091 45.5415 70.1271 47.6004 68.5604 48.7047Z" fill="#0D0D0D" fill-opacity="0.82"/>
<path d="M64.0592 52.8983C63.6866 53.0171 63.335 53.3002 63.2698 53.6858C63.0554 54.9541 66.031 56.8588 67.4225 57.1641C68.3772 57.3737 69.1821 56.8066 68.5293 55.8038C68.1228 55.1792 67.5716 54.6572 66.9967 54.1999C66.1163 53.4996 65.2147 52.5299 64.0592 52.8983Z" fill="#DDDDDB"/>
<path d="M65.0057 57.9099C63.9472 57.8605 63.738 60.4431 64.3999 61.0486C64.6878 61.312 65.1672 61.28 65.4788 61.045C66.6125 60.1901 65.8707 57.9502 65.0057 57.9099Z" fill="#DDDDDB"/>
<path d="M51.0412 52.2584C50.9145 52.6284 50.9323 53.0795 51.2031 53.3617C51.8484 54.0341 53.6749 53.4968 54.5613 53.1638C57.5945 52.0245 57.4299 50.4864 56.0386 50.4008C55.2947 50.355 54.5471 50.4864 53.8372 50.6755C52.7501 50.965 51.4342 51.111 51.0412 52.2584Z" fill="#DDDDDB"/>
<path d="M53.2093 54.7487C52.1508 54.6994 51.9416 57.2819 52.6035 57.8875C52.8915 58.1509 53.3708 58.1189 53.6824 57.8839C54.8161 57.029 54.0744 54.7891 53.2093 54.7487Z" fill="#DDDDDB"/>
<path d="M70.0813 99.4128C70.0327 98.6632 69.7009 96.9495 70.1037 94.1769C70.5376 90.9579 72.3194 85.9958 74.944 84.2741C75.6823 83.8019 76.385 83.7321 76.8757 84.0788C77.6673 84.6416 77.4107 85.7286 77.1628 86.6476C77.1499 86.8411 76.9799 87.1025 76.7917 87.4723C76.6835 87.8533 76.1084 87.5631 76.3449 87.2477L76.6433 86.6701C76.7867 85.9671 77.1982 84.9226 76.5866 84.4865C74.8914 83.2896 69.3868 90.4385 70.5788 99.3698C70.5788 99.7281 70.0813 99.716 70.0813 99.4128Z" fill="#DDDDDB"/>
<path d="M58.1277 125.216C57.7214 125.018 57.3303 124.81 57.0549 124.457C56.125 123.269 58.2473 120.819 58.7825 119.842C60.0393 117.549 61.574 115.338 63.0579 113.201C72.0043 100.314 68.0395 101.964 72.4499 93.4678C74.8077 88.901 78.4289 84.2125 82.0515 80.4693C82.8625 79.6377 83.9128 79.0279 85.0105 78.751C85.0105 78.7501 85.1316 78.7203 85.1326 78.7203C87.9911 78.0189 90.0597 80.3582 89.0261 83.1988C88.7354 83.9905 87.2346 86.2391 86.7551 86.9576C88.1809 85.8172 91.0316 84.2242 92.8616 84.3741C93.5974 84.4439 94.2366 84.7593 94.6287 85.2418C94.657 85.2611 94.6818 85.2899 94.6985 85.3194C95.1053 85.7778 95.3192 86.7072 94.9123 87.689C94.3398 89.0741 92.1466 90.9098 90.9407 91.8067C91.7681 91.5259 92.4804 91.3426 93.281 91.4483C93.9452 91.5215 93.952 91.4995 94.029 91.5391C95.283 91.8567 96.1796 92.7706 96.3772 93.8169C96.7273 95.7022 95.0798 96.9229 93.8098 97.6773C93.2205 98.0298 92.5808 98.3809 91.7356 98.8155C89.0154 100.195 87.1218 102.869 86.6692 105.969C86.3552 108.146 85.3141 109.803 83.7917 111.386C81.1581 114.04 76.8078 115.339 75.2683 118.678C74.2185 120.636 73.5002 122.742 72.8801 124.728C72.5277 125.88 72.1641 130.054 71.0647 130.551C69.5026 131.274 66.4932 129.498 58.1277 125.216ZM82.4104 80.8174C78.8312 84.5159 75.233 89.166 72.8938 93.6978C68.5348 102.09 72.4583 100.537 63.4685 113.486C59.4413 119.287 59.7364 119.357 58.7092 120.88C56.7751 123.751 57.0422 124.13 58.3508 124.769C66.6554 129.018 68.0384 129.797 69.6809 130.128C70.0637 130.205 70.5027 130.261 70.8567 130.096C71.6069 129.758 72.1083 125.544 72.4021 124.58C73.9018 119.782 74.8569 118.442 75.0212 118.075C76.8821 114.751 80.8805 113.61 83.4343 111.037C84.8737 109.541 85.8806 107.96 86.1741 105.898C86.6506 102.636 88.6443 99.8223 91.5081 98.3702C93.5199 97.3348 96.2751 96.0077 95.886 93.9087C95.8005 93.4586 95.5442 93.0211 95.1643 92.6793C94.3591 91.9858 93.7418 92.001 93.2268 91.9454C93.1267 91.9495 92.6202 91.7893 91.4275 92.1714C90.4646 92.4859 89.6374 92.813 88.7351 93.3843C88.6204 93.4551 88.4695 93.4253 88.3933 93.3116C88.2003 93.0221 88.646 92.8664 88.7449 92.7662C90.2587 91.7038 93.7141 89.2791 94.4504 87.4976C94.7953 86.6649 94.5863 85.9118 94.3049 85.6304C94.2901 85.6156 94.2754 85.6006 94.2639 85.586C93.9592 85.1905 93.4319 84.9307 92.8176 84.8721C92.0608 84.8111 91.2991 85.0567 90.7205 85.2769C88.5979 86.1045 86.6862 87.3658 85.2673 89.149C85.0695 89.3974 84.6848 89.1165 84.865 88.8526C85.472 87.9695 88.191 84.0237 88.5564 83.0269C88.9695 81.8921 88.8157 80.6836 88.1643 79.9493C86.7571 78.3357 83.949 79.2405 82.4104 80.8174ZM94.029 91.5391C94.0051 91.5274 93.968 91.5132 93.9221 91.5132C93.9623 91.5225 93.9757 91.5256 94.029 91.5391Z" fill="#DDDDDB"/>
<path d="M93.8515 92.003C93.6911 91.9894 93.8989 92.018 92.9077 91.9122C92.5989 91.8824 92.6126 91.4236 92.9238 91.4132C93.2588 91.4059 93.5888 91.4352 93.9082 91.5094C94.0351 91.5392 94.1176 91.6608 94.0991 91.7897C94.0805 91.9127 93.9746 92.003 93.8515 92.003Z" fill="#DDDDDB"/>
<path d="M83.0684 91.7685C83.5113 90.6425 84.1475 89.6171 84.959 88.7197C85.1828 88.476 85.5514 88.8098 85.3301 89.0556C84.5586 89.9077 83.9541 90.8818 83.5332 91.9511C83.4127 92.2592 82.9468 92.076 83.0684 91.7685Z" fill="#DDDDDB"/>
<path d="M86.892 94.8895C86.7871 94.8001 86.7744 94.6424 86.8637 94.5369C87.6469 93.6155 88.5805 92.8509 89.6391 92.2645C89.932 92.1063 90.1689 92.5424 89.8813 92.702C87.4826 94.0301 87.3215 95.2525 86.892 94.8895Z" fill="#DDDDDB"/>
<path d="M53.8143 120.912C61.269 110.871 61.0633 110.982 61.7924 110.581C62.6704 110.098 63.7517 110.316 64.7269 110.547C68.0988 111.345 71.502 112.289 74.7384 113.479C77.2591 114.405 79.6285 115.607 82.1817 116.446C82.5121 116.554 82.855 116.67 83.1031 116.914C83.5025 117.306 83.558 117.941 83.4291 118.486C83.3002 119.031 83.0184 119.525 82.823 120.05C82.4029 121.178 82.3929 122.401 82.0668 123.553C81.7898 124.531 81.1031 125.352 80.5409 126.194C75.6789 133.478 67.7071 140.457 58.9048 141.874C47.9966 143.629 37.6348 143.85 27.1342 140.009C23.3508 138.625 21.3331 137.846 19.8904 133.812C18.4841 129.879 18.1641 125.547 19.0848 121.466" fill="#B39DDB"/>
<path d="M53.8143 120.912C61.269 110.871 61.0633 110.982 61.7924 110.581C62.6704 110.098 63.7517 110.316 64.7269 110.547C68.0988 111.345 71.502 112.289 74.7384 113.479C77.2591 114.405 79.6285 115.607 82.1817 116.446C82.5121 116.554 82.855 116.67 83.1031 116.914C83.5025 117.306 83.558 117.941 83.4291 118.486C83.3002 119.031 83.0184 119.525 82.823 120.05C82.4029 121.178 82.3929 122.401 82.0668 123.553C81.7898 124.531 81.1031 125.352 80.5409 126.194C75.6789 133.478 67.7071 140.457 58.9048 141.874C47.9966 143.629 37.6348 143.85 27.1342 140.009C23.3508 138.625 21.3331 137.846 19.8904 133.812C18.4841 129.879 18.1641 125.547 19.0848 121.466" fill="white" fill-opacity="0.32"/>
<path d="M81.9652 123.504C81.8344 123.46 81.765 123.317 81.81 123.187L83.2382 119.021C83.6323 117.873 83.631 117.163 81.621 116.522C59.1659 109.366 60.3386 109.679 60.1054 109.749C59.8302 109.831 60.1616 109.466 52.8041 120.766C52.7284 120.882 52.5736 120.915 52.4584 120.839C52.3427 120.764 52.31 120.609 52.3851 120.493C59.7856 109.11 59.4414 109.426 59.9618 109.27C60.4217 109.133 59.0487 108.798 81.7733 116.045C82.6664 116.331 83.7177 116.784 83.9188 117.763C84.0233 118.274 83.85 118.778 83.7108 119.183L82.2826 123.349C82.2373 123.481 82.0942 123.549 81.9652 123.504Z" fill="#DDDDDB"/>
<path d="M29.8894 26.8071C29.7061 26.5327 30.1214 26.2538 30.3055 26.5298C31.3846 28.1465 32.368 29.8501 33.2288 31.5933C33.2898 31.7173 33.239 31.8672 33.1155 31.9282C32.6137 32.1757 32.8007 31.1707 29.8894 26.8071Z" fill="#DDDDDB"/>
<path d="M35.3799 31.6784C35.5777 30.2272 35.5454 28.7604 35.2847 27.3195C35.2256 26.9907 35.7189 26.9122 35.7769 27.2306C36.0469 28.7233 36.0801 30.2423 35.875 31.7457C35.83 32.0761 35.3357 32.0044 35.3799 31.6784Z" fill="#DDDDDB"/>
<path d="M32.2284 33.8319C28.4726 31.6472 27.5992 31.878 27.8016 31.387C27.8544 31.2591 28.0013 31.1966 28.1278 31.2513C29.621 31.8656 31.0848 32.5887 32.4794 33.3992C32.7657 33.5664 32.5141 33.9977 32.2284 33.8319Z" fill="#DDDDDB"/>
<path d="M126.03 139C125.71 139 125.694 138.522 126.014 138.5C133.174 138.019 138.671 131.883 138.35 124.703C138.31 123.812 138.18 123.172 137.581 122.589C136.672 123.421 135.463 124.371 134.24 124.448C132.625 124.542 131.379 123.056 132.302 121.665C133.475 119.896 135.888 120.63 137.565 121.916C142.94 116.668 142.998 108.295 138.111 102.994C137.885 102.75 138.257 102.412 138.478 102.655C143.428 108.024 143.599 116.687 137.945 122.245C138.644 122.935 138.804 123.684 138.849 124.68C139.182 132.121 133.489 138.499 126.047 138.999C126.042 139 126.036 139 126.03 139ZM132.719 121.941C132.029 122.982 133.001 124.032 134.208 123.949C135.277 123.881 136.393 122.99 137.195 122.264C135.765 121.208 133.698 120.464 132.719 121.941Z" fill="#DDDDDB"/>
</svg>
