<svg width="165" height="165" viewBox="0 0 165 165" fill="none" xmlns="http://www.w3.org/2000/svg">
<g opacity="0.56">
<path d="M92.8287 91.6071C91.575 91.6071 89.67 92.4081 88.5647 93.1079C89.3698 92.5415 90.1848 91.9749 90.97 91.3784C91.5863 91.458 92.2124 91.5376 92.8287 91.6071Z" fill="#DDDDDB"/>
<path d="M92.8287 91.6071C91.575 91.6071 89.67 92.4081 88.5647 93.1079C89.3698 92.5415 90.1848 91.9749 90.97 91.3784C91.5863 91.458 92.2124 91.5376 92.8287 91.6071Z" fill="#0D0D0D" fill-opacity="0.82"/>
</g>
<path d="M88.3262 83.9536C88.674 84.4904 89.0319 85.0271 89.3798 85.5639C87.71 86.3689 86.219 87.4921 85.0562 88.9532C85.3543 88.5159 87.3919 85.5739 88.3262 83.9536Z" fill="#DDDDDB"/>
<path d="M88.3262 83.9536C88.674 84.4904 89.0319 85.0271 89.3798 85.5639C87.71 86.3689 86.219 87.4921 85.0562 88.9532C85.3543 88.5159 87.3919 85.5739 88.3262 83.9536Z" fill="#0D0D0D" fill-opacity="0.82"/>
<path d="M127.607 71.2712C127.696 71.7482 127.328 72.2254 126.792 72.2254H103.225C102.947 72.2254 102.679 72.0863 102.52 71.8477C86.515 46.8667 92.035 55.4827 90.8409 53.6188C90.5029 53.0821 90.8607 52.3863 91.4869 52.3466C90.99 52.2969 90.4731 52.4858 90.165 52.9131C87.517 56.6336 83.7379 61.9367 80.8319 66.1027C80.1461 67.0867 78.5856 68.6075 79.0826 69.84C79.5398 70.9731 80.5139 72.0863 81.1798 73.12C81.1997 73.1499 81.2096 73.1696 81.2394 73.1995C82.293 74.8196 83.3565 76.4397 84.42 78.0499C84.6288 78.368 84.8474 78.6959 85.0562 79.014C88.1643 78.2358 90.0857 80.939 88.3262 83.9538C88.6741 84.4906 89.0319 85.0274 89.3798 85.5641C89.8134 85.3472 90.2432 85.1565 90.5825 85.0274C91.8193 84.557 93.293 84.2992 94.2302 85.2361C97.222 81.0914 100.025 76.7677 102.559 72.3447C102.726 72.0591 103.159 72.3152 102.997 72.5932C100.422 77.0659 97.5897 81.4392 94.5582 85.6337C94.8277 86.0375 94.9256 86.7942 94.6079 87.562C94.2689 88.3811 93.6261 88.9725 93.1667 89.4703C94.7158 89.8177 114.881 90.0096 115.56 90.017C116.067 90.017 116.524 89.7784 116.773 89.3807C117.403 88.4044 113.743 94.0779 127.627 72.5534C127.905 72.1261 127.865 71.639 127.607 71.2712Z" fill="#DDDDDB"/>
<path d="M127.607 71.2712C127.696 71.7482 127.328 72.2254 126.792 72.2254H103.225C102.947 72.2254 102.679 72.0863 102.52 71.8477C86.515 46.8667 92.035 55.4827 90.8409 53.6188C90.5029 53.0821 90.8607 52.3863 91.4869 52.3466C90.99 52.2969 90.4731 52.4858 90.165 52.9131C87.517 56.6336 83.7379 61.9367 80.8319 66.1027C80.1461 67.0867 78.5856 68.6075 79.0826 69.84C79.5398 70.9731 80.5139 72.0863 81.1798 73.12C81.1997 73.1499 81.2096 73.1696 81.2394 73.1995C82.293 74.8196 83.3565 76.4397 84.42 78.0499C84.6288 78.368 84.8474 78.6959 85.0562 79.014C88.1643 78.2358 90.0857 80.939 88.3262 83.9538C88.6741 84.4906 89.0319 85.0274 89.3798 85.5641C89.8134 85.3472 90.2432 85.1565 90.5825 85.0274C91.8193 84.557 93.293 84.2992 94.2302 85.2361C97.222 81.0914 100.025 76.7677 102.559 72.3447C102.726 72.0591 103.159 72.3152 102.997 72.5932C100.422 77.0659 97.5897 81.4392 94.5582 85.6337C94.8277 86.0375 94.9256 86.7942 94.6079 87.562C94.2689 88.3811 93.6261 88.9725 93.1667 89.4703C94.7158 89.8177 114.881 90.0096 115.56 90.017C116.067 90.017 116.524 89.7784 116.773 89.3807C117.403 88.4044 113.743 94.0779 127.627 72.5534C127.905 72.1261 127.865 71.639 127.607 71.2712Z" fill="#0D0D0D" fill-opacity="0.64"/>
<path d="M126.791 72.4736H103.225C102.858 72.4736 102.517 72.2911 102.313 71.9854C86.3048 46.9987 91.826 55.6166 90.6316 53.7523C90.1691 53.0185 90.7065 52.0881 91.5566 52.0881C97.7876 52.0144 105.709 52.094 115.765 52.3264C116.133 52.3264 116.473 52.5201 116.668 52.8448C128.671 72.3818 127.842 70.9251 127.855 71.2467C127.959 71.8759 127.468 72.4736 126.791 72.4736ZM91.0237 52.9083C90.9295 53.0932 90.9397 53.3092 91.0509 53.4859C103.299 72.3954 102.597 71.9766 103.225 71.9766C128.071 71.9 126.914 72.1635 127.242 71.7694C127.427 71.5461 127.358 71.371 127.358 71.271C127.358 71.2249 127.335 71.1574 127.294 71.0904C115.659 52.3375 116.352 52.8234 115.759 52.8234C105.719 52.5914 97.8138 52.5152 91.5867 52.5846C91.4857 52.6135 91.1937 52.5772 91.0237 52.9083Z" fill="#DDDDDB"/>
<path d="M104.895 27.8061L86.6066 37.4275C84.3455 38.6999 84.0408 38.6088 83.9726 39.0177C83.9627 39.0277 83.9428 39.0277 83.9329 39.0376C83.5087 39.192 83.5476 39.4711 82.0444 32.9348C81.9251 32.4379 82.1736 31.921 82.6308 31.6924C83.0337 31.4814 102.063 21.9364 102.808 21.5542C103.146 21.3952 103.523 21.2957 103.891 21.2164L103.901 21.2064C104.284 21.1298 104.468 21.1023 104.537 21.5145C104.607 21.932 104.597 22.3394 104.597 22.7569C104.607 22.906 104.656 23.0253 104.686 23.1644C104.701 23.2325 104.994 25.1133 105.004 25.1822C105.054 25.4902 105.074 25.7487 105.243 26.0368C105.362 26.2456 105.501 26.4345 105.561 26.683C105.621 26.9017 105.72 27.1104 105.77 27.3389V27.3489C105.877 27.7246 105.532 27.488 104.895 27.8061Z" fill="#DDDDDB"/>
<path d="M104.895 27.8061L86.6066 37.4275C84.3455 38.6999 84.0408 38.6088 83.9726 39.0177C83.9627 39.0277 83.9428 39.0277 83.9329 39.0376C83.5087 39.192 83.5476 39.4711 82.0444 32.9348C81.9251 32.4379 82.1736 31.921 82.6308 31.6924C83.0337 31.4814 102.063 21.9364 102.808 21.5542C103.146 21.3952 103.523 21.2957 103.891 21.2164L103.901 21.2064C104.284 21.1298 104.468 21.1023 104.537 21.5145C104.607 21.932 104.597 22.3394 104.597 22.7569C104.607 22.906 104.656 23.0253 104.686 23.1644C104.701 23.2325 104.994 25.1133 105.004 25.1822C105.054 25.4902 105.074 25.7487 105.243 26.0368C105.362 26.2456 105.501 26.4345 105.561 26.683C105.621 26.9017 105.72 27.1104 105.77 27.3389V27.3489C105.877 27.7246 105.532 27.488 104.895 27.8061Z" fill="#0D0D0D" fill-opacity="0.64"/>
<path d="M130.708 29.0088C130.807 28.9096 130.8 28.7195 130.479 28.6611C130.247 28.6338 119.21 28.1715 117.011 28.0646C105.646 27.392 106.257 27.5319 105.77 27.349C105.248 27.1317 105.092 26.8857 104.955 26.365C104.495 24.8176 104.012 23.6008 104.14 22.0712C104.159 21.9122 104.229 21.7432 104.08 21.604C104.03 21.5543 103.951 21.5345 103.881 21.4947C103.758 21.4129 103.741 21.2913 103.891 21.2165L103.901 21.2066C105.715 20.3227 109.89 21.0337 128.69 22.1408C129.177 22.1706 129.584 22.5185 129.704 22.9856C129.853 23.6118 130.012 24.228 130.161 24.8542C130.869 27.6882 130.358 25.89 130.936 28.7802C130.966 29.0194 130.855 29.0719 130.708 29.0088Z" fill="#DDDDDB"/>
<path d="M130.708 29.0088C130.807 28.9096 130.8 28.7195 130.479 28.6611C130.247 28.6338 119.21 28.1715 117.011 28.0646C105.646 27.392 106.257 27.5319 105.77 27.349C105.248 27.1317 105.092 26.8857 104.955 26.365C104.495 24.8176 104.012 23.6008 104.14 22.0712C104.159 21.9122 104.229 21.7432 104.08 21.604C104.03 21.5543 103.951 21.5345 103.881 21.4947C103.758 21.4129 103.741 21.2913 103.891 21.2165L103.901 21.2066C105.715 20.3227 109.89 21.0337 128.69 22.1408C129.177 22.1706 129.584 22.5185 129.704 22.9856C129.853 23.6118 130.012 24.228 130.161 24.8542C130.869 27.6882 130.358 25.89 130.936 28.7802C130.966 29.0194 130.855 29.0719 130.708 29.0088Z" fill="#0D0D0D" fill-opacity="0.64"/>
<path d="M126.802 28.4916C126.553 28.6507 126.295 28.8196 126.036 28.9886C125.077 29.4428 108.477 38.4148 107.917 38.4807C107.125 38.5722 87.9163 37.6161 87.0042 37.6161C86.904 37.6161 86.8552 37.6626 86.726 37.5763C86.6862 37.5464 86.6464 37.4768 86.6067 37.4271C105.904 27.4086 104.752 27.5871 105.929 27.5871C107.364 27.6446 126.542 28.48 126.802 28.4916Z" fill="#DDDDDB"/>
<path d="M126.802 28.4916C126.553 28.6507 126.295 28.8196 126.036 28.9886C125.077 29.4428 108.477 38.4148 107.917 38.4807C107.125 38.5722 87.9163 37.6161 87.0042 37.6161C86.904 37.6161 86.8552 37.6626 86.726 37.5763C86.6862 37.5464 86.6464 37.4768 86.6067 37.4271C105.904 27.4086 104.752 27.5871 105.929 27.5871C107.364 27.6446 126.542 28.48 126.802 28.4916Z" fill="#0D0D0D" fill-opacity="0.82"/>
<path d="M87.194 37.8745C87.192 37.8871 87.1236 37.8715 87.0848 37.8691L87.0042 37.8647C86.7746 37.892 86.6188 37.8729 86.4442 37.6255L86.2549 37.3906L86.4912 37.2076C105.534 27.2717 104.739 27.415 105.652 27.3493C105.802 27.3322 104.379 27.259 127.596 28.2782L126.936 28.7009C125.29 29.756 128.181 28.0604 113.221 36.0661C107.891 38.8682 108.53 38.6589 107.945 38.7277C107.307 38.8012 87.2934 37.8798 87.194 37.8745ZM87.2323 37.3789C87.3336 37.3842 107.243 38.3093 107.888 38.2336C108.363 38.1784 107.817 38.3434 112.989 35.6269C123.539 30.0254 125.864 28.8069 126.018 28.7058C104.47 27.7967 105.699 27.6821 105.006 28.0282L87.2323 37.3789Z" fill="#DDDDDB"/>
<path d="M87.194 37.8745C87.192 37.8871 87.1236 37.8715 87.0848 37.8691L87.0042 37.8647C86.7746 37.892 86.6188 37.8729 86.4442 37.6255L86.2549 37.3906L86.4912 37.2076C105.534 27.2717 104.739 27.415 105.652 27.3493C105.802 27.3322 104.379 27.259 127.596 28.2782L126.936 28.7009C125.29 29.756 128.181 28.0604 113.221 36.0661C107.891 38.8682 108.53 38.6589 107.945 38.7277C107.307 38.8012 87.2934 37.8798 87.194 37.8745ZM87.2323 37.3789C87.3336 37.3842 107.243 38.3093 107.888 38.2336C108.363 38.1784 107.817 38.3434 112.989 35.6269C123.539 30.0254 125.864 28.8069 126.018 28.7058C104.47 27.7967 105.699 27.6821 105.006 28.0282L87.2323 37.3789Z" fill="#0D0D0D" fill-opacity="0.82"/>
<path d="M104.909 41.9151C98.4044 41.9151 86.7955 40.1228 84.2714 39.7205C83.7844 39.6315 83.5745 39.0927 83.836 38.7003C83.9844 38.4489 84.1867 38.4571 86.4869 37.2099C86.5927 37.1531 86.7247 37.1779 86.8004 37.272L86.8494 37.3385C86.9165 37.3658 107.22 38.3123 107.888 38.2339C108.363 38.1787 107.817 38.3437 112.989 35.6273C113.089 35.5742 125.83 28.8116 125.93 28.7643C126.662 28.2776 126.704 28.2389 126.814 28.2441C126.856 28.2461 130.446 28.407 130.508 28.4144C131.054 28.5124 131.116 28.9481 130.886 29.1827C130.884 29.1919 130.857 29.2215 130.814 29.2642C130.477 29.5407 118.112 37.8182 110.802 40.759C108.388 41.7207 107.487 41.9151 104.909 41.9151ZM86.5437 37.7462C86.2172 37.9175 84.1756 38.9887 84.3063 38.9202C84.193 38.9868 84.1916 39.2006 84.3553 39.2303C87.2042 39.6845 101.718 41.9233 107.173 41.3152C113.118 40.626 130.06 29.1357 130.312 28.9987C130.362 28.9716 130.415 28.9434 130.461 28.9109C125.544 28.6833 127.233 28.7617 126.869 28.7439C125.394 29.6926 127.995 28.1664 113.221 36.0665C107.891 38.8685 108.53 38.6593 107.945 38.728C107.29 38.8033 87.2947 37.8802 87.194 37.8748C87.192 37.8874 87.1236 37.8719 87.0848 37.8694L87.0042 37.8651C86.866 37.8815 86.7613 37.8998 86.5873 37.7831C86.5713 37.7709 86.5568 37.7588 86.5437 37.7462Z" fill="#DDDDDB"/>
<path d="M84.266 39.7195C83.8568 39.6446 83.681 39.2807 83.9248 39.1191C84.036 39.0454 84.1869 39.0721 84.265 39.1822C84.2738 39.1949 84.3043 39.2211 84.3553 39.2303C84.6759 39.2887 84.5925 39.7722 84.266 39.7195Z" fill="#DDDDDB"/>
<path d="M103.072 100.128C108.925 98.9022 128.795 98.9004 127.217 98.9004C127.545 98.9004 127.547 99.3951 127.219 99.3974C110.156 99.524 104.719 100.29 103.174 100.614C102.857 100.686 102.747 100.196 103.072 100.128Z" fill="#DDDDDB"/>
<path d="M126.795 72.2287H103.224C102.944 72.2287 102.673 72.0886 102.523 71.8482L100.41 68.5424C101.021 67.861 89.9544 54.1729 90.9485 52.682C93.4332 52.1851 103.373 52.1849 116.537 53.1055L127.506 70.9665C127.847 71.5175 127.446 72.2287 126.795 72.2287Z" fill="#DDDDDB"/>
<path d="M126.795 72.2287H103.224C102.944 72.2287 102.673 72.0886 102.523 71.8482L100.41 68.5424C101.021 67.861 89.9544 54.1729 90.9485 52.682C93.4332 52.1851 103.373 52.1849 116.537 53.1055L127.506 70.9665C127.847 71.5175 127.446 72.2287 126.795 72.2287Z" fill="#0D0D0D" fill-opacity="0.82"/>
<path d="M136.147 53.6111C141.65 53.6111 146.111 49.15 146.111 43.6469C146.111 38.1438 141.65 33.6826 136.147 33.6826C130.644 33.6826 126.183 38.1438 126.183 43.6469C126.183 49.15 130.644 53.6111 136.147 53.6111Z" fill="#DDDDDB"/>
<path d="M143.277 47.9383C146.087 43.1427 144.515 37 139.767 34.2182C135.019 31.4365 128.892 33.069 126.082 37.8646C123.273 42.6602 124.844 48.8029 129.593 51.5847C134.341 54.3665 140.468 52.7339 143.277 47.9383Z" fill="#AEEA00"/>
<path d="M143.277 47.9383C146.087 43.1427 144.515 37 139.767 34.2182C135.019 31.4365 128.892 33.069 126.082 37.8646C123.273 42.6602 124.844 48.8029 129.593 51.5847C134.341 54.3665 140.468 52.7339 143.277 47.9383Z" fill="#0D0D0D" fill-opacity="0.32"/>
<path d="M141.842 47.0978C143.913 43.5616 142.754 39.0319 139.253 36.9805C135.751 34.9291 131.233 36.1327 129.161 39.6689C127.09 43.2051 128.249 47.7348 131.75 49.7862C135.252 51.8377 139.77 50.634 141.842 47.0978Z" fill="#DDDDDB"/>
<path d="M141.02 46.6159C143.092 43.0797 141.933 38.55 138.431 36.4986C134.929 34.4471 130.411 35.6508 128.34 39.187C126.268 42.7232 127.427 47.2529 130.929 49.3043C134.43 51.3557 138.948 50.1521 141.02 46.6159Z" fill="#AEEA00"/>
<path d="M141.02 46.6159C143.092 43.0797 141.933 38.55 138.431 36.4986C134.929 34.4471 130.411 35.6508 128.34 39.187C126.268 42.7232 127.427 47.2529 130.929 49.3043C134.43 51.3557 138.948 50.1521 141.02 46.6159Z" fill="#0D0D0D" fill-opacity="0.32"/>
<path d="M127.303 44.8645C125.63 38.3254 132.715 32.8613 138.557 36.284C142.171 38.4015 143.371 43.0926 141.234 46.7417C137.801 52.6004 128.985 51.4359 127.303 44.8645ZM134.755 35.7492C130.059 35.7492 126.625 40.2098 127.785 44.7412C129.35 50.8629 137.581 51.9944 140.805 46.4903C143.598 41.7225 140.198 35.7492 134.755 35.7492Z" fill="#DDDDDB"/>
<path d="M131.89 47.4683C131.828 47.2621 131.958 47.2218 132.533 46.1883L132.595 46.424C131.222 45.6199 130.647 44.44 130.708 44.1479C130.772 43.8506 131.146 43.7256 131.304 44.0846C131.441 44.3956 131.631 44.7039 131.873 45.0099C132.316 45.5711 133.332 46.2143 134.055 46.3152C134.706 46.4055 135.203 46.1499 135.508 45.6293C136.684 43.622 131.681 42.7358 133.277 40.0114C133.989 38.7972 135.398 38.63 136.673 39.326L136.508 39.4029C137.127 38.3986 137.09 38.2822 137.299 38.2359C137.562 38.1753 137.781 38.4566 137.647 38.6857L137.043 39.7161L137.014 39.5394C137.629 39.9166 138.249 40.6372 138.457 41.4359C138.527 41.7052 138.274 41.9675 138.01 41.8129C137.763 41.6679 137.841 40.7553 136.467 39.9504C135.493 39.3797 134.428 39.4103 133.872 40.3595C132.87 42.0698 135.78 42.837 136.342 44.5811C136.626 45.4635 136.028 46.4342 135.291 46.7729C134.499 47.1368 133.616 46.9605 132.832 46.5633L133.074 46.4918C132.44 47.5246 132.472 47.639 132.271 47.6916C132.123 47.7299 131.941 47.6397 131.89 47.4683Z" fill="#DDDDDB"/>
<path d="M119.162 72.2285H106.06C103.107 67.2489 106.682 60.7988 112.611 60.7988C118.551 60.7988 122.106 67.2644 119.162 72.2285Z" fill="#DDDDDB"/>
<path d="M117.98 72.2287H104.737C101.757 66.9765 105.888 60.271 112.02 60.8291C117.595 61.3174 120.668 67.4933 117.98 72.2287Z" fill="#AEEA00"/>
<path d="M117.98 72.2287H104.737C101.757 66.9765 105.888 60.271 112.02 60.8291C117.595 61.3174 120.668 67.4933 117.98 72.2287Z" fill="#0D0D0D" fill-opacity="0.32"/>
<path d="M116.267 72.2287H107.903C104.718 68.6455 107.211 62.8125 112.08 62.8125C116.925 62.8125 119.467 68.6291 116.267 72.2287Z" fill="#DDDDDB"/>
<path d="M115.536 72.2287H107.172C103.971 68.6281 106.516 62.8125 111.359 62.8125C111.479 62.8125 111.599 62.8125 111.72 62.8326C116.401 63.121 118.615 68.7648 115.536 72.2287Z" fill="#AEEA00"/>
<path d="M115.536 72.2287H107.172C103.971 68.6281 106.516 62.8125 111.359 62.8125C111.479 62.8125 111.599 62.8125 111.72 62.8326C116.401 63.121 118.615 68.7648 115.536 72.2287Z" fill="#0D0D0D" fill-opacity="0.32"/>
<path d="M115.648 72.4772H107.06L106.986 72.3937C103.646 68.6362 106.297 62.564 111.359 62.564C111.493 62.564 111.627 62.5649 111.76 62.5873C116.59 62.8831 118.951 68.7617 115.722 72.3937L115.648 72.4772ZM107.284 71.9802H115.423C118.388 68.5041 115.896 63.0199 111.359 63.0609C106.776 63.0609 104.332 68.5174 107.284 71.9802Z" fill="#DDDDDB"/>
<path d="M110.117 67.8214C109.739 67.4441 109.72 66.638 110.267 66.1885C110.876 65.6884 112.162 65.6799 112.962 66.3988C113.224 66.6175 113.505 66.2718 113.282 66.0484C112.818 65.6057 112.181 65.3861 111.679 65.3672C111.662 64.5406 111.72 64.511 111.619 64.3856C111.46 64.2584 111.208 64.3401 111.208 64.5558V65.357C110.848 65.3672 110.537 65.4572 110.257 65.5976C109.149 66.1512 109.087 67.5471 109.706 68.1421C110.662 69.1359 112.951 68.5134 112.951 69.945C112.951 70.7883 112.231 71.0971 111.379 71.0971C109.963 71.0971 109.701 70.486 109.425 70.486C109.232 70.486 109.106 70.7477 109.325 70.9668C109.731 71.2881 110.395 71.5647 111.208 71.588V72.229H111.679V71.5779C112.673 71.4902 113.502 70.9495 113.502 69.9149C113.502 68.0609 110.817 68.5631 110.117 67.8214Z" fill="#DDDDDB"/>
<path d="M109.806 54.1832C109.693 54.3496 109.74 54.5295 109.536 54.6619C109.324 54.7996 108.636 54.9024 107.951 55.0255C107.596 55.0894 106.978 55.013 106.952 55.5188C106.946 55.6393 106.981 55.7577 107.016 55.8731C107.739 58.25 108.067 58.7436 110.65 58.3214C112.846 57.9624 114.973 57.0595 116.933 56.0352C118.785 55.0675 120.606 53.9182 122.117 52.4626C122.623 51.9753 123.125 51.4389 123.463 50.8172C123.862 50.0816 123.578 49.3772 123.295 48.6049C122.949 47.6591 122.843 47.2713 122.583 47.0042C122.384 46.8004 122.062 46.6878 121.808 46.8151C121.615 46.9119 121.505 47.1172 121.401 47.3065C121.129 47.7994 120.808 48.2655 120.445 48.6958C119.947 49.2862 118.513 49.3869 117.785 49.6478C113.605 51.1473 110.048 53.8263 109.806 54.1832Z" fill="#DDDDDB"/>
<path d="M116.6 54.9133C121.021 52.6034 123.869 49.3219 122.961 47.5838C122.053 45.8457 117.732 46.3093 113.311 48.6193C108.89 50.9292 106.042 54.2107 106.95 55.9488C107.859 57.6869 112.179 57.2233 116.6 54.9133Z" fill="#AEEA00"/>
<path d="M116.6 54.9133C121.021 52.6034 123.869 49.3219 122.961 47.5838C122.053 45.8457 117.732 46.3093 113.311 48.6193C108.89 50.9292 106.042 54.2107 106.95 55.9488C107.859 57.6869 112.179 57.2233 116.6 54.9133Z" fill="#0D0D0D" fill-opacity="0.32"/>
<path d="M57.683 83.3856C57.6786 83.3856 57.6738 83.3856 57.6689 83.3851C57.532 83.3774 57.4272 83.2604 57.435 83.1231C57.5764 80.6016 57.4863 77.4635 57.7796 74.9532C57.8187 74.631 58.3111 74.6823 58.2736 75.0114C57.9839 77.4846 58.0728 80.6426 57.931 83.1512C57.9237 83.2832 57.814 83.3856 57.683 83.3856Z" fill="#DDDDDB"/>
<path d="M45.3084 84.1525H45.303C45.1657 84.1496 45.057 84.0361 45.0599 83.8987C45.1202 81.1349 45.1939 77.2187 45.2589 74.1782C45.2618 74.0428 45.3724 73.9351 45.5073 73.9351H45.5127C45.65 73.938 45.7587 74.0515 45.7558 74.1889C45.6823 77.6258 45.6306 80.4814 45.5568 83.9094C45.5539 84.0448 45.4433 84.1525 45.3084 84.1525Z" fill="#DDDDDB"/>
<path d="M70.5147 130.888C68.3678 132.041 65.873 132.349 63.4379 132.568C54.3207 133.393 45.6871 133.363 36.3431 133.015C32.2679 132.856 27.5666 133.085 23.73 131.415C20.0723 129.824 18.9889 126.445 18.8995 122.688C18.7603 115.989 19.7542 109.18 21.2153 102.66C23.3125 93.2276 27.4374 84.3517 36.5916 80.048C47.5447 74.8895 61.9867 79.4317 68.2684 89.7488C69.1132 91.1502 69.8289 92.6212 70.4252 94.1419C70.1768 95.8515 70.1768 97.5909 70.4053 99.3006C70.3259 99.5788 70.2563 99.8571 70.1867 100.135C68.4274 107.59 62.7322 113.186 59.1441 119.736C58.6471 120.64 56.6194 123.046 57.4047 124.05C57.6531 124.368 58.0209 124.557 58.3886 124.735C67.2699 129.282 68.1126 129.761 69.7096 130.083C70.1569 130.172 70.624 130.222 71.0315 130.033C71.9559 129.616 72.3734 125.471 72.7014 124.398C73.3474 122.33 74.0631 120.263 75.0868 118.354C75.3254 123.672 74.4805 128.751 70.5147 130.888Z" fill="#AEEA00"/>
<path d="M70.5147 130.888C68.3678 132.041 65.873 132.349 63.4379 132.568C54.3207 133.393 45.6871 133.363 36.3431 133.015C32.2679 132.856 27.5666 133.085 23.73 131.415C20.0723 129.824 18.9889 126.445 18.8995 122.688C18.7603 115.989 19.7542 109.18 21.2153 102.66C23.3125 93.2276 27.4374 84.3517 36.5916 80.048C47.5447 74.8895 61.9867 79.4317 68.2684 89.7488C69.1132 91.1502 69.8289 92.6212 70.4252 94.1419C70.1768 95.8515 70.1768 97.5909 70.4053 99.3006C70.3259 99.5788 70.2563 99.8571 70.1867 100.135C68.4274 107.59 62.7322 113.186 59.1441 119.736C58.6471 120.64 56.6194 123.046 57.4047 124.05C57.6531 124.368 58.0209 124.557 58.3886 124.735C67.2699 129.282 68.1126 129.761 69.7096 130.083C70.1569 130.172 70.624 130.222 71.0315 130.033C71.9559 129.616 72.3734 125.471 72.7014 124.398C73.3474 122.33 74.0631 120.263 75.0868 118.354C75.3254 123.672 74.4805 128.751 70.5147 130.888Z" fill="#0D0D0D" fill-opacity="0.32"/>
<path d="M28.833 63.1309C25.9288 61.2633 24.5131 57.3686 25.5401 54.0718C26.5573 50.7755 29.9191 48.3897 33.3678 48.4503C34.3016 48.4819 35.2416 48.7226 36.0186 49.1283C36.2669 49.2381 36.1875 49.6035 35.9255 49.6035H35.9158C35.8755 49.6035 35.8357 49.5938 35.8003 49.5748C35.0859 49.1992 34.2166 48.9764 33.3528 48.9473C33.2931 48.9454 33.2334 48.9449 33.1737 48.9449C30.0079 48.9449 26.9509 51.1842 26.0147 54.2189C25.0518 57.3104 26.3792 60.962 29.1023 62.713C30.9116 63.8846 33.2858 64.183 35.4542 63.5099C35.7694 63.4128 35.915 63.8871 35.6018 63.9845C34.7893 64.2364 30.7281 64.3585 28.833 63.1309Z" fill="#DDDDDB"/>
<path d="M30.9004 57.7056C30.7689 56.6801 31.1004 55.6046 31.7861 54.8291C32.0042 54.5822 32.3761 54.9118 32.1589 55.1582C31.5663 55.8284 31.2799 56.7568 31.3935 57.6425C31.411 57.7784 31.3149 57.9031 31.1785 57.9206C31.046 57.9387 30.918 57.8434 30.9004 57.7056Z" fill="#DDDDDB"/>
<path d="M46.9146 74.8943C41.7017 73.567 37.2824 69.4252 35.3809 64.0857C33.7953 59.6343 33.2042 53.115 36.2977 48.1672C36.4731 47.889 36.8932 48.1526 36.7189 48.4302C33.7192 53.2286 34.3025 59.5771 35.8487 63.9188C37.6959 69.1044 41.9827 73.1258 47.0369 74.4129C47.3567 74.4946 47.2307 74.9771 46.9146 74.8943Z" fill="#DDDDDB"/>
<path d="M55.2472 75.686C54.927 75.686 54.9142 75.2065 55.2341 75.1895C61.7826 74.8391 66.1422 69.6418 67.5579 64.6464C69.1265 59.1137 68.1563 52.8826 67.29 48.6768C67.2233 48.3583 67.7104 48.2495 67.7763 48.5769C68.6533 52.8336 69.6346 59.1448 68.0364 64.7823C66.5722 69.9475 62.0544 75.322 55.2603 75.6855C55.256 75.686 55.2516 75.686 55.2472 75.686Z" fill="#DDDDDB"/>
<path d="M57.9566 64.2377C57.8068 63.6851 59.2427 63.9641 60.3012 63.2942C61.3636 62.6268 61.1628 61.4898 61.1826 60.1042C61.2418 56.3437 61.2913 56.8363 61.3505 53.0884C61.3524 52.951 61.4636 52.8651 61.6029 52.8438C61.7402 52.8462 61.8494 52.9588 61.8475 53.0961C61.8044 55.8294 61.6668 59.0106 61.6795 60.7021C61.6902 61.8853 61.6994 63.0025 60.5662 63.715C59.7568 64.2267 59.0589 64.1944 58.2619 64.4119C58.1265 64.448 57.992 64.3679 57.9566 64.2377Z" fill="#DDDDDB"/>
<path d="M53.5373 67.2032C52.386 66.2296 52.7433 64.4872 53.2718 64.7431C53.3956 64.8033 53.447 64.9518 53.3873 65.0751C53.1224 65.6211 53.3247 66.3728 53.8586 66.8237C54.4978 67.3644 55.3631 67.3901 55.8203 67.3527C56.1446 67.3279 56.1879 67.8229 55.8571 67.8487C54.8267 67.923 54.0462 67.6336 53.5373 67.2032Z" fill="#DDDDDB"/>
<path d="M68.6447 48.9096C66.6698 50.3016 65.3173 49.2399 63.5777 48.3663C61.734 47.4405 60.1769 47.1148 58.624 45.5362C58.0584 44.9612 57.73 45.065 57.4369 45.6712C56.793 47.003 55.8771 48.268 54.569 48.9588C52.4383 50.0841 49.4923 49.2526 48.2643 47.1794C47.2034 49.4177 44.4922 50.7779 41.8301 49.784C41.4203 49.631 40.2994 48.628 39.9752 48.6552C39.2416 48.7166 37.8519 51.4564 37.4203 52.1364C36.5394 53.5243 35.7466 54.9747 35.0112 56.4443C34.8287 56.8088 34.4406 56.9474 34.4245 56.4856C34.3971 55.6989 34.4328 54.9108 34.506 54.127C34.6836 52.2241 36.2492 49.5982 33.7406 49.0803C29.801 49.0803 27.8571 51.9129 27.5678 49.4451C26.8489 43.3137 32.1056 37.3062 36.0866 37.0126C38.0084 36.8708 40.1122 38.1155 40.3922 40.0221C41.193 37.5703 42.4961 35.229 44.4531 33.549C46.4101 31.869 49.0744 30.9166 51.6148 31.3624C54.1552 31.8082 56.4525 33.803 56.9057 36.3421C57.5018 33.819 60.7129 32.638 63.1848 33.4193C65.6568 34.2007 67.438 36.3536 68.778 38.5729C69.761 40.2011 70.6031 41.976 70.7416 43.8729C70.8798 45.7655 70.202 47.812 68.6447 48.9096Z" fill="#DDDDDB"/>
<path d="M68.6447 48.9096C66.6698 50.3016 65.3173 49.2399 63.5777 48.3663C61.734 47.4405 60.1769 47.1148 58.624 45.5362C58.0584 44.9612 57.73 45.065 57.4369 45.6712C56.793 47.003 55.8771 48.268 54.569 48.9588C52.4383 50.0841 49.4923 49.2526 48.2643 47.1794C47.2034 49.4177 44.4922 50.7779 41.8301 49.784C41.4203 49.631 40.2994 48.628 39.9752 48.6552C39.2416 48.7166 37.8519 51.4564 37.4203 52.1364C36.5394 53.5243 35.7466 54.9747 35.0112 56.4443C34.8287 56.8088 34.4406 56.9474 34.4245 56.4856C34.3971 55.6989 34.4328 54.9108 34.506 54.127C34.6836 52.2241 36.2492 49.5982 33.7406 49.0803C29.801 49.0803 27.8571 51.9129 27.5678 49.4451C26.8489 43.3137 32.1056 37.3062 36.0866 37.0126C38.0084 36.8708 40.1122 38.1155 40.3922 40.0221C41.193 37.5703 42.4961 35.229 44.4531 33.549C46.4101 31.869 49.0744 30.9166 51.6148 31.3624C54.1552 31.8082 56.4525 33.803 56.9057 36.3421C57.5018 33.819 60.7129 32.638 63.1848 33.4193C65.6568 34.2007 67.438 36.3536 68.778 38.5729C69.761 40.2011 70.6031 41.976 70.7416 43.8729C70.8798 45.7655 70.202 47.812 68.6447 48.9096Z" fill="#0D0D0D" fill-opacity="0.82"/>
<path d="M64.1711 53.0775C63.8007 53.1955 63.4512 53.4769 63.3864 53.8602C63.1733 55.1209 66.1309 57.014 67.514 57.3175C68.4628 57.5257 69.2629 56.9621 68.6141 55.9654C68.21 55.3446 67.6622 54.8258 67.0908 54.3712C66.2157 53.6751 65.3196 52.7113 64.1711 53.0775Z" fill="#DDDDDB"/>
<path d="M65.1118 58.0588C64.0597 58.0097 63.8518 60.5766 64.5097 61.1785C64.7959 61.4403 65.2723 61.4085 65.5821 61.175C66.7088 60.3252 65.9716 58.0989 65.1118 58.0588Z" fill="#DDDDDB"/>
<path d="M51.2317 52.441C51.1058 52.8087 51.1234 53.2571 51.3926 53.5376C52.034 54.2059 53.8494 53.6718 54.7305 53.3409C57.7452 52.2085 57.5816 50.6797 56.1987 50.5945C55.4594 50.549 54.7163 50.6797 54.0107 50.8676C52.9302 51.1554 51.6222 51.3005 51.2317 52.441Z" fill="#DDDDDB"/>
<path d="M53.3869 54.9167C52.3349 54.8676 52.1269 57.4345 52.7848 58.0364C53.071 58.2982 53.5475 58.2664 53.8572 58.0329C54.984 57.1832 54.2467 54.9568 53.3869 54.9167Z" fill="#DDDDDB"/>
<path d="M70.1569 99.3102C70.1086 98.5652 69.7788 96.8619 70.1792 94.1061C70.6105 90.9066 72.3814 85.9745 74.9902 84.2633C75.724 83.794 76.4224 83.7246 76.9101 84.0692C77.6969 84.6285 77.4419 85.709 77.1955 86.6224C77.1827 86.8147 77.0137 87.0745 76.8266 87.4421C76.7191 87.8208 76.1475 87.5323 76.3826 87.2189L76.6791 86.6448C76.8217 85.946 77.2307 84.9078 76.6228 84.4744C74.9378 83.2848 69.4666 90.3903 70.6514 99.2675C70.6514 99.6236 70.1569 99.6116 70.1569 99.3102Z" fill="#DDDDDB"/>
<path d="M58.2755 124.956C57.8717 124.76 57.483 124.552 57.2093 124.202C56.285 123.021 58.3944 120.586 58.9264 119.615C60.1756 117.336 61.7009 115.139 63.1758 113.014C72.068 100.205 68.1273 101.845 72.511 93.4006C74.8544 88.8615 78.4537 84.2014 82.0544 80.4809C82.8605 79.6544 83.9044 79.0482 84.9954 78.773C84.9954 78.7721 85.1158 78.7425 85.1168 78.7425C87.9579 78.0453 90.0141 80.3704 88.9867 83.1938C88.6977 83.9808 87.206 86.2157 86.7295 86.9298C88.1466 85.7963 90.98 84.213 92.7989 84.362C93.5303 84.4314 94.1656 84.7449 94.5553 85.2244C94.5835 85.2436 94.6081 85.2722 94.6247 85.3016C95.029 85.7572 95.2417 86.681 94.8373 87.6569C94.2681 89.0335 92.0883 90.8581 90.8897 91.7496C91.7121 91.4705 92.4201 91.2883 93.2158 91.3933C93.8759 91.4661 93.8828 91.4443 93.9593 91.4836C95.2057 91.7992 96.0969 92.7077 96.2932 93.7476C96.6412 95.6215 95.0037 96.8348 93.7414 97.5846C93.1556 97.935 92.5199 98.2839 91.6798 98.7159C88.976 100.087 87.094 102.745 86.6441 105.826C86.3319 107.989 85.2972 109.637 83.7841 111.21C81.1664 113.849 76.8424 115.139 75.3123 118.458C74.2688 120.404 73.5549 122.498 72.9386 124.471C72.5883 125.617 72.2268 129.765 71.1341 130.259C69.5815 130.978 66.5903 129.212 58.2755 124.956ZM82.4111 80.8269C78.8536 84.503 75.2772 89.1248 72.9522 93.6292C68.6195 101.97 72.5193 100.427 63.584 113.297C59.5812 119.063 59.8745 119.133 58.8536 120.647C56.9312 123.5 57.1967 123.877 58.4973 124.512C66.7516 128.735 68.1262 129.51 69.7587 129.839C70.1392 129.915 70.5755 129.971 70.9274 129.807C71.6731 129.47 72.1715 125.282 72.4634 124.324C73.9541 119.555 74.9034 118.223 75.0667 117.858C76.9163 114.555 80.8905 113.421 83.4288 110.863C84.8594 109.376 85.8603 107.805 86.1519 105.755C86.6256 102.514 88.6072 99.7166 91.4536 98.2733C93.4532 97.2442 96.1918 95.9252 95.805 93.8389C95.7201 93.3914 95.4653 92.9566 95.0877 92.6168C94.2873 91.9276 93.6738 91.9427 93.1619 91.8874C93.0625 91.8915 92.559 91.7322 91.3735 92.1121C90.4165 92.4247 89.5943 92.7498 88.6975 93.3176C88.5834 93.388 88.4334 93.3584 88.3577 93.2453C88.1659 92.9576 88.6089 92.8029 88.7072 92.7032C90.2118 91.6473 93.6463 89.2373 94.3781 87.4666C94.7209 86.639 94.5131 85.8904 94.2335 85.6107C94.2188 85.596 94.2041 85.5811 94.1928 85.5666C93.8899 85.1735 93.3658 84.9153 92.7552 84.857C92.003 84.7964 91.2459 85.0405 90.6708 85.2594C88.561 86.082 86.661 87.3356 85.2507 89.108C85.0541 89.3548 84.6717 89.0757 84.8508 88.8134C85.4541 87.9356 88.1566 84.0137 88.5198 83.023C88.9304 81.8951 88.7775 80.6939 88.1301 79.964C86.7315 78.3602 83.9404 79.2596 82.4111 80.8269ZM93.9593 91.4836C93.9355 91.472 93.8987 91.4579 93.853 91.4579C93.8929 91.4671 93.9063 91.4702 93.9593 91.4836Z" fill="#DDDDDB"/>
<path d="M93.7827 91.9448C93.6232 91.9312 93.8298 91.9597 92.8446 91.8545C92.5376 91.8248 92.5513 91.3688 92.8606 91.3585C93.1935 91.3512 93.5216 91.3803 93.839 91.4541C93.9652 91.4837 94.0472 91.6046 94.0287 91.7327C94.0103 91.855 93.905 91.9448 93.7827 91.9448Z" fill="#DDDDDB"/>
<path d="M83.0649 91.7119C83.505 90.5928 84.1374 89.5736 84.944 88.6816C85.1664 88.4393 85.5328 88.7711 85.3129 89.0155C84.5461 89.8624 83.9452 90.8306 83.5269 91.8934C83.4071 92.1996 82.944 92.0175 83.0649 91.7119Z" fill="#DDDDDB"/>
<path d="M86.8654 94.8143C86.761 94.7255 86.7484 94.5687 86.8372 94.4639C87.6157 93.5481 88.5436 92.7881 89.5958 92.2052C89.887 92.048 90.1224 92.4815 89.8365 92.64C87.4524 93.9601 87.2922 95.1751 86.8654 94.8143Z" fill="#DDDDDB"/>
<path d="M53.9884 120.679C61.3979 110.699 61.1935 110.81 61.9181 110.411C62.7908 109.931 63.8656 110.148 64.8348 110.377C68.1863 111.171 71.5689 112.108 74.7856 113.291C77.291 114.212 79.6461 115.406 82.1838 116.24C82.5122 116.348 82.8531 116.463 83.0997 116.705C83.4966 117.095 83.5518 117.726 83.4237 118.268C83.2955 118.809 83.0155 119.301 82.8213 119.823C82.4037 120.944 82.3938 122.16 82.0696 123.304C81.7943 124.277 81.1118 125.092 80.553 125.93C75.7204 133.169 67.7969 140.106 59.048 141.514C48.2059 143.259 37.9069 143.478 27.4699 139.66C23.7095 138.285 21.704 137.511 20.2701 133.501C18.8723 129.592 18.5543 125.286 19.4693 121.229" fill="#AEEA00"/>
<path d="M53.9884 120.679C61.3979 110.699 61.1935 110.81 61.9181 110.411C62.7908 109.931 63.8656 110.148 64.8348 110.377C68.1863 111.171 71.5689 112.108 74.7856 113.291C77.291 114.212 79.6461 115.406 82.1838 116.24C82.5122 116.348 82.8531 116.463 83.0997 116.705C83.4966 117.095 83.5518 117.726 83.4237 118.268C83.2955 118.809 83.0155 119.301 82.8213 119.823C82.4037 120.944 82.3938 122.16 82.0696 123.304C81.7943 124.277 81.1118 125.092 80.553 125.93C75.7204 133.169 67.7969 140.106 59.048 141.514C48.2059 143.259 37.9069 143.478 27.4699 139.66C23.7095 138.285 21.704 137.511 20.2701 133.501C18.8723 129.592 18.5543 125.286 19.4693 121.229" fill="#0D0D0D" fill-opacity="0.32"/>
<path d="M81.9686 123.255C81.8385 123.211 81.7696 123.069 81.8142 122.939L83.2338 118.799C83.6255 117.658 83.6243 116.952 81.6264 116.315C59.3074 109.203 60.473 109.514 60.2412 109.583C59.9677 109.665 60.2971 109.302 52.9842 120.533C52.9089 120.649 52.7551 120.682 52.6406 120.606C52.5255 120.531 52.493 120.377 52.5678 120.262C59.9233 108.948 59.5813 109.262 60.0985 109.107C60.5556 108.971 59.191 108.638 81.7778 115.841C82.6655 116.125 83.7104 116.575 83.9103 117.548C84.0142 118.057 83.8419 118.557 83.7036 118.96L82.284 123.1C82.239 123.232 82.0968 123.299 81.9686 123.255Z" fill="#DDDDDB"/>
<path d="M30.2085 27.1446C30.0263 26.8719 30.4391 26.5946 30.622 26.8689C31.6946 28.4758 32.672 30.1691 33.5276 31.9017C33.5883 32.025 33.5378 32.174 33.415 32.2347C32.9162 32.4806 33.1021 31.4817 30.2085 27.1446Z" fill="#DDDDDB"/>
<path d="M35.6654 31.9856C35.862 30.5433 35.83 29.0854 35.5708 27.6532C35.512 27.3264 36.0024 27.2483 36.06 27.5648C36.3284 29.0485 36.3614 30.5583 36.1576 32.0526C36.1128 32.381 35.6215 32.3097 35.6654 31.9856Z" fill="#DDDDDB"/>
<path d="M32.5332 34.1271C28.8001 31.9557 27.9321 32.1851 28.1332 31.6971C28.1857 31.57 28.3317 31.5079 28.4574 31.5622C29.9416 32.1728 31.3965 32.8915 32.7826 33.6971C33.0672 33.8632 32.8172 34.2919 32.5332 34.1271Z" fill="#DDDDDB"/>
<path d="M125.767 138.657C125.449 138.657 125.433 138.182 125.751 138.161C132.867 137.682 138.331 131.583 138.011 124.446C137.972 123.561 137.842 122.925 137.247 122.345C136.343 123.173 135.142 124.117 133.926 124.193C132.321 124.287 131.082 122.81 132 121.427C133.167 119.669 135.564 120.399 137.232 121.677C142.574 116.461 142.631 108.138 137.774 102.869C137.55 102.627 137.919 102.291 138.139 102.533C143.059 107.869 143.229 116.48 137.609 122.003C138.304 122.689 138.463 123.433 138.508 124.424C138.839 131.82 133.18 138.159 125.784 138.657C125.778 138.657 125.772 138.657 125.767 138.657ZM132.414 121.701C131.729 122.736 132.695 123.78 133.895 123.697C134.957 123.63 136.066 122.744 136.864 122.023C135.442 120.972 133.388 120.233 132.414 121.701Z" fill="#DDDDDB"/>
</svg>
