<svg width="24" height="24" viewBox="0 0 24 24" fill="none" xmlns="http://www.w3.org/2000/svg">
<path fill-rule="evenodd" clip-rule="evenodd" d="M8 13C8 12.4477 8.44772 12 9 12H15C15.5523 12 16 12.4477 16 13C16 13.5523 15.5523 14 15 14H9C8.44772 14 8 13.5523 8 13Z" fill="black" fill-opacity="0.87"/>
<path fill-rule="evenodd" clip-rule="evenodd" d="M8 9C8 8.44772 8.44772 8 9 8H15C15.5523 8 16 8.44772 16 9C16 9.55228 15.5523 10 15 10H9C8.44772 10 8 9.55228 8 9Z" fill="black" fill-opacity="0.87"/>
<path fill-rule="evenodd" clip-rule="evenodd" d="M7.02957 4C6.00231 4 5 4.77678 5 5.93424V6V17.6542V19.7038C5.00017 19.7612 5.01564 19.8173 5.04447 19.865C5.0733 19.9128 5.11422 19.9501 5.16213 19.9724C5.21004 19.9947 5.26283 20.0009 5.31393 19.9903C5.36502 19.9797 5.41215 19.9527 5.44946 19.9127L5.81004 19.6107L6.4472 19.0769C6.46923 19.0445 6.4978 19.0181 6.53065 19C6.5635 18.9819 6.59972 18.9724 6.63644 18.9724C6.67317 18.9724 6.70939 18.9819 6.74224 19C6.77508 19.0181 6.80366 19.0445 6.82569 19.0769L8.0196 19.8955C8.04163 19.928 8.0702 19.9543 8.10305 19.9724C8.1359 19.9906 8.17212 20 8.20884 20C8.24557 20 8.28179 19.9906 8.31464 19.9724C8.34748 19.9543 8.37606 19.928 8.39809 19.8955L9.28458 19.0769C9.30661 19.0445 9.33519 19.0181 9.36803 19C9.40088 18.9819 9.4371 18.9724 9.47382 18.9724C9.51055 18.9724 9.54677 18.9819 9.57962 19C9.61246 19.0181 9.64104 19.0445 9.66307 19.0769L10.7164 19.8955C10.7384 19.928 10.767 19.9543 10.7998 19.9724C10.8327 19.9906 10.8689 20 10.9056 20C10.9423 20 10.9786 19.9906 11.0114 19.9724C11.0442 19.9543 11.0728 19.928 11.0949 19.8955L12.1364 19.0769C12.1585 19.0445 12.187 19.0181 12.2199 19C12.2527 18.9819 12.2889 18.9724 12.3257 18.9724C12.3624 18.9724 12.3986 18.9819 12.4315 19C12.4643 19.0181 12.4929 19.0445 12.5149 19.0769L13.4131 19.8955C13.4352 19.928 13.4637 19.9543 13.4966 19.9724C13.5294 19.9906 13.5656 20 13.6024 20C13.6391 20 13.6753 19.9906 13.7082 19.9724C13.741 19.9543 13.7696 19.928 13.7916 19.8955L14.7622 19.0769C14.7843 19.0445 14.8128 19.0181 14.8457 19C14.8785 18.9819 14.9147 18.9724 14.9515 18.9724C14.9882 18.9724 15.0244 18.9819 15.0573 19C15.0901 19.0181 15.1187 19.0445 15.1407 19.0769L16.1099 19.8955C16.1319 19.928 16.1605 19.9543 16.1933 19.9724C16.2262 19.9906 16.2624 20 16.2991 20C16.3359 20 16.3721 19.9906 16.4049 19.9724C16.4378 19.9543 16.4663 19.928 16.4884 19.8955L17.4509 19.0769C17.473 19.0445 17.5016 19.0181 17.5344 19C17.5672 18.9819 17.6035 18.9724 17.6402 18.9724C17.6769 18.9724 17.7131 18.9819 17.746 19C17.7788 19.0181 17.8074 19.0445 17.8294 19.0769L18.2511 19.5657L18.5505 19.9127C18.5878 19.9527 18.6349 19.9797 18.686 19.9903C18.7371 20.0009 18.7899 19.9947 18.8378 19.9724C18.8857 19.9501 18.9267 19.9128 18.9555 19.865C18.9843 19.8173 18.9998 19.7612 19 19.7038V17.6678L19 17.6542V5.93424C19 4.77678 17.9977 4 16.9704 4H7.02957ZM7 6.00314V17.5853C7.00797 17.5872 7.0178 17.5885 7.02957 17.5885H16.9704C16.9822 17.5885 16.992 17.5872 17 17.5853V6.00314C16.992 6.0013 16.9822 6 16.9704 6H7.02957C7.0178 6 7.00797 6.0013 7 6.00314Z" fill="black" fill-opacity="0.87"/>
</svg>
