<svg width="222" height="222" viewBox="0 0 222 222" fill="none" xmlns="http://www.w3.org/2000/svg">
<circle opacity="0.03" cx="111" cy="111" r="111" fill="#AEEA00"/>
<circle opacity="0.05" cx="111" cy="111.001" r="92.5" fill="#AEEA00"/>
<circle opacity="0.08" cx="111" cy="111" r="69.375" fill="#AEEA00"/>
<path d="M143.994 110.601C143.994 111.167 144.015 111.717 144.058 112.252L149.091 113.048C148.986 112.284 148.934 111.468 148.934 110.601C148.934 107.794 149.489 105.592 150.599 103.996C151.709 102.401 153.493 101.603 155.952 101.603C157.602 101.603 158.936 101.972 159.956 102.711C161.005 103.42 161.785 104.44 162.295 105.77C162.805 107.099 163.06 108.71 163.06 110.601C163.06 112.322 162.842 113.84 162.407 115.157L163.542 115.336C164.715 113.362 166.226 111.606 167.995 110.147C167.943 107.615 167.446 105.412 166.467 103.57C165.47 101.608 164.057 100.095 162.227 99.0631C160.431 98.003 158.359 97.4862 156.042 97.4862C153.612 97.4862 151.466 97.9998 149.635 99.0615C147.8 100.096 146.398 101.614 145.43 103.585C144.459 105.532 143.994 107.882 143.994 110.601Z" fill="#F6F7FB"/>
<path d="M72.4319 119.372L72.4345 119.369L72.437 119.365C73.4802 117.873 73.9816 116.09 73.9816 114.058C73.9816 112.294 73.6144 110.758 72.8233 109.501C72.08 108.272 70.9824 107.252 69.571 106.429C68.221 105.594 66.5794 104.835 64.6577 104.143C62.9395 103.501 61.6043 102.912 60.6365 102.379C59.7608 101.897 59.173 101.388 58.813 100.873L54.6607 100.215C56.2218 102.304 57.3766 104.706 58.0096 107.31C58.9723 107.792 60.0486 108.249 61.2359 108.682L61.2414 108.684L61.2469 108.686C63.1742 109.357 64.6325 109.987 65.6464 110.57L65.6583 110.577L65.6704 110.583C66.7093 111.137 67.3508 111.701 67.6939 112.242C68.0415 112.79 68.2395 113.499 68.2395 114.413C68.2395 115.296 68.012 116.026 67.5809 116.64C67.157 117.243 66.4987 117.743 65.5411 118.11C64.5881 118.475 63.3648 118.674 61.8437 118.674C60.3679 118.674 58.9297 118.525 57.5279 118.229C56.9324 119.982 56.0947 121.626 55.0541 123.121C55.9872 123.335 57.0053 123.501 58.1066 123.622L58.1091 123.622C59.251 123.744 60.436 123.804 61.6637 123.804C64.0861 123.804 66.2261 123.438 68.0621 122.676C69.9233 121.917 71.3956 120.822 72.4319 119.372Z" fill="#F6F7FB"/>
<path d="M83.8706 123.412C83.8706 122.872 83.8443 122.249 83.7928 121.547C83.9244 121.662 84.0595 121.776 84.198 121.888L84.2141 121.901L84.2309 121.913C85.0014 122.474 85.9062 122.924 86.9329 123.272C87.9974 123.633 89.1875 123.805 90.4914 123.805C92.6352 123.805 94.5367 123.314 96.1615 122.302L96.1634 122.3L96.1653 122.299C97.8245 121.253 99.0808 119.726 99.9482 117.765C100.848 115.768 101.28 113.371 101.28 110.601C101.28 109.531 101.219 108.519 101.096 107.567L95.8976 106.744C96.1922 107.866 96.3394 109.137 96.3394 110.557C96.3394 112.33 96.0995 113.911 95.6197 115.3C95.1698 116.659 94.4651 117.738 93.5054 118.536C92.5757 119.334 91.3761 119.733 89.9066 119.733C88.1672 119.733 86.7877 119.378 85.768 118.669C84.7783 117.959 84.0736 116.925 83.6537 115.566C83.2339 114.206 83.0239 112.552 83.0239 110.601V109.848C83.0539 107.986 83.2938 106.449 83.7437 105.238C83.7937 105.103 83.847 104.972 83.9036 104.845L78.2186 103.945V134H83.8706V123.412Z" fill="#F6F7FB"/>
<path d="M105.894 123.361H111.546V109.222L105.894 108.327V123.361Z" fill="#F6F7FB"/>
<path d="M117.492 123.361H123.144V111.058L117.492 110.163V123.361Z" fill="#F6F7FB"/>
<path d="M141.114 118.49C140.77 118.594 140.3 118.704 139.695 118.818C139.109 118.9 138.54 118.94 137.989 118.94C137.078 118.94 136.385 118.67 135.843 118.165C135.37 117.67 135.057 116.843 135.057 115.521V112.944L129.405 112.049V115.61C129.405 117.608 129.745 119.276 130.519 120.524C131.26 121.719 132.244 122.598 133.472 123.117L133.486 123.122L133.499 123.127C134.685 123.582 135.959 123.805 137.314 123.805C138.088 123.805 138.886 123.726 139.707 123.571C140.517 123.447 141.21 123.269 141.741 123.007L142.209 122.776V118.157L141.114 118.49Z" fill="#F6F7FB"/>
<path d="M160.848 122.95L160.853 122.948L160.857 122.946C160.888 122.934 160.92 122.921 160.951 122.908C161.195 120.932 161.734 119.045 162.524 117.293L161.472 117.126C161.068 117.719 160.577 118.219 160.001 118.624C158.951 119.363 157.617 119.733 155.997 119.733C154.378 119.733 153.043 119.363 151.993 118.624C150.944 117.886 150.164 116.837 149.654 115.477C149.627 115.4 149.601 115.322 149.576 115.243L144.368 114.418C144.496 115.019 144.656 115.597 144.851 116.15L144.854 116.16L144.857 116.169C145.461 117.765 146.295 119.147 147.366 120.298C148.438 121.451 149.708 122.333 151.17 122.941L151.177 122.944L151.185 122.947C152.643 123.522 154.22 123.805 155.907 123.805C157.706 123.805 159.357 123.525 160.848 122.95Z" fill="#F6F7FB"/>
<path d="M143.994 110.601C143.994 111.167 144.015 111.717 144.058 112.252L149.091 113.048C148.986 112.284 148.934 111.468 148.934 110.601C148.934 107.794 149.489 105.592 150.599 103.996C151.709 102.401 153.493 101.603 155.952 101.603C157.602 101.603 158.936 101.972 159.956 102.711C161.005 103.42 161.785 104.44 162.295 105.77C162.805 107.099 163.06 108.71 163.06 110.601C163.06 112.322 162.842 113.84 162.407 115.157L163.542 115.336C164.715 113.362 166.226 111.606 167.995 110.147C167.943 107.615 167.446 105.412 166.467 103.57C165.47 101.608 164.057 100.095 162.227 99.0631C160.431 98.003 158.359 97.4862 156.042 97.4862C153.612 97.4862 151.466 97.9998 149.635 99.0615C147.8 100.096 146.398 101.614 145.43 103.585C144.459 105.532 143.994 107.882 143.994 110.601Z" fill="#AEEA00"/>
<path d="M129.405 102.616V109.932L135.057 110.826V102.616H142.029V97.9293H135.057V92.477H131.246L129.599 97.7606L125.986 99.379V102.616H129.405Z" fill="#AEEA00"/>
<path d="M123.144 108.94V97.9292H117.492V108.046L123.144 108.94Z" fill="#AEEA00"/>
<path d="M122.494 89.8454C121.896 89.3038 121.174 89.0194 120.363 89.0194C119.512 89.0194 118.75 89.292 118.133 89.8541C117.434 90.4589 117.177 91.3579 117.177 92.3381C117.177 93.3104 117.445 94.189 118.122 94.812C118.741 95.381 119.507 95.6568 120.363 95.6568C121.179 95.6568 121.905 95.369 122.505 94.8209C123.215 94.2024 123.504 93.3215 123.504 92.3381C123.504 91.3464 123.226 90.4455 122.494 89.8454Z" fill="#AEEA00"/>
<path d="M105.894 88V106.209L111.546 107.104V88H105.894Z" fill="#AEEA00"/>
<path d="M100.673 105.383C100.191 103.573 99.4167 102.047 98.325 100.829C96.3504 98.5928 93.7256 97.4862 90.5364 97.4862C89.1775 97.4862 87.9562 97.6572 86.8879 98.019L86.8839 98.0204L86.88 98.0217C85.8668 98.376 84.9683 98.8649 84.1949 99.4945L84.1877 99.5004L84.1807 99.5063C83.9089 99.7376 83.6508 99.9786 83.4065 100.229L83.0228 97.9295H78.2186V101.828L85.311 102.95C85.4963 102.798 85.6936 102.659 85.903 102.534C86.8926 101.913 88.1972 101.603 89.8166 101.603C92.0359 101.603 93.6703 102.415 94.72 104.041C94.8151 104.184 94.9061 104.332 94.9929 104.483L100.673 105.383Z" fill="#AEEA00"/>
<path d="M53.8683 93.712C53.0246 94.8604 52.5549 96.2023 52.4355 97.7097C52.4505 97.7239 52.4655 97.7382 52.4804 97.7525L58.1929 98.6569C58.1922 98.6196 58.1919 98.5819 58.1919 98.5438C58.1919 97.7688 58.3801 97.1345 58.7287 96.6078L58.7331 96.6011L58.7375 96.5942C59.0826 96.0501 59.6126 95.6056 60.3803 95.2778C61.1419 94.9525 62.1434 94.7702 63.4181 94.7702C64.7612 94.7702 66.0402 94.925 67.2574 95.2318L67.2596 95.2324L67.2619 95.2329C68.5422 95.5483 69.7126 95.9334 70.7751 96.3862L71.5988 96.7372L73.4353 91.7606L72.7169 91.442C71.4585 90.884 70.0687 90.439 68.5515 90.1034C67.0118 89.7628 65.3292 89.5956 63.5081 89.5956C61.4065 89.5956 59.5069 89.9357 57.8257 90.6366L57.823 90.6378L57.8202 90.6389C56.1653 91.3424 54.8372 92.3639 53.8683 93.712Z" fill="#AEEA00"/>
</svg>
