<svg width="192" height="192" viewBox="0 0 192 192" fill="none" xmlns="http://www.w3.org/2000/svg">
<circle opacity="0.03" cx="96" cy="96" r="96" fill="#B39DDB"/>
<circle opacity="0.05" cx="96" cy="96" r="80" fill="#B39DDB"/>
<circle opacity="0.08" cx="96" cy="96" r="60" fill="#B39DDB"/>
<path fill-rule="evenodd" clip-rule="evenodd" d="M85.8231 110.488L72 114.969C72.0726 117.624 73.4512 120.512 76.1361 123.632C80.4898 128.544 85.8322 131 92 131V118L90.3946 117.358C89.3787 116.96 88.3628 116.13 87.3469 114.869C86.3311 113.608 85.8231 112.147 85.8231 110.488ZM83.102 63.6885C76.2812 67.3395 72.8707 72.816 72.8707 80.1181C72.8707 83.0389 73.3424 85.661 74.2857 87.9844C76.0272 92.2992 80.0181 95.8175 86.2585 98.5391C87.2744 99.0038 89.0522 99.6344 91.5918 100.431C91.7302 100.477 91.8663 100.523 92 100.568V85.5573C88.9705 83.8509 87.4558 81.8718 87.4558 79.6202C87.4558 78.9564 87.6009 78.3257 87.8912 77.7283C88.7619 75.8032 90.1859 74.4647 92 74V61C89.2426 61.0664 86.2222 61.9625 83.102 63.6885ZM98 88.1295V102.821C102.435 104.896 104.653 107.452 104.653 110.488C104.653 111.749 104.399 112.911 103.891 113.973C102.73 116.363 100.83 117.668 98 118V131C103.442 131 108.209 129.141 112.49 125.424C117.497 121.109 120 115.931 120 109.89C120 106.704 119.274 103.817 117.823 101.228C115.864 97.9085 111.946 94.6558 106.068 91.4694C104.617 90.6728 102.15 89.6439 98.6667 88.3826C98.4376 88.2959 98.2153 88.2116 98 88.1295ZM98 61V74C98 74 98.0499 74.1769 98.3401 74.2432C101.315 75.239 102.803 77.1309 102.803 79.9189L116.952 75.6373C116.88 73.3803 115.646 70.8578 113.252 68.0697C109.116 63.3566 104.095 61 98 61Z" fill="#B39DDB"/>
</svg>
