<svg width="21" height="20" viewBox="0 0 21 20" fill="none" xmlns="http://www.w3.org/2000/svg">
<path d="M15.6853 10.5941C15.712 13.4694 18.2077 14.4262 18.2354 14.4384C18.2143 14.5059 17.8366 15.802 16.9205 17.1408C16.1286 18.2982 15.3067 19.4514 14.012 19.4753C12.7398 19.4987 12.3307 18.7209 10.8762 18.7209C9.42213 18.7209 8.96762 19.4514 7.76333 19.4987C6.51358 19.546 5.56191 18.2471 4.76342 17.0939C3.13179 14.735 1.88489 10.4282 3.55916 7.52108C4.39091 6.07737 5.87729 5.16316 7.49063 5.13971C8.71785 5.1163 9.8762 5.96535 10.6264 5.96535C11.3762 5.96535 12.7838 4.9443 14.2636 5.09425C14.8831 5.12004 16.622 5.34449 17.7387 6.97893C17.6487 7.03471 15.6638 8.19025 15.6853 10.5941M13.2944 3.53363C13.9579 2.73049 14.4044 1.61245 14.2826 0.5C13.3262 0.538438 12.1697 1.13731 11.4837 1.94001C10.869 2.65083 10.3305 3.78856 10.4758 4.87899C11.5418 4.96146 12.6308 4.33729 13.2944 3.53364" fill="white"/>
</svg>
