<svg width="17" height="20" viewBox="0 0 17 20" fill="none" xmlns="http://www.w3.org/2000/svg">
<path d="M13.6853 10.5941C13.712 13.4694 16.2077 14.4262 16.2354 14.4384C16.2143 14.5059 15.8366 15.802 14.9205 17.1408C14.1286 18.2982 13.3067 19.4514 12.012 19.4753C10.7398 19.4987 10.3307 18.7209 8.87619 18.7209C7.42213 18.7209 6.96762 19.4514 5.76333 19.4987C4.51358 19.546 3.56191 18.2471 2.76342 17.0939C1.13179 14.735 -0.115105 10.4282 1.55916 7.52108C2.39091 6.07737 3.87729 5.16316 5.49063 5.13971C6.71785 5.1163 7.8762 5.96535 8.62642 5.96535C9.37616 5.96535 10.7838 4.9443 12.2636 5.09425C12.8831 5.12004 14.622 5.34449 15.7387 6.97893C15.6487 7.03471 13.6638 8.19025 13.6853 10.5941M11.2944 3.53363C11.9579 2.73049 12.4044 1.61245 12.2826 0.5C11.3262 0.538438 10.1697 1.13731 9.48374 1.94001C8.86896 2.65083 8.33055 3.78856 8.47582 4.87899C9.54182 4.96146 10.6308 4.33729 11.2944 3.53364" fill="black" fill-opacity="0.87"/>
</svg>
